<?xml version="1.0" encoding="utf-8"?>
<!-- Generator: Adobe Illustrator 24.0.1, SVG Export Plug-In . SVG Version: 6.00 Build 0)  -->
<svg version="1.1"
	 id="svg2" inkscape:version="0.48.4 r9939" sodipodi:docname="palace.pdf" xmlns:cc="http://creativecommons.org/ns#" xmlns:dc="http://purl.org/dc/elements/1.1/" xmlns:inkscape="http://www.inkscape.org/namespaces/inkscape" xmlns:rdf="http://www.w3.org/1999/02/22-rdf-syntax-ns#" xmlns:sodipodi="http://sodipodi.sourceforge.net/DTD/sodipodi-0.dtd" xmlns:svg="http://www.w3.org/2000/svg"
	 xmlns="http://www.w3.org/2000/svg" xmlns:xlink="http://www.w3.org/1999/xlink" x="0px" y="0px" viewBox="0 0 69.4 86.3"
	 style="enable-background:new 0 0 69.4 86.3;" xml:space="preserve">
<style type="text/css">
	.st0{fill:none;}
	.st1{fill:#FFFFFF;}
</style>
<sodipodi:namedview  bordercolor="#666666" borderopacity="1" fit-margin-bottom="0" fit-margin-left="0" fit-margin-right="0" fit-margin-top="0" gridtolerance="10" guidetolerance="10" id="namedview4" inkscape:current-layer="g10" inkscape:cx="121.75736" inkscape:cy="32.048726" inkscape:pageopacity="0" inkscape:pageshadow="2" inkscape:window-height="538" inkscape:window-maximized="1" inkscape:window-width="1024" inkscape:window-x="-8" inkscape:window-y="-8" inkscape:zoom="2" objecttolerance="10" pagecolor="#ffffff" showgrid="false">
	</sodipodi:namedview>
<g>
	<path class="st0" d="M39.2,53.3C39.2,53.3,39.2,53.3,39.2,53.3l-0.2,0l0,0L39.2,53.3z"/>
	<path class="st1" d="M36.6,74.8l0.2,0.1c0.1,0,0.2-0.1,0.3-0.1c0.2,0,0.3,0.1,0.3,0.3c0,0.2-0.2,0.3-0.4,0.3
		c-0.2,0-0.4-0.1-0.5-0.1l-0.1,0.3c0.1,0.1,0.3,0.1,0.6,0.1c0.4,0,0.7-0.2,0.7-0.6c0-0.4-0.2-0.6-0.6-0.6c-0.1,0-0.2,0-0.3,0l0-0.4
		h0.8l0-0.3h-1L36.6,74.8z"/>
	<path class="st1" d="M34.7,74.7c0,0.6,0.3,1,0.7,1c0.4,0,0.7-0.3,0.7-1c0-0.6-0.3-1-0.7-1C35,73.8,34.7,74.1,34.7,74.7z M35.4,74
		c0.3,0,0.4,0.2,0.4,0.7c0,0.4-0.1,0.7-0.4,0.7c-0.3,0-0.4-0.2-0.4-0.7C35,74.3,35.2,74,35.4,74z"/>
	<path class="st1" d="M33.6,73.8c-0.4,0-0.7,0.3-0.7,0.6c0,0.4,0.2,0.6,0.6,0.6c0.2,0,0.3-0.1,0.4-0.1c-0.1,0.3-0.4,0.5-0.8,0.6
		l0,0.3c0.6-0.1,1.1-0.5,1.1-1.1C34.3,74,34,73.8,33.6,73.8z M34,74.6c-0.1,0.1-0.2,0.1-0.4,0.1c-0.2,0-0.3-0.1-0.3-0.3
		c0-0.2,0.1-0.3,0.3-0.3C33.8,74,34,74.2,34,74.6L34,74.6z"/>
	<polygon class="st1" points="32.5,73.8 32.2,73.8 31.7,74 31.7,74.3 32.1,74.1 32.1,75.7 32.5,75.7 	"/>
	<path class="st1" d="M7.7,80.5l0,0.7C8,81.1,8.3,81,8.6,81c0.4,0,0.7,0,1,0.1c0.1,0,0.3,0.1,0.4,0.1c0.3,0.1,0.7,0.2,0.9,0.1
		c0,0,0.1-0.1,0.1-0.3c0-0.1,0-0.2-0.1-0.3C10.4,80.3,8.9,80.3,7.7,80.5z"/>
	<path class="st1" d="M58.6,80.9C58.6,80.9,58.6,80.9,58.6,80.9c-0.1,0.1-0.2,0.2-0.2,0.3c0,0.1,0,0.3,0.1,0.3
		c0.1,0.1,0.6,0,0.9-0.1c0.1,0,0.3-0.1,0.4-0.1c0.5-0.1,1.3-0.1,1.9,0.1l0-0.7c-0.6-0.1-1.3-0.2-1.9-0.2
		C59.4,80.6,58.9,80.7,58.6,80.9z"/>
	<path class="st1" d="M65.7,70.4V59.8l0.7-0.2v-1.5l-0.7-0.3v-1l0.7-0.2v-1.8l-2.2-2v-0.5c0,0-0.1-0.4-0.6-0.4h-0.6
		c0,0-0.5,0.1-0.5,0.4v0.5l-2.2,2.1l0,1.8l0.7,0.2v1l-0.7,0.3v0.7c-4.7,5.7-11.7,9.1-12.6,9.6V66h-5.3c-0.2-1.3-0.7-2.5-1.4-3.5
		c0.5-0.3,1-1,1.2-1.8c0.2-0.8,0.1-1.5-0.3-2.1c0,0,0-0.1-0.1-0.1c-0.1-0.1-0.3-0.3-0.6-0.5c-0.4-0.3-0.9-0.7-1.1-0.9
		c-0.4-0.4-0.5-0.9-0.7-1.4c0.1,0,0.3-0.1,0.4-0.2c0.1-0.1,0.1-0.3,0.1-0.4l-0.1-0.3c-0.1-0.4-0.2-0.9-0.3-1.4l0,0c0,0,0,0,0.1,0
		c0,0,0,0,0,0c0.3,0,0.5-0.2,0.5-0.5c0-0.1,0-0.2-0.1-0.2l-0.5-1.5c0,0.1,0.1,0.1,0.1,0.1c0.1,0.1,0.5,0.4,0.6,0.3
		c0.2-0.1,0.2-0.4,0.2-0.6c0.1-1,0.8-2,1.6-2.5c0,0.1,0.1,0.2,0.1,0.2c0.1,0.2,0.1,0.5,0.3,0.5c0,0,0,0,0,0c0.2,0,0.3-0.3,0.6-0.5
		c0.3-0.3,0.6-0.7,1-0.8l1.7,0.7c0.1,0.3,0.3,0.8,0.7,1.1c0.3,0.3,0.6,0.4,1.2,0.8c0.1,0,0.1,0.1,0.2,0.1c-0.1,0-0.1,0-0.2,0.1
		c-0.2,0.1-0.7,0.3-0.7,0.5c0,0.2,0.5,0.4,0.7,0.5c0.4,0.1,0.8,0.2,1.2,0.2c0.8,0,1.6-0.3,2-0.8c0.4-0.4,0.5-1,0.4-1.6
		c-0.1-0.4-0.2-1.5-0.3-1.9l0.5-1.5c0,0,0-0.1,0-0.1c0-0.7-0.2-1.5-0.6-2.3l0-0.1c0-0.1,0-0.1-0.1-0.2c0,0,0-0.1-0.1-0.1
		c-0.1-0.2-0.2-0.5-0.4-0.7c-1.2-2-2.9-3.6-3-3.7c-0.1-0.1-0.4-0.4-0.6-0.3c-0.2,0.1-0.2,0.5-0.2,0.7l0,0.1
		c-0.1-0.3-0.6-0.7-0.7-0.9c-0.2-0.3-0.4-0.7-0.4-0.9c1.5-6.7,5.9-11.2,5.9-11.2c0.1-0.1,0.1-0.2,0.1-0.3c1-9.6,11.9-13.8,12-13.9
		c0,0,0.3-0.1,0.4-0.1c0.4-0.3,0.4-0.5,0.4-0.6c-0.1-0.4-0.8-0.7-3.5-0.7c-1,0-2,0-2,0c0,0-0.1,0-0.1,0c-1.7,0.1-3.3,0.5-4.7,1.1
		c1.9-2.3,4.9-3.7,6.7-4.4c0.1,0,0.4-0.2,0.4-0.2c0.1-0.1,0.2-0.3,0.1-0.5c-0.2-0.4-1-0.5-1.6-0.5c-0.6,0-1.4,0.1-2.5,0.2
		c-0.5,0.1-1,0.1-1.5,0.2c0,0,0,0-0.1,0c-2.1,0.5-4,1.4-5.7,2.7c-0.2,0.2-0.4,0.4-0.7,0.6l1.3-2.2c0.7-1.2,1.5-2.2,2.3-3.2
		c0.1-0.1,0.1-0.1,0.1-0.2c0-0.2,0.2-0.4,0.1-0.5c-0.1-0.1-0.2-0.2-0.5-0.2c-0.2,0-1,0.1-4,2.4c-2.8,2-5.3,4.5-7,7.4
		c-0.7,1.3-2,3.6-2.4,5.3c0-0.2,0-0.3-0.1-0.5c-0.1-0.7-0.1-1.4-0.1-2.2c0-1,0-1.9,0.1-2.4c0-0.2,0-0.8-0.3-0.9
		c-0.2-0.1-0.6,0.4-0.7,0.6c-1.5,3.4-1.9,6.2-1.9,7.8l-0.5,4.9c-0.1,0.3-0.3,2-0.3,2c-0.4-0.7-0.7-1.2-1-2c0,0,0,0,0-0.1l-0.5-0.7
		c0,0,0,0,0-0.1c-0.7-0.8-1.4-1.3-2.2-1.8c-1.2-0.7-2.6-1.6-4.7-4c-1.2-1.4-2.5-4.1-3-6c-0.9-3.8-0.8-8.2,0.2-12.3
		c0.1-0.3,0.2-0.8,0-0.9C23.8,0.1,23.6,0,23.5,0c-0.3,0-0.6,0.3-2.6,3.4c0,0,0,0,0,0c-1.3,2.1-2.2,4.4-2.6,6.8
		c-0.1,0.5-0.2,1-0.2,1.6c-0.5-1.1-0.8-2.3-1.1-3.5c-0.6-2.6-0.8-5.2-0.6-7.5c0-0.1,0-0.5-0.1-0.6C16.2,0.1,16,0,15.9,0
		c-0.4,0-1.1,0.6-2.5,4.3c-1.3,3.5-1.7,6.8-1.3,10.3c-1.5-1.9-2.2-4.7-2.8-7.2C9.1,6.8,9,6.2,8.8,5.6c-0.1-0.3-0.3-1-0.5-0.9
		c0,0,0,0-0.1,0c0,0,0,0,0,0c0,0,0,0,0,0c0,0,0,0,0,0C8.1,4.9,7.9,5.5,7.9,5.6C7.8,5.7,7.7,5.9,7.7,6.3c0,0,0,0,0,0
		c0,0.1,0,0.2,0,0.3c0,0.1,0,0.3,0,0.4c-0.2,1.9-0.3,6.6,2.1,11.7l0.1,0.1c0,0.1,0.1,0.2,0.1,0.2c0.3,0.6,0.6,1.1,0.9,1.6
		c0.1,0.2,0.2,0.3,0.3,0.5c0.3,0.6,0.6,1,0.9,1.3c-1.4-0.3-3.4-0.7-4.4-0.8c-0.2,0-0.4,0.1-0.5,0.3c-0.1,0.2,0,0.5,0.2,0.6
		c0.8,0.5,2.3,1.9,3.9,3.4l0,0l2.8,2.6l0.3,0.2c0.9,0.9,1.9,1.8,2.8,2.6l-1.9-0.2c-0.2,0-0.4,0.1-0.5,0.3c-0.1,0.2,0,0.4,0.1,0.6
		l4.5,3.6l0,0l2,1.6c0,0,0,0,0,0l3.4,2.7c0.1,0.1,0.2,0.1,0.3,0.1l0.9,0c-1.8,0.8-3.5,0.8-5.5,0.1c-1.5-0.5-2.9-1.3-4.2-2.3
		c-0.2-0.1-0.6-0.4-0.8-0.3c-0.2,0.1,0,0.6,0,0.8c0.4,0.9,1.1,1.8,1.8,2.5c-2.3-0.3-4.4-0.9-6.8-2c-0.2-0.1-0.6-0.3-0.7-0.2
		c-0.1,0.2,0,0.7,0.1,0.9c1.1,1.7,2,2.9,2.8,3.8c0.9,0.9,2.1,1.9,2.7,2.3c0.1,0.1,0.4,0.2,1.9,0.2c0.5,0,1.2,0,1.7-0.1
		c0.1,0,0.1,0,0.2,0c-1.4,0.5-2.8,0.7-3.9,0.6c-0.2,0-0.8,0-0.9,0.2c-0.1,0.2,0.4,0.6,0.6,0.7c1.7,0.6,3.4,1,5,1.2
		c0.5,0.1,2,0.5,3.7,0.7c0.1,0,0.2,0,0.3,0c0.1,0,0.3,0,0.4,0c0.6,0.1,1.2,0.1,1.8,0.1c0.5,0,1,0,1.6-0.1c0,0.1,0,0.1,0.1,0.2
		l0.3,0.6c-0.1,0-0.2,0.1-0.3,0.1c-0.1,0.2-0.2,0.4-0.1,0.6l0.6,1.1c0,0,0,0.1,0,0.1c0,0,0,0,0,0.1c0,0-0.1,0-0.1,0
		c-0.2,0.1-0.2,0.3-0.2,0.5c0.3,1.3,0.9,1.7,1.4,2c0.3,0.2,0.5,0.4,0.6,0.7c0.1,0.2,0.2,0.5,0.3,0.8c0.2,0.6,0.6,1.5,0.4,1.8
		c-0.3,0.5-0.5,0.6-0.8,0.8c-0.2,0.1-0.5,0.3-0.8,0.6c-0.8,0.7-0.8,1.6-0.2,2.7l0,0.1c0,0,0.1,0,0.1,0.1c-0.9,1.1-1.5,2.4-1.7,3.9
		H22v2.2c-0.6-0.3-7.6-4-12.4-9.6v-0.5l-0.7-0.3c0,0,0,0,0,0v-1l0.7-0.2l0-1.8l-2.2-2.1v-0.5c0-0.4-0.5-0.4-0.5-0.4H6.2
		c-0.6,0-0.6,0.4-0.6,0.4v0.5l-2.2,2v1.8l0.7,0.2v1l-0.7,0.3v1.5l0.7,0.2v10.7c-1.8,0.6-3,1.1-3.1,1.2l-1,0.5L0.8,73
		c0,0,2.4,2.4,2.5,6.5c0,0.5,0.2,0.9,0.6,1.2c0.8,0.6,2.1,0.4,2.6,0.3l0,1.9l1.2-0.7c0.3-0.2,0.9-0.2,1.6-0.1c0.1,0,0.2,0.1,0.4,0.1
		c0.6,0.2,1.3,0.3,1.8-0.1c0.2-0.2,0.5-0.5,0.6-1.2c0-0.5-0.2-0.9-0.5-1.2c-0.1-0.1-0.1-0.1-0.2-0.1c-0.2-0.2-0.5-0.6-0.8-0.9
		c1.5,0,3.2,0.2,5,0.9c2.3,0.8,4.3,1.8,6.2,2.9c3.6,1.9,7,3.8,12.3,3.8c0.5,0,1,0,1.5,0c5.7-0.3,9.7-2.3,13.3-4.1
		c1.5-0.7,2.9-1.4,4.4-2c0.1,0,0.2-0.1,0.4-0.1c1-0.4,3-1.2,5.3-1.3c0,0-0.1,0-0.1,0.1c-0.3,0.6-1.2,1.4-1.2,1.4l0,0
		c-0.3,0.3-0.4,0.6-0.4,1c0,0.6,0.3,1,0.5,1.2c0.5,0.4,1.3,0.3,1.8,0.2c0.1,0,0.3-0.1,0.4-0.1c0.7-0.1,1.3,0,1.6,0.2l1.1,0.7
		l0.1-1.9c0.5,0.1,1.8,0.3,2.6-0.2c0.4-0.3,0.6-0.7,0.7-1.2c0.4-4.2,2.6-6.9,2.7-6.9l0.6-0.7L68.7,72C67.8,71.3,66.7,70.8,65.7,70.4
		z M61.9,69.5c-0.2,0-0.5-0.1-0.7-0.1c0-0.3,0-0.4,0-0.4v-2.8c0,0,0.5-0.1,0.7-0.2v2.7L61.9,69.5z M60.6,59.4
		c0.2-0.1,0.3-0.1,0.5-0.2v0.4L60.6,59.4z M61.9,62.2c-0.3,0-0.5,0.1-0.7,0.2v-3.2c0.2-0.1,0.5-0.1,0.7-0.2V62.2z M61.9,62.5v3.2
		c-0.3,0-0.5,0.1-0.7,0.2v-3.2C61.4,62.6,61.7,62.6,61.9,62.5z M63.1,62.4v3.2c-0.2,0-0.5,0-0.7,0.1v-3.2
		C62.6,62.4,62.8,62.4,63.1,62.4z M62.4,62.1v-3.2c0.2,0,0.5,0,0.7-0.1v3.2C62.8,62.1,62.6,62.1,62.4,62.1z M62.4,68.6V66
		c0,0,0.5,0,0.7-0.1l0,2.7l0,1.1c-0.2,0-0.5-0.1-0.7-0.1C62.3,69.3,62.4,68.6,62.4,68.6z M63.5,68.6V66c0,0,0.5,0,0.7,0.1v2.6l0,1.3
		c-0.2-0.1-0.5-0.1-0.7-0.2C63.5,69.6,63.5,68.6,63.5,68.6z M64.2,62.5v3.2c-0.2,0-0.5,0-0.7-0.1v-3.2C63.7,62.4,64,62.4,64.2,62.5z
		 M63.5,62.1v-3.2c0.1,0,0.2,0,0.4,0c0.1,0,0.2,0,0.4,0v3.2C64,62.1,63.7,62.1,63.5,62.1z M64.6,68.5v-2.4c0,0,0.5,0.1,0.7,0.2v2.2
		v1.8c-0.2-0.1-0.5-0.2-0.7-0.2C64.6,69.9,64.6,68.5,64.6,68.5z M65.4,62.4c-0.2-0.1-0.5-0.1-0.7-0.2v-3.2c0.3,0,0.5,0.1,0.7,0.2
		V62.4z M65.4,62.7v3.2c-0.2-0.1-0.5-0.1-0.7-0.2v-3.2C64.9,62.6,65.1,62.6,65.4,62.7z M65.5,59.6v-0.4c0.2,0.1,0.3,0.1,0.5,0.2
		L65.5,59.6z M65.5,56.5v-0.4c0.2,0.1,0.3,0.1,0.5,0.2L65.5,56.5z M62.7,52.2c0-0.1,0.3-0.1,0.4-0.1c0.1,0,0.1,0,0.2,0s0.1,0,0.2,0
		c0.1,0,0.4,0,0.4,0.1v0.3c-0.2,0-0.4,0-0.6,0c-0.2,0-0.4,0-0.6,0V52.2z M62.7,52.8c0.2,0,0.4,0,0.6,0c0.2,0,0.4,0,0.6,0l2.2,2.1
		c-0.8-0.3-1.7-0.6-2.7-0.6c-1,0-2,0.2-2.7,0.6L62.7,52.8z M60.6,55.2c0.8-0.3,1.7-0.6,2.7-0.6c1,0,2,0.2,2.7,0.6v0.7
		c-0.8-0.3-1.7-0.6-2.7-0.6c-1,0-2,0.2-2.7,0.6V55.2z M65.4,56v1.7c-0.2-0.1-0.5-0.1-0.7-0.2v-1.7C64.9,55.9,65.1,56,65.4,56z
		 M64.2,55.8v1.7c-0.2,0-0.5,0-0.7-0.1v-1.7C63.7,55.8,64,55.8,64.2,55.8z M63.1,55.7v1.7c-0.2,0-0.5,0-0.7,0.1v-1.7
		C62.6,55.8,62.8,55.8,63.1,55.7z M61.2,57.7V56c0.2-0.1,0.5-0.1,0.7-0.2l0,1.7C61.7,57.6,61.4,57.7,61.2,57.7z M60.6,56.3
		c0.2-0.1,0.3-0.1,0.5-0.2v0.4L60.6,56.3z M60.6,58.3c0.8-0.3,1.7-0.6,2.7-0.6c1,0,2,0.2,2.7,0.6V59c-0.8-0.3-1.7-0.6-2.7-0.6
		c-1,0-2,0.2-2.7,0.6V58.3z M58.6,62.7v-1.3l1.7-1.7V61v0.6c-0.2,0.4-0.7,1.1-1.7,2V62.7z M57.7,62.2V63v1.4c-1.2,1.1-3,2.3-5.5,3.6
		c0,0,1.8-0.3,5.5-2.7v1.1h0.9V66v-0.7v-0.6c0.5-0.4,1.1-0.8,1.7-1.2v0.5v5.2l0,0.3c-1.7-0.1-3.3,0.1-4.9,0.3h-1.1h-6.7
		c0-0.3,0-0.6,0-0.8v-0.1C49.1,68.1,53.2,66.1,57.7,62.2z M53.3,70.1c-1.2,0.3-2.3,0.7-3.2,1.1v-1.1H53.3z M47.2,72.9
		c-0.3,0.2-0.6,0.4-1,0.6v-0.8v-0.8h1v0.8L47.2,72.9z M27.6,74.9l0-1.2v-5l1.3,0c0.7,2.6,3.1,4.4,5.8,4.4c2.8,0,5.1-1.9,5.8-4.4
		l1.4,0l0,6.8c-2.1,0.8-4.3,1.3-6.6,1.3h-0.1C32.6,76.8,30.1,76,27.6,74.9z M16.8,70.1h2.9v1.1C18.7,70.8,17.5,70.3,16.8,70.1z
		 M20.1,71.4l0-0.2v-1h0.7v1l0,0.6C20.7,71.7,20.5,71.6,20.1,71.4z M23.5,71.4h-1.1v-2.7h1.1V71.4z M24.6,71.8V73v0.6
		c-0.2-0.1-0.4-0.2-0.6-0.3l-0.1-0.1V73v-1.1H24.6z M23.9,71.4v-2.7h0.7v2.7H23.9z M25,73.7l0-0.2v-1.7h0.7v1.7v0.5
		C25.5,74,25.2,73.8,25,73.7z M25,71.4v-2.7h0.7v2.7H25z M27.2,71.8v0.8l0,2.1c-0.3-0.1-0.6-0.3-1-0.4v-1.6v-0.8H27.2z M26.2,71.4
		v-2.7h1v2.7H26.2z M29.4,66c0,0,0-0.1,0-0.1c0.2-0.7,0.5-1.4,0.9-2c0-0.1,0.1-0.1,0.2-0.1c0.1,0,0.1,0,0.2,0.1
		c0.2,0.5,0.6,1,1.2,1.6c0.7,0.7,1.8,1.4,3,2c0,0,0.1,0.1,0.1,0.1c0.1,0.3,0.3,1.3,0.3,2.3c0,0.1,0,0.1-0.1,0.1c0,0-0.1,0-0.1,0
		c0,0,0,0,0,0c-0.6-0.1-1.5-0.4-2.5-0.9C31.1,68.4,30.1,67.4,29.4,66z M39.9,69.1c-0.3,0.8-0.8,1.4-1.4,2c0,0-0.1,0-0.1,0
		c0,0-0.1,0-0.1,0c-0.1-0.1-0.1-0.2-0.1-0.2c0.2-0.3,0.3-0.7,0.4-1.1c0.1-0.6,0.2-1.2,0.2-1.9c0-1-0.3-1.9-0.4-2.4c0,0,0-0.1,0-0.1
		c0,0,0.1-0.1,0.1-0.1c0.4-0.1,0.8-0.2,1.2-0.3c0.1,0,0.2,0,0.2,0.1C40.4,66.4,40.4,67.8,39.9,69.1z M34.9,72.2
		c0.2-0.4,0.4-0.8,0.5-1.2c0.1-0.5,0.2-1,0.2-1.5c0-0.9-0.2-1.6-0.3-2c0-0.1,0-0.1,0-0.2c0.3-0.3,1.1-1.2,2.4-1.8c0,0,0.1,0,0.2,0
		c0,0,0.1,0.1,0.1,0.1c0.2,0.5,0.4,1.5,0.4,2.6c0,0.7-0.1,1.4-0.3,2c-0.3,0.7-0.7,1.4-1.3,1.9c0,0,0,0-0.1,0
		c-0.5,0.2-1.1,0.3-1.6,0.4h0c-0.1,0-0.1,0-0.2-0.1C34.9,72.4,34.9,72.3,34.9,72.2z M34.3,72.4c0,0-0.1,0.1-0.1,0.1c0,0,0,0,0,0
		c-0.9-0.1-1.8-0.5-2.6-1c-0.8-0.6-1.4-1.4-1.8-2.3c-0.3-0.6-0.4-1.2-0.4-1.9c0-0.1,0-0.2,0.1-0.2c0.1,0,0.2,0,0.2,0.1
		c0.7,1,1.6,1.8,2.8,2.4c1,0.5,1.9,0.7,2.5,0.8c0.1,0,0.1,0,0.1,0.1c0,0,0,0.1,0,0.1C35,71.4,34.7,72,34.3,72.4z M39.4,64.6
		C37,65,35.6,66.4,35.1,67c0,0-0.1,0.1-0.1,0.1c0,0-0.1,0-0.1,0c-0.8-0.4-1.6-0.9-2.2-1.3c-0.1-0.1-0.1-0.2,0-0.3
		c0.9-1.2,1.9-2,3-2.5c1-0.5,1.9-0.5,2.1-0.5c0,0,0.1,0,0.1,0c0.7,0.5,1.3,1.1,1.7,1.9c0,0.1,0,0.1,0,0.2
		C39.5,64.6,39.5,64.6,39.4,64.6z M36.5,62.2c-1.1,0.3-2.7,1-4.1,3c0,0-0.1,0.1-0.1,0.1h0c0,0-0.1,0-0.1-0.1
		c-0.9-0.8-1.1-1.5-1.2-1.8c0-0.1,0-0.1,0.1-0.2c0.5-0.5,1.1-0.9,1.7-1.2c0.7-0.3,1.4-0.4,2.1-0.4c0.6,0,1.2,0.1,1.7,0.3
		c0.1,0,0.1,0.1,0.1,0.2C36.6,62.1,36.5,62.2,36.5,62.2z M42.4,74.2v-2.4h1.1v2.4v0.7c-0.3,0.1-0.8,0.4-1.1,0.5L42.4,74.2z
		 M43.9,73.6v-1.8h0.7v1.8v0.7c-0.2,0.1-0.5,0.2-0.7,0.4L43.9,73.6z M43.9,71.4v-2.7h0.7v2.7H43.9z M45.1,73.4v-1.6h0.7v1.6v0.3
		c-0.2,0.1-0.5,0.3-0.7,0.4V73.4z M45.1,71.4v-2.7h0.7v2.7H45.1z M46.3,71.4v-2.7h1v2.7H46.3z M47.6,71.8v-1.7h0.8v1.7l0,0.3
		c-0.3,0.2-0.5,0.3-0.8,0.5V71.8z M48.9,71.2v-1.1h0.7v1.1v0.2c-0.3,0.1-0.5,0.3-0.7,0.4L48.9,71.2z M42.4,66.5h4.8v1.8h-4.8V66.5z
		 M42.4,68.7h1.1v2.7h-1.1V68.7z M36.2,25.6C37.7,28.2,39,29,39,29c-1.4-2.2-2.2-3.9-2.7-5.2c0-0.5,0.1-1.1,0.2-1.9
		c0-1.2,0.2-4.3,1.9-8.3c0,0.6-0.1,1.5-0.1,2.5c0,0.7,0,1.5,0.1,2.2c0,0.2,0.1,0.4,0.1,0.6c0,0.1,0,0.3,0.1,0.4
		c0,0.2,0.1,0.5,0.1,0.7c0.1,0.4,0.2,0.8,0.3,1.3c0.3,0.9,1.1,2.9,1.5,3.8c0,0-0.7-2.2-0.9-3.8c-0.2-1.3-0.2-2.3-0.2-2.3
		c0,0,0-0.1,0-0.1c0.4-1.7,1.7-4.2,2.3-5.3c1.7-2.8,4.1-5.3,6.9-7.3c3.8-2.9,3.6-2.1,3.6-2.1c-0.9,1.1-1.7,2.3-2.5,3.5
		C43.1,14.7,43.6,20,43.6,20s1-3.6,4.1-7.6c0.7-0.9,1.5-1.8,2.4-2.5c1.6-1.3,3.5-2.2,5.5-2.6h0c0,0,0,0,0,0C56,7.2,56.5,7.1,57,7
		c3.6-0.5,3.3,0,3.3,0c-3,1.2-6.4,3.2-7.9,6.2c1.9-1.2,4.1-1.8,6.4-2l-0.1,0c0,0,5.5-0.2,4.5,0.4c0,0-11.4,4.3-12.4,14.3
		c0,0-4.6,4.6-6.1,11.6c0.1,0.3,0.3,0.8,0.5,1.2c-0.5-0.3-1.1-0.8-1.7-1.3c-0.1-4.9,2.9-15.4,6.2-20.6c0,0-3.6,2.8-6.7,11.8
		c-0.5,1.5-0.8,2.8-1.1,4c-0.3-0.3-0.7-0.8-1.2-1.3v3.5c-1.6-1.7-3.3-4-5-6.9C36,26.8,36.1,26.2,36.2,25.6z M43.5,38
		C43.5,38.1,43.5,38.1,43.5,38C43.5,38.1,43.5,38.1,43.5,38C43.5,38,43.5,38,43.5,38z M29.3,59.7c0.8-0.7,1.1-0.6,1.7-1.5
		c0.5-0.8-0.4-2.2-0.6-3c-0.3-1.2-1.5-0.8-2-2.7c0.3,0.2,0.9,0.7,1.4,0.9l-0.2-0.7c-0.6-0.4-1-1-1-1L28,50.5l0.9,0.4L28,49.2
		c0.8-0.5,1.4-0.9,1.4-0.9c-2.9,0.9-4.1,0.5-6.3,0.4c0.8-0.7,1.5-1.3,2.2-1.8c0.2-0.2,0.4-0.3,0.6-0.5c0.3-0.3,0.6-0.6,1-0.9
		c-0.6,0.3-1,0.6-1.5,0.8c-0.3,0.2-0.7,0.3-1,0.5c-0.7,0.3-1.4,0.7-2.2,1c-0.6,0.3-0.8,0.3-1.5,0.2c-1.9-0.2-3.8-0.7-5.6-1.3
		c1.6,0.2,3.4-0.2,5-0.9c0.4-0.2,0.7-0.3,1.1-0.5c0.6-0.3,1.1-0.6,1.6-1c0.1-0.1-1.3,0.3-2.5,0.6c-0.3,0.1-0.7,0.1-0.9,0.2
		c-0.2,0-0.4,0-0.6,0.1c-1.1,0.1-2.8,0.1-3.2-0.1c-0.6-0.4-1.8-1.3-2.6-2.2c-0.8-0.9-1.7-2-2.8-3.7c2.8,1.3,5.3,2,8.3,2.2
		c-0.9-1-2.1-2-2.6-3.3c1.3,1,2.8,1.8,4.3,2.4c2.9,1,5.2,0.4,7.5-1l-2.7-0.1l-3.1-2.5l-0.3-0.2c0.5-0.1,1-0.3,1.6-0.3
		c1-0.1,2.6,0,3.5,0.3c0,0-0.9-0.6-2.6-1c-1.6-0.4-3.3-0.3-3.3-0.3l-0.9,0L15,31.6l3.4,0.3l0,0c-1.2-1.1-2.5-2.3-3.9-3.6
		c-0.3-0.3-0.6-0.5-0.8-0.8c4.7,0.3,8.6,2.2,8.6,2.2C17.8,26.5,12.1,26,12.1,26c-1.9-1.8-3.6-3.3-4.5-3.9c1.5,0.2,5.7,1.1,5.8,1.1
		c-0.7-1-1.2-1.2-1.8-2.3c-0.4-0.7-0.8-1.3-1.1-2c-0.1-0.1-0.1-0.2-0.2-0.3C7.8,13.6,8,8.8,8.2,7.1c0-0.2,0-0.5,0-0.8
		c0-0.3,0.1-0.5,0.1-0.5c0,0,0,0,0-0.1h0c0,0,0,0,0,0h0c0,0,0,0,0,0c0.9,3.5,1.6,7.9,4.4,10.3c-0.7-3.9-0.5-7.5,1.1-11.6
		c1.5-4.1,2-3.7,2-3.7c-0.3,2.5,0,5.2,0.6,7.7c0.5,1.9,1.2,3.8,2,5.5c0-1.2,0.1-2.4,0.3-3.6c0.4-2.3,1.3-4.6,2.6-6.7l0,0
		c2.5-4,2.1-2.7,2.1-2.7c-1,4-1.2,8.5-0.2,12.5c0.4,1.9,1.8,4.8,3.1,6.2c3.7,4.2,5.3,3.9,7,5.8l0.5,0.7c1.3,3.1,3.4,5.6,5.2,7.9
		c2.4,3,8,6.2,8,6.2l-0.1-0.7c0,0,0,0,0,0l0-0.5c0,0,1.7,1.6,2.9,3.6c0.1,0.2,0.3,0.4,0.4,0.7c0,0.1,0.1,0.2,0.1,0.3
		c0,0,0-0.1,0-0.1s0,0,0,0.1c0.3,0.7,0.6,1.5,0.6,2.2l0,0.1l0,0l-0.1,0.3l-0.3,1.1v0c0,0,0.2,1.5,0.3,2c0.3,1.5-1.5,2.1-2.9,1.6
		c0.4-0.2,0.7-0.4,0.7-0.6c-1-0.6-1.4-0.9-1.8-1.2c-0.4-0.3-0.6-1.1-0.6-1.1l-0.2-0.1l-0.9-0.4L44,47.5c-0.5,0.1-1.1,0.4-1.4,1.1
		c0,0-0.2-0.4-0.1-0.8c-1.1,0.5-2.4,1.8-2.5,3.3c0,0-0.9-0.9-0.6-1.6c-0.1,0.1-0.1,0.3-0.2,0.4c0,0,0,0.1,0,0.1
		c0,0.1-0.1,0.2-0.1,0.3c0,0,0,0,0,0.1c0,0.1-0.1,0.2-0.1,0.4c0,0,0,0,0,0c0,0.1,0,0.3-0.1,0.4v0l0.7,1.8c0,0-0.3-0.1-0.7-0.4
		c0,0.1,0,0.2,0,0.3c0,0,0,0.1,0,0.1c0,0.1,0,0.2,0,0.3c0,0,0,0.1,0,0.1c0,0,0,0,0,0l0.2-0.1c0,0,0,0,0,0l-0.2,0c0,0.1,0,0.1,0,0.2
		c0.1,0.7,0.3,1.3,0.4,1.8c-0.2,0-0.5-0.1-0.7-0.1c0.3,0.8,0.5,1.6,1.1,2.3c0.2,0.3,1.5,1.2,1.7,1.4c0.8,1.3,0,2.8-0.8,3.2
		c0.3-0.6,0.5-2.2-0.5-3.3c0.1,0.4,0.3,1.8-0.4,2.4c0.1-1.4,0-1.7-1.2-2.4c-0.3-0.2-0.5-0.6-0.9-1c-0.3-0.3-1.6-0.6-2.7-0.7
		c1.6-1.3,2.4-0.2,2.5-0.5c0.1-0.3-0.2-0.9-0.3-1.2C37,55.2,36.5,55,36,54.8c-0.9-0.6-1.4-1.7-1.4-1.7l1.4,0.4
		c0-0.1-0.9-0.8-0.9-0.9c-0.2-0.5-0.4-1.3-0.4-1.3c-0.2-0.2-0.4-0.4-0.9-0.7c-0.8,1.4-0.6,2-0.4,2.9l0.3,1.1c-0.4,0-0.6-0.1-0.8-0.2
		c0.1,0.5,0.3,1.2,0.4,1.9c-0.5,0-1-0.3-1.2-0.3c0.1,0.5,0.4,1.3,1,1.4c1.9,0.2,3.8,0.4,4,0.6c0.6,0.5,1.2,1.5,1.1,2.3
		c-1.2-1.4-1.3-1.9-3.8-2.1c1.4,0.4,1.7,0.4,2.4,1.5c-1.5-0.9-3.6-0.7-4.6,0.3c-0.3,0.3-1,0.1-1.7,0.3c-0.4,0.1-1.1,0.7-1.3,1.7
		C29.1,61.5,28.4,60.5,29.3,59.7z M34.8,59.8c4,0,7.2,3.2,7.2,7.2v1.3l-1.3,0c0.1-0.4,0.1-0.8,0.1-1.2c0-3.4-2.7-6.1-6.1-6.1
		c-3.4,0-6.1,2.7-6.1,6.1c0,0.4,0,0.8,0.1,1.2l-1.2,0V67C27.6,63,30.8,59.8,34.8,59.8z M22.4,66.5h4.8v1.8h-4.8V66.5z M22.4,71.8
		h1.1v0.4V73c-0.3-0.2-0.7-0.3-1-0.5l0-0.2V71.8z M22,71.5v0.7c-0.2-0.1-0.5-0.2-0.7-0.3l0-0.4v-1.4H22V71.5z M12.1,66.3v-1.1
		c3.7,2.4,5.5,2.7,5.5,2.7c-2.5-1.3-4.3-2.5-5.5-3.6v-1.5v-0.6c4.3,3.7,8.3,5.7,9.9,6.5v1c0,0-6.6,0-6.8,0c-1.9-0.4-3.9-0.4-5.7-0.3
		v-2.3v-3.7c0.6,0.5,1.2,0.9,1.7,1.2v1.7H12.1z M7.5,62.5v3.2c-0.2,0-0.5,0-0.7-0.1v-3.2C7,62.4,7.2,62.4,7.5,62.5z M6.7,62.1l0-3.2
		c0.1,0,0.2,0,0.4,0c0.1,0,0.2,0,0.4,0v3.2C7.2,62.1,7,62.1,6.7,62.1z M6.7,68.4V66c0,0,0.5,0,0.7,0.1l0,3.7c-0.2,0-0.5,0.1-0.7,0.1
		C6.7,69.6,6.7,68.4,6.7,68.4z M8.6,62.7v3.2c-0.2-0.1-0.5-0.1-0.7-0.2v-3.2C8.1,62.6,8.4,62.6,8.6,62.7z M7.9,62.2v-3.2
		c0.3,0,0.5,0.1,0.7,0.2v3.2C8.4,62.3,8.1,62.2,7.9,62.2z M7.9,68.3v-2.3c0,0,0.5,0.1,0.7,0.2v2.1l0,1.1c-0.2,0-0.7,0.1-0.7,0.1
		L7.9,68.3z M8.8,59.6v-0.4c0.2,0.1,0.3,0.1,0.5,0.2L8.8,59.6z M11.2,63v0.5c-0.9-0.9-1.5-1.6-1.7-2v-0.4v-1.5l1.7,1.7V63z
		 M7.9,55.9c0.3,0,0.5,0.1,0.7,0.2v1.7c-0.2-0.1-0.5-0.1-0.7-0.2V55.9z M8.8,56.5v-0.4c0.2,0.1,0.3,0.1,0.5,0.2L8.8,56.5z M6,52.2
		c0-0.1,0.3-0.1,0.4-0.1c0.1,0,0.1,0,0.2,0c0.1,0,0.1,0,0.2,0c0.1,0,0.4,0,0.4,0.1v0.3c-0.2,0-0.4,0-0.6,0c-0.2,0-0.4,0-0.6,0V52.2z
		 M6,52.8c0.2,0,0.4,0,0.6,0c0.2,0,0.4,0,0.6,0l2.2,2.1c-0.8-0.3-1.7-0.6-2.7-0.6c-1,0-2,0.2-2.7,0.6L6,52.8z M3.8,55.2
		c0.8-0.3,1.7-0.6,2.7-0.6c1,0,2,0.2,2.7,0.6v0.7c-0.8-0.3-1.7-0.6-2.7-0.6c-1,0-2,0.2-2.7,0.6V55.2z M7.5,55.8v1.7
		c-0.2,0-0.5,0-0.7-0.1v-1.7C7,55.8,7.2,55.8,7.5,55.8z M6.3,55.7v1.7c-0.2,0-0.5,0-0.7,0.1v-1.7C5.8,55.8,6.1,55.8,6.3,55.7z
		 M5.2,55.9v1.7c-0.3,0-0.5,0.1-0.7,0.2V56C4.7,56,4.9,55.9,5.2,55.9z M3.8,56.3c0.2-0.1,0.3-0.1,0.5-0.2v0.4L3.8,56.3z M3.8,58.3
		c0.8-0.3,1.7-0.6,2.7-0.6c1,0,2,0.2,2.7,0.6V59c-0.8-0.3-1.7-0.6-2.7-0.6c-1,0-2,0.2-2.7,0.6V58.3z M6.3,62.4v3.2
		c-0.2,0-0.5,0-0.7,0.1v-3.2C5.8,62.4,6.1,62.4,6.3,62.4z M5.6,62.1v-3.2c0.2,0,0.5,0,0.7-0.1v3.2C6.1,62.1,5.8,62.1,5.6,62.1z
		 M5.6,68.4V66c0,0,0.5,0,0.7-0.1l0,2.5l0,1.5C6.1,70,5.8,70,5.6,70.1C5.6,69.9,5.6,68.4,5.6,68.4z M4.4,65.9v-3.2
		c0.2-0.1,0.5-0.1,0.7-0.2v3.2C4.9,65.7,4.7,65.8,4.4,65.9z M5.2,66.1v2.5l0,1.7c-0.2,0.1-0.5,0.1-0.7,0.2c0-0.4,0-1.6,0-1.6v-2.6
		C4.4,66.3,4.9,66.1,5.2,66.1z M4.4,62.4v-3.2C4.7,59,4.9,59,5.2,58.9v3.2C4.9,62.2,4.7,62.3,4.4,62.4z M3.8,59.4
		c0.2-0.1,0.3-0.1,0.5-0.2v0.4L3.8,59.4z M68.5,72.9c0,0-2.4,2.8-2.8,7.2c0,0.4-0.2,0.7-0.5,0.9c-0.8,0.5-2.2,0.2-2.3,0.1
		c-0.1,0-0.3-0.1-0.4-0.1l-0.1,1.6l-0.5-0.3c-0.4-0.2-1.2-0.3-1.9-0.2c-0.1,0-0.3,0.1-0.4,0.1c-0.5,0.1-1.1,0.2-1.4-0.1
		c-0.2-0.2-0.3-0.4-0.3-0.8c0-0.3,0.1-0.6,0.4-0.8l0,0c0,0,0,0,0,0c0,0,0,0,0,0c0,0,0,0,0,0c1-0.8,1.5-1.6,1.7-2.1
		c-2.8-0.1-5.2,0.8-6.4,1.3c-0.1,0.1-0.3,0.1-0.4,0.1c-1.5,0.6-2.9,1.3-4.4,2c-3.5,1.7-7.5,3.7-13.1,4c-0.5,0-1,0-1.4,0
		c-5.2,0-8.6-1.8-12.1-3.7c-1.9-1-3.9-2.1-6.3-2.9c-2.4-0.8-4.4-0.9-6.2-0.8c0.3,0.5,0.9,1.2,1.8,1.9l0,0c0.2,0.2,0.3,0.5,0.3,0.8
		c0,0.4-0.1,0.6-0.4,0.8c-0.4,0.3-0.9,0.1-1.4,0c-0.1,0-0.3-0.1-0.4-0.1c-0.7-0.2-1.5-0.1-1.9,0.1L7,82.2l0-1.6
		c-0.2,0-0.3,0.1-0.4,0.1c-0.2,0-1.6,0.3-2.3-0.2c-0.3-0.2-0.4-0.5-0.4-0.9c-0.2-4.4-2.7-6.8-2.7-6.9l-0.3-0.3l0.4-0.2
		c0.3-0.2,8.3-4,15.4-1.6c2.6,0.9,4.9,2,7.1,3.1c3.8,1.9,7.4,3.6,11.5,3.6h0.1c4.6,0,8.6-1.9,13.5-4.9c3.8-2.3,13.6-4.3,19.6,0
		l0.3,0.2L68.5,72.9z"/>
	<path class="st1" d="M64.8,80.4c0.1-0.1,0.2-0.2,0.2-0.3c-1.4-1-3-1.6-4.4-1.7c-0.1,0.4-0.4,1-1,1.6c1.4-0.1,3.1,0.4,3.4,0.4
		C63.4,80.5,64.4,80.7,64.8,80.4z"/>
	<path class="st1" d="M63.7,76.1c0-0.3-0.3-0.6-0.6-0.5c-0.3,0-0.6,0.3-0.5,0.6c0,0.3,0.3,0.6,0.6,0.5
		C63.5,76.7,63.8,76.5,63.7,76.1z"/>
	<path class="st1" d="M49.6,79.2c0.5-0.2,0.7-0.5,1-0.8l-0.6-0.8c-0.2,0.3-0.4,0.5-0.7,0.6c-0.5,0.3-1.1,0.1-1.4-0.6
		c-0.3-0.7-0.2-1.2,0.4-1.5c0.3-0.1,0.6-0.1,0.9-0.1l-0.3-1.1c-0.3,0-0.7,0.1-1.1,0.3c-1.2,0.6-1.5,1.7-1,2.9
		C47.3,79.3,48.4,79.7,49.6,79.2z"/>
	<path class="st1" d="M7.7,73.1c0.3-0.1,0.6,0,0.9,0.2l0-1.1c-0.3-0.1-0.7-0.1-1.1,0c-1.3,0.2-1.9,1.3-1.7,2.6
		c0.3,1.3,1.2,2,2.4,1.8c0.5-0.1,0.8-0.3,1.1-0.5l-0.3-1c-0.3,0.2-0.5,0.4-0.8,0.4c-0.6,0.1-1.1-0.2-1.2-1
		C6.8,73.7,7.1,73.2,7.7,73.1z"/>
	<polygon class="st1" points="51.1,78.4 53.7,77.3 53.3,76.4 51.8,77 51.6,76.3 52.8,75.8 52.3,75 51.2,75.4 51,74.9 52.4,74.3 
		52.1,73.4 49.5,74.4 	"/>
	<path class="st1" d="M33.2,82.4l0.2,0c1.1,0,1.8-0.5,1.8-1.5c0-1-0.6-1.5-1.7-1.5l-1.5,0l-0.1,4.2l1.3,0L33.2,82.4z M33.3,80.3
		l0.2,0c0.4,0,0.6,0.2,0.6,0.6c0,0.4-0.2,0.6-0.7,0.6l-0.1,0L33.3,80.3z"/>
	<path class="st1" d="M13.4,73.5c0.1-0.9-0.5-1.4-1.6-1.5l-1.6-0.1l-0.3,4.2l1.2,0.1l0.1-1.3l0.2,0l0.7,1.4l1.3-0.1l-0.9-1.5
		C13,74.5,13.3,74.1,13.4,73.5z M11.5,74l-0.3,0l0.1-1.1l0.3,0c0.4,0,0.6,0.2,0.6,0.6C12.1,73.9,11.9,74.1,11.5,74z"/>
	<polygon class="st1" points="15.5,77 15.9,75.5 18.1,73.3 16.8,72.9 15.6,74.3 15.3,72.5 14,72.3 14.7,75.2 14.3,76.6 	"/>
	<path class="st1" d="M17.8,74.6c-0.3,0.7,0,1.1,0.6,1.7c0.5,0.4,0.5,0.5,0.4,0.7c-0.1,0.2-0.3,0.2-0.5,0.1
		c-0.4-0.2-0.8-0.5-1.2-0.9L16.7,77c0.4,0.4,0.8,0.7,1.3,0.9c0.8,0.3,1.6,0.3,2-0.6c0.3-0.6,0-1.1-0.7-1.8h0
		c-0.4-0.3-0.4-0.5-0.4-0.6c0.1-0.1,0.2-0.2,0.4-0.1c0.3,0.1,0.6,0.4,1,0.8l0.6-0.9c-0.3-0.3-0.6-0.6-1.2-0.8
		C19,73.7,18.2,73.8,17.8,74.6z"/>
	<polygon class="st1" points="21.6,74.9 21.1,75.8 22.1,76.3 20.6,79.2 21.8,79.8 23.2,76.9 24.3,77.5 24.6,76.5 	"/>
	<polygon class="st1" points="29.6,78.7 28.4,78.3 27.1,82.4 29.6,83.2 29.7,82.1 28.6,81.8 	"/>
	<polygon class="st1" points="40.5,82.9 43.1,82.1 42.6,81.1 41.4,81.5 40.5,78.4 39.3,78.8 	"/>
	<path class="st1" d="M44.7,81.4l-0.1-0.7l1.2-0.6l0.5,0.6l1.1-0.7l-3-3.2l-1.3,0.6l0.4,4.5L44.7,81.4z M44.4,79.7l-0.2-1.4l0.9,1.1
		L44.4,79.7z"/>
	<path class="st1" d="M59.1,73.9c-0.1,1.3,0.5,2.3,1.8,2.4c0.5,0.1,0.9,0,1.2-0.2l0-1c-0.3,0.1-0.6,0.2-0.9,0.2
		c-0.6-0.1-1-0.5-0.9-1.3c0.1-0.7,0.5-1.1,1.1-1.1c0.3,0,0.6,0.2,0.8,0.4l0.3-1.1c-0.3-0.2-0.6-0.3-1.1-0.4
		C60.2,71.8,59.3,72.6,59.1,73.9z"/>
	<path class="st1" d="M36.3,79.3l-0.9,4.4l1.2-0.2l0.1-0.7l1.3-0.2l0.3,0.7l1.2-0.4l-2-3.9L36.3,79.3z M36.9,81.8l0.2-1.4l0.6,1.3
		L36.9,81.8z"/>
	<polygon class="st1" points="57.1,72 54.4,72.5 55.3,76.7 56.5,76.4 56.2,75 57.4,74.7 57,73.8 56,74 55.9,73.3 57.3,73 	"/>
	<path class="st1" d="M58.8,75.5c0-0.3-0.3-0.6-0.6-0.5c-0.3,0-0.6,0.3-0.5,0.6c0,0.3,0.3,0.6,0.6,0.5
		C58.6,76.1,58.9,75.9,58.8,75.5z"/>
	<path class="st1" d="M22.5,80.2l1.1,0.5l0.5-0.5l1.2,0.6l-0.1,0.8l1.2,0.4l0.6-4.3L25.7,77L22.5,80.2z M25.5,79.8l-0.7-0.4l1-1
		L25.5,79.8z"/>
	<path class="st1" d="M4.5,79.7c0,0.1,0.1,0.1,0.1,0.1c0.4,0.3,1.4,0.2,1.8,0.1c0.3-0.1,2-0.4,3.4-0.3c-0.5-0.6-0.8-1-1-1.3
		C6.6,78.7,5.1,79.4,4.5,79.7z"/>
	<path class="st1" d="M42.4,45.9C42.3,45.9,42.3,45.9,42.4,45.9C42.3,45.9,42.3,45.9,42.4,45.9C42.3,45.9,42.3,45.9,42.4,45.9z"/>
	<path class="st1" d="M47,48.4L47,48.4l0.1,0.5l0,0.1l0.1,0.3l0.4,0.3l0.6,0.5l0.1,0.1c0,0-0.3-0.5-0.3-0.6
		C47.8,49.1,47.4,48.6,47,48.4z"/>
	<path class="st1" d="M31.6,52.5c0.1-1.3,0.7-2.9,1.2-3.5c1,0.2,2,0.4,3.5-0.4c-0.5,1.9,0.4,3.7,1.4,5c-0.3-1.2,0.1-3.2,0.5-4.4
		c0.3-0.7,0.7-1.3,1.4-1.8c0.4-0.3,0.8-0.5,1.3-0.7c-0.1,0-0.8-0.3-0.8-0.3c-0.7-0.2-1.2-0.6-1.6-0.9c0,0,0,0,0,0c0,0,0,0,0,0
		c-0.4-0.3-0.6-0.6-0.6-0.6c0.9,0.5,2,0.8,2.9,0.8c0.9,0.1,1.4,0.2,1.5,0.3c-0.6-0.6-1.9-1.8-1.9-1.8c1.5,0.3,2.9,1,3.7,1.5
		l-1.6-1.8l1.9,1l0.7,1.3c0.7,0.6,2.1,1.7,2.7,1.8c-0.2-0.2-0.6-0.7-0.7-0.9c0.3,0.2,0.7,0.2,0.9,0.2c-0.5-0.2-0.8-0.8-0.6-1.3
		c0,0-0.2-0.5-0.4-0.7c0,0-0.3-0.8-0.1-1.1c0.3,0.6,1.1,2.1,1.3,2.7c0.1,0.2,0.1,0.3,0.2,0.5c0,0.1,0,0.1,0,0.2c0,0,0,0,0,0
		c0.1,0,0.3-0.1,0.4-0.6c0,0,0,0,0,0c0.1-0.2,0.1-0.6,0-1c0,0,0.1,0.1,0.1,0.3c0.1,0.2,0.2,0.4,0.2,0.6c0.1,0.2,0.1,0.5,0.1,0.7
		c0,0.2,0,0.3-0.1,0.4c0,0,0,0,0.1,0c0.1,0,0.4-0.4,0.5-0.6c0.1-0.2,0.2-0.6,0.2-1.1c0-0.1-0.1-0.2-0.1-0.3
		c-0.7-1.9-2.7-4.4-2.7-4.4l0,0.5l0.1,1c-1.3-1.5-3-2.7-4.1-3.3c-0.1,0.7-0.1,1.7-0.2,2.3c-0.3-1.1-0.9-2.1-1.7-2.9
		c0.1,0.7,0.1,1.3,0.2,2c-1.3-3.3-8.1-10-9.8-14.3c-0.1-0.2-0.3-0.2-0.5-0.4C18,16.9,21.5,6.5,21.7,5.9c-5.1,13,3.9,19.2,3.9,19.2
		c-2-1.1-3.8-2.7-5.3-4.5c-0.6-0.9-1.5-2.1-2.3-3.7c-0.7-1.3-1.4-2.9-2-4.5c-0.9-2.6-1.4-5.6-1-8.6c0,0-4.4,13,7.5,22.5l0,0
		c1.2,1,2.5,1.9,4,2.8c0.9,0.5,1.9,0.9,2.8,1.5c6.4,4,8.7,9.4,9.1,10.3c0,0-0.1-0.1-0.1-0.1c-0.7-0.8-5.1-5.7-15.7-8.2
		c0,0,7.4,3.5,9.9,5.8c-1.8,0.3-2.8,1.3-2.8,1.3c1.4-0.3,2.8-0.1,3.6,0.1c0.8,0.2,1.4,0.5,2.1,0.8c-2.9-0.5-5.1,0.7-6.3,1.4
		c-1.4,0.7-1.4,0.8-3.8,1.2c2.3,0.4,3.2,0.4,5.4-0.3c1.6-0.5,4.3-0.5,5.8,0.3c-0.2,0-0.4,0-0.6,0c-2.4-0.1-4.8,0.8-6.7,2.2
		c-0.1,0.1-0.2,0.1-0.3,0.2c0,0,0,0,0,0l5,0.4l-3.4,2.4v0c0,0.3,0,0.7,0,1c0,0.9,0.2,1.9,0.6,2.7C31.4,52.2,31.5,52.3,31.6,52.5z"/>
	<path class="st1" d="M49.3,48.3c-0.1,0-0.5,0.1-0.9,0.2c0,0,0,0,0,0c0,0,0,0,0,0L48,48.3l-0.4-0.2l-0.1,0l-0.8-0.5l-0.2-0.1l-0.1,0
		l0,0l0,0l0,0l0,0l0.1,0.1l1.6,1.4l0,0c0.7,0.8,1.1,1.6,0.4,2c0,0,0,0-0.1,0c0,0-0.1,0-0.1,0c0,0,0,0,0,0c0.3,0.1,0.6,0,1-0.1
		c0.3-0.1,0.6-0.3,0.8-0.6c0.4-0.5-0.3-2.3-0.3-2.3C49.7,48.1,49.5,48.2,49.3,48.3z"/>
	<path class="st1" d="M42.3,45.9C42.4,45.9,42.4,46,42.3,45.9C42.4,46,42.4,46,42.3,45.9C42.4,46,42.4,45.9,42.3,45.9z"/>
	<path class="st1" d="M47.2,42.4C47.2,42.4,47.2,42.4,47.2,42.4C47.2,42.4,47.2,42.4,47.2,42.4C47.3,42.4,47.3,42.4,47.2,42.4z"/>
</g>
</svg>
