<?xml version="1.0" encoding="utf-8"?>
<!-- Generator: Adobe Illustrator 24.0.1, SVG Export Plug-In . SVG Version: 6.00 Build 0)  -->
<svg version="1.1" id="Layer_1" xmlns="http://www.w3.org/2000/svg" xmlns:xlink="http://www.w3.org/1999/xlink" x="0px" y="0px"
	 viewBox="0 0 292 343" style="enable-background:new 0 0 292 343;" xml:space="preserve">
<style type="text/css">
	.st0{fill:none;}
	.st1{fill:#FFFFFF;}
</style>
<g>
	<path class="st0" d="M162.7,193.6c0-0.2,0-0.3,0.1-0.6C162.7,193.2,162.7,193.4,162.7,193.6L162.7,193.6z"/>
	<path class="st0" d="M162.9,191.2c0,0.5,0,1.1-0.1,1.6c0-0.2,0.1-0.5,0.1-0.9l24.2-3.1c0.1,1.1,0,1.5,0,2.1l-24.2,2.9l21,13.8
		c1.2-2.9,2.1-6,2.7-9.2c0.3-1.8,0.6-3.7,0.6-5.7c0-0.5,0-1,0-1.4c0-5.8-1.2-11.3-3.3-16.3l-21.2,13.8
		C162.8,189.4,162.9,190.3,162.9,191.2C162.9,191.2,162.9,191.2,162.9,191.2z"/>
	<path class="st0" d="M139.5,149.9c-9.7,1.4-18.4,6.2-24.7,13.1l21,13.7c1.2-0.8,2.4-1.4,3.8-1.9V149.9z"/>
	<path class="st0" d="M151.4,207.5v24.9c1.2-0.2,2.3-0.4,3.4-0.6c5.8-1.2,10.9-3.6,15.2-6.9c2.9-2.1,5.4-4.5,7.7-7.2L157,204.1
		c-0.1,0.1-0.2,0.1-0.2,0.2c-0.7,0.5-1.4,1.1-2.1,1.6C153.6,206.6,152.5,207.1,151.4,207.5z"/>
	<path class="st0" d="M177.7,164.7c-6.5-7.9-15.8-13.3-26.3-14.8v24.9c2.1,0.8,4,1.9,5.7,3.4L177.7,164.7z"/>
	<path class="st0" d="M128.8,186.4l-20.7-13.6c-2.7,5.5-4.2,11.7-4.2,18.3c0,5.7,1.1,11.1,3.2,16l21.3-13.5
		c-0.1-0.8-0.2-1.7-0.2-2.5v0C128.1,189.5,128.4,187.9,128.8,186.4z"/>
	<path class="st0" d="M145.5,196.9c3.2,0,5.7-2.6,5.7-5.7c0-3.2-2.6-5.7-5.7-5.7c-3.1,0-5.7,2.6-5.7,5.7
		C139.8,194.3,142.3,196.9,145.5,196.9z"/>
	<path class="st0" d="M152.1,84.4c3.3-1,3.6-3.7,2.7-6.7c-0.7-2.7-2.7-4-5-3.7c-1.4,0-5.7,1.3-5.7,9.1c0,1.7,0.1,3,0.3,4.4
		L152.1,84.4z"/>
	<path class="st0" d="M216,99.9c1.9-0.4,3.6-1,4.6-2.4c-0.3-1.7-0.3-3-0.4-5l-0.4-5.7c-7.3,1-9.6,4-9.6,7.7
		C210.3,98.2,212.8,99.9,216,99.9z"/>
	<polygon class="st0" points="62.8,69.3 55.9,89.1 66.9,88.8 	"/>
	<path class="st0" d="M54.2,228.9c11.7-6.1,23.9-14.4,36.1-26.1c-0.8-3.8-1.2-7.6-1.2-11.6c0-3,0.2-5.9,0.7-8.8h-29v-0.1
		c-3.6-0.5-6.7-3.5-8.7-7.9c0,0-0.1,0-0.1,0c-5.5,0-9.9-4.4-9.9-9.9c0-5.3,4.2-9.6,9.4-9.9c1.9-5.3,5.3-9,9.4-9.6V145h0.9h0.2H113
		c9.2-6.5,20.4-10.3,32.5-10.3c11.8,0,22.7,3.6,31.8,9.8l79.8,0.1c1.6-35.8-3.2-75.5-14.1-119.6C214.8,15.1,180.2,10,146.1,10v0.2
		c0,0,0,0-0.1,0V10c-34.1,0-68.7,5.2-96.8,14.9C28.8,107.4,29.7,174.3,54.2,228.9z M241.6,60.6l3.8,31.2c0.4,4.4,0.8,8.4,1.9,12.4
		h-10.5c0.1-4-0.3-8.1-0.7-12.4l-2.3-21.1c-0.6-4.4-0.9-7.4-1.9-11.8L241.6,60.6z M212.6,76.4c-3.4,0-6.2,1.3-8.8,3l-0.4-6.1
		c2.7-0.6,6-1,8.2-1c13.1,0,16.5,5.4,17.1,13.4l0.6,6.7c0.3,4.4,1,8.4,2.3,11.8h-9c-0.4-1-0.9-2-1.2-3.4c-1.7,2-4.7,4-9.1,4
		c-5.7,0-10.3-2.7-10.7-8.8c-0.4-5.4,3.7-8.7,7.7-10.4c3.6-1.7,6.7-2.3,10.1-2.7C219.1,78,216.1,76.4,212.6,76.4z M176.2,71.3
		c0.6,1.3,1,4,1.2,5c3.1-4,6.9-5,10-5c5.7,0,9.1,3.3,9.4,9.4l0.4,11.1c0.2,4.4,0.4,8.4,1,12.4h-10.3c0.3-4,0.3-8.1,0.2-12.4
		l-0.4-10.1c-0.1-3-1.6-5-4.6-5c-2.6,0-5.1,2.3-5,5.7l0.3,9.4c0.2,4.4,0.4,8.4,1,12.4h-10.7c0.3-4,0.4-8.1,0.3-12.4l-0.2-8.4
		c-0.1-4.4-0.4-8.4-1.1-12.4L176.2,71.3z M150.6,69.6c3,0,5.8,0.7,8.3,2.4c3,2.3,5.3,6,5.8,12.4l-19.4,7.1c1.6,4.7,4.4,7.7,8.8,8
		c4.1,0,6.7-2,8.3-3.4l2.1,3c-3,3-6.7,5.4-12.8,5.4c-7,0-17-4-17.1-17.1C134.3,74.7,143.6,69.6,150.6,69.6z M108.1,79.7
		c0.1-3,2.4-5.7,5.5-7.7c2.7-1.3,6.3-2,9-2c3.4,0,5.6,0.7,7,1l-0.1,5.4c-1.9-1-4.3-1.7-6.7-1.7c-2.9,0-5.6,1-5.8,3.4
		c-0.2,2.7,2.1,3.4,3.3,4c1.1,0.3,3.6,1.7,6,2.7c2.4,1.3,6.4,3.3,6.2,9c-0.1,7.4-8.3,10.4-14.8,10.4c-3.8,0-8-0.7-10.5-2l0.1-7.1
		c3,2.7,7.3,4.7,10.3,4.7c3.6,0,5.7-1.7,5.9-4c0.1-2.3-1.6-3.4-3.4-4.4c-1.4-0.7-3.7-2-6.1-3.4C110.2,86.4,107.8,84.4,108.1,79.7z
		 M86.1,73l9.4-0.3c0.4,1.3,0.7,3.7,0.5,6c4.1-6.4,8.1-7.7,11.1-7.7l-0.3,6.7c-2.3-0.4-5.1,0.3-7.4,2.7c-2,2-3.3,5-3.6,10.4
		c-0.3,4.4-0.4,9.4-0.2,13.4H85.1c0.7-4,1-8.7,1.1-13.1l0.3-5.4C86.8,81.4,86.8,77,86.1,73z M54.1,71.3c1.6-4.7,2.1-8.7,1.9-10.7
		l15.1-2l6.4,28.9c1.3,5.4,3.3,13.1,4.8,16.8H69.6c-0.1-2.7-1.2-7.1-1.7-9.7l-14,0.4c-1.4,3.7-2.1,6.3-2.7,9.4h-9.4
		C45.8,95.5,50.9,80.4,54.1,71.3z"/>
	<path class="st0" d="M126.5,209l-13.3,8.4c2.3,2.8,4.9,5.3,7.8,7.4c3.6,2.7,7.6,4.8,12.1,6.1c0,0,0,0,0.1,0
		c0.2,0.1,0.4,0.1,0.6,0.2c1.9,0.5,3.8,1,5.8,1.3v-24.9c-0.6-0.2-1.2-0.5-1.8-0.8c-1.4-0.8-2.6-1.7-3.8-2.6L126.5,209z"/>
	<path class="st0" d="M90.1,180.6c2.6-13.5,10-25.4,20.3-33.6H62.6h-0.2h-0.8v0.1c-4.2,0.6-7.7,4.5-9.3,10c-0.5-0.1-1-0.2-1.5-0.2
		c-3.8,0-6.9,3.4-6.9,7.6c0,4.2,3.1,7.6,6.9,7.6c0.7,0,1.3-0.1,1.9-0.3c1.8,4.8,5,8.2,8.9,8.6v0.1H90.1z"/>
	<path class="st0" d="M133.9,204.1C133.9,204.1,133.9,204.1,133.9,204.1L133.9,204.1L133.9,204.1z"/>
	<path class="st0" d="M179.3,146.6c9,7.6,16.4,16.5,19.6,28.8l0.1,0c1,3.5,1.6,6.9,2.1,10.2c0,0,13.7-1.9,20.6-4.4
		c4-1.4,4.9-4.2,5.7-7.2l32.9-1.6l16.9-0.8l3.6-24.8l-17.7,0L179.3,146.6z"/>
	<path class="st0" d="M43.8,244.3L43.8,244.3l11.7-2.1c17.5-3.8,32.8-9.8,44.4-17.7c-0.3-0.5-0.7-1-1-1.5
		c-3.8-5.5-6.6-11.8-8.2-18.5c-11.5,11.8-25.4,21-40.3,27.9l-11,4.7l-0.7-1.2c0.2,0.4,0.4,0.8,0.7,1.2c-0.2,0.1-0.1,0,0,0
		L43.8,244.3C43.6,244.4,43.7,244.3,43.8,244.3c0.2,0.4,0.5,0.8,0.8,1.3L43.8,244.3L43.8,244.3z"/>
	<path class="st0" d="M50.4,232.3c-27.4-56.2-28-124-7.9-204.6c-6.2,2.2-12.7,4.6-19.3,7.3C1.5,112.1,7,180.3,38.4,235.3l11.2-4.7
		L50.4,232.3z"/>
	<path class="st0" d="M146,332.2c-41.7-25.8-71.4-55.6-90.5-90l0.8,1.4l-11.6,2.3C67.5,280.9,101.4,310.1,146,332.2
		c72.3-35.8,116.4-90.3,130.7-158.2l-16.9,0.9C248.9,238.9,212.9,290.8,146,332.2z"/>
	<path class="st0" d="M280.9,145.1c2.8-34-1.2-70.9-12.2-110.1c-6.6-2.7-13-5.1-19.2-7.3c10.8,43.3,15.7,82.9,13.6,119l0.1-2.1
		L280.9,145.1z"/>
	<path class="st0" d="M146.1,329.4c62.2-39.4,97.3-89.8,107.8-154.5l-24.6,1.3c-0.9,2.7-2.3,5.1-5.7,6.4c-6.4,2.4-19,4.7-21.8,5.3
		c0.1,1.1,0.1,2.2,0.1,3.3c0,31.2-25.3,56.5-56.4,56.5c-18.1,0-34.3-8.6-44.6-21.9c-14.5,9.8-26.3,13.4-39.8,17
		C79.4,276.4,107.5,305,146.1,329.4l0,2.7L146.1,329.4C146,329.4,146.1,329.4,146.1,329.4"/>
	<path class="st0" d="M145.5,244.7c29.5,0,53.5-24,53.5-53.5c0-29.6-23.9-53.5-53.5-53.5c-29.5,0-53.5,24-53.5,53.5
		C92,220.7,116,244.7,145.5,244.7z M141.4,235.6c-13.1-1.2-24.6-8.1-31.9-18.2l24.9-15.8c1.9,2,4.3,3.5,7,4.3V235.6z M149.5,235.6
		v-29.7c2.7-0.7,5.1-2.2,7-4.1l24.7,16.1C173.8,227.8,162.5,234.5,149.5,235.6z M185.6,171.6c2.9,5.9,4.5,12.6,4.5,19.6
		c0,7.1-1.7,13.8-4.6,19.8l-25-16.4c0.2-1.1,0.4-2.2,0.4-3.4v0c0-1.1-0.1-2.2-0.4-3.2L185.6,171.6z M149.5,146.7
		c13,1.2,24.4,7.9,31.8,17.8l-25,16.2l-0.7-1c-1.7-1.6-3.8-2.7-6.2-3.3V146.7z M153.4,191.2c0,4.3-3.5,7.9-7.9,7.9
		c-4.3,0-7.9-3.5-7.9-7.9c0-4.4,3.5-7.9,7.9-7.9C149.8,183.3,153.4,186.8,153.4,191.2z M141.4,146.7v29.7c-2,0.6-3.9,1.5-5.5,2.8
		L111,162.9C118.3,153.9,129.1,147.9,141.4,146.7z M100.9,191.2c0-7.8,2-15.1,5.5-21.4l24.7,16.2c-0.6,1.6-0.9,3.4-0.9,5.2v0
		c0,1.1,0.1,2.1,0.3,3.1l-25.3,16C102.5,204.5,100.9,198,100.9,191.2z"/>
	<path class="st1" d="M277.3,28.3C244.7,9.3,180.7,0.4,146,0.4c-34.7,0-98.7,9-131.3,27.9C-28.2,180.4,30.1,283.9,146,342.6
		C261.9,283.9,320.2,179.9,277.3,28.3z M146,10v0.2c0,0,0,0,0.1,0L146,10c34.2,0,68.7,5.2,96.8,14.9c10.9,44.2,15.8,83.9,14.1,119.6
		l-79.8-0.1c-9-6.2-20-9.8-31.8-9.8c-12.1,0-23.3,3.8-32.5,10.3H61.9h-0.2h-0.9v0.1c-4.1,0.6-7.5,4.3-9.4,9.6
		c-5.2,0.3-9.4,4.6-9.4,9.9c0,5.5,4.5,9.9,9.9,9.9c0,0,0.1,0,0.1,0c2,4.4,5.1,7.4,8.7,7.9v0.1h29c-0.4,2.9-0.7,5.8-0.7,8.8
		c0,4,0.4,7.9,1.2,11.6c-12.2,11.6-24.3,20-36.1,26.1c-24.5-54.5-25.4-121.5-4.9-204C77.4,15.1,111.9,10,146,10z M52.7,171.9
		c-0.6,0.2-1.2,0.3-1.9,0.3c-3.8,0-6.9-3.4-6.9-7.6c0-4.2,3.1-7.6,6.9-7.6c0.5,0,1,0.1,1.5,0.2c1.6-5.5,5.1-9.5,9.3-10V147h0.8h0.2
		h47.8c-10.4,8.3-17.7,20.1-20.3,33.6H61.6v-0.1C57.7,180.1,54.5,176.7,52.7,171.9z M145.5,137.6c29.5,0,53.5,24,53.5,53.5
		c0,29.6-23.9,53.5-53.5,53.5c-29.5,0-53.5-24-53.5-53.5C92,161.6,116,137.6,145.5,137.6z M146.1,329.4
		C146.1,329.4,146,329.4,146.1,329.4l0,2.7c66.9-41.3,102.9-93.3,113.8-157.2l-0.2,0l0.6-2.6l-32.9,1.6c-0.9,3.1-1.7,5.8-5.7,7.2
		c-6.8,2.4-20.6,4.4-20.6,4.4c-0.5-3.3-1.2-6.7-2.1-10.2l-0.1,0c-3.2-12.3-10.6-21.2-19.6-28.8l83.8,0.1c2.1-36.1-2.7-75.7-13.6-119
		c6.2,2.2,12.6,4.6,19.2,7.3c11,39.2,15,76,12.2,110.1l0,0l-0.1,1.6l-3.6,24.8l-0.5,2.4l0,0c-14.3,67.8-58.4,122.3-130.7,158.3
		c-44.6-22.2-78.5-51.4-101.3-86.4l0,0l-0.2-0.3c-0.3-0.4-0.5-0.8-0.8-1.3c-0.1,0-0.1,0,0,0l-4.5-7.3c-0.1,0-0.2,0.1,0,0
		c-0.2-0.4-0.4-0.8-0.7-1.2l-0.3-0.5l0,0C7,180.3,1.5,112.1,23.2,35c6.6-2.7,13.1-5.1,19.3-7.3C22.3,108.4,23,176.1,50.4,232.3
		c14.8-6.9,28.8-16,40.3-27.9c1.6,6.7,4.4,12.9,8.2,18.5c0.4,0.5,0.7,1.1,1,1.5c-11.6,8-26.9,13.9-44.4,17.7
		c19.1,34.3,48.8,64.2,90.5,90L146.1,329.4c-38.5-24.4-66.7-53.1-85-86.7c13.5-3.6,25.3-7.2,39.8-17c10.3,13.3,26.5,21.9,44.6,21.9
		c31.2,0,56.4-25.3,56.4-56.5c0-1.1,0-2.2-0.1-3.3c2.8-0.5,15.4-2.8,21.8-5.3c3.4-1.3,4.8-3.7,5.7-6.4l24.6-1.3
		C243.3,239.7,208.3,290,146.1,329.4"/>
	<path class="st1" d="M134.3,201.6l-24.9,15.8c7.3,10.1,18.8,17,31.9,18.2v-29.7C138.6,205.1,136.2,203.6,134.3,201.6z M139.5,207.5
		v24.9c-2-0.3-3.9-0.7-5.8-1.3c-0.2-0.1-0.4-0.1-0.6-0.2c0,0,0,0-0.1,0c-4.5-1.3-8.6-3.4-12.1-6.1c-2.9-2.1-5.5-4.6-7.8-7.4
		l13.3-8.4l7.5-4.9c0,0,0,0,0,0h0l0,0c1.1,1,2.4,1.8,3.8,2.6C138.3,207,138.9,207.3,139.5,207.5z"/>
	<path class="st1" d="M130.2,191.2L130.2,191.2c0-1.9,0.3-3.6,0.9-5.2l-24.7-16.2c-3.5,6.4-5.5,13.7-5.5,21.4
		c0,6.9,1.6,13.4,4.3,19.2l25.3-16C130.3,193.3,130.2,192.3,130.2,191.2z M128.3,193.7l-21.3,13.5c-2.1-4.9-3.2-10.4-3.2-16
		c0-6.6,1.5-12.8,4.2-18.3l20.7,13.6c-0.4,1.5-0.7,3.1-0.7,4.7v0C128.1,192.1,128.2,192.9,128.3,193.7z"/>
	<path class="st1" d="M141.4,176.4v-29.7c-12.2,1.1-23,7.2-30.4,16.2l24.9,16.3C137.4,178,139.3,177,141.4,176.4z M114.8,163.1
		c6.3-6.9,15-11.7,24.7-13.1v24.9c-1.3,0.5-2.6,1.1-3.8,1.9L114.8,163.1z"/>
	<path class="st1" d="M156.3,180.8l25-16.2c-7.4-9.9-18.8-16.7-31.8-17.8v29.7c2.3,0.6,4.4,1.8,6.2,3.3L156.3,180.8z M151.4,149.9
		c10.6,1.5,19.9,6.9,26.3,14.8L157,178.2c-1.6-1.5-3.6-2.6-5.7-3.4V149.9z"/>
	<path class="st1" d="M149.5,205.9v29.7c12.9-1.2,24.3-7.8,31.7-17.7l-24.7-16.1C154.6,203.8,152.2,205.2,149.5,205.9z M157,204.1
		l20.6,13.5c-2.2,2.7-4.8,5.1-7.7,7.2c-4.3,3.3-9.4,5.7-15.2,6.9c-1.1,0.3-2.3,0.5-3.4,0.6v-24.9c1.2-0.4,2.3-1,3.3-1.6
		c0.8-0.5,1.5-1,2.1-1.6C156.9,204.3,157,204.2,157,204.1z"/>
	<path class="st1" d="M160.8,191.1L160.8,191.1c0,1.2-0.1,2.3-0.4,3.4l25,16.4c3-6,4.6-12.7,4.6-19.8c0-7-1.6-13.7-4.5-19.6
		l-25.1,16.3C160.7,188.9,160.8,190,160.8,191.1z M162.7,193.6L162.7,193.6c0-0.2,0-0.4,0.1-0.6
		C162.7,193.3,162.7,193.5,162.7,193.6z M183.8,174.9c2.1,5,3.3,10.5,3.3,16.3c0,0.5,0,1,0,1.4c0,2-0.2,3.9-0.6,5.7
		c-0.6,3.2-1.5,6.3-2.7,9.2l-21-13.8l24.2-2.9c0-0.5,0.1-0.9,0-2.1l-24.2,3.1c-0.1,0.4-0.1,0.7-0.1,0.9c0-0.5,0.1-1.1,0.1-1.6
		c0,0,0,0,0,0c0-0.9-0.1-1.7-0.2-2.5L183.8,174.9z"/>
	<path class="st1" d="M137.6,191.2c0,4.4,3.5,7.9,7.9,7.9c4.4,0,7.9-3.6,7.9-7.9c0-4.4-3.5-7.9-7.9-7.9
		C141.2,183.3,137.6,186.8,137.6,191.2z M145.5,185.5c3.1,0,5.7,2.5,5.7,5.7c0,3.1-2.5,5.7-5.7,5.7c-3.1,0-5.7-2.5-5.7-5.7
		C139.8,188,142.3,185.5,145.5,185.5z"/>
	<path class="st1" d="M113.8,88.1c2.4,1.3,4.7,2.7,6.1,3.4c1.9,1,3.6,2,3.4,4.4c-0.2,2.3-2.3,4-5.9,4c-3,0-7.2-2-10.3-4.7l-0.1,7.1
		c2.6,1.3,6.7,2,10.5,2c6.5,0,14.7-3,14.8-10.4c0.2-5.7-3.8-7.7-6.2-9c-2.4-1-4.9-2.4-6-2.7c-1.2-0.7-3.4-1.3-3.3-4
		c0.3-2.3,3-3.4,5.8-3.4c2.4,0,4.8,0.7,6.7,1.7l0.1-5.4c-1.4-0.3-3.6-1-7-1c-2.7,0-6.2,0.7-9,2c-3.1,2-5.4,4.7-5.5,7.7
		C107.8,84.4,110.2,86.4,113.8,88.1z"/>
	<path class="st1" d="M51.2,104.2c0.5-3,1.2-5.7,2.7-9.4l14-0.4c0.5,2.7,1.6,7.1,1.7,9.7h12.7c-1.6-3.7-3.6-11.4-4.8-16.8L71,58.6
		l-15.1,2c0.3,2-0.3,6-1.9,10.7c-3.1,9-8.2,24.1-12.2,32.9H51.2z M62.8,69.3l4.1,19.5l-11,0.3L62.8,69.3z"/>
	<path class="st1" d="M86.3,91.1c-0.1,4.4-0.4,9.1-1.1,13.1h10.7c-0.3-4-0.1-9.1,0.2-13.4c0.3-5.4,1.6-8.4,3.6-10.4
		c2.3-2.3,5.1-3,7.4-2.7l0.3-6.7c-3,0-7,1.3-11.1,7.7c0.2-2.3-0.1-4.7-0.5-6L86.1,73c0.7,4,0.7,8.4,0.4,12.8L86.3,91.1z"/>
	<path class="st1" d="M236.1,91.8c0.4,4.4,0.9,8.4,0.7,12.4h10.5c-1-4-1.4-8.1-1.9-12.4l-3.8-31.2l-9.7-1.7c1,4.4,1.3,7.4,1.9,11.8
		L236.1,91.8z"/>
	<path class="st1" d="M168.9,91.8c0.1,4.4,0,8.4-0.3,12.4h10.7c-0.5-4-0.8-8.1-1-12.4l-0.3-9.4c-0.1-3.4,2.4-5.7,5-5.7
		c3,0,4.4,2,4.6,5l0.4,10.1c0.1,4.4,0.1,8.4-0.2,12.4h10.3c-0.5-4-0.8-8.1-1-12.4l-0.4-11.1c-0.3-6.1-3.7-9.4-9.4-9.4
		c-3.1,0-6.8,1-10,5c-0.1-1-0.6-3.7-1.2-5l-8.5-0.4c0.7,4,1,8,1.1,12.4L168.9,91.8z"/>
	<path class="st1" d="M201.6,96.1c0.4,6.1,5,8.8,10.7,8.8c4.4,0,7.4-2,9.1-4c0.3,1.3,0.7,2.3,1.2,3.4h9c-1.3-3.4-2-7.4-2.3-11.8
		l-0.6-6.7c-0.6-8-4-13.4-17.1-13.4c-2.3,0-5.5,0.4-8.2,1l0.4,6.1c2.7-1.7,5.4-3,8.8-3c3.6,0,6.5,1.7,6.8,6.7
		c-3.4,0.4-6.6,1-10.1,2.7C205.3,87.4,201.2,90.8,201.6,96.1z M219.7,86.8l0.4,5.7c0.2,2,0.2,3.4,0.4,5c-1,1.3-2.7,2-4.6,2.4
		c-3.1,0-5.7-1.7-5.8-5.4C210.1,90.8,212.4,87.8,219.7,86.8z"/>
	<path class="st1" d="M151.7,104.5c6.1,0,9.8-2.3,12.8-5.4l-2.1-3c-1.6,1.3-4.1,3.4-8.3,3.4c-4.4-0.3-7.2-3.4-8.8-8l19.4-7.1
		c-0.6-6.4-2.9-10.1-5.8-12.4c-2.4-1.7-5.3-2.4-8.3-2.4c-7,0-16.2,5-16,17.8C134.7,100.5,144.7,104.5,151.7,104.5z M149.8,74
		c2.3-0.3,4.3,1,5,3.7c0.8,3,0.5,5.7-2.7,6.7l-7.7,3c-0.2-1.3-0.3-2.7-0.3-4.4C144.1,75.3,148.4,74,149.8,74z"/>
	<polygon class="st1" points="55.5,242.2 43.8,244.3 43.8,244.3 43.8,244.3 44.6,245.6 44.7,245.8 44.7,245.8 56.3,243.6 	"/>
	<polygon class="st1" points="50.4,232.3 49.6,230.7 38.4,235.3 38.3,235.3 38.6,235.8 39.3,237 	"/>
	<polygon class="st1" points="259.7,175 259.9,175 276.7,174 276.8,174 277.3,171.6 260.3,172.4 	"/>
	<polygon class="st1" points="263.2,144.6 263.1,146.7 280.8,146.7 281,145.1 280.9,145.1 	"/>
</g>
</svg>
