<?xml version="1.0" encoding="utf-8"?>
<!-- Generator: Adobe Illustrator 24.0.1, SVG Export Plug-In . SVG Version: 6.00 Build 0)  -->
<svg version="1.1"
	 id="svg38242" inkscape:version="0.48.1 " sodipodi:docname="Manchester_United_FC_crest.svg" xmlns:cc="http://creativecommons.org/ns#" xmlns:dc="http://purl.org/dc/elements/1.1/" xmlns:inkscape="http://www.inkscape.org/namespaces/inkscape" xmlns:rdf="http://www.w3.org/1999/02/22-rdf-syntax-ns#" xmlns:sodipodi="http://sodipodi.sourceforge.net/DTD/sodipodi-0.dtd" xmlns:svg="http://www.w3.org/2000/svg"
	 xmlns="http://www.w3.org/2000/svg" xmlns:xlink="http://www.w3.org/1999/xlink" x="0px" y="0px" viewBox="0 0 296.1 300"
	 style="enable-background:new 0 0 296.1 300;" xml:space="preserve">
<style type="text/css">
	.st0{fill:none;}
	.st1{fill:url(#SVGID_1_);}
	.st2{fill:url(#SVGID_2_);}
	.st3{fill:#FFFFFF;}
	.st4{fill:url(#SVGID_3_);}
	.st5{fill:url(#SVGID_4_);}
	.st6{fill:url(#SVGID_5_);}
	.st7{fill:url(#SVGID_6_);}
	.st8{fill:url(#SVGID_7_);}
	.st9{fill:url(#SVGID_8_);}
	.st10{fill:url(#SVGID_9_);}
	.st11{fill:url(#SVGID_10_);}
</style>
<g>
	<path class="st0" d="M195.2,83.2c0.8,0.5,1.8,1.2,2.7,2C185.3,74.8,168.7,66,148,66c-20.5,0-37.1,8.7-49.6,19
		c0.9-0.7,1.7-1.3,2.4-1.8H195.2z"/>
	<path class="st0" d="M109.2,22c-0.7,0.2-1.4,0.5-2.2,0.7C107.7,22.4,108.4,22.2,109.2,22z"/>
	
		<radialGradient id="SVGID_1_" cx="921.1412" cy="1840.1095" r="11.6663" gradientTransform="matrix(0.8503 0 0 0.6321 -634.5391 -873.3559)" gradientUnits="userSpaceOnUse">
		<stop  offset="0" style="stop-color:#FFFFFF"/>
		<stop  offset="0.5" style="stop-color:#FFFFFF"/>
		<stop  offset="1" style="stop-color:#FFFFFF"/>
	</radialGradient>
	<path class="st1" d="M152,291.3c-1.3,0-2.2-0.8-2.2-1.8c0-1.3,1.2-2,2.1-2c1.7,0,2.6,0.1,4-1.9c-1.2,0-3.7,0.1-7.9,0.1
		c-4,0-11.1-0.4-11.1-0.4s3.4,9.5,11.8,9.5c8.4,0,11.6-9.6,11.6-9.6c-0.5,0-2.3,0.1-2.3,0.1C157.4,287.1,155.1,291.3,152,291.3z"/>
	
		<radialGradient id="SVGID_2_" cx="888.2966" cy="1558.4352" r="12.2336" gradientTransform="matrix(0.8568 0 0 0.7704 -639.6425 -914.2623)" gradientUnits="userSpaceOnUse">
		<stop  offset="0" style="stop-color:#FFFFFF"/>
		<stop  offset="0.5" style="stop-color:#FFFFFF"/>
		<stop  offset="1" style="stop-color:#FFFFFF"/>
	</radialGradient>
	<path class="st2" d="M125.6,288.9c-2,0-2.6-0.9-2.7-1.6c0-1,0.8-1.6,1.4-1.5c0.2,0.1,0.3,0.3,1.1,0.3c2,0,2.3-0.9,2.3-0.9
		c-9.2-1.1-13.1-2.4-18.5-3.8c1.3,2.4,4.5,10,12.9,10.1c7.7,0,11.6-5.5,11.6-5.5c-1.3,0-2.5-0.3-2.5-0.3
		C130,287.2,127.6,288.9,125.6,288.9z"/>
	<path class="st3" d="M248.5,184.6c-9.8,0-13.9,5.3-16.4,8.1c-20.6,23.4-49,40.3-75.8,43.2l47.1-30.3l0.1-115.5
		c11.7,11.1,19,22.6,21.7,26.2c10.1,13.4,22.4,24.3,36.6,20.7c21-5.4,19.9-36.4,19.9-36.4c-4-2.8-10.1-6.2-20.1-18.2
		c-0.2-0.2-0.3-0.4-0.5-0.6c-2.7-3.2-5.6-7.1-8.8-11.7c-11.1-15.6-32.1-36.7-63.1-47.3c-1.8-0.6-3.6-1.2-5.5-1.7
		c-10.8-3.1-22.7-5-35.7-5c-13.1,0-25,1.9-35.8,5.1c-1,0.3-2,0.6-3,0.9c-0.7,0.2-1.4,0.5-2.2,0.7h-0.1
		C75.8,33.4,54.7,54.5,43.8,70.2c-0.2,0.2-0.3,0.4-0.5,0.7c-5.8,8.2-10.6,13.9-14.6,18c-6.7,6.9-11.2,9.5-14.3,11.8
		c0,0-1.1,31,19.8,36.4c14.3,3.6,26.6-7.3,36.6-20.7c2.7-3.6,10-15.2,21.9-26.4v115.6l47.2,30.4c-26.9-2.9-55.4-19.8-76-43.3
		c-2.5-2.8-6.6-8.1-16.5-8.1c-9.8,0-22.9,8.9-21.4,25.3c1.1,11.9,18.2,38.8,47.3,55.3c11.8,6.7,23.3,11.3,33.9,14.3
		c15.7,4.5,29.6,5.8,40.8,5.8c8.6,0,19-0.8,30.5-3.2c13.4-2.8,28.4-8,44.1-16.9c29.1-16.5,46.2-43.4,47.3-55.3
		C271.5,193.6,258.4,184.6,248.5,184.6z M199.1,115.2H97V87.4h102.1V115.2z M68.4,112.8c-12.5,16.7-23.1,23-33.3,20.4
		c-14.7-3.7-16.5-24.1-16.7-30.2v-0.2l0.2-0.2c4.8-3.3,13.9-9.5,28.3-30c8.7-12.3,41.6-52.5,101-52.5s92.3,40.2,101,52.5
		c14.5,20.6,23.2,26.5,28.4,30.1l0.2,0.1v0.2c-0.2,6.1-2,26.4-16.7,30.1c-10.2,2.6-20.8-3.7-33.3-20.4C218.1,99.3,191.9,62,148,62
		S77.9,99.2,68.4,112.8z M148,66c20.7,0,37.4,8.8,49.9,19.2c-0.9-0.7-1.9-1.4-2.7-2h-94.4c-0.7,0.5-1.5,1.1-2.4,1.8
		C110.9,74.7,127.4,66,148,66z M97,118.7h7.5v1.1h87.1v-1.1h7.5v7H97V118.7z M138.6,228.9c0.3-1.8,0.3-2.8,0.2-4.4
		c-0.1-1.6-1.6-3.8-3.6-6.4c-2-2.6-2-5-1.2-11.1s0.6-10,0.6-10s-2.1,0.1-5.1,0s-5.5-1.9-5.8-9.2c-0.2-7.3-0.4-24.8-0.9-26.7
		c-0.5-1.8-2.4-2.1-3.3-2.4c-0.9-0.2-0.9-1.5-0.1-1.9c2.2-1.1,4.8-3.8,3.8-5.4c-1-1.7-4.8-1.3-7.4-0.1c-2.6,1.3-5.3,4-6,4.7
		s-1.3,0.7-1.2-0.1c0.1-0.9-0.5-4.9-0.8-6.2c-0.4-1.4-1.6-4-2-4.7s0-1,0.7-0.7s2.2,0.9,3.7,1.3c1.5,0.4,2.9-0.3,3.5-1.7
		c0.7-1.4,2.1-4.4,2.8-5.7c0.7-1.3,1.8-1,2.7-0.8s1.7,0.8,2.6,1.1c0.8,0.3,1.5,0.3,1.8-0.1c0.3-0.4,0.6-0.6,1.1-1.6s1.1-0.5,1.2-0.1
		c2.5,15,9,15.7,9,15.7c-1,2.5-3.3,6.5-3.8,7.5c-0.6,0.9-0.8,2.3-1,3.3c-0.1,1,0.4,11,1.1,14.6c0.7,3.6,2.9,2.2,3.7,1.1
		c0.7-1.1,2.9-5.7,2.9-5.7s0.5-1.3,0.5-2.3c0-1.1-1.8-3.3-2.2-4s-2-2.1-2-5.6s3.1-5.9,4.3-6.8c1.1-0.9,1.1-2.2,1-3
		c-0.5-2.7-3.4-8.4-4.7-10.6c-1.4-2.2-4.1-6.3-4.1-6.3h5.7l3.6-7.6l4,7.6l3.9,0.2l4.3-7.5l3.4,7.5h5.6c-3.3,3.1-4.7,7.9-4.7,11v3.4
		c0,1.5-0.7,3.9-0.7,3.9s4.8,3.7,5.6,4.3c0.3,0.2,0.6,0.4,0.4,1c-0.4,1.1-3.7,2.6-4,2.8c-0.7,0.7-0.9,1.1-0.7,1.7
		c0.2,0.6,0.8,0.7,2.1,0.3s3.9-1.8,6.1-2.7c2.2-1,5.1-0.7,5.1-0.7v-4.2H162v-13.4l-1.5-2.4l3.7-6.5l3.7,6.6l-1.4,2.3v7h4.2v-7
		l-1.5-2.3l3.7-6.5l3.7,6.5l-1.4,2.3v7h4.3v-7l-1.5-2.3l3.7-6.5l3.7,6.5l-1.5,2.3l0.1,13.4h-8.4v6.2c1.9,1.8,3.7,5.8,3.7,8.2
		s-1.6,3.5-1.6,3.5c0.5,1.9,0.4,2.7,0.2,4.4c-0.2,1.8-2.4,4.5-2.4,4.5v32c0,2.2-5,2-5,0.1v-31.4c-2.8-3.1-10.6-5.6-10.6-5.6
		c-2.8,2.8-4.6,7.8-4.6,7.8c1.2,0.9,3.2,0,3.9-0.8s2.2-1.1,3-0.5c0.8,0.5,1,0.7,0.7,2s-0.8,3.4-0.8,4.8c0,1.5,1.7,1.2,2.9,1.3
		c2.5,0.2,2.9,3,2.7,4.6s-0.9,4.9-0.9,7s0.1,4.2,0.3,5.3s0.6,2.4,0.5,3.9c-0.1,2-1.3,2.3-2.6,1S146.2,194,146.2,194
		c-1.2,3.8,3.7,10.3,5.2,12.3c1.6,2,1.5,3.5,0.1,4.8c-1.3,1.4-4,2.1-4.5,3.4c-0.5,1.2,1.3,5,4.9,9.7c3.7,4.7-4.2,7.9-8.9,8.8
		C138.3,233.9,138.3,230.7,138.6,228.9z M265.7,209.5c-1,10-16.9,36-45.3,52.2c-22.9,13-47.4,19.6-72.7,19.6s-49.7-6.6-72.6-19.6
		c-28.4-16.1-44.3-42.1-45.3-52.2c-0.7-7.4,2.1-12.2,4.6-14.9c3.4-3.6,8.4-6,12.8-6c7.6,0,10.8,3.7,13.3,6.5
		c24.3,27.7,57.3,44.9,86.3,45.3l1.3,0.8l1.3-0.8c28.9-0.6,61.6-17.8,85.6-45.3c2.5-2.8,5.7-6.5,13.3-6.5c4.4,0,9.5,2.3,12.8,6
		C263.6,197.3,266.4,202.1,265.7,209.5z"/>
	<path class="st3" d="M206.6,231.9l-8.4,4.8l12.4,21.5l8.3-4.8c8.6-5,9.4-12.5,6-18.5C220.9,227.7,214.2,227.5,206.6,231.9z
		 M217,250.7l-2.3,1.3l-9.1-15.7l2.5-1.4c5.7-3.4,9-0.4,11.2,3.5C222.4,243.9,221.8,247.9,217,250.7z"/>
	<polygon class="st3" points="190.9,262.3 188.4,254.7 195.7,252.3 194.7,249.1 187.4,251.5 185.3,245 192.8,242.5 191.8,239.4 
		178.1,244 185.7,267.5 200.9,262.6 199.9,259.5 	"/>
	<polygon class="st3" points="172.3,245.6 152.3,248.5 152.7,251.7 159.6,250.7 162.6,271.9 169,271 166,249.8 172.8,248.9 	"/>
	<polygon class="st3" points="122.3,262.6 113.9,242.3 108.6,240.9 102.2,264.8 107.9,266.3 112.4,249.3 121,269.8 126.1,271.2 
		132.5,247.3 126.8,245.7 	"/>
	<path class="st3" d="M96.8,235l-7.3,13.2c-2.2,4-4.5,6.5-8.2,4.4s-2.8-5.1-0.6-9.2l7.3-13.2l-5.9-3.3l-7.8,14
		c-4.3,7.7,1.1,12.5,5.3,14.8c4.5,2.5,11,4.3,15.2-3.3l7.8-14.1L96.8,235z"/>
	<polygon class="st3" points="138.6,273 145.1,273.3 146.4,248.7 139.9,248.3 	"/>
	<path class="st3" d="M170.1,172.9v-4.3c0,0-1.1-1.8-4-1.8c-2.8,0-4.5,0.9-4.5,1.6C161.7,169.6,164.2,172.9,170.1,172.9z"/>
	<path class="st3" d="M146.9,157.7c1.8-3.1,2.6-6.2,2.6-6.2h-5.3C144.2,151.5,145,154.8,146.9,157.7z"/>
	<path class="st3" d="M149.6,144.1c0.9,0.5,2-0.2,2.3-1.7c0.2-1,0.5-2.9,0-3c-0.4-0.2-1.8,0.9-2.4,1.9
		C148.9,142.3,148.7,143.6,149.6,144.1z"/>
	<path class="st3" d="M143.6,144c0.9-0.5,0.7-1.8,0.1-2.8c-0.6-1-1.9-2.1-2.3-1.9s-0.2,2.1-0.1,3C141.5,143.9,142.7,144.5,143.6,144
		z"/>
	<polygon class="st3" points="126.6,97.2 126.6,94.2 114.6,107.1 122.4,109 	"/>
	<polygon class="st3" points="179,114 179,110.4 171.6,110.4 171.6,107.4 177.6,107.4 177.6,94 172.1,94 170.2,90.3 168.3,94 
		162.7,94 162.7,107.4 168.8,107.4 168.8,110.4 154.3,110.4 154.3,107.4 160.3,107.4 160.3,94 154.7,94 152.8,90.3 150.9,94 
		145.4,94 145.4,107.4 151.5,107.4 151.5,110.4 136.7,110.4 136.7,107.4 142.8,107.4 142.8,94 137.2,94 135.3,90.3 133.4,94 
		127.8,94 127.8,107.4 133.9,107.4 133.9,110.4 122.2,110.4 110.5,107.7 112.8,114 	"/>
	
		<radialGradient id="SVGID_3_" cx="920.3813" cy="1278.3015" r="14.7228" gradientTransform="matrix(0.8145 0 0 0.7755 -633.1989 -974.9216)" gradientUnits="userSpaceOnUse">
		<stop  offset="0" style="stop-color:#FFFFFF"/>
		<stop  offset="0.5" style="stop-color:#FFFFFF"/>
		<stop  offset="1" style="stop-color:#FFFFFF"/>
	</radialGradient>
	<path class="st4" d="M117.1,8.7c-3,0-5.6,1.1-6.2,3.2c-0.6,1.9,1,2.7,1.5,2.6c0.6-0.1,1-0.3,0.8-0.8c-0.1-0.5,0.3-1.9,2.2-1.9
		c1.9,0,2.7,1.8,2.7,3s-2,3.3-5.6,3.3c-3.5,0-5.3-2.4-5.2-4.5c-1.6,2.5-2.6,5-3.3,9.2c9.9-3.3,17.3-5.9,29.4-6.9
		C127.8,12,122.8,8.7,117.1,8.7z"/>
	<polygon class="st3" points="205.5,75.4 210.3,79.8 224.6,63.9 229.7,68.5 231.9,66.1 216.9,52.4 214.7,54.8 219.9,59.5 	"/>
	<polygon class="st3" points="155.9,54.3 162.4,54.4 162.8,29.7 156.4,29.5 156.2,39.6 146.5,39.5 146.6,29.4 140.1,29.3 139.7,54 
		146.2,54.1 146.4,42.8 156.1,43 	"/>
	<path class="st3" d="M185.4,58.9c0.8,2.5,2.5,5.1,6.2,7.4c4.6,2.8,9.6,2.3,12-1.6c1.7-2.7,1.7-5-0.3-9c-0.5-1.1-1.2-2-1.7-3
		c-0.9-1.7-1.7-3.1-1-4.4c0.9-1.4,2.9-1.5,4.7-0.4c1.9,1.1,2.7,3,3.1,4.3l3-1.3c-0.9-2.4-2.3-4.6-5.4-6.5c-5.3-3.2-9.6-2.3-11.4,0.6
		c-1.8,3-1.3,5.5,0.1,8.1c0,0,0.8,1.5,1.3,2.4c1.2,2,2.6,4.5,1.6,6.1c-1.2,2-3.2,2.4-5.2,1.2c-2.5-1.6-3.1-3.5-3.7-5.3L185.4,58.9z"
		/>
	<polygon class="st3" points="183.6,57.2 174.6,54 177.2,46.5 184.5,49 185.6,45.9 178.3,43.4 180.5,36.9 188,39.5 189.1,36.4 
		175.4,31.7 167.4,55.1 182.5,60.3 	"/>
	<path class="st3" d="M235.3,108.5l7.3-6.6l2.1,2.4l-4.6,10.4l5.5,4.4l3.8-11.1c0,0.1,3.8,1.9,8-1.8c3.5-3.1,2.3-7.4-1.3-11.5
		l-6.7-7.5L231,103.7L235.3,108.5z M251.2,94.2l1.5,1.6c1.7,1.9,1.7,4.2-0.3,5.9c-1.9,1.8-4.4,1.4-6.3-0.7l-1.1-1.2L251.2,94.2z"/>
	<polygon class="st3" points="227.4,98.9 230,96.8 224,89.5 230.1,84.4 235,90.3 237.6,88.2 232.6,82.3 237.8,77.9 242.9,84 
		245.4,81.9 236.1,70.8 217.2,86.7 	"/>
	<path class="st3" d="M129.7,52.8c-5.9,1.3-9.5-3.6-10.4-7.7c-1.3-6.1,2.3-10.4,6.3-11.3c2.9-0.6,4.6,0.1,5.8,0.6l0.8-3.2
		c-2.1-0.6-4.4-1.1-8-0.4c-8.1,1.7-13.4,7.7-11.6,15.7c1,4.4,4.9,12.4,17.2,9.7c3.4-0.6,5.3-2,7-3.7l-2.2-2.6
		C133.8,50.8,132.5,52.2,129.7,52.8z"/>
	<polygon class="st3" points="96.4,41.8 105.7,56.6 85,48.9 80.4,51.8 93.5,72.8 98.5,69.7 89.2,54.8 110.1,62.6 114.6,59.8 
		101.5,38.8 	"/>
	<path class="st3" d="M63.3,68.7l11.8,23.6l2.9-3.1l-3.2-6.3l5.7-6.1l6.5,2.7l4.8-5.1L67.5,64.2L63.3,68.7z M77.5,75.4L73.2,80
		l-4.4-8.5L77.5,75.4z"/>
	<polygon class="st3" points="48.9,84.6 57.5,102.4 39.1,96.4 35.1,101.1 54,117 56.9,113.6 43.5,102.3 61.4,108.1 63.3,105.9 
		54.7,88.8 68.1,100.1 72.3,95.1 53.5,79.1 	"/>
	
		<radialGradient id="SVGID_4_" cx="-185.8713" cy="604.442" r="8.529" gradientTransform="matrix(1.0879 -1.9053 1.676 0.957 -781.545 -855.3334)" gradientUnits="userSpaceOnUse">
		<stop  offset="0" style="stop-color:#FFFFFF"/>
		<stop  offset="0.5" style="stop-color:#FFFFFF"/>
		<stop  offset="1" style="stop-color:#FFFFFF"/>
	</radialGradient>
	<path class="st5" d="M40,60.8c-2.2-3-4.2-2-5.3-1.5c-0.5,0.2-1.9,1.1-2.2,3c-0.1,1,0.1,2.5,0.9,3.6c1.5,1.9,4.9,3.2,4.9,3.2
		s-4.4,8.6-13.7,17.1v5.5C37,79.4,41.3,71.9,41.4,71.8C41.7,70.3,42.4,64.1,40,60.8z"/>
	
		<linearGradient id="SVGID_5_" gradientUnits="userSpaceOnUse" x1="684.1817" y1="1053.9093" x2="688.7304" y2="1058.9093" gradientTransform="matrix(1 0 0 1 -661.892 -980)">
		<stop  offset="0" style="stop-color:#FFFFFF"/>
		<stop  offset="0.5" style="stop-color:#FFFFFF"/>
		<stop  offset="1" style="stop-color:#FFFFFF"/>
	</linearGradient>
	<path class="st6" d="M34.9,70.2c-2.3-1.1-3.1-2.5-3.7-3.3c0,0-0.9-1.7-1-2.7C25.3,69.7,18.4,76.6,16.8,78c-0.9,0.8-1.8,2.6-1.9,4.1
		c-0.1,1.3,0.4,2.5,1.1,3.3c1.9,2.1,5.2,1,6.5-0.2C30.5,77.7,33.6,72.4,34.9,70.2z"/>
	
		<radialGradient id="SVGID_6_" cx="-621.6571" cy="1278.3015" r="14.7228" gradientTransform="matrix(-0.8145 0 0 0.7755 -326.8011 -974.9216)" gradientUnits="userSpaceOnUse">
		<stop  offset="0" style="stop-color:#FFFFFF"/>
		<stop  offset="0.5" style="stop-color:#FFFFFF"/>
		<stop  offset="1" style="stop-color:#FFFFFF"/>
	</radialGradient>
	<path class="st7" d="M188.8,13.6c0.1,2.1-1.7,4.5-5.2,4.5c-3.6,0-5.6-2.1-5.6-3.3s0.8-3,2.7-3s2.3,1.4,2.2,1.9
		c-0.2,0.5,0.2,0.7,0.8,0.8c0.5,0.1,2.1-0.7,1.5-2.6c-0.6-2.1-3.2-3.2-6.2-3.2c-5.7,0-10.7,3.3-16.3,7.2c12.1,1,19.5,3.6,29.4,6.9
		C191.4,18.6,190.4,16.1,188.8,13.6z"/>
	
		<radialGradient id="SVGID_7_" cx="754.8339" cy="946.9887" r="8.2664" gradientTransform="matrix(1.096 0 0 1.0476 -679.2887 -981.2362)" gradientUnits="userSpaceOnUse">
		<stop  offset="0" style="stop-color:#FFFFFF"/>
		<stop  offset="0.5" style="stop-color:#FFFFFF"/>
		<stop  offset="1" style="stop-color:#FFFFFF"/>
	</radialGradient>
	<path class="st8" d="M148.9,4.8c-0.1,0-0.2,0-0.3,0c-0.6,0-2.5,1.7-3.5,3.1c-1.3,2,3.4,2,3.4,2c-0.3,1.9-2.5,3.7-4.7,3.7
		s-2.9-0.4-2.9-0.4c-0.3,0.5-0.6,0.9-1,1.5c2-0.1,6.6-0.2,8.5-0.2c1.8,0,7,0.3,8.1,0.3C154.7,10.6,151.3,4.8,148.9,4.8z"/>
	
		<radialGradient id="SVGID_8_" cx="-469.7366" cy="39.3002" r="8.529" gradientTransform="matrix(-1.0879 -1.9053 -1.676 0.957 -178.455 -855.3334)" gradientUnits="userSpaceOnUse">
		<stop  offset="0" style="stop-color:#FFFFFF"/>
		<stop  offset="0.5" style="stop-color:#FFFFFF"/>
		<stop  offset="1" style="stop-color:#FFFFFF"/>
	</radialGradient>
	<path class="st9" d="M271.5,91.7v-5.5c-9.3-8.5-13.7-17.1-13.7-17.1s3.4-1.3,4.9-3.2c0.8-1.1,1-2.6,0.9-3.6c-0.3-1.9-1.7-2.8-2.2-3
		c-1.1-0.5-3.1-1.5-5.3,1.5c-2.4,3.3-1.7,9.5-1.4,11C254.8,71.9,259.1,79.4,271.5,91.7z"/>
	
		<linearGradient id="SVGID_9_" gradientUnits="userSpaceOnUse" x1="-571.873" y1="1053.9591" x2="-567.3242" y2="1058.9591" gradientTransform="matrix(-1 0 0 1 -298.108 -980)">
		<stop  offset="0" style="stop-color:#FFFFFF"/>
		<stop  offset="0.5" style="stop-color:#FFFFFF"/>
		<stop  offset="1" style="stop-color:#FFFFFF"/>
	</linearGradient>
	<path class="st10" d="M273.6,85.2c1.3,1.2,4.6,2.3,6.5,0.2c0.7-0.8,1.2-2,1.1-3.3c-0.1-1.5-1-3.3-1.9-4.1
		c-1.6-1.4-8.5-8.3-13.4-13.8c-0.1,1-1,2.7-1,2.7c-0.6,0.8-1.5,2.2-3.7,3.3C262.5,72.4,265.6,77.7,273.6,85.2z"/>
	
		<radialGradient id="SVGID_10_" cx="-577.6279" cy="1558.4352" r="12.2336" gradientTransform="matrix(-0.8568 0 0 0.7704 -318.6076 -914.2623)" gradientUnits="userSpaceOnUse">
		<stop  offset="0" style="stop-color:#FFFFFF"/>
		<stop  offset="0.5" style="stop-color:#FFFFFF"/>
		<stop  offset="1" style="stop-color:#FFFFFF"/>
	</radialGradient>
	<path class="st11" d="M175.7,291.5c8.5-0.1,11.6-7.7,12.9-10.1c-5.4,1.4-9.3,2.7-18.5,3.8c0,0,0.3,0.9,2.3,0.9
		c0.8,0,0.9-0.2,1.1-0.3c0.6-0.1,1.4,0.5,1.4,1.5c-0.1,0.7-0.7,1.6-2.7,1.6s-4.4-1.7-5.6-3.2c0,0-1.2,0.3-2.5,0.3
		C164.1,286,168,291.5,175.7,291.5z"/>
	<path class="st3" d="M20.5,149.5c0.6-0.7,0.4-1.7,0.4-2.1c-0.1-0.5-0.3-1.2-0.3-1.6c0-0.9-0.5-0.9-0.8-0.7c-2.8,1.3-5,3.9-6.6,6.6
		c-0.4,0.6-0.4,2.1-0.1,2.6c0.3,0.7,1.5,3.1,2.4,3.6s1.1-0.1,1.2-0.6C17.3,154.8,19.9,150.2,20.5,149.5z"/>
	<path class="st3" d="M24.9,148c2.3,0.8,5.5,1.8,8.1,1.8s6.5-0.8,6.5-3.3c0-0.7-0.2-1.3-0.9-1.7c-2.6-1.7-5.8-2.3-9.1-2.3
		c-2.1,0-4.2,0.4-6.2,1c-0.7,0.2-1.1,1.4-1.2,1.9C22.1,146,22.6,147.3,24.9,148z"/>
	<path class="st3" d="M42.6,164c-3.2,2.6-6.5,4-11.3,4.1c-0.6,0-0.9,0.9-0.9,1.7s0.5,6.8,2.5,9.1c0.5,0.6,1,1.4,2.1,1
		c7.8-2.5,13.7-9.6,13.7-18.4c0-1.3-0.3-2.5-0.4-3.2c-0.1-0.8-0.7-0.9-1-0.3C47.1,158.5,45.7,161.5,42.6,164z"/>
	<path class="st3" d="M15.6,161.1c0.1-1.3-1.9-2.8-2.3-3.5c-0.3-0.6-0.8-1.1-1.1-1.6c-0.4-0.7-0.9,0.1-0.9,0.1
		c-0.5,1.8-0.8,3.7-0.8,5.6c0,4.9,1.9,9.7,4.5,12.3c0.6,0.5,0.9,0,0.7-1S14.9,165.8,15.6,161.1z"/>
	<path class="st3" d="M34.2,152.2c-0.8,1.2-3.5,7.9-3.6,11.7c-0.1,1.4,1.1,2.5,2.8,2.2s4.8-0.2,9.7-4.8c1.1-1,4.8-5.3,3.6-8.2
		c-0.9-2.2-2.6-4.1-4.4-5.8c0,0-1-0.7-1.3-1c0,0,0,1.4-0.9,2.3c-0.9,1-2.7,1.8-4.5,2.3C35.6,150.9,34.7,151.4,34.2,152.2z"/>
	<path class="st3" d="M30.4,178.3c-1.1-3-1.7-7.9-1.5-12.8c0.2-5.4,2.5-10,3.1-11.9c0.6-1.9-0.5-2.2-1.5-2.4s-2.3-0.5-3-0.7
		c-1.3-0.4-1.7-0.6-2.8-0.9c-1.1-0.3-2.6-0.2-3.2,1c-0.7,1.2-4.8,7.1-4.8,17.1c0,3,0.9,9.1,3.3,10.4c2.2,1.3,6.1,2.6,9.6,2.6
		c0.1,0,0.3,0,0.4,0C31.1,180.8,31.1,180,30.4,178.3z"/>
	<path class="st3" d="M54.9,162.5c0-13.9-11.3-25.3-25.3-25.3S4.3,148.5,4.3,162.5s11.3,25.4,25.3,25.3
		C43.6,187.8,54.9,176.5,54.9,162.5z M8.4,162.6c0-11.8,9.5-21.3,21.3-21.3S51,150.8,51,162.6s-9.5,21.3-21.3,21.3
		S8.4,174.4,8.4,162.6z"/>
	<path class="st3" d="M267,137.2c-14,0-25.3,11.3-25.3,25.3s11.3,25.3,25.3,25.3s25.3-11.3,25.3-25.3S281,137.2,267,137.2z
		 M267,183.8c-11.8,0-21.3-9.5-21.3-21.3s9.6-21.3,21.3-21.3c11.8,0,21.3,9.5,21.3,21.3S278.8,183.8,267,183.8z"/>
	<path class="st3" d="M285.6,156c0,0-0.5-0.8-0.9-0.1c-0.3,0.4-0.7,0.9-1.1,1.6c-0.4,0.7-2.5,2.2-2.3,3.5c0.7,4.7,0.1,10.9-0.1,11.9
		c-0.3,1.1,0,1.5,0.6,1c2.6-2.6,4.5-7.4,4.6-12.3C286.4,159.6,286.1,157.8,285.6,156z"/>
	<path class="st3" d="M283.8,154.3c0.3-0.5,0.2-2-0.1-2.6c-1.6-2.8-3.8-5.3-6.7-6.6c-0.3-0.2-0.8-0.2-0.8,0.6c0,0.4-0.3,1.2-0.3,1.6
		c0,0.5-0.2,1.4,0.4,2.1c0.6,0.7,3.1,5.3,3.8,7.8c0.1,0.6,0.2,1.2,1.3,0.7C282.3,157.4,283.4,155,283.8,154.3z"/>
	<path class="st3" d="M272.1,149.5c-1.1,0.3-1.5,0.5-2.8,0.9c-0.6,0.2-2,0.5-3,0.7c-1.1,0.2-2.2,0.4-1.5,2.3
		c0.7,1.9,2.9,6.5,3.1,11.9c0.2,4.8-0.4,9.7-1.5,12.7c-0.7,1.9-0.7,2.6,0.4,2.6h0.4c3.6,0,7.4-1.3,9.7-2.6s3.2-7.3,3.2-10.4
		c0-9.9-4.2-15.9-4.8-17.1C274.6,149.4,273.2,149.2,272.1,149.5z"/>
	<path class="st3" d="M263.7,149.7c2.6,0,5.8-1,8.1-1.7s2.8-2,2.8-2.6s-0.5-1.8-1.2-2c-2-0.6-4-1-6.2-1c-3.3,0-6.4,0.6-9.1,2.3
		c-0.7,0.4-0.9,1-0.9,1.7C257.2,148.8,261.1,149.7,263.7,149.7z"/>
	<path class="st3" d="M265.6,168.2c-4.8-0.1-8.2-1.5-11.3-4.1c-3.1-2.6-4.4-5.5-4.7-6c-0.3-0.6-0.9-0.5-1.1,0.3
		c-0.1,0.7-0.4,1.9-0.4,3.2c0,8.7,5.8,15.8,13.7,18.3c1.1,0.3,1.6-0.4,2.2-0.9c2-2.3,2.5-8.3,2.5-9.1
		C266.5,169.1,266.2,168.2,265.6,168.2z"/>
	<path class="st3" d="M253.8,161.4c4.9,4.6,7.9,4.6,9.7,4.8c1.7,0.2,2.8-0.9,2.8-2.2c-0.1-3.9-2.8-10.5-3.6-11.7
		c-0.5-0.8-1.4-1.3-1.4-1.3c-1.8-0.5-3.6-1.3-4.5-2.3s-1-2.4-1-2.4c-0.4,0.2-1.3,1-1.3,1c-1.8,1.6-3.5,3.5-4.4,5.8
		C248.9,156,252.6,160.3,253.8,161.4z"/>
</g>
</svg>
