<?xml version="1.0" encoding="utf-8"?>
<!-- Generator: Adobe Illustrator 24.0.1, SVG Export Plug-In . SVG Version: 6.00 Build 0)  -->
<svg version="1.1"
	 id="Layer_1" inkscape:version="0.47 r22583" sodipodi:docname="Chelsea_FC.svg" xmlns:cc="http://creativecommons.org/ns#" xmlns:dc="http://purl.org/dc/elements/1.1/" xmlns:inkscape="http://www.inkscape.org/namespaces/inkscape" xmlns:rdf="http://www.w3.org/1999/02/22-rdf-syntax-ns#" xmlns:sodipodi="http://sodipodi.sourceforge.net/DTD/sodipodi-0.dtd" xmlns:svg="http://www.w3.org/2000/svg"
	 xmlns="http://www.w3.org/2000/svg" xmlns:xlink="http://www.w3.org/1999/xlink" x="0px" y="0px" viewBox="0 0 209.5 209.5"
	 style="enable-background:new 0 0 209.5 209.5;" xml:space="preserve">
<style type="text/css">
	.st0{fill:#FFFFFF;}
</style>
<g>
	<path class="st0" d="M104.7,0C46.9,0,0,46.9,0,104.7c0,57.8,46.9,104.7,104.7,104.7c57.8,0,104.7-46.9,104.7-104.7
		C209.5,46.9,162.6,0,104.7,0z M104.7,206C48.8,206,3.5,160.7,3.5,104.7C3.5,48.8,48.8,3.5,104.7,3.5C160.7,3.5,206,48.8,206,104.7
		C206,160.7,160.7,206,104.7,206z"/>
	<path class="st0" d="M104.7,32.6c-39.8,0-72.2,32.3-72.2,72.2c0,39.8,32.3,72.1,72.2,72.1c39.8,0,72.2-32.3,72.2-72.1
		C176.9,64.9,144.6,32.6,104.7,32.6z M138,65.9c0,0.1,0,0.2,0,0.3c0.2,2.7-1.7,5.1-4.5,5.4c-2,0.2-3.8-0.8-4.7-2.4h0
		c0.3-0.5,0.8-1,1.2-1.6c0.9,0.8,2.3,1.3,3.9,1.1C136.1,68.5,137.8,67.3,138,65.9z M145.8,109.1
		C145.8,109.1,145.8,109.1,145.8,109.1C145.8,109.1,145.8,109.1,145.8,109.1C145.8,109.1,145.8,109.1,145.8,109.1
		C145.8,109.1,145.8,109.1,145.8,109.1c3.3-4.5-2.5-8.9-5.4-6.8c-0.8,0.6-1.2,1.2-1.3,1.8c0,0,0,0,0,0c-0.6,3.3,7,7.1,7,15.4
		c0,10.2-16.6,9-21.7,3c0,2.2,5.3,13.7,15.3,9.1c-11.3,12.3-2.9,24.8-8.7,24.8c-3.1,0-2.8,2.9-2.8,2.9c0,0,0,0,0,0
		c0,0-2.3-0.7-2.2-3c0,0,0,0,0.1,0.1c0,0,0,0,0,0c0-0.1-0.1-0.1-0.1-0.1c-1.7-0.1-4.1,0.5-4.2,3.7c0,0,0,0-0.1-0.1c0,0,0,0,0,0
		c0,0,0,0,0.1,0.1c0,0-2.1-0.5-1.9-3.7c0,0,0,0,0,0.1c0,0,0,0,0,0c0,0,0-0.1,0-0.1c-3.2-0.2-5.8,0.6-5.8,3.2c-0.6-0.6-0.6-0.6,0,0
		c0,0-1.9-1.4-1.8-3.9h0c-1.2-1.3-1.6-7.7,9-7.1c2.9,0.2,3.5-7.3,1.6-9.6c-1.3-0.1-6.2-0.1-10.7-8.7c0,0,0,0,0,0
		c-2.2,0-8.5,2.4-8.5,5.9c0,3.8,7,4.9,7,4.9c-14.1,2.6-5.4,12.2-14.7,13.8c-3.7,0.6-2.8,3.8-2.8,3.8c0,0,0,0,0,0
		c0,0-3.2-1.1-3.2-3.8H90c0,0,0,0,0,0h-0.1c-2.1,0-4.4,1.2-4.5,4.6c0,0,0,0,0,0c0,0-2.6-0.7-2.5-4.7H83c0,0,0,0,0,0h-0.1
		c-4,0-5,1.8-4.6,3.9c0,0,0,0,0,0s0,0,0,0c0,0,0,0,0,0l0,0c0,0-2.9-1.3-2-5.1h0.1c0,0,0,0,0,0h-0.1v0c0,0,0,0,0,0h0c0,0,0,0,0,0
		c-1.8-4.5,0.6-8.4,10.1-7.2c6.6,0.8,6.8-9.6,6.8-10.9c-11.1-4.8,4.9-18.7,12.2-21.1c0,0,0.1,0,0.1,0c0,0,0,0,0,0c0,0-0.1,0-0.1,0
		l-3.5-5.9c0,0-6,7.1-13,8.9c-1.1-2.2-4.8-2.6-7.5-1.2c-0.9,0.5-1.7,1.1-2.3,1.9c0,0-1.1,1.2-0.7,3c0,0,0,0,0,0h0c0,0,0,0,0,0l0,0
		c-0.1,0-0.1,0-0.2,0c-0.1,0-0.3,0-0.4-0.1c-0.3-0.1-0.6-0.2-0.9-0.3c0,0,0,0,0,0c0,0,0,0,0,0c0,0,0,0,0,0v13.7l1.3,0l0,4.3l-2.2,0
		c1.1,0.5,2,1.5,2.1,2.7c0.2,1.8-1.3,3.4-3.2,3.6c-1.9,0.2-3.6-1.2-3.7-3v-0.2c0,0,0,0,0,0.1c0,0,0,0,0,0c0,0,0,0,0-0.1
		c0-1.1,0.5-2,1.3-2.6c0,0,0,0,0.1,0c0,0,0,0,0,0c0,0-0.1,0-0.1,0c0.2-0.2,0.5-0.3,0.8-0.5l-2.3,0l0-2.3h0l0-2l1.3,0v-15.4l0,0
		c0,0,0,0,0,0c0,0,0,0,0,0c0,0,0,0,0,0c0,0-1.1-1.1-1.1-3.9c0,0-0.7,0-2.3,1.6c0,0,0,0,0,0c0,0,0,0,0,0c0,0,0,0,0,0
		c0,0-1.3-2.2,0.5-4.5c0,0-1.1,0-2.4,1.1c0,0,0-0.1,0-0.1c0,0,0,0,0,0c0,0,0,0.1,0,0.1c-0.1-5.2,2.7-4.8,2.7-4.8
		c0.4-0.9,1.1-1.9,2.6-2.7V85.5c-0.4-0.1-0.8-0.2-1.3-0.3c-1.5-0.5-1.7-2.1-1.5-3.1c-2.3-2.7-0.5-3.2,0.1-4.4
		c-0.8-1.1-1.3-1.6-0.8-3.2c0.5-1.5,1.6-2.1,3.4-2.4c0.1,0,0.1,0,0.2,0c0,0,0,0,0,0l0,0c0,0,0,0,0,0V71c0,0,0,0,0,0
		c-0.2,0-0.3,0-0.5-0.1c0,0-0.1,0-0.1,0c-0.1,0-0.2-0.1-0.3-0.1c0,0-0.1,0-0.1,0c-0.3-0.1-0.5-0.2-0.8-0.3c0,0-0.1,0-0.1,0
		c-0.1,0-0.2-0.1-0.3-0.1c0,0,0,0,0,0c-0.1,0-0.2-0.1-0.3-0.1c0,0,0,0-0.1,0c-0.1,0-0.1-0.1-0.2-0.1c0,0,0,0,0,0
		c-0.1,0-0.1-0.1-0.2-0.1c0.3,0,1.4-0.4,2.7-1.2c0,0-0.1,0-0.1,0c0,0,0,0,0,0c0,0,0,0,0,0c0,0,0,0,0,0c0,0,0,0,0,0
		c-3.7-1-6.6-4.1-6.9-8c-0.4-4.6,2.8-8.7,7.4-9.7c0,0,0,0,0,0c0,0,0,0,0,0c0,0,0,0,0,0c0.5-0.1,0.9-0.2,1.4-0.2
		c2.2-0.2,4.3,0.4,6,1.4c0,0,0,0,0,0c0.2,0.1,0.4,0.2,0.5,0.3c0,0,0.1,0.1,0.1,0.1c0.2,0.1,0.3,0.2,0.5,0.4c0,0,0,0,0.1,0.1
		c0.3,0.2,0.5,0.5,0.8,0.7c0.1,0.1,0.1,0.1,0.2,0.2c0.1,0.1,0.2,0.2,0.3,0.3c0.1,0.1,0.2,0.2,0.2,0.3c0.1,0.1,0.2,0.2,0.2,0.3
		c0.1,0.1,0.2,0.3,0.3,0.4c0.1,0.1,0.1,0.2,0.2,0.3c0.1,0.2,0.2,0.5,0.3,0.7c0,0.1,0.1,0.1,0.1,0.2c0.1,0.2,0.1,0.4,0.2,0.6
		c0,0.1,0.1,0.2,0.1,0.3c0.1,0.2,0.1,0.4,0.1,0.6c0,0.1,0,0.2,0.1,0.3c0.1,0.3,0.1,0.6,0.1,0.8c0.2,2.4-0.6,4.7-2,6.4
		c-1.8,2.3-3.6,3.7-5.2,4.5v2c1.1,0.4,2.4,1.3,4,2.8c0.5,0.5,1.1,1,1.8,1.4c0,0,0,0,0,0c0.8,0.5,1.7,1,2.7,1.3c0,0,0,0,0,0
		c0,0,0,0,0,0c3.4,1.3,7.3,1.7,10,1.8c2.8-2.8,3.9-7.2,3.9-7.2c-2.9-1-4-5-2.2-7l0.1,0c0,0,0,0,0,0c0,0,0,0,0,0
		c0.1,1.1,1.4,1.8,3,1.8v0c2.3,0,5.1-1.4,5.1-5c0-0.9-1-3.6-4-3l0,0c0,0,0,0,0,0c0,0,0,0,0,0l0,0v0c0,0,0,0,0,0c0,0,0,0,0,0
		c2.4-4.8,6-3.7,7.6-3.9h0.1c0,0,0,0,0,0h-0.1c-2-2.7,3.9-6.6,5.3-6.6c-0.3,0-0.7,0.3-1.2,0.7l0,0c0.4-0.4,0.9-0.7,1.2-0.7
		c-0.5,6.7,13.6,8,14.7,8.3c1.3,3.3,3,2,4.3,4.7l-1.2,1.9L131,63l0,1.6c-2.1,2.1-2.4,3.1-3.3,4.5c0.1-1.2,0.3-2.1-2.1-2.1
		c-1.7,0-2.5,1.3-3.1,2.4c-0.5,1-0.1,3.4,4.1,2.1c-0.5,1.8-0.4,3.7,0,6.8c-0.4-1.9-8.3-6.3-8.3,2.2c0,6.3,6.9,6.5,6.9,3.1
		c5.4,6.8-2.8,11.2-5.9,9.3l-0.3,3.9c3.5,3.7,2.4,13.1,5.5,19.1c0,0,0,0,0,0c1.6,3.1,4.4,5.3,9.7,5.3c2.4,0,4.1-2.1,4.3-3.6
		c1-9.1-9-10-9-20c0-9,12.5-12.5,12.5-17.9c0-5.2-6.7-4.6-7.2-0.5c0,0,0,0,0,0c0,0.1,0,0.3,0,0.4c-2.9-10,16.8-13.8,16.8,0
		c0,8.3-12.7,10.1-15.8,19c1.1-1.5,2.7-2.7,4.7-3.4c4.7-1.8,9.7-0.1,11.1,3.7C153.2,102.8,150.5,107.3,145.8,109.1z"/>
	<path class="st0" d="M72.6,139.2C72.6,139.2,72.6,139.2,72.6,139.2C72.6,139.2,72.6,139.2,72.6,139.2L72.6,139.2
		C72.6,139.2,72.6,139.2,72.6,139.2C72.6,139.2,72.6,139.2,72.6,139.2L72.6,139.2z"/>
	<path class="st0" d="M82.4,93.4c3.4-0.7,3.4-3.7,0.8-5.2c0,0,0,0,0,0c0,0,0,0,0,0c0,0-0.1,0-0.1-0.1c-2.7-1.1-5.1-1.5-6-1.5v19.1
		c0.4,0,0.8,0,1.3-0.2c3.4-1.2,5.9-4,9.7-6.2c4.6-2.7,6.8-3.8,7.8-4.4l0,0c-0.7-1.4-1.4-2.8-2.2-2.7C92.1,95.6,84.5,97.6,82.4,93.4"
		/>
	<path class="st0" d="M74.9,62.2c1.3-0.1,2.3-1.2,2.2-2.5c-0.1-1.3-1.3-2.2-2.6-2.1l0,0c-1,0.1-1.7,0.7-2.1,1.5c0,0,0,0,0,0
		c0,0,0,0,0,0h0c0,0,0,0,0,0h0c-0.1,0.3-0.2,0.6-0.1,1c0,0,0,0,0,0C72.4,61.4,73.6,62.3,74.9,62.2z"/>
	<path class="st0" d="M72.4,59.2C72.4,59.2,72.4,59.2,72.4,59.2C72.4,59.2,72.4,59.2,72.4,59.2C72.4,59.2,72.4,59.2,72.4,59.2
		C72.4,59.2,72.4,59.2,72.4,59.2L72.4,59.2C72.4,59.2,72.4,59.2,72.4,59.2L72.4,59.2z"/>
	<path class="st0" d="M44.8,164c0.3,0.3,2.7,2.6,2.7,2.6l0.8-0.8l-4.3-4.1l-0.2,0.2l-6.8,7.1l1.7,1.6c0,0,2.9-3,3.2-3.4
		c0.3,0.3,2.4,2.3,2.4,2.3l0.8-0.8c0,0-2.1-2-2.4-2.3C42.8,166,44.5,164.3,44.8,164z"/>
	<path class="st0" d="M55.2,170.8c-1.1-0.8-2.4-1.1-3.6-0.9c-1.4,0.2-2.6,1-3.5,2.3c-0.9,1.2-1.2,2.7-1,4.1c0.2,1.3,0.9,2.4,2,3.2
		c1.1,0.8,2.4,1.1,3.6,0.9c1.4-0.2,2.6-1,3.5-2.3c0.7-1,1.1-2.1,1.1-3.2c0-0.3,0-0.6-0.1-0.8C57,172.7,56.2,171.6,55.2,170.8z
		 M54.2,176.6c-0.7,1-2.6,3.3-4.5,1.9c-1.9-1.3-0.4-3.9,0.3-4.9c0.7-1,2.6-3.3,4.5-1.9C56.4,173.1,54.9,175.6,54.2,176.6z"/>
	<path class="st0" d="M66.1,177.4c-2.5-1.3-5.5-0.2-6.9,2.5c-0.7,1.4-0.8,2.8-0.4,4.2c0.4,1.2,1.3,2.2,2.5,2.8
		c1.2,0.6,2.5,0.7,3.7,0.3c1.3-0.4,2.4-1.4,3.1-2.8C69.6,181.7,68.7,178.7,66.1,177.4z M66,183.3c-0.4,0.8-1.3,2.3-2.6,2.7
		c-0.5,0.2-1.1,0.1-1.6-0.2c-2.1-1-1-3.8-0.4-4.9c0.6-1.1,2.1-3.6,4.2-2.6c0.5,0.3,0.9,0.7,1.1,1.2C67.1,180.9,66.5,182.5,66,183.3z
		"/>
	<path class="st0" d="M73.3,181.3l-0.3,0.8c0,0,1.4,0.5,1.8,0.6c-0.2,0.5-3,8.4-3,8.4l2.2,0.8c0,0,2.8-8,3-8.4
		c0.4,0.1,1.8,0.6,1.8,0.6l0.4-1.1l-5.8-2L73.3,181.3z"/>
	<path class="st0" d="M87.4,185.1L87.4,185.1l-4.1-0.9l-0.1,0.3l-2,9.6l4.2,0.9c1.1,0.2,2,0.1,2.7-0.3c0.6-0.4,1-1,1.2-1.8
		c0-0.2,0.1-0.4,0.1-0.6c0-0.8-0.4-1.6-1.2-2.1c0.9-0.2,1.5-0.9,1.7-1.8c0-0.1,0.1-0.3,0.1-0.5C89.8,186.9,89.3,185.5,87.4,185.1z
		 M86.9,192.4c-0.1,0.6-0.3,0.9-0.7,1.1c-0.3,0.2-0.8,0.3-1.5,0.1c0,0-0.8-0.2-1.2-0.2c0.1-0.4,0.6-3.1,0.7-3.5
		c0.3,0.1,1.2,0.3,1.2,0.3h0c1.2,0.2,1.4,1.2,1.4,1.7C87,192.2,86.9,192.4,86.9,192.4z M87.5,188c-0.3,1.3-1.3,1.3-1.9,1.1
		c0,0-0.6-0.1-1-0.2c0.1-0.4,0.6-2.7,0.6-3.1c0.3,0.1,0.7,0.1,0.7,0.1v0c0.7,0.1,1.2,0.4,1.4,0.8c0.1,0.2,0.2,0.5,0.2,0.8
		C87.6,187.6,87.5,187.8,87.5,188z"/>
	<path class="st0" d="M97.2,186.4l-4.8,9.9l1.4,0.1c0,0,1-2.1,1.2-2.4c0.3,0,2.6,0.2,2.9,0.2c0.1,0.3,0.8,2.6,0.8,2.6l2.4,0.2
		l-3.6-11.1L97.2,186.4z M95.5,192.8c0.2-0.4,0.9-1.8,1.2-2.5c0.2,0.7,0.7,2.2,0.8,2.6C97.1,193,96,192.9,95.5,192.8z"/>
	<path class="st0" d="M107.8,195.5L107.8,195.5c0-0.5-0.4-8.8-0.4-8.8l-0.2,0l-2.1,0.1l0.4,10.1l6.1-0.3l-0.1-1.3
		C111.6,195.4,108.2,195.5,107.8,195.5z"/>
	<path class="st0" d="M118.4,194.5L118.4,194.5c-0.1-0.5-1.4-8.7-1.4-8.7l-0.2,0l-2,0.3l1.6,10l6.1-1l-0.2-1.2
		C122.2,193.9,118.8,194.4,118.4,194.5z"/>
	<path class="st0" d="M141.7,185.9L141.7,185.9c0,1.3-0.8,2.4-2,2.9c-0.7,0.3-1.4,0.3-2.1,0c-0.9-0.4-1.8-1.3-2.3-2.6
		c-0.6-1.4-0.7-2.6-0.3-3.6c0.3-0.7,0.9-1.2,1.7-1.6c1.1-0.4,2.1,0.1,3,0.6l0.2,0.1l0.6-1l-0.2-0.1c-1.3-0.9-3-1.1-4.4-0.5
		c-1.3,0.5-2.4,1.5-2.9,2.8c-0.6,1.3-0.6,2.8,0,4.2c1.1,2.7,4.1,4,6.7,2.9c1.9-0.8,2.9-2.2,3.1-4.1l0-0.3l-1.2-0.1L141.7,185.9z"/>
	<path class="st0" d="M149.6,183.8c-0.2-0.4-4.3-7.7-4.3-7.7l-0.2,0.1l-1.8,1l4.9,8.8l5.4-3l-0.6-1.1
		C153,181.9,150,183.5,149.6,183.8z"/>
	<path class="st0" d="M157.2,168.2l-0.2,0.2l-0.8,0.6l4.3,5.8c0.3,0.4,0.4,0.8,0.3,1.2c-0.1,0.7-0.7,1.2-1,1.4
		c-0.3,0.2-0.9,0.4-1.4,0.3c-0.4-0.1-0.8-0.3-1.1-0.7l-4.2-5.7l-1.9,1.4l4.2,5.7c0.6,0.8,1.2,1.2,2,1.3c1.2,0.2,2.4-0.5,3-0.9
		c2-1.5,2-3.3,1.2-4.5L157.2,168.2z"/>
	<path class="st0" d="M168.1,164.7c0.1-0.2,0.1-0.5,0.1-0.7c0-0.6-0.2-1.2-0.7-1.7c-0.6-0.7-2.3-1.5-4,0.2l-3,2.9l7,7.2l3.1-3
		c0.8-0.8,1.2-1.6,1.2-2.4c0-0.7-0.3-1.4-0.8-2C170.1,164.5,169.1,164.3,168.1,164.7z M165,166.9c-0.3-0.3-1.9-2-2.2-2.3
		c0.2-0.2,0.5-0.5,0.5-0.5c0.9-0.9,1.8-1,2.5-0.2c0.4,0.4,0.5,0.7,0.5,1c0,0.5-0.3,0.9-0.6,1.2C165.8,166.2,165.3,166.6,165,166.9z
		 M169.9,168.1c0,0.4-0.2,0.9-0.7,1.3c0,0-0.6,0.6-0.8,0.8c-0.3-0.3-2.2-2.3-2.5-2.6c0.3-0.2,0.9-0.9,0.9-0.9
		c1.2-1.2,2.5,0.1,2.5,0.1C169.7,167.3,169.9,167.7,169.9,168.1C169.9,168.1,169.9,168.1,169.9,168.1z"/>
	<path class="st0" d="M54.8,46.4c2.8-2.5,3.7-5.5,2.8-8.9L57.5,37l-2.2,0.6l0.2,0.5c0.7,2.2,0.1,4.6-1.7,6.1c-1,0.9-2.2,1.3-3.5,1.2
		c-1.8-0.1-3.8-1.2-5.4-3c-1.8-2.1-2.7-4.1-2.6-5.9c0.1-1.4,0.8-2.6,2-3.7c1.6-1.4,3.6-1.1,5.4-0.8l0.5,0.1l0.5-2.1l-0.5-0.1
		c-2.8-0.7-5.7,0-7.8,1.8c-4.1,3.6-4.5,9.5-0.8,13.8C45,49.3,51,49.8,54.8,46.4z"/>
	<path class="st0" d="M69,36.2c0,0-3.2-6.7-3.6-7.5c0.7-0.3,4.8-2.2,5.5-2.6c0.4,0.8,3.6,7.5,3.6,7.5l3.9-1.8l-7.8-16.6l-0.5,0.2
		L66.7,17c0,0,2.9,6.1,3.2,6.9c-0.7,0.3-4.8,2.3-5.5,2.6c-0.4-0.8-3.2-6.9-3.2-6.9l-3.9,1.8L65.2,38L69,36.2z"/>
	<path class="st0" d="M95.5,27.8l-0.4-2.1c0,0-6.1,1.2-6.9,1.4C88,26.3,87.1,21.8,87,21c0.8-0.2,6.4-1.3,6.4-1.3L93,17.6
		c0,0-5.6,1.1-6.4,1.3c-0.2-0.8-1-4.8-1.1-5.5c0.9-0.2,6.8-1.4,6.8-1.4l-0.4-2.1l-11,2.2L84.4,30L95.5,27.8z"/>
	<path class="st0" d="M113.1,25.3c0,0-6.1-0.1-6.9-0.1c0-0.9,0.3-15.9,0.3-15.9l0,0l-4.3-0.1l0,0.5l-0.4,17.8l11.2,0.2L113.1,25.3z"
		/>
	<path class="st0" d="M125.4,27.5c-0.6,0.4-1.4,0.5-2,0.3c-1.3-0.3-2-1.1-2.6-2.7l-0.2-0.5l-2.3,0.9l0.1,0.4c0.7,2.2,2.3,3.6,5,4.3
		c3,0.7,6.5-0.6,7.4-4.1c0.9-3.7-1.5-5.5-3.5-6.9c-1.7-1.2-2.7-2-2.3-3.4c0.3-1.2,1.3-2.3,2.9-1.9c1.4,0.3,2.1,1.2,2.5,2.9l0.1,0.6
		l2.2-0.8l-0.1-0.4c-0.4-2.2-2.3-4.1-4.7-4.7c-1.7-0.4-3.4-0.2-4.8,0.6c-1.2,0.7-2.1,1.9-2.5,3.3c-0.9,3.5,1.4,5.1,3.2,6.4
		c1.9,1.3,3,2.2,2.5,4.1C126.3,26.8,125.8,27.3,125.4,27.5z"/>
	<path class="st0" d="M146.1,36.7c0,0-5.5-2.8-6.3-3.2c0.4-0.7,2.4-4.8,2.8-5.6c0.8,0.4,5.9,3,5.9,3l1-1.9c0,0-5.1-2.6-5.9-3
		c0.4-0.7,2.2-4.3,2.5-5c0.8,0.4,6.2,3.1,6.2,3.1l1-1.9l-10-5.1l-0.2,0.5l-8,15.9l10.1,5.1L146.1,36.7z"/>
	<path class="st0" d="M151.4,42.9c0,0,3.7-2,4.3-2.3c0.4,0.4,3.5,3.1,4,3.5c-0.2,0.6-1.6,4.6-1.6,4.6l3.3,2.9l6.8-20.1l-1.2,0.5
		l-17.6,9.1L151.4,42.9z M162,37.4c-0.5,1.4-1.3,3.7-1.6,4.5c-0.7-0.6-2-1.7-2.7-2.3C158.6,39.2,160.7,38.1,162,37.4z"/>
	<path class="st0" d="M122,62.8l0.4-0.6c-1.8-0.2-1.7-2.2-1.7-2.2h-2.5C117.2,61.6,122,62.8,122,62.8z"/>
	<path class="st0" d="M123.2,61.3l0.9-1.2l-1.7-0.1C122,61.7,123.2,61.3,123.2,61.3z"/>
	<path class="st0" d="M31.3,124.4l-0.1-0.4c-0.2-1.3-0.5-3.7-2.4-4.2c-0.5-0.1-1-0.1-1.6,0.2c0.2-0.6,0.1-1.1,0-1.6
		c-0.7-1.8-3.1-1.8-4.5-1.8h-0.4l-0.4-0.1c-1.3-0.2-3.7-0.7-4.7,1c-0.3,0.4-0.4,1-0.3,1.5c-0.5-0.3-1-0.5-1.5-0.4
		c-1.9,0.1-2.7,2.4-3.1,3.7l-0.1,0.4l-0.2,0.3c-0.6,1.2-1.8,3.3-0.5,4.8c0.3,0.4,0.8,0.7,1.4,0.8c-0.5,0.4-0.8,0.8-0.9,1.3
		c-0.5,1.9,1.5,3.3,2.6,4l0.3,0.2l0.3,0.3c0.9,1,2.6,2.7,4.4,2c0.5-0.2,0.9-0.6,1.2-1.1c0.2,0.6,0.5,1,1,1.3c1.6,1,3.6-0.4,4.6-1.2
		l0.3-0.2l0.3-0.2c1.2-0.6,3.4-1.6,3.2-3.5c0-0.5-0.3-1-0.6-1.4c0.6,0,1.1-0.2,1.5-0.5c1.5-1.2,0.7-3.5,0.3-4.8L31.3,124.4z
		 M22.3,117.7c1,0.1,7.7-0.8,1.1,5.8c-0.3-0.2-0.6-0.3-0.9-0.4c-0.2-1.2-0.3-2.4-0.3-2.4l-0.3,0c0,0-0.4,1.2-0.7,2.3
		c-0.3,0-0.6,0.1-0.9,0.2C14.9,115.7,21.3,117.7,22.3,117.7z M13.4,123.1c0.4-0.9,1.7-7.5,5.8,0.7c-0.3,0.3-0.6,0.6-0.8,0.9
		c-1.2-0.2-2.5-0.4-2.5-0.4l-0.1,0.2c0,0,1.1,0.8,2.1,1.5c0,0.1,0,0.2-0.1,0.3c0,0.2,0,0.3,0,0.5C9.1,129.5,13,124,13.4,123.1z
		 M15.7,133.3c-0.7-0.6-6.6-3.9,2.3-5.3c0.1,0.4,0.3,0.7,0.6,1c-0.6,1.1-1.3,2.4-1.3,2.4l0.2,0.2c0,0,1.2-0.9,2.2-1.6
		c0.3,0.1,0.6,0.2,0.9,0.3C20.4,139.3,16.4,134,15.7,133.3z M19.8,128.1c-0.4-0.5-0.6-1-0.5-1.6c0.1-1.2,1.2-2.1,2.4-2
		c0.6,0,1.1,0.3,1.5,0.8c0.4,0.5,0.6,1,0.5,1.6c-0.1,1.2-1.2,2.1-2.4,2C20.7,128.9,20.2,128.6,19.8,128.1z M26.1,134.2
		c-0.8,0.5-5.7,5-4.3-3.8c0.3,0,0.6-0.1,0.8-0.2c0.9,0.9,1.9,2,1.9,2l0.2-0.1c0,0-0.4-1.4-0.8-2.6c0.3-0.3,0.6-0.6,0.8-0.9
		C33.3,131.6,27,133.7,26.1,134.2z M25.2,127.5c0-0.1,0.1-0.3,0.1-0.4c0-0.1,0-0.2,0-0.3l0,0c1.1-0.5,2.3-1.1,2.3-1.1l-0.1-0.3
		c0,0-1.3,0-2.5,0c-0.1-0.4-0.3-0.7-0.6-1.1c0,0,0,0,0,0c5.5-7.4,5.6-0.7,5.8,0.3C30.4,125.6,33.3,131.6,25.2,127.5z"/>
	<path class="st0" d="M198.4,123L198.4,123l-0.2-0.3l-0.1-0.4c-0.4-1.3-1.1-3.6-3.1-3.7c-0.5,0-1,0.1-1.5,0.4c0-0.6-0.1-1.1-0.3-1.5
		c-1-1.7-3.4-1.2-4.7-1l-0.4,0.1h-0.4c-1.3,0-3.8,0-4.5,1.8c-0.2,0.5-0.2,1-0.1,1.6c-0.5-0.2-1.1-0.3-1.6-0.2
		c-1.9,0.4-2.2,2.9-2.4,4.2l-0.1,0.4l-0.1,0.4c-0.4,1.2-1.2,3.6,0.3,4.8c0.4,0.3,0.9,0.5,1.5,0.5c-0.4,0.5-0.6,0.9-0.6,1.4
		c-0.2,1.9,2,3,3.2,3.5l0.3,0.2l0.3,0.2c1.1,0.8,3,2.2,4.6,1.2c0.4-0.3,0.8-0.7,1-1.3c0.3,0.5,0.7,0.9,1.2,1.1c1.8,0.8,3.5-1,4.4-2
		l0.3-0.3l0.3-0.2c1.1-0.8,3.1-2.2,2.6-4c-0.1-0.5-0.4-0.9-0.9-1.3c0.6-0.1,1-0.4,1.4-0.8C200.2,126.3,199,124.2,198.4,123z
		 M188.2,117.7c1-0.1,7.4-2.1,2.1,5.5c-0.3-0.1-0.6-0.2-0.9-0.2c-0.4-1.1-0.8-2.3-0.8-2.3l-0.3,0c0,0-0.2,1.2-0.3,2.4
		c-0.3,0.1-0.6,0.2-0.9,0.4C180.5,117,187.2,117.8,188.2,117.7z M180.3,124.6c0.2-1,0.3-7.7,5.8-0.3c0,0,0,0,0,0
		c-0.3,0.3-0.5,0.7-0.6,1.1c-1.2,0-2.5,0-2.5,0l-0.1,0.3c0,0,1.2,0.6,2.3,1.1c0,0.1,0,0.2,0,0.3c0,0.1,0.1,0.3,0.1,0.4
		C177.2,131.6,180.1,125.6,180.3,124.6z M184.4,134.2c-0.8-0.5-7.2-2.7,1.4-5.6c0.2,0.3,0.5,0.7,0.8,0.9c-0.4,1.2-0.8,2.6-0.8,2.6
		l0.2,0.1c0,0,1-1,1.9-2c0.3,0.1,0.6,0.1,0.8,0.2C190.1,139.3,185.2,134.7,184.4,134.2z M189.2,128.9c-1.2,0.1-2.3-0.8-2.4-2
		c-0.1-0.6,0.1-1.2,0.5-1.6c0.4-0.5,0.9-0.7,1.5-0.8c1.2-0.1,2.3,0.8,2.4,2c0,0.6-0.1,1.2-0.5,1.6
		C190.3,128.6,189.8,128.9,189.2,128.9z M194.8,133.3c-0.7,0.6-4.7,6-4.9-3c0.3-0.1,0.6-0.2,0.9-0.3c1,0.8,2.2,1.6,2.2,1.6l0.2-0.2
		c0,0-0.7-1.3-1.3-2.4c0.3-0.3,0.4-0.7,0.6-1C201.4,129.5,195.6,132.7,194.8,133.3z M192.8,126.9c0-0.2,0-0.3,0-0.5l0,0
		c0-0.1,0-0.2-0.1-0.3c1-0.7,2.1-1.5,2.1-1.5l-0.1-0.2c0,0-1.3,0.2-2.5,0.4c-0.2-0.4-0.5-0.7-0.8-0.9c4.2-8.2,5.4-1.6,5.8-0.7
		C197.5,124,201.4,129.5,192.8,126.9z"/>
	<path class="st0" d="M19.7,92.1c5.3,0.9,10.3-2.6,11.2-7.9C31.8,79,28.3,73.9,23,73c-5.3-0.9-10.3,2.6-11.2,7.9
		C10.9,86.1,14.4,91.1,19.7,92.1z M16.8,89.7c-0.3-0.5-0.6-1.1-0.8-1.7c0.6,0.3,1.2,0.5,1.8,0.7c0.2,0.8,0.7,1.4,1.1,2
		C18.1,90.4,17.4,90.1,16.8,89.7z M20.3,91c-0.7-0.5-1.3-1.1-1.7-2c0.8,0.2,1.6,0.5,2.3,0.6l0.8,0.2c0,0,0.5,0.6,1.1,1.1
		C22,91.1,21.1,91.1,20.3,91z M22.2,89.3l1.2-3l0.3-0.7c0,0,0.5-1.2,0.6-1.5c0.1-0.2,0.2-0.4,0.3-0.7c0.3-0.7,0.7-1.6,1.3-2.9v0
		c0.5,0,1-0.1,1.5,0c-0.1,4.5-2.3,7.9-4,9.9C23,90.1,22.6,89.8,22.2,89.3z M29.7,84c-0.6,3.1-2.8,5.6-5.6,6.6c1.8-2.1,3.9-5.6,4-10
		c0.6,0.1,1.1,0.2,1.6,0.3C29.9,81.9,29.9,82.9,29.7,84z M29.5,80.1c-0.4-0.1-0.9-0.2-1.4-0.2c-0.2,0-0.5,0-0.7,0
		c-0.5,0-1,0-1.6,0.1l-2.7-1.8c2-1,4.2-0.3,5.7,0.3C29.1,78.9,29.3,79.5,29.5,80.1z M25.9,75.3c0.9,0.5,1.6,1.2,2.2,2
		c-1.6-0.6-3.8-0.9-5.7,0.2c-0.7-0.5-1.4-0.9-2-1.3C22.2,75,24.3,75,25.9,75.3z M22.8,74.2c0.4,0.1,0.7,0.2,1.1,0.3
		c-1.4,0-2.9,0.4-4.1,1.5v0c-0.8-0.4-1.6-0.7-2.5-0.9C19,74.2,20.9,73.8,22.8,74.2z M16.4,75.6c1,0.1,1.9,0.4,2.9,0.8
		c0.2,0.1,0.4,0.2,0.7,0.4c0.6,0.3,1.2,0.7,1.9,1.2c0.2,0.1,0.4,0.3,0.6,0.4c0,0,1.6,1.1,2.4,1.6c0.2,0.1,0.3,0.2,0.4,0.3v0
		c-0.1,0.1-1,2.1-1.3,2.8c-4.9-3-7.2-4.4-9.6-5.3C14.9,76.9,15.6,76.2,16.4,75.6z M13.9,78.4c2.4,0.9,4.7,2.2,9.8,5.3
		c-0.2,0.4-0.6,1.5-0.7,1.8c-4.8-1.2-8.5-3-9.9-4.9C13.3,79.8,13.6,79.1,13.9,78.4z M13.1,84.4c-0.2-0.9-0.3-1.9-0.1-2.9
		c1.9,2.1,6,3.7,9.8,4.7C22.4,87,21.6,89,21.6,89c-0.2,0-2.3-0.6-3.3-0.9C18,88,17.8,88,17.5,87.9c-0.6-0.2-1.2-0.5-1.8-0.8
		c-0.3-0.2-0.5-0.3-0.8-0.5C14.1,86,13.5,85.3,13.1,84.4z M15.1,87.5c0.1,0.4,0.2,0.8,0.3,1.1c-0.6-0.6-1.1-1.2-1.5-1.9
		C14.3,87,14.7,87.3,15.1,87.5z"/>
	<path class="st0" d="M189.8,92.1c5.3-0.9,8.8-6,7.9-11.2c-0.9-5.3-6-8.8-11.2-7.9c-5.3,0.9-8.8,6-7.9,11.2
		C179.5,89.5,184.5,93,189.8,92.1z M184.9,83.5c0.1,0.2,0.2,0.4,0.3,0.7c0.2,0.4,0.6,1.5,0.6,1.5l0.3,0.7l1.2,3
		c-0.3,0.4-0.7,0.8-1.1,1.1c-1.8-2-4-5.4-4-9.9c0.4,0,0.9,0,1.5,0v0C184.2,81.9,184.6,82.7,184.9,83.5z M189.2,91
		c-0.9,0.1-1.7,0.1-2.6,0c0.6-0.5,1.1-1.1,1.1-1.1l0.8-0.2c0.7-0.2,1.5-0.4,2.3-0.6C190.5,89.8,189.9,90.5,189.2,91z M192.7,89.7
		c-0.6,0.4-1.3,0.7-2.1,1c0.5-0.5,0.9-1.2,1.1-2h0c0.6-0.2,1.2-0.4,1.8-0.7C193.3,88.6,193,89.2,192.7,89.7z M194.1,88.6
		c0.1-0.4,0.3-0.7,0.3-1.1c0.4-0.2,0.8-0.5,1.1-0.8C195.1,87.4,194.6,88,194.1,88.6z M196.4,84.4c-0.4,0.9-1.1,1.6-1.9,2.2
		c-0.2,0.2-0.5,0.3-0.8,0.5c-0.5,0.3-1.1,0.6-1.8,0.8c-0.3,0.1-0.5,0.2-0.8,0.3c-0.9,0.3-3.1,0.9-3.3,0.9c0-0.1-0.8-2.1-1.1-2.8
		c3.7-0.9,7.8-2.5,9.8-4.7C196.7,82.5,196.6,83.5,196.4,84.4z M196.4,80.6c-1.4,1.9-5.1,3.7-9.9,4.9c-0.1-0.2-0.5-1.3-0.7-1.8
		c5-3.1,7.3-4.5,9.7-5.3C195.9,79.1,196.2,79.8,196.4,80.6z M195.2,77.8c-2.4,0.9-4.7,2.3-9.6,5.3c-0.3-0.6-1.2-2.6-1.3-2.8v0
		c0.1-0.1,0.2-0.1,0.4-0.3c0.8-0.5,2.3-1.6,2.4-1.6c0.2-0.1,0.4-0.3,0.6-0.4c0.7-0.5,1.3-0.9,1.9-1.2c0.2-0.1,0.4-0.2,0.7-0.4
		c0.9-0.5,1.8-0.7,2.9-0.8C193.9,76.2,194.6,76.9,195.2,77.8z M186.6,74.2c2-0.3,3.9,0,5.5,0.9c-0.9,0.2-1.7,0.5-2.5,0.9v0
		c-1.3-1.1-2.8-1.5-4.1-1.5C185.9,74.3,186.3,74.2,186.6,74.2z M183.6,75.3c1.6-0.3,3.7-0.4,5.4,1c-0.6,0.4-1.3,0.8-2,1.3
		c-1.9-1.1-4-0.8-5.7-0.2C182,76.6,182.7,75.9,183.6,75.3z M180.7,78.4c1.5-0.7,3.7-1.3,5.7-0.3l-2.7,1.8c-0.6-0.1-1.1-0.1-1.6-0.1
		c-0.3,0-0.5,0-0.7,0c-0.5,0-1,0.1-1.4,0.2C180.2,79.5,180.4,78.9,180.7,78.4z M179.8,80.9c0.4-0.1,1-0.3,1.6-0.3
		c0.1,4.4,2.2,7.9,4,10c-2.8-1-5.1-3.4-5.6-6.6C179.5,82.9,179.6,81.9,179.8,80.9z"/>
</g>
</svg>
