<?xml version="1.0" encoding="utf-8"?>
<!-- Generator: Adobe Illustrator 24.0.1, SVG Export Plug-In . SVG Version: 6.00 Build 0)  -->
<svg version="1.1"
	 id="svg3341" inkscape:version="0.48.5 r10040" sodipodi:docname="premier-league-handbook-2014-15.pdf" xmlns:cc="http://creativecommons.org/ns#" xmlns:dc="http://purl.org/dc/elements/1.1/" xmlns:inkscape="http://www.inkscape.org/namespaces/inkscape" xmlns:rdf="http://www.w3.org/1999/02/22-rdf-syntax-ns#" xmlns:sodipodi="http://sodipodi.sourceforge.net/DTD/sodipodi-0.dtd" xmlns:svg="http://www.w3.org/2000/svg"
	 xmlns="http://www.w3.org/2000/svg" xmlns:xlink="http://www.w3.org/1999/xlink" x="0px" y="0px" viewBox="0 0 312 319"
	 style="enable-background:new 0 0 312 319;" xml:space="preserve">
<style type="text/css">
	.st0{fill:#FFFFFF;}
</style>
<g>
	<path class="st0" d="M174.8,233.2c1.7-1,3.4-2.2,3.4-4.5c0-2.5-2.2-4.4-5-4.4c-3,0-5.3,2.2-5.3,4.9c0,2.3,1.6,3.6,3.1,4.6
		c-2.5,1.4-4,2.8-4,5.3c0,2.9,2.3,4.9,5.6,4.9c3.7,0,6.3-2.3,6.3-5.5C178.7,235.8,176.9,234.4,174.8,233.2z M170.2,228.7
		c0-1.6,1.2-2.8,2.8-2.8c1.7,0,2.9,1.3,2.9,2.9c0,1.9-1.4,2.8-2.7,3.6C171.5,231.4,170.2,230.4,170.2,228.7z M172.6,242.3
		c-2,0-3.5-1.4-3.5-3.4c0-1.7,1.1-3.2,3.3-4.3c2.5,1.4,3.8,2.4,3.8,4.3C176.2,240.8,174.6,242.3,172.6,242.3z"/>
	<path class="st0" d="M167,226.7L167,226.7c-0.1-0.3-0.3-1.5-0.3-1.7v-0.2l-0.2,0.1c-0.8,0-1.2,0-2,0h-6.7c-0.8,0-1.5,0-2.2,0h-0.1
		v0.1c-0.1,0.5-0.4,2-0.7,2.8l-0.1,0.1l0.4,0.2l0.1-0.1c1-0.7,2.1-0.8,3-0.8h5.8l-9.2,15.8l0.2,0.5h0.1c1.3-0.1,3.4-0.1,3.4-0.1h0.1
		l0.1-0.1c0.2-2.5,1.1-4.9,3.5-9.2C163.8,231.3,165.5,228.3,167,226.7L167,226.7z"/>
	<path class="st0" d="M181.8,185.6c-1.3,0.3-2.6,0.4-3.8,0.4h-3.5c0.1-4.4,0.4-6.1,0.5-6.7c0.1-0.5-0.2-1-0.7-0.7
		c-1.4,0.8-4.6,2.3-6.3,2.8c0.1,1.5,0.2,2.5,0.2,4.5c-1.2,0-2.4-0.1-3-0.1c-0.2,0.8-0.9,3.1-0.9,3.2c-0.2,0.5,0.2,0.5,0.3,0.5
		c0.7-0.1,2.1-0.3,3.4-0.3c0.1,1.7,0.1,3.5,0.1,5.9v7.6c0,6.1,2.8,7.9,7.1,7.9c1.6,0,2.8-0.2,5.8-1c0.3-1.3,0.6-2.3,0.9-3.4
		c0.2-0.7-0.3-0.7-0.5-0.6c-1.3,0.7-2.2,0.9-3.2,0.9c-3.3,0-3.7-2.8-3.7-6.6v-5.6c0-1.4,0.1-3.4,0.1-5.1h2.2c1.3,0,2.5,0.1,4.4,0.2
		c0.3-0.8,0.8-2.9,1-3.6h0C182.3,185.7,182.1,185.6,181.8,185.6z"/>
	<path class="st0" d="M192.9,53.6c-0.1,1.3,0.5,3,1.7,4.6c1.1,1.5,2.6,2.5,3.7,2.7c0.1-1.4-0.5-3.1-1.7-4.6
		C195.5,54.8,194.1,53.8,192.9,53.6z"/>
	<path class="st0" d="M200.6,53.4c0.8-1.5,1.2-3.1,1-4.3c-1.1,0.4-2.2,1.4-3.1,2.9c-0.8,1.5-1.1,3.1-1,4.3
		C198.6,56,199.8,54.9,200.6,53.4z"/>
	<path class="st0" d="M196.2,185.2c-8.8,0-13.4,5.6-13.4,13.3c0,7.8,4.6,12.3,12.3,12.3c8.2,0,13.4-5.2,13.4-13.6
		C208.4,189.6,204,185.2,196.2,185.2z M195.6,208.1c-3.8,0-5.8-3.7-5.8-10.6c0-5.8,1.6-9.5,5.6-9.5c3.8,0,6,3.7,6,10.6
		C201.4,204.8,199.4,208.1,195.6,208.1z"/>
	<path class="st0" d="M138.4,238.5v-9.2c0-1,0.1-2.8,0.3-4.4l0.1-0.1l-0.4-0.3h-0.1c-0.5,0.2-1.1,0.3-1.6,0.4l-2.8,0.6
		c-0.8,0.2-1.3,0.2-2,0.3h-0.1l-0.1,0.1c-0.1,0.5-0.4,1.1-0.5,1.5l-0.1,0.1l0.4,0.3h0.1c0.3-0.2,0.5-0.2,1-0.4l1.3-0.3
		c0.4-0.1,0.8-0.1,1-0.1c0.8,0,1,0.2,1,2.6v8.5c0,1.7-0.1,3.2-0.3,4.7l-0.1,0.2h0.2c0.6-0.1,1.1-0.1,1.6-0.1c0.6,0,1.2,0.1,1.5,0.1
		h0.2l-0.1-0.2C138.6,241.8,138.4,240.3,138.4,238.5z"/>
	<path class="st0" d="M142.6,209.4c0.4-1.4,0.5-1.9,1-3.6c0.2-0.8-0.2-1-0.7-0.7c-1.7,1.1-3,1.6-5.1,1.6c-5.3,0-8.4-3.4-8.5-9.2
		c1.6-0.1,5.2-0.1,7.8-0.1h6.2c0.9,0,0.9-2.2,0.9-2.6c0-5.9-3.8-9.5-9.9-9.5c-7,0-11.9,5.3-11.9,13c0,7.6,4.8,12.7,12.4,12.7
		C137.5,210.9,140.4,210.2,142.6,209.4z M134,188.1c2.2,0,3.9,1.7,3.9,4c0,1.6-0.8,2.2-2.9,2.2l-5.6,0.2
		C129.6,190.4,130.9,188.1,134,188.1z"/>
	<path class="st0" d="M201.6,65.5c0.7-1.1,0.9-2.9,0.6-4.9c-0.2-1.9-1-3.5-2-4.4c-0.7,1.1-0.9,2.9-0.6,4.9
		C199.8,63.1,200.6,64.7,201.6,65.5z"/>
	<path class="st0" d="M231.8,43.3c0.1-1.3-0.3-3.1-1.3-4.7c-1-1.6-2.3-2.7-3.5-3.1c-0.1,1.4,0.3,3.2,1.3,4.7
		C229.3,42,230.6,43,231.8,43.3z"/>
	<path class="st0" d="M149.3,232.8c1.7-1,3.4-2.2,3.4-4.5c0-2.5-2.1-4.4-5-4.4c-3.1,0-5.4,2.1-5.4,4.9c0,2.3,1.6,3.6,3.1,4.5
		c-2.5,1.5-4,2.9-4,5.3c0,2.8,2.3,4.9,5.6,4.9c3.7,0,6.3-2.3,6.3-5.5C153.2,235.4,151.4,234,149.3,232.8z M144.7,228.3
		c0-1.6,1.3-2.8,2.9-2.8c1.7,0,2.9,1.3,2.9,2.9c0,1.9-1.4,2.8-2.7,3.6C146.1,231,144.7,230,144.7,228.3z M147.1,241.9
		c-2,0-3.5-1.4-3.5-3.4c0-1.7,1.1-3.2,3.3-4.3c2.5,1.4,3.8,2.4,3.8,4.3S149.2,241.9,147.1,241.9z"/>
	<path class="st0" d="M154.7,193.3c0.8-1.4,2-2.2,3.4-2.2c1.1,0,1.3,0.4,2.3,1.4c0.4,0.5,0.7,0.1,0.8-0.2c0.4-1.6,1.1-4.2,1.9-6.7
		c-0.9-0.4-1.3-0.5-2.2-0.5c-2.3,0-3.9,0.9-6.1,3.9l-1.8,2.3l0.1-5.7c-2,0.1-4.9,0.2-6.8,0.2c0.8,2.6,1,7,1,9.3v6
		c0,3.5-0.1,6-0.6,8.8c1,0,2.5-0.1,4.1-0.1c1.5,0,3.1,0.1,3.9,0.1c-0.7-2.1-1-3.9-1-8.2v-4C153.7,195.4,154,194.5,154.7,193.3z"/>
	<path class="st0" d="M84.3,73.4c-0.8-1-2.2-1.9-4-2.3c-1.7-0.4-3.4-0.1-4.4,0.7c0.8,1,2.2,1.9,4,2.3C81.6,74.4,83.2,74.1,84.3,73.4
		z"/>
	<path class="st0" d="M99.4,203.9c-3.3,2.5-5,2.5-8,2.5c-5.4,0-5.9-1.5-5.9-6v-7h3.5c2.2,0,3.9,0.1,7.1,0.4c0.3-1.1,0.8-2.9,1.1-4.3
		c0,0,0.1-0.4-0.4-0.4c-1.2,0.2-4.2,0.4-7.2,0.4h-4.1v-5c0-2.2,0.1-4.5,0.2-5.3c1.3,0,2.3-0.1,3.2-0.1c2.8,0,5.8,0.2,7.3,2.5
		c0.1,0.1,0.6,0.8,0.8-0.1c0.3-1,1-3.4,1.6-5.8c-3.6,0-4.9,0.1-8.2,0.1h-9.2c-1.2,0-2.4,0-4-0.1c0.8,2.2,1,7,1,9.5v15.4
		c0,3.7-0.3,6.7-0.7,9.3c2.2,0,4.9,0,8.9,0c3.2,0,6.9,0,12.4,0.2c0.1-0.4,1.1-4.1,1.5-5.3C100.7,203.7,100,203.5,99.4,203.9z"/>
	<path class="st0" d="M236.5,54.6c1.1-0.5,2.3-1.7,3.1-3.5c0.9-1.7,1.1-3.5,0.8-4.9c-1.1,0.5-2.3,1.7-3.2,3.5
		C236.4,51.5,236.2,53.3,236.5,54.6z"/>
	<path class="st0" d="M236.8,60.8c-1.6,1-2.6,2.4-3,3.7c1.1,0.2,2.8-0.1,4.3-1.1c1.6-1,2.6-2.3,3-3.7
		C240,59.5,238.3,59.9,236.8,60.8z"/>
	<path class="st0" d="M235.6,50.9c0.9-0.8,1.7-2.5,2-4.4c0.3-2,0-3.8-0.6-4.9c-1,0.8-1.7,2.5-2,4.4C234.7,48,235,49.8,235.6,50.9z"
		/>
	<path class="st0" d="M195.3,65.5c0.4,1.3,1.4,2.6,3,3.6c1.6,1,3.2,1.4,4.4,1.1c-0.4-1.3-1.5-2.6-3.1-3.6
		C198.2,65.5,196.5,65.2,195.3,65.5z"/>
	<path class="st0" d="M234.2,45.3c0.7-1,1.1-2.8,1.1-4.7c-0.1-2-0.7-3.7-1.6-4.7c-0.8,1.1-1.2,2.8-1.1,4.9
		C232.7,42.7,233.3,44.4,234.2,45.3z"/>
	<path class="st0" d="M230.6,47c1.3,1.1,2.6,1.7,3.7,1.6c-0.2-1.2-1-2.6-2.2-3.7c-1.3-1.1-2.6-1.7-3.7-1.6
		C228.6,44.5,229.3,45.9,230.6,47z"/>
	<path class="st0" d="M231.9,65.5c1-0.8,1.7-2.5,2-4.4c0.3-1.9,0-3.7-0.6-4.9c-1,0.8-1.7,2.5-2,4.4C231,62.6,231.3,64.4,231.9,65.5z
		"/>
	<path class="st0" d="M233.8,194c0-5.6-2-8.9-7.7-8.9c-2.5,0-4.5,0.9-7,2.9l-2,1.7l0.2-4.3c-2.2,0.2-5.2,0.2-7.4,0.2
		c0.8,2.6,1.1,6.3,1.1,8.8v6.1c0,3.7-0.2,6.8-0.6,9.5c0.8,0,2.4-0.1,4.1-0.1c1.6,0,3.2,0.1,4,0.1c-0.7-2.1-1-4.9-1-9.5V197
		c0-3.1,0.4-4.2,1.6-5.5c1.1-1.1,2.6-1.7,4-1.7c4.1,0,4.4,3.4,4.4,6.3v4.4c0,3.7-0.2,6.8-0.7,9.5c0.9,0,2.5-0.1,4.1-0.1
		c1.6,0,3.2,0.1,4,0.1c-0.7-2.1-1-4.9-1-9.5V194z"/>
	<path class="st0" d="M231.7,71.1c-1.7,0.4-3.2,1.3-4,2.3c1,0.7,2.7,1,4.4,0.7c1.7-0.4,3.2-1.3,3.9-2.3
		C235,71,233.4,70.7,231.7,71.1z"/>
	<path class="st0" d="M197.4,71.8c0.8,1,2.2,1.9,4,2.3c1.7,0.4,3.4,0.1,4.4-0.7c-0.7-1-2.2-1.9-3.9-2.3
		C200.1,70.7,198.5,71,197.4,71.8z"/>
	<path class="st0" d="M231.9,49.1c-0.2,1.2,0.1,2.8,1,4.3c0.8,1.5,2,2.6,3,2.9c0.2-1.2-0.1-2.8-1-4.3
		C234,50.5,232.9,49.4,231.9,49.1z"/>
	<path class="st0" d="M233.8,66.5c-1.6,1-2.6,2.3-3,3.6c1.2,0.3,2.8-0.1,4.3-1.1c1.6-1,2.6-2.3,3.1-3.6
		C237,65.2,235.3,65.5,233.8,66.5z"/>
	<path class="st0" d="M238.8,58.2c1.1-1.6,1.7-3.2,1.7-4.6c-1.2,0.2-2.6,1.1-3.7,2.6c-1.1,1.6-1.7,3.2-1.7,4.6
		C236.3,60.7,237.7,59.7,238.8,58.2z"/>
	<path class="st0" d="M230.1,69.1c0.8-1.7,1-3.6,0.7-4.9c-1.1,0.5-2.3,1.7-3.1,3.5c-0.8,1.8-1.1,3.6-0.7,4.9
		C228.1,72.1,229.3,70.8,230.1,69.1z"/>
	<path class="st0" d="M81.2,70.1c-0.4-1.3-1.4-2.6-3-3.6c-1.5-1-3.1-1.4-4.3-1.1c0.4,1.3,1.5,2.6,3,3.6
		C78.4,70.1,80.1,70.4,81.2,70.1z"/>
	<path class="st0" d="M277.6,165.4c-0.5-0.2-1.4-0.5-2.4-0.5c-0.7,0-1.5,0.2-2.4,0.5c0,0.7,0,1.4-0.1,2.2c0.8-0.5,1.7-0.8,2.5-0.8
		c0.5,0,1.1,0.1,1.6,0.4l0.1,0.1c1.2,0.6,2.1,2,2.4,3.8c0.4,2.1,0,4.6-1.1,7l-0.2,0.5c-0.2,0.6,0.1,1.3,0.7,1.6l12.7,5.6l-0.4,0.6
		c-1.5,2.1-2.3,4.1-2.7,5.7l1.7,0.7c0.4-1.6,1.3-3.7,2.8-5.8l0.3-0.5l10.9,4.9c0.5,0.2,1.3,0,1.6-0.6c0.2-0.3,1-1.5,1.6-3.1
		c0.6-1.6,1.3-4,0.6-6.1c-0.5-1.7-1.7-3-3.5-3.8l-26.6-12.2C277.7,165.5,277.6,165.4,277.6,165.4z M280.3,178c1-2.5,1.3-5.1,0.9-7.4
		c-0.1-0.1-0.1-0.3-0.1-0.5l-0.3-1.2l22.8,10.4c1.3,0.6,2.2,1.4,2.5,2.6c0.7,2.4-0.8,5.5-1.4,6.8l-0.3,0.5l-24.2-10.7L280.3,178z"/>
	<path class="st0" d="M71.5,53.6c-0.1,1.3,0.5,3,1.7,4.6c1.1,1.5,2.6,2.5,3.8,2.7c0-1.4-0.6-3.1-1.7-4.6
		C74.1,54.8,72.7,53.8,71.5,53.6z"/>
	<path class="st0" d="M79.2,53.4c0.8-1.5,1.2-3.1,1-4.3c-1,0.4-2.2,1.4-3,2.9c-0.8,1.5-1.1,3.1-1,4.3C77.2,56,78.4,54.9,79.2,53.4z"
		/>
	<path class="st0" d="M3.6,188c0,0,0-0.1-0.1-0.1c0,0,0-0.1,0-0.1c0,0,0,0.1,0,0.1C3.6,188,3.6,188,3.6,188z"/>
	<path class="st0" d="M80.1,65.5c0.7-1.1,0.9-2.9,0.6-4.9c-0.3-1.9-1.1-3.5-2-4.4c-0.7,1.1-0.9,2.9-0.7,4.9
		C78.4,63.1,79.2,64.7,80.1,65.5z"/>
	<path class="st0" d="M81.4,47c1.3-1.1,2-2.5,2.2-3.7c-1.1-0.1-2.5,0.5-3.7,1.6c-1.3,1.1-2,2.5-2.2,3.7C78.8,48.7,80.2,48.1,81.4,47
		z"/>
	<path class="st0" d="M73.8,63.4c1.6,1,3.2,1.3,4.4,1.1c-0.4-1.3-1.4-2.6-3-3.7c-1.6-1-3.2-1.3-4.4-1.1
		C71.2,61.1,72.3,62.5,73.8,63.4z"/>
	<path class="st0" d="M109.2,47c1.3,1.1,2.6,1.7,3.7,1.6c-0.2-1.2-1-2.6-2.2-3.7c-1.3-1.1-2.6-1.7-3.7-1.6
		C107.1,44.5,107.9,45.9,109.2,47z"/>
	<path class="st0" d="M76.4,50.9C77,49.8,77.3,48,77,46c-0.3-1.9-1.1-3.5-2-4.4c-0.7,1.1-0.9,2.9-0.6,4.9
		C74.7,48.5,75.4,50.1,76.4,50.9z"/>
	<path class="st0" d="M57.3,80.4c0.1,14.1-4,25.7-9.3,40.4l-0.4,1.2c-1.3,3.5-4.4,13.2-5.8,26.5c-0.3,2.3-0.5,4.5-0.6,6.7
		c-0.1,2.1-0.2,4.3-0.2,6.3C41,176.9,44,190.3,50,201.2c1,1.9,2.2,3.7,3.4,5.5c0.1,0.2,0.3,0.4,0.5,0.8l0.1,0.1
		c21.1,31.7,52.2,51.4,87.6,55.5h0.3l14.2,14.2l14.2-14.2h0.3c35.4-4.1,66.5-23.9,87.6-55.5l0.1-0.1c0.2-0.4,0.4-0.6,0.5-0.8
		c1.2-1.7,2.3-3.5,3.4-5.4c6-10.9,9-24.3,8.9-39.6c0-2-0.1-4.2-0.2-6.3c-0.1-2.2-0.4-4.4-0.6-6.7c-1.4-13.3-4.6-23-5.8-26.5
		l-0.4-1.2c-5.3-14.7-9.4-26.3-9.3-40.4c0.1-11,13.4-26.1,18.6-30.9l3.2-3.1L229.8,4l-2.6,1.7c-9.3,6.1-21.4,9.5-33.8,9.5
		c-13.1,0-25.5-3.7-35-10.3L156,3.3l-2.3,1.6c-9.5,6.6-22,10.3-35,10.3c-12.5,0-24.5-3.4-33.9-9.5L82.1,4L38.8,43.5l-3.2,2.9l3.2,3
		C43.9,54.3,57.3,69.4,57.3,80.4z M82.6,9.1c9.6,6.3,22.2,10.1,36,10.1c14.5,0,27.6-4.2,37.4-11c9.8,6.8,22.9,11,37.4,11
		c13.9,0,26.4-3.8,36.1-10.1l41,37.3c0,0-19.8,18.8-19.9,33.9c-0.1,15.2,4.4,27.5,10,43.1c2.1,5.8,4.4,15,5.6,25.6
		c0.2,2,0.4,4.3,0.5,6.5c0.1,2,0.2,4,0.2,6.1c0.1,12.6-2.1,26-8.5,37.7c-0.9,1.7-2,3.4-3.1,5c-3.3,4.7-30.1,49.1-87,54.9l-0.2,0.2
		L156,271.5l-12.1-12.1l-0.2-0.2c-56.9-5.8-83.7-50.2-87-54.9c-1.1-1.6-2.2-3.3-3.1-5c-6.4-11.6-8.5-25.1-8.5-37.7
		c0.1-2,0.1-4.1,0.2-6.1c0.1-2.2,0.4-4.4,0.6-6.5c1.1-10.6,3.5-19.8,5.6-25.6c5.6-15.5,10.1-27.8,10-43.1
		c-0.1-15.2-19.9-33.9-19.9-33.9L82.6,9.1z"/>
	<path class="st0" d="M79.4,40.8c0.1-2-0.4-3.8-1.1-4.9c-0.8,1-1.5,2.6-1.6,4.7c-0.1,1.9,0.4,3.7,1.1,4.7
		C78.7,44.4,79.3,42.7,79.4,40.8z"/>
	<path class="st0" d="M52.4,208.6l-0.1-0.2c-0.2-0.3-0.4-0.5-0.5-0.7c-1.3-1.8-2.4-3.7-3.5-5.6c-0.1-0.3-0.3-0.5-0.4-0.8l-4.8,1.7
		c9.6,18,23.3,33.5,40.1,45.2c18.8,13.1,40.6,20.8,63.5,22.5c0,0-5.7-5.8-5.7-5.8C105.2,260.6,73.8,240.7,52.4,208.6z"/>
	<path class="st0" d="M6.4,190.5c0.3,0.6,1,0.8,1.6,0.6l10.9-4.9l0.3,0.5c1.6,2.1,2.4,4.3,2.8,5.8l1.8-0.7c-0.5-1.6-1.3-3.6-2.8-5.7
		l-0.4-0.6l12.7-5.6c0.6-0.3,0.9-1,0.7-1.6l-0.2-0.5c-1.1-2.4-1.4-4.9-1.1-7c0.4-1.9,1.2-3.2,2.4-3.8l0.2-0.1c0.5-0.2,1-0.4,1.6-0.4
		c0.8,0,1.7,0.3,2.5,0.8c-0.1-0.7-0.1-1.4-0.1-2.2c-0.8-0.3-1.6-0.5-2.3-0.5c-1,0-1.9,0.3-2.4,0.5c-0.1,0-0.1,0.1-0.2,0.1L7.6,177.6
		c-1.8,0.8-3,2.1-3.5,3.8c-0.6,2.1,0,4.4,0.6,6.1C5.3,189,6.1,190.2,6.4,190.5z M6,181.9c0.3-1.1,1.1-2,2.5-2.6l22.7-10.4l-0.2,1.2
		c-0.1,0.2-0.1,0.4-0.1,0.5c-0.4,2.3-0.1,4.9,0.9,7.4l0.2,0.5L7.7,189.2l-0.3-0.5C6.7,187.5,5.2,184.3,6,181.9z"/>
	<path class="st0" d="M259.7,208.5l-0.1,0.2c-21.4,32-52.8,52-88.6,56.3l-5.7,5.8c22.9-1.7,44.7-9.4,63.5-22.5
		c16.9-11.8,30.6-27.2,40.1-45.2l-4.8-1.7c-0.1,0.3-0.3,0.5-0.5,0.8c-1,1.9-2.2,3.8-3.4,5.6C260.1,207.9,259.9,208.2,259.7,208.5z"
		/>
	<path class="st0" d="M157,284.4c0.3,0,0.5-0.2,0.5-0.5v-1.2c0-0.2-0.2-0.5-0.5-0.5l-5.9-0.1c-0.3,0-0.5,0.2-0.5,0.5v1.1
		c0,0.3,0.2,0.5,0.5,0.5l1.1,0.1l-0.1,10.7h-1.1c-0.3,0-0.5,0.1-0.5,0.5v1.2c0,0.2,0.2,0.5,0.5,0.5l5.7,0.1c0.3,0,0.5-0.2,0.5-0.5
		v-1.2c0-0.3-0.2-0.5-0.5-0.5h-1.1l0.2-10.7H157z"/>
	<path class="st0" d="M83.7,40.3c1-1.6,1.5-3.4,1.3-4.7c-1.1,0.4-2.5,1.4-3.5,3.1c-1,1.6-1.4,3.4-1.3,4.7C81.4,43,82.8,42,83.7,40.3
		z"/>
	<path class="st0" d="M309.5,201.3l-36.6-14c-1-0.4-2-0.1-2.5,0.8l-0.1,0.1c-0.2,0.4-0.8,1.1-1.4,1.7c-0.3,1-0.7,1.9-1,2.9
		c1.9-0.8,3.3-2.6,3.8-3.4l0.1-0.2c0.1-0.1,0.2-0.1,0.2-0.1c0.1,0,0.1,0,0.2,0l2.6,1l1.2,0.5l-0.2,0.5c-0.1,0.2-0.2,0.5-0.2,0.6
		c-1.1,2.7-2.3,5.3-3.5,7.9c-0.2,0.4-0.4,0.8-0.6,1.1l-1.1-0.4l-4.9-1.7c-0.2,0.6-0.5,1.1-0.8,1.7l4.7,1.7l1.2,0.4
		c-0.2,0.4-0.4,0.7-0.6,1.1c-9.6,18.2-23.4,33.9-40.5,45.9c-19.4,13.5-41.9,21.2-65.6,22.7l-2,2c24.8-1.1,48.4-9.1,68.7-23.2
		c21.2-14.8,37.4-35.1,47-59l0.2-0.5l29.1,11.2l-0.2,0.5c-11.8,29.6-32,54.9-58.2,73.2c-24.6,17.2-53.6,27.1-83.6,28.7l-9,8.9
		l-0.4-0.4l-8.6-8.5c-30-1.6-59-11.6-83.6-28.7C37.2,257.9,17.1,232.6,5.3,203L5,202.4l29.1-11.2l0.2,0.5c9.5,23.9,25.8,44.3,47,59
		c20.2,14.2,43.9,22.1,68.7,23.2l-2-2c-23.6-1.5-46.1-9.2-65.6-22.7c-17.1-12-30.9-27.6-40.5-45.9c-0.2-0.4-0.4-0.7-0.6-1.1l1.2-0.4
		l4.7-1.7c-0.2-0.5-0.5-1.1-0.8-1.7l-4.8,1.7l-1.1,0.4c-0.2-0.4-0.4-0.8-0.6-1.1c-1.2-2.6-2.4-5.2-3.5-7.9c-0.1-0.1-0.1-0.4-0.2-0.6
		l-0.2-0.5l1.1-0.5l2.6-1c0.1,0,0.1,0,0.1,0c0.1,0,0.2,0.1,0.3,0.1l0.1,0.2c0.5,0.8,1.9,2.6,3.8,3.3c-0.4-0.9-0.7-1.9-1-2.8
		c-0.7-0.7-1.2-1.4-1.4-1.7l-0.1-0.1c-0.5-0.8-1.6-1.2-2.5-0.8l-36.6,14l1,2.3c11.9,29.9,32.3,55.5,58.8,74
		c24.7,17.2,53.7,27.3,83.7,29.1c0.2,0,0.3,0.1,0.4,0.2l9.7,9.6l9.7-9.6c0.1-0.1,0.2-0.2,0.4-0.2c30-1.8,59-11.9,83.7-29.1
		c26.5-18.5,46.8-44.1,58.8-74L309.5,201.3z"/>
	<path class="st0" d="M101.7,74.8c1.4-1,2.5-2.5,2.8-3.8c-1.2-0.2-2.8,0.3-4.3,1.4c-1.5,1.1-2.5,2.6-2.8,3.8
		C98.5,76.4,100.2,76,101.7,74.8z"/>
	<path class="st0" d="M108.6,69.1c0.8-1.7,1.1-3.6,0.8-4.9c-1.1,0.5-2.3,1.7-3.1,3.5c-0.8,1.8-1,3.6-0.8,4.9
		C106.6,72.1,107.8,70.8,108.6,69.1z"/>
	<path class="st0" d="M110.3,43.3c0.2-1.3-0.3-3.1-1.3-4.7c-1-1.6-2.3-2.7-3.5-3.1c-0.1,1.4,0.3,3.2,1.3,4.7
		C107.8,42,109.2,43,110.3,43.3z"/>
	<path class="st0" d="M105.7,77.6c1.8,0.2,3.4-0.2,4.4-1c-0.8-1-2.3-1.7-4.1-2c-1.8-0.2-3.4,0.1-4.4,0.9
		C102.5,76.6,104,77.4,105.7,77.6z"/>
	<path class="st0" d="M80.4,76.7c1,0.8,2.6,1.2,4.4,1c1.7-0.2,3.2-1,4.1-2c-1-0.8-2.6-1.1-4.4-0.9C82.8,74.9,81.2,75.7,80.4,76.7z"
		/>
	<path class="st0" d="M89.9,77c-1.7,0.4-3.2,1.4-3.8,2.5c1,0.7,2.7,0.8,4.4,0.4c1.7-0.4,3-1.3,3.8-2.4c0.2,0.2,0.4,0.4,0.6,0.6
		c-1.9,1.1-3.6,2.6-5,4.6c0.5,0.9,0.8,1.3,1.4,2.2c1.1-2.5,2.5-4.6,4.1-6.3c1.6,1.7,2.7,3.8,3.8,6.3c0.6-0.9,0.8-1.4,1.4-2.3
		c-1.5-1.9-3-3.4-4.9-4.5c0.2-0.2,0.4-0.4,0.7-0.5c0.7,1,2.1,1.9,3.7,2.3c1.8,0.4,3.4,0.2,4.4-0.4c-0.7-1.1-2.1-2-3.8-2.5
		c-1.4-0.4-2.8-0.3-3.8,0.1c-1,0.4-1.6,0.7-1.6,0.7c-0.5-0.2-1-0.4-1.4-0.7c0,0,0-0.1-0.1-0.1h-0.1C92.8,76.7,91.4,76.6,89.9,77z"/>
	<path class="st0" d="M81.2,64.2c-0.3,1.3-0.1,3.1,0.7,4.9s2,3,3.1,3.5c0.3-1.3,0.1-3.1-0.7-4.9C83.5,65.9,82.3,64.7,81.2,64.2z"/>
	<path class="st0" d="M88.9,74.8c1.5,1.1,3.1,1.6,4.3,1.4c-0.3-1.3-1.3-2.7-2.8-3.8c-1.6-1.1-3.1-1.6-4.3-1.4
		C86.4,72.3,87.4,73.8,88.9,74.8z"/>
	<path class="st0" d="M75.6,54.6c0.3-1.3,0-3.1-0.8-4.9c-0.8-1.7-2-3-3.2-3.5h0c-0.3,1.3,0,3.1,0.8,4.9S74.4,54.1,75.6,54.6z"/>
	<path class="st0" d="M241.7,254.7l-0.7-1c-0.2-0.2-0.5-0.2-0.7-0.1l-4.8,3.5c-0.2,0.2-0.2,0.5-0.1,0.7l0.7,0.9
		c0.2,0.2,0.5,0.4,0.8,0.2l1-0.7l6.4,8.6l-0.8,0.6c-0.2,0.2-0.3,0.5-0.1,0.8l0.7,1c0.2,0.2,0.5,0.2,0.8,0.1l4.6-3.4
		c0.2-0.2,0.2-0.5,0.1-0.7l-0.7-1c-0.2-0.2-0.5-0.4-0.8-0.1l-0.9,0.6l-6.4-8.6l1-0.7C241.9,255.2,241.9,255,241.7,254.7z"/>
	<path class="st0" d="M231.9,259.7l-1,0.6l-9.2,5.5c-0.4,0.2-0.5,0.4-0.2,0.8l0.8,1.4c0.2,0.4,0.5,0.5,0.8,0.2l3.5-2l6.1,10.2
		c0.3,0.4,0.4,0.4,0.7,0.2l2.2-1.3c0.4-0.2,0.4-0.3,0.1-0.8l-6.1-10.1l3.4-2c0.4-0.2,0.6-0.5,0.4-0.8l-0.8-1.6v-0.1
		C232.5,259.6,232.3,259.5,231.9,259.7z"/>
	<path class="st0" d="M205,289.7c4-1.3,5.8-5.2,4.1-9.8c-1.4-4.2-4.7-6.7-9.1-5.2c-4.1,1.4-5.6,5.3-4.1,9.8
		C197.4,288.9,200.8,291.1,205,289.7z M200.9,277.4c2-0.7,3.6,0.3,4.7,3.7c1.1,3.2,0.4,5.1-1.4,5.7c-2,0.7-3.6-0.4-4.7-3.7
		C198.4,280.1,199.1,278,200.9,277.4z"/>
	<path class="st0" d="M246.7,249.3c-0.4-0.2-0.7-0.2-1.1,0.2l-1.2,1.1c-0.3,0.3-0.4,0.5,0,1l9,10.6l0.1,0.1c0.3,0.4,0.6,0.3,1-0.1
		l1.3-1.2c0.4-0.4,0.5-0.5,0.1-1l-5.2-5.8l0.1-0.1l8.2,3.2c0.5,0.2,0.7,0.1,1-0.2l0.6-0.5c0.2-0.2,0.4-0.4,0.2-0.8l-2.9-8.1l5.3,5.3
		c0.4,0.5,0.7,0.6,1.1,0.2l1.6-1.5c0.3-0.2,0.3-0.5,0.1-0.8c0,0-0.1,0-0.1-0.1l-10.1-9.8c-0.2-0.2-0.5-0.3-0.8,0l-1.1,1
		c-0.4,0.4-0.4,0.7-0.3,1.1l3.5,10.3l-0.1,0.1L246.7,249.3z"/>
	<path class="st0" d="M266.7,240l-5.9-4.8c-0.4-0.3-0.5-0.2-0.8,0.1l-1.4,1.6c-0.2,0.3-0.4,0.7,0,1l6.1,5c3.6,2.9,6.8,2.9,9.7-0.5
		c2.8-3.2,2.6-6.5-1.1-9.7l-6.1-5c-0.4-0.3-0.6-0.2-0.9,0.1l-1.4,1.7c-0.2,0.3-0.3,0.6,0,0.9l5.9,4.8c2.6,2.2,2.6,3.7,1.4,5.2
		C270.9,241.9,269.4,242.2,266.7,240z"/>
	<path class="st0" d="M143,281.6c-0.4-0.1-0.7,0.1-0.7,0.5l-1.1,8.5h-0.1l-5.5-9.5c-0.2-0.4-0.4-0.5-0.8-0.6l-1.8-0.2
		c-0.5-0.1-0.8,0-0.8,0.5l-1.7,13.8c-0.1,0.5,0.1,0.7,0.6,0.7l2,0.2c0.4,0.1,0.7-0.1,0.7-0.5l1.1-8.5h0.1l5.5,9.4
		c0.2,0.4,0.5,0.5,0.9,0.6l1.9,0.2c0.4,0.1,0.7-0.1,0.7-0.6l1.7-13.7c0-0.4,0-0.7-0.5-0.8L143,281.6z"/>
	<path class="st0" d="M227.2,77.6c1.7,0.2,3.4-0.2,4.3-1c-0.8-1-2.3-1.7-4-2c-1.8-0.2-3.4,0.1-4.4,0.9
		C223.9,76.6,225.4,77.4,227.2,77.6z"/>
	<path class="st0" d="M183.3,281.2l-0.2-1.2c-0.1-0.2-0.3-0.4-0.6-0.4l-5.9,1c-0.3,0.1-0.4,0.3-0.4,0.5l0.2,1.1
		c0.1,0.3,0.2,0.5,0.6,0.5l1.2-0.2l1.8,10.6l-1,0.2c-0.3,0.1-0.5,0.3-0.4,0.7l0.2,1.2c0,0.2,0.3,0.4,0.6,0.4l5.6-1
		c0.3-0.1,0.5-0.3,0.4-0.6l-0.2-1.1c-0.1-0.3-0.3-0.5-0.7-0.5l-1.1,0.2l-1.9-10.6l1.2-0.2C183.2,281.8,183.4,281.5,183.3,281.2z"/>
	<path class="st0" d="M219,269c-1.6-0.6-3.4-0.3-5.6,0.8l-3.2,1.4c-0.4,0.2-0.5,0.4-0.3,0.9l5.9,12.6c0.2,0.4,0.5,0.5,0.8,0.3l2-0.9
		c0.5-0.2,0.5-0.5,0.4-0.8l-1.9-4.1c0.2-0.1,0.9-0.4,1.1-0.5c3.1-1.4,4.7-4.1,3.2-7.3C220.9,270.4,220,269.5,219,269z M217.1,276.3
		c-0.2,0.1-0.8,0.4-1.1,0.5l-2-4.3l1-0.5c1.5-0.7,2.7-0.5,3.4,1.1C219,274.5,218.5,275.6,217.1,276.3z"/>
	<path class="st0" d="M106.3,275.3c0.3,0.1,0.5,0.1,0.7-0.3l0.5-1.1c0.1-0.3-0.1-0.5-0.4-0.7l-5.5-2.2c-0.3-0.1-0.5,0.1-0.6,0.3
		l-0.5,1.1c-0.1,0.2-0.1,0.5,0.3,0.7l1.1,0.4l-4.1,10l-0.9-0.4c-0.4-0.1-0.6-0.1-0.7,0.3l-0.5,1.1c-0.1,0.2,0.1,0.5,0.4,0.7l5.2,2
		c0.3,0.2,0.6,0,0.7-0.2l0.5-1.1c0.1-0.3,0-0.6-0.3-0.7l-1-0.4l4-10L106.3,275.3z"/>
	<path class="st0" d="M84,279.5l2.2,1.2c0.4,0.2,0.5,0.1,0.7-0.3l5.5-10.4l3.5,1.7c0.4,0.2,0.7,0.3,1-0.1l1-1.5v-0.1
		c0.2-0.2,0.1-0.5-0.2-0.7l-1-0.5l-9.5-4.9c-0.4-0.2-0.6-0.1-0.8,0.2l-0.8,1.5c-0.2,0.4-0.1,0.6,0.2,0.8l3.6,1.9l-5.5,10.5
		C83.5,279.2,83.5,279.3,84,279.5z"/>
	<path class="st0" d="M115.8,279c0.8,0.2,1.9,0.9,2.6,1.5c0.2,0.1,0.3,0.2,0.4,0.2c0.2,0.1,0.4,0,0.5-0.3l1.1-1.4
		c0.1-0.1,0.2-0.2,0.2-0.2c0.1-0.2,0-0.4-0.3-0.7c-1.1-1-2.4-1.6-3.9-2c-2.5-0.8-5.6-0.1-6.5,2.6c-0.5,1.7,0.1,3.4,1.4,4.6l2.5,2.2
		c0.6,0.5,1.1,1,0.8,1.9c-0.3,1-1.6,1.1-2.5,0.9c-1.1-0.4-2.2-1-3.1-1.6c-0.1-0.2-0.2-0.2-0.3-0.2c-0.3-0.1-0.5,0.1-0.6,0.3
		l-1.1,1.5c-0.1,0.1-0.2,0.2-0.2,0.4c-0.1,0.2,0,0.4,0.3,0.5c1.3,0.9,2.8,1.7,4.2,2.1c2.9,0.8,5.9-0.2,6.8-3.2
		c0.6-1.9-0.1-3.4-1.6-4.7l-2.2-1.8c-0.4-0.4-1.1-1-1-1.7C113.9,278.8,115,278.7,115.8,279z"/>
	<path class="st0" d="M76.1,275.1l2,1.4c0.3,0.2,0.5,0.1,0.7-0.2c0.1-0.1,0.1-0.1,0.1-0.3l3.2-14.6c0.1-0.3,0-0.6-0.4-0.8l-1.9-1.3
		c-0.3-0.2-0.6-0.1-0.9,0.1l-12.2,8.9c-0.1,0.1-0.1,0.1-0.2,0.2c-0.1,0.2-0.1,0.4,0.1,0.5l2.1,1.4c0.4,0.2,0.7,0.1,0.9-0.1l2.2-1.7
		l0.7,0.4l3.2,2.1l0.7,0.5l-0.7,2.6C75.6,274.5,75.6,274.8,76.1,275.1z M74,266.8l3.5-2.8c0.4-0.3,0.7-0.6,1.1-0.8
		c-0.1,0.4-0.2,0.8-0.4,1.3l-1.2,4.3L74,266.8z"/>
	<path class="st0" d="M46.2,231.9c0.2,0.2,0.5,0.4,0.8,0.1l1-0.7c0.2-0.2,0.2-0.5,0-0.7l-3.6-4.7c-0.2-0.2-0.5-0.2-0.7-0.1l-1,0.7
		c-0.2,0.2-0.4,0.5-0.1,0.8l0.7,0.9l-8.6,6.6l-0.7-0.8c-0.2-0.2-0.5-0.3-0.8-0.1l-1,0.7c-0.1,0.1-0.2,0.4,0,0.7l3.4,4.5
		c0.2,0.2,0.5,0.2,0.7,0.1l0.9-0.7c0.2-0.2,0.4-0.5,0.2-0.8l-0.7-0.9l8.6-6.5L46.2,231.9z"/>
	<path class="st0" d="M167.5,284.3c0.9-0.1,2.1,0.2,3.1,0.5c0.2,0,0.3,0.1,0.4,0.1c0.2-0.1,0.3-0.1,0.4-0.4l0.6-1.7
		c0-0.2,0.1-0.3,0.1-0.4c-0.1-0.2-0.2-0.4-0.5-0.5c-1.4-0.5-2.8-0.7-4.4-0.5c-2.6,0.2-5.3,2-5,4.8c0.2,1.9,1.3,3.1,3.1,3.7l3,1.1
		c0.7,0.3,1.4,0.6,1.5,1.4c0.1,1.1-1,1.7-2,1.7c-1.1,0.1-2.3-0.1-3.5-0.4c-0.1-0.1-0.3-0.1-0.4-0.1c-0.3,0-0.4,0.2-0.4,0.4l-0.5,1.9
		c-0.1,0.1-0.1,0.2-0.1,0.4c0,0.2,0.1,0.4,0.5,0.4c1.5,0.4,3.2,0.5,4.7,0.4c3-0.2,5.4-2.3,5.2-5.4c-0.2-2-1.4-3.1-3.2-3.7l-2.6-1
		c-0.5-0.2-1.4-0.5-1.6-1.3C165.7,284.8,166.6,284.4,167.5,284.3z"/>
	<path class="st0" d="M61.1,261.1c-0.8-0.7-1.7-1.7-2.3-2.7c-0.1-0.1-0.1-0.2-0.2-0.3c-0.2-0.2-0.4-0.1-0.7,0.1l-1.6,1
		c-0.1,0.1-0.2,0.1-0.3,0.2c-0.2,0.1-0.2,0.3,0.1,0.7c0.8,1.3,2,2.6,3.1,3.5c2.4,1.9,5.5,2,7.5-0.4c1.3-1.6,1.1-3.2,0.3-4.9
		l-1.3-2.5c-0.2-0.6-0.7-1.4-0.2-2c0.7-0.8,1.7-0.4,2.3,0.2c0.7,0.5,1.4,1.5,1.9,2.4c0.1,0.1,0.2,0.2,0.2,0.3c0.2,0.1,0.4,0.1,0.6,0
		l1.6-0.9c0.1-0.1,0.2-0.1,0.3-0.2c0.1-0.1,0.1-0.3-0.1-0.7c-0.7-1.3-1.6-2.4-2.8-3.4c-2-1.6-5.2-2.2-7,0.1
		c-1.1,1.4-1.2,3.1-0.4,4.7l1.4,2.9c0.3,0.7,0.5,1.4,0.1,2C63,262.1,61.8,261.7,61.1,261.1z"/>
	<path class="st0" d="M27.1,226.9c-0.1,0.4-0.1,0.7,0.1,1l1,1.6c0.2,0.4,0.4,0.5,0.9,0.2l11.9-7.3c0.3-0.2,0.5-0.4,0.2-0.8l-1.1-1.9
		c-0.2-0.4-0.5-0.5-0.9-0.2l-7.4,4.5l4.1-10.2c0.2-0.4,0.1-0.6-0.1-1l-1-1.6c-0.3-0.4-0.5-0.5-1-0.2l-11.9,7.3
		c-0.4,0.3-0.4,0.5-0.1,1l1.1,1.7c0.2,0.4,0.5,0.5,0.9,0.2l7.3-4.5v0.1L27.1,226.9z"/>
	<path class="st0" d="M53.3,236.7l-1.5-1.6c-0.3-0.3-0.6-0.3-0.9-0.1l-10.3,9.5c-0.4,0.4-0.4,0.6-0.1,1l5.7,6.1
		c0.3,0.3,0.6,0.4,1,0.1l1.2-1.1c0.3-0.3,0.4-0.6,0.1-0.9l-3.8-4.1l8.6-7.9C53.7,237.3,53.6,237.1,53.3,236.7z"/>
	<path class="st0" d="M271.5,221.5c-0.5-0.1-0.7,0-1,0.5l-0.8,1.3c-0.2,0.4-0.2,0.6,0.2,1l11.5,7.8c0.4,0.3,0.7,0.2,1-0.2l1-1.6
		c0.3-0.4,0.4-0.7-0.2-1l-6.5-4.2l0.1-0.1l8.8,1c0.5,0.1,0.7-0.1,0.9-0.5l0.4-0.7c0.2-0.2,0.3-0.5,0-0.9l-5-7h0.1l6.6,3.8
		c0.5,0.3,0.8,0.3,1.1-0.2l1.2-1.9c0.2-0.3,0.2-0.6-0.2-0.8l-12.4-6.8c-0.4-0.2-0.6-0.2-0.8,0.2l-0.8,1.3c-0.2,0.4-0.2,0.7,0,1.1
		l6.2,8.9l-0.1,0.1L271.5,221.5z"/>
	<path class="st0" d="M210.4,74.8c1.5,1.1,3.1,1.6,4.3,1.4c-0.3-1.3-1.3-2.7-2.8-3.8c-1.5-1.1-3.1-1.6-4.3-1.4
		C207.9,72.3,208.9,73.8,210.4,74.8z"/>
	<path class="st0" d="M211.2,77c-1.7,0.4-3.1,1.4-3.8,2.5c1.1,0.7,2.7,0.8,4.4,0.4c1.7-0.4,3-1.3,3.8-2.3c0.2,0.2,0.4,0.4,0.6,0.5
		c-1.9,1.1-3.4,2.6-4.8,4.5c0.5,0.9,0.8,1.4,1.4,2.3c1.1-2.5,2.3-4.6,3.9-6.3c1.6,1.7,3,3.8,4.1,6.3c0.6-0.9,0.8-1.3,1.4-2.2
		c-1.4-1.9-3.1-3.4-5.1-4.6c0.2-0.2,0.4-0.4,0.7-0.6c0.7,1.1,2.1,2,3.8,2.4c1.7,0.4,3.4,0.2,4.4-0.4c-0.7-1.1-2.2-2-3.9-2.5
		c-1.4-0.4-2.8-0.3-3.9,0.1c-0.1,0-0.1,0.1-0.1,0.1c-0.5,0.2-1,0.4-1.4,0.7c0,0-0.6-0.4-1.6-0.7C214,76.7,212.7,76.6,211.2,77z"/>
	<path class="st0" d="M201.9,76.7c1,0.8,2.6,1.2,4.4,1c1.7-0.2,3.2-1,4-2c-1-0.8-2.6-1.1-4.3-0.9C204.1,74.9,202.7,75.7,201.9,76.7z
		"/>
	<path class="st0" d="M126.4,93.3c0,3.4,0.1,35.7,0.1,41.9c0,0.1,0,0.3-0.1,0.3c-1-0.1-2.2,0.5-2.2,2.2v6.7c0,0.6,0.1,2.4,0.1,2.6
		c0,2.1,2.2,2.7,2.2,2.7s46.9,16.8,48.5,17.3c2.2,0.9,4.3,1.6,6.2,2.3c0.7,0.2,0.7,0.6,0.7,1.8v2.3c0,0,1.2,0.1,1.8,0.1
		c4.6,0,4-2.3,4.1-9.2c0.2-7.2,0.2-9.4-1.9-9.9c-0.1-19.1,0.3-52.5,0.2-61.9c1.6-0.6,2.9-1.7,3.1-3.6c0.2-1.7-1.6-4.3-5.8-6.4
		l-24.8-51.9c0.9-1.9-0.9-4.4-2.8-4.4c-1.9,0-3.4,2.5-2.5,4.4L128.6,83c-4.9,2.6-5.9,5.9-4.9,8.2C123.7,91.1,124.3,92.6,126.4,93.3z
		 M137.7,150.7c0,0.2-0.1,0.3-0.4,0.3c-2.1-0.8-3.2-1.1-5.3-1.9c-0.2,0-0.4-0.2-0.4-0.5v-8.8c0-0.2,0.2-0.3,0.4-0.2
		c2.2,0.8,3.2,1.2,5.3,2c0.2,0.1,0.4,0.3,0.4,0.5V150.7z M146.6,153.9c0,0.2-0.2,0.3-0.4,0.2c-2.2-0.8-3.2-1.2-5.3-1.9
		c-0.2-0.1-0.4-0.3-0.4-0.5v-8.7c0-0.2,0.2-0.3,0.4-0.2c2.2,0.8,3.2,1.2,5.3,1.9c0.2,0.1,0.4,0.3,0.4,0.5
		C146.6,148.7,146.6,150.4,146.6,153.9z M155.5,157.1c0,0.2-0.2,0.3-0.4,0.2c-2.2-0.7-3.2-1.1-5.3-1.9c-0.2-0.1-0.4-0.3-0.4-0.5
		v-8.7c0-0.2,0.2-0.3,0.4-0.2c2.2,0.7,3.2,1.1,5.3,1.8c0.2,0.1,0.4,0.3,0.4,0.5C155.5,151.7,155.5,153.5,155.5,157.1z M164.4,160.2
		c0,0.2-0.2,0.3-0.4,0.2c-2.2-0.7-3.2-1.1-5.3-1.9c-0.2-0.1-0.4-0.3-0.4-0.5c0-3.5,0-5.3,0-8.9c0-0.2,0.2-0.3,0.4-0.2
		c2.2,0.7,3.2,1,5.3,1.7c0.2,0.1,0.4,0.3,0.4,0.5C164.4,154.8,164.4,156.6,164.4,160.2z M173.3,163.2c0,0.2-0.2,0.4-0.4,0.2
		c-2.2-0.7-3.2-1.1-5.3-1.8c-0.2-0.1-0.4-0.3-0.4-0.5c0-3.5,0-5.4,0-9.1c0-0.2,0.2-0.4,0.4-0.3c2.1,0.7,3.2,1,5.3,1.6
		c0.2,0.1,0.4,0.3,0.4,0.5C173.3,157.7,173.3,159.7,173.3,163.2z M182.1,166.3c0,0.2-0.2,0.3-0.4,0.2c-2.1-0.8-3.2-1.1-5.3-1.9
		c-0.2-0.1-0.4-0.3-0.4-0.5c0-3.5,0-5.5,0.1-9.5c0-0.2,0.1-0.4,0.4-0.3c2.1,0.6,3.2,0.9,5.3,1.6c0.2,0.1,0.4,0.3,0.4,0.5V166.3z
		 M182.1,145.3c0,0.1-2.1-0.5-5.4-1c-1.4-0.2-3.7-0.4-4.6-0.4c-0.6,0.1-1.2,0.2-1.2,0.7c-0.1,0.8,1.3,0.8,1.9,0.9
		c0.5,0.1,2,0.1,4.5,0.5c2,0.4,4.9,1.1,4.9,1.2v6.3c-10.4-2.9-24.3-7.2-35.3-11.2c-10.5-3.7-15.3-5.6-15.4-8.6
		c-0.1-1.9-0.3-9.7-0.1-11.7l-0.2-29.2c-0.1-0.8,1.4-1.3,2.7-1.7c1.2-0.3,8.9-2,21.9-2c12.9,0,22,1.6,24.3,2.5
		c0.5,0.2,1.1,0.4,1.5,0.7v2.6c-2.2-0.3-10.6-1.5-14.1-1.7c-1.7-0.1-3.8-0.2-5.9-0.3c0-0.2-0.1-0.4-0.2-0.6
		c-0.2-0.2-0.4-0.3-0.7-0.3c-4.6-0.2-6.2-0.2-10.9,0c-0.2,0-0.5,0.1-0.7,0.3c-0.1,0.2-0.2,0.5-0.2,0.7l0.6,11.2c-0.2,0-0.4,0-0.5,0
		c-2.3,0.2-11.3,1.5-12,1.6c-0.8,0.2-1,0.5-0.9,0.8c0.1,0.5,0.7,0.3,1.4,0.2c4.6-0.5,8.6-0.8,12.1-0.9l0.1,1.7
		c0,0.5,0.4,0.9,0.9,0.9h0.1c3.8-0.2,5.2-0.2,9.1,0c0.5,0,1-0.4,1-0.9l0.1-1.7c1.4,0.1,2.2,0.1,2.2,0.1c6.5,0.6,15,1.9,18.7,4
		l0.1,2.6c-2.2-0.5-7.6-1.6-9.7-1.7c-2.5-0.2-3.7-0.1-4.1,0s-0.8,0.3-0.7,0.6c0.1,0.3,0.4,0.5,1,0.6c0.5,0,8.6,0.4,13.6,3.7l0.1,2.6
		c-2.9-0.5-12.3-2.4-18.8-2.7c-8.6-0.4-19.3,0.6-20.2,0.7c-0.8,0.2-1.3,0.4-1.2,0.8c0.1,0.4,0.2,0.7,1.4,0.6
		c0.8-0.1,16.4-0.7,24.6,0.5c6.7,1,11.3,2,14.2,3.5l0.1,3.4c-2.6-0.5-8.5-1.7-11.4-1.9c-6.1-0.5-10-0.4-10.6-0.4
		c-0.7,0-0.9,0.3-0.9,0.7c0.1,0.4,0.5,0.4,0.9,0.5c0.8,0,5.3,0.1,10.3,0.9c3.3,0.5,8.4,1.3,11.7,3.1l0.1,3.4
		c-1.7-0.2-5.2-0.6-6.7-0.7c-2-0.1-3.6,0-4.3,0.1c-0.4,0.1-0.6,0.4-0.5,0.7c0.1,0.2,0.2,0.4,0.7,0.4s3.4,0.2,5.6,0.5
		c1.7,0.3,3.8,1,5.3,1.6v4.4c0,0.1-3.8-1.2-7.5-1.4c-3.4-0.2-6.6-0.2-9.1,0.1c-0.2,0.1-1,0.1-1,0.8s0.8,0.5,1.1,0.5
		c2,0.1,3.5,0,6.9,0.3c5,0.5,9.6,2.1,9.6,2.2V145.3z M169.5,100c0.5,0,8.6,0.2,12.2,3.2v3.4c-2.3-0.5-7.5-1.7-13.7-2.3
		c-1.6-0.2-3.2-0.2-4.9-0.4c0,0-0.8,0-2.1-0.1l0.5-9.4c2.5,0.2,5,0.4,7.1,0.7c3.5,0.4,10.1,1.6,13,2.8v2.4c-1.4-0.3-4.4-1-6.5-1.3
		c-2.8-0.4-5-0.4-5.5-0.3c-0.5,0.1-1.1,0.1-1.1,0.6S169,100,169.5,100z M159.6,94.5l-0.7,12.2c0,0-3.5-0.1-6.2,0L152,94.5
		C152,94.5,156.7,94.3,159.6,94.5z M156.1,36.4c0.8,1.8,1.7,3.8,2.7,5.8c-0.8,0.1-2.5,0.2-3.6,0.5c-0.7,0.1-0.8,0.3-0.8,0.5
		c0,0.2,0.3,0.5,0.9,0.5c1.4,0,3.3,0.1,4.3,0.2c0.3,0.7,0.5,1.3,0.9,1.9c-0.7,0.2-1.7,0.5-2,0.6c-0.4,0.2-0.9,0.4-0.8,0.7
		c0,0.3,0.5,0.4,0.8,0.4c0.9,0.1,2.2,0.2,2.9,0.2c0.5,1,0.8,1.8,1.4,2.9c0.3,0.7-0.7,0.8-1.4,0.8c-1,0.1-3.4,0.1-4.5,0.2
		c-0.5,0.1-0.7,0.3-0.7,0.5c0,0.2,0.4,0.5,0.8,0.5c1.7,0.1,3.7,0.2,4.8,0.5c0.8,0.2,1.9,0.4,2.5,0.7c0.3,0.7,0.6,1.3,0.9,2
		c0.2,0.4-0.3,0.5-0.7,0.5c-0.6,0.1-3.4-0.1-4.9,0.1c-0.6,0.1-0.8,0.2-0.8,0.5c0,0.2,0.1,0.4,0.8,0.5c1.2,0.1,3.5,0.2,4.3,0.4
		c0.8,0.1,1.9,0.4,2.6,0.8c0.5,1.1,0.8,1.7,1.3,2.8c0.2,0.4-0.1,0.6-0.4,0.6c-0.4,0.1-5.4,0.1-5.8,0.1c-0.5,0.1-1.1,0.2-1.1,0.6
		c-0.1,0.4,0.4,0.8,1.5,0.8c1.2,0.1,5.5,0.4,7.8,1.9c0.6,1.4,1.2,2.6,1.7,3.8c-1.7-0.2-7.6-0.7-10.3-0.6c-2.3,0.1-3.3,0-3.4,0.5
		c-0.1,0.5,0.4,0.7,1.9,0.8c1.4,0.1,9.1,0.6,13.2,2.2c0.8,1.7,1.5,3.2,2.1,4.6c-2.2-0.4-7.1-1.2-10.1-1.3c-1.2,0-1.6,0.2-1.6,0.7
		c0,0.5,1.1,0.6,1.8,0.7c3.8,0.4,9.1,1.7,11.2,2.5c0.2,0.5,0.4,0.8,0.5,1.1c-6.9-1.4-16.6-2.1-20.9-2.1s-13.6,0.6-20.4,2.2
		C137.4,76.5,149.5,50.5,156.1,36.4z M129.7,85.9c1.7-0.7,13.9-3.4,26-3.5c12.1-0.2,23.7,2.5,27,4.6c0.8,0.5,1.4,1.7,1,2.6
		c-0.5,0.9-1.6,0.5-2.8,0c-1.1-0.5-10.1-3.8-25.1-3.8c-15.1,0-23.4,3-24.5,3.2c-1.1,0.3-2.6,1.1-3.5-0.5
		C127.3,87.6,128,86.6,129.7,85.9z"/>
	<path class="st0" d="M223.1,74.8c1.4-1,2.5-2.5,2.8-3.8c-1.2-0.2-2.8,0.3-4.3,1.4c-1.5,1.1-2.5,2.6-2.8,3.8
		C220,76.4,221.6,76,223.1,74.8z"/>
	<path class="st0" d="M202.6,64.2c-0.3,1.3-0.1,3.1,0.8,4.9c0.8,1.7,2,3,3.1,3.5c0.3-1.3,0.1-3.1-0.8-4.9
		C204.9,65.9,203.7,64.7,202.6,64.2z"/>
	<path class="st0" d="M197,54.6c0.3-1.3,0-3.1-0.8-4.9c-0.8-1.7-2-3-3.2-3.5c-0.3,1.3,0,3.1,0.8,4.9C194.7,52.9,195.9,54.1,197,54.6
		z"/>
	<path class="st0" d="M205.2,40.3c1-1.6,1.4-3.4,1.3-4.7c-1.1,0.4-2.5,1.4-3.5,3.1c-1,1.6-1.4,3.4-1.3,4.7
		C202.9,43,204.1,42,205.2,40.3z"/>
	<path class="st0" d="M117.4,187.7c-0.2,2-0.8,4-1.3,5.3l-2.8,7.4c-0.4,0.9-0.8,2-1.1,3.1c0,0-1-3.3-1.4-4.8l-1.8-6.2
		c-0.7-2.3-1.2-4.6-1.4-7c-3.1,0.2-5.6,0.4-8.9,0.2c2.2,2.5,3.3,5.8,4.3,8.8l3.2,9.9c0.7,2.2,1.1,3.5,1.5,5.7c0.9,0,2.2-0.1,3.1-0.1
		c1.1,0,2.3,0,2.8,0.1c0.4-2,0.8-3.3,1.5-5l4.7-10.9c1.3-3,2.6-5.9,4.3-8.1c0.2-0.2,0.4-0.7-0.4-0.6c-0.7,0.1-2.3,0.2-3.3,0.2
		c-1.1,0-2.3,0-3.1-0.1C117.5,186.4,117.4,187.1,117.4,187.7z"/>
	<path class="st0" d="M197.9,50.9c0.7-1.1,0.9-2.9,0.6-4.9c-0.3-1.9-1.1-3.5-2-4.4c-0.7,1.1-0.9,2.9-0.6,4.9
		C196.1,48.5,196.9,50.1,197.9,50.9z"/>
	<path class="st0" d="M195.3,63.4c1.5,1,3.1,1.3,4.3,1.1c-0.4-1.3-1.5-2.6-3-3.7c-1.6-1-3.2-1.3-4.4-1.1
		C192.6,61.1,193.8,62.5,195.3,63.4z"/>
	<path class="st0" d="M200.9,40.8c0.1-2-0.3-3.8-1.1-4.9c-0.8,1-1.4,2.6-1.6,4.7c-0.1,1.9,0.3,3.7,1.1,4.7
		C200.1,44.4,200.7,42.7,200.9,40.8z"/>
	<path class="st0" d="M202.9,47c1.2-1.1,2-2.5,2.2-3.7c-1.1-0.1-2.5,0.5-3.8,1.6c-1.2,1.1-2,2.5-2.2,3.7
		C200.2,48.7,201.6,48.1,202.9,47z"/>
	<path class="st0" d="M115.4,60.8c-1.6,1-2.6,2.4-3,3.7c1.1,0.2,2.8-0.1,4.3-1.1s2.6-2.3,3-3.7C118.5,59.5,116.9,59.9,115.4,60.8z"
		/>
	<path class="st0" d="M110.4,49.1c-0.2,1.2,0.1,2.8,1,4.3c0.8,1.5,2,2.6,3.1,2.9c0.2-1.2-0.2-2.8-1-4.3
		C112.6,50.5,111.4,49.4,110.4,49.1z"/>
	<path class="st0" d="M115,54.6c1.1-0.5,2.3-1.7,3.2-3.5c0.8-1.7,1.1-3.5,0.8-4.9c-1.1,0.5-2.3,1.7-3.2,3.5
		C115,51.5,114.7,53.3,115,54.6z"/>
	<path class="st0" d="M114.2,50.9c0.9-0.8,1.7-2.5,2-4.4c0.3-2,0.1-3.8-0.6-4.9c-1,0.8-1.7,2.5-2,4.4
		C113.3,48,113.5,49.8,114.2,50.9z"/>
	<path class="st0" d="M113.6,69.1c1.6-1,2.6-2.3,3-3.6c-1.1-0.3-2.8,0.1-4.3,1.1c-1.6,1-2.6,2.3-3,3.6
		C110.5,70.4,112.2,70.1,113.6,69.1z"/>
	<path class="st0" d="M106.3,73.4c1,0.7,2.6,1,4.4,0.7c1.8-0.4,3.2-1.3,4-2.3c-1-0.7-2.6-1-4.4-0.7C108.4,71.5,107,72.4,106.3,73.4z
		"/>
	<path class="st0" d="M112.8,45.3c0.7-1,1.2-2.8,1-4.7c-0.1-2-0.7-3.7-1.6-4.7c-0.7,1.1-1.1,2.8-1.1,4.9
		C111.3,42.7,111.9,44.4,112.8,45.3z"/>
	<path class="st0" d="M117.4,58.2c1.1-1.6,1.7-3.2,1.7-4.6c-1.2,0.2-2.6,1.1-3.7,2.6c-1.1,1.6-1.7,3.2-1.7,4.6
		C114.8,60.7,116.2,59.7,117.4,58.2z"/>
	<path class="st0" d="M110.4,65.5c1-0.8,1.7-2.5,2-4.4c0.3-1.9,0-3.7-0.6-4.9c-1,0.8-1.7,2.5-2,4.4
		C109.5,62.6,109.8,64.4,110.4,65.5z"/>
</g>
</svg>
