<?xml version="1.0" encoding="utf-8"?>
<!-- Generator: Adobe Illustrator 24.0.1, SVG Export Plug-In . SVG Version: 6.00 Build 0)  -->
<svg version="1.1" id="Layer_1" xmlns="http://www.w3.org/2000/svg" xmlns:xlink="http://www.w3.org/1999/xlink" x="0px" y="0px"
	 viewBox="0 0 244.2 316.2" style="enable-background:new 0 0 244.2 316.2;" xml:space="preserve">
<style type="text/css">
	.st0{fill:#FFFFFF;}
</style>
<path class="st0" d="M237.5,278.9c-0.1,0-7.7-3.9-11.7-7.7c-1.7-1.5-2.8-2.7-3.6-3.5c1.9-1.4,4.8-3.6,7-6.1c4.5-5.2,7.2-12.6,7.3-13
	c0.3-0.9,0-1.8-0.7-2.4c-0.7-0.5-1.7-0.5-2.5,0c-0.1,0-2.9,2.1-8.5,2.8v-3.5l0.7-0.1c0.8-0.1,1.8-0.2,2.6-0.8
	c1.4-0.9,2.2-2.7,2.1-4.5c-0.2-1.7-1.4-3.2-3.1-3.7h-0.2c-0.8-0.2-1.5-0.2-2.1-0.2v-2.4c0.1-0.1,0.1-0.2,0.2-0.3
	c0.1-0.2,0.2-0.4,0.3-0.6c0.8-0.9,1.6-1.6,2.3-1.9c0.1-0.1,0.2-0.1,0.4-0.2l0.3-0.1c0.2-0.1,0.4-0.2,0.7-0.3
	c0.2-0.1,0.4-0.2,0.5-0.4c0.3-0.3,0.8-1,0.6-2.2c-0.1-0.7-0.6-1.3-1.2-1.6c1.7-1,3-2.4,4-3.5c2.8-3.7,4.1-8.3,3.7-13.9
	c0-0.6,0-1.2,0-1.8c0-1.2,0-2.2,0-3.3c0.2-2.4,0.5-4.3,1.2-5.9c0.1-0.3,0.2-0.6,0.2-0.9c0-0.3-0.1-0.7-0.4-1.2
	c-0.1-0.2-0.3-0.5-0.5-0.6c-0.5-0.4-1.2-0.5-1.8-0.4c-1.3,0.3-2.5,0.9-3.9,1.9c-0.7-3.9-2.2-7.6-3.7-11l0.6-1.5l0.2-0.2l0.1-0.1
	c1.7-1.9,2.4-3.8,2.9-6c0.6-2.4,0.5-3.9,0-6.2c-0.2-1.2-0.5-2-0.8-2.8c-0.3-0.9-0.6-1.6-0.6-2.7c-0.1-1.6-0.1-2.5,0.2-3.6
	c0.1-0.2,0.1-0.4,0.1-0.6c0-0.9-0.4-1.4-0.7-1.7c-0.8-0.8-2.1-0.8-2.9,0l-0.2,0.2c-0.1,0.1-0.2,0.1-0.3,0.2c-2.2,1.8-3.6,4-4.4,6.8
	c-0.2-0.3-0.3-0.5-0.4-0.6c-0.5-0.5-1.3-0.7-2-0.5c-0.5,0.1-0.9,0.4-1.2,0.6c0-0.3,0-0.6,0-0.9c0.1-0.8,0.1-1.6,0-2.3
	c0-0.3,0-0.5,0-0.8c0-0.4,0-0.8,0.1-1.2c0-0.7,0-1.4,0.2-2.2c0.1-0.5,0.2-0.8,0.5-1.3c0.1-0.2,0.2-0.4,0.3-0.6v-0.1l0.1-0.1
	c0.9-1.5,0.4-2.4-0.1-3c-0.3-0.3-0.6-0.5-1-0.6c-1-0.3-1.8,0.2-2.1,0.4l-0.1,0.1c-3.3,1.8-5,5.1-5.2,9.8v0.5c0,1.6,0.3,2.8,0.6,4
	c0.2,0.8,0.4,1.6,0.5,2.5c0,0.3,0,0.6,0.1,0.7v0.2c0,0.5,0.2,1.1,0.6,1.5c0.1,0.1,0.4,0.3,0.7,0.5c-1.1,2.8-1.4,5.7-1.8,8.9
	c-0.1,0.6-0.1,1.3-0.2,2c-0.9-0.3-1.7-0.4-2.6-0.3c-1.1,0.1-1.9,1-1.9,2.1c0,0.3,0.1,0.6,0.1,0.8c0,0.3,0.1,0.5,0.3,0.7
	c1.1,1.8,1.3,4.4,0.5,7.1v0.1c-0.2,0.8-0.5,1.7-0.8,2.5c-0.3,0.7-0.5,1.4-0.7,2c-0.1,0.4-0.3,0.8-0.5,1.1c-0.3,0.6-0.5,1.3-0.8,2
	c-1,2.5-1.2,5.4-1.3,8.2c0,4.5,1.1,8.2,3.2,11.1c0.6,0.9,1.2,1.7,1.8,2.4c0.1,0.1,0.2,0.2,0.3,0.3c0.2,0.2,0.4,0.3,0.6,0.5
	c0.3,0.3,0.6,0.5,1,0.8c-0.2,0.1-0.5,0.1-0.7,0.2c-0.5,0.2-0.9,0.5-1.1,1c-0.3,0.5-0.3,0.9-0.3,1.2c0,0.2,0,0.4,0.1,0.6
	c0.1,0.5,0.4,0.9,0.6,1.1c0.3,0.3,0.6,0.5,0.9,0.5c0.9,0.2,1.8,1,2.5,2l0.1,0.1c0.2,0.3,0.4,0.7,0.6,1.1c0.1,0.2,0.2,0.4,0.3,0.6
	v1.8c-1.1,0-2.3,0.2-3.3,0.8c-1.4,0.9-2.2,2.5-2,4.4v0.2c0.4,1.7,1.5,3,3,3.5c0.8,0.3,1.6,0.3,2.4,0.3v1.6l-0.2,0.3l0.3,0.8
	c-2.2-0.5-4.5-1.2-7-2.2c-13.5-5.3-18.3-8.7-18.3-8.7c-0.2-0.2-0.5-0.3-0.7-0.3l0.1-0.2c0.4-0.9,0.8-1.8,1.2-2.7
	c0.4-0.9,0.9-1.9,1.3-2.8c2.3-5.2,4.6-10.6,6.7-16.3c3.1-8.5,5.5-16.3,7.5-23.9c2.3-8.9,4.1-17.3,5.3-25.8c0.2-1,0.3-2.1,0.4-3.1
	c0.1-1,0.2-2,0.4-3c0.6-4.7,0.9-8.5,1.3-14.2c0.4-6.5,0.6-11.1,0.7-16.4c0.2-3,0.1-5.6,0.1-8.7c0-1.1,0-2.2,0-3.4
	c0-1.8,0-3.4-0.1-4.9c0-1.4,0-2.7,0-4.1v-0.2c-0.1-2-0.2-4-0.3-6c-0.1-1.9-0.2-3.8-0.3-5.7h16.6V69.5h-7.1l0.1-0.1
	c0.2-0.2,0.3-0.4,0.4-0.6c0.1-0.1,0.2-0.3,0.3-0.5c0.1-0.2,0.3-0.7,0.4-1.3c0.1-0.5,0.1-0.8,0.1-1.2c0-0.6,0-1.2-0.3-1.9
	c-0.1-0.3-0.2-0.7-0.5-1.2l-0.1-0.1c-0.2-0.3-0.4-0.6-0.8-1c-0.2-0.2-0.4-0.4-0.8-0.6c-0.4-0.3-0.7-0.4-1.1-0.5l-0.2-0.1
	c-0.3-0.1-0.7-0.3-1.3-0.3h-0.2c-0.4,0-1.2-0.1-1.9,0.4c-0.4,0.2-1,0.5-1.3,1.3c-0.1,0.1-0.1,0.2-0.1,0.3l-0.1-0.2
	c0-0.1-0.1-0.3-0.1-0.4c-0.1-0.4-0.2-1-0.2-1c0-0.3-0.1-1.2-0.1-1.8c0-0.9,0-1.3,0.2-2v-0.2c0.1-0.3,0.1-0.5,0.3-0.9l0.2-0.4
	c0.1-0.2,0.2-0.4,0.3-0.6l0.1-0.1c0.3-0.5,0.4-0.7,0.8-1.1c0.4-0.4,0.7-0.6,1.1-0.9c0.5-0.4,0.8-1,0.8-1.7c0-0.7-0.4-1.4-0.9-1.8
	c-0.1-0.1-0.2-0.1-0.3-0.2c-0.2-0.1-0.5-0.2-0.8-0.2c0.3,0,0.5,0.1,0.8,0.2c-0.3-0.1-0.6-0.2-0.9-0.2h-7.5c0.1-0.1,0.3-0.1,0.4-0.2
	l0.1-0.1c0.3-0.2,0.6-0.4,1-0.8c0.3-0.3,0.7-0.7,0.9-1.4c0.1-0.3,0.1-0.5,0.2-0.8v-0.1c0.1-0.2,0.1-0.4,0.1-0.7v-1.1
	c0-0.1,0-0.3,0-0.4c-0.1-0.6-0.3-1.1-0.7-1.8c-0.2-0.3-0.3-0.5-0.5-0.6c-0.1-0.1-0.2-0.2-0.2-0.3l-0.5-0.5c-0.1-0.1-0.2-0.2-0.3-0.3
	c-0.4-0.3-0.9-0.5-1.5-0.7l-0.2-0.1c-0.5-0.1-1.3-0.3-2.3-0.1c0-0.6-0.1-1.2-0.2-2c-0.1-0.6-0.3-1.1-0.5-1.8l-0.1-0.2l-0.1-0.2
	c-0.1-0.3-0.3-0.8-0.8-1.3c-0.4-0.4-1-1-2-1c-0.6,0-1.1,0.2-1.5,0.6c-0.4,0.4-0.6,0.7-0.7,0.9c-0.1,0.1-0.1,0.2-0.2,0.3
	s-0.1,0.2-0.2,0.3c-0.4,0.8-0.6,1.4-0.7,2.1l-0.1,0.3c-0.1,0.4-0.2,0.8-0.2,1.4v1c-0.4,0-0.7,0-1,0s-0.7,0-1.1,0.2
	c-0.7,0.2-1.1,0.4-1.6,0.7c-0.5,0.2-0.7,0.5-1,0.7c-0.5,0.5-0.9,0.9-1.3,1.8l-0.1,0.2c-0.1,0.3-0.2,0.7-0.3,1.2
	c-0.1,1,0.1,1.6,0.3,2.3c-0.1,0-0.2,0.1-0.4,0.1s-0.3,0.1-0.4,0.1c-0.3,0.1-0.5,0.2-0.8,0.2h-0.1c-0.2,0-0.2,0.1-0.7,0h-0.2
	c-0.1,0-0.2,0-0.3,0c-0.1,0-0.3-0.1-0.5-0.1c-0.1,0-0.2-0.1-0.3-0.1c-0.1-0.1-0.3-0.1-0.4-0.2c-0.2-0.1-0.3-0.2-0.6-0.4
	c-0.2-0.1-0.4-0.3-0.6-0.4c-0.9-0.6-1.5-1.2-2.2-1.8c-0.6-0.6-1.4-1.3-2.3-2c-1.1-0.9-1.7-1.3-2.9-2l-0.2-0.1
	c-0.3-0.1-0.5-0.2-0.7-0.4c-0.2-0.1-0.5-0.3-0.9-0.5c-0.2-0.1-0.4-0.2-0.6-0.3c0.1-0.4,0.1-0.7,0.1-1v-0.5c0-0.3-0.1-0.6-0.1-0.8
	c0-0.2,0-0.3-0.1-0.5c-0.2-0.5-0.3-0.8-0.6-1.3c-0.1-0.1-0.2-0.2-0.3-0.3l-0.1-0.1c-0.4-0.4-0.9-0.7-1.6-0.7h-0.1
	c-0.8,0-1.5,0.4-1.9,1.1c0,0-0.1,0.3-0.3,0.5l-0.1,0.2l-0.2,0.2c0,0-0.2,0.1-0.3,0.1l-0.2,0.1h-0.1c-0.2,0-0.3,0.1-0.5,0.1
	c-0.4,0.1-0.7,0.1-1.2,0.1c-0.2,0-0.5,0-0.8,0h-3.5c-0.8,0-1.3,0.1-1.8,0.1c-0.2,0-0.4,0.1-0.6,0.1h-0.1h-0.1c0-0.2,0-0.4-0.1-0.6
	c0-0.5-0.2-0.8-0.3-1.1c-0.2-0.7-0.4-1.2-1-2l-0.1-0.2c-0.2-0.3-0.5-0.7-1-1.1c-0.7-0.5-1.3-0.9-2.1-1.1h-0.2l-0.2-0.1
	c-0.3-0.1-0.6-0.2-1.1-0.2c-0.9-0.1-1.8-0.1-3.1,0.5c-0.8,0.4-1.3,0.8-1.7,1.2c-0.5,0.5-0.8,1-1,1.4c-0.1,0.3-0.2,0.5-0.3,0.7
	c-0.1,0.3-0.2,0.5-0.2,0.8v0.7c0,0.2,0,0.3,0.1,0.5v0.1l-0.1-0.2l-0.3-0.3c-0.5-0.5-1.1-0.7-1.8-0.6c-0.7,0.1-1.2,0.5-1.5,1.1v0.1
	c-0.1,0.1-0.3,0.3-0.5,0.5l-0.4,0.2h-0.1c-0.2,0-0.4,0.1-0.6,0.2c-0.1,0-0.2,0-0.3,0c-0.4,0-0.5,0-0.6,0c-0.1,0-0.2-0.1-0.3-0.1
	l-0.1-0.1c1.1-0.7,2-1.8,2-3.4c0-2.6-2.1-4-4.3-4.2c0.1-0.2,0.1-0.4,0.2-0.7l0.5-1.7v-0.2c0.9-4.4,1.1-8.6,0.6-12.6
	c-0.1-1-1.1-1.8-2.2-1.8c-0.6,0-1.2,0.3-1.6,0.7c-0.6,0.7-1.2,1-2.2,1.7c-1.8,1-3,1.3-5.4,1.3c0.5-0.3,0.9-0.7,1.3-1.1
	c1.1-1.5,1.3-3.3,0.4-5c-0.5-1.1-1.2-1.9-2.4-2.5c-0.8-0.4-1.6-0.6-2.4-0.6c0-0.2,0-0.4-0.1-0.7c-0.1-1-0.2-1.9-0.8-3
	c-0.6-1.2-1.5-1.8-2.7-1.8c-0.5,0-1.1,0.2-1.5,0.6c-0.5,0.5-0.7,1-0.9,1.4l-0.1,0.2c-0.4,0.8-0.8,1.5-0.9,2.7c0,0.2-0.1,0.4-0.1,0.5
	c-0.7,0-1.2,0.1-1.6,0.2h-0.2h-0.1c-0.4,0.1-0.6,0.3-0.9,0.4c-0.2,0.1-0.3,0.2-0.5,0.3c-0.2,0.1-0.4,0.2-0.5,0.4l-0.5,0.5
	c-0.2,0.2-0.3,0.3-0.4,0.5l-0.1,0.2c-0.1,0.2-0.3,0.5-0.5,1c-0.1,0.3-0.3,0.8-0.3,1.5v0.7c0,0.4,0,0.8,0.2,1.4v0.1
	c0.1,0.2,0.2,0.7,0.5,1.1c0.2,0.3,0.4,0.7,0.9,1c0.1,0.1,0.2,0.2,0.4,0.2h-0.1c-1,0.1-1.5,0-2.5-0.2c-0.2,0-0.3-0.1-0.4-0.1
	l-0.2-0.1c-0.3-0.1-0.6-0.3-0.9-0.4c-0.4-0.1-0.7-0.3-1.1-0.5c-0.2-0.2-0.4-0.3-0.6-0.4c-0.1-0.1-0.2-0.1-0.3-0.2
	c-0.1-0.1-0.2-0.1-0.3-0.2c-0.2-0.1-0.3-0.1-0.3-0.2c-0.4-0.5-0.8-0.9-0.9-1c-0.4-0.4-0.9-0.6-1.5-0.6h-0.1c-1.1,0-2,0.8-2.1,1.9
	c-0.1,0.6-0.2,1.3-0.2,1.9c0,0.3,0,0.5-0.1,0.8v0.2c0,1.4,0,2.3,0.1,3.8c0,0.4,0.1,0.7,0.1,1c0,0.3,0.1,0.7,0.1,1.1
	c0.1,1.2,0.2,2.1,0.5,3.4c0.2,1.1,0.5,1.9,0.8,2.7c-2.3,0.2-4.4,1.6-4.4,4.3c0,1.6,0.8,2.8,2,3.4l-0.1,0.1c-0.1,0-0.2,0-0.3,0.1
	c-0.1,0-0.2,0-0.6,0c-0.1,0-0.2,0-0.2,0c-0.2-0.1-0.4-0.1-0.7-0.2h-0.1l-0.4-0.2c-0.1-0.2-0.3-0.3-0.4-0.4l-0.1-0.1
	c-0.3-0.6-0.9-1-1.5-1.1c-0.7-0.1-1.3,0.1-1.8,0.6l-0.3,0.3L97,35.4v-0.1c0-0.2,0.1-0.3,0.1-0.5v-0.7c0-0.3-0.1-0.6-0.2-0.8
	c0-0.2-0.1-0.4-0.3-0.7c-0.2-0.5-0.5-0.9-1-1.4c-0.4-0.4-0.9-0.9-1.7-1.2c-1.1-0.6-2-0.6-3.1-0.5c-0.5,0-0.9,0.1-1.1,0.2l-0.2,0.1
	h-0.2c-0.9,0.3-1.5,0.6-2.1,1.1c-0.6,0.4-0.8,0.8-1.1,1.1L86,32.1c-0.6,0.8-0.8,1.4-1.1,2.1c-0.1,0.2-0.2,0.5-0.3,1
	c0,0.2-0.1,0.4-0.1,0.6h-0.1h-0.1c-0.2,0-0.4-0.1-0.6-0.1c-0.5-0.1-1-0.1-1.8-0.1h-3.5c-0.3,0-0.5,0-0.8,0c-0.5,0-0.8,0-1.2-0.1
	c-0.2-0.1-0.3-0.1-0.5-0.1h-0.1l-0.2-0.1c-0.1,0-0.3-0.1-0.3-0.1L75.1,35L75,34.8c-0.1-0.2-0.3-0.5-0.3-0.5
	c-0.4-0.7-1.1-1.1-1.9-1.1h-0.1c-0.6,0-1.2,0.3-1.6,0.7V34c-0.1,0.1-0.2,0.2-0.3,0.3c-0.3,0.5-0.5,0.8-0.6,1.3
	c-0.1,0.2-0.1,0.3-0.1,0.5c0,0.2-0.1,0.4-0.1,0.8v0.5c0,0.2,0,0.6,0.1,1c-0.2,0.1-0.4,0.2-0.7,0.3c-0.3,0.2-0.6,0.3-0.8,0.4
	c-0.2,0.1-0.4,0.2-0.7,0.4l-0.2,0.1c-1.1,0.7-1.8,1.2-2.8,2c-1,0.7-1.7,1.4-2.4,2c-0.7,0.7-1.3,1.2-2.1,1.8
	c-0.2,0.2-0.4,0.3-0.6,0.4c-0.2,0.2-0.4,0.3-0.6,0.4c-0.2,0.1-0.3,0.1-0.4,0.2c-0.2,0.1-0.2,0.1-0.3,0.1c-0.2,0-0.4,0.1-0.5,0.1
	s-0.2,0-0.3,0h-0.2c-0.5,0.1-0.5,0.1-0.6,0l-0.2-0.1c-0.2-0.1-0.4-0.2-0.7-0.2c-0.1,0-0.3-0.1-0.4-0.1s-0.2-0.1-0.3-0.1
	c0.3-0.7,0.5-1.3,0.3-2.3c0-0.5-0.2-0.9-0.3-1.3v-0.1c-0.4-0.9-0.8-1.3-1.3-1.8c-0.2-0.2-0.5-0.5-0.9-0.7c-0.5-0.4-1-0.6-1.6-0.7
	C51,39,50.6,39,50.3,39c-0.3,0-0.7,0-1,0v-0.6c0-0.6-0.1-1-0.2-1.4v-0.2c-0.1-0.8-0.3-1.4-0.7-2.2c-0.1-0.1-0.1-0.2-0.2-0.3
	c-0.1-0.1-0.1-0.2-0.2-0.3c-0.2-0.2-0.4-0.6-0.7-0.9c-0.4-0.4-0.9-0.6-1.5-0.6c-1,0-1.6,0.6-2,1c-0.5,0.5-0.7,1-0.8,1.3L42.9,35
	l-0.1,0.2c-0.3,0.6-0.4,1.2-0.5,1.7c-0.2,0.8-0.2,1.4-0.2,2c-1.1-0.2-1.9,0-2.3,0.1l-0.2,0.1c-0.7,0.2-1.1,0.4-1.5,0.7
	c-0.1,0.1-0.2,0.2-0.3,0.3l-0.5,0.5c-0.1,0.1-0.2,0.2-0.2,0.3c-0.1,0.1-0.3,0.3-0.5,0.6c-0.4,0.6-0.5,1.2-0.7,1.8c0,0.1,0,0.3,0,0.4
	v1.1c0,0.2,0,0.4,0.1,0.6v0.2c0,0.3,0.1,0.5,0.2,0.8c0.2,0.7,0.6,1.1,0.9,1.4c0.4,0.4,0.7,0.6,1,0.8l0.1,0.1
	c0.1,0.1,0.2,0.1,0.4,0.2H31c-0.3,0-0.6,0.1-0.9,0.2c0.2-0.1,0.5-0.2,0.7-0.2c-0.3,0-0.5,0.1-0.7,0.2c-0.1,0.1-0.2,0.1-0.3,0.2
	c-0.6,0.4-0.9,1-0.9,1.8c0,0.7,0.3,1.3,0.8,1.7c0.3,0.3,0.6,0.5,1,0.8c0.4,0.5,0.6,0.8,0.9,1.3c0.1,0.2,0.2,0.4,0.3,0.6l0.1,0.4
	c0.2,0.4,0.2,0.6,0.3,0.9V57c0.2,0.7,0.2,1.1,0.2,2c0,0.6-0.1,1.5-0.1,1.7c0,0-0.1,0.7-0.2,1.1c0,0.2-0.1,0.3-0.1,0.5L32,62.5
	c0-0.1-0.1-0.2-0.1-0.3c-0.4-0.8-1-1.1-1.3-1.3c-0.8-0.4-1.5-0.4-1.9-0.4h-0.2c-0.6,0-1,0.2-1.3,0.3L27,60.9
	c-0.3,0.1-0.7,0.2-1.1,0.5c-0.3,0.2-0.6,0.4-0.8,0.6c-0.4,0.4-0.6,0.7-0.8,1l-0.1,0.1c-0.3,0.5-0.4,0.9-0.5,1.2
	c-0.3,0.8-0.3,1.4-0.3,1.9c0,0.3,0,0.7,0.1,1.2c0.1,0.6,0.3,1,0.4,1.3c0.1,0.2,0.2,0.3,0.3,0.5c0.1,0.2,0.2,0.3,0.4,0.5h-7.3v26.4
	h15.9c-0.1,1.6-0.2,3.2-0.3,4.7v0.2c-0.3,4.3-0.4,8.5-0.5,12.5c0,1.4,0,2.8-0.1,4.2c0,2.1-0.1,4.3,0,6.5l0.1,5.9l0.3,6.8
	c0.2,5.3,0.6,11.3,1.1,17.4c0.8,8,2,16,3.6,23.8l1.7,7.6c2.5,10.5,5.8,21.3,10.2,33.1c2.6,6.7,5.1,12.6,7.7,17.9
	c-0.2,0-0.4,0.1-0.6,0.2c-0.1,0.1-10.1,6-22.5,10c-0.9,0.3-1.7,0.5-2.5,0.7v-0.1l-0.2-0.3v-1.5c0.7,0,1.5,0,2.3-0.3
	c1.5-0.5,2.7-1.8,3.1-3.5v-0.2c0.2-1.8-0.5-3.5-2-4.4c-1-0.6-2.2-0.8-3.3-0.8v-1.7c0.2-0.2,0.3-0.4,0.4-0.7c0.1-0.4,0.3-0.8,0.6-1.1
	l0.1-0.1c0.7-1,1.6-1.7,2.5-2c0.4-0.1,0.7-0.3,0.9-0.5c0.2-0.2,0.5-0.6,0.6-1.1c0.1-0.2,0.1-0.4,0.1-0.6c0-0.3-0.1-0.7-0.4-1.2
	c-0.2-0.4-0.6-0.8-1.1-1c-0.3-0.1-0.5-0.2-0.8-0.2c0.3-0.2,0.6-0.5,0.9-0.8c0.2-0.2,0.4-0.3,0.6-0.5c0.1-0.1,0.2-0.2,0.3-0.3
	c0.6-0.7,1.3-1.5,1.8-2.4c2.1-2.8,3.2-6.6,3.2-11.2c-0.1-2.7-0.3-5.6-1.3-8.1c-0.2-0.8-0.5-1.4-0.8-2c-0.2-0.4-0.3-0.7-0.4-1
	c-0.2-0.7-0.5-1.4-0.7-2.1c-0.3-0.9-0.6-1.7-0.8-2.5v-0.1c-0.8-2.7-0.6-5.3,0.5-7.1c0.1-0.2,0.2-0.5,0.3-0.7
	c0.1-0.2,0.1-0.4,0.1-0.8c0-1.1-0.9-2-1.9-2.1c-0.9-0.1-1.8,0.1-2.6,0.3c-0.1-0.7-0.2-1.4-0.2-2c-0.3-3.2-0.7-6.1-1.8-8.9
	c0.3-0.2,0.6-0.4,0.7-0.5c0.4-0.4,0.6-0.9,0.6-1.5v-0.2c0-0.2,0.1-0.4,0.1-0.7c0.1-0.9,0.3-1.7,0.5-2.5c0.3-1.2,0.6-2.4,0.6-4V164
	c-0.1-4.7-1.9-7.9-5.2-9.8l-0.1-0.1c-0.3-0.2-1.1-0.7-2.1-0.4c-0.3,0.1-0.7,0.3-0.9,0.6c-0.5,0.5-1,1.5-0.1,3l0.1,0.1v0.1
	c0.1,0.2,0.2,0.4,0.3,0.6c0.3,0.5,0.4,0.8,0.5,1.3c0.2,0.8,0.2,1.5,0.2,2.3c0,0.4,0,0.8,0.1,1.2c0,0.3,0,0.5,0,0.8
	c0,0.7-0.1,1.5,0,2.3c0,0.3,0,0.5,0,0.8c-0.3-0.2-0.7-0.4-1.2-0.6c-0.7-0.2-1.5,0-2,0.5c-0.1,0.1-0.3,0.3-0.4,0.6
	c-0.8-2.8-2.2-5-4.4-6.8h-0.1c0,0-0.3-0.2-0.4-0.3c-0.8-0.8-2.1-0.8-2.9,0c-0.3,0.3-0.7,0.8-0.7,1.7c0,0.2,0,0.4,0.1,0.6
	c0.3,1.1,0.3,2,0.2,3.6c0,1-0.3,1.7-0.6,2.6c-0.3,0.8-0.6,1.7-0.8,2.8c-0.5,2.4-0.6,3.8,0,6.2c0.5,2.2,1.2,4.1,2.9,6l0.1,0.1
	l0.2,0.1l0.7,1.5c-1.5,3.3-3,7-3.7,10.9c-1.4-1-2.6-1.6-3.9-1.9c-0.6-0.2-1.3,0-1.8,0.4c-0.2,0.2-0.4,0.4-0.5,0.6
	c-0.3,0.5-0.4,0.9-0.4,1.2c0,0.3,0.1,0.6,0.2,0.9c0.7,1.6,1,3.5,1.2,5.9c0.1,1.1,0,2.2,0,3.4c0,0.6,0,1.2,0,1.8
	c-0.4,5.6,0.9,10.3,3.8,14c1,1.1,2.3,2.5,4,3.5c-0.6,0.3-1.1,0.9-1.2,1.6c-0.2,1.1,0.3,1.8,0.6,2.2c0.2,0.2,0.3,0.3,0.5,0.4
	c0.2,0.1,0.4,0.2,0.7,0.3l0.2,0.1c0.1,0.1,0.3,0.2,0.4,0.2c0.8,0.3,1.6,0.9,2.3,1.9c0.1,0.2,0.2,0.4,0.3,0.6l0.1,0.2v2.6
	c-0.7,0-1.4,0-2.1,0.2h-0.2c-1.7,0.6-2.9,2.1-3.1,3.8c-0.2,1.8,0.6,3.6,2,4.4c0.9,0.6,1.9,0.7,2.7,0.8l0.7,0.1v2.9
	c-5.6-0.6-8.6-2.8-8.9-2.9c-0.7-0.5-1.7-0.6-2.5,0c-0.7,0.5-1,1.5-0.8,2.4c0.1,0.4,3.3,9.7,9.1,15c2.3,2.1,3.9,3.5,5.1,4.3
	c-1.1,1.1-2.8,2.7-5.4,4.7c-5.3,4.2-10,6.2-10,6.2c-0.7,0.3-1.2,1-1.2,1.7c-0.1,0.8,0.3,1.5,0.9,1.9c0.3,0.2,7.8,5.2,19.1,5.2
	c11.7,0,21.9-3.5,26.3-5.3c1.1,2.9,3.8,7.9,10.4,16.5c7.7,10,10.4,12.5,14.4,14.9c6.2,3.7,11.9,2.3,19.2,0.6
	c5.9-1.4,13.2-3.2,23.5-3.2c14.4,0,25.2,2.7,31.7,4.4c2.9,0.7,4.9,1.2,6.2,1.2c4.8,0,8.4-0.5,11-2.9c4.4-3.8,10.4-10.4,16.1-17.7
	c5-6.4,7.1-10.8,8-13.3c4.7,1.7,16.2,5.4,26.1,5.4c12.9,0,19.2-4.9,19.5-5.2c0.6-0.4,0.8-1.1,0.8-1.8
	C238.6,279.9,238.2,279.3,237.5,278.9z M224.7,263.4c-1.9,1.7-3.5,2.7-5.4,3.8c-0.1,0.1-0.2,0.1-0.3,0.2c0,0.1,0.2,0.2,0.2,0.4
	c0.5,0.4,0.8,0.8,1.3,1.3c2,2,3.1,3.1,5.3,4.8c0.8,0.6,1.2,0.9,1.9,1.5c1.3,1,2.3,1.6,3.4,2.4c-0.3,0.2-0.7,0.4-1.1,0.6
	c-4.5,2.4-7.8,2.1-13,2c-1.5,0-2.3-0.1-3.8-0.3c-3-0.3-4.7-0.6-7.7-1.3c-4.9-1.2-7.7-2.1-12.3-4.3c-1.6-0.7-2.7-1.3-4.1-2
	c-0.5-1.3-1.3-2.3-2.4-3.6c-0.4-0.5-0.7-0.8-1.2-1.3c-2.8-2.9-5-3.9-8.5-5.9c-1-0.5-1.7-0.9-2.6-1.4c-0.1-0.1,0-0.2,0-0.3
	c0.5-0.7,1-1.4,1.5-2.2c0.4-0.6,0.8-1.3,1.2-1.9l0.2-0.3c0.6-0.9,1.1-1.7,1.6-2.6c0.6-0.9,1.1-1.8,1.7-2.7c1.4-2.2,2.7-4.5,3.9-6.8
	c0.8,0.4,1.1,0.6,1.6,0.9c1.9,1.1,2.9,1.8,4.9,2.8c2.1,1.1,3.3,1.8,5.4,2.8c1,0.4,1.5,0.7,2.5,1.1c3.1,1.3,4.9,2.1,8.2,3.1
	c2.3,0.7,3.6,1,5.9,1.5c0.9,0.2,1.2,0.3,2.4,0.4c2.3,0.4,4.2,0.6,6.8,0.4c1.4-0.1,2.2-0.2,3.6-0.4c2.2-0.4,3.7-0.9,5.5-1.5
	c0,0.1,0.1,0.1,0.1,0.2C229.6,258,227.8,260.6,224.7,263.4z M168.2,269.3c1.9-2.5,3.2-4.3,4.7-6.6c0.7-0.1,1,0.3,1.6,0.6
	c1,0.4,1.6,0.8,2.6,1.3c1.1,0.6,1.7,1,2.8,1.6c0.7,0.4,1.1,0.7,1.7,1.2c2.7,2.1,4.9,4,5.5,6.9c0.3,1.4-0.3,3-1.6,3.8
	c-0.4,0.2-0.8,0.4-1.3,0.7c-0.8,0.3-1.3,0.5-2.2,0.7c-3.1,0.7-5.1,0.2-8.3-0.1c-2.1-0.2-3.2-0.5-5.3-0.9c-2.5-0.5-4.3-0.9-6.4-1.4
	C162.2,276.6,165.8,272.4,168.2,269.3z M227.7,162.5c0.1,0,0.4-0.3,0.6-0.5c0.1,0.1,0.1,0.1,0.1,0.2c-0.4,1.4-0.4,2.6-0.3,4.3
	c0.1,2.3,1,3.4,1.4,5.7c0.4,2.1,0.5,3.3,0,5.4c-0.5,2.2-1.1,3.6-2.4,5.1c-0.2,0.2-0.3,0.1-0.3-0.1c0.6-2.1,0.8-4.1,0.5-6.8
	c-0.2-1.7-0.6-2.8-1.1-4.2c-0.1-0.1-0.1-0.3-0.2-0.3c-0.4,0.9-0.7,1.8-0.9,3c-0.3,1.6-0.1,2.7-0.1,4.1c0,0.2-0.1,0.1-0.2,0
	c-0.3-0.6-0.5-1.3-0.7-2.1c-0.2-0.4-0.2-0.6-0.3-1c-0.4-1.7-0.5-2.7-0.3-4.4C223.9,167.3,225.1,164.6,227.7,162.5z M214.2,172.1
	c0-0.4-0.1-0.6-0.1-1c-0.2-2.5-1-3.9-1-6.4c0-0.2,0-0.2,0-0.5c0.1-3.5,1.2-6.4,4.1-8c0.2-0.1,0.6-0.4,0.7-0.2
	c0.1,0.1-0.3,0.6-0.4,0.9c-0.4,0.9-0.7,1.4-0.9,2.3c-0.3,1.5-0.2,2.6-0.3,3.8c0,1,0.2,2.1,0,3c0,0.7,0,1.4-0.2,2.3
	c-0.1,0.5-0.2,0.8-0.4,1.4c-0.2,0.6-0.3,0.9-0.6,1.4c-0.3,0.5-0.5,0.7-0.7,1.1C214.3,172.2,214.2,172.1,214.2,172.1z M212.9,225.2
	c-1.1-0.4-1.8-1.2-2.7-1.9c-0.6-0.7-1.2-1.4-1.7-2.2c-2.1-2.8-2.8-6.4-2.8-9.9c0.1-2.5,0.3-5.2,1.2-7.5c0.3-1.1,0.8-2,1.2-3.1
	c0.5-1.6,1.2-3.1,1.6-4.7c0.9-2.9,0.9-6.2-0.7-8.8c0-0.2-0.1-0.3-0.1-0.4c1.6-0.1,3.1,0.6,4.2,1.7c0.2-0.9,0.2-1.6,0.3-2.7
	c0.8-6.4,0.7-11.1,5.1-15.8c0.6-0.6,0.9-1.2,1.6-1.4c0.1,0.1,0,0.2,0,0.3c-0.1,4.3,1.3,8.2,3,11.9c0.8,1.9,1.7,3.8,2.6,5.7
	c2.1,4.7,4.1,9.8,4,15c0.7-1.1,1.6-2,2.7-2.8c1.1-0.8,2.2-1.4,3.4-1.7c0,0.1,0.1,0.1,0.1,0.2c-0.9,2-1.2,4.3-1.4,6.6
	c-0.1,1.8,0,3.5,0,5.3c0.3,4.5-0.5,9-3.3,12.6c-1.6,1.9-3.5,3.6-5.9,3.9l-0.1-0.1l-0.1,0.1c0,0-0.1,0-0.1-0.1
	c1.3-2.1,1.6-4.7,1.2-7.2c-0.4-2.4-1.4-4.5-2.7-6.6c-0.4-0.9-1.1-1.6-1.5-2.5c-1.6-2.3-2.6-5-3.2-7.7c-0.9,2.2-2.4,4.3-3.9,6.2
	c-1.6,2.4-2.8,5.1-3,8.1c-0.1,1.4,0.1,2.6,0.2,4c0.2,2.1,1.3,4.2,2.2,6C213.9,225.7,213.3,225.4,212.9,225.2z M215.9,223.4
	c-0.6-1.2-0.9-2.4-1.2-3.7c-0.5-4,0.5-8.4,3.7-11.1c0,0,0.1-0.2,0.3,0c0,0,0,0.5,0.1,0.9c0.4,1.8,1.3,2.5,2.3,4.1
	c1,1.6,1.7,2.5,2.2,4.3c0.2,0.6,0.2,1,0.3,1.6c0.2,1.7,0.2,2.8-0.7,4.3c-0.3,0.4-0.4,0.7-0.8,1c-0.3,0.3-0.5,0.8-1,0.7
	c0-0.3,0-0.6,0.1-0.9c0-0.8,0.1-1.8-0.1-2.6c-0.2-0.7-0.5-1.4-0.8-2.1c-0.6-1.3-1.4-2.5-1.6-3.8c-0.2,0.1-0.3,0.3-0.4,0.4
	c-1,1.4-1.4,3.2-1.4,5c0.1,1.3,0.4,2.6,0.9,3.7c0.2,0.2,0,0.3-0.1,0.4C216.9,225.1,216.3,224.3,215.9,223.4z M210.5,228.9
	c-0.1-0.1,0-0.2-0.1-0.3c0-0.1,0.1-0.1,0.1-0.2c5.3-2,12.1-1.9,17.5-0.1c0,0.1,0.1,0.3,0,0.4c-0.4,0.2-0.8,0.3-1.1,0.5
	c-1.3,0.5-2.4,1.5-3.3,2.6c-0.3,0.5-0.6,1.1-0.9,1.6c-2.6-0.1-0.7-0.1-3.9-0.1c-2.6,0-2.1,0-3.7,0.1c-0.2-0.6-0.5-1.2-0.9-1.7
	C213.3,230.4,212,229.3,210.5,228.9z M211.9,243.4c-0.9-0.3-1.5-1.1-1.7-2c-0.1-1,0.2-1.9,1-2.4c1.2-0.7,3-0.5,4.3-0.5
	c0-1.2,0-1.9,0-3.3c0.1,0,0.3,0,0.4,0c2.3,0,6.4,0,6.8-0.1c0,1.2,0,2.3,0,3.4c1.4,0,2.5-0.2,3.7,0.1c0.9,0.3,1.6,1.1,1.7,2
	c0.1,1-0.3,2-1.1,2.5c-0.6,0.4-1.4,0.4-2.2,0.5c-0.7,0-1.4,0-2.1,0c0,1.8,0,2.7,0,4.5c0,0.2,0,0.3,0,0.4c-2.2,0-4.8,0-7-0.4
	c-0.1,0-0.1-0.1-0.1-0.4c0-1.8,0-2.4,0-4.1h-1.1C213.6,243.6,212.7,243.7,211.9,243.4z M188.9,240.2c2.4,1.3,3.8,2.2,6.3,3.4
	c1,0.5,1.5,0.7,2.5,1.2c1.8,0.8,2.8,1.2,4.6,2c3.8,1.5,6,2.4,10.1,3.4c2.5,0.6,3.9,0.9,6.4,1.1c3.1,0.2,4.9,0.3,7.9-0.3
	c1.6-0.3,2.6-0.5,4.1-1.1c1.5-0.6,2.4-1.2,3.6-1.9c0.1,0,0.1,0,0.1,0.1c-0.1,0.7-0.5,1.4-0.8,2c-0.2,0.3-0.3,0.7-0.5,1
	c-0.6,0.2-1.2,0.5-1.9,0.8c-1.7,0.6-2.7,1-4.4,1.4c-1.1,0.2-1.7,0.3-2.8,0.4c-3.2,0.3-5,0.1-8.1-0.3c-3.2-0.4-5-1-8-1.9
	c-6.1-1.8-9.3-3.4-15-6.2c-1.6-0.8-2.5-1.3-4.1-2.2c-1.1-0.6-1.8-1-2.8-1.5c-0.1-0.1,0.1-0.3,0.1-0.4c0.3-0.7,0.7-1.3,1-2
	C188.3,239.9,188.2,239.9,188.9,240.2z M28,69.4c-0.3-0.1-0.4-0.2-0.6-0.3c-0.3-0.2-0.5-0.3-0.8-0.5c-0.2-0.2-0.3-0.3-0.5-0.5
	c-0.1-0.2-0.2-0.3-0.3-0.5c-0.1-0.2-0.2-0.4-0.2-0.7c-0.1-0.3-0.1-0.5-0.1-0.8c0-0.5,0-0.8,0.2-1.2c0.1-0.3,0.1-0.5,0.3-0.8
	c0.2-0.3,0.3-0.5,0.6-0.8c0.2-0.2,0.3-0.3,0.5-0.4c0.2-0.2,0.3-0.2,0.6-0.3c0.3-0.1,0.5-0.2,0.8-0.2c0.4,0,0.8-0.1,1.1,0.1
	c0.2,0.1,0.4,0.2,0.5,0.4V63c-0.3,0.1-0.6,0.2-0.9,0.3c-0.3,0.2-0.5,0.3-0.7,0.5c-0.2,0.2-0.3,0.4-0.4,0.7C28,64.7,28,64.8,27.9,65
	c0,0.2,0,0.2,0,0.4c0,0.2,0,0.4,0.1,0.6s0.1,0.3,0.2,0.5c0.1,0.2,0.2,0.2,0.3,0.4c0.1,0.2,0.3,0.2,0.4,0.3c0.3,0.2,0.5,0.2,0.9,0.2
	c0.2,0,0.4,0,0.6-0.1c0.3-0.1,0.4-0.1,0.7-0.2c0.3-0.1,0.5-0.2,0.8-0.4c0.5-0.4,0.7-0.8,1.1-1.3c0.2-0.3,0.3-0.5,0.4-0.8
	c0.3-0.5,0.4-0.9,0.6-1.4c0.1-0.4,0.2-0.7,0.3-1.1c0.1-0.5,0.2-1.3,0.2-1.3s0.1-1.2,0.1-2c0-1,0-1.6-0.3-2.6
	c-0.1-0.5-0.2-0.8-0.4-1.3c-0.2-0.5-0.3-0.8-0.5-1.2C33,53,32.7,52.6,32.2,52c-0.5-0.5-0.9-0.8-1.3-1.1c0-0.1,0,0,0.1-0.1
	c4.2,0,8.4,0,12.5,0c0.3-0.3,0.4-0.5,0.6-0.9c0.2-0.3,0.2-0.5,0.3-0.8c0.2-0.6,0.2-0.9,0.2-1.5s0-1-0.1-1.6
	c-0.1-0.4-0.1-0.6-0.2-0.9c-0.2-0.4-0.3-0.7-0.5-1c-0.2-0.3-0.3-0.4-0.5-0.6c-0.3-0.2-0.4-0.3-0.7-0.4C42.4,43,42.2,43,42,42.9
	c-0.2,0-0.4,0-0.6,0c-0.2,0-0.3,0.1-0.4,0.2c-0.2,0.1-0.2,0.1-0.4,0.3c-0.2,0.2-0.3,0.3-0.4,0.6c-0.1,0.3,0,0.5,0.1,0.8
	c0.1,0.2,0.1,0.3,0.3,0.5c0.2,0.2,0.3,0.2,0.6,0.3c0.3,0,0.6-0.1,0.8-0.3c0-0.1,0.3-0.2,0.4-0.1c0,0.3-0.1,0.6-0.3,0.9
	c-0.2,0.3-0.3,0.4-0.5,0.6c-0.2,0.1-0.3,0.2-0.5,0.2C40.8,47,40.7,47,40.4,47c-0.4,0-0.7-0.1-1.1-0.2c-0.3-0.2-0.5-0.3-0.8-0.6
	c-0.2-0.2-0.3-0.3-0.4-0.6C38,45.3,38,45,37.9,44.7c0-0.4,0-0.7,0-1.1c0.1-0.5,0.2-0.8,0.4-1.1c0.1-0.2,0.3-0.3,0.4-0.5
	c0.2-0.2,0.3-0.3,0.5-0.5c0.3-0.2,0.5-0.3,0.9-0.4s0.6-0.2,1-0.2c0.5,0,0.8,0,1.3,0.2c0.3,0.1,0.5,0.2,0.8,0.3
	c0.5,0.2,0.9,0.5,1.2,0.8c-0.1-0.9-0.2-1.6-0.2-2.6c0-0.9,0-1.4,0.2-2.3c0.1-0.5,0.2-0.9,0.4-1.4c0.2-0.4,0.2-0.6,0.5-0.9
	c0.2-0.2,0.4-0.4,0.5-0.4c0.3,0.3,0.4,0.6,0.7,1c0.3,0.6,0.4,1,0.5,1.6c0.1,0.5,0.2,0.8,0.2,1.3s0,0.8,0,1.2c0,1-0.2,1.7-0.3,2.6
	c0.2-0.1,0.3-0.2,0.5-0.4c0.3-0.2,0.5-0.4,0.9-0.5c0.2-0.1,0.4-0.1,0.7-0.2c0.5-0.1,0.8-0.1,1.3-0.1c0.2,0,0.3,0,0.5,0.1
	c0.5,0.1,0.7,0.2,1.1,0.5c0.2,0.1,0.3,0.2,0.5,0.4c0.4,0.4,0.6,0.6,0.8,1.1c0.1,0.3,0.2,0.4,0.2,0.8c0.1,0.6,0,0.9-0.2,1.4
	c-0.2,0.5-0.3,0.8-0.7,1.1c-0.2,0.1-0.2,0.2-0.4,0.3c-0.2,0.1-0.3,0.1-0.5,0.2c-0.3,0.1-0.5,0.2-0.9,0.2c-0.3,0-0.4,0-0.7-0.1
	s-0.4-0.1-0.6-0.3c-0.1-0.1-0.2-0.2-0.3-0.3c-0.1-0.2-0.2-0.3-0.2-0.5c-0.1-0.3,0-0.5,0-0.8c0,0,0.1-0.1,0.1,0c0,0,0.1,0.2,0.2,0.3
	c0.1,0.1,0.2,0.1,0.3,0.1c0.3,0.1,0.5,0.1,0.9-0.1c0.1-0.1,0.2-0.1,0.3-0.2c0.1-0.1,0.2-0.2,0.3-0.4c0.1-0.2,0.1-0.4,0.1-0.7
	c0-0.3-0.1-0.5-0.3-0.7c-0.2-0.3-0.5-0.3-0.9-0.4c-0.2,0-0.4,0-0.6,0c-0.4,0.1-0.6,0.2-1,0.4c-0.2,0.1-0.3,0.2-0.5,0.4
	c-0.2,0.2-0.2,0.3-0.4,0.5c-0.2,0.2-0.2,0.4-0.3,0.7c-0.2,0.6-0.3,1-0.4,1.6c0,0.4,0,0.7,0,1.1c0,0.4,0,0.6,0.1,1
	c0.1,0.4,0.1,0.6,0.2,0.9c0.2,0.5,0.3,0.8,0.6,1.2c3.2,0,5.3,0,8.9,0c0,0-0.4-0.3-0.6-0.4c-0.2-0.2-0.3-0.3-0.5-0.5
	c-0.2-0.2-0.3-0.3-0.4-0.6c-0.2-0.4-0.3-0.5-0.3-1c0-0.1,0-0.2,0-0.2s0.2,0.1,0.3,0.1s0.2,0.1,0.3,0.1c0.4,0.1,0.6,0.2,0.9,0.3
	c0.7,0.2,1.1,0.1,1.8,0c0.3,0,0.5-0.1,0.8-0.1c0.5-0.1,0.8-0.3,1.3-0.5c0.6-0.3,0.9-0.6,1.5-1c1.9-1.3,2.7-2.5,4.6-3.9
	c1-0.8,1.6-1.2,2.7-1.9c0.6-0.3,0.9-0.5,1.5-0.8c1.1-0.5,2-0.8,3-1.1c-0.1-0.2-0.3-0.2-0.5-0.4c-0.2-0.2-0.2-0.2-0.4-0.4
	c-0.2-0.2-0.2-0.4-0.3-0.6c-0.1-0.2-0.1-0.4-0.1-0.6c0-0.2,0-0.3,0-0.5c0-0.2,0.1-0.4,0.1-0.6c0.1-0.3,0.2-0.5,0.4-0.8
	c0.1-0.1,0.2-0.1,0.2-0.2h0.1c0,0,0.2,0.4,0.4,0.7c0.2,0.3,0.3,0.5,0.6,0.7c0.4,0.4,0.8,0.5,1.3,0.7c0.3,0.1,0.5,0.1,0.8,0.2
	c1,0.2,1.5,0.1,2.5,0.1c1.4,0,2.1,0,3.5,0c0.9,0,1.3,0.1,2.2,0.2c1.2,0.2,2,0.3,3,0.6c-0.2-0.5-0.3-1-0.4-1.6
	c-0.1-0.5-0.1-0.9,0-1.4c0-0.3,0.1-0.4,0.2-0.7c0.2-0.6,0.3-0.9,0.7-1.4c0.3-0.4,0.4-0.6,0.8-0.9c0.5-0.4,0.9-0.6,1.5-0.8
	c0.4-0.1,0.6-0.2,1-0.2c0.8-0.1,1.3-0.1,2.1,0.3c0.5,0.2,0.7,0.4,1.1,0.8c0.3,0.3,0.4,0.5,0.6,0.9c0.1,0.2,0.1,0.4,0.2,0.6
	c0,0.3,0,0.4,0,0.7c-0.1,0.4-0.2,0.7-0.5,1.1c-0.1,0.2-0.2,0.2-0.4,0.4c-0.1,0.1-0.2,0.2-0.4,0.2c-0.2,0.1-0.3,0.1-0.6,0.1
	c-0.2,0-0.4,0-0.6,0s-0.3-0.1-0.5-0.2s-0.2-0.1-0.4-0.2c-0.2-0.2-0.3-0.3-0.5-0.5c-0.1-0.2-0.2-0.3-0.2-0.4
	c-0.1-0.3-0.1-0.5-0.1-0.9c0-0.3,0.1-0.5,0.2-0.8h-0.2c0,0-0.4,0.3-0.7,0.5c-0.1,0.1-0.2,0.2-0.3,0.3c-0.2,0.3-0.2,0.4-0.4,0.7
	c-0.1,0.4-0.2,0.6-0.2,1.1c0,0.2,0,0.3,0,0.6c0,0.2,0.1,0.4,0.1,0.6c0.1,0.3,0.2,0.4,0.3,0.7c0.2,0.3,0.3,0.5,0.6,0.8
	c0.2,0.2,0.3,0.3,0.5,0.5c0.3,0.2,0.4,0.4,0.8,0.6s0.6,0.3,1,0.5s0.6,0.2,1,0.3c0.6,0.2,1,0.2,1.6,0.3c1,0.1,1.6,0.1,2.6-0.2
	c0.7-0.2,1.2-0.4,1.7-0.7v-0.1c0,0-0.3-0.2-0.5-0.4c-0.2-0.1-0.2-0.2-0.4-0.4c-0.2-0.3-0.3-0.5-0.3-0.8c-0.1-0.3-0.1-0.5,0-0.9
	c0.1-0.4,0.2-0.6,0.4-0.9c0.1-0.1,0.3-0.3,0.3-0.3c0.1,0.2,0.2,0.4,0.4,0.6c0.2,0.2,0.3,0.3,0.4,0.5c0.2,0.2,0.3,0.3,0.6,0.4
	c0.2,0.1,0.4,0.2,0.6,0.3c0.3,0.1,0.5,0.1,0.8,0.2c0.3,0.1,0.5,0.1,0.9,0.1s0.7,0,1.1-0.1c0.4-0.1,0.6-0.1,0.9-0.3
	c0.3-0.1,0.4-0.2,0.6-0.3c0.3-0.2,0.6-0.3,0.9-0.6c0.3-0.3,0.5-0.5,0.8-0.9c0.1-0.2,0.2-0.4,0.3-0.7c0.1-0.3,0.2-0.4,0.2-0.7
	c0-0.2,0-0.4-0.1-0.5c-0.1,0-0.6,0.4-1.2,0.4c-0.9,0-2.3-0.5-2.3-2c0-1.6,1.6-2.2,2.8-2.2c1.2,0,1.9,0.5,1.9,0.5
	c0.2,0.2,0.4,0.3,0.7,0.7c0.1-0.1,0.1-0.1,0.1-0.1c0.2-0.1,1.2,1.8,1.4,2.2c0.1,0.1,0,0.1,0,0c-0.1,0-0.2,0.1-0.2,0.1s0,0.4,0,0.7
	c0,0.5-0.1,0.8-0.3,1.4c-0.1,0.3-0.3,0.8-0.3,0.8s-0.6,1-1.1,1.6c-0.4,0.5-0.6,0.7-1.1,1.1c-0.7,0.6-1.1,0.9-1.8,1.5
	c-0.4,0.4-0.7,0.7-1.1,1.2c-0.5,0.7-0.8,1.2-1,2.1c0,0.3-0.1,0.4-0.1,0.7c0,0.4,0.1,0.6,0.2,0.9c-0.1,0.1-0.9,0.2-1.2,0.1
	c0,0-0.3-0.1-0.5-0.3c-0.2-0.1-0.2-0.2-0.4-0.3c-0.2-0.2-0.3-0.4-0.4-0.6c-0.1-0.2-0.1-0.3-0.1-0.6c0-0.2,0-0.4,0-0.6
	c0-0.2,0.1-0.3,0.1-0.4c-0.6,0.2-1.1,0.4-1.8,0.6c-0.9,0.2-1.6,0.2-2.3,0.2c0.6,0.8,1.3,1.4,1.9,2.4c0.3,0.5,0.5,0.7,0.8,1.2
	c0.4,0.7,0.6,1.2,0.9,1.9c0.2,0.5,0.3,0.8,0.4,1.2c0.2,0.9,0.3,1.4,0.4,2.3c0.1,0.6,0.1,0.9,0.1,1.5c0,0.5,0,0.9,0,1.4
	c0,0.6-0.1,1-0.2,1.6c-0.2,0.9-0.3,1.4-0.6,2.3c-0.1,0.4-0.2,0.6-0.4,1c-0.2,0.6-0.4,0.9-0.7,1.4c-0.2,0.4-0.4,0.6-0.7,1
	c-0.5,0.8-0.9,1.2-1.5,1.9c-0.4,0.4-0.6,0.6-1,0.9c-0.4,0.4-0.7,0.6-1.2,1s-0.9,0.5-1.4,0.9c-0.4,0.2-0.6,0.3-0.9,0.5
	c-0.5,0.3-0.9,0.4-1.4,0.6c-0.8,0.3-1.3,0.4-2.2,0.6c-1,0.2-1.5,0.2-2.5,0.2c-0.7,0-1.1,0-1.8,0c-0.8,0-1.2-0.1-2-0.2
	c-0.6-0.1-0.9-0.2-1.5-0.3c-1.2-0.3-1.9-0.5-3.1-0.9c-1.9-0.7-2.6-1-4.5-1.6c-1.3-0.4-2.1-0.6-3.5-0.8c-0.6-0.1-1-0.2-1.6-0.2
	c-1.1-0.1-1.7-0.1-2.8,0c-1.1,0.1-1.8,0.2-2.9,0.5c-1.2,0.4-2.6,1.2-2.9,1.3c0-0.4,0-0.8,0.1-1.3c0.1-0.3,0.1-0.4,0.3-0.7
	c0.1-0.2,0.2-0.4,0.4-0.6c0.2-0.3,0.3-0.4,0.6-0.6c0.2-0.2,0.4-0.3,0.7-0.5c0.3-0.2,0.5-0.3,0.9-0.4c0.6-0.3,1.1-0.4,1.7-0.6
	c-0.5-0.4-1-0.6-1.7-1c-1.5-0.8-2.3-1.2-3.9-1.8c-0.9-0.4-1.5-0.5-2.4-0.9c-0.9-0.3-1.5-0.5-2.4-0.7c-0.8-0.2-1.2-0.3-2-0.4
	c-0.6-0.1-0.9-0.1-1.5-0.1c-0.8,0-1.2-0.1-1.9,0c-0.8,0.1-1.2,0.2-2,0.4c-0.5,0.2-0.9,0.3-1.4,0.5c-0.6,0.3-0.9,0.5-1.5,0.9
	c-0.2,0.2-0.4,0.3-0.6,0.5c-0.3,0.3-0.4,0.5-0.6,0.9c-0.2,0.2-0.2,0.4-0.4,0.6c-0.1,0.3-0.2,0.4-0.3,0.7c-0.1,0.5-0.2,0.8-0.2,1.3
	c0,0.3,0,0.5,0.1,0.9c0.1,0.4,0.2,0.6,0.4,1c0.2,0.4,0.4,0.6,0.8,0.9c0.3,0.3,0.5,0.4,0.9,0.7c0.3,0.1,0.4,0.2,0.7,0.3
	c0.5,0.2,0.9,0.3,1.4,0.3s0.9,0,1.4-0.2c0.3-0.1,0.5-0.2,0.8-0.3c0.2-0.1,0.3-0.2,0.4-0.3c-0.2-0.2-0.4-0.3-0.6-0.5
	c-0.2-0.2-0.2-0.3-0.4-0.5c-0.1-0.2-0.2-0.4-0.2-0.7c0-0.2,0-0.3,0-0.5s0.1-0.4,0.1-0.6c0.1-0.2,0.2-0.4,0.3-0.6
	c0.2-0.3,0.4-0.5,0.7-0.7c0.2-0.1,0.4-0.1,0.7-0.2c0.3,0,0.4,0,0.7,0c0.2,0,0.4,0.1,0.6,0.1c0.2,0.1,0.3,0.1,0.4,0.2
	c0.2,0.2,0.4,0.2,0.6,0.5c0.1,0.2,0.2,0.3,0.3,0.5c0.1,0.2,0.1,0.3,0.1,0.5c0.1,0.5,0.1,0.7,0,1.2c-0.1,0.3-0.1,0.5-0.2,0.8
	c-0.1,0.2-0.2,0.3-0.3,0.6c-0.2,0.3-0.3,0.4-0.5,0.7c-0.2,0.3-0.4,0.4-0.7,0.6c-0.3,0.2-0.4,0.3-0.7,0.5c-0.6,0.4-1,0.5-1.7,0.7
	c-0.3,0.1-0.5,0.1-0.9,0.2s-0.6,0.1-1,0.1s-0.6,0-1-0.1c-0.4,0-0.7-0.1-1.1-0.2c-0.4-0.1-0.6-0.2-1-0.4c-0.3-0.2-0.5-0.2-0.9-0.4
	c-0.3-0.2-0.5-0.3-0.8-0.6c-0.3-0.3-0.5-0.4-0.8-0.8c-0.2-0.3-0.3-0.5-0.5-0.8c-0.2-0.4-0.3-0.6-0.4-1C40,65.5,40,65.3,39.9,65
	c-0.1-0.5-0.1-0.7-0.1-1.2c0-0.4,0-0.6,0.1-0.9c0.1-0.6,0.2-1,0.4-1.6c0.1-0.3,0.2-0.4,0.3-0.7c0.3-0.5,0.4-0.8,0.8-1.2
	c0.3-0.4,0.5-0.5,0.8-0.9c0.3-0.3,0.5-0.4,0.8-0.7c0.3-0.2,0.5-0.4,0.9-0.6c0.6-0.3,0.9-0.5,1.6-0.8c0.4-0.2,0.7-0.2,1.2-0.3
	s0.8-0.1,1.3-0.2c0.9-0.1,1.4-0.2,2.3-0.2c0.8,0,1.3,0,2.1,0.1c0.7,0.1,1.1,0.1,1.8,0.2c0.7,0.1,1.1,0.2,1.7,0.4
	c1,0.3,1.6,0.5,2.5,0.9c1.6,0.6,2.5,0.9,4.1,1.6c1.1,0.5,1.8,0.8,2.8,1.4c0.7,0.4,1.1,0.7,1.7,1c-0.1-0.4-0.1-0.5-0.1-0.9
	c0-0.2,0-0.3,0.1-0.5c0.1-0.3,0.1-0.5,0.4-0.8c0.1-0.2,0.2-0.2,0.4-0.4c0.2-0.1,0.3-0.2,0.5-0.2c0.3-0.1,0.9-0.2,0.9-0.2
	s-0.1,0.1-0.1,0.2c-0.1,0.4,0,0.6,0,1c0,0.3,0.1,0.5,0.2,0.8c0.1,0.2,0.1,0.3,0.3,0.5c0.1,0.2,0.3,0.3,0.4,0.5
	c0.3,0.3,0.5,0.4,0.9,0.7s0.6,0.4,1,0.7c1,0.6,1.6,0.8,2.6,1.2c1.5,0.6,2.6,1,4,1.4c-0.4-0.6-0.7-1-1-1.7c-0.2-0.4-0.3-0.6-0.4-1
	c-0.1-0.5-0.2-0.8-0.2-1.4c-0.1-0.7,0-1.1,0.1-1.8c0.1-0.7,0.2-1,0.5-1.6c0.1-0.3,0.2-0.5,0.4-0.8c0.2-0.3,0.3-0.5,0.6-0.8
	c0.2-0.3,0.4-0.4,0.6-0.7c0.6-0.5,1-0.8,1.7-1.2c0.3-0.1,0.4-0.2,0.8-0.3c0.8-0.3,1.4-0.4,2.3-0.5c0.4,0,0.7,0,1.1,0s0.6,0.1,1,0.2
	c0.4,0.1,0.6,0.2,0.9,0.3c0.4,0.2,0.7,0.3,1.1,0.6c0.2,0.1,0.3,0.2,0.5,0.4s0.3,0.3,0.4,0.6c0.2,0.4,0.3,0.6,0.4,1.1
	c0,0.2,0,0.4,0,0.6c0,0.4-0.1,0.7-0.3,1.1s-0.3,0.6-0.6,0.9c-0.2,0.2-0.3,0.3-0.5,0.4c-0.2,0.1-0.3,0.1-0.5,0.2
	c-0.3,0.1-0.5,0.1-0.8,0.2c-0.2,0-0.4,0-0.6,0c-0.3,0-0.4-0.1-0.7-0.2c-0.2-0.1-0.3-0.2-0.5-0.3c-0.2-0.2-0.3-0.3-0.4-0.5
	c-0.1-0.2-0.2-0.3-0.2-0.5C84,58.4,84,58.3,84,58.1c0-0.2,0-0.3,0.1-0.6c0-0.2,0.1-0.3,0.2-0.5c0.1-0.2,0.2-0.3,0.3-0.4
	c0.3-0.2,0.5-0.4,0.8-0.5c0.1-0.1-0.1-0.1-0.1-0.1c-0.2-0.1-0.3-0.1-0.6-0.1c-0.4,0-0.6,0-1,0c-0.7,0.1-1,0.3-1.6,0.6
	c-0.3,0.2-0.5,0.3-0.8,0.6c-0.3,0.3-0.5,0.5-0.8,0.9c-0.2,0.2-0.3,0.4-0.4,0.7c-0.2,0.3-0.2,0.5-0.3,0.9c-0.1,0.3-0.1,0.5-0.1,0.9
	c0,0.5,0,0.8,0.1,1.4c0.1,0.4,0.1,0.6,0.2,0.9c0.3,1,0.7,1.5,1.4,2.2c0.2,0.2,0.4,0.3,0.7,0.5c0.3,0.2,0.5,0.3,0.9,0.5
	c0.5,0.2,0.7,0.3,1.2,0.4c0.3,0,0.4,0.1,0.7,0.1c0.5,0,0.8,0,1.2,0c0.5,0,0.8-0.1,1.3-0.2c0.5-0.1,0.7-0.3,1.1-0.5
	c0.5-0.3,0.8-0.4,1.2-0.8c0.4-0.4,0.5-0.6,0.7-1.1c0.1-0.2,0.2-0.3,0.2-0.6c0.1-0.5,0-0.9-0.1-1.4c0.2,0.1,0.4,0.1,0.6,0.2
	c0.2,0.1,0.3,0.1,0.4,0.2c0.3,0.2,0.4,0.3,0.6,0.5c0.2,0.3,0.3,0.4,0.5,0.7c0.2,0.4,0.2,0.7,0.3,1c0.4-0.2,0.8-0.4,1.2-0.7
	c0.3-0.2,0.4-0.4,0.7-0.7c0.2-0.3,0.3-0.4,0.5-0.7c0.7-1.1,0.9-1.8,1.1-3c0-0.3,0.1-0.4,0.1-0.7c0-0.5,0-0.8,0-1.4
	c0-0.4-0.1-0.6-0.2-1.1c-0.1-0.6-0.2-0.9-0.5-1.4c-0.2-0.4-0.3-0.6-0.6-1c-0.2-0.2-0.3-0.4-0.6-0.6c-0.2-0.2-0.3-0.3-0.6-0.4
	c-0.2-0.1-0.4-0.2-0.7-0.3c-0.3-0.1-0.4-0.1-0.7-0.2c-0.2,0-0.4,0-0.6,0c-0.4,0-0.6,0-0.9,0.1c-0.5,0.2-0.9,0.4-1.3,0.6l-0.1-0.1
	c-0.2-0.4-0.2-0.7-0.2-1.2c0-0.3,0-0.5,0-0.9c0.1-0.5,0.1-0.8,0.3-1.2c0.1-0.2,0.2-0.4,0.3-0.6c0.2-0.3,0.3-0.5,0.6-0.7
	c0.2-0.2,0.3-0.3,0.6-0.4c0.4-0.3,0.8-0.4,1.1-0.5c0-0.1-0.1-0.2-0.1-0.3c-0.2-0.4-0.4-0.5-0.7-0.8c-0.6-0.6-1-0.9-1.7-1.3
	c-0.5-0.3-0.8-0.4-1.4-0.7c-0.4-0.2-0.7-0.2-1.1-0.4c-0.6-0.2-1-0.3-1.6-0.4c-0.8-0.1-1.2-0.1-2-0.1c-0.4,0-0.7,0.1-1.1,0.1
	C82,43.6,81.6,43.7,81,44s-0.9,0.4-1.4,0.8c-0.3,0.2-0.4,0.3-0.7,0.6c-0.4,0.3-0.5,0.6-0.8,1c-0.3,0.4-0.5,0.7-0.7,1.2
	c-0.2,0.5-0.3,0.9-0.4,1.4s-0.1,0.8,0,1.3c0,0.3,0.1,0.4,0.1,0.7c0.1,0.4,0.2,0.7,0.3,1c0,0-0.6,0.1-1,0.1c-0.3,0-0.5-0.1-0.8-0.2
	c-0.3-0.1-0.5-0.2-0.9-0.4c-0.4-0.2-0.5-0.4-0.9-0.7c-0.4-0.4-0.6-0.7-0.9-1.2c-0.2-0.3-0.2-0.4-0.4-0.7c-0.2-0.4-0.3-0.8-0.4-1.1
	c-0.3,0.3-0.5,0.5-0.7,0.9c-0.2,0.3-0.3,0.5-0.4,0.8c-0.3,0.6-0.4,0.9-0.5,1.5c-0.2,0.7-0.2,1.2-0.3,1.9c0,0.4,0,0.7,0,1.1
	c0,0.9,0.1,1.6,0.2,2.4l-0.1,0.1c-0.3,0.1-0.6,0-0.9-0.1c-0.3-0.2-0.4-0.3-0.7-0.5c-0.3-0.2-0.4-0.4-0.7-0.6
	c-0.3-0.3-0.4-0.5-0.6-0.9c-0.2-0.3-0.2-0.4-0.4-0.8c-0.3-0.7-0.4-1.3-0.6-1.9c-0.4,0.3-0.6,0.7-1,1.1c-0.3,0.3-0.5,0.5-0.9,0.8
	c-0.6,0.5-1,0.8-1.6,1.1c-0.2-0.3-0.3-0.5-0.4-0.9c-0.2-0.6-0.2-0.9-0.3-1.5c0-0.4-0.1-0.7,0-1.1l-0.1-0.1c-0.2,0.1-0.3,0.2-0.3,0.2
	c-0.4,0.3-0.8,0.6-1.3,0.9c-0.2,0.1-0.4,0.2-0.6,0.3c-0.3,0.1-0.5,0.2-0.8,0.3c-1.1,0.3-1.9,0.3-2.8,0.3c-6.9,0-13.7,0-20.5,0
	c0.4,0.9,0.6,1.4,0.8,2.3c0.1,0.6,0.2,0.9,0.3,1.5c0.1,0.5,0.1,0.8,0.1,1.3c0,0.8,0.1,1.3,0,2.1c-0.1,0.6-0.1,1-0.3,1.6
	c-0.2,1-0.3,1.5-0.7,2.4c-0.1,0.4-0.2,0.6-0.4,1c-0.2,0.4-0.3,0.6-0.6,1.1c-0.2,0.3-0.3,0.5-0.5,0.8c-0.2,0.3-0.4,0.4-0.6,0.7
	c-0.3,0.3-0.4,0.4-0.7,0.6c-0.3,0.2-0.5,0.4-0.8,0.5c-0.5,0.3-0.8,0.4-1.4,0.5c-0.3,0.1-0.5,0.1-0.9,0.1s-0.7,0-1.1,0
	S28.4,69.5,28,69.4z M19.4,71.6h101.9c0-3.7,0.1-10.7,0-10.6c-0.3,0.6-0.4,1.1-0.7,1.9c-0.3,0.6-0.4,1.1-0.8,1.7
	c-0.4,0.6-0.6,1-1.1,1.6c-0.3,0.5-0.6,0.7-1,1.1c-0.4,0.3-0.5,0.4-0.9,0.7c-0.5,0.4-0.8,0.5-1.3,0.8c-0.4,0.2-0.6,0.3-1,0.4
	c-0.4,0.1-0.6,0.2-0.9,0.2c-0.6,0.1-1,0.2-1.6,0.1c-0.3,0-0.5,0-0.8-0.1c-0.4-0.1-0.6-0.2-1-0.3c-0.6-0.3-0.9-0.5-1.4-0.8
	c-0.4-0.3-0.6-0.4-0.9-0.7c-1.3-1-1.8-1.9-2.5-3.3c-0.3-0.4-0.4-0.7-0.6-1.2c-0.2-0.6-0.3-0.9-0.5-1.4c-0.2-0.6-0.3-1-0.4-1.6
	s-0.1-0.9-0.2-1.5c-0.1-0.7-0.1-1.1-0.1-1.9c0-0.6,0-1,0.1-1.7c0.1-0.7,0.2-1.1,0.4-1.9c0.2-0.9,0.4-1.4,0.7-2.2
	c0.3-0.5,0.4-0.9,0.7-1.4c0.2-0.4,0.4-0.6,0.6-1c0.3-0.5,0.5-0.8,0.9-1.2c0.4-0.4,0.6-0.6,1-0.9c0.6-0.5,1-0.8,1.7-1.2
	c0.6-0.3,1-0.4,1.7-0.5c0.3,0,0.4-0.1,0.6-0.1c0.6-0.1,1,0,1.6,0c0.3,0.1,0.4,0.1,0.7,0.1c0.8,0.2,1.2,0.4,1.9,0.8
	c0.6,0.4,0.9,0.7,1.4,1.2c0.3,0.3,0.5,0.5,0.8,0.8c0.5,0.6,0.8,1,1.2,1.7c0.4,0.7,0.6,1.1,0.9,1.8c0.2,0.4,0.3,0.7,0.5,1.2
	c0.1,0.5,0.3,1.2,0.3,1.2h0.1v-8.1c-0.7-0.5-1.2-0.8-1.9-1.4c-0.8-0.6-1.2-1-2-1.7c-0.7-0.6-1.1-1-1.8-1.7c-0.6-0.6-0.9-1-1.4-1.6
	c-0.5-0.5-0.7-0.8-1.1-1.4c-0.5-0.7-0.7-1.1-1.2-1.8c-0.5-0.8-0.8-1.2-1.2-2c-0.5-0.9-0.8-1.4-1.2-2.3c-0.4-1-0.6-1.6-1-2.6
	c-0.5-1.4-0.8-2.2-1.1-3.6c-0.2-1.2-0.4-1.9-0.5-3.1c-0.1-0.8-0.1-1.3-0.2-2.2c-0.1-1.4-0.2-2.2-0.1-3.6c0.1-1,0.1-1.7,0.3-2.6
	c0-0.1,0-0.1,0-0.1h0.2c0,0,0.5,0.6,0.8,0.9c0.4,0.2,0.6,0.4,0.9,0.6c0.4,0.3,0.6,0.5,1.1,0.7c0.9,0.5,1.4,0.7,2.3,1
	c0.4,0.2,0.6,0.2,0.9,0.3c1.2,0.3,1.9,0.3,3.2,0.3c0.6,0,1,0,1.6-0.1c0.6-0.1,0.9-0.2,1.4-0.4c0.5-0.2,0.8-0.4,1.2-0.7
	c0.3-0.2,0.4-0.3,0.6-0.5c0.3-0.4,0.5-0.6,0.7-1c0.2-0.4,0.2-0.7,0.3-1.1c0.1-0.4,0.1-0.6,0.1-0.9c0-0.2,0-0.4-0.1-0.6
	c-0.2-0.4-0.4-0.6-0.7-0.9c-0.3-0.2-0.5-0.3-0.8-0.4c-0.2-0.1-0.3-0.1-0.4-0.1c-0.2,0-0.3,0.1-0.5,0.1c-0.2,0-0.3,0.1-0.5,0.2
	c-0.4,0.3-0.6,0.5-0.8,0.9c-0.1,0.2-0.2,0.4-0.2,0.6s0,0.3,0,0.5s0,0.3,0.1,0.4c0,0.1,0.1,0.2,0.2,0.3c0,0.1,0,0.1-0.1,0.2
	c-0.6-0.1-0.4-0.1-0.7-0.2c-0.3-0.1-0.4-0.1-0.6-0.3c-0.2-0.2-0.3-0.3-0.4-0.5c-0.2-0.3-0.2-0.4-0.3-0.7c0-0.3-0.1-0.4-0.1-0.7
	s0-0.4,0-0.7c0-0.3,0.1-0.4,0.2-0.7c0.1-0.4,0.2-0.7,0.5-1c0.1-0.2,0.3-0.3,0.5-0.5c0.2-0.1,0.3-0.2,0.5-0.3
	c0.2-0.2,0.4-0.2,0.6-0.3c0.4-0.1,0.7-0.2,1.1-0.2c0.3,0,0.5,0,0.8,0.1c0.4,0.1,0.6,0.2,0.9,0.3c0.3,0.2,0.5,0.3,0.7,0.4
	c0-0.5-0.2-1-0.2-1.6s0-0.9,0.1-1.5c0.2-0.8,0.4-1.3,0.7-2.1c0.2-0.4,0.3-0.8,0.6-1.1c0.3,0.2,0.5,0.6,0.7,1
	c0.4,0.9,0.5,1.4,0.6,2.4c0.1,0.5,0.1,0.9,0.1,1.4c0,0.7-0.1,1.1-0.2,1.7c0,0.1,0.1,0.1,0.1,0.1c1-0.6,2.3-1,3.6-0.4
	c0.7,0.3,1.2,0.7,1.5,1.5c0.5,1,0.5,2-0.2,2.9c-0.5,0.6-1.1,0.9-1.8,0.9c-0.2-0.2,0.1-0.3,0.1-0.5c0.1-0.6,0.2-1-0.1-1.5
	c-0.3-0.8-1-1.1-1.8-1.1c-0.9,0.1-1.4,0.6-1.8,1.4c-0.5,0.9-0.1,2.5,0.9,3.6c0.5,0.5,0.9,0.7,1.5,1c0.4,0.2,0.7,0.4,1.2,0.5
	c0.5,0.2,0.9,0.2,1.5,0.2c0.3,0,0.4,0,0.6,0c2.6,0,4.2-0.3,6.5-1.6c1.2-0.7,1.9-1.2,2.7-2.1h0.1c0.5,3.9,0.3,8-0.6,11.9l-0.5,1.7
	c-0.4,1.4-1,2.8-1.6,4.2v0.1l0.1,0.1c0.3-0.4,0.5-0.5,0.7-0.7c0,0,0.7-0.5,1.9-0.5s2.8,0.6,2.8,2.2c0,1.5-1.4,2-2.3,2
	c-0.6,0-1.1-0.4-1.2-0.4c-0.1,0.1-0.1,0.3-0.1,0.5c0,0.3,0.1,0.4,0.2,0.7c0.1,0.3,0.2,0.5,0.3,0.7c0.3,0.4,0.5,0.6,0.8,0.9
	c0.3,0.3,0.6,0.4,0.9,0.6c0.2,0.1,0.3,0.2,0.6,0.3c0.3,0.2,0.5,0.2,0.9,0.3c0.4,0.1,0.7,0.1,1.1,0.1c0.4,0,0.6,0,0.9-0.1
	c0.3-0.1,0.5-0.1,0.8-0.2c0.2-0.1,0.4-0.2,0.6-0.3c0.3-0.1,0.4-0.2,0.6-0.4c0.1-0.2,0.2-0.3,0.4-0.5c0.2-0.2,0.3-0.4,0.4-0.6
	c0,0,0.2,0.2,0.3,0.3c0.2,0.3,0.3,0.5,0.4,0.9c0.1,0.4,0.1,0.6,0,0.9c0,0.3-0.1,0.5-0.3,0.8c-0.2,0.2-0.2,0.3-0.4,0.4
	c-0.2,0.2-0.5,0.4-0.5,0.4v0.1c0.5,0.3,1,0.5,1.7,0.7c1,0.3,1.6,0.3,2.6,0.2c0.6-0.1,1-0.1,1.6-0.3c0.4-0.1,0.6-0.1,1-0.3
	c0.4-0.2,0.6-0.3,1-0.5c0.4-0.2,0.5-0.4,0.8-0.6c0.2-0.2,0.3-0.3,0.5-0.5c0.3-0.3,0.4-0.5,0.6-0.8c0.1-0.3,0.2-0.4,0.3-0.7
	c0-0.2,0.1-0.4,0.1-0.6c0-0.3,0-0.4,0-0.6c0-0.5-0.1-0.7-0.2-1.1c-0.2-0.3-0.2-0.4-0.4-0.7c-0.1-0.1-0.2-0.2-0.3-0.3
	c-0.3-0.2-0.7-0.5-0.7-0.5h-0.2c0.1,0.3,0.2,0.5,0.2,0.8c0,0.4,0,0.6-0.1,0.9c0,0.1-0.1,0.2-0.2,0.4c-0.2,0.2-0.3,0.3-0.5,0.5
	c-0.2,0.1-0.2,0.1-0.4,0.2c-0.2,0.1-0.3,0.2-0.5,0.2s-0.4,0-0.6,0c-0.3,0-0.4,0-0.6-0.1c-0.2,0-0.3-0.1-0.4-0.2
	c-0.2-0.2-0.3-0.2-0.4-0.4c-0.3-0.4-0.4-0.7-0.5-1.1c0-0.3,0-0.4,0-0.7c0.1-0.2,0.1-0.4,0.2-0.6c0.2-0.4,0.3-0.6,0.6-0.9
	c0.4-0.4,0.6-0.6,1.1-0.8c0.8-0.4,1.3-0.4,2.1-0.3c0.4,0,0.6,0.1,1,0.2c0.6,0.2,1,0.4,1.5,0.8c0.4,0.3,0.5,0.5,0.8,0.9
	c0.4,0.5,0.5,0.8,0.7,1.4c0.1,0.3,0.2,0.4,0.2,0.7c0.1,0.5,0.1,0.9,0,1.4c-0.1,0.6-0.2,1.1-0.4,1.6c1-0.3,1.8-0.4,3-0.6
	c0.9-0.1,1.3-0.2,2.2-0.2c1.4,0,2.1,0,3.5,0c1,0,1.5,0.1,2.5-0.1c0.3-0.1,0.5-0.1,0.8-0.2c0.5-0.2,0.9-0.3,1.3-0.7
	c0.3-0.2,0.4-0.4,0.6-0.7c0.2-0.3,0.4-0.7,0.4-0.7h0.1c0,0.1,0.1,0.1,0.2,0.2c0.2,0.3,0.3,0.5,0.4,0.8c0,0.2,0.1,0.4,0.1,0.6
	c0,0.2,0,0.3,0,0.5c0,0.2,0,0.4-0.1,0.6c-0.1,0.2-0.1,0.4-0.3,0.6s-0.2,0.2-0.4,0.4c-0.2,0.2-0.4,0.2-0.5,0.4c1,0.3,1.9,0.6,3,1.1
	c0.6,0.3,0.9,0.5,1.5,0.8c1.1,0.7,1.7,1.1,2.7,1.9c1.9,1.4,2.7,2.6,4.6,3.9c0.6,0.4,0.9,0.7,1.5,1c0.5,0.2,0.8,0.4,1.3,0.5
	c0.3,0,0.5,0.1,0.8,0.1c0.7,0.1,1.1,0.2,1.8,0c0.3-0.1,0.5-0.2,0.9-0.3c0.1,0,0.2-0.1,0.3-0.1c0.1,0,0.3-0.1,0.3-0.1s0,0.1,0,0.2
	c0,0.5-0.1,0.6-0.3,1c-0.1,0.3-0.2,0.4-0.4,0.6c-0.2,0.2-0.3,0.3-0.5,0.5c-0.2,0.1-0.6,0.4-0.6,0.4c3.6,0,5.7,0,8.9,0
	c0.3-0.4,0.4-0.7,0.6-1.2c0.1-0.3,0.1-0.5,0.2-0.9c0.1-0.4,0.1-0.6,0.1-1c0-0.4,0-0.7,0-1.1c-0.1-0.6-0.2-1-0.4-1.6
	c-0.1-0.3-0.1-0.5-0.3-0.7c-0.2-0.2-0.2-0.3-0.4-0.5c-0.2-0.2-0.3-0.3-0.5-0.4c-0.4-0.2-0.6-0.3-1-0.4c-0.2,0-0.4,0-0.6,0
	c-0.4,0.1-0.7,0.1-0.9,0.4c-0.2,0.2-0.3,0.4-0.3,0.7c0,0.3,0,0.5,0.1,0.7c0.1,0.2,0.2,0.3,0.3,0.4c0.1,0.1,0.2,0.1,0.3,0.2
	c0.4,0.2,0.6,0.2,0.9,0.1c0.1,0,0.2,0,0.3-0.1c0.1-0.1,0.2-0.3,0.2-0.3c0-0.1,0.1,0,0.1,0c0,0.3,0.1,0.5,0,0.8
	c0,0.2-0.1,0.3-0.2,0.5c-0.1,0.1-0.2,0.2-0.3,0.3c-0.2,0.2-0.3,0.2-0.6,0.3s-0.4,0.1-0.7,0.1c-0.4,0-0.6-0.1-0.9-0.2
	c-0.2-0.1-0.3-0.1-0.5-0.2c-0.2-0.1-0.2-0.2-0.4-0.3c-0.4-0.3-0.5-0.6-0.7-1.1c-0.2-0.5-0.3-0.8-0.2-1.4c0-0.4,0.1-0.5,0.2-0.8
	c0.2-0.5,0.4-0.7,0.8-1.1c0.2-0.2,0.3-0.3,0.5-0.4c0.5-0.3,0.7-0.4,1.2-0.5c0.2-0.1,0.3-0.1,0.5-0.1c0.5,0,0.8,0,1.3,0.1
	c0.3,0.1,0.5,0.1,0.7,0.2c0.4,0.1,0.6,0.3,0.9,0.5c0.2,0.2,0.3,0.3,0.5,0.4c-0.1-0.9-0.3-1.6-0.3-2.6c0-0.4,0-0.7,0-1.2
	s0.1-0.8,0.2-1.3c0.1-0.6,0.2-1,0.5-1.6c0.3-0.4,0.4-0.7,0.7-1c0.1,0,0.3,0.2,0.5,0.4c0.3,0.3,0.3,0.5,0.5,0.9
	c0.2,0.5,0.3,0.9,0.4,1.4c0.2,0.9,0.2,1.4,0.2,2.3c0,1-0.1,1.7-0.2,2.6c0.3-0.3,0.7-0.6,1.2-0.8c0.3-0.1,0.5-0.2,0.8-0.3
	c0.5-0.2,0.8-0.2,1.3-0.2c0.4,0,0.6,0.1,1,0.2c0.4,0.1,0.6,0.2,0.9,0.4c0.2,0.2,0.3,0.3,0.5,0.5c0.1,0.2,0.3,0.3,0.4,0.5
	c0.2,0.3,0.3,0.6,0.4,1.1c0,0.4,0,0.7,0,1.1c-0.1,0.3-0.1,0.6-0.2,0.9c-0.1,0.3-0.2,0.4-0.4,0.6c-0.3,0.3-0.5,0.4-0.8,0.6
	c-0.4,0.1-0.7,0.2-1.1,0.2c-0.3,0-0.4,0-0.7-0.1c-0.2,0-0.3-0.1-0.5-0.2c-0.2-0.2-0.3-0.3-0.5-0.6s-0.3-0.6-0.3-0.9
	c0.1-0.1,0.4,0,0.4,0.1c0.2,0.2,0.5,0.3,0.8,0.3c0.3-0.1,0.4-0.1,0.6-0.3c0.2-0.2,0.2-0.3,0.3-0.5c0.1-0.3,0.2-0.5,0.1-0.8
	c-0.1-0.3-0.2-0.4-0.4-0.6c-0.2-0.2-0.3-0.2-0.4-0.3c-0.1-0.1-0.2-0.2-0.4-0.2s-0.4,0-0.6,0c-0.2,0.1-0.4,0.1-0.6,0.2
	c-0.3,0.1-0.4,0.2-0.7,0.4c-0.2,0.2-0.3,0.3-0.5,0.6c-0.2,0.3-0.3,0.6-0.5,1c-0.1,0.3-0.1,0.5-0.2,0.9c-0.1,0.6-0.1,1-0.1,1.6
	s0,0.9,0.2,1.5c0.1,0.3,0.1,0.5,0.3,0.8c0.2,0.4,0.3,0.6,0.6,0.9c4.1,0,8.3,0,12.5,0c0.1,0.1,0.1,0,0.1,0.1
	c-0.4,0.3-0.8,0.6-1.3,1.1c-0.6,0.6-0.8,1-1.2,1.7c-0.2,0.4-0.3,0.7-0.5,1.2s-0.3,0.8-0.4,1.3c-0.3,1-0.3,1.6-0.3,2.6
	c0,0.8,0.1,2,0.1,2s0.1,0.8,0.2,1.3c0.1,0.4,0.2,0.7,0.3,1.1c0.2,0.5,0.3,0.9,0.6,1.4c0.1,0.3,0.2,0.5,0.4,0.8
	c0.4,0.5,0.6,0.9,1.1,1.3c0.3,0.2,0.5,0.3,0.8,0.4s0.4,0.1,0.7,0.2c0.2,0.1,0.4,0.1,0.6,0.1c0.4,0,0.6,0,0.9-0.2
	c0.2-0.1,0.3-0.2,0.4-0.3c0.1-0.2,0.2-0.2,0.3-0.4c0.1-0.2,0.1-0.3,0.2-0.5c0.1-0.2,0.1-0.4,0.1-0.6c0-0.2,0-0.2,0-0.4
	c-0.1-0.2-0.1-0.3-0.2-0.5c-0.1-0.3-0.2-0.5-0.4-0.7c-0.2-0.2-0.4-0.3-0.7-0.5c-0.3-0.1-0.6-0.2-0.9-0.3v-0.1
	c0.1-0.2,0.3-0.3,0.5-0.4c0.3-0.2,0.7-0.1,1.1-0.1c0.3,0,0.5,0.1,0.8,0.2s0.4,0.1,0.6,0.3c0.2,0.1,0.3,0.2,0.5,0.4
	c0.3,0.3,0.4,0.5,0.6,0.8s0.2,0.5,0.3,0.8c0.2,0.4,0.2,0.7,0.2,1.2c0,0.3,0,0.5-0.1,0.8c0,0.3-0.1,0.5-0.2,0.7
	c-0.1,0.2-0.2,0.3-0.3,0.5c-0.2,0.2-0.3,0.3-0.5,0.5c-0.3,0.2-0.5,0.3-0.8,0.5c-0.2,0.1-0.3,0.2-0.6,0.3c-0.4,0.1-0.6,0.2-1,0.2
	c-0.4,0-0.7,0-1.1,0c-0.4,0-0.6,0-0.9-0.1c-0.6-0.1-0.9-0.2-1.4-0.5c-0.3-0.1-0.5-0.3-0.8-0.5c-0.3-0.2-0.4-0.3-0.7-0.6
	c-0.2-0.3-0.4-0.4-0.6-0.7c-0.2-0.3-0.3-0.5-0.5-0.8c-0.3-0.5-0.4-0.7-0.6-1.1c-0.2-0.4-0.3-0.6-0.4-1c-0.4-0.9-0.5-1.4-0.7-2.4
	c-0.2-0.6-0.2-1-0.3-1.6c-0.1-0.8,0-1.3,0-2.1c0-0.5,0-0.8,0.1-1.3c0.1-0.6,0.2-0.9,0.3-1.5c0.2-0.9,0.4-1.4,0.8-2.3
	c-6.8,0-13.6,0-20.5,0c-0.9,0-1.7,0-2.8-0.3c-0.3-0.1-0.5-0.2-0.8-0.3c-0.2-0.1-0.4-0.2-0.6-0.3c-0.5-0.3-0.9-0.6-1.3-0.9
	c0,0-0.1-0.1-0.3-0.2l-0.1,0.1c0.1,0.4,0,0.7,0,1.1c-0.1,0.6-0.1,0.9-0.3,1.5c-0.1,0.4-0.2,0.6-0.4,0.9c-0.6-0.3-1-0.6-1.6-1.1
	c-0.4-0.3-0.6-0.5-0.9-0.8c-0.4-0.4-0.6-0.8-1-1.1c-0.2,0.6-0.3,1.2-0.6,1.9c-0.2,0.4-0.2,0.5-0.4,0.8c-0.2,0.4-0.3,0.6-0.6,0.9
	c-0.3,0.2-0.4,0.4-0.7,0.6c-0.3,0.2-0.4,0.3-0.7,0.5c-0.3,0.1-0.6,0.2-0.9,0.1l-0.1-0.1c0.1-0.8,0.2-1.5,0.2-2.4c0-0.4,0-0.7,0-1.1
	c-0.1-0.7-0.1-1.2-0.3-1.9c-0.1-0.6-0.2-0.9-0.5-1.5c-0.1-0.3-0.2-0.5-0.4-0.8c-0.2-0.4-0.4-0.6-0.7-0.9c-0.1,0.3-0.2,0.7-0.4,1.1
	c-0.2,0.3-0.2,0.4-0.4,0.7c-0.3,0.5-0.5,0.8-0.9,1.2c-0.4,0.3-0.5,0.5-0.9,0.7c-0.4,0.2-0.6,0.3-0.9,0.4c-0.3,0.1-0.5,0.2-0.8,0.2
	c-0.4,0-1-0.1-1-0.1c0.1-0.3,0.2-0.6,0.3-1c0-0.3,0.1-0.4,0.1-0.7c0.1-0.5,0.1-0.8,0-1.3c-0.1-0.5-0.2-0.9-0.4-1.4s-0.4-0.8-0.7-1.2
	c-0.3-0.4-0.4-0.7-0.8-1c-0.3-0.3-0.4-0.4-0.7-0.6c-0.5-0.4-0.8-0.5-1.4-0.8c-0.6-0.3-1-0.4-1.7-0.5c-0.5,0-0.8-0.1-1.2-0.1
	c-0.8,0-1.2,0-2,0.1c-0.6,0.1-1,0.2-1.6,0.4c-0.4,0.2-0.7,0.2-1.1,0.4c-0.6,0.3-0.9,0.4-1.4,0.7c-0.7,0.4-1.1,0.7-1.7,1.3
	c-0.3,0.3-0.5,0.4-0.7,0.8c0,0.1-0.1,0.2-0.1,0.3c0.3,0.1,0.7,0.2,1.1,0.5c0.3,0.1,0.4,0.2,0.6,0.4c0.3,0.2,0.4,0.4,0.6,0.7
	c0.1,0.2,0.2,0.4,0.3,0.6c0.2,0.4,0.2,0.7,0.3,1.2c0,0.4,0,0.6,0,0.9c0,0.5,0,0.8-0.2,1.2l-0.1,0.1c-0.4-0.2-0.8-0.4-1.3-0.6
	c-0.3-0.1-0.5-0.1-0.9-0.1c-0.2,0-0.4,0-0.6,0c-0.3,0.1-0.4,0.1-0.7,0.2s-0.5,0.2-0.7,0.3c-0.3,0.1-0.4,0.2-0.6,0.4
	c-0.3,0.2-0.4,0.4-0.6,0.6c-0.3,0.4-0.4,0.6-0.6,1c-0.3,0.5-0.4,0.8-0.5,1.4c-0.1,0.5-0.2,0.7-0.2,1.1c0,0.6,0,0.9,0,1.4
	c0,0.3,0.1,0.4,0.1,0.7c0.2,1.2,0.4,1.9,1.1,3c0.2,0.3,0.3,0.4,0.5,0.7c0.3,0.3,0.4,0.5,0.7,0.7c0.4,0.3,0.8,0.5,1.2,0.7
	c0.1-0.3,0.1-0.6,0.3-1c0.2-0.3,0.3-0.4,0.5-0.7c0.2-0.2,0.3-0.3,0.6-0.5c0.1-0.1,0.2-0.1,0.4-0.2s0.4-0.1,0.6-0.2
	c-0.1,0.5-0.2,0.9-0.1,1.4c0,0.3,0.1,0.4,0.2,0.6c0.2,0.5,0.3,0.7,0.7,1.1c0.4,0.4,0.7,0.5,1.2,0.8c0.4,0.2,0.6,0.4,1.1,0.5
	c0.5,0.1,0.8,0.2,1.3,0.2c0.4,0,0.7,0,1.2,0c0.3,0,0.4-0.1,0.7-0.1c0.5-0.1,0.7-0.2,1.2-0.4c0.4-0.2,0.6-0.3,0.9-0.5
	c0.3-0.2,0.5-0.3,0.7-0.5c0.7-0.7,1.1-1.2,1.4-2.2c0.1-0.3,0.1-0.5,0.2-0.9c0.1-0.6,0.1-0.9,0.1-1.4c0-0.4,0-0.6-0.1-0.9
	c-0.1-0.4-0.1-0.6-0.3-0.9c-0.1-0.3-0.2-0.5-0.4-0.7c-0.3-0.4-0.5-0.6-0.8-0.9s-0.5-0.4-0.8-0.6c-0.6-0.3-0.9-0.5-1.6-0.6
	c-0.4,0-0.6,0-1,0c-0.3,0-0.4,0-0.6,0.1c0,0-0.2,0-0.1,0.1c0.3,0.1,0.5,0.3,0.8,0.5c0.1,0.1,0.2,0.2,0.3,0.4
	c0.1,0.2,0.2,0.3,0.2,0.5c0.1,0.3,0.1,0.4,0.1,0.6s0,0.3-0.1,0.5c0,0.2-0.1,0.3-0.2,0.5c-0.1,0.2-0.2,0.3-0.4,0.5
	c-0.2,0.1-0.3,0.2-0.5,0.3c-0.3,0.1-0.4,0.2-0.7,0.2c-0.2,0-0.4,0-0.6,0c-0.3-0.1-0.5-0.1-0.8-0.2c-0.2-0.1-0.3-0.1-0.5-0.2
	s-0.3-0.2-0.5-0.4c-0.3-0.3-0.4-0.5-0.6-0.9c-0.2-0.4-0.3-0.7-0.3-1.1c0-0.2,0-0.4,0-0.6c0.1-0.5,0.2-0.7,0.4-1.1
	c0.1-0.3,0.2-0.4,0.4-0.6c0.2-0.2,0.3-0.3,0.5-0.4c0.4-0.3,0.7-0.4,1.1-0.6c0.3-0.1,0.5-0.2,0.9-0.3c0.4-0.1,0.6-0.2,1-0.2
	c0.4,0,0.7,0,1.1,0c0.9,0.1,1.5,0.2,2.3,0.5c0.4,0.1,0.5,0.2,0.8,0.3c0.7,0.4,1.1,0.7,1.7,1.2c0.2,0.3,0.4,0.4,0.6,0.7
	c0.3,0.3,0.4,0.5,0.6,0.8c0.2,0.3,0.3,0.5,0.4,0.8c0.3,0.6,0.4,0.9,0.5,1.6c0.1,0.7,0.2,1.1,0.1,1.8c0,0.6-0.1,0.9-0.2,1.4
	c-0.1,0.4-0.2,0.6-0.4,1c-0.3,0.7-0.6,1.1-1,1.7c1.4-0.4,2.5-0.8,4-1.4c1-0.4,1.6-0.6,2.6-1.2c0.4-0.3,0.6-0.4,1-0.7
	c0.4-0.3,0.6-0.4,0.9-0.7c0.1-0.2,0.3-0.3,0.4-0.5c0.2-0.2,0.2-0.3,0.3-0.5c0.1-0.3,0.2-0.5,0.2-0.8c0-0.4,0.1-0.6,0-1
	c0-0.1-0.1-0.2-0.1-0.2s0.6,0.1,0.9,0.2c0.2,0,0.3,0.1,0.5,0.2c0.2,0.2,0.3,0.2,0.4,0.4c0.3,0.3,0.3,0.5,0.4,0.8
	c0.1,0.2,0.1,0.3,0.1,0.5c0,0.4,0,0.5-0.1,0.9c0.6-0.3,1-0.6,1.7-1c1-0.6,1.7-0.9,2.8-1.4c1.6-0.7,2.5-1,4.1-1.6
	c0.9-0.4,1.5-0.6,2.5-0.9c0.6-0.2,1-0.3,1.7-0.4s1.1-0.1,1.8-0.2c0.8-0.1,1.3-0.1,2.1-0.1c0.9,0,1.4,0.1,2.3,0.2
	c0.5,0.1,0.8,0.1,1.3,0.2s0.8,0.1,1.2,0.3c0.7,0.3,1,0.5,1.6,0.8c0.4,0.2,0.6,0.4,0.9,0.6c0.3,0.3,0.5,0.4,0.8,0.7
	c0.3,0.4,0.5,0.5,0.8,0.9c0.4,0.4,0.5,0.7,0.8,1.2c0.1,0.3,0.2,0.4,0.3,0.7c0.2,0.6,0.3,1,0.4,1.6c0.1,0.3,0.1,0.5,0.1,0.9
	c0,0.5,0,0.7-0.1,1.2c-0.1,0.3-0.1,0.5-0.2,0.8c-0.1,0.4-0.2,0.6-0.4,1c-0.2,0.3-0.3,0.5-0.5,0.8c-0.3,0.4-0.5,0.5-0.8,0.8
	c-0.3,0.3-0.5,0.4-0.8,0.6c-0.4,0.2-0.6,0.2-0.9,0.4c-0.4,0.2-0.6,0.3-1,0.4c-0.4,0.1-0.7,0.2-1.1,0.2c-0.4,0.1-0.6,0.1-1,0.1
	c-0.4,0-0.6,0-1-0.1c-0.4-0.1-0.6-0.1-0.9-0.2c-0.7-0.2-1.1-0.3-1.7-0.7c-0.3-0.2-0.4-0.3-0.7-0.5s-0.5-0.3-0.7-0.6
	c-0.2-0.3-0.3-0.4-0.5-0.7c-0.1-0.3-0.2-0.4-0.3-0.6c-0.1-0.3-0.1-0.5-0.2-0.8c-0.1-0.5-0.1-0.7,0-1.2c0-0.2,0-0.3,0.1-0.5
	c0.1-0.2,0.2-0.3,0.3-0.5c0.2-0.3,0.4-0.3,0.6-0.5c0.1-0.1,0.2-0.1,0.4-0.2c0.2,0,0.4-0.1,0.6-0.1c0.3,0,0.4,0,0.7,0
	c0.3,0.1,0.5,0.1,0.7,0.2c0.3,0.2,0.5,0.4,0.7,0.7c0.1,0.2,0.2,0.4,0.3,0.6c0,0.2,0.1,0.4,0.1,0.6c0,0.2,0,0.3,0,0.5
	c0,0.3-0.1,0.5-0.2,0.7c-0.2,0.2-0.2,0.3-0.4,0.5c-0.2,0.2-0.4,0.3-0.6,0.5c0.1,0.1,0.2,0.2,0.4,0.3c0.3,0.1,0.5,0.2,0.8,0.3
	c0.5,0.2,0.9,0.2,1.4,0.2s0.9-0.1,1.4-0.3c0.3-0.1,0.4-0.2,0.7-0.3c0.4-0.3,0.6-0.4,0.9-0.7c0.4-0.3,0.6-0.5,0.8-0.9
	c0.2-0.4,0.3-0.6,0.4-1c0.1-0.4,0.1-0.6,0.1-0.9c0-0.5-0.1-0.8-0.2-1.3c-0.1-0.3-0.2-0.4-0.3-0.7c-0.2-0.2-0.2-0.4-0.4-0.6
	c-0.2-0.4-0.3-0.6-0.6-0.9c-0.2-0.2-0.4-0.3-0.6-0.5c-0.6-0.4-0.9-0.6-1.5-0.9c-0.5-0.2-0.9-0.3-1.4-0.5c-0.8-0.2-1.2-0.3-2-0.4
	c-0.7-0.1-1.1,0-1.9,0c-0.6,0-0.9,0-1.5,0.1c-0.8,0.1-1.2,0.2-2,0.4c-0.9,0.2-1.5,0.4-2.4,0.7c-0.9,0.4-1.5,0.5-2.4,0.9
	c-1.6,0.6-2.4,1-3.9,1.8c-0.7,0.4-1.2,0.6-1.7,1c0.6,0.2,1.1,0.3,1.7,0.6c0.4,0.1,0.6,0.2,0.9,0.4c0.3,0.2,0.5,0.3,0.7,0.5
	c0.3,0.2,0.4,0.3,0.6,0.6c0.2,0.2,0.3,0.4,0.4,0.6c0.2,0.3,0.2,0.4,0.3,0.7c0.1,0.5,0.1,0.9,0.1,1.3c-0.3-0.1-1.7-0.9-2.9-1.3
	c-1.1-0.3-1.8-0.4-2.9-0.5c-1.1-0.1-1.7-0.1-2.8,0c-0.6,0-1,0.1-1.6,0.2c-1.4,0.2-2.2,0.4-3.5,0.8c-1.9,0.6-2.6,0.9-4.5,1.6
	c-1.2,0.4-1.9,0.6-3.1,0.9c-0.6,0.1-0.9,0.2-1.5,0.3c-0.8,0.1-1.2,0.2-2,0.2c-0.7,0-1.1,0-1.8,0c-1,0-1.5,0-2.5-0.2
	c-0.9-0.2-1.4-0.3-2.2-0.6c-0.5-0.2-0.9-0.3-1.4-0.6c-0.3-0.2-0.5-0.3-0.9-0.5c-0.5-0.4-0.9-0.5-1.4-0.9s-0.8-0.6-1.2-1
	c-0.4-0.3-0.6-0.5-1-0.9c-0.6-0.7-1-1.1-1.5-1.9c-0.3-0.4-0.5-0.6-0.7-1c-0.3-0.5-0.5-0.8-0.7-1.4c-0.2-0.4-0.3-0.6-0.4-1
	c-0.3-0.9-0.4-1.4-0.6-2.3c-0.1-0.6-0.2-1-0.2-1.6c0-0.5,0-0.9,0-1.4c0-0.6,0-0.9,0.1-1.5c0.1-0.9,0.2-1.4,0.4-2.3
	c0.1-0.4,0.2-0.7,0.4-1.2c0.3-0.7,0.5-1.2,0.9-1.9c0.3-0.5,0.5-0.7,0.8-1.2c0.6-1,1.3-1.6,1.9-2.4c-0.7,0-1.4,0-2.3-0.2
	c-0.7-0.2-1.2-0.4-1.8-0.6c0,0.1,0.1,0.2,0.1,0.4c0,0.2,0,0.4,0,0.6c0,0.3,0,0.4-0.1,0.6c-0.1,0.2-0.2,0.4-0.4,0.6
	c-0.2,0.1-0.2,0.2-0.4,0.3c-0.2,0.2-0.5,0.3-0.5,0.3c-0.3,0.1-1.1,0-1.2-0.1c0.1-0.3,0.2-0.5,0.2-0.9c0-0.3-0.1-0.4-0.1-0.7
	c-0.2-0.9-0.5-1.4-1-2.1c-0.4-0.5-0.7-0.8-1.1-1.2c-0.7-0.6-1.1-0.9-1.8-1.5c-0.5-0.4-0.7-0.6-1.1-1.1c-0.5-0.6-1.1-1.6-1.1-1.6
	s-0.2-0.5-0.3-0.8c-0.2-0.6-0.3-0.9-0.3-1.4c0-0.3,0-0.7,0-0.7c-2.2,3.5-4.8,6.8-8.1,9.5c-0.9,0.8-1.7,1.4-2.6,2.1
	c0,3.3,0,5.4,0,8.2c0.1,0,0.1,0,0.2,0c0.1-0.8,0.5-1.5,0.7-2.3c0.6-1.2,1.2-2.4,2.1-3.5c1-1.1,2.2-2,3.5-2.5
	c1.8-0.7,3.8-0.4,5.4,0.4c0.9,0.5,1.7,1.3,2.4,1.9c0,0.2,0.3,0.4,0.4,0.6c1.2,1.5,1.9,3.3,2.4,5.2c0.2,0.8,0.3,1.6,0.4,2.4
	c0.1,3-0.3,5.9-1.5,8.3c-1.2,2.7-3.9,5.6-7.1,5.6c-0.6,0.1-1.2,0-1.8-0.1c-0.4-0.2-0.9-0.3-1.3-0.5c-3.1-1.5-4.9-4.8-5.6-7.9h-0.1
	v10.3h101.4v22.2H123.1h-0.6H19.4V71.6z M203,95.9c-0.2,0.2-0.4,0.3-0.6,0.5l-0.5,0.4c-6.3,5-10.6,6.8-18.4,9
	c-11.5,3.2-18.8,3.3-30,0.2c-1.7-0.5-2.5-0.8-4.2-1.4c-4.6-1.7-7.3-2.8-11.8-5.5c-1.9-1.2-3-1.8-4.7-3.2h-0.1H203z M112.3,95.9
	c-0.7,0.5-1.4,1-2.2,1.5c-9.5,6.2-19.3,9.4-30,10c-3.6,0.2-7.6,0-11.9-0.7c-0.7-0.2-1.3-0.3-2-0.4c-0.6-0.1-1.1-0.2-1.7-0.4
	c-5.4-1.2-10.1-3-14.4-5.4c-0.1-0.1-0.2-0.1-0.3-0.2c-0.4-0.2-0.8-0.5-1.4-0.8c-1.7-1.1-3.5-2.3-5.2-3.7h69.1V95.9z M41.2,185.1
	l-1.7-7.6c-1.6-7.8-2.8-15.7-3.6-23.6c-0.5-5.7-0.9-11.7-1.1-17.3l-0.3-6.8l-0.1-5.8c-0.1-3.5,0.1-7.1,0.1-10.6
	c0.1-4.2,0.2-8.2,0.5-12.4c0.1-2,0.2-4.1,0.4-6.2c0-0.1,0.1-0.1,0.2-0.1l3.7,0.5c0.4,0.3,0.8,0.8,1.2,1.1c2.1,2,4.5,3.6,6.9,5.1
	c0.6,0.2,1.1,0.6,1.6,0.9c4.7,2.6,9.7,4.4,15,5.6c1.3,0.3,2.6,0.5,3.8,0.8c4.1,0.6,8.3,0.9,12.4,0.7c11.5-0.6,21.7-4.3,31-10.3
	c1.8-1.1,3.6-2.5,5.2-3.8c0.1-0.1,0.2-0.1,0.4-0.1c3.7,0,7.6,0,11.3,0.1c0.2,0.2,0.5,0,0.7,0.2c0.9,0.7,1.6,1.3,2.7,2.1
	c1.8,1.4,2.9,2.1,4.9,3.3c4.5,2.7,7.2,3.9,12.2,5.7c1.7,0.6,2.6,0.9,4.3,1.4c11.7,3.2,19.5,3.1,31.2-0.2c8-2.3,12.6-4.2,19.1-9.4
	c0.7-0.6,1.1-0.9,1.7-1.5c0.5-0.5,0.9-0.9,1.3-1.4l0.1,0.1l0.1-0.1c1.1,0.1,2.2-0.1,3.2,0.1c0.3,4,0.4,8.1,0.7,12.1
	c0,3,0.1,5.5,0.1,9c0,4.7,0.1,8-0.1,12c-0.1,5.4-0.3,10-0.7,16.4c-0.4,5.5-0.7,9.4-1.3,14.1c-0.3,2-0.5,4.1-0.8,6.1
	c-1.3,8.7-3.1,17.2-5.3,25.6c-2.1,8.1-4.6,15.9-7.4,23.7c-2,5.4-4.2,10.8-6.6,16.1c-0.8,1.8-1.7,3.7-2.5,5.5
	c-0.8,1.7-1.7,3.5-2.6,5.2c-1.1,2-2.2,4-3.4,6.1c-1.4,2.3-2.7,4.7-4.2,7c-1.9,3-4,6.1-6,9c-2.6,3.5-5.3,6.9-8,10.3
	c-0.7,0.8-1.4,1.7-2.2,2.4c0,0,0,0.1-0.1,0.2c-0.1-0.1-0.1,0.1-0.2,0.1c-2.1-0.4-4.1-0.9-6.2-1.3c2.3-2.9,4.8-5.4,7-8.3
	c5.8-7.4,11-15.3,15.6-23.5c0.8-1.4,1.4-2.7,2.2-4c1.7-3.3,3.3-6.4,4.9-9.7c0.6-1.5,1.2-2.8,1.9-4.3c2.2-5,4.2-10.1,6-15.2l2.4-7.3
	c0.6-1.8,1.1-3.7,1.7-5.5c1.9-6.5,3.6-12.9,5-19.6c0.4-2.4,1-4.8,1.4-7.1c0.8-4.5,1.4-8.3,2.1-13.7c0.9-7.2,1.1-11.3,1.5-18.6
	c0.1-2.5,0.2-3.9,0.3-6.5c0.3-9.5,0.8-15,0-24.5c-0.1-1.2-0.1-2-0.3-3c-0.1-0.1-0.2,0-0.3,0c-8.4,5.3-16.4,8.9-28,10.3
	c-2.9,0.3-4.5,0.5-7.5,0.5c-4.2,0-6.6-0.2-10.8-1c-1.6-0.3-2.5-0.4-4-0.8c-7.1-1.6-11-3.1-17.5-6.5c-0.9-0.5-1.4-0.7-2.3-1.2
	c-4.7-2.7-7.9-4.9-11.5-7.8c-0.4,0.2-0.7,0.5-1.1,0.8c-4.8,3.8-9.2,6.6-15.7,9.5c-10.6,4.8-17.5,6.7-29.2,6.6
	c-9.1-0.1-14.4-1.1-22.9-4.4c-2.6-1-4-1.7-6.4-3c-2.6-1.3-4.4-2.4-6.5-3.7c-0.2,1.1-0.2,2.3-0.3,3.5l-0.2,8.1c-0.1,3-0.1,6-0.1,9
	c0.1,6.4,0.4,12.2,0.7,18.5l0.4,5.6c0.2,2.6,0.6,5.3,0.7,8c1.2,10.3,3,20.2,5.4,30.1c1,4.1,2.1,8.2,3.4,12.2c0.9,3.1,2,6.3,3,9.4
	c0.8,2.3,1.6,4.6,2.4,6.9c1.7,4.6,3.6,9.1,5.7,13.6h-0.1c2.2,4.7,4.5,9.1,7,13.6c4.6,8.2,9.7,16,15.3,23.4c2.4,2.9,4.8,5.8,7.4,8.7
	c-2.1,0.5-4.2,0.9-6.3,1.3c-0.1,0-1.3-1.4-1.9-2c-2.8-3.3-5.4-6.7-7.9-10.2c-2.9-4.1-5.6-8.3-8.3-12.5v-0.1l-0.1-0.1
	c-1.1-1.8-2.2-3.7-3.2-5.5c-0.1-0.4-1.1-2.1-1.3-2.5c-4.3-8-7.9-16.3-11.2-24.8C47.3,207.2,43.8,196.2,41.2,185.1z M71.5,262.3
	c3.2,4.9,6.9,9.5,10.7,14.1c0,0.1,0.3,0.1,0.1,0.3c-0.6,0.1-1.1,0.2-1.8,0.4c-3.1,0.7-4.9,1.2-8.1,1.6c-3.6,0.5-5.7,1-9.3,0.5
	c-0.4-0.1-0.7-0.1-1.1-0.2c-1-0.2-1.6-0.3-2.5-0.9c-0.5-0.3-1-0.7-1.2-0.8c-1.1-1.1-1.3-2.9-0.8-4.3c1.4-3.6,4.4-5.5,8.2-7.9
	c0.6-0.4,1-0.6,1.7-1c1.5-0.8,2.6-1.3,3.9-2C71.3,262.2,71.4,262.2,71.5,262.3z M73.6,166.7c-1.1,1.1-2.5,1.7-4,1.7
	c-1.4,0-2.7-0.5-3.8-1.5c-1.4-1.1-2.1-2.9-2.1-5c0-1.6,0.5-3,1.4-4.1c1.1-1.5,2.8-2.3,4.7-2.3c1.6,0,2.9,0.6,4,1.7
	c1.2,1.2,1.8,2.8,1.8,4.7C75.6,163.8,75,165.5,73.6,166.7z M77.3,161.9c0-1.6,0.5-3,1.4-4.1c1.1-1.5,2.8-2.3,4.7-2.3
	c1.6,0,2.9,0.6,4,1.7c1.2,1.2,1.8,2.8,1.8,4.7c0,1.9-0.6,3.6-2,4.8c-1.1,1.1-2.5,1.7-4,1.7c-1.4,0-2.7-0.5-3.8-1.5
	C78,165.8,77.3,164,77.3,161.9z M96.4,168.3h-3.1c0.4-1,0.6-2.1,0.6-3.3v-8c-1.7,0.1-3,0.3-4.2,0.8l0.6-2.2h9.8l-0.8,2.1
	c-0.9-0.5-2.1-0.7-3.5-0.7v8C95.8,166.2,96,167.3,96.4,168.3z M101.9,155.7h2.2c1.5,0,2.6,0.1,3.3,0.5c1.1,0.6,1.7,1.6,1.7,2.7
	s-0.6,2.1-1.8,2.7c1.6,0.8,2.4,1.9,2.4,3.2c0,2.1-1.8,3.5-5.1,3.5h-2.7c0.4-1,0.5-2.1,0.6-3.2V159
	C102.5,157.8,102.3,156.7,101.9,155.7z M114.5,239.1c-3.4-1.4-7.1-3.6-9.4-6.6l0.1,0.2c-0.6-0.7-1.2-1.7-1.6-2.6
	c-0.8-1.4-1.3-3-1.5-4.7c-0.1-0.7-0.1-1.5-0.1-2.2c0-1.6,0.2-3.3,0.7-4.8c-0.5-0.5-0.1-1.4,0.3-2.2c0.4-1,0.9-1.9,1.5-2.7
	c2.4-3.6,5.8-6.1,9.1-8.8l-0.1,0.1c1.6-1.3,3.2-2.6,4.6-4c1.2-1.3,2.4-3,1.7-4.8c-0.1-0.3-0.3-0.6-0.5-0.8c-1-1.3-2.7-1.4-4.2-1.1
	c-1.2,0.3-2.4,0.5-3.6,0.6c-0.5,0.9-1,1.7-1.7,2.5c0.8-0.1,1.6,0,2.2,0.5c0.4,0.3,0.6,0.5,0.9,0.9c0.7-0.1,1.4-0.5,1.8-1
	c0.1,1.2-0.9,2.2-2,2.7c-0.8,0.4-1.9,0.1-2.6-0.4c-0.6-0.5-0.9-1.2-1.2-1.9c-0.5,0.3-0.9,0.7-1.3,1c0.3,0.7,0,1.4-0.4,1.9
	c-0.6,0.6-1.7,1.3-1.4,2.3c0,0.1,0.1,0.1,0.1,0.2c-0.8,0.1-1.5-0.3-1.9-0.9c-0.2-0.6-0.2-1.2,0-1.8c0.8-1.4,2.4-1.9,3.7-2.8
	c0.2-0.2,0.5-0.4,0.6-0.6c-0.4-0.2-0.8,0-1.2,0.1c-0.9,0.3-1.7,1-2.7,1.1c-0.4,0-1,0-1.3-0.1c-0.3,0.1-0.5-0.2-0.7-0.3
	c-0.3-0.2-0.5-0.6-0.4-1c0.3,0.1,0.6,0.3,0.9,0.1c1.3-0.4,2.4-1.5,3.8-1.3c0.8,0,1.5,0.4,2,0.9c0.6-0.6,1-1.3,1.4-2.1
	c-0.4-0.3-1.2-0.2-1.3-0.9c0-0.1,0.1-0.2,0.1-0.3c0.6-0.1,1.2,0,1.8-0.1c0.2-0.7,0.4-1.4,0.4-2.1l-0.1-0.1c-1.5,0.1-2.8,0.5-4,1.1
	c-0.1-0.4,0.2-0.8,0.4-1.2c0.8-1.2,2.2-1.6,3.5-2c-0.1-0.7-0.5-1.4-0.9-1.9c0.6,0.1,1.1-0.1,1.6-0.2c0.3,0.6,0.5,1.3,0.7,2
	c0.9-0.1,1.9-0.1,2.8-0.1c-0.2-0.4-0.3-0.8-0.1-1.2c1.1-1.5,3.3-1.1,4.9-1c1.5,0.3,3,0.8,4.4,1.2c2.1,0.7,4.1,1.4,6.3,1.6
	c0.9,0,1.9-0.3,2.5-0.9c0.1-0.1,0.1-0.5,0.3-0.4c0.4,0.2,0.2,0.7,0.1,1c-0.2,0.9-1.1,1.5-1.9,1.9c-1.2,0.5-2.7,0.7-4,0.5
	c-0.6,0-1.1-0.3-1.7-0.1c-0.1,0.1-0.1,0.2,0,0.2c0.7,0.3,1.4,0.8,1.7,1.6c1.1,1.6,0.7,3.9-0.2,5.5c-0.6,1.1-1.4,2.1-2.3,3
	c-0.8,1-1.7,1.9-2.5,2.9c-0.2,0.3-0.5,0.6-0.7,0.8c-2.8,3.3-5,7.4-3.9,11.9c0.1,0.5,0.4,1.1,0.9,1.3h0.1c0.2,0,0.3,0,0.4,0
	c0.3-0.1,0.6-0.5,0.8-0.8c0.2-0.5,0.5-1,0.6-1.5c0.6-2.3,1.1-4.7,1.9-7c0.6-1.7,1.4-3.3,2.5-4.8c0.3-0.3,0.6-0.7,0.9-1
	c0.4-0.6,1.1-1.2,1.6-1.7c4-3.8,8.6-7,12.1-11.3c2.7-3.2,5-6.6,6.1-10.5c0.5-1.5,0.2-3.5-0.7-4.8c-0.1-0.1,0-0.3,0.2-0.3
	c0.7-0.1,1.3,0.5,1.9,0.9c1.7,1.1,2,3.4,1.7,5.4c-0.2,1.7-0.9,3.3-1.7,4.8c-2.2,3.7-5.2,6.9-8.4,9.8c-0.7,0.5-1.3,1.2-2,1.7
	c-2.6,2.3-5.5,4.5-7.8,7.1c-1,1.1-1.8,2.3-2.6,3.7c-1.4,2.5-2.1,5.4-3,8.2c-0.3,0.8-0.6,1.5-1.1,2.2c-0.6,0.8-1.3,1.4-2.2,1.7
	c-0.1,0.1-0.2,0.3-0.2,0.4c0.2,0.3,0.6,0.1,0.9,0.1c1.4-0.4,2.5-1.3,3.4-2.3c1-1.3,1.7-2.8,2.2-4.3c0.5-1.3,1-2.6,1.6-3.8
	c1-1.7,2.6-2.9,4.1-4.1c0.9-0.6,1.7-1.2,2.6-1.8c5.6-3.9,11.2-7.8,15.3-13.3c3.4-4.3,5.8-9,7.4-14c0.3-1.2,0.8-2.4,0.9-3.6
	c0.1-0.9,0.4-1.8,0.3-2.8c0-0.1,0.1-0.3,0.2-0.3c0.2,0,0.4,0.2,0.6,0.4c1.3,1.5,1.9,3.5,1.7,5.4c-0.6,3.4-2.4,6.5-4.1,9.5
	c-0.4,0.6-0.8,1.2-1.2,1.8c-3.1,4.6-7,8.8-11.2,12.2c-0.9,0.7-1.9,1.5-2.8,2.2c-1.3,1-2.7,1.8-4,2.7c-1.4,0.9-2.9,1.9-4.3,2.9
	c-0.1,0.1-0.1,0.2,0,0.3c0.2,0.2,0.4-0.1,0.7-0.1c1.8-0.6,3.5-1.4,5.2-2.2c0.2,0,0.3,0.1,0.4,0.3c0.2,1-0.4,2-1.1,2.8
	c-2,1.8-4.4,2.6-6.8,3.4c0,0.1-0.2,0.1-0.1,0.2c0.2,0.3,0.5,0,0.9,0.1c2.3-0.4,4.5-1.1,6.6-2c0.1,0,0.2,0,0.3,0.1
	c0.2,0.6-0.3,1.1-0.5,1.7c-1.1,1.3-2.5,1.8-4,2.4c-1,0.4-2.2,0.6-3.2,0.9c-0.1,0.1-0.2,0.2-0.1,0.3c0.5,0.1,1.1,0.1,1.5,0
	c1.9-0.1,3.8-0.6,5.7-0.9c0.2,0.4-0.1,0.8-0.3,1.1c-0.3,0.2-0.4,0.7-0.8,0.9c-1.1,0.9-2.4,1.5-3.7,1.8c-0.8,0.2-1.6,0.3-2.5,0.3
	c-0.1,0.1-0.1,0.1-0.2,0.2c0,0.1,0,0.2,0.2,0.2c1.7,0.4,3.6,0.3,5.3,0.2c0.2,0.1,0.1,0.3,0.1,0.4c-1.2,2-3.6,2.8-5.8,2.8
	c-0.1,0.1-0.1,0.2,0,0.3c1,0.7,2.2,1.1,3.3,1.5c1.3,0.4,2.9,0.8,4.2,1h-0.1c1.7,0.3,3.4,0.4,5.2,0.3c0.1,0,0.1,0.1,0.2,0.2l-0.1,0.2
	c-1.6,1.6-3.6,2.7-5.9,3c-3.8,0.1-7-1.4-9.7-3.7c0,0-1-0.9-1.4-1.2l-1-1.1c-0.1-0.1-0.2,0-0.3,0c-0.3,0.3,0,0.7,0.1,0.9
	c0.2,0.4,0.5,0.9,0.8,1.3c1.9,2.7,4.7,4.8,7.3,7c1.2,1.1,2.4,2.2,3.4,3.5c2.2,3,3.2,6.9,2.6,10.6c-0.1,0.4-0.1,0.7-0.2,1.1
	c-0.1,0.3-0.2,0.7-0.5,0.9c-0.1,0-0.2-0.1-0.3-0.1c0.1-0.5,0.1-0.9,0.1-1.4c0-0.1,0-0.3,0-0.4c-0.1-1.3-0.3-2.8-0.7-4
	c-0.5-1.1-1-2.2-1.7-3.2c-1.9-2.6-4.6-4.7-6.9-7c-1.4-1.4-2.9-3-3.8-4.8c-0.4-0.7-0.8-1.5-1.1-2.3c0,0-0.6-1.4-0.8-2
	c0-0.1-0.1,0-0.2,0c-0.3,0.3-0.1,0.9-0.1,1.3c0,0.2,0.1,0.5,0.1,0.7c0.5,2.6,2,4.9,3.8,7c0.9,1.1,1.9,2.1,2.9,3.1
	c1.1,1,2.1,1.9,3.2,2.8c-0.5,2.8-0.1,5.8,1.2,8.3c0.5,0.9,1.1,1.7,1.8,2.5c0.5,0.5,1.1,0.9,1.7,1.4c-0.4,0.4-1,0.4-1.6,0.3
	c-1.1-0.2-2.1-0.6-3-1.3c-0.1,0-0.1,0.1-0.1,0.1c0.3,3.7,0.9,7.3,1.9,10.9v-0.2c0.1,0.5,0.3,1.2,0.5,1.7c0.5,1.1,0.7,2.4,1.7,3.2
	c0.8,0.5,1.7,0.5,2.7,0.5c0.1,0,0.2,0,0.2,0c1.2-0.1,2.5-0.1,3.5,0.6c0.2,0.2,0.3,0.4,0.4,0.6c0.2,0.8-0.4,1.5-1,2
	c-0.2,0.1-0.4,0.2-0.6,0.2c-0.1-0.4-0.6-0.8-1-1c-0.3-0.2-0.3-0.2-0.9-0.3c-2.8-0.6-6.1-0.5-8.9-0.3c-1.5,0.1-3.1,0.3-4.3,1.3
	c-0.3,0.3-0.5,0.6-0.4,1c-0.1,0.1-0.1,0-0.2,0c-0.5,0-0.9-0.3-1.1-0.7c-0.2-0.5-0.1-1,0.2-1.4c0.2-0.3,0.6-0.4,0.9-0.7
	c0-0.1-0.1-0.2-0.1-0.2c-1,0-2.1,0.2-2.6,1.1c0,0.1,0,0.2-0.1,0.3c-0.2,0-0.5-0.1-0.6-0.4c-0.2-0.3-0.2-0.8-0.1-1.1
	c0.4-0.7,1.1-1.2,1.9-1.2c0.4,0,0.8,0.1,1.1,0c-0.1-0.3-0.1-0.7,0-0.9c0.9-1,2.6-0.4,3.7-0.2c0.8,0.2,1.5,0.6,2.3,0.8
	c0.2,0.1,0.6,0.1,0.9,0.1c0.2,0,0.4-0.2,0.6-0.4c0.2-0.7-0.5-1.2-0.7-1.9c-0.4-0.8-0.8-1.7-1.1-2.5c0,0,0-0.1-0.1-0.1
	c-1.4-3.6-2.3-7.5-2.8-11.4c0-0.1-0.1-0.1-0.1-0.1c-0.3,0.3-0.5,0.7-0.8,0.9c-0.5,0.5-1.1,0.9-1.7,1.1c-0.1-0.2,0.1-0.4,0.1-0.5
	c0.4-1.3,0.6-2.7,0.5-4c-0.1-1.4-0.4-2.9-1-4.2l-0.1-0.1C122.4,241.8,118.4,240.7,114.5,239.1z M120.1,166.4l-0.9-2h-4.6l-0.8,1.6
	c-0.3,0.7-0.5,1.3-0.5,1.9c0,0.2,0,0.3,0,0.4h-3.1c0.6-0.8,1.3-1.9,1.9-3.1l5-9.8l4.8,10.2c0.4,0.8,1,1.7,1.8,2.7h-3.3
	c0.1-0.2,0.1-0.4,0.1-0.6C120.5,167.2,120.3,166.8,120.1,166.4z M125.4,155.2h3.3c-0.4,1-0.6,2.1-0.6,3.4v8.4
	c2.1-0.1,3.8-0.5,5.3-1.1c-0.4,0.8-0.7,1.6-1.1,2.4h-6.8c0.4-1,0.6-2.1,0.6-3.4v-6.2C126,157.3,125.8,156.2,125.4,155.2z
	 M134.5,155.6h3.1c-0.4,1-0.5,2.1-0.6,3.3v8.2c2-0.1,3.6-0.5,5-1.1c-0.4,0.8-0.7,1.6-1,2.3h-6.5c0.4-1,0.6-2.1,0.6-3.3v-6.1
	C135.1,157.7,134.9,156.6,134.5,155.6z M154.6,166.8c1.4,0,2.7-0.5,4-1.5l-0.1,2.2c-1.5,0.6-3,0.9-4.3,0.8c-1.5,0-2.9-0.4-4.1-1.3
	c-1.6-1.1-2.4-2.9-2.4-4.9c0-2.1,0.8-3.9,2.4-5.1c1.4-1.1,3.1-1.6,5.1-1.6c0.9,0,1.9,0.1,3.1,0.4v2.2c-1-0.7-2.3-1.1-3.6-1.1
	c-2.8,0-4.7,2-4.7,5.1C150,165,151.8,166.8,154.6,166.8z M130.5,206.3c-0.2,0-0.3,0.1-0.4,0c-0.1-0.1-0.1-0.1-0.2-0.2
	c0-0.5,0.5-0.8,0.8-1.2c5.2-5.2,11.7-9,15.9-15.1c2-2.7,3.6-5.8,4-9.2c0-0.4-0.1-0.9-0.1-1.3c0-0.1,0.2-0.2,0.4-0.1l0.2,0.2
	c0.2,0.2,0.3,0.4,0.4,0.6c1.4,2.3,0.6,5.3-0.7,7.4c-2.8,5.1-7.1,9.1-11.7,12.6c-1.3,0.9-2.6,1.8-3.9,2.7
	C133.5,203.9,132,205,130.5,206.3z M161.1,155.6h3.1c-0.4,1-0.6,2.1-0.6,3.3v8.2c2-0.1,3.6-0.5,5-1.1c-0.4,0.8-0.7,1.6-1,2.3h-6.5
	c0.4-1,0.6-2.1,0.6-3.3v-6.1C161.7,157.7,161.5,156.6,161.1,155.6z M172.3,165.8c0.5,0.7,1.4,1.2,2.5,1.2c0.9,0,1.7-0.3,2.3-0.9
	c0.8-0.8,0.8-1.6,0.8-2.8v-4.4c0-1.2-0.1-2.3-0.5-3.3h3.1c-0.4,1-0.5,2.1-0.5,3.3v6.1c0,1.2,0.1,2.3,0.5,3.3h-2.3v-1.4
	c-1.4,1-2.7,1.5-4,1.6c-0.9,0-1.9-0.3-2.7-0.8c-0.5-0.2-0.8-0.6-1.1-1.1c-0.5-0.8-0.5-1.5-0.5-2.4c0-0.2,0-0.3,0-0.4V159
	c0-1.2-0.1-2.3-0.5-3.3h3.1c-0.4,1-0.5,2.1-0.5,3.3v4.6C172,164.6,172,165.3,172.3,165.8z M149.9,246.9c0,1.5-0.3,3-0.6,4.3
	c-0.6,1.9-1.6,3.7-2.6,5.4c-0.3,0.2-0.4,0.7-0.8,0.6c-0.1-0.3,0.1-0.5,0.1-0.8c0.9-3.1,0.9-6.1,0-9.5c-0.2-0.5-0.4-1.3-0.6-1.9
	c-0.8-2.3-1.6-3.4-2.9-5.4c-2-3-4.3-4.9-6.6-6.7c-1.6-1.2-3.4-2.5-4.9-3.9c0-0.1,0-0.1,0.1-0.2c0.6,0.1,1.1,0.5,1.6,0.7
	c2.8,1.1,5.9,2,8.6,3.3c1.9,1,3.6,2.2,5.1,3.9C148.9,239.4,150,243.2,149.9,246.9z M140.8,205.6c-0.1-0.2-0.2-0.4-0.2-0.6
	c0.1-0.1,0.2-0.1,0.3-0.2c7.5-4.5,14.8-10.2,20.2-17.3c0.1-0.2,0.5-0.2,0.6,0.1c0,0.5-0.2,1.1-0.4,1.6c-1,2.3-2.4,4.4-4,6.4
	c-3.1,3.6-6.7,6.6-10.5,9.2c-2.1,1.4-4.2,2.7-6.4,3.9c0-0.1,0-0.1,0-0.2C140.9,207.7,141.1,206.6,140.8,205.6z M149.7,196.6
	c1.9-2.2,4.1-4.1,5.8-6.5c2.3-2.9,4-6.2,5.6-9.4c0.4-0.8,0.7-1.7,1-2.5c0.1-0.1,0.2-0.1,0.3,0c0.3,0.5,0.3,1.1,0.4,1.6
	c0.3,1.8-0.1,3.6-1.1,5.2c-2.9,4.4-6.7,7.9-10.7,11.3l-0.9,0.7c-0.1,0-0.3,0-0.4-0.1C149.6,196.8,149.7,196.7,149.7,196.6z
	 M140.6,209.8c3-1.4,5.9-3.1,8.6-5.1c2.7-1.9,5.2-4.1,7.5-6.6c0.2,0,0.4,0,0.6,0.1c-0.2,1.7-1.2,3.2-2.2,4.6c-0.5,0.7-1,1.3-1.6,1.9
	c-3.8,3.9-8.6,6.7-13.4,8.8c-0.1,0-0.2,0.1-0.3,0c0-0.2,0.3-0.4,0.4-0.6C140.7,212,140.9,210.8,140.6,209.8z M140,214.6
	c2.8-0.9,5.4-2.2,8-3.7c1.2-0.8,2.3-1.5,3.4-2.4c0.9-0.6,1.4-1.3,2.3-1.9c0.2,0,0.3,0.1,0.3,0.3c-0.2,1-0.7,1.7-1.2,2.5
	c-2,2.9-4.9,5-7.8,6.7c-2.2,1.1-4.3,2.1-6.7,2.5v-0.1c0-0.1,0.2-0.1,0.2-0.2C139.6,217.3,140.1,216,140,214.6z M141.6,218.9
	c2.6-0.8,5.3-2.1,7.6-3.6c0.5-0.4,0.9-0.9,1.5-1.1c0.1,0,0.1,0.1,0.2,0.2c0.1,0.4-0.3,0.7-0.4,1.1c-0.9,1.2-2.1,2.5-3.3,3.4
	c0,0.1-0.1,0.1-0.1,0.1l-0.1,0.1c-2.4,1.9-5.2,3.2-8,4.1c-1.1,0.2-2.2,0.5-3.3,0.6h-0.2v-0.1c1.3-0.8,2.9-2.1,2.7-3.8v-0.2
	C139.4,219.5,140.5,219.2,141.6,218.9z M137.6,224.4c3.2-0.4,6.1-1.6,8.8-3.1c0,0,0.1,0,0.1,0.1c0.1,0.4-0.3,0.6-0.4,1
	c-0.6,0.9-1.2,1.7-2,2.4c-1.5,0.3-3.1,0.2-4.7,0.1c-0.6,0-1.2-0.2-1.8-0.3C137.5,224.5,137.6,224.5,137.6,224.4z M120.7,243.1
	c0.5,0.1,1.1,0.2,1.6,0.3c0,1.2,0.2,2.7,0.5,3.9c0.3,1.4,0.9,2.8,1.7,4c-0.2,0.1-0.5,0-0.7,0c-0.9-0.4-1.8-1-2.6-1.8
	c0,1.9-0.7,3.9-1.8,5.5c-1.4,2.1-2.9,4.2-4.4,6.2c-0.9,1.2-1.8,2.4-2.6,3.6c-0.1,0.2-0.2,0.5-0.1,0.7c0.1,0.4,0.6,0.3,1,0.4
	c1.4,0,2.8-0.2,4,0.2c0.2,0,0.2,0.1,0.3,0.1c0.5,0.2,1.1,0.7,1.1,1.3s-0.2,1.3-0.8,1.7c0,0.1-0.1,0.1-0.1,0.1
	c-0.2,0.1-0.5,0.3-0.7,0.2c0.1-0.2,0.1-0.5-0.1-0.7c-0.8-0.6-1.7-0.8-2.7-0.9c-1.6-0.1-3.3-0.2-4.9-0.1c-1.9,0.1-4,0.1-5.8,0.7
	c-0.6,0.3-1.3,0.7-1.2,1.4c0,0.1,0.1,0.1,0,0.2c-0.7,0.1-1.3-0.2-1.6-0.8c-0.2-0.5,0.1-1,0.4-1.4c0.3-0.4,0.7-0.6,1.1-0.8
	c0.1,0,0.2-0.1,0.1-0.2c-0.4-0.1-0.8-0.1-1.2,0c-0.9,0.2-1.9,0.6-2.3,1.5c-0.4-0.1-0.6-0.4-0.7-0.7c-0.1-0.5,0-1.1,0.4-1.4
	c0.8-0.6,1.9-0.6,3-0.5c-0.1-0.3-0.2-0.6,0-0.9c0.3-0.3,0.6-0.4,1.5-0.6c1.9-0.1,3.3,1.4,5.2,0.9c0.6-0.3,1.1-1,1.4-1.6
	c0.5-0.8,1-1.6,1.5-2.4c1.4-2.4,2.8-4.8,4.1-7.9c0.9-2.1,1.6-3.5,2-5.4c-1.2,1-2.5,2.1-4.2,2.1c0.4-0.9,0.7-1.8,1-2.7
	c0.6-2,1-4.3,1.1-6.3C116.9,241.9,118.8,242.7,120.7,243.1z M147.2,273.1c6.8-7.1,12.7-14.9,18-23c0.3-0.5,0.6-1,0.9-1.4
	c2.7-4.3,5.2-8.7,7.6-13.2c0.1-0.4,0.4-1,0.7-1.4c6-11.7,10-21.9,14.5-36.6c2.4-8,3.6-12.7,5.3-20.9c0.7-3.4,1.1-5.4,1.6-8.8
	c0.6-3.3,0.9-5.7,1.3-8.5c0.3-2.2,0.6-4.7,0.8-6.9l-0.1-0.1c-49.4,0-149.6,0-150.3,0c0.4,4.5,1,8.7,1.7,13.1
	c2.2,14.4,5.8,28.5,10.4,42.1l1.9,5.3c1.6,4.2,3.3,8.4,5.1,12.5c3.5,7.8,7.5,15.3,12,22.6c0.8,1.2,1.5,2.5,2.3,3.6
	c2.5,4,5.4,7.8,8.3,11.6c2,2.5,4.1,5.2,6.3,7.6c0.9,1,1.5,1.5,2.5,2.5c-1,0.2-2,0.4-3,0.5c0-0.1-4.6-5.3-6.7-7.8
	c-3.3-4.1-6.4-8.2-9.2-12.6c-1.4-2.3-2.9-4.3-4.2-6.6c-0.9-1.4-1.7-2.9-2.5-4.3C66,231.6,60.8,220,56.8,208l-2.2-6.8
	c-3.3-10.7-6-21.6-7.8-32.8l-0.9-5.9c0,0-0.5-3.4-0.8-5.6c-0.6-5-0.8-7.8-1.1-12.8c-0.4-6.3-0.6-9.8-0.8-16.1
	c-0.1-2.8-0.1-4.4-0.1-7.2c0-3.8,0.1-6.6,0.2-9.8c0.1-0.7,0-1.3,0.2-1.9c1.5,0.8,2.7,1.5,4.5,2.4c7,3.3,12.3,4.7,19.1,5.7
	c1.7,0.2,3.1,0.5,5.2,0.6c8.6,0.7,13.6,0,22-2.1c8.1-2.1,12.5-4.1,19.7-8.3c3.5-2.1,5.9-3.8,8.7-5.8c3.7,2.9,6.8,5.2,11.7,7.8
	c2.3,1.3,3.7,1.9,6.1,3c0.6,0.3,1,0.4,1.6,0.7c9,3.6,14.5,5,24.1,5.3c4.2,0.1,6.6,0,10.8-0.6c5.5-0.7,8.7-1.5,14-3.3
	c4.3-1.5,7.3-2.7,10.7-4.8c0.1,0,0.1,0.1,0.1,0.1c0.1,1.1,0.1,3.9,0.2,6.3c0.1,2.7,0.1,4.3,0.1,7c0,2.7,0,4.2-0.1,6.8
	c-0.1,2.8-0.2,4.3-0.3,7.1c-0.2,4-0.3,6.3-0.7,10.3c-1,11.3-1.9,17.7-4.2,28.8c-0.5,2.7-0.9,4.2-1.5,6.9c-0.4,1.6-0.6,2.5-1,4.1
	c-1,3.8-1.6,6-2.7,9.8c-3.2,10.7-5.2,16.8-9.7,27c-1.7,3.9-3,6.5-4.6,9.8c-3.2,6.3-6.6,12.5-10.5,18.5c-1.5,2.1-2.8,4.2-4.3,6.3
	l-3.4,4.5c-1.5,1.9-3,3.7-4.5,5.5c-1.7,2-3.5,3.7-5,5.6c-1.4-0.3-2.7-0.5-2.8-0.6C146.9,273.3,146.9,273.3,147.2,273.1z
	 M182.9,155.7h2.2c1.5,0,2.6,0.1,3.3,0.5c1.1,0.6,1.7,1.6,1.7,2.7s-0.6,2.1-1.8,2.7c1.6,0.8,2.4,1.9,2.4,3.2c0,2.1-1.8,3.5-5.1,3.5
	h-2.7c0.4-1,0.6-2.1,0.6-3.2V159C183.5,157.8,183.3,156.7,182.9,155.7z M61.7,161.3l-1.2,1.8c-0.8-0.4-1.8-0.6-3.1-0.6v2.5
	c0,1.2,0.2,2.3,0.6,3.3h-3.2c0.4-1,0.6-2.1,0.6-3.3v-6.1c0-1.2-0.2-2.3-0.6-3.3h7.4l-1,2.1c-0.8-0.6-2-0.8-3.4-0.8
	c-0.1,0-0.3,0-0.4,0v4.4H61.7z M27.6,156.2c2.9,1.6,4,4.5,4.1,8c0,0.3,0,0.3,0,0.5c0,2.5-0.8,3.9-1,6.4c0,0.4-0.1,0.6-0.1,1
	c0,0-0.1,0.1-0.2,0.1c-0.2-0.4-0.4-0.6-0.7-1.1c-0.3-0.5-0.4-0.8-0.6-1.4c-0.2-0.6-0.3-0.9-0.4-1.4c-0.2-0.9-0.2-1.6-0.2-2.3
	c-0.2-0.9,0-2,0-3c-0.1-1.2,0-2.3-0.3-3.8c-0.2-0.9-0.5-1.4-0.9-2.3c-0.1-0.3-0.5-0.8-0.4-0.9C27,155.8,27.4,156.1,27.6,156.2z
	 M15.3,172.2c0.4-2.3,1.3-3.4,1.4-5.7c0.1-1.7,0.1-2.9-0.3-4.3c0-0.1,0-0.1,0.1-0.2c0.2,0.2,0.6,0.5,0.6,0.5
	c2.6,2.1,3.8,4.8,4.2,8.4c0.2,1.7,0.1,2.7-0.3,4.4c-0.1,0.4-0.1,0.6-0.3,1c-0.2,0.8-0.4,1.5-0.7,2.1c-0.1,0.1-0.2,0.2-0.2,0
	c0-1.4,0.2-2.5-0.1-4.1c-0.2-1.2-0.5-2.1-0.9-3c-0.1,0-0.1,0.2-0.2,0.3c-0.5,1.4-0.9,2.5-1.1,4.2c-0.3,2.7-0.1,4.7,0.5,6.8
	c0,0.2-0.1,0.3-0.3,0.1c-1.3-1.5-1.9-2.9-2.4-5.1C14.8,175.5,14.9,174.3,15.3,172.2z M13.6,221.6c-2.8-3.6-3.6-8.1-3.3-12.6
	c0-1.8,0.1-3.5,0-5.3c-0.2-2.3-0.5-4.6-1.4-6.6c0-0.1,0.1-0.1,0.1-0.2c1.2,0.3,2.3,0.9,3.4,1.7c1.1,0.8,2,1.7,2.7,2.8
	c-0.1-5.2,1.9-10.3,4-15c0.9-1.9,1.8-3.8,2.6-5.7c1.7-3.7,3.1-7.6,3-11.9c0-0.1-0.1-0.2,0-0.3c0.8,0.2,1.1,0.8,1.6,1.4
	c4.4,4.7,4.3,9.4,5.1,15.8c0.1,1.1,0.1,1.8,0.3,2.7c1.1-1.1,2.6-1.8,4.2-1.7c0,0.1-0.1,0.2-0.1,0.4c-1.6,2.6-1.6,5.9-0.7,8.8
	c0.4,1.6,1.1,3.1,1.6,4.7c0.4,1.1,0.9,2,1.2,3.1c0.9,2.3,1.1,5,1.2,7.5c0,3.5-0.7,7.1-2.8,9.9c-0.5,0.8-1.1,1.5-1.7,2.2
	c-0.9,0.7-1.6,1.5-2.7,1.9c-0.4,0.2-1,0.5-1.4,0.5c0.9-1.8,2-3.9,2.2-6c0.1-1.4,0.3-2.6,0.2-4c-0.2-3-1.4-5.7-3-8.1
	c-1.5-1.9-3-4-3.9-6.2c-0.6,2.7-1.6,5.4-3.2,7.7c-0.4,0.9-1.1,1.6-1.5,2.5c-1.3,2.1-2.3,4.2-2.7,6.6c-0.4,2.5-0.1,5.1,1.2,7.2
	c0,0.1-0.1,0.1-0.1,0.1l-0.1-0.1l-0.1,0.1C17.1,225.2,15.2,223.5,13.6,221.6z M27.1,225.2c0.5-1.1,0.8-2.4,0.9-3.7
	c0-1.8-0.4-3.6-1.4-5c-0.1-0.1-0.2-0.3-0.4-0.4c-0.2,1.3-1,2.5-1.6,3.8c-0.3,0.7-0.6,1.4-0.8,2.1c-0.2,0.8-0.1,1.8-0.1,2.6
	c0.1,0.3,0.1,0.6,0.1,0.9c-0.5,0.1-0.7-0.4-1-0.7c-0.4-0.3-0.5-0.6-0.8-1c-0.9-1.5-0.9-2.6-0.7-4.3c0.1-0.6,0.1-1,0.3-1.6
	c0.5-1.8,1.2-2.7,2.2-4.3c1-1.6,1.9-2.3,2.3-4.1c0.1-0.4,0.1-0.9,0.1-0.9c0.2-0.2,0.2,0,0.3,0c3.2,2.7,4.2,7.1,3.7,11.1
	c-0.3,1.3-0.6,2.5-1.2,3.7c-0.4,0.9-1,1.7-1.8,2.2C27.1,225.5,26.9,225.4,27.1,225.2z M18,229.2c-0.3-0.2-0.7-0.3-1.1-0.5
	c-0.1-0.1,0-0.3,0-0.4c5.3-1.8,12.1-1.9,17.5,0.1c0,0.1,0.1,0.1,0.1,0.2c-0.1,0.1,0,0.2-0.1,0.3c-1.5,0.4-2.8,1.5-3.7,2.8
	c-0.4,0.5-0.7,1.1-0.9,1.7c-1.6-0.1-1.1-0.1-3.7-0.1c-3.2,0-1.3,0-3.9,0.1c-0.3-0.5-0.6-1.1-0.9-1.6C20.4,230.7,19.3,229.7,18,229.2
	z M17.8,243.1c-0.8-0.5-1.2-1.5-1.1-2.5c0.1-0.9,0.8-1.7,1.7-2c1.2-0.3,2.3-0.1,3.7-0.1c0-1.1,0-2.2,0-3.4c0.5,0.1,5,0.1,7.2,0.1
	c0,1.4,0,2.1,0,3.3c1.3,0,3.1-0.2,4.3,0.5c0.8,0.5,1.1,1.4,1,2.4c-0.2,0.9-0.8,1.7-1.7,2c-0.8,0.3-1.7,0.2-2.6,0.2h-1.1
	c0,1.7,0,2.2,0,4c0,0.3,0,0.4-0.1,0.4c-2.2,0.4-4.8,0.6-7,0.5c0-0.1,0-0.2,0-0.4c0-1.8,0-2.7,0-4.5c-0.7,0-1.4,0-2.1,0
	C19.2,243.5,18.4,243.5,17.8,243.1z M9.9,247.3c2,1.1,4.1,2.2,6.4,2.7c5.1,1.2,11,0.8,15.9-0.5c4.4-1.2,8.7-2.8,13-4.5
	c3.6-1.5,7.1-3.4,10.6-5.3c0.5-0.4,1.1-0.8,1.7-1.1c0.3,0.8,0.7,1.5,1.1,2.2c0,0.3-0.2,0.2-0.4,0.4c-2.5,1.4-2.7,1.6-5.1,2.9
	c-3.2,1.7-6.5,3.3-9.9,4.6c-1.5,0.6-3.2,1.1-4.9,1.7c-5.1,1.7-10.5,2.9-16.3,2.7c-3.7-0.1-7.4-1.1-10.8-2.7
	c-0.4-0.9-0.9-1.9-1.3-2.8C10,247.5,9.8,247.4,9.9,247.3z M13.1,276.9c1.5-0.9,2.7-1.8,4.3-3c3.3-2.5,5.5-4.6,7.9-7.3
	c-0.4-0.3-0.8-0.5-1.4-0.8c-5.3-3.4-8.2-7.3-10.9-11.8c0.1-0.1,0-0.2,0.2-0.2c0.7,0.3,1.4,0.6,2.2,0.9c3.9,1.2,8.8,1.4,13.1,0.8
	c1.3-0.1,2.7-0.4,3.9-0.7c1.4-0.3,2.8-0.7,4.2-1c8.2-2.6,15.9-6.2,23.3-10.6c2.7,5.2,5.8,10.2,9,15.1l0.9,1.4c0,0.1,0.1,0.2,0,0.2
	c-4.3,2.3-8.6,4.5-12,8.1c-0.8,0.8-1.4,1.7-2,2.5c-0.3,0.5-0.5,1-0.8,1.5c-1,0.5-2,1-2.9,1.5c-1.4,0.6-2.8,1.3-4.3,1.8
	c-2.7,1-5.4,1.9-8.1,2.6c-3.4,0.9-6.9,1.4-10.6,1.7l-0.1-0.1v0.1c-3.4,0.2-6.8,0.1-10.1-0.5c-1.9-0.4-3.7-0.9-5.4-1.7
	C12.9,277.1,12.7,277.2,13.1,276.9z M166,312.3c-0.2,0.1-0.5,0.2-0.7,0.4c-0.8,0.3-1.1,0.4-2.1,0.8c-2.4,0.8-5.3,0.8-7.8,0.3l-3-0.7
	c-3-0.8-6.3-1.5-7-1.7c-4.4-1.1-9-1.8-13.6-2.4c-1.5-0.1-3.1-0.2-4.7-0.4c-1.2,0-2.5-0.1-3.7-0.1c-5.9-0.2-11.7,0.3-17.4,1.1
	c-1.2,0.3-2.5,0.4-3.7,0.6c-4.2,0.8-8.3,1.8-12.5,2.7c-2.7,0.7-5.7,0.7-8.4,0.1c-0.3-0.1-1-0.3-1.7-0.6c-0.6-0.2-0.7-0.3-1.5-0.7
	l-0.5-0.3c-0.1-0.2,0.1-0.2,0.2-0.3c0.8,0.1,1.5,0.4,2.3,0.5c3.7,0.5,7.2-0.5,10.6-1.4c4.7-1.2,9.4-2.3,14.4-3
	c3.7-0.6,7.5-0.9,11.3-1.2c2.8-0.1,5.7-0.1,8.5,0c5,0.1,10.2,0.7,15.2,1.6c3.2,0.7,6.5,1.4,9.7,2.1c3,0.8,6.1,1.5,9.2,2.2
	c0.6,0,1.3,0.2,1.9,0.2c1.9,0,3.9,0,5.5-0.8c0.2,0,0.3,0.1,0.4,0.3C166.6,311.9,166.4,312.1,166,312.3z M189.4,284.1
	c-0.8,1.5-1.7,2.9-2.6,4.3c-1.4,2.2-3,4.2-4.6,6.4c-1.6,1.8-3.1,3.9-4.6,5.8c-1.3,1.5-2.7,3.1-4.1,4.5c-1,0.8-1.9,1.5-3,2.3
	c-0.5,0.4-1.1,0.7-1.7,1c-2.4,1.2-5.3,1.4-8.1,1.2c-2.8-0.4-5-1.2-8.2-2c-1.2-0.3-1.9-0.5-3.2-0.8c-5.2-1.3-8.2-1.9-13.5-2.7
	c-6.6-0.9-10.4-1.2-16.9-1.1c-3.9,0.1-6.2,0.2-10.1,0.6c-3.5,0.4-5.4,0.8-8.9,1.4c-5.9,1.1-10.1,2.4-15.1,3.6
	c-1.6,0.3-3.2,0.5-4.9,0.5h-0.1c-1.3,0-2.7-0.3-4-0.6c-1.9-0.5-3.6-1.9-5-3.3c-0.6-0.8-1.3-1.4-1.9-2.1c-3.1-3.3-5.6-6.9-8.2-10.6
	c-1.7-2.2-3.2-4.5-4.8-6.9c-0.4-0.9-1-1.7-1.5-2.6c0-0.1-0.1-0.3,0.1-0.4h0.1h0.3c2.1,2.8,5.4,3.6,8.6,4.1c1,0.1,2.2,0.1,3.3,0.1
	c0.4,0,0.7,0,1.1,0c2.8-0.1,5.2-0.6,8.4-1.1c6.4-1,9.9-2.3,16.2-3.6c2.2-0.4,3.4-0.7,5.5-1.1c6.9-1.3,10.8-2,17.9-2.3
	c4.8-0.1,7.4-0.1,12,0.2c9.1,0.5,14.2,1.7,23.1,3.6c4.9,1,7.6,2,12.4,3c4.7,1,8,1.7,12,2.2c2.4,0.1,4.7,0.2,7.1-0.3
	c1.3-0.3,2.5-0.8,3.7-1.3c1.1-0.6,2-1.4,2.8-2.3c0.1,0.1,0.4-0.2,0.4,0.1V284.1z M236.2,281.2c-4.6,2.7-9.1,4-15.3,4.3
	c-0.6,0-0.9,0-1.5,0c-1.7,0-2.7-0.1-4.4-0.2c-0.9-0.1-1.4-0.1-2.2-0.2c-0.9-0.1-1.4-0.2-2.4-0.3c-3.6-0.6-5.6-1.1-9.2-2.1
	c-2-0.6-3.1-1-5.1-1.7c-2.3-0.8-3.9-1.5-5.8-2.4c-0.6,1.5-1.6,2.8-3.2,4c-1.2,0.9-1.9,1.1-3.3,1.6c-1.4,0.5-2.2,0.6-3.7,0.7
	c-1.6,0.2-2.6,0.1-4.3,0c-1.7-0.1-2.7-0.3-4.4-0.5c-4.7-0.7-7.3-1.5-12-2.6c-2.6-0.6-4-1-6.6-1.6c-3.3-0.8-5.1-1.2-8.4-1.9
	c-6.1-1.2-9.5-1.8-15.7-2.2c-6-0.4-9.5-0.3-15.5,0.1c-6.1,0.4-9.5,1-15.5,2.1c-3.5,0.6-5.4,1-8.9,1.8c-4.3,0.9-6.7,1.7-11,2.6
	c-2.4,0.5-3.8,0.8-6.3,1.1s-4,0.5-6.5,0.3c-1.2-0.1-1.8-0.1-3-0.3s-1.8-0.3-2.9-0.8c-1.1-0.4-1.7-0.7-2.6-1.4
	c-0.4-0.3-0.6-0.4-0.9-0.8c-0.5-0.6-0.8-1-1.2-1.7c-0.2-0.4-0.4-0.8-0.5-1.2c-0.9,0.4-1.7,0.8-2.8,1.2c-7.4,3-11.9,4.7-19.9,5.3
	c-5.9,0.5-9.4,0.7-15.1-0.9c-3.5-1-6-2-8.6-3.6c0.6-0.4,1.4-0.8,2.1-1.1c0.5-0.2,0.5-0.3,0.9-0.3c1.3,0.7,2.3,1.2,3.9,1.8
	c4.2,1.5,6.8,1.7,11.3,1.7c1,0,1.6,0,2.6-0.1c3.2-0.2,4.9-0.4,8.1-1c7.3-1.4,12.3-3.3,18.1-5.9c0.1,0.3,0.1,0.7,0.2,1.1
	c0.6,2.9,3.4,4.1,6.4,5c1.9,0.6,3,0.4,5,0.4c1.3,0,2.1-0.1,3.4-0.2c6-0.5,9.2-1.7,15.1-3c4.6-1,7.2-1.7,11.8-2.6
	c1.2-0.2,1.9-0.4,3.2-0.6c3.1-0.5,4.8-0.8,7.9-1.2c8.5-1,13.5-1.2,22.1-0.6c0.5,0.2,0.8,0.3,1.4,0.3c7.3,0.6,11.9,1.5,18.1,2.9
	l-0.1,0.1l3.4,0.6c1,0.2,2,0.4,3.1,0.6c0.1,0,0.2,0,0.3,0.1c1,0.2,1.9,0.5,2.7,0.7l0.7,0.7l0.4-0.4c2,0.5,4,1.1,6.7,1.6
	c4.7,0.9,7.3,1.9,12.1,1.9c1.5,0,2.4,0.1,3.9-0.2c2.7-0.5,4.7-1,6.3-3.3c0.5-0.8,0.9-1.4,1.1-2.2c0.1-0.3,0.1-0.7,0.3-1
	c0.4,0.2,0.9,0.4,1.4,0.6c0.7,0.3,1.1,0.5,1.7,0.8c1,0.4,1.6,0.6,2.6,1c4,1.5,6.4,2.2,10.6,3.2c0.4,0.1,0.7,0.2,1.1,0.3
	c3,0.7,4.8,1,7.9,1.2c3.2,0.2,5.1,0.3,8.4-0.1c0.6-0.1,1.3-0.3,1.5-0.2c2.3-0.4,4.1-0.8,6.6-1.9c0.8-0.4,1.4-0.6,2.1-1
	c0.3,0,0.2,0,0.9,0.3c0.7,0.3,1.4,0.6,2,1C236.6,280.9,236.4,281.1,236.2,281.2z"/>
<path class="st0" d="M112.4,283.9c-2.7,0.3-5.4,0.6-8.1,1c-0.1,1.1-0.2,2.2-0.2,3.3c0.1,0.2,0.3,0.2,0.5,0.3
	c0.2-0.3,0.3-0.5,0.4-0.7c0.7-1.3,2.2-1.7,3.6-1.8c0.2,1.2,0.3,2.5,0.4,3.7c0.2,2.1,0.6,4.2,0.3,6.3c-0.2,0.7-0.4,1.6-1.1,2
	c0,0.2,0.1,0.3,0.2,0.4c1.8-0.2,3.6-0.3,5.3-0.5c-0.3-0.6-1.1-1.3-1.2-2.2c-0.1-0.5-0.2-1.1-0.2-1.6l-0.1-0.1
	c-0.3-2.6-0.5-5.3-0.7-7.9c0.1-0.1-0.1-0.2,0-0.3c0.9-0.1,1.8,0.1,2.7,0.4l0.7,0.5c0.1,0.2,0.5,0.4,0.6,0.6c0.2,0.3,0.4,0,0.6-0.1
	l-1.1-3.4C114.1,283.8,113.3,283.9,112.4,283.9z"/>
<path class="st0" d="M127.7,295.4c0.3-3.8,0.4-7.6,0.6-11.3c-0.4,0-0.8-0.1-1.4-0.1c-0.9,0.9-1.8,1.7-2.9,2.5
	c-0.3-0.1-0.2,0.3-0.2,0.5c0,0.1,0,0.1,0.1,0.1c1,0.5,1.4,1.6,1.4,2.7c0.1,1.4-0.2,3-0.2,4.5l-0.1,0.1l0.1,0.1c0,0.2,0,0.4-0.1,0.6
	c-0.2,1.1-0.6,2.2-1.7,2.7c0.1,0.2,0.1,0.3,0.2,0.4c1.7,0.1,3.3,0.2,4.9,0.3c0.2-0.1,0.2-0.3,0.3-0.4c-0.6-0.6-0.9-1.3-1-2.1
	C127.7,295.8,127.8,295.6,127.7,295.4z"/>
<path class="st0" d="M103.1,298.5c0.9-1.2,1.1-3.1,0.4-4.4c-0.8-1.4-2.2-2.1-3.7-2.5c-1.2-0.4-2.7-0.4-3.4-1.6
	c-0.3-0.6-0.2-1.3,0.2-1.8c0.6-0.6,1.4-0.9,2.3-0.8c0.7,0,1.2,0.4,1.8,0.8c0.1,0.1,0.3,0.4,0.5,0.5c0.2-0.2,0.4-0.3,0.4-0.5
	c-0.2-0.9-0.5-1.7-0.7-2.5c-0.7,0-1.4,0.1-2.1,0.1c-1.3,0-2.6,0.3-3.6,0.9c-0.7,0.6-1.2,1.4-1.5,2.2c-0.2,0.8-0.2,1.7,0.2,2.4
	c0.8,1.5,2.6,2.1,4.1,2.5c1,0.3,2.1,0.5,2.9,1.4c0.5,0.5,0.4,1.4,0.3,2.1c-0.2,0.9-1.1,1.4-1.9,1.6h-0.7c-1.2,0-2.2-0.9-3.1-1.7
	c-0.2,0.1-0.3,0.3-0.4,0.4c0.4,1,0.7,2,1.1,3l0.1,0.1c1.6-0.5,3.2,0,4.7-0.6C101.9,299.8,102.6,299.2,103.1,298.5z"/>
<path class="st0" d="M82.6,303c0,0.2,0.2,0.3,0.3,0.4c3-0.8,5.9-1.5,8.8-2.2c0.2-0.1,0.5,0,0.6-0.2c-0.1-1.1-0.1-2.3-0.1-3.4
	c-0.2,0-0.3-0.1-0.4-0.1c-0.4,0.6-0.8,1-1.3,1.5c-0.6,0.4-1.2,0.8-1.9,1.2c-0.8,0.2-1.5,0.6-2.3,0.7c-0.3-0.8-0.5-1.7-0.7-2.5v-0.1
	c-0.3-0.6-0.3-1.2-0.5-1.8c-0.1-0.2,0.2-0.2,0.3-0.3c1.3-0.3,2.8-0.4,3.7,0.6c0.1,0.1,0.3-0.1,0.4-0.2c-0.3-1.4-0.7-2.9-1.1-4.4
	c0,0-0.3-0.1-0.4-0.1c-0.2,0.9-1,1.6-1.7,2c-0.5,0.2-1.2,0.5-1.7,0.6c-0.2,0-0.1-0.3-0.2-0.4c-0.3-1.1-0.5-2.1-0.9-3.2
	c0-0.4,0.6-0.4,0.9-0.5c1.5-0.5,3.4-0.6,4.8,0.2c0.3,0.1,0.2-0.2,0.4-0.3c-0.3-0.8-0.8-1.7-1.2-2.5c-2.8,0.6-5.7,1.3-8.5,1.5
	c-0.1,0.1-0.5,0.1-0.5,0.3c-0.1,0.4,0.6,0.3,0.7,0.7c0.5,0.3,0.8,0.9,1,1.4c0.3,0.6,0.5,1.2,0.7,1.8c0.3,1.2,0.6,2.5,1,3.7
	c0.2,1,0.5,2,0.5,3c-0.1,0.4,0,0.6-0.1,0.9C83.2,301.9,83,302.5,82.6,303z"/>
<path class="st0" d="M151,292.3c0.2-1.6-0.3-3.3-1.5-4.4c-0.7-0.6-1.5-1-2.4-1.2l-0.2-0.1c-1.6-0.1-3,0.4-4,1.5
	c-0.2,0.3-0.4,0.5-0.5,0.9c-0.7,1.3-0.7,2.9,0.1,4.1c1,1.3,2.8,1.9,4.4,1.6c-0.4,0.7-1.1,1.3-1.6,1.9c-1.4,1.2-2.9,2.2-4.6,2.6
	c-0.3,0-0.7,0.2-1,0c0,0.2,0.1,0.4,0.1,0.5c1.2,0.3,2.3,0.5,3.5,0.8c0.7,0,1.2-0.5,1.8-0.8c1.6-1,3.2-2.4,4.3-3.9
	C150,294.7,150.7,293.5,151,292.3z M147.9,292.2c-0.1,0.1-0.3,0.3-0.4,0.4c-0.5,0.3-1.3,0.4-1.9,0.2c-0.3-0.1-0.6-0.3-0.9-0.6
	c0,0,0,0,0-0.1s-0.1,0-0.1,0c-0.2-0.4-0.4-0.9-0.3-1.4c0.1-0.6,0.3-1.3,0.9-1.7c0.5-0.5,1.4-0.6,2.1-0.3c0.3,0.1,0.6,0.3,0.8,0.6
	c0.1,0.2,0.1,0.4,0.2,0.5C148.5,290.7,148.3,291.6,147.9,292.2z"/>
<path class="st0" d="M161,290.6c-0.2-0.2-0.4-0.3-0.5-0.5c-1.5-1.2-3.8-1.4-5.4-0.6c-0.3,0.1-0.5,0.3-0.7,0.3
	c-0.3,0.3-0.7,0.5-1,0.8s-0.6,0.4-0.7,0.7c0.6,0.9,1.3,1.6,2,2.4c0.2,0,0.4,0,0.5-0.1c0-0.3,0.1-0.5,0.1-0.8
	c0.3-0.7,0.8-1.6,1.7-1.7c0.6-0.1,1.3,0.1,1.7,0.5c0,0.2,0.3,0.2,0.3,0.4c0.6,1.3,0,2.7-0.9,3.7c-2.1,2.3-4.9,3.9-7.8,5v-0.1
	c-0.4,0.2-0.9,0.3-1.4,0.5c0.1,0.1,0,0.4,0.1,0.5c3.5,0.9,6.9,1.7,10.4,2.6c0.7-0.9,1.2-1.8,1.8-2.7v-0.2c-0.1,0,0-0.2-0.2-0.2
	c-0.5,0.4-1.2,0.4-1.7,0.5c-1.1,0.1-2.1-0.1-3.1-0.3c-0.4-0.2-0.9-0.1-1.3-0.4c0-0.1,0-0.1,0.1-0.2c2.6-1.1,4.9-2.8,6.4-5.3
	c0.3-0.5,0.5-1.2,0.6-1.8c0-0.9-0.1-1.7-0.6-2.4C161.3,291,161.1,290.8,161,290.6z"/>
<path class="st0" d="M119.6,289.7c-0.6-0.1-1.3,0.1-1.7,0.6c-0.3,0.4-0.5,1.1-0.2,1.6c0.2,0.5,0.8,1,1.4,0.9c0.6,0,1.1-0.4,1.4-1
	c0.1-0.5,0.3-1.1-0.1-1.5C120.2,290,119.9,289.9,119.6,289.7z"/>
<path class="st0" d="M138.1,285.6c-0.3-0.1-0.5-0.3-0.8-0.5c-1.3-0.8-3.1-0.4-4.2,0.4c-1.1,0.9-1.6,2.3-1.2,3.7
	c0.2,0.8,0.8,1.3,1.3,1.9c-0.2,0.1-0.4,0.2-0.7,0.3c-0.3,0.3-0.8,0.4-1.1,0.8c-1.3,1.1-1.7,2.8-1.2,4.3c0.3,0.9,1.1,1.8,2,2.2
	c1.1,0.4,2.5,0.7,3.6,0.2c1.5-0.5,2.6-1.9,2.8-3.5c0.2-1.4-0.5-2.9-1.7-3.7c-0.1-0.1-0.2,0-0.3-0.2c1.4-0.2,2.5-1.4,2.7-2.7
	C139.5,287.5,139,286.4,138.1,285.6z M136.3,295.6c-0.1,0.8-0.7,1.6-1.4,1.8c-0.7,0.3-1.4,0-1.9-0.3c-0.2-0.3-0.5-0.5-0.5-0.9
	c-0.3-0.7-0.1-1.5,0.1-2.2c0.3-0.8,1.1-1.3,2-1.3c0.6,0.1,1.3,0.3,1.6,1C136.3,294.3,136.5,294.9,136.3,295.6z M136.5,289.9
	c-0.4,0.4-1,0.5-1.5,0.4c-0.3-0.1-0.6-0.2-0.8-0.4c-0.4-0.2-0.4-0.7-0.5-1c0-0.7,0.1-1.4,0.7-1.9c0.4-0.4,1-0.5,1.6-0.4
	c0.5,0.2,0.9,0.6,1.2,1C137.2,288.4,137.2,289.3,136.5,289.9z"/>
<path class="st0" d="M216,48.9c0,0-0.1,0-0.2-0.1l0,0C215.9,48.9,215.9,48.9,216,48.9z"/>
<path class="st0" d="M29.9,49c0,0,0.1,0,0.2-0.1l0,0C30,49,30,49,29.9,49z"/>
<path class="st0" d="M118.7,53.5L118.7,53.5c-2.6,2.8-2.6,2.8-3.9,4.3v0.1V58c1.1,1.2,3.5,4,3.7,4.1
	C119.3,59.2,119.3,56.3,118.7,53.5z"/>
<path class="st0" d="M106.7,53.5c-0.1,0.3-0.1,0.7-0.2,1c-0.3,2.6-0.2,5.2,0.5,7.6c1.2-1.3,2.5-2.8,3.7-4.2
	C109.3,56.4,108.1,54.9,106.7,53.5z"/>
<path class="st0" d="M108.6,65c-0.2,0.4,0,0.6,0.2,0.9c0.9,1.1,1.4,1.3,2.5,1.6c1.7,0.4,3,0.1,4.4-1c0.6-0.5,0.9-0.9,1.3-1.4
	c-1.4-1.6-2.8-3.2-4.2-4.8C112.7,60.3,109.9,63.5,108.6,65z"/>
<path class="st0" d="M113.1,47.1c-2.2-0.3-4.1,1.2-5.1,3.1c1.5,1.8,3.1,3.6,4.7,5.4c1-1.2,4.2-4.8,4.6-5.5
	C116.3,48.7,114.9,47.3,113.1,47.1z"/>
<path class="st0" d="M129.6,55.1c0.3,0.2,0.7,0.2,1,0.4c2.1,0.5,4.6,0.3,6.5-0.5c0.5-0.3,1-0.8,1-1.3s-0.4-0.9-0.8-1.1
	c-0.2-0.1-0.7-0.1-0.6-0.5c0.6-0.3,1.2-0.4,1.9-0.3c-0.1-0.3-0.3-0.6-0.3-0.8c-0.3-0.3-0.5-0.7-0.7-1.1c-0.2-0.3-0.5-0.6-0.6-0.8
	c-0.8-1-1.9-1.8-3.2-1.9c-2.3-0.3-4.1,1.3-5.1,3.1c-0.2,0.4-0.4,0.8-0.5,1.2c0.7-0.2,1.4-0.1,1.9,0.4c0,0.1,0,0.1-0.1,0.2
	c-0.7,0.2-1.6,0.6-1.8,1.4c-0.1,0.3,0.1,0.5,0.1,0.7C128.7,54.6,129.1,54.9,129.6,55.1z M135,50.2c-0.5,0.9,0.3,1.8,0.3,2.7
	c-0.1,0.5-0.3,0.9-0.8,1.2c-0.4,0.4-0.7,0.4-1.3,0.4s-0.9-0.1-1.3-0.4c-0.4-0.3-0.7-0.7-0.8-1.2c-0.1-0.9,0.7-1.8,0.3-2.7
	c-0.3-0.3-0.8-0.8-0.8-0.9c0-0.1,0.1-0.1,0.1-0.1c0.8,0.1,1.6,0.2,2.5,0.2s1.7-0.1,2.5-0.2l0.1,0.1C135.8,49.4,135.3,49.9,135,50.2z
	"/>
<path class="st0" d="M136.9,58.4c-0.7,0.1-0.8-0.7-1.1-1.1c-0.6,0.1-1.1,0.1-1.7,0.2c0,2.1,0,3.3,0,5.2c0.2-0.3,0.5-0.5,0.7-0.8
	c0.7-0.6,1.6-0.8,2.4-0.5c0.6,0.3,1.2,1,1.3,1.7l0.1-0.1c0.1,0.1-0.1,0.3,0,0.4l0.2-0.3c0.2-0.8,0.4-1.7,0.6-2.5
	c0.1-1,0.3-2,0.3-3.1l0.1-0.1h-0.1v-0.2v-0.1c0-0.5,0.1-1-0.1-1.4c-0.5,0.4-0.9,0.7-1.4,0.9c-0.3,0.2-0.9,0.1-0.8,0.6
	c0,0.3,0,0.7-0.1,0.9C137.2,58.3,137,58.3,136.9,58.4z"/>
<path class="st0" d="M132.2,66.3c0-0.5-0.1-0.9-0.3-1.3c0-0.1-0.1-0.3-0.1-0.4s-0.1-0.2-0.1-0.3c-0.1-0.3-0.3-0.5-0.5-0.7
	c-0.1-0.2-0.3-0.3-0.4-0.4c-0.1,0.1-0.2-0.1-0.3-0.1c-0.2-0.1-0.3,0.2-0.5,0.1c-0.1,0.2-0.3,0.3-0.3,0.5c-0.1,0.1-0.1,0.2-0.1,0.3
	c-0.2,0.6-0.1,1.4,0.2,1.8c0,0.2,0.1,0.4,0.2,0.5c0.2,0.5,0.7,0.9,1.2,1.2c0.4,0.1,0.7,0.3,1,0.3C132.3,67.3,132.3,66.8,132.2,66.3z
	"/>
<path class="st0" d="M134.1,67.8c1-0.3,2.1-1,2.6-2c0.3-0.7,0.5-1.6,0.1-2.2c-0.3-0.5-1-0.5-1.4-0.2c-0.9,0.7-1.3,1.7-1.3,2.7
	C134,66.6,134,67.2,134.1,67.8z"/>
<path class="st0" d="M127.1,58.5c0,0.8,0.1,1.6,0.2,2.4c0.2,0.4,0.2,0.8,0.3,1.2c0.2,0.5,0.3,1.1,0.6,1.6h0.1
	c-0.1-0.3,0.1-0.5,0.1-0.8c0.1-0.5,0.5-0.9,0.9-1.2c0.3-0.2,0.7-0.3,1.1-0.3s0.8,0.1,1.2,0.3c0.2,0.1,0.5,0.3,0.8,0.7
	c0-2.3,0-2.7,0-4.7c-0.6-0.1-1.2-0.2-1.8-0.3c-0.4,0.4-0.5,1.1-1.2,1.2c-0.7-0.3-0.3-1.1-0.4-1.6c-0.4-0.1-0.8-0.3-1.2-0.5
	c-0.2-0.1-0.4-0.3-0.6-0.4C127.1,56.9,127,57.7,127.1,58.5z"/>
<path class="st0" d="M120.3,40.5c0.9,0.8,1.6,1.3,2.5,1.9v-0.1h0.1c2.8-1.8,5-3.6,7.4-6.6c1.6-2.1,2.4-3.5,3.5-5.9
	c0.2-0.4,0.3-0.7,0.5-1.1c0.9-2.2,1.4-3.6,1.6-6c0.1-1.3,0.3-2.3,0-3.4c-0.5,0.2-0.5,0.2-1.6,0.5c-3,0.9-7,1-9.8-0.8
	c-0.1-0.1-0.2-0.2-0.3-0.3c-0.4-0.3-0.8-0.7-1.1-1c-1.3,1.7-3.1,2.4-5.5,2.8c-1.4,0.3-2.3,0.1-3.8-0.1c-1.4-0.2-2.4-0.6-3.5-1
	c0,0-0.2,0-0.3,0c0,0.1-0.1,0.2-0.1,0.3c0.1,0,0.1-0.1,0.1,0c-0.2,0.9-0.1,1.6,0,2.6c0.2,2.9,0.9,4.5,2,7.2c0.9,2.1,1.5,3.3,2.8,5.2
	c0.9,1.2,1.5,1.9,2.5,3C118.4,38.9,119.1,39.5,120.3,40.5z M127.2,21.4c0.1,0,0.1,0,0.2,0.1c0,0,0.6,0.4,0.8,0.7
	c0.1,0.2,0.1,0.3,0.1,0.5c0.1,0.2,0.1,0.4,0.1,0.6c0,0.1,0,0.3,0,0.5c0.4-0.6,0.7-1.3,0.9-2c0.1-0.2,0.1-0.4,0.2-0.6
	c0-0.2,0.1-0.3,0.1-0.5c0,0,0,0,0-0.1c0,0,0.1,0,0.1,0.1c0.2,0.2,0.3,0.4,0.3,0.7c0.1,0.2,0.2,0.6,0.2,0.9c0.1,0.7,0,1.2-0.3,1.9
	c-0.2,0.4-0.5,0.5-0.6,0.9c-0.1,0.3-0.1,0.5-0.1,0.9c-0.2,0.6-0.4,1-0.6,1.6c-0.2,0.5-0.3,0.8-0.5,1.2c-0.3,0.5-0.5,0.7-0.8,1.2
	c-0.2,0.3-0.1,0.6-0.4,0.8c-0.3,0.3-0.6,0.4-1,0.5c-0.1,0.2-0.2,0.3-0.3,0.3c0.7,0.3,1.3,0.8,1.7,1.2c0.6,0.7,0.8,1.7,0.5,2.6
	c-0.1,0.3-0.3,0.7-0.5,1l-0.1,0.1c0-0.1,0-0.1,0-0.1c0.2-0.7,0.2-1.3-0.1-2.1c-0.1-0.4-0.3-0.6-0.5-1c-0.4-0.6-1.3-1.2-2.2-1.8
	c0.4,0.4,0.9,0.7,1.2,1.2c0.4,0.6,0.6,1.4,0.4,2.1c0,0.1,0,0.1-0.1,0.2c0,0,0,0-0.1,0c0-0.4,0-0.7-0.1-1.1c-0.1-0.2-0.2-0.4-0.3-0.6
	c-0.3-0.3-0.3-0.3-0.5-0.2c-0.1,0.7,0,1.4,0.5,1.9c0.1,0.1,0.2,0.2,0.3,0.2c-0.1,0.1-0.2,0.1-0.3,0.1c-0.2,0-0.4-0.1-0.5-0.2
	c0,0.8,0.2,1.5,0.4,2.3c0.1,0.2,0.1,0.4,0.3,0.6c0.1,0.1,0.3,0.1,0.5,0.1s0.5,0,0.7,0.1l0.1,0.1c0,0.1-0.1,0.3-0.2,0.4h-0.1
	c0-0.1-0.1-0.1-0.2-0.2c-0.1,0-0.1,0-0.2-0.1c-0.5-0.1-1.1-0.1-1.6-0.1c-0.3,0-0.6,0.1-0.8,0.2c-0.1,0.1-0.1,0.1-0.1,0.2
	c-0.1,0-0.2-0.1-0.2-0.1c0-0.1,0-0.2,0-0.2c0-0.1,0.1-0.1,0.2-0.1c-0.2,0-0.4,0-0.5,0.2c0,0-0.1,0-0.1-0.1s0-0.1,0-0.2
	c0.1-0.1,0.2-0.2,0.3-0.2s0.1,0,0.2,0c0-0.1,0-0.1,0-0.2c0.2-0.2,0.5-0.1,0.7,0c0.1,0,0.3,0.1,0.4,0.1c0,0,0.1,0,0.2,0
	c0,0,0.1,0,0.1-0.1s-0.1-0.2-0.1-0.3c-0.4-0.8-0.6-1.7-0.7-2.5c-0.1,0-0.1,0.1-0.2,0.2c-0.1,0.1-0.2,0.2-0.3,0.2v-0.1
	c0.2-0.5,0.1-1-0.1-1.5c-0.2,0-0.4-0.1-0.7-0.1c0,0.5,0.1,1.3,0.4,1.7h-0.1c-0.2-0.1-0.3-0.2-0.5-0.3c0,0.3-0.1,0.7-0.3,1
	c-0.4,0.6-0.9,1.2-1.3,1.8V38c0,0.1,0.1,0.1,0.2,0.1c0.2,0,0.5,0,0.7,0c0.1,0,0.2,0.1,0.2,0.2c0,0.1,0,0.2-0.1,0.3
	c-0.1,0-0.1,0.1-0.1,0.1v-0.1c-0.1-0.1-0.3-0.1-0.5-0.2c-0.3,0-0.6,0-0.9,0c-0.4,0-0.7,0-1.1,0.1c-0.1,0.1-0.2,0.1-0.2,0.2
	c-0.1,0-0.2,0-0.3-0.1c0-0.1,0-0.2,0.1-0.2c0.1-0.1,0.1-0.1,0.2-0.1c-0.1,0-0.1,0-0.2,0c-0.2,0-0.3,0.1-0.4,0.3
	c-0.1,0-0.1-0.1-0.1-0.1c0-0.1,0-0.2,0.1-0.2c0.1-0.1,0.4-0.1,0.5-0.1c0-0.1,0-0.1,0-0.2c0.1-0.1,0.1-0.1,0.3-0.1
	c0.3,0,0.6,0.2,0.9,0.2c0.1-0.1,0.2-0.2,0.3-0.3c0.4-0.6,0.7-1.1,1-1.9c0.2-0.4,0.3-0.6,0.4-1c-0.2,0.2-0.5,0.4-0.8,0.4
	c0.2-0.5,0.3-1.2,0.4-1.8c-0.1,0-0.2-0.1-0.2-0.1c-0.8-0.3-1.6-0.9-2-1.6c-0.4-0.8-0.4-1.8,0-2.6c0.1-0.2,0.2-0.3,0.3-0.5
	c0.6-1,1.7-1.5,2.5-2.3c0.2-0.2,0.4-0.5,0.3-0.9c0-0.1-0.1-0.1-0.1-0.1c-0.2-0.2-0.5-0.2-0.8-0.2c-0.2,0.1-0.4,0.1-0.6,0.1
	c-0.1,0.2-0.2,0.3-0.3,0.5c0.1,0,0.3,0,0.4,0.1s0.1,0.1,0.2,0.2c0.1,0,0.2-0.1,0.3-0.2c0,0.2-0.2,0.4-0.4,0.5
	c-0.2,0.1-0.3,0-0.5-0.1c-0.1-0.1-0.2-0.2-0.2-0.3c-0.1,0.1-0.2,0.1-0.2,0.2c0.1,0.1,0,0.3-0.1,0.3c-0.1,0.1-0.3,0.2-0.3,0.4
	c-0.1,0-0.3,0-0.3-0.2c0-0.1,0-0.2,0-0.3c0.1-0.3,0.4-0.3,0.7-0.5l0.1-0.1c-0.1,0-0.1,0-0.2,0c-0.2,0.1-0.3,0.2-0.5,0.2
	c-0.1,0-0.2,0-0.2,0s-0.1,0-0.1-0.1c-0.1,0-0.1-0.1-0.1-0.2c0,0,0.1,0,0.2,0c0.2-0.1,0.4-0.3,0.7-0.2c0.1,0,0.3,0.1,0.4,0.2
	c0.1-0.1,0.2-0.2,0.2-0.4c-0.1-0.1-0.2,0-0.2-0.2c0,0,0,0,0-0.1c0.1,0,0.2,0,0.3,0c0-0.1,0.1-0.3,0.1-0.4c-0.3,0-0.5,0.1-0.8,0.2
	c0-0.1,0-0.1,0.1-0.2c0.1-0.2,0.4-0.3,0.6-0.4c0-0.1-0.1-0.2-0.2-0.3c0.1,0,0.2,0,0.3,0c0.1,0.1,0.1,0.2,0.1,0.4c0.2,0,0.3,0,0.5,0
	c0-0.1-0.1-0.1,0-0.2c0.2-0.3,0.6-0.2,0.9-0.2c0.3,0.1,0.5,0.1,0.8,0.2c0.4,0.1,0.7,0.2,1.1,0.3c0.2,0,0.3,0,0.4-0.2
	c0,0,0-0.1,0.1-0.1s0,0.1,0,0.2c0,0.2-0.2,0.3-0.3,0.3c-0.2,0.1-0.5,0.1-0.7,0.1c-0.1,0-0.2-0.1-0.3,0c0.1,0.1,0.2,0.2,0.3,0.3
	c0.2,0.3,0.1,0.7,0,1c-0.3,0.4-0.7,0.8-1,1.2c-0.5,0.6-0.9,1.3-0.7,2.2c0,0.1,0.1,0.2,0.2,0.2s0.2-0.1,0.2-0.2s0.1-0.2,0.1-0.3
	c0.1-0.4,0.2-0.9,0.3-1.3c0.1-0.4,0.3-0.8,0.6-1.1c0.1-0.1,0.2-0.2,0.3-0.3c0.7-0.7,1.6-1.3,2.2-2.1c0.5-0.6,0.9-1.2,1.1-1.9
	C127.4,22.1,127.3,21.8,127.2,21.4L127.2,21.4z"/>
<path class="st0" d="M18.5,209.5c1.2-2.4,2.4-4.9,3.2-7.5c0.4-1.7,0.9-3.3,1.2-5c0.6-2,1.3-4,2.9-5.6c0.1-0.1,0.2-0.1,0.2,0
	c0,1.8,0.5,3.4,1.3,5.4c0.4,0.9,0.6,1.4,1.1,2.3c0.4,0.7,0.7,1.1,1.2,1.8c0.2,0.2,0.3,0.3,0.4,0.5c0.8,1.3,1.3,2.1,2,3.5
	c0.8,1.4,1.2,2.3,1.7,3.8c1.4,4.2,1.6,7,0.7,11.4c-0.2,0.6-0.4,1-0.4,1.5c0.6-0.8,1-1.7,1.4-2.6c1.4-3.6,1.6-7.8,0.4-11.4
	c-1-3-2.3-5.6-3.5-8.4c-0.9-2.1-1.8-4.1-2.4-6.3c-1.5-4.4-2.4-9.1-3.2-13.8c-0.5,3-1.6,5.9-3.1,8.8c-0.8,1.7-1.6,3.2-2.4,4.9
	c-0.7,1.6-1.3,3.2-2,4.7c-1.3,3.5-2.6,6.8-2.8,10.7c0,0.1-0.1,0.1-0.2,0.1c-0.3-0.4-0.5-0.9-0.8-1.3c-0.5-0.7-1-1.4-1.7-1.9
	c-0.7,3-1,6-0.6,9c0.2,1.5,0.5,3,1.1,4.4c0.5,1.3,1.2,2.5,2.1,3.5h0.1c0.1,0,0.1,0.1,0.1,0.1C15.7,217.7,16.8,213.3,18.5,209.5z"/>
<path class="st0" d="M211.2,208.7c0.5-1.5,0.9-2.4,1.7-3.8c0.7-1.4,1.2-2.2,2-3.5c0.1-0.2,0.2-0.3,0.4-0.5c0.5-0.7,0.8-1.1,1.2-1.8
	c0.5-0.9,0.7-1.4,1.1-2.3c0.8-2,1.3-3.6,1.3-5.4c0-0.1,0.1-0.1,0.2,0c1.6,1.6,2.3,3.6,2.9,5.6c0.3,1.7,0.8,3.3,1.2,5
	c0.8,2.6,2,5.1,3.2,7.5c1.7,3.8,2.8,8.2,2,12.6c0,0,0-0.1,0.1-0.1h0.1c0.9-1,1.6-2.2,2.1-3.5c0.6-1.4,0.9-2.9,1.1-4.4
	c0.4-3,0.1-6-0.6-9c-0.7,0.5-1.2,1.2-1.7,1.9c-0.3,0.4-0.5,0.9-0.8,1.3c-0.1,0-0.2,0-0.2-0.1c-0.2-3.9-1.5-7.2-2.8-10.7
	c-0.7-1.5-1.3-3.1-2-4.7c-0.8-1.7-1.6-3.2-2.4-4.9c-1.6-2.9-2.7-5.8-3.1-8.8c-0.8,4.7-1.7,9.4-3.2,13.8c-0.6,2.2-1.5,4.2-2.4,6.3
	c-1.2,2.8-2.5,5.4-3.5,8.4c-1.2,3.6-1,7.8,0.4,11.4c0.4,0.9,0.8,1.8,1.4,2.6c0-0.5-0.2-0.9-0.4-1.5
	C209.6,215.7,209.8,212.9,211.2,208.7z"/>
<path class="st0" d="M83.5,166.9c2.2,0,3.8-1.8,3.8-4.6c0-1.2-0.3-2.3-0.8-3.2c-0.8-1.4-1.9-2.1-3.3-2.1c-2.2,0-3.8,1.9-3.8,4.6
	c0,1.3,0.3,2.4,0.9,3.4C81.1,166.2,82.2,166.9,83.5,166.9z"/>
<path class="st0" d="M69.6,157c-2.2,0-3.8,1.9-3.8,4.6c0,1.3,0.3,2.4,0.9,3.4c0.8,1.2,1.9,1.9,3.2,1.9c2.2,0,3.8-1.8,3.8-4.6
	c0-1.2-0.3-2.3-0.8-3.2C72.1,157.7,71,157,69.6,157z"/>
<path class="st0" d="M106.9,158.9c0-1.2-1-2.1-2.5-2.1v4.6C106,161.2,106.9,160.2,106.9,158.9z"/>
<path class="st0" d="M121.6,234.7c0-0.2-0.3-0.3-0.4-0.4c-0.7-0.4-1.4-1-2.1-1.5c-1.1-0.9-2.2-1.9-3.1-3.1c-0.3-0.2-0.4-0.5-0.6-0.8
	c-0.6-1-1.1-1.8-1.5-2.8c-0.8-1.8-1.3-3.8-1.4-5.8c0-0.4,0-0.9,0-1.4c0.1-2.2,0.7-4.4,1.6-6.4c0.4-1,1-1.9,1.6-2.9v-0.2
	c0-0.1-0.1-0.1-0.2-0.1c-1.1,0.7-1.9,1.7-2.7,2.6c-0.9,1.1-1.6,2.5-2.2,3.8c-0.4,1-0.7,2.1-0.8,3.1c-0.3,0.6-0.4,1.2-0.4,1.7
	c0,1.8,0.4,3.7,1,5.3c0.4,1,0.9,1.9,1.6,2.8c1.3,1.7,3.1,3.3,4.9,4.3c1.1,0.7,2.4,1.2,3.6,1.6C120.8,234.6,121.2,234.9,121.6,234.7z
	"/>
<path class="st0" d="M107.4,164.7c0-1.4-1.2-2.6-3-2.9v5.3c0.1,0,0.3,0,0.4,0C106.4,167.1,107.4,166.1,107.4,164.7z"/>
<polygon class="st0" points="115.3,162.9 118.6,162.9 117,159.3 "/>
<path class="st0" d="M187.9,158.9c0-1.2-1-2.1-2.5-2.1v4.6C187,161.2,187.9,160.2,187.9,158.9z"/>
<path class="st0" d="M188.4,164.7c0-1.4-1.2-2.6-3-2.9v5.3c0.1,0,0.3,0,0.4,0C187.4,167.1,188.4,166.1,188.4,164.7z"/>
<path class="st0" d="M48.7,146.3c0.1,0.1,0.1,0.3,0.2,0.4c4,0,8.1,0.2,12.1,0.1c0.6-1.7,1.3-3.5,1.8-5.2c-0.1-0.2-0.2-0.3-0.3-0.3
	c-0.9,0.9-1.9,1.7-3.1,2.1c-1.5,0.6-3.3,0.8-5,0.7c-0.2-4.5-0.1-9-0.1-13.5c0-2.3-0.1-4.9,1.9-6.4c0-0.2-0.1-0.3-0.2-0.5
	c-2.5,0-4.4,0-6.6-0.1c-0.2,0.1-0.3,0.3-0.4,0.5c0.5,0.5,1,1.1,1.1,1.8c0.3,1.3,0.3,2.9,0.3,4.3c0,4,0.1,8-0.1,12
	C50.2,143.7,49.9,145.3,48.7,146.3z"/>
<path class="st0" d="M64.7,143.4c-0.2,1.1-0.6,2.2-1.6,2.9c0,0.2,0.1,0.4,0.2,0.5c2.3,0,4.4,0,6.9,0c0.3-0.1,0.4-0.3,0.4-0.5
	c-0.4-0.2-0.6-0.6-0.8-0.8c-0.5-0.9-0.7-1.9-0.8-2.9c-0.1-3.6,0-7.1,0-10.7c0-2.7-0.1-5.6,1.4-7.8l-0.2-0.4c-2.1,0-4.3,0-6.4,0
	l-0.2,0.4l0.4,0.4c0.1,0.2,0.2,0.4,0.3,0.5c1,2,0.6,4.3,0.7,6.6c0,2.7,0,5.4,0,8.2C64.9,140.9,64.9,142.3,64.7,143.4z"/>
<path class="st0" d="M72.1,124.6c1.6,1.6,1.9,3.9,2.7,5.9c1.8,5.5,3.7,10.8,5.6,16.2c0.9,0.1,1.9,0,2.8,0c0.3,0.1,0.2-0.3,0.4-0.4
	c0,0,0.4-1.1,0.5-1.5c1.8-4.8,3.3-9.5,5.1-14.2c0.9-2.2,1.5-4.9,3.8-6.3c0.1-0.1,0-0.3-0.1-0.5c-2.2,0-4.3-0.1-6.5-0.1
	c0,0.1-0.2,0.3-0.2,0.5c0.4,0.2,0.7,0.4,0.8,0.8c0.5,1.4,0,2.8-0.4,4.1c-1.4,3.9-2.7,7.7-4.1,11.7c-0.5-1.2-0.8-2.5-1.2-3.7
	c0-0.1-1.9-5.8-2.8-8.6c-0.4-1.4-0.7-3.2,0.6-4.3c0-0.2-0.1-0.4-0.2-0.5c-2.4,0-4.7,0-7.1,0c-0.1,0.1-0.1,0.2-0.2,0.3
	C71.5,124.4,72,124.4,72.1,124.6z"/>
<path class="st0" d="M106.7,147.1c0.6-1.7,1.3-3.5,1.8-5.2c-0.2-0.1-0.2-0.2-0.4-0.2c-2,2-4.9,2.9-7.8,2.7c-0.2,0-0.4,0-0.5-0.1
	c0.1-1.6,0.1-6.5,0.1-7.5c0.1-0.2-0.1-0.4,0.1-0.5c1.9,0,3.8,0.3,5.1,1.7c0.1-0.1,0.3-0.1,0.4-0.2c0-1.5,0.1-2.9,0.1-4.3
	c-0.1-0.5,0.3-1.3-0.4-1.4c-0.5,0.5-1,1-1.7,1.2c-1.2,0.3-2.4,0.4-3.5,0.4l-0.1-0.1c-0.1-2.4,0-4.8,0-7.1l0.1-0.1
	c2.4,0,4.9,0.2,6.6,2c0.2,0,0.3-0.1,0.4-0.1c-0.1-1.5-0.3-2.9-0.4-4.4c-2.4-0.1-4.8-0.1-7.2-0.1c-1.6,0-3.3,0.1-4.9,0.3l-0.2,0.5
	c0.4,0.2,0.7,0.4,0.9,0.8c1.1,1.9,0.6,4.3,0.7,6.5c0,3.4,0,6.9-0.1,10.3c-0.2,1.6-0.4,3.1-1.6,4.2c-0.1,0.1-0.2,0.1-0.2,0.2
	c0.1,0.2,0.1,0.3,0.2,0.4C98.3,147.1,102.5,147.1,106.7,147.1z"/>
<path class="st0" d="M184.9,145.3c-0.2,0.6-0.6,1.1-1.1,1.5c0.1,0.1,0.1,0.3,0.2,0.4c4.1,0,8.2,0,12.3,0c0.6-1.4,1-2.8,1.5-4.2
	c0.1-0.3,0.2-0.7,0.3-1c-0.2-0.1-0.2-0.3-0.4-0.3c0,0-0.1,0-0.1,0.1c-2,2.2-5,2.9-8,2.7c-0.2-0.8-0.1-1.4-0.1-2.2
	c0-3.6-0.1-7.3,0-10.9c0.1-2.4-0.2-5.3,1.9-7c0.1-0.1,0-0.3-0.1-0.4c-1-0.1-2,0-3.1-0.1c-1.3,0-2.7,0-4,0.2c-0.3,0-0.3,0.2-0.4,0.4
	c0.1,0,0.2,0,0.2,0.1c1.2,0.6,1.3,2,1.4,3.2c0.2,1.8,0,3.6,0.1,5.4c0,2.9,0,5.8,0,8.7C185.4,143,185.4,144.3,184.9,145.3z"/>
<path class="st0" d="M166.7,144c1.5,2.2,4,3.4,6.7,3.4c2.6,0.1,4.8-1,6.6-2.7c1.4-1.5,2.2-3.3,2.7-5.2c0.5-2.5,0.5-5.3-0.2-8
	c-0.5-1.5-1.2-3-2-4.3c-1.1-1.4-2.4-2.4-3.9-3.1c-0.2-0.1-0.4-0.1-0.5-0.2c-3.3-0.9-6.9-0.2-9.1,2.3c-0.3,0.3-0.5,0.6-0.8,0.9
	c-0.5,0.7-0.8,1.3-1.1,2c-1.2,2.7-1.6,6.2-0.9,9.2C164.7,140.3,165.4,142.3,166.7,144z M168.1,132.4c0.3-1.3,0.5-2.7,1.3-3.8
	c0.1,0,0.1,0.1,0.1,0s-0.1,0-0.1-0.1c0.4-0.7,1-1.3,1.8-1.6c0.5-0.3,1.3-0.6,1.9-0.4l0.1,0.1c0-0.1,0.1,0,0.2-0.1
	c0.1,0.1,0.4,0,0.5,0.1c1.3,0.3,2.5,1.4,3.2,2.5c-0.1,0.1,0.1,0.1,0.1,0.2c1.5,3,1.8,7,1.1,10.5c-0.1,0.1-0.1,0.4-0.1,0.6
	c-0.5,2-1.9,4.1-4.1,4.4c-1.1,0.1-2-0.2-2.8-0.8c-0.9-0.7-1.5-1.5-2-2.5c-0.5-0.8-0.7-1.7-0.9-2.6c-0.1-0.5-0.2-1.1-0.3-1.6
	C167.8,135.8,167.9,134.1,168.1,132.4z"/>
<path class="st0" d="M144.6,142.3c0.7,1.3,1.6,2.6,2.8,3.6c0.8,0.7,1.7,1.1,2.6,1.4c0.6,0.1,1.2,0.3,1.8,0.3c3,0.3,5.8-1,7.7-3.3
	c3.3-4.5,3.4-11.4,0.6-16c-1.2-2.1-3.3-3.6-5.5-4.2c-1.2-0.3-2.4-0.3-3.6-0.2c-0.6,0.2-1.3,0.3-2,0.6c-1.4,0.5-2.5,1.6-3.5,2.7
	c-0.5,0.6-0.8,1.4-1.2,2.1c-0.5,1.3-1,2.7-1.1,4.3c-0.2,1.4-0.1,2.9,0,4.3C143.5,139.4,143.9,140.9,144.6,142.3z M147.2,132.4
	c0.1-0.6,0.3-1.2,0.4-1.8c0-0.4,0.2-0.8,0.4-1.1c0.7-1.5,2.1-2.9,3.9-3c1.5-0.1,2.8,0.7,3.7,1.7c1.8,2.4,2.2,5.3,2.2,8.3
	c-0.1,1.8-0.4,3.7-1.1,5.4c-0.8,1.6-2.4,3.2-4.2,3c-1.6-0.1-3-1.3-3.7-2.6c-1-1.4-1.3-3.1-1.6-4.8
	C146.9,135.8,147,134.1,147.2,132.4z"/>
<path class="st0" d="M126.3,147.2c0.1-0.1,0.1-0.2,0.1-0.4c-1.7-1.2-2.6-3.1-3.8-4.6c-1.3-2.1-2.7-4.1-3.8-6.3
	c0.7-0.5,1.4-0.9,2.1-1.3c1.4-1,2.4-2.6,2.6-4.3c0-0.3,0-0.7-0.1-1.1c-0.2-2-1.6-3.8-3.5-4.5c-1-0.5-2.2-0.6-3.3-0.7
	c-2.2,0-4.4,0-6.6,0c-0.2,0.1-0.2,0.4-0.3,0.6c0.3,0.1,0.3,0.4,0.5,0.5c0.6,0.9,0.8,2,0.8,3.1c0,4.2,0,8.6,0,12.9
	c0,0.8-0.1,1.6-0.2,2.3c-0.1,0.9-0.3,1.6-0.7,2.3c-0.2,0.4-0.6,0.7-0.8,1.1c0.1,0.1,0.1,0.2,0.3,0.3h5.5c0.5-0.1,1.3,0.3,1.4-0.4
	c-0.8-0.8-1.2-1.7-1.4-2.7c0,0-0.1-4.6-0.1-6.7c0-0.1,0.1-0.1,0.1-0.1c0.8,1.5,1.5,2.8,2.4,4.1c1.2,2.1,2.8,4.5,5,5.6
	c0,0.1,0.1,0.1,0.1,0C123.7,147.4,125.1,147.6,126.3,147.2z M116.6,134.1c-0.5,0.2-1.1,0.4-1.6,0.4c0-1.3,0-4.6,0-4.6
	c0-1.3,0-2.1,0-3.2c0.2-0.1-0.1-0.2,0.1-0.2c0.5,0,0.9,0,1.4,0.1c1.1,0.1,2,0.7,2.7,1.6c0.8,1.1,0.7,2.5,0.1,3.6
	c-0.1,0.2-0.3,0.4-0.5,0.7c-0.4,0.3-0.6,0.6-1.2,0.9C117.3,133.8,117,133.9,116.6,134.1z"/>
<path class="st0" d="M129.2,128.3c0,4.6-0.1,9.2-0.1,13.9c0,1.5-0.3,3.1-1.1,4.3c-0.1,0.2,0.1,0.3,0.2,0.5c2,0,4,0.1,6,0
	c0.1-0.1,0.2-0.3,0.2-0.4c-0.6-0.7-1-1.5-1.2-2.4c-0.3-2.2-0.1-4-0.1-6.3c0-0.1,0-0.2,0.1-0.2c3.2-0.2,6.5-1,8.1-4.1
	c0.7-1.4,1-2.4,0.8-3.9c-0.1-0.6-0.3-1.4-0.4-1.6c-1.2-2.7-4.1-4.1-7-4.2c-2.2,0-4.3,0-6.6,0c-0.1,0.1-0.2,0.3-0.3,0.5
	c0.2,0.2,0.3,0.4,0.5,0.6C129,126,129.2,127.1,129.2,128.3z M133.3,126.6c1.8-0.1,3.8,0.3,4.6,2.1c0.4,0.9,0.4,1.9,0.3,2.9
	c-0.1,0.2-0.1,0.4-0.1,0.5c-0.3,1.1-1.3,2-2.3,2.5c-0.8,0.4-1.6,0.5-2.5,0.5c0-0.1-0.1,0-0.1-0.1
	C133.3,132.2,133.2,129.4,133.3,126.6z"/>
<path class="st0" d="M121.2,190c-1-0.3-2.1-0.5-3.2-0.7c-0.2,0-0.5-0.1-0.6,0.1c-0.1,0.3-0.1,0.8,0.2,1.1c0.3,0.2,0.5,0.2,0.8,0.2
	c1,0,1.8-0.4,2.8-0.5C121.2,190.1,121.3,190,121.2,190z"/>
<path class="st0" d="M112.9,191.3c-0.1,0.5-0.1,0.6-0.2,1c-0.1,0.5-0.2,0.9-0.3,1.2c1.6-0.3,3.3-0.7,3.3-1.5
	C115.7,191.4,114.8,191.3,112.9,191.3z"/>
<path class="st0" d="M86.2,77.1c0-0.1-0.1-0.3-0.2-0.4h-3.1c-0.1,0.1-0.1,0.2-0.2,0.3c0.1,0,0.2,0.1,0.3,0.1c0.7,0.4,0.7,1.3,0.7,2
	v5.8c-0.1,0-0.1,0.1-0.1,0.2c-1.6-2.2-3.1-4.4-4.6-6.6c-0.1-0.4-0.4-0.7-0.4-1.1c-0.1-0.2,0-0.5-0.1-0.7c-1.1,0-2.2-0.1-3.3,0
	c0.4,0.7,1,1.7,1.1,2.7c0,2.1,0,4.2-0.1,6.3c-0.1,0.9-0.3,1.8-1,2.4c-0.1,0.1,0.1,0.3,0.1,0.4h3.3c0.1-0.1,0.1-0.2,0.1-0.4
	c-1-0.5-0.9-1.6-1-2.5c0-2,0-3.7,0-5.5c0.2,0.1,0.3,0.3,0.4,0.5c1.2,1.8,2.5,3.6,3.7,5.5c0.5,0.8,1.2,1.6,1.3,2.5h2.5
	c0.1-0.1,0.1-0.2,0.2-0.4c-0.2-0.3-0.5-0.6-0.6-1c-0.3-2.1-0.1-4.2-0.1-6.3C85.2,79.6,84.8,77.9,86.2,77.1z"/>
<path class="st0" d="M86.8,88.2c0,0.2,0.2,0.3,0.2,0.4h6.4c0.3-0.8,0.6-1.6,0.9-2.4c0.1-0.2-0.2-0.2-0.2-0.3c-1,0.9-2.3,1.2-3.7,1.3
	c-0.2,0-0.5,0-0.6-0.1v-3.8c0-0.1,0-0.2,0.1-0.3c0.9,0,1.9,0.2,2.4,1c0.1,0,0.3-0.1,0.4-0.2l-0.1-3.2c-0.1,0-0.1-0.1-0.2-0.1
	c-0.5,0.9-1.5,1.2-2.5,1.3l-0.1-0.1c0-1.2,0-2.4,0-3.6c0.6,0,1.2,0,1.8,0.2c0.8-0.1,1.4,0.8,2.1,0.5c-0.1-0.7-0.2-1.4-0.3-2
	c-2-0.1-4.1,0-6,0c-0.1,0.1-0.2,0.3-0.2,0.4c0.6,0.4,0.7,1.1,0.8,1.8c0,2.4,0,4.8-0.1,7.1C87.8,86.9,87.7,87.8,86.8,88.2z"/>
<path class="st0" d="M57.1,88.2c0,0.1,0.1,0.3,0.1,0.4c2,0.1,4.2,0,6.2,0.1c0.3-0.9,0.6-1.7,0.9-2.6c0-0.2-0.1-0.3-0.2-0.3
	c-0.3,0.3-0.7,0.6-1.1,0.8c-0.8,0.4-1.9,0.6-2.8,0.6c0-0.8,0.1-1.6-0.1-2.4c0-2,0-4,0.1-6c0-0.7,0.4-1.4,1-1.7
	c0.1-0.1,0-0.2-0.1-0.3h-3.8c-0.1,0.1-0.2,0.2-0.1,0.3c0.5,0.1,0.6,0.6,0.8,1c0,0.1,0.1,0.3,0.1,0.4c0.1,1.8,0,3.7,0.1,5.6
	C58,85.6,58.6,87.3,57.1,88.2z"/>
<path class="st0" d="M106.3,87.9c0,0.2,0.1,0.2,0.2,0.4c2.2,0,4.3,0,6.5,0c0.3-0.8,0.6-1.7,0.9-2.5c-0.1,0.2-0.2,0.1-0.4,0.1
	c-1.1,1-2.6,1.3-4.2,1.3l-0.1-0.1c0-1.4-0.1-2.7,0-4.1c0-0.1,0.1-0.1,0.2-0.1c0.9,0.1,1.7,0.2,2.3,1c0.2,0,0.3-0.1,0.4-0.2
	c0-1-0.1-2.1,0-3.2c-0.1-0.1-0.2-0.1-0.3-0.1c-0.2,0.4-0.6,0.7-0.9,0.9c-0.5,0.2-1,0.4-1.5,0.4c0-0.1-0.1-0.1-0.1-0.2
	c0.1-1.2,0-2.4,0.1-3.6c1,0,1.9,0.1,2.7,0.4c0.4,0.1,0.8,0.8,1.1,0.3c-0.1-0.7-0.2-1.3-0.3-2c-2.1,0-4.1,0-6.1,0
	c-0.1,0.1-0.2,0.3-0.2,0.4c0.2,0.1,0.4,0.4,0.5,0.6c0.1,0.1-0.1,0.2,0.1,0.2c0.2,1.1,0.2,2.1,0.2,3c-0.1,1.4-0.1,2.8,0,4.2
	C107.3,86,107.3,87.3,106.3,87.9z"/>
<path class="st0" d="M96.1,79.5c1.1,3,2.3,6,3.4,9.1h1.4c1.3-3.3,2.4-6.8,3.9-10c0.3-0.5,0.6-1.1,1.2-1.4c0.3-0.1,0-0.3-0.1-0.5
	l-2.9,0.1c-0.3,0.1-0.7-0.1-0.7,0.3c0.4,0.4,0.6,0.8,0.6,1.3c-0.1,1.3-0.6,2.5-1,3.7c-0.4,1.4-1,2.8-1.4,4.1
	c-0.7-2.2-1.5-4.4-2.2-6.7c-0.2-0.9-0.3-2,0.5-2.5c0-0.1,0-0.2-0.1-0.3h-1.1c-1,0-1.9,0-2.8,0c-0.2,0-0.5,0-0.5,0.3
	C95.1,77.6,95.6,78.6,96.1,79.5z"/>
<path class="st0" d="M65.2,87.5c-0.2,0.3-0.4,0.4-0.7,0.6c0,0.1,0,0.2,0.1,0.3c2.1,0.1,4,0.1,6.2,0.1c0.2,0,0.2-0.4,0.3-0.5
	c0.2-0.6,0.4-1.2,0.6-1.9c0.1,0,0.2-0.1,0-0.2c-0.1-0.1-0.2-0.1-0.3,0c-1,1-2.4,1.4-3.8,1.3c0-2.3-0.1-4.3-0.1-6.8
	c0-0.7-0.2-2.8,1.1-3.5c0-0.1-0.1-0.2-0.1-0.3h-3.7c-0.1,0.1-0.2,0.2-0.2,0.4c0.8,0.2,0.9,1.1,1,1.8c0,2.3,0.1,4.7-0.1,7
	C65.5,86.4,65.4,87,65.2,87.5z"/>
<path class="st0" d="M56.3,76.6h-1.8c0.1,0.1,0,0.3,0,0.4s0,0.1,0,0.2c0,0.7-0.2,1.4-0.5,2c-0.1,0.2-0.3,0.3-0.4,0.5
	c0.1,0.1,0.2,0.2,0.3,0.3C55.2,79.4,56,77.9,56.3,76.6z"/>
<path class="st0" d="M24.8,78.6c0.9,1.4,1.7,2.8,2.5,4.3v1c0,1.5,0.1,3.2-1.1,4.3c0,0.1,0,0.3,0.1,0.4c1.3,0,2.5,0.1,3.7,0
	c0.1-0.1,0.2-0.3,0.2-0.4c-0.4-0.1-0.7-0.5-0.9-1c-0.3-1.3-0.2-2.7-0.2-4c0.5-1.2,1.2-2.3,1.8-3.4c0.6-1.1,1.4-2.3,2.7-2.8
	c0-0.2-0.1-0.2-0.2-0.3c-0.7,0-1.2,0-1.9,0c-0.5,0-1.1,0-1.6,0.1c-0.1,0.1-0.2,0.2-0.2,0.4c1.1,1.1-0.1,2.2-0.5,3.2
	c-0.2,0.3-0.3,0.8-0.6,1.1c-0.5-0.8-1-1.7-1.4-2.6C27,78.4,26.9,78,27,77.6c0.1-0.3,0.4-0.6,0.8-0.7c0-0.1,0-0.2-0.1-0.3
	c-1.6-0.1-3.2,0-4.8,0c-0.1,0.1-0.2,0.3-0.2,0.4C23.6,77.2,24.2,77.8,24.8,78.6z"/>
<path class="st0" d="M39.9,77.1c-1.2-0.9-3.1-1.1-4.5-0.3c-2.3,1.4-2.9,4.1-2.7,6.6c0.4,1.9,1.2,4,3.1,4.9c0.2,0.2,0.5,0.2,0.7,0.3
	c0.2,0,0.4,0.1,0.7,0.1c0.3,0.1,0.7,0,1.1,0c2-0.3,3.4-2.2,3.8-4.1c0.4-1.9,0.1-3.8-0.6-5.5c0-0.2-0.1-0.3-0.2-0.5
	C40.9,78,40.5,77.5,39.9,77.1z M38.6,87.2c-0.6,0.3-1.4,0.2-2-0.1c-0.4-0.3-0.9-0.7-1-1.2c-0.7-1.3-0.9-2.8-1-4.4
	c0-1.5,0.4-3.3,1.9-3.9c1.1-0.3,2.1,0.3,2.7,1.2c0.7,1.2,1,2.6,1.1,4C40.4,84.4,40.2,86.3,38.6,87.2z"/>
<path class="st0" d="M53.7,76.9c-0.1-0.2-0.2-0.3-0.5-0.3c-1.1,0-2.3,0-3.4,0c-0.1,0.2-0.2,0.3-0.2,0.5c0.9,0.4,0.8,1.5,0.9,2.4
	c0,2.1,0,3.7,0,5.9c-0.2,0.3-0.5,0.6-0.8,0.8c-0.8,0.6-1.9,1.2-3,0.7c-0.6-0.3-0.7-0.9-0.9-1.5c-0.1-2.2,0-4.3,0.1-6.5
	c0.1-0.6,0.2-1.3,0.8-1.7c0.1-0.1,0.2-0.2,0.4-0.3c0-0.1-0.1-0.2-0.1-0.3c-1.5,0-2.7,0-4.1,0L42.8,77c0.4,0.1,0.8,0.5,0.9,0.9
	c0.3,1,0.3,1.9,0.2,3.1c0,1.7,0,3.4,0,5.1c0,0.4,0.2,0.8,0.4,1.2c0.3,0.5,0.8,1.1,1.5,1.3c1.6,0.5,3.2-0.2,4.4-1.2
	c0.1,0,0.2-0.3,0.3-0.2c0,0.4,0,0.8,0,1.2c0.9,0,1.9,0,2.8,0c0.1-0.1,0.2-0.2,0.2-0.3c-0.4-0.1-0.7-0.6-0.8-1.1
	c-0.2-2.2-0.1-4.4-0.1-6.6C52.7,79.2,52.4,77.6,53.7,76.9z"/>
<path class="st0" d="M184.9,88.4c0,0.1,0.1,0.2,0.1,0.4c2.1,0.1,4.2,0,6.2,0.1l0.1-0.1c0.3-0.9,0.6-1.7,0.9-2.6
	c-0.3-0.2-0.4-0.3-0.5-0.1c-1,1-2.4,1.3-3.8,1.3c-0.1-2.4-0.1-4.9,0-7.3c0.1-0.9,0-1.9,0.6-2.5c0.1-0.2,0.8-0.3,0.4-0.7
	c-1.3-0.1-2.5,0-3.7-0.1c-0.2,0.1-0.2,0.2-0.2,0.4c0.6,0.3,0.9,0.9,1,1.6c0.1,2.2,0,4.5,0,6.8C185.9,86.6,186,87.8,184.9,88.4z"/>
<path class="st0" d="M196.2,88.9c0.9,0.2,1.9,0.1,2.7-0.3c2.2-1.1,3-3.6,3-5.9c-0.2-1-0.2-2-0.7-2.9c-0.4-1.1-1.2-2.1-2.2-2.8
	s-2.5-0.7-3.7-0.3c-2.1,0.9-3.1,3.1-3.2,5.3c0,0.4,0,1,0,1.4c0.2,1.1,0.5,2.2,1,3.1C193.6,87.7,194.9,88.6,196.2,88.9z M195.5,78
	c0.5-0.3,1.3-0.4,1.8-0.1c0.5,0.1,1,0.6,1.3,1.1c0.5,0.8,0.8,1.7,0.9,2.6c0,0.2,0.1,0.4,0.1,0.6c0.1,1.9,0.2,4-1.4,5.1
	c-0.5,0.3-1.2,0.4-1.7,0.1c-1.6-0.7-2-2.6-2.3-4.2C194,81.4,193.8,79.1,195.5,78z"/>
<path class="st0" d="M179,88.4l0.2,0.4h4.3c0.1,0,0.1-0.1,0.2-0.2c0-0.1,0-0.2,0-0.3c-1.1-0.5-1.6-1.9-2.1-3
	c-1.1-2.9-2.3-5.7-3.5-8.6c-0.4,0-0.8-0.1-1.2,0c-1,2.2-1.9,4.6-2.8,6.8c-0.8,1.7-1.2,3.7-3,4.7c0,0.1,0.1,0.3,0.1,0.4
	c1.3,0.1,2.6,0.1,3.9,0.1l0.1-0.2c0-0.2-0.3-0.2-0.4-0.4c-0.5-0.5-0.3-1.3-0.1-1.9c0.1-0.2,0.4-0.1,0.6-0.1c1.4,0,2.8,0,4.2,0
	c0.2,0.5,0.4,0.9,0.3,1.5C179.7,88,179.4,88.2,179,88.4z M175.3,84.7c0.5-1.7,1.3-3.2,1.9-5c0.6,1.7,1.3,3.4,1.8,5
	C177.9,84.8,176.5,84.8,175.3,84.7z"/>
<path class="st0" d="M221.4,86.2c-1,0.8-2.2,1.2-3.6,1.3c-0.2,0-0.5,0.1-0.7-0.1c0-1.3,0-2.4,0-3.8c0.1-0.1,0-0.2,0.2-0.2
	c0.9,0.1,1.8,0.3,2.3,0.9c0.2,0,0.3-0.1,0.4-0.2c0-0.9,0-1.7,0-2.5c0-0.3,0-0.5-0.1-0.7c-0.1-0.1-0.2,0-0.2,0
	c-0.4,0.7-1.1,0.9-1.7,1.1c-0.3,0-0.5,0.2-0.7,0.1c-0.1-1.2,0-2.4,0-3.6c1-0.1,1.9,0,2.8,0.4c0.4,0.1,0.7,0.8,1.1,0.2
	c0-0.7-0.2-1.3-0.2-2l-0.1-0.1h-6.1c-0.1,0-0.2,0.2-0.3,0.3c1,1,0.7,2.5,0.8,3.8c-0.1,1.6-0.1,3.5-0.1,5.1c-0.1,0.8-0.2,1.8-1.1,2.3
	c-0.1,0.2,0.1,0.3,0.2,0.5c2.1,0,4.3-0.1,6.5,0c0.2-0.1,0.2-0.4,0.3-0.6c0.2-0.7,0.5-1.4,0.6-2.1C221.7,86.3,221.6,86.1,221.4,86.2z
	"/>
<path class="st0" d="M206.2,78.8c-0.3-0.5-0.5-1.2-0.5-1.8c-1.1,0-2.3-0.1-3.4,0c0,0.1-0.2,0.2,0,0.4c0.9,0.5,0.9,1.6,1.1,2.5
	c0,1.5,0,3.1,0,4.7c-0.1,1.4,0.1,3-1.1,4l0.1,0.3l3.3,0.1l0.2-0.1c0-0.1,0.2-0.3,0-0.4c-0.6-0.2-0.7-0.8-0.9-1.3
	c0-0.9-0.2-1.9-0.1-2.8c0-1.4,0-2.7,0-3.8c1.4,2,2.7,3.8,4,5.8c0.5,0.8,1.2,1.6,1.4,2.6c0.8,0,1.7,0,2.6,0c0.2-0.1,0.2-0.3,0.2-0.4
	c-0.2-0.2-0.4-0.5-0.5-0.8c-0.4-1.8-0.1-3.9-0.2-5.7c0-0.6,0-1.4,0.1-2.1c0-0.6,0-1.4,0.4-1.9c0.1-0.5,0.4-0.6,0.6-0.8
	c0-0.1-0.1-0.3-0.2-0.3c-1,0-2.1,0-3.1,0c-0.2,0-0.2,0.2-0.3,0.4c0.7,0.2,1,0.9,1,1.6c0,2.1,0,4.3-0.1,6.4
	C209.3,83.2,207.7,81,206.2,78.8z"/>
<path class="st0" d="M123.6,88.7c0.1-0.1,0.2-0.2,0.2-0.4c-0.4-0.1-0.9-0.3-1.2-0.6c-1.4-1.4-2.4-3.1-3.3-4.9
	c0.9-0.3,1.7-0.9,2.1-1.7c0.4-0.7,0.3-1.6,0-2.4c-1.3-2.4-4.3-1.7-6.8-1.9c-0.1,0-0.1,0.2-0.2,0.3c0,0.1,0.1,0.2,0.2,0.2
	c0.3,0.4,0.5,0.8,0.6,1.3c0.1,2.3,0.1,4.6,0,7c-0.1,0.9-0.2,2-1,2.6c0,0.1,0.1,0.2,0.2,0.4c1.1,0,2.1,0,3.2,0c0.2,0,0.3,0,0.3-0.2
	c-0.3-0.3-0.7-0.8-0.8-1.4c0-1.2-0.1-2.6,0.1-3.7c0.1,0,0.1,0,0.2,0.1l0.7,1.3c0.8,1.3,1.6,2.6,2.9,3.5c0.3,0.1,0.5,0.2,0.8,0.4
	C122.4,88.7,123,88.8,123.6,88.7z M117.2,82.2v-4c1-0.1,2,0.3,2.4,1.2c0.2,0.6,0.2,1.4-0.3,1.9C118.8,81.9,118,82.3,117.2,82.2z"/>
<path class="st0" d="M129.1,77.2c-0.1-0.1-0.2-0.3-0.2-0.4h-2.7c-0.5,0.2-1.4-0.4-1.6,0.4c0.8,0.3,1.3,1.2,1.6,2
	c0.9,3.1,2,6.3,3,9.4c0.3,0,0.7,0,0.9,0c0.7-2.2,1.4-4.4,2.2-6.7c0.7,2.3,1.4,4.5,2.1,6.7c0.4,0,0.8,0,1.2,0
	c0.8-2.4,1.6-4.8,2.5-7.3c0.3-1.2,0.6-2.5,1.4-3.5c0.2-0.3,0.5-0.4,0.8-0.6c0-0.5-1.4-0.4-1.4-0.4h-2.6c-0.1,0.1-0.1,0.2-0.2,0.3
	c0.5,0.1,0.8,0.6,0.9,1c0,0.9-0.3,1.6-0.5,2.3c-0.4,1.3-0.8,2.7-1.3,4.1c-0.1,0-0.2,0-0.2,0c-0.8-2.5-1.6-5.2-2.5-7.7
	c-0.1,0-0.2,0-0.3,0c-0.8,2.5-1.7,4.8-2.4,7.3c-0.1,0.1-0.1,0.3-0.2,0.4c-0.5-1.6-1-3.4-1.4-5c-0.1-0.3-0.1-0.8-0.1-1.2
	C128.2,77.8,128.6,77.3,129.1,77.2z"/>
<path class="st0" d="M158,88.1c0,0.2,0.2,0.3,0.2,0.5c1.2,0,2.5,0,3.7,0.1c0.2-0.1,0.2-0.3,0.3-0.5c-0.6-0.1-0.9-0.7-1-1.3
	c-0.1-1.2-0.1-2.7-0.1-3.9c0-0.1,0-0.1,0.1-0.1c1.5,2,3,3.8,4.4,5.7h3.1c0.1-0.1,0.1-0.2,0.2-0.3c-1.2-0.7-2.2-2-3.4-3.2
	c-0.8-1.1-1.7-2.2-2.4-3.3c1.3-1.4,2.7-2.9,4.2-4.1c0.3-0.2,0.8-0.3,1.1-0.5c-0.1-0.1-0.1-0.3-0.3-0.4h-3.8
	c-0.1,0.1-0.2,0.2-0.2,0.3c0.5,0.6-0.1,1.2-0.4,1.7c-0.8,1-1.5,1.7-2.4,2.6c0,0.1-0.1,0-0.1,0c0.1-1.4-0.4-3.5,1.2-4.3
	c0-0.1,0-0.3-0.1-0.4h-1.9c-0.7,0-1.4,0-2,0c0,0.1-0.2,0.2-0.2,0.4c0.2,0.1,0.6,0.3,0.7,0.6c0.2,0.2,0.2,0.5,0.3,0.8
	c0,2.5,0,4.8,0,7.2C159.1,86.6,159,87.7,158,88.1z"/>
<path class="st0" d="M150.5,88.4c0,0.1,0,0.2,0.1,0.3c2.1,0.1,4.2,0.1,6.3,0.1c0.4-0.9,0.7-1.8,0.9-2.6c-0.1-0.2-0.1-0.3-0.2-0.3
	c-0.4,0.4-0.8,0.8-1.3,0.9c-0.8,0.4-1.7,0.6-2.6,0.6c-0.1-1.9,0-3.8-0.1-5.7c0-0.7,0-1.6,0.1-2.3c0-0.8,0.2-1.7,1-2.2
	c0.1-0.1,0-0.2-0.1-0.3c-1.2,0-2.4,0-3.7,0c-0.3-0.1-0.2,0.2-0.3,0.3c0.6,0.3,0.9,0.9,1,1.6c0,1.8,0,3.7,0,5.5
	C151.4,85.7,151.9,87.6,150.5,88.4z"/>
<path class="st0" d="M144.8,88.4c0,0.2,0.1,0.2,0.2,0.4h4.4c0.1-0.1,0.2-0.2,0.2-0.4c-0.3-0.2-0.6-0.4-0.8-0.7
	c-0.2-0.3-0.4-0.6-0.6-0.8c-1.6-3.3-2.8-6.7-4.3-10c-0.4,0-0.8,0-1.1,0c-1.2,2.6-2.2,5.3-3.3,8c-0.6,1.2-1.2,2.8-2.6,3.5
	c0,0.1,0.1,0.3,0.1,0.4c1.4,0,2.6,0,3.9,0c0.1-0.1,0.2-0.2,0.2-0.3c-0.2-0.1-0.5-0.2-0.6-0.5c-0.3-0.6-0.1-1.3,0.1-1.8
	c1.6,0,3.1-0.1,4.7,0c0.2,0.4,0.4,0.9,0.3,1.4C145.5,88,145.2,88.2,144.8,88.4z M144.6,84.8c-1.2,0-2.4,0-3.5-0.1
	c0.5-1.7,1.2-3.3,1.9-5l1.9,4.9C144.9,84.9,144.7,84.7,144.6,84.8z"/>
</svg>
