<?xml version="1.0" encoding="utf-8"?>
<!-- Generator: Adobe Illustrator 24.0.1, SVG Export Plug-In . SVG Version: 6.00 Build 0)  -->
<svg version="1.1" id="svg2817" xmlns:svg="http://www.w3.org/2000/svg"
	 xmlns="http://www.w3.org/2000/svg" xmlns:xlink="http://www.w3.org/1999/xlink" x="0px" y="0px" viewBox="0 0 549 768"
	 style="enable-background:new 0 0 549 768;" xml:space="preserve">
<style type="text/css">
	.st0{fill:#FFFFFF;}
</style>
<g>
	<path class="st0" d="M523.8,0.2H25.2H0.1v573.1c1.3,27.2,12.5,50.9,28.7,68.8c17.1,19,39.3,32.4,62.5,42.9
		c46.4,21,99.1,31.7,132.8,42.9c2.2,1,16.3,7.6,16.7,7.9c5.9,4,15.1,13.1,15.1,13.1l17.5,18.8h0.3l18.2-18.2c0,0,9.6-9.2,12.1-11.1
		v0.3c6.5-5.1,7.7-6,20-10.5c32-11.7,85.5-22.2,132.5-42.9c23.5-10.3,45.9-23.5,63.5-42.5c17.5-19,29.1-44.8,29.1-74.6V25.4V0.2
		H523.8z M533.4,568.1c0,37.5-18.9,66.8-57.8,89.8c-32.1,18.9-73,30.5-109.1,40.8c-17.6,5-34.2,9.7-48,14.7
		c-12.9,4.7-17.6,7.4-24.4,12.7c-4,3.1-11.1,9.9-13.5,12.3l-6.9,6.8l-6.6-7c-0.1-0.1-9-9.5-17.5-15.3c-4.7-3.2-16.4-8.2-20.8-10.1
		c-11.9-3.9-25.6-7.7-40.1-11.8c-37.1-10.3-79.2-22-112.6-41.3c-18.8-10.9-32.8-22.9-42.9-36.8c-11.6-16-17.4-34.5-17.4-54.7V15.9
		h517.4V568.1z"/>
	<path class="st0" d="M85.9,643.6c31.3,18.1,72.2,29.4,108.2,39.5c14.8,4.1,28.9,8,41.3,12.1l0.6,0.2c1.8,0.7,17.3,7.1,24.6,12
		c5.1,3.5,10.1,7.8,13.9,11.4c2.8-2.6,5.9-5.4,8.4-7.3l0,0c8.9-6.9,15.6-10.4,29.5-15.5c14.4-5.3,31.4-10.1,49.3-15.2
		c35-9.9,74.7-21.2,104.7-38.9c33.1-19.5,48.5-42.9,48.5-73.6V35H35v533.4C35,599.2,51.7,623.8,85.9,643.6z M174,635.7V654h-5v-35.1
		c0,0,4.6-0.8,9.5-0.5c4.8,0.3,9.7,1.6,9.7,5.8C188.2,632.4,174,635.7,174,635.7z M212.8,654c0,0-0.7-4.8-3.3-11.3
		c-2.3-5.7-3.9-8.5-4.2-9.2c-2.8,1.3-5.3,2.1-5.3,2.1V654h-5v-35.1c0,0,4.7-0.8,9.2-0.5c4.6,0.3,9.2,1.6,9.2,5.8
		c0,3.2-2,5.8-4.5,7.6c0.8,1.3,3.4,5.4,5.2,10.2c2.1,5.7,3.3,12,3.3,12H212.8z M241,623h-10v7h7v4h-7v16h10v4h-15v-3.5v-16.3v-4V623
		v-4h15V623z M255,635.7V654h-5v-35.1c0,0,4.7-0.8,9.2-0.5c4.6,0.3,9.2,1.6,9.2,5.8C268.5,632.4,255,635.7,255,635.7z M291.7,654
		l-5.7-20h-6.8l-5.7,20H268l11-35h4.4h2.9l10.7,35H291.7z M320.4,654c0,0-0.4-4.8-3.2-11.3c-2.4-5.8-4.4-8.6-4.7-9.2
		c-2.9,1.3-5.5,2.1-5.5,2.1V654h-5v-35.1c0,0,4.9-0.8,9.7-0.5c4.8,0.3,9.5,1.6,9.5,5.8c0,3.1-2,5.5-4.5,7.3
		c0.7,1.1,3.3,5.5,5.3,10.5c2.3,5.7,3.4,12,3.4,12H320.4z M347,623h-11v7h7v4h-7v16h11v4h-15v-19.8v-4V623v-4h15V623z M360.2,654
		H355v-35.1c0,0,1.6-0.4,3.7-0.5c6.2-0.4,18.6,0.7,18.6,14.1C377.2,654.3,360.2,654,360.2,654z M399.1,75.2
		c10.6-9.5,23.8-14.1,39.3-14.1c7,0,13.9,1.3,20.7,3.7c6.8,2.4,10.3,4.4,11,6c0.2,0.7,0.9,3.5,1.6,8.9c0.7,5.3,1,8.3,1,8.9
		c0,0.4-0.8,0.8-2.1,1c-1.3,0.3-2.4,0.3-3.1,0.3c-0.5,0-0.6,0.1-0.8-0.3c-0.1-0.3-0.3-1-0.5-1.8c-1.7-5.3-4.9-9.9-9.4-13.9
		c-4.5-4-10.3-6-17.5-6c-10.7,0-19.3,4.1-25.9,12.3c-6.6,8.1-9.9,18.4-9.9,30.9c0,12.6,3.6,23.1,10.7,31.7
		c7.2,8.5,16.2,12.8,27,12.8c7.9,0,13.5-1.4,17.3-4.4c3.8-3.1,7.2-7.9,10.2-14.7c0.8-1.9,1.4-2.9,1.8-2.9c0.6,0,1.7,0.2,3.1,0.8
		c1.4,0.5,2.1,1,2.1,1.6c0,0.3-0.2,1-0.5,2.1l-4.2,17.3c-9.3,4.8-20,7.1-32.2,7.1c-15.7,0-28.7-4.5-39.3-13.6
		c-10.6-9.1-16-22.1-16-39C383.4,96.3,388.5,84.7,399.1,75.2z M291,156.7c0-0.9,0.8-1.6,2.4-1.6c3.6,0,6.3-0.9,8-2.9
		c1.8-2,2.7-5,2.7-9V82.4c0-5.3-0.7-9.1-2.1-11.1c-1.3-2-3.9-2.9-8-2.9c-1.8,0-2.9-0.6-2.9-1.6v-2c0-0.9,1-1.3,2.6-1.3
		c0.9,0,4.4,0,10.8,0.3c6.4,0.2,11.5,0.3,15.5,0.3c3.3,0,11.3,0,24.2-0.3c12.9-0.2,20.2-0.3,21.6-0.3c1,0,1.3,0.3,1.3,1.3v19.7
		c0,1.2-0.4,1.6-1.3,1.6h-2.1c-0.9,0-1.4-0.7-1.8-2.1l-1.6-4c-1.4-3.8-3.3-6.3-5.8-7.7c-2.5-1.4-7.4-2.1-14.7-2.1h-4.2
		c-5.2,0-8.6,0.4-10.5,1.6c-1.8,1.2-2.9,3.5-2.9,6.9V105h20.9c4.3,0,7.1-0.7,8.6-1.9c1.5-1.2,2.7-3.9,3.5-7.8c0.2-1,0.7-1.3,1.3-1.3
		h1.4c0.9,0,1.3,0.6,1.3,1.6c0,0.9,0,2.8-0.3,6.1c-0.2,3.3-0.3,6.1-0.3,8c0,1.3,0.1,3.3,0.3,6.4c0.2,3,0.3,5.2,0.3,6.1
		c0,1.4-0.1,1.9-0.8,1.9h-2c-0.8,0-1.4-0.4-1.6-1.6c-0.9-4.1-2.5-7.1-4.5-8.8c-1.9-1.7-5-2.7-9-2.7H322v32.1c0,4.4,0.9,7.5,2.7,9.3
		c1.7,1.8,4.5,2.7,8.2,2.7c1.5,0,2.1,0.6,2.1,1.3v2.6c0,0.8-0.6,1.3-2.1,1.3c-0.8,0-3.6-0.3-8.2-0.5c-4.5-0.2-7.8-0.3-9.7-0.3
		c-1.7,0-5.4,0-11.3,0.3c-5.8,0.2-9.4,0.5-10.3,0.5c-1.6,0-2.4-0.6-2.4-1.6V156.7z M299.6,173.4c0,0-3.1,1.6-4.5,6.1
		c-0.9,2.9,1.2,4.7,2.1,4.8c3.6,0.3,14.6-2.2,34.8,9.9c3.6,2.2,12.4,11.3,16,18.2c3.3,6.3,3.6,10.5,3.6,10.5s-0.7-1.8-6.8-3.4
		c-3.6-1-7.2,0-7.1,0.8c0.1,1.4,12.5,3.1,18.6,20.3c3.4,9.6,1.5,20.9,1.5,20.9s-1.8-6.8-9.8-8.8c-5.2-1.3-7.7-0.1-7.6,0.6
		c0.2,1.4,8,2.5,13.2,14.6c5.7,13.2,1.6,26.2,1.6,26.2s-1.7-9.2-11.3-12.3c-3.5-1.1-6.8-0.4-6.7,0.6c0.1,1.3,11.1,3.4,14.2,21.2
		c2.8,15.6-3.8,27.9-3.8,27.9s0.3-2.1-2.6-7.4c-2.1-3.8-7.2-5.4-7-4.1c0.1,0.7,5.7,9,4.6,28.4c-0.8,14-5.9,34.2-4.9,47.1
		c1.4,16.6,15.6,25.8,17.2,26.8c2.2,1.4,11.7,4.1,19.9,7.7c10.3,4.6,17,11,26.7,15.5c9.6,4.5,16.1-0.3,18-4.4
		c3.3-6.9,0.4-12.7-3-18.1c-4.2-6.8-30.1-36.9-36.2-44.1c-6.1-7.1-24.8-26.4-22.9-51.4c1.8-25,29.1-37.4,30-38.4
		c1-1.2,0.8-6.3,3.6-10.5c2.1-3.2,6.9-5.3,9.1-6.2c3.7-1.6,4.3-4.5,4.3-4.5s0.5,3-0.5,5.7c-0.9,2.1-2.6,3.9-2.6,3.9s5.4-4.6,9.8-6.2
		c5.9-2.2,13.3-1.5,16.7-0.6c7.5,2,12-0.3,12-0.3s-1.4,3.3-3.9,5.2c-2.1,1.6-4.9,1.9-4.9,1.9s5.2,0.7,12.7-0.8
		c10.7-2.2,20.7-15.9,20.7-15.9s-1.8,19.9-12.9,32.3c-6.5,7.3-18.8,11-18.8,11s3-0.1,4.3,0.4c2.2,0.9,1.6,0.9,3.6,2.2
		c0,0-4.1-0.5-8.5,2c-5.5,3.1-12.7,6.6-20.6,5.7c-8.3-1-18-6.8-19.2-6.6c-1.3,0.2-5.7,2.3-9.2,5.2c-3.6,3-7.2,8.2-8.2,16
		c-1.2,9.2,4.5,18.6,7.9,24.1c3.9,6.3,39.3,44.3,51.6,62.2c13.9,20.1,1.8,43.9-11.4,49.3c-14.2,5.9-31.8-3-40.8-9.2
		c-8-5.5-14.3-6.9-17.1-3.9c-0.8,0.8-3.2,4.1-1.9,11.1c0.7,3.6,3.9,7,6.7,8.2c1.9,0.8,4.3,1.5,8.9,1.2c7.3-0.5,9-3.5,9-3.5
		s2.4,2.9,1.7,7.3c-0.5,3.5-2.7,4-2.1,6.6c0.6,2.5,3.3,2.7,6.2,2.8c4,0.1,5.4-1.8,5.4-1.8s1.1,8.6-2.8,12c-3.4,3-4.5,2.9-4.6,4
		c-0.1,0.9-0.6,3.3,3.3,5.3c4.6,2.4,6.3,1.6,6.3,1.6s0.7,6.6-5.4,10.6c-5.7,3.7-9,3.5-11.8,5.5c-2.9,2.1-5.1,8-6.9,17
		c-1.8,9-3.5,15.6-1.4,20.3c2.2,4.7,0.1,10-2.1,12c-2.2,2.1-3.9,2.4-7.6,3.2c-6.4,1.3-20.1,8.6-23.5,10.7c-6.3,4-10.5,9-15.2,13
		c-2.6,2.2-5.7,4.6-9.2,6.6c-2.2,1.2-6.8,2.1-11.8,2.1c-3.6,0-6.8-1.9-7.8-3.6c-2.1-3.6,1.4-8.8,1.4-8.8c-1.6,2-2.3,2.2-2.3,2.2
		s-1.7,0.9-4.8,0.6c-1.9-0.1-5.8-1.6-8.2-5.3c-2.8-4.3-2.8-6.8-1.1-9.8c1.2-2,2.6-3.3,2.6-3.3c-1.3,1.2-3.9,0.8-6.6-1.3
		c-2.9-2.1-3.1-8.2-1.3-11.6c2-3.8,7-5.4,10-6.3c4.4-1.2,3.3-0.8,5.7-1.3c2.9-0.6,6.7-0.6,10.4-0.1c3.7,0.6,9.4,5.4,12.7,7.8
		c2.8,2.1,5.6,4.1,13.6-0.8c9.2-5.7,15.6-17.9,16.2-24.6c0.8-9.3-1.2-25.8-3.7-29.4c-2.9-4.1-9.1-4-9.8-3.2c-0.6,0.7-1,2.1-0.3,3.3
		c1.1,2.1,3.1,4.1,3.1,4.1s-2.9,3-7.6,2c-5-1-4.1-1.7-4.7-1.5c-0.5,0.1-1.2,1.2-1.2,2.6c0,1.2,0.8,2.2,0.8,2.2s-4.1,1-8-1
		c-4.1-2-3.5-3.1-4.1-3.3c-0.4-0.1-1.4,1-1.5,2.5c-0.1,1.7,0.4,2.6,0.4,2.6s-6.8-1-9.4-3.2c-2.3-2-2.7-4.1-3.3-4.2
		c-0.2-0.1-1.4,0.1-1.8,1.4c-0.6,1.8-0.6,2.9-0.6,2.9s-2.6-0.3-6-4.5c-1.6-2-5-7.2-7.2-13.5c-1.8-5.2-3.5-16.4-3.1-22
		c0.6-9.3,5.8-16.4,5.8-16.4l-2.9-4.4c0,0-6.9,7.5-8.8,15.2c-1.9,7.7,0.2,15.4,2,34.6c1.4,14.6-11.9,17.2-11.9,17.2
		c0.6-2.4,0.2-3.2-0.5-3.1c-1.1,0.1-2.1,1.4-5.5,3.6c-3,1.9-7.1,2.5-7.1,2.5s0.8-0.6,0.3-2.7c-0.4-1.7-1.7-1.1-2.2-0.6
		c-0.4,0.4-2.8,2.2-4.6,3.3c-3.2,2-7.3,2.2-7.3,2.2s1.1-1.2,0.7-4.7c-0.3-2.4-0.5-1.6-1-2.3c-1.1-1.8-4.2-4.8-11.6-4.2
		c-9,0.7-9.8,1.3-11,2.3c-1.3,1.1-1.3,2.7-3.3,4.1c-2.3,1.7-5.8,1.3-7.7-0.2c-2.6-2-4.7-5.2-7.5-7.1c-4.4-2.8-12.5-3.9-16.9-3.4
		c-6.1,0.6-19.6,2.9-23.4,1.1c-3.8-1.8-5.7-6.7-5.5-9.7c0.2-3,4.2-4.3,4.2-4.3s-2.6,0.4-4.7-1.3c-2-1.7-3.4-4.4-3-8.7
		c0.5-5,1.8-7,3.9-8.9c2.5-2.1,4.7-1.5,4.7-1.5s-2.1-1.3-2.8-1.9c-1-0.9-2.3-3.5-0.9-6.3c1.4-2.9,3.1-5.8,6.7-7.2
		c5.2-2.1,13.5,1.7,16.7,5.3c3.2,3.6,8.6,12.8,11.2,15.7c4,4.5,16.8,7.7,25.7,6.7c8.8-0.9,16.6-3.8,16.7-4.9
		c0.1-1.1-11.9-6.6-15.3-9.3c-2.2-1.7-8.9-7.5-11.1-11.6c-2.2-4.1-5.9-11.7,1.2-24.8c7.4-13.9,31.5-20,33.7-20.2
		c3.6-0.3,5.1,0.4,9.3,1.2c3.4,0.7,6.2,1.5,6.9,1.6c0.5,0-0.3-3.2-1.2-5.6c-0.4-1.1-0.5-1.5-1-2.4c0,0,2.9-0.9,6.3-1.2
		c5.2-0.4,10.1,1.1,10.1,1.1s-5.7-4.5-12.6-6.1c-6-1.4-13.4-1.3-13.9-0.6c-0.4,0.5,1.2,1.8,2.8,4.4c1.2,2.1,1.6,3.8,1.6,3.8
		c-3.1-0.7-3-1-8.5-1.9c-5.3-0.9-39.9,3.3-45.4,5.7c-4.9,2-9.4,3.6-12.5,8.3c-2.8,4.2-7.3,10.8-11.8,11c-4.5,0.2-9.9-2.3-11.7-5
		c-1.8-2.8,2.2-7.7,2.2-7.7s-3.6,2.9-6.3,3.3c-3,0.4-7.2-2.7-8.8-6.4c-2.8-6.4-1.5-10.5,0.6-13.7c2.6-3.8,9.8-3.8,9.8-3.8
		s-5.3-0.4-6.9-4c-1.6-3.7,1.4-11,4.7-13.9c3.3-2.9,5.7-2.3,8.7-1.8c3,0.5,10.6,4,15.2,4.7c4.6,0.7,25.6-1.8,31.5-2.2
		c7.1-0.5,11.2-1.7,17.5-7.5c6.5-5.9,8.1-15.8,7.1-16c-0.7-0.1-3.4,1.3-9.3,1.6c-6.1,0.3-10.5-1.1-11.8-0.9
		c-0.6,0.1,0.8,1.3,2.6,2.4c2.5,1.4,4,2.1,4,2.1s-19.3,1.8-38.3-13.4c-2.3-1.8-9.4-6.1-17.7-14.4c-7-6.9-14.1-13.7-21.4-17.3
		c-4.8-2.3-7.2-2.8-13.7-4.1c-4.7-1-9,1.5-13.3-4.8c-1.7-2.5-0.7-6.3,0.5-8.5c0.7-1.3,2.6-1.4,2.6-1.4s-2.9,0-5.9-2.5
		c-3.6-3-2.9-10.9-0.4-13.4c2.6-2.5,7.2-1.7,7.2-1.7s-3.8-1.3-5.1-2.9c-1.1-1.4-2-3.6-0.7-8.1c0.8-2.8,3.2-4.7,6.2-5.3
		c4-0.9,6.9,0,11.3,1.6c4.8,1.7,11.7,8.8,19.2,18.5c7.2,9.3,13.6,18,30.7,23.7c17.1,5.7,35.3,3.5,37.4,2.3c2.1-1.2,5.9-7.1,9.9-10.8
		c4.1-3.7,8.7-6.6,12.3-8.3c5.4-2.5,11.3-3.7,16.8-5.4c4.4-1.4,11.5-3.8,14-10.2c2.9-7.2,5.9-8.6,5.9-8.6c-5.6,1.1-5.7,3.5-11.2,6.5
		c-2.3,1.3-7.1,0.9-10.1,0c-6.6-2-9.3-5.2-10-5.3c-0.6-0.1-3.7,0.6-5.2,2.3c-2.1,2.6,0.3,5.6,0.3,5.6s-3.2,0.5-5.7-0.9
		c-2.3-1.3-2.4-2.5-3-2.8c-0.3-0.1-2.3,0.3-3.4,1.6c-1.8,2.4-1.1,5.7-1.1,5.7s-2.2-0.5-4.6-1.8c-2.1-1.2-4.5-3.1-5.6-5.4
		c-2-4.1,0.9-6.9,0.4-7.9c-0.4-0.7-4.2-1-4.6-3.7c-0.2-1.4,2-2.4,2.3-2.9c0.4-0.6,1.3-5.4,1.3-5.4s2.6,3.1,5.6,4.2
		c3,1.1,6.1,1.2,10.2,0.5c4.1-0.6,12.6-3.9,12.6-3.9s0.6-5.4-4.1-9.5c-3.4-3-10-3.3-14.3-2.7c-2.3,0.3-4.6,2-5.4,3.3
		c-0.9,1.5-0.2,4-0.2,4s-5.4-1.8-8.2-3.5c-2-1.3-3.9-3.1-4.7-5.1c-0.6-1.6,1.5-7.4-0.9-8.6c-0.4-0.2-0.9,0.2-1.2,0.9
		c-0.6,1.3-1.2,2.3-2.3,1.1c-1.9-2.1-2.7-4-2.9-4.9c-0.4-1.8,0.6-6.2,2.6-7.5c2.4-1.4,14.3-5.6,16.4-6.4c1.8-0.7,4.6-3.7,6.4-6.4
		c1.9-2.9,5.7-7.8,9.3-10.3c3.4-2.4,5.8-0.6,5.8-0.6s1.2-6.6,3.3-11.7c2.8-6.5,8.2-10.7,11.8-13.3c5.1-3.7,15.7-7.3,15.7-7.3
		s-1.1,1-1.2,4.3c0,2.2,1.1,3.7,2,3.8c1.1,0,5.6-5,14.7-8.4C291.1,173.1,299.6,173.4,299.6,173.4z M154.6,247l-16.1-8.6l-16.1,8.6
		l3.1-18.2l-13-12.9l18-2.7l8.1-16.6l8.1,16.6l18,2.7l-13,12.9L154.6,247z M168,64.6c0-1,0.5-1.6,1.6-1.6c1,0,3.5,0,7.8,0.3
		c4.3,0.2,7.8,0.3,10.4,0.3c2.3,0,6.5,0,12.5-0.3c6-0.2,9.6-0.3,10.7-0.3c1.4,0,2.1,0.4,2.1,1.6v1.5c0,1.1-0.6,1.6-1.9,1.6
		c-3.5,0-6.1,0.2-7.6,0.8c-1.5,0.6-2.2,1.7-2.2,3c0,1.3,0.4,3.6,1.6,6.8l24.6,60.4L250.1,80c1-2.5,1.4-5.1,1.4-7.3
		c0-2.1-0.7-3.5-2.2-4.1c-1.4-0.6-4.2-0.8-8.1-0.8c-1.6,0-2.2-0.6-2.2-1.9v-1.2c0-1,0.5-1.6,1.6-1.6c0.8,0,3.3,0,7.6,0.3
		c4.4,0.2,7.6,0.3,9.4,0.3c1.4,0,3.5,0,6.3-0.3c2.8-0.2,4.6-0.3,5.5-0.3c1,0,1.6,0.4,1.6,1.6v2.1c0,1.2-0.4,1.8-1.6,1.8
		c-3.1,0-5.4,0.6-6.6,2.1c-1.2,1.5-2.6,4.9-4.5,9.7l-32.3,79.8c-0.3,0.8-0.6,1.3-1,1.6c-0.4,0.2-1,0.3-1.8,0.3H220
		c-1.1,0-1.9,0-2.3-0.3c-0.4-0.3-0.7-0.9-1-1.8l-32.3-80.4c-1.8-4.2-3.7-7.4-5.7-8.9c-2-1.5-4.9-2.1-8.6-2.1c-1.5,0-2.1-0.6-2.1-1.6
		V64.6z M71,156.7c0-1.3,0.9-2.1,2.4-2.1c4,0,6.9-1.4,8.9-4.5c2-3,4.3-8.3,6.8-15.5l18.4-54.3c0.7-2.6,1.4-5.6,2.4-8.7
		c1-3.1,2.2-5.2,3.7-6.3l7.1-5.2c0.9-0.8,1.7-1.3,2.1-1.3c0.2,0,0.7,0.8,1.3,2.1l33.1,82.4c1.7,4.2,3.3,7.2,4.7,8.7
		c1.4,1.4,3.8,2.1,7.3,2.6c1.2,0.2,1.8,0.8,1.8,1.6v2.6c0,1.2-0.6,1.8-1.6,1.8c-1.6,0-4.4-0.3-8.5-0.5c-4-0.2-7.1-0.3-9.5-0.3
		c-2,0-5.8,0-11.4,0.3c-5.6,0.2-8.7,0.5-9.8,0.5c-0.8,0-1.3-0.6-1.3-1.3V157c0-1.3,0.9-2.1,2.4-2.1c5.6,0,8.5-1.7,8.5-5.2
		c0-1.1-0.3-2-0.8-3.1c-0.4-1.2-1.3-3.8-2.9-7.6l-6.9-16h-28.6l-6.5,19.6c-1.1,3-1.6,5.3-1.6,6.8c0,3.7,3.1,5.5,9.6,5.5
		c1.2,0,1.8,0.7,1.8,1.8v2.6c0,0.8-0.9,1.3-2.6,1.3c-1,0-3.3-0.3-6.8-0.5c-3.4-0.2-5.8-0.3-7.5-0.3c-1.7,0-4.4,0-8.1,0.3
		c-3.6,0.2-5.9,0.5-6.5,0.5c-1,0-1.6-0.5-1.6-1.3V156.7z"/>
	<path class="st0" d="M178.7,622.8c-2.2-0.1-4.4,0.3-4.4,0.3v8.1c0,0,8.9-1.9,8.9-6.5C183.2,623.4,180.9,622.8,178.7,622.8z"/>
	<path class="st0" d="M204.4,622.8c-2.2-0.1-4.4,0.3-4.4,0.3v8.1c0,0,8.6-1.9,8.6-6.5C208.5,623.4,206.6,622.8,204.4,622.8z"/>
	<path class="st0" d="M259.3,622.8c-2.2-0.1-4.4,0.3-4.4,0.3v8.1c0,0,8.9-1.9,8.9-6.5C263.8,623.4,261.5,622.8,259.3,622.8z"/>
	<polygon class="st0" points="280.3,630.4 285,630.4 282.6,622.2 	"/>
	<path class="st0" d="M311.4,622.8c-2.2-0.1-4.4,0.3-4.4,0.3v8.1c0,0,8.9-1.9,8.9-6.5C315.9,623.4,313.6,622.8,311.4,622.8z"/>
	<path class="st0" d="M361.7,623.3c-0.7,0-1,0.2-1.3,0.3V651c2.9-0.2,11.8-2.1,11.8-17.8C372.1,623.8,365.2,623.1,361.7,623.3z"/>
	<polygon class="st0" points="113.3,84.6 103.3,115.8 126.1,115.8 	"/>
	<path class="st0" d="M273.6,206.9c3-1.2,3.8-3.9,3.8-3.9s0.2,2-0.6,5.1c-0.8,3.1-3,5-3,5l6.1-2.2c0,0-0.5,1.4-1.7,4.2
		c-1.3,3.1,0.4,3.2,0.4,3.2s7.5-2.8,10.4-7.3c2.9-4.5,1.2-12.9-7.8-13.8c-9-0.9-14.8,11.2-14.8,11.2S271.3,207.9,273.6,206.9z"/>
	<path class="st0" d="M241.5,223.5c1.2-0.1,1.8-1.4,1.8-1.4s0.2,1.5-0.1,2.5c-0.6,1.7-2.1,2.7-4.1,2.6c-2.1-0.1-3.7-1.4-4.5-3.9
		l-4.8,2.3c0,0,0.9,3.2,5.4,4.8c1.8,0.6,4,0.7,6.5,0.1c3-0.8,5.6-3.4,6.7-6.1c1.8-4.3,2.2-8.7,2.2-8.7l-10.8,5.2
		C239.2,222.9,240.7,223.6,241.5,223.5z"/>
</g>
</svg>
