<?xml version="1.0" encoding="utf-8"?>
<!-- Generator: Adobe Illustrator 24.0.1, SVG Export Plug-In . SVG Version: 6.00 Build 0)  -->
<svg version="1.1" id="Layer_1" xmlns="http://www.w3.org/2000/svg" xmlns:xlink="http://www.w3.org/1999/xlink" x="0px" y="0px"
	 viewBox="0 0 316 316" style="enable-background:new 0 0 316 316;" xml:space="preserve">
<style type="text/css">
	.st0{fill:#FFFFFF;}
</style>
<g>
	<path class="st0" d="M268.9,153.9c-1.6,0-2.5,0.9-2.5,2.2v0.1c0,1.3,1,2.2,2.5,2.2c1.5-0.1,2.5-1,2.5-2.2
		C271.5,154.9,270.5,153.9,268.9,153.9z"/>
	<path class="st0" d="M44.1,157.4c1.2,0,2.1-0.8,2.1-1.8c0-0.9-0.8-1.8-2.1-1.8c-1.3,0-2.1,0.8-2.1,1.7v0.1
		C42.1,156.6,42.9,157.4,44.1,157.4z"/>
	<path class="st0" d="M44.1,160c-1.5,0-2.5,0.7-2.5,1.8c0,1,0.9,1.9,2.5,1.9c1.6,0,2.5-0.8,2.5-1.8C46.6,160.7,45.5,160,44.1,160z"
		/>
	<polygon class="st0" points="68.4,71.5 71.9,79.3 76.4,74.6 	"/>
	<path class="st0" d="M268.8,97.8l-6.3,3.2l2.4,4.8c1.2,2.3,3.1,3.1,4.9,2.2h0.1c2.1-1,2.4-3,1.2-5.3L268.8,97.8z"/>
	<path class="st0" d="M158,16.5C79.8,16.5,16.4,79.9,16.4,158S79.8,299.6,158,299.6c78.2-0.1,141.6-63.4,141.6-141.6
		S236.2,16.5,158,16.5z M264.5,81.1l-3.7,3.1l-8.4-10l-3.8,3.2l7.2,8.6l-4.9,1.6l-6-7.2l-3.9,3.3l8.5,10.2l-3.6,3.1l-12-14.3
		L252.6,67L264.5,81.1z M229,47.4l16.1,12.3l-3,4l-5.9-4.6l-11.8,15.5l-4.3-3.2L232,55.9l-5.9-4.6L229,47.4z M200.6,52.2
		c1.2,2.5,2.9,4.6,5.4,5.8c2,0.9,3.5,0.7,4.2-0.6v-0.1c0.6-1.2,0.1-2.2-3.2-4.9c-3.9-3.2-6.3-5.8-4.2-10.2v-0.1
		c1.9-4,6.3-5.2,10.9-3.1c3.2,1.5,5.6,3.8,6.9,6.6l-4.2,2.5c-1.3-2.3-2.9-4-4.8-4.9c-1.9-0.8-3.2-0.5-3.8,0.6v0.1
		c-0.7,1.5,0.1,2.4,3.5,5.2c3.9,3.2,5.8,6.1,3.9,10v0.1c-2,4.4-6.6,5.3-11.3,3.2c-3.2-1.7-6.1-4.5-7.7-8.1L200.6,52.2z M177.6,28.2
		l18.1,3.9l-1.1,4.6L181.9,34l-1,4.9l10.5,2.3l-2.5,4.3l-9-1.9l-1.1,5l13,2.9l-1,4.7l-18.3-4L177.6,28.2z M149.1,26.9l0.3,9.7
		l9.9-0.2l-0.2-9.7l5.4-0.2l0.6,24.5l-5.4,0.2l-0.2-9.9l-10,0.3l0.3,9.8l-5.4,0.2l-0.6-24.5L149.1,26.9z M123.1,30.9
		c4.4-1.3,7.6-0.5,10.3,0.9l-2.2,4.8c-2.3-1.2-4.4-1.6-6.8-0.9c-3.9,1.2-5.9,5.2-4.7,9.3v0.1c1.2,4,4.9,6.6,9,5.4
		c2.7-0.8,4-2.3,5.4-4.6l4.2,2.4c-1.7,3.3-3.9,5.7-8.4,7c-6.9,2-13.6-1.9-15.5-8.6C112.4,40,115.8,33,123.1,30.9z M85.7,48.5
		l17.7,6.9l-7.8-12.9l4.6-2.8l12.7,20.9l-3.9,2.4l-18.2-7.2l8.1,13.3L94.1,72L81.4,51L85.7,48.5z M65.4,65.2l25.2,9.3l-3.9,4.1
		l-5.6-2.2L74,84l2.5,5.4l-3.8,4L62,68.8L65.4,65.2z M34.7,166.1h-3.2v-11.6l-2.5,0.6l-0.7-2.6l4.2-1.2h2.2V166.1z M49.9,162.1
		c0,2.7-2.4,4.3-5.6,4.3s-5.8-1.8-5.8-4.3c0-1.9,0.8-2.9,2.4-3.5c-1.2-0.7-1.9-1.6-1.9-3.2v-0.1c0-2.2,2.1-4,5.2-4
		c3.1,0,5.2,1.8,5.2,4v0.1c0,1.5-0.7,2.5-1.9,3.2C48.9,159.3,49.9,160.2,49.9,162.1L49.9,162.1z M37.2,107.4l2.7-5.2l12.2-0.8
		l-6.2-10.6l2.7-5.1l21.7,11.4l-2.5,4.7l-14.2-7.4l6.1,11l-0.1,0.1l-12.3,1.2l14,7.4l-2.5,4.7L37.2,107.4z M129.3,288.9
		c-7.3-0.2-12.8-5.9-12.8-13c0-7.2,5.3-13,13-13c4.7,0,7.5,1.5,9.9,3.9l-3.5,4c-1.9-1.8-3.9-2.8-6.4-2.8c-4.2,0-7.3,3.5-7.3,7.8v0.1
		c0,4.2,2.9,7.9,7.3,7.9c2.9,0,4.6-1.2,6.6-2.9l3.5,3.5C137,287.2,134.1,288.9,129.3,288.9z M150.3,288.3h-5.5v-24.9h5.5V288.3z
		 M176.2,268.5h-7.6v19.9h-5.5v-19.9h-0.1h-7.6v-5.1h20.7V268.5z M193.5,278.3v10h-5.5v-9.8l-9.6-15.1h6.4l5.9,10l6-10h6.3
		L193.5,278.3z M170,254.5c-3.8,1.5-7.9,2.8-12.2,4c-4.3-1.2-8.4-2.5-12.3-4.1c-47.7-6.2-84.7-47.1-84.7-96.5
		c0-23.1,8.1-44.4,21.6-61.1c1.3-7.7,2.4-12,2.4-12s4-0.9,11.4-2c16.8-13.8,38.3-22.2,61.7-22.2c23.5,0,45.1,8.4,61.9,22.3
		c7.1,1.1,10.8,1.9,10.8,1.9s1.1,4,2.3,11.2c13.9,16.8,22.3,38.4,22.3,61.9C255.3,207.6,218,248.6,170,254.5z M274.7,158.3
		c0,4.8-2.2,8-6.4,8c-2.2,0-3.5-0.7-4.9-1.8l1.7-2.5c1.1,0.8,2,1.2,3.2,1.2c2.2,0,2.9-2.1,3-3.3c-0.8,0.6-1.7,1-3,1
		c-3.2,0-5.2-1.8-5.2-4.7v-0.1c0-2.9,2.3-5.2,5.6-5.2c2,0,3.1,0.5,4.2,1.6C274.1,153.8,274.7,155.3,274.7,158.3L274.7,158.3z
		 M276.7,108.2c-0.6,1.9-2,3.3-4.1,4.4h-0.1c-3.5,1.8-6.7,1-9.2-1.3l-5.2,9.3l-2.9-5.6l4.6-8.3l-1.9-3.8l-7,3.5l-2.4-4.8l22.1-11
		l5,10C277.1,103.5,277.4,106,276.7,108.2z M288.1,162.9v3.2H285v-3.2h-7.1l-0.5-2.3l8-9.3h2.7v9h2v2.6H288.1z"/>
	<polygon class="st0" points="285.1,160.3 285.1,155.7 281.1,160.3 	"/>
	<path class="st0" d="M158,6.5C74.5,6.5,6.5,74.5,6.5,158s68,151.6,151.6,151.6s151.5-68,151.6-151.6C309.6,74.5,241.6,6.5,158,6.5z
		 M158,306.3C76.3,306.3,9.8,239.8,9.8,158C9.8,76.2,76.2,9.7,158,9.7c81.7,0,148.2,66.5,148.2,148.3
		C306.3,239.8,239.8,306.3,158,306.3z"/>
	<path class="st0" d="M156.3,78.9h2.9c20.7,0,37.4,1.2,49.5,2.6c-1-0.7-2.1-1.4-3.2-2c-1.9-1.2-3.8-2.2-5.8-3.3c-2-1-4-2-6.1-2.8
		c-11-4.7-23-7.2-35.7-7.2c-12.7,0-24.7,2.6-35.7,7.2c-2.1,0.9-4.1,1.8-6.1,2.8c-2,1-3.9,2.1-5.8,3.3c-1,0.6-2.1,1.3-3.1,2
		C119.4,80.2,135.9,78.9,156.3,78.9z"/>
	<path class="st0" d="M80.4,175.5c-3.1-26.8-1.7-50.5,0.3-66.9c0,0,0,0,0,0c-0.8,1.2-1.6,2.5-2.3,3.8c-2.2,3.8-4.2,7.9-5.8,12
		c-0.8,2.1-1.6,4.2-2.2,6.4c-0.2,0.7-0.4,1.4-0.6,2.2c-0.4,1.5-0.8,2.9-1.1,4.4c-1.5,6.7-2.4,13.6-2.4,20.7
		c0,38.5,23.8,71.5,57.4,85.1C92.9,222.6,82.3,191.8,80.4,175.5z"/>
	<path class="st0" d="M235.2,175.5c-1.9,16.5-12.7,47.5-43.8,68.1c34.2-13.4,58.5-46.7,58.5-85.6c0-7.1-0.8-14.1-2.4-20.7
		c-0.3-1.5-0.7-2.9-1.1-4.4c-0.2-0.7-0.4-1.4-0.6-2.2c-0.7-2.2-1.4-4.3-2.2-6.4c-1.6-4.2-3.6-8.2-5.8-12c-0.7-1.3-1.5-2.5-2.3-3.8
		c-0.2-0.3-0.4-0.6-0.6-0.9C236.9,124.1,238.4,148.2,235.2,175.5z"/>
	<path class="st0" d="M157.8,160.8h25.6c-3.9-1.2-6.8-2.9-12-2.9c-0.5,0-2.6,1.6-8.6,1.7c-6.6,0.2-9.4-1.7-17-2.2
		c-0.7,0,0.4,1.9-6.9,2.3c-2.9,0.2-6-0.6-9.1-1.4c-3-0.7-5.4-0.1-6.2,2.4H157.8L157.8,160.8z"/>
	<path class="st0" d="M144.8,129.3C144.8,129.3,144.8,129.4,144.8,129.3C144.8,129.4,144.8,129.3,144.8,129.3z"/>
	<path class="st0" d="M157.7,152.3l0.1-5.1c-4.1,1-5.2,2.7-5.6,3.4c0,0,0-0.1,0-0.1c-0.3-0.2-1.7-1.4-3-3.4
		c-0.8-0.1-7.6-1.1-13.7-0.5v5C141,152.1,148,152.4,157.7,152.3z"/>
	<path class="st0" d="M173.2,125.2C173.2,125.2,173.2,125.2,173.2,125.2c0,0.1,0,0.1-0.1,0.2C173.2,125.3,173.2,125.2,173.2,125.2z"
		/>
	<path class="st0" d="M159.7,146.8v5.5c0.4,0,0.8,0,1.2,0c2.1,0,4.1-0.1,6.1-0.2c1,0,4.3-1.5,5.2-1.5c2.4-0.1,4.8-0.3,7-0.5l0-1.7
		C176.1,147.7,166.9,145.7,159.7,146.8z"/>
	<path class="st0" d="M219.3,93.7c0,0-24.5-5.2-61.6-5.2s-61.7,5.2-61.7,5.2s-7.1,30.2-5.3,67.1h32.2c-1.4-2.2-5.6-8.5-6.7-9
		c-5.1-2.5-12.2-5.2-12.2-5.2l0.3-0.9c0,0,3.9,1.8,13,3.5c4.8,0.9,9.1,1.8,16.4,2.5v-4.6c-0.5,0.1-0.9,0.2-1.3,0.2
		c-3.5,0.8-4.3,1.8-4.6,2.2c0,0,0-0.1,0-0.1c0,0,0,0.1,0,0.1s-3-2.2-3.9-6.5c-0.8-4.3,1.3-6.8,1.3-6.8l19.8-6.8c0,0-0.3,0-0.9,0
		c-1.9,0.1-6.9,0.5-12.1,2c-4.5,1.2-5.9,3-6.3,3.6c0,0,0-0.1,0-0.1c-0.3-0.2-2.3-1.7-2-5.8c0.3-4.6,2.6-6.6,2.6-6.8l7.7-2.6l0.1-6
		c-0.9,0.1-2.2,0.2-2.5,0.2c-0.3,0-0.5,0.2-0.6,0.5c0,0.1,0,0.1,0,0.1c-0.1,0.2-0.2,0.4-0.6,0.5c-0.2,0-2.9,0.2-4.7,0.3
		c-0.2,0-0.3-0.3,0-0.4c1.5-0.5,3.8-1.3,4.1-1.4c0,0,0.1,0,0.1,0l0,0c0.2-0.1,0.4-0.2,0.4-0.4c0,0,0,0,0,0c0-0.2,0.2-0.5,0.7-0.6
		c0.4-0.2,3.9-1.3,4.2-1.5l0.1,8.3l6.3-2.2c0,0,0,0,0,0s0,0,0,0l0.1,0c0,0-0.1,0.1-0.1,0.3c-0.1,0.8-0.5,3.1-0.1,5.2
		c0.3,1.8,1,3.2,1.6,4.3c1,1.6,2,2.5,2,2.5s-1.1,4,0,8.3c0.8,3.3,2.5,6.4,3.5,8.1c-0.6-1.2-1.1-2.6-1.4-4.3
		c-0.8-4.7,2.3-8.1,2.3-8.1l23.7-8.2c-1.7,0-9.7,0.4-15.6,2.4c-4.4,1.5-7.1,4.1-7.5,4.9c0-0.1,0-0.1,0-0.2c0,0-0.1,0.1-0.1,0.1
		s-2.5-2.9-2.9-7.3c-0.5-4.6,2.2-6.5,2.5-6.6l19.7-6.8c-1,0-7.7,0.1-14.2,2.4c-3,1.1-4.9,2.7-5.2,3.6c0-0.1,0-0.1,0-0.2
		c0,0.1,0,0.1,0,0.1s-2.1-0.5-2.2-5c-0.2-3.6,2.4-6.6,2.5-6.7l8.6-3l0.1-4.6c-0.9,0.1-2.2,0.2-2.4,0.2c-0.1,0-0.2,0-0.3,0.1l0,0
		c-0.1,0-0.1,0-0.1,0.1c-0.1,0.1-0.1,0.2-0.2,0.3c0,0.1-0.1,0.1-0.1,0.2c0,0.2-0.2,0.3-0.5,0.4h-0.1l0-0.1c-0.5,0-2.9,0.2-4.6,0.3
		c-0.2,0-0.3-0.3,0-0.4c1.5-0.5,3.8-1.3,4.1-1.4s0.5-0.2,0.5-0.5c0-0.1,0.2-0.4,0.7-0.5c0.4-0.1,4.2-1.5,4.2-1.5v6.8l7.4-2.6
		c0,0,0,0.1-0.1,0.2c0.1-0.1,0.1-0.2,0.1-0.2s-0.9,2-0.9,4.1c0,0.3,0,0.6,0.1,0.8c0.5,4.4,3,6.7,3,6.7s0,0-0.1,0c0,0,0,0,0,0l0.1,0
		c0,0,0,0.1-0.1,0.3c0-0.1,0.1-0.2,0.1-0.2s-0.3,1.7-0.2,3.6c0,0.4,0,0.7,0.1,1.2c0,0.3,0.1,0.6,0.1,0.9c1,4.3,4.1,7.9,4.1,7.9
		s0,0-0.1,0c-0.3,1.4-0.9,5.1-0.4,8.7c0,0.1,0,0.2,0,0.2c0,0.2,0.1,0.3,0.1,0.5c0.1,0.3,0.1,0.6,0.2,0.9c1.2,4.5,4.3,9.4,6,11.7
		l0.4-37.7c-0.8,0.2-2.2,0.3-2.5,0.3c-0.1,0-0.2,0-0.3,0.1l0,0c-0.1,0-0.1,0-0.1,0.1c-0.1,0.1-0.1,0.2-0.2,0.3c0,0.1,0,0.1,0,0.1
		c0,0.2-0.2,0.4-0.5,0.5c-0.2,0-2.9,0.2-4.7,0.3c-0.2,0-0.3-0.3,0-0.4c1.5-0.5,3.8-1.3,4.1-1.4c0.2-0.1,0.4-0.2,0.4-0.4
		c0-0.1,0.1-0.3,0.4-0.5c0.1-0.1,0.2-0.1,0.3-0.2c0.4-0.1,4.2-1.5,4.2-1.5l0.1,15.7l15.6-5.4c-0.8,4.6-1.2,8.5-0.8,13
		c0.6,5.9,4.2,11,4.2,11l-18.8,6.6v2c9.8-1,16.4-2.3,16.4-2.3s0.1,3.1-4.4,7.3c-1.2,1.2-1.5,3.5,0.5,5.8c0,0,0.1,0.1,0.1,0.1h31.1
		C226.5,123.9,219.3,93.7,219.3,93.7z M119.2,135.3c-0.8,4.6,0.1,10.5,0.1,10.5s0,0-0.1,0c0,0,0,0,0,0s-3.7-0.8-7.9-1.2
		c-3.5-0.4-6.3-0.1-6.3-0.1s2.5-6.7,9.6-14c5.5-5.6,9-7.2,9-7.2S120.5,127.8,119.2,135.3z"/>
	<path class="st0" d="M142.7,228.6l-0.9,0.3c-0.5,0.2-1.2,0-1.6-0.3s-0.8-0.8-0.8-1.5v-2.5l-48.1-58.2h-0.2c0.3,4,0.7,8.2,1.2,12.3
		c2.5,18.8,16.7,51.7,65.3,68l0.2,0.2v-0.2c0,0,0,0,0,0L142.7,228.6z"/>
	<path class="st0" d="M135.7,193.1c0.3-1.5,1.1-2.8,2.3-3.6c0.6-0.5,1.3-0.8,2-0.9c0.2-0.1,0.5-0.2,0.7-0.2c1-0.3,2.1-0.6,3.5-1.6
		c1.5-1.1,2.2-2,2.9-3c0.3-0.5,0.6-0.8,1-1.3c0.2-0.3,0.5-0.5,0.7-0.7c0.1-0.1,0.2-0.2,0.4-0.3c0,0,0.1,0,0.1-0.1L137,166.4h-24.3
		l22,26.5C135.1,192.9,135.4,193,135.7,193.1z"/>
	<path class="st0" d="M178.8,217.3c0,0.4-0.1,0.7-0.2,1c-0.1,0.2-0.1,0.4-0.2,0.5c-0.4,1.4-1.4,2.5-2.6,3.2c0.2,0.3,0.2,0.6,0.2,0.9
		l-0.1,4.2c0,0.6-0.3,1.2-0.8,1.5c-0.5,0.3-1.2,0.4-1.7,0.2l-4-1.2c-0.4-0.2-0.6-0.3-0.8-0.6c-1.1,1-2.5,1.6-4,1.6
		c-0.1,0-0.3,0-0.4,0l9.6,11.6c6.1-3,11.5-6.3,16.2-9.7l-11.3-13.6C178.8,217,178.8,217.2,178.8,217.3z"/>
	<path class="st0" d="M176.3,188.7C176.3,188.7,176.3,188.8,176.3,188.7c0.3,0.2,0.6,0.3,0.9,0.5c0.2,0.1,0.3,0.2,0.5,0.3
		c1.2,0.8,1.9,2.1,2.2,3.5c0.4-0.1,0.7-0.2,1.1,0l4,1.4c0.5,0.2,1,0.7,1.2,1.2c0.2,0.6,0.1,1.2-0.3,1.5l-1.2,1.6l17.6,21.2
		c4.8-5,8.6-10.2,11.6-15.2l-31.7-38.3h-24.3L176.3,188.7z"/>
	<path class="st0" d="M223,178.8c0.5-4.2,0.9-8.3,1.2-12.3h-19.9l17,20.5C222.1,184.1,222.7,181.3,223,178.8z"/>
	<ellipse class="st0" cx="158" cy="204.6" rx="2.4" ry="2.3"/>
	<path class="st0" d="M140.1,217.1c0.7,2.1,2.9,3.2,5,2.5c1.5-0.5,2.3-1.7,3.3-3.2c0.1-0.2-0.1-0.3-0.2-0.2c-1.7,0.5-3.5-0.4-4-2
		c-0.4-1.2,0.2-3.2-0.4-4.8c-0.5-1.5-2.2-3.1-2.6-4.3c-0.5-1.7,0.4-3.5,2-4c0.2-0.1,0.2-0.3,0.1-0.4c-1.7-0.6-3.2-1.2-4.6-0.7
		c-2.1,0.6-3.2,2.9-2.5,5c0,0.2,0.1,0.2,0.2,0.4c0.1,0.2,0.2,0.4,0.3,0.6c0.8,1.4,2,2.4,2.9,4.9c0.7,2.1,0.5,3.4,0.5,4.6
		C139.9,216.1,140,216.6,140.1,217.1z"/>
	<path class="st0" d="M146.3,220.3c-1.2,0.9-2.5,1.4-3.9,1.4v3.9l3.9-1.2C145.8,223.2,145.8,221.8,146.3,220.3z"/>
	<path class="st0" d="M179.6,205.2c0.7-2.1-0.5-4.4-2.5-5c-1.5-0.5-2.9,0.1-4.6,0.7c-0.2,0.1-0.2,0.2,0.1,0.3c1.7,0.5,2.6,2.3,2.1,4
		c-0.4,1.2-2,2.5-2.5,4.1c-0.5,1.3,0,3.5-0.5,4.9c-0.5,1.7-2.3,2.5-4,2c-0.2-0.1-0.4,0.1-0.2,0.3c1,1.5,1.9,2.7,3.3,3.2
		c2.1,0.7,4.4-0.5,5-2.5c0.1-0.2,0.1-0.2,0.1-0.4c0.1-0.2,0.1-0.4,0.2-0.6c0.2-1.6-0.2-3.1,0.6-5.6c0.7-2.1,1.6-3,2.3-4
		C179.2,206.1,179.5,205.7,179.6,205.2z"/>
	<path class="st0" d="M179.1,195.2c-0.3,1.2-1.2,2.5-2.5,3.3c1.5-0.1,2.9,0.3,3.9,1.2l2.3-3.2L179.1,195.2z"/>
	<path class="st0" d="M156.8,189.7c0.2,0.2,0.4,0.2,0.4-0.1c0.1-1.8,0.1-3.3-0.8-4.6c-1.2-1.8-3.8-2.2-5.6-0.8
		c-0.2,0.1-0.2,0.2-0.3,0.2c-0.2,0.1-0.3,0.2-0.5,0.5c-1.1,1.2-1.7,2.6-3.9,4.2c-1.8,1.3-3.1,1.5-4.2,1.9c-0.5,0.2-1,0.3-1.4,0.6
		c-1.8,1.3-2.2,3.8-0.8,5.6c0.9,1.2,2.4,1.7,4.1,2.2c0.2,0.1,0.2-0.2,0.2-0.3c-1-1.4-0.7-3.4,0.7-4.4c1.1-0.8,3.1-0.8,4.5-1.9
		c1.1-0.8,2.1-2.9,3.2-3.7C153.7,188,155.7,188.3,156.8,189.7z"/>
	<path class="st0" d="M160.2,181.3l-2.3-3.2l-2.5,3.2c1.2,0.7,2.1,1.9,2.5,3.4C158.3,183.3,159,182.1,160.2,181.3z"/>
	<path class="st0" d="M150,214.1c0.1-0.1,0.2-0.2,0.3-0.3c0,0,4.5-6.1,4.6-6.3c0.2-0.3,0-0.5-0.2-0.7c-0.2-0.2-0.5-0.6-0.5-1
		c-0.1-0.3-0.2-0.8-0.2-1.1s0-0.5-0.3-0.6c-0.3-0.1-5.5-1.8-7.1-2.3c-0.6-0.2-1.2-0.2-1.9,0c-1.4,0.5-2.2,1.9-1.7,3.3
		c0,0.2,0.1,0.3,0.2,0.5c0.1,0.1,0.1,0.2,0.2,0.2c0,0,0,0.1,0.1,0.1c0.5,0.8,1.2,1.5,1.8,2.9c0.5,1.5,0.3,2.4,0.4,3.3
		c0,0.3,0,0.6,0.2,0.9c0.5,1.4,1.9,2.2,3.3,1.7C149.5,214.6,149.8,214.4,150,214.1z"/>
	<path class="st0" d="M169.7,195.6c-0.1-0.1-0.2-0.2-0.5-0.3c-0.1,0-0.2-0.1-0.2-0.1h-0.1c-0.9-0.3-1.9-0.5-3.2-1.4
		c-1.3-0.9-1.7-1.8-2.2-2.5c-0.2-0.2-0.4-0.5-0.6-0.7c-1.2-0.8-2.9-0.6-3.7,0.6c-0.2,0.3-0.4,0.6-0.5,1c0,0.2-0.1,0.3-0.1,0.5
		c0,0,0,7.6,0,7.8c0,0.4,0.3,0.4,0.5,0.5c0.2,0.1,0.8,0.3,1,0.5c0.3,0.2,0.6,0.5,0.8,0.8c0.2,0.2,0.3,0.5,0.6,0.3
		c0.3-0.2,5.5-1.8,7.1-2.3c0.7-0.1,1.2-0.5,1.6-0.9C171.2,198.2,170.9,196.5,169.7,195.6z"/>
	<path class="st0" d="M153.6,218.8c0.2,0,0.3,0,0.5-0.1c0.1,0,0.2,0,0.2-0.1h0.1c0.9-0.3,1.8-0.7,3.4-0.7c1.6,0,2.4,0.5,3.3,0.7
		c0.3,0.1,0.6,0.2,0.9,0.2c1.5,0,2.6-1.2,2.6-2.6c0-0.4-0.1-0.8-0.2-1.1c-0.1-0.2-0.2-0.3-0.2-0.4c0,0-4.5-6.1-4.6-6.3
		c-0.2-0.3-0.5-0.2-0.7-0.1c-0.2,0.1-0.8,0.2-1.2,0.2c-0.4,0-0.8-0.1-1.1-0.2c-0.3-0.2-0.5-0.2-0.7,0.1c-0.2,0.2-3.4,4.6-4.4,6
		c-0.4,0.5-0.6,1-0.6,1.7C151,217.6,152.2,218.8,153.6,218.8z"/>
	<path class="st0" d="M139,198.5c-1.2-0.8-2.1-1.9-2.5-3.2l-3.7,1.2l2.2,3.2C136,198.9,137.5,198.5,139,198.5z"/>
	<path class="st0" d="M175.3,191.5c-0.1-0.1-0.2-0.2-0.4-0.2c-0.2-0.2-0.3-0.2-0.6-0.3c-1.5-0.6-3-0.8-5.2-2.3
		c-1.8-1.3-2.4-2.5-3.2-3.5c-0.2-0.4-0.6-0.8-1.1-1.2c-1.8-1.3-4.3-0.9-5.6,0.8c-0.8,1.2-0.8,2.8-0.8,4.6c0,0.2,0.2,0.2,0.3,0
		c1-1.4,3-1.7,4.5-0.7c1.1,0.8,1.8,2.7,3.2,3.6c1.2,1.2,3.5,1.4,4.6,2.2c1.5,1,1.8,3,0.7,4.4c-0.2,0.2,0,0.4,0.2,0.3
		c1.8-0.5,3.2-0.9,4.1-2.2C177.5,195.3,177.1,192.8,175.3,191.5z"/>
	<path class="st0" d="M168.2,221.2c0-1.5-0.9-2.7-2.1-4.1c-0.1-0.2-0.3,0-0.3,0.2c0,1.7-1.5,3.2-3.2,3.2c-1.3,0-3-1.2-4.7-1.2
		c-1.5,0-3.5,1.2-4.9,1.2c-1.8,0-3.2-1.4-3.2-3.2c0-0.2-0.2-0.3-0.4-0.2c-1.2,1.4-2,2.6-2.1,4.1c-0.1,2.2,1.8,3.9,4,3.9
		c0.2,0,0.3,0,0.4,0c0.2,0,0.4,0,0.7-0.1c1.5-0.4,2.9-1.2,5.6-1.2c2.2,0,3.4,0.6,4.6,0.9c0.5,0.2,1,0.3,1.5,0.3
		C166.4,225.2,168.2,223.4,168.2,221.2z"/>
	<path class="st0" d="M172.3,205.9c0.2-0.2,0.3-0.5,0.5-0.8c0.5-1.4-0.3-2.9-1.7-3.3c-0.4-0.1-0.8-0.2-1.1-0.1c-0.2,0-0.3,0-0.5,0.1
		c0,0-7.3,2.3-7.5,2.4c-0.3,0.2-0.3,0.5-0.3,0.6c0,0.2-0.1,0.8-0.2,1.2c-0.1,0.3-0.3,0.8-0.5,1c-0.2,0.2-0.4,0.5-0.2,0.7
		s3.3,4.6,4.4,6c0.4,0.5,0.9,0.9,1.5,1.2c1.4,0.5,2.9-0.3,3.4-1.7c0.1-0.2,0.1-0.3,0.1-0.5c0-0.1,0-0.2,0-0.2v-0.1
		c0-0.9-0.2-1.9,0.3-3.4C171.2,207.3,171.8,206.7,172.3,205.9z"/>
	<path class="st0" d="M152.9,190.7c-0.2,0.1-0.2,0.2-0.4,0.3c-0.1,0.1-0.1,0.1-0.2,0.2l-0.1,0.1c-0.5,0.8-1,1.6-2.3,2.5
		s-2.2,1-3.1,1.4c-0.3,0.1-0.6,0.2-0.8,0.4c-1.2,0.8-1.5,2.5-0.6,3.7c0.2,0.3,0.5,0.5,0.8,0.7c0.2,0.1,0.2,0.2,0.4,0.2
		c0,0,7.3,2.3,7.5,2.4c0.4,0.1,0.5-0.2,0.6-0.3c0.2-0.2,0.5-0.6,0.8-0.8c0.3-0.2,0.7-0.4,1-0.5c0.3-0.1,0.5-0.2,0.5-0.5
		c0-0.3,0-5.7,0-7.4c0.1-0.5-0.1-1.2-0.5-1.7C155.8,190.1,154.1,189.8,152.9,190.7z"/>
	<path class="st0" d="M173.3,225.6l0.1-3.9c-1.3,0.1-2.7-0.4-3.9-1.3c0.5,1.4,0.5,2.8,0.1,4.1L173.3,225.6z"/>
</g>
</svg>
