<?xml version="1.0" encoding="utf-8"?>
<!-- Generator: Adobe Illustrator 24.0.1, SVG Export Plug-In . SVG Version: 6.00 Build 0)  -->
<svg version="1.1"
	 id="Layer_1" xmlns:cc="http://creativecommons.org/ns#" xmlns:dc="http://purl.org/dc/elements/1.1/" xmlns:rdf="http://www.w3.org/1999/02/22-rdf-syntax-ns#"
	 xmlns="http://www.w3.org/2000/svg" xmlns:xlink="http://www.w3.org/1999/xlink" x="0px" y="0px" viewBox="0 0 168.5 188.4"
	 style="enable-background:new 0 0 168.5 188.4;" xml:space="preserve">
<style type="text/css">
	.st0{fill:#FFFFFF;}
</style>
<g>
	<path class="st0" d="M168.5,6.1L168.5,6.1C140.6,1.9,112.4-0.1,84.2,0C56.1-0.1,27.9,1.9,0,6.1v0.1l0,70.2
		c0,59.4,34.5,92.8,82.9,110.6l1.4,0.4l0,0l1.4-0.4c48.4-17.8,82.9-51.2,82.9-110.6L168.5,6.1L168.5,6.1z M162.7,78.5
		c0,55.3-32.1,86.4-77.2,103l-1.3,0.4l0,0l-1.3-0.4c-45.1-16.5-77.1-47.7-77.2-103l0-66.5v-0.1C31.8,8,58,6.2,84.2,6.2
		c26.2-0.1,52.5,1.8,78.4,5.6v0h0V78.5z"/>
	<path class="st0" d="M132.6,72.8c-1.2-2.2-0.5-4.4-0.3-5.7c0.3-1-0.1-2-0.9-2.6c-0.6-0.6-10.5-10.2-14.4-13.9
		c-0.8-0.8-1.3-0.9-2-0.4c-2.6,2.3-5.1,4.8-7.4,7.3c-0.2,0.2-0.3,0.5-0.4,0.7c0,0,0,0,0,0c0,0,0,0,0,0.1c0,0,0,0.1,0,0.1
		c0,0.1,0,0.2-0.1,0.3c0,0,0,0,0,0.1c0,0.1,0,0.1,0,0.2c0,0.4,0.2,0.6,0.2,0.6l6.4,7.5c0.1,0.1,0.2,0.2,0.3,0.3c0,0,0.1,0.1,0.1,0.1
		c0.1,0.1,0.2,0.2,0.2,0.2c0.1,0.1,0.2,0.2,0.4,0.4c0,0,0,0,0.1,0.1c0.1,0.1,0.1,0.1,0.2,0.2c0.1,0.1,0.1,0.1,0.2,0.2c0,0,0,0,0,0v0
		c0.1,0.1,0.2,0.2,0.2,0.2l0,0l-1.1,1.1c0,0,0,0,0,0L84.3,99.1L55.6,71.1l-0.8-0.8c0,0,0,0,0,0l-1.5-1.5l0,0c0,0,0.1-0.1,0.2-0.2
		c0,0,0,0,0,0c0,0,0.1-0.1,0.2-0.2c0,0,0,0,0,0c0.1-0.1,0.2-0.2,0.2-0.2c0,0,0,0,0.1-0.1c0.1-0.1,0.2-0.2,0.4-0.4
		c0.1-0.1,0.2-0.2,0.2-0.2c0,0,0.1-0.1,0.1-0.1c0.1-0.1,0.2-0.2,0.3-0.4v0l4.9-5.8l1.4-1.7c0,0,0,0,0,0c0,0,0.2-0.2,0.2-0.6
		c0-0.1,0-0.1,0-0.2c0,0,0,0,0-0.1c0-0.1,0-0.2-0.1-0.3c0,0,0-0.1,0-0.1c0,0,0,0,0-0.1c0,0,0,0,0,0c-0.1-0.2-0.2-0.4-0.4-0.7
		c-2.3-2.6-4.8-5-7.4-7.3c-0.7-0.5-1.2-0.4-2,0.4c-3.9,3.7-13.8,13.3-14.4,13.9c-0.8,0.6-1.1,1.7-0.9,2.6c0.2,1.3,1,3.6-0.3,5.7
		l-6.7,10.5c-0.8,1.3-1.1,2.4-0.5,3c0.2,0.2,0.6,0.4,1.3,0.3c0,0,0,0,0,0c0,0,0,0,0,0c0.2,0,0.5-0.1,0.7-0.3c0.1,0,0.1-0.1,0.2-0.1
		c0.2-0.1,0.4-0.2,0.7-0.4c0,0,0,0,0,0c0.1,0,0.1-0.1,0.3-0.2c1.7-1.2,9.9-6.7,12.6-8.9c0.3-0.2,0.5-0.4,0.8-0.7
		c0.1-0.1,0.1-0.1,0.2-0.2c0.2-0.2,0.4-0.3,0.6-0.5c0,0,0.1-0.1,0.1-0.1c0.8-0.7,1.4-1.3,1.4-1.3l0,0L78,105.3L38.3,144c0,0,0,0,0,0
		c-0.1,0.1-0.2,0.3-0.3,0.5c0,0,0,0,0,0c-0.1,0.2-0.1,0.3-0.1,0.5c0,0,0,0,0,0.1c0,0.2,0,0.3,0,0.5c0,0,0,0,0,0.1
		c0,0.2,0.1,0.4,0.2,0.6c0,0,0,0.1,0,0.1c0.1,0.2,0.2,0.4,0.3,0.6c0,0,0,0.1,0.1,0.1c0.1,0.2,0.3,0.4,0.4,0.6c0,0,0,0.1,0.1,0.1
		c0.2,0.2,0.3,0.4,0.5,0.6c0,0,0,0,0.1,0.1c0.2,0.2,0.4,0.4,0.6,0.7c0,0,0,0,0,0c0,0,0,0,0,0c0.1,0.1,0.2,0.2,0.3,0.3
		c2,2,4,3.4,5.3,2.1l38.6-39.6l38.6,39.6c1.2,1.2,3.2-0.1,5.3-2.1c0.6-0.6,1.1-1.2,1.6-1.8c0,0,0,0,0,0c0,0,0,0,0,0
		c0.1-0.2,0.2-0.3,0.3-0.5c0,0,0,0,0,0c0.1-0.1,0.2-0.3,0.2-0.4c0,0,0-0.1,0-0.1c0.1-0.3,0.3-0.6,0.3-0.8c0,0,0-0.1,0-0.1
		c0-0.1,0-0.2,0-0.3c0,0,0,0,0-0.1c0-0.1,0-0.2,0-0.4c0,0,0,0,0-0.1c0-0.1-0.1-0.2-0.1-0.3c0,0,0-0.1-0.1-0.1
		c-0.1-0.1-0.1-0.2-0.2-0.3c0,0,0,0,0,0l-0.2-0.2l-39.5-38.5L121,74.2l0,0c0,0,0.5,0.5,1.4,1.3c0,0,0,0,0.1,0.1
		c0.2,0.2,0.4,0.4,0.6,0.5c0.1,0,0.1,0.1,0.2,0.1c0.3,0.2,0.5,0.4,0.8,0.7c2.9,2.4,12,8.5,12.8,9.1c0.2,0.2,0.5,0.3,0.7,0.4
		c0.1,0,0.1,0.1,0.2,0.1c0.3,0.1,0.5,0.2,0.7,0.3c0,0,0,0,0,0c0,0,0,0,0,0c0.7,0.2,1.1-0.1,1.3-0.3c0.6-0.6,0.4-1.8-0.5-3
		L132.6,72.8z"/>
	<path class="st0" d="M54.1,42c-0.2,0-0.3,0-0.5,0c-0.2,0-0.3,0-0.5,0c-1.1,0-2-1-1.9-2.1c-0.1-2.8-0.2-5.7-0.2-8.5
		c-1.3,0.1-2,0.1-3.3,0.2c0.1,2.8,0.2,5.7,0.3,8.5c0,0.1,0,0.3,0,0.4c0.4,2.8,3,4.7,5.8,4.3c0.2,0,0.3,0,0.5,0c3,0,5.5-2.5,5.5-5.5
		c-0.1-2.8-0.1-5.7-0.2-8.5c-1.3,0.1-2,0.1-3.3,0.2c0.1,2.8,0.1,5.7,0.2,8.5c0,0.1,0,0.2,0,0.3C56.3,41.2,55.3,42.1,54.1,42z"/>
	<path class="st0" d="M70.7,44.1c1.5,0,2.3-0.1,3.8-0.1c0-4.5-0.1-9-0.1-13.5c-1.3,0-2,0-3.3,0.1c0,2.9,0.1,5.7,0.1,8.6l0,0
		c-1.7-2.8-3.5-5.6-5.2-8.4c-1.6,0.1-2.3,0.1-3.9,0.2c0.1,4.5,0.2,9,0.3,13.5c1.3-0.1,2-0.1,3.3-0.1c0-2.9-0.1-5.7-0.1-8.6l0,0
		C67.3,38.5,69,41.3,70.7,44.1z"/>
	<polygon class="st0" points="62,30.9 62,30.9 62,30.9 	"/>
	<path class="st0" d="M76.9,30.4c0,4.5,0.1,9,0.1,13.5c1.3,0,2,0,3.3,0c0-4.5,0-9,0-13.5C78.9,30.4,78.2,30.4,76.9,30.4L76.9,30.4z"
		/>
	<path class="st0" d="M90.2,43.9c0-3.6,0-7.1,0.1-10.7c1.7,0,2.6,0,4.3,0.1c0-1.1,0-1.7,0-2.8c-4-0.1-8-0.1-12-0.1
		c0,1.1,0,1.7,0,2.8c1.7,0,2.6,0,4.3,0c0,3.6,0,7.1,0,10.7C88.3,43.9,88.9,43.9,90.2,43.9z"/>
	<path class="st0" d="M106.1,33.7c0-1.1,0-1.7,0.1-2.8c-3-0.1-6-0.2-9.1-0.3c0,4.5-0.1,9-0.1,13.5c3.1,0.1,6.1,0.2,9.2,0.3
		c0-1.1,0-1.7,0.1-2.8c-2.4-0.1-3.6-0.2-5.9-0.2c0-1,0-1.5,0-2.5c1.9,0.1,2.8,0.1,4.6,0.2c0-1.1,0-1.7,0.1-2.8
		c-1.9-0.1-2.8-0.1-4.6-0.2c0-1,0-1.5,0-2.5C102.6,33.6,103.8,33.6,106.1,33.7z"/>
	<path class="st0" d="M114,31.3c-2.1-0.1-3.2-0.2-5.3-0.3c-0.1,4.5-0.2,9-0.3,13.5c2.1,0.1,3.2,0.2,5.3,0.3c0.2,0,0.4,0,0.5,0
		c3.6,0.1,6.5-2.7,6.6-6.3C120.9,34.6,117.9,31.4,114,31.3z M113.6,41.9L113.6,41.9c-0.7,0-1.1-0.1-1.9-0.1l0.2-7.8
		c0.7,0,1.1,0.1,1.9,0.1c2.2,0.1,3.7,1.6,3.6,4.1C117.3,40.8,115.9,42.1,113.6,41.9z"/>
	<path class="st0" d="M30.8,20.9L30.8,20.9c0.7,3.2,1.4,6.5,2.1,9.7c2-0.2,3-0.3,5-0.5c1.4-5.8,2.9-11.6,4.3-17.3
		c-1.7,0.1-2.6,0.2-4.3,0.4c-0.8,4-1.7,8-2.5,12l0,0c-0.9-3.8-1.7-7.7-2.6-11.5c-1.5,0.1-2.3,0.2-3.8,0.4c-0.9,4-1.8,8-2.7,12.1l0,0
		c-0.8-3.8-1.6-7.7-2.3-11.5c-1.7,0.2-2.6,0.3-4.4,0.5c1.4,5.5,2.7,11,4.1,16.5c2-0.2,3-0.4,5.1-0.6C29.5,27.7,30.1,24.3,30.8,20.9z
		"/>
	<path class="st0" d="M141,14.3c-1.2,3.4-2.5,6.8-3.7,10.2l0,0c-1.2-3.6-2.5-7.3-3.7-10.9c-1.9-0.2-2.8-0.3-4.7-0.4
		c-1,5.6-1.9,11.2-2.9,16.7c1.7,0.1,2.6,0.2,4.4,0.4c0.4-3.7,0.9-7.4,1.3-11c0,0,0,0,0,0c1.2,3.8,2.5,7.7,3.7,11.5
		c1.5,0.1,2.3,0.2,3.8,0.4c1.2-3.6,2.4-7.2,3.6-10.8l0,0c0.5,3.8,1,7.6,1.5,11.3c1.7,0.2,2.6,0.3,4.3,0.5c-1-5.8-2-11.6-3-17.3
		C143.8,14.6,142.9,14.5,141,14.3z"/>
	<polygon class="st0" points="128.9,13.1 128.9,13.1 128.9,13.1 	"/>
	<path class="st0" d="M55.5,25.4c-2.5,0.1-5,0.3-7.4,0.5v-3.2c2.3-0.2,3.5-0.2,5.8-0.4v-3.6c-2.3,0.1-3.5,0.2-5.8,0.4V16
		c2.4-0.2,4.7-0.3,7.1-0.4c0.1-1.4,0.1-2.1,0.2-3.6c-3.8,0.2-7.6,0.5-11.5,0.8v17c3.9-0.3,7.7-0.5,11.6-0.8
		C55.5,27.5,55.5,26.8,55.5,25.4z"/>
	<path class="st0" d="M74.9,28.3c1.7,0,2.5,0,4.2-0.1V14.8c2.1,0,3.2,0,5.4,0v-3.6c-5,0-9.9,0.1-14.9,0.2V15
		c2.1-0.1,3.2-0.1,5.4-0.1V28.3z"/>
	<path class="st0" d="M95.5,21.7c2.4,0.1,4.8,0.1,7.2,0.2v6.6c1.7,0.1,2.5,0.1,4.2,0.2v-17c-1.7-0.1-2.5-0.1-4.2-0.2v6.8
		c-2.4-0.1-4.8-0.1-7.2-0.2v-6.8c-1.7,0-2.5,0-4.2-0.1v17c1.7,0,2.5,0,4.2,0.1V21.7z"/>
	<path class="st0" d="M113.6,25.5c2.3,0.1,3.4,0.2,5.7,0.4c0.4,1.5,0.6,2.2,1,3.6c1.7,0.1,2.6,0.2,4.3,0.3
		c-1.9-5.8-3.7-11.6-5.6-17.4c-2.2-0.2-3.4-0.2-5.6-0.3c-1.7,5.6-3.4,11.1-5.2,16.7c1.7,0.1,2.6,0.1,4.3,0.2
		C113,27.6,113.2,26.9,113.6,25.5z M116.5,16.1L116.5,16.1c0.7,2.1,1.3,4.2,1.9,6.3c-1.5-0.1-2.3-0.1-3.8-0.2
		C115.2,20.1,115.9,18.1,116.5,16.1z"/>
	<path class="st0" d="M65.1,23.6c0.1,0.8-0.8,1.5-1.9,1.5c-1.9,0-3.8-0.4-5.6-1.3c-0.1,1.5-0.2,2.2-0.2,3.6c1.7,1.1,3.7,1.6,5.7,1.5
		c3,0.1,6.6-2,6.6-5.5c0-5.3-7.9-4.1-8.4-6.8c-0.1-0.7,0.7-1.4,2-1.5c1.5-0.1,3,0.2,4.4,0.8c0.1-1.7,0.1-1.9,0.2-3.6
		c-1.4-0.8-3-1.1-4.6-1c-3.1,0.1-6.6,2-6.6,5.5C56.6,22.2,64.6,20.7,65.1,23.6z"/>
	<polygon class="st0" points="61.7,152.4 59.7,151.6 56.1,159.8 61.5,162.2 62.2,160.4 58.9,159 	"/>
	<path class="st0" d="M69.7,155.1c-0.1,0-0.1,0-0.2-0.1c-2.4-0.6-4.9,0.8-5.6,3.2c-0.7,2.5,0.8,5.1,3.3,5.8c2.5,0.7,5.1-0.8,5.8-3.3
		c0-0.1,0-0.1,0.1-0.2C73.6,158.2,72.1,155.7,69.7,155.1z M70.8,160.2C70.8,160.2,70.8,160.2,70.8,160.2c-0.3,1.4-1.7,2.3-3.1,2h0
		c0,0,0,0,0,0c-1.3-0.5-2-1.9-1.6-3.2c0-0.1,0-0.2,0.1-0.3c0.4-1.3,1.8-2,3.1-1.5C70.5,157.5,71.2,158.9,70.8,160.2z"/>
	<path class="st0" d="M80.1,161.3c-0.1,0.6-0.1,1.5-0.1,1.5l0,0c-0.2-0.5-0.4-1.1-0.6-1.6l-2.1-4.4l-2.2-0.2l-0.9,9l2.2,0.2l0.4-4.2
		c0.1-0.6,0.1-1.5,0.1-1.5l0,0c0.2,0.5,0.4,1.1,0.6,1.6l2.1,4.4l2.2,0.2l0.9-9l-2.2-0.2L80.1,161.3z"/>
	<path class="st0" d="M87.4,157.2l-3.2,0.2l0.5,9l3.2-0.2c2.8-0.2,4.6-1.9,4.4-4.8C92.2,158.6,90.3,157.1,87.4,157.2z M87.7,164.3
		l-0.9,0l-0.3-5.2l0.9,0c1.3,0,2.4,1,2.6,2.3C90.2,162.9,89.2,164.2,87.7,164.3z"/>
	<path class="st0" d="M102.6,159.1c-0.6-2.4-3.1-3.9-5.5-3.3c-0.1,0-0.1,0-0.2,0c-2.5,0.6-4,3-3.4,5.5c0.6,2.5,3.1,4.2,5.6,3.6
		s4.2-3.1,3.6-5.6C102.6,159.2,102.6,159.2,102.6,159.1z M98.6,162.9C98.6,162.9,98.6,162.9,98.6,162.9c-1.4,0.2-2.7-0.7-3-2.1
		c0-0.1,0-0.2-0.1-0.3c-0.2-1.3,0.7-2.6,2-2.8c1.3-0.2,2.6,0.7,2.8,2c0,0,0,0,0,0.1C100.8,161.2,100,162.6,98.6,162.9z"/>
	<path class="st0" d="M107.5,152.6l1.6,3.9c0.2,0.5,0.7,1.4,0.7,1.4l0,0c-0.4-0.4-0.8-0.8-1.3-1.1l-3.9-3l-2.1,0.8l3.4,8.4l2-0.8
		l-1.6-3.9c-0.2-0.5-0.7-1.4-0.7-1.4l0,0c0.4,0.4,0.8,0.8,1.3,1.1l3.9,3l2.1-0.8l-3.4-8.4L107.5,152.6z"/>
</g>
</svg>
