<?xml version="1.0" encoding="utf-8"?>
<!-- Generator: Adobe Illustrator 24.0.1, SVG Export Plug-In . SVG Version: 6.00 Build 0)  -->
<svg version="1.1"
	 id="Layer_1" xmlns:cc="http://creativecommons.org/ns#" xmlns:dc="http://purl.org/dc/elements/1.1/" xmlns:rdf="http://www.w3.org/1999/02/22-rdf-syntax-ns#"
	 xmlns="http://www.w3.org/2000/svg" xmlns:xlink="http://www.w3.org/1999/xlink" x="0px" y="0px" viewBox="0 0 117.7 242.6"
	 style="enable-background:new 0 0 117.7 242.6;" xml:space="preserve">
<style type="text/css">
	.st0{fill:none;}
	.st1{fill:#FFFFFF;}
</style>
<g>
	<path class="st0" d="M35.6,220.6c-0.3-0.1-0.5-0.1-0.7-0.1c-0.9,0-1.6,0.5-2.3,1.4c-0.7,0.9-1.2,2.3-1.8,4.2
		c-0.5,1.9-0.7,3.4-0.6,4.6c0.2,1.4,0.8,2.3,2,2.6c1.2,0.3,2.2-0.1,3-1.3c0.7-0.9,1.2-2.3,1.8-4.2c0.5-1.9,0.7-3.4,0.6-4.5
		C37.4,221.7,36.8,220.9,35.6,220.6z"/>
	<path class="st0" d="M16.4,205c2,0.9,3.8-0.6,5.8-4.7c2-4.1,2-6.5,0-7.4c-0.4-0.2-0.8-0.3-1.1-0.3c-1.6,0-3.1,1.6-4.7,4.9
		C14.5,201.6,14.5,204.1,16.4,205z"/>
	<polygon class="st0" points="90.4,202.5 93.9,201.1 90.1,195.7 	"/>
	<path class="st1" d="M47.7,129.8c-2.5,0.5-4.3,0.9-4.7,3.8c0,0,0,0.1,0,0.1c-9.1,5.2-15.2,14.9-15.2,26.1c0,6.4,2,12.2,5.4,17.1
		c0.2,0.3,0.5,0.6,0.7,1c0,0,0.1,0.1,0.1,0.1c2.3,3,5.1,5.6,8.4,7.6c0.3,0.2,0.5,0.3,0.8,0.5l0.2,0.1c0.1,0,0.2,0.1,0.2,0.1l0,0
		c3.6,2,7.5,3.2,11.6,3.6l1,0.1l-0.9-0.3c0,0-0.1,0-0.1,0c0.9,0.1,1.8,0.1,2.7,0.1c1.3,0,2.7-0.1,4-0.3c0.2,0,0.3,0,0.5,0
		c0.1,0,0.1,0,0.2,0c0.7,0,1.4-0.1,2-0.2c9.3-2.1,17.1-8.5,21-17.3l0.1-0.2l-0.2,0c0,0-0.1,0-0.1,0c0,0,0,0,0,0
		c0.3-0.6,0.5-1.2,0.7-1.8c0,0,0.1,0,0.1,0c0,0,0,0,0.1,0c0,0,0.1,0,0.1,0l0,0l0,0c1.6-4.5,2-9.4,1.4-14.1l0-0.3
		c0-0.2-0.1-0.4-0.1-0.6l0-0.2c0-0.2-0.1-0.4-0.1-0.5c-0.3-1.7-0.8-3.3-1.4-4.8c-0.1-0.3-0.3-0.6-0.5-0.9c-0.5-1.3-1.1-2.5-1.8-3.7
		l0.1,0.1l-0.3-0.5c-0.2-0.3-0.4-0.5-0.5-0.8c-0.3-0.4-0.5-0.8-0.8-1.2c-0.1-0.1-0.1-0.2-0.2-0.2c-3.8-5.2-9.3-9.1-15.7-11
		c-0.1-0.1-0.2-0.1-0.3-0.2c-1.4-1-2-2.6-2-5.1c0-4.6,2.5-5,5.9-5.7c3.3-0.6,7.5-1.4,10.8-6.4c0.2-0.3,0.1-0.6,0-0.8
		c-0.2-0.1-0.4-0.1-0.6,0.1c-2.1,2-7,3.4-9.5,3.4c-1.2,0.1-2.4-0.1-3.4-0.5c1.6-3.1,3.4-6.1,5.5-9l0-0.1l-0.1-0.1
		c-2.6-2.6-2.2-10,1-17.5c2.5-6,6.4-11.4,11-15.2c5.7-4.7,12.3-7.1,19.6-7.1h0.1l0-0.1c0.1-6.2-0.6-12.5-1.8-18.6l0-0.1l-0.1,0
		c-2.2,0.5-5.1,1-5.8,0.6c-0.1-0.1-0.1-0.1-0.1-0.2c-0.1-0.6,1.9-2,5.1-3.6l0.1,0l0-0.1c-0.6-2.4-1.5-4.7-2.7-6.9l0-0.1l-0.1,0
		C83.1,42.7,79.8,53,77.8,59.2c-1.1,3.3-1.8,5.5-3.7,5.5c-3.7,0-6.7-3-7.6-3.9C56.2,50.5,57,42.7,58.2,31.9
		c0.4-3.8,0.9-8.1,0.9-13.1c0-6.2-1.2-10.6-3.6-13.4c-2.3-2.7-5.7-4-10.4-4c-9,0-12.3,3.9-12.3,3.9l-0.1,0.2l0.2,0
		c0,0,3.1,0.1,6.1,1.8c2.8,1.6,6.1,4.8,6.1,11.5c0,6.4-3.4,10.6-6.9,15C34,39,29.7,44.3,29.7,53.4c0,15.2,9.5,22.2,18.6,28.9
		c8,5.8,15.5,11.3,15.5,21.9c0,10.6-4.6,18.5-6.8,20.8C53.5,128.6,50.1,129.3,47.7,129.8z M39.9,136.3c-3.1,3.6-5.2,7.9-6.2,12.6
		c-0.4,0.3-0.8,0.6-1.2,1c-0.5,0.5-0.8,1.2-1.1,1.8c-0.6-0.4-1.2-0.9-1.7-1.4C31.7,144.7,35.2,139.9,39.9,136.3z M33.8,150.7
		c0.5-0.6,1.2-0.9,1.9-0.8c0.6,0.2,1.1,0.7,1.2,1.4c0.6,2.3,0.1,4.8-1.3,6.7c-0.4,0.6-1.1,1-1.8,1c0,0,0,0-0.1,0
		c-0.7-0.2-1.2-0.7-1.5-1.4c-0.2-0.4-0.3-0.9-0.3-1.3l-0.1,0l0.1,0C31.9,154.2,32.5,152.2,33.8,150.7z M28.2,161.2
		c-0.1-3,0.2-6,1-8.9c0.5,0.5,1.1,0.9,1.6,1.3c-0.3,1.2-0.3,2.4-0.1,3.7c-1.1,1.6-1.9,3.4-2.5,5.2C28.3,162.1,28.2,161.7,28.2,161.2
		z M43.7,186.1L43.7,186.1c-0.1-0.1-0.2-0.1-0.3-0.2l-0.2-0.1c-0.3-0.2-0.5-0.3-0.8-0.5c-6.3-3.9-10.9-9.9-13-16.9
		c-0.8-2.5,0-5.5,2.3-9.1c0.4,0.5,0.9,0.9,1.6,1.1c1.5,13.6,10,25.2,21.1,29.1C50.6,189.1,47,188,43.7,186.1z M64.5,189.1
		c-0.6,0.1-1.3,0.2-2,0.2c-1.9,0-3.8-0.4-5.5-0.8c-6.1-1.4-11.7-5.7-15.9-12.2c-3.1-4.8-5.1-10.3-5.7-16c0.6-0.3,1.2-0.8,1.7-1.3
		c0.3-0.4,0.6-0.7,0.8-1.1c8.2,4.2,16.9,7.7,25.8,10.3c-0.2,0.7-0.2,1.5-0.2,2.2c0,1,0.3,2,0.7,2.9c0.8,1.7,2.2,3.1,4,3.7
		c2.4,0.7,4.9,1.2,7.4,1.5c1.9,0.2,6.4,0,8.6-6.3c0.4,0,0.8-0.1,1.2-0.1C81.4,180.7,73.6,187.1,64.5,189.1z M79.5,167.1
		c-0.2-0.2-0.4-0.3-0.7-0.3c-0.6,0-1,0.4-1.1,1c0,0.6-0.1,1.3-0.2,1.9c-0.5-0.1-1-0.2-1.5-0.3c0.1-0.5,0.3-1.4,0.4-2.3l0-0.1
		c0.1-0.5-0.3-1.1-0.8-1.1c-0.5-0.1-1.1,0.3-1.2,0.8l0,0c-0.1,0.4-0.2,1.3-0.4,2.3c-0.2-0.1-0.5-0.1-0.8-0.2l0,0
		c-0.3-0.1-0.5-0.1-0.8-0.2c0.2-0.7,0.3-1.5,0.3-2.2c0-0.6-0.4-1-0.9-1.1c0,0,0,0-0.1,0c-0.5,0-1,0.4-1,0.9c0,0.6-0.1,1.2-0.3,1.9
		c-1.4-0.3-2.8-0.7-4.3-1.2c1.5-3.2,4.1-4.5,7.2-3.7c2.4,0.6,4,0.9,5,1.1l1.1,0.2c1.1,0.3,2,1,2.5,1.9c0.6,1.2,0.8,2.5,0.5,3.8
		c-0.9,0-1.9-0.1-3-0.3c0.1-0.7,0.2-1.4,0.2-2.1C79.7,167.6,79.6,167.3,79.5,167.1z M69.9,170.1c-0.1,0.4-0.3,0.9-0.5,1.2
		c-0.2,0.5,0,1.1,0.5,1.3c0.5,0.2,1.1,0,1.3-0.5c0.2-0.5,0.4-1,0.6-1.5c0.3,0.1,0.6,0.1,0.8,0.2l0.8,0.2c-0.1,0.5-0.3,1-0.5,1.5l0,0
		c-0.2,0.5,0,1.1,0.5,1.3c0.2,0.1,0.5,0.1,0.8,0c0.3-0.1,0.4-0.3,0.6-0.5c0.3-0.6,0.5-1.3,0.6-1.9c0.4,0.1,1,0.2,1.5,0.3
		c-0.1,0.4-0.3,0.8-0.5,1.1c-0.3,0.5-0.1,1.1,0.4,1.4c0.2,0.1,0.5,0.2,0.8,0.1c0.3-0.1,0.5-0.2,0.6-0.5c0.3-0.6,0.6-1.2,0.8-1.8
		c1,0.1,2,0.2,2.9,0.3c-1.3,3.1-3.5,4.6-6.3,4.3c-2.4-0.3-4.7-0.7-7-1.4c-1.3-0.5-2.3-1.4-2.8-2.7c-0.5-1.1-0.6-2.4-0.4-3.7
		C67,169.3,68.5,169.7,69.9,170.1z M85.8,149.4c0.6,1.5,1,3.1,1.4,4.8c0,0.2,0.1,0.4,0.1,0.5l0,0.2c0,0.2,0.1,0.4,0.1,0.6l0,0.3
		c0.7,4.7,0.2,9.6-1.3,14c0,0,0,0-0.1,0c0,0,0,0-0.1,0c-0.5,0.2-1,0.4-1.5,0.3c0.3-1.6,0-3.3-0.8-4.8c-0.8-1.4-2.2-2.5-3.8-2.9
		l-1.2-0.3c-1-0.2-2.6-0.5-4.9-1.1c-3.2-0.8-7.5,0.1-9.7,5.1c-8.8-2.6-17.4-6.1-25.6-10.3c0.5-1.5,0.5-3.1,0.2-4.6
		c9.5-8,24.3-11.9,35.2-9.5C80.3,143.4,84.5,146,85.8,149.4z M64.1,104.2c0-10.7-7.6-16.2-15.6-22.1c-9.1-6.7-18.6-13.6-18.6-28.7
		c0-9.1,4.2-14.4,8.3-19.4c3.6-4.5,7-8.7,7-15.1c0-6.8-3.4-10.1-6.2-11.6c-2.6-1.5-5.3-1.8-6-1.8c1.3-1.4,5.2-3.7,12-3.7
		c9.5,0,13.8,5.3,13.8,17.2c0,4.9-0.5,9.2-0.9,13c-1.2,10.8-2,18.7,8.4,29c1,1,4,4,7.8,4c2,0,2.8-2.4,3.9-5.7
		c1-3.2,2.3-7.3,5.3-11.2c3.5-4.6,8.5-7.9,15.3-10c1.1,2.1,2,4.4,2.6,6.7c-2.1,1-5.4,2.8-5.2,3.8c0,0.1,0.1,0.2,0.2,0.3
		c0.9,0.6,4.6-0.2,5.8-0.5c1.3,6,1.9,12.2,1.8,18.3c-7.3,0-14,2.4-19.6,7.2c-4.6,3.8-8.6,9.3-11.1,15.3c-3.1,7.6-3.5,15-1,17.7
		c-2,2.9-3.9,5.9-5.5,9l0,0.1l0.1,0c1.1,0.5,2.4,0.7,3.6,0.6c2.5,0,7.5-1.3,9.6-3.4c0.1-0.1,0.3-0.2,0.4-0.1c0.1,0.1,0.1,0.3,0,0.5
		c-3.3,4.9-7.4,5.7-10.7,6.3c-3.4,0.6-6.1,1.1-6.1,5.8c0,2.5,0.7,4.2,2.1,5.2c0.6,0.5,1.3,0.7,1.9,0.9c0.1,0,0.2,0.1,0.3,0.1
		c6.2,2.2,11.5,6.4,15,11.9c-2.6-2-5.6-3.3-8.7-3.9c-5.6-1.3-12.2-1-18.9,0.8c-6.5,1.7-12.7,4.8-17.5,8.7c-0.4-0.6-1.1-1-1.8-1.2
		c0,0-0.1,0-0.1,0c1.3-5.5,3.8-10.3,7.2-13.4l0,0l0,0c0-0.5,0-0.9,0.1-1.3c0.4-2.8,2-3.2,4.5-3.7c2.5-0.5,5.9-1.2,9.6-4.9
		C59.5,122.9,64.1,114.9,64.1,104.2z"/>
	<path class="st1" d="M45,4.1c-0.3,0-0.6,0-0.9,0l-0.1,0l0,0.1c0,0,0.2,2.7,2.3,2.7c0.5,0,0.8-0.2,1-0.3c0.1-0.1,0.2-0.1,0.3-0.1
		c0.4,0,2.2,1.8,2.2,4.4c0,3.1-2.5,3.3-2.6,3.3l-0.1,0l0,0.1c0.3,1.5,0.5,3,0.5,4.5c0,4.6-1,6.9-1.8,9c-0.7,1.7-1.3,3.1-1.3,5.3
		c0,7.7,10.2,9,10.3,9l0.1,0l0-0.1c0-3.5,0.2-7,0.7-10.5v0c0.5-4.2,0.8-8.5,0.9-12.8C56.5,5.8,51,4.1,45,4.1z"/>
	<path class="st1" d="M13.1,188.4c1.5,0.9,2.7,1.6,2.9,2.8l0.1,0.3l1-2.6l-0.1,0c0,0-2.5-1.4-4.7-2.9c-2.5-1.7-4.4-3.1-4.4-3.1
		l-0.1,0l-2.2,1.7l0.3,0c1.4,0.1,2.1,0.3,4.1,1.9l-5.4,7.7c-0.1,0.1-0.2,0.3-0.4,0.5c-0.8,1.1-2,2.8-2.7,3l-0.2,0.1l0.2,0.1
		c0,0,0.8,0.6,1.7,1.3c0.8,0.6,1.8,1.2,1.8,1.2l0.1,0.1l0-0.1c0.5-1.4,1.2-2.7,2.1-3.9l5.5-8L13.1,188.4z M7.1,196.2
		c-0.9,1.2-1.6,2.5-2.1,3.8c-0.3-0.2-1-0.6-1.6-1.1c-0.7-0.5-1.3-0.9-1.6-1.1c0.8-0.4,1.8-1.8,2.7-3c0.1-0.2,0.2-0.3,0.4-0.5
		l5.5-7.8l-0.1-0.1c-1.9-1.5-2.8-1.9-4.1-2l1.7-1.2c0.3,0.3,2.1,1.6,4.4,3.1c2,1.4,4.2,2.6,4.7,2.8l-0.7,1.9
		c-0.4-1.1-1.5-1.8-2.9-2.7l-0.4-0.3L7.1,196.2z"/>
	<path class="st1" d="M13.3,196c-2.1,4.4-1.1,8.5,2.5,10.3c0.9,0.4,1.9,0.7,2.8,0.7c0.9,0,1.9-0.2,2.8-0.7c1.6-0.8,3.1-2.4,4-4.5
		c1-2.1,1.3-4.2,0.9-6c-0.4-1.9-1.6-3.4-3.5-4.3c-1.9-0.9-3.8-0.9-5.5,0C15.7,192.4,14.3,194,13.3,196z M17.4,191.8
		c1.7-0.9,3.6-0.9,5.4,0c1.8,0.9,3,2.3,3.4,4.2c0.4,1.7,0,3.8-0.9,5.8c-1,2-2.4,3.6-3.9,4.4c-1.7,0.9-3.6,0.9-5.4,0
		c-4.1-1.9-4.2-6.4-2.4-10C14.4,194.1,15.8,192.6,17.4,191.8z"/>
	<path class="st1" d="M16.4,205.2c0.4,0.2,0.8,0.3,1.2,0.3c1.6,0,3.2-1.7,4.9-5.1c2-4.2,2-6.7-0.1-7.7c-2.1-1-4,0.6-6,4.8
		C14.3,201.7,14.3,204.2,16.4,205.2z M16.4,197.6c1.6-3.3,3.1-4.9,4.7-4.9c0.4,0,0.7,0.1,1.1,0.3c2,0.9,2,3.3,0,7.4
		c-1.9,4.1-3.8,5.6-5.8,4.7C14.5,204.1,14.5,201.6,16.4,197.6z"/>
	<path class="st1" d="M28.8,210.9c1.2,0.3,2,0.5,2,0.5l0.2,0l-0.1-0.2c-0.3-0.4,0.4-2.7,0.8-3.8c0.1-0.3,0.2-0.6,0.2-0.7l2.7-9.1
		c2.1,0.5,2.4,0.8,3.1,1.8l0.2,0.2l0.3-2.7l-0.1,0c0,0-2.2-0.5-4.8-1.2c-2.9-0.8-4.4-1.4-4.4-1.4l-0.1,0l-1.6,2.4l0.3-0.2
		c1.1-0.5,1.6-0.5,3.8,0.3l-2.7,9.1c-0.3,1.1-1.2,3.8-1.8,4.2l-0.2,0.1l0.2,0.1C26.8,210.2,27.5,210.5,28.8,210.9z M28.8,205.9
		l2.7-9.2l0-0.1l-0.1,0c-2.1-0.7-2.8-0.8-3.7-0.4l1.1-1.7c0.3,0.1,1.8,0.7,4.3,1.4c2.3,0.7,4.3,1.1,4.7,1.2l-0.2,2
		c-0.6-0.9-1.1-1.1-3.2-1.7l-0.1,0l-2.7,9.2c0,0.2-0.1,0.4-0.2,0.7c-0.5,1.6-0.9,3.1-0.8,3.8c-0.3-0.1-0.9-0.2-1.8-0.5
		c-1-0.3-1.6-0.5-1.8-0.6C27.8,209.4,28.6,206.6,28.8,205.9z"/>
	<path class="st1" d="M43.9,209.1l1.5-9.3c2.5,0.3,2.8,0.6,3.7,1.4l0.2,0.2l-0.1-2.7l-0.1,0c0,0-2.5-0.2-5-0.6
		c-2.5-0.4-4.6-0.9-4.6-0.9l-0.1,0l-1.1,2.6l0.3-0.2c1-0.6,1.5-0.8,3.6-0.4l-1.5,9.4c-0.1,1-0.6,3.9-1.2,4.4l-0.2,0.1l0.2,0
		c0,0,0.8,0.2,2,0.3c1.2,0.2,2.1,0.3,2.1,0.3l0.2,0l-0.1-0.2c-0.3-0.4,0-3,0.2-4C43.9,209.5,43.9,209.3,43.9,209.1z M43.7,209.7
		c-0.2,1.6-0.4,3.3-0.2,4c-0.3,0-1-0.1-2-0.3c-0.9-0.1-1.5-0.3-1.8-0.3c0.7-0.9,1.1-4.3,1.1-4.3l1.5-9.6l-0.1,0
		c-2.1-0.4-2.6-0.3-3.5,0.2l0.8-1.9c0.4,0.1,2.3,0.5,4.6,0.9c2.3,0.3,4.5,0.6,4.9,0.6l0.1,2c-0.9-0.8-1.4-1-3.8-1.3l-0.1,0l-1.5,9.5
		C43.7,209.2,43.7,209.4,43.7,209.7z"/>
	<path class="st1" d="M50.6,203.9l-0.3,6.2v0c0,1.2-0.2,3.9-0.6,4.4l-0.2,0.2l0.2,0c0,0,2.4,0.2,5.3,0.2c0.9,0,1.7,0,2.4,0
		c1.3,0,2.1,0,2.2,0l0.1,0l0.6-3.4l-0.3,0.4c-0.9,1.3-3.1,1.6-6.4,1.6l0.2-6.1l4.2,0c0.2,0,0.3,0,0.4-0.1c0.1-0.1,0.1-0.3,0.1-0.6
		c0-0.4,0-0.7-0.5-0.7l-4.1,0l0.1-5.1c2.5,0,4.3,0.1,5.4,1l0.2,0.2l-0.4-2.7l-0.1,0c0,0-1.7,0.1-4.5,0c-1.7-0.1-1.9-0.1-3.1-0.2
		l-1.5-0.1l0.2,0.2c0.4,0.4,0.4,2.5,0.4,4C50.6,203.3,50.6,203.6,50.6,203.9z M50.5,199.1l1,0.1c1.2,0.1,1.4,0.1,3.1,0.2
		c2.5,0.1,4.1,0,4.4,0l0.3,2c-1.2-0.8-2.9-0.9-5.4-0.9l-0.1,0l-0.2,5.5l4.3,0c0.3,0,0.3,0.1,0.3,0.5c0,0.2,0,0.4-0.1,0.5
		c0,0-0.1,0.1-0.2,0.1l-4.3,0l-0.1,0l-0.2,6.4l0,0.1l0.1,0c3.2,0,5.3-0.2,6.4-1.3l-0.4,2.4c-0.4,0-2.1,0-4.4,0
		c-2.5,0-4.5-0.2-5.1-0.2c0.5-0.9,0.5-4.2,0.5-4.3l0.3-6.2c0-0.3,0-0.5,0-0.8C50.8,201.5,50.8,199.8,50.5,199.1z"/>
	<path class="st1" d="M72.1,214L72.1,214c0.5,0,0.9-0.3,1.2-0.6l0.1-0.1l-0.1-0.1c-0.5-0.3-0.8-2.2-1-4.2l-0.7-6.2
		c0-0.1,0-0.3-0.1-0.6c-0.1-1.2-0.5-3.5-0.1-4l0.2-0.2l-0.3,0.1c0,0-0.3,0.1-1.3,0.2c-0.9,0.1-1.2,0.2-1.2,0.2l-0.2,0l0.2,0.2
		c0.5,0.4,0.9,3.2,1,4.4l0.6,4.9l-7.5-8.9l-2.6,0.1l0.2,0.2c0.4,0.3,0.6,2.8,0.7,4c0,0.3,0,0.5,0.1,0.7l0.4,6.2
		c0.1,0.9,0.2,3.9-0.2,4.4l-0.1,0.2l3-0.1l-0.2-0.2c-0.4-0.3-0.5-2.5-0.6-3.7c0-0.3,0-0.6-0.1-0.8l-0.3-5.2l7.3,8.4
		C70.7,213.7,71.4,214,72.1,214z M63.1,210c0,0.2,0,0.4,0.1,0.8c0.1,1.6,0.2,3.1,0.6,3.7l-2.1,0.1c0.4-0.9,0.2-3.8,0.2-4.4l-0.4-6.2
		c0-0.2,0-0.4-0.1-0.7c-0.1-1.7-0.3-3.3-0.6-3.9l2-0.1l7.7,9.1l0.2,0.3L70,203c-0.1-0.6-0.5-3.5-1-4.3c0.2,0,0.5-0.1,1-0.1
		c0.5-0.1,0.9-0.1,1.1-0.2c-0.2,0.7,0,2.4,0.2,3.9c0,0.2,0.1,0.4,0.1,0.6l0.7,6.2c0.3,2.4,0.5,3.8,1,4.3c-0.2,0.3-0.6,0.5-1,0.5
		c-0.6,0-1.2-0.2-1.5-0.8l-7.5-8.6l-0.2-0.2L63.1,210z"/>
	<path class="st1" d="M83.6,211.4l0.2-0.1c0,0,1.4-0.4,2.1-0.6c0.7-0.2,1.9-0.6,1.9-0.6l0.2-0.1l-0.2-0.1c-0.6-0.4-1.1-2.5-1.4-3.7
		c0-0.2-0.1-0.4-0.1-0.5l-1.4-6.1c-0.1-0.2-0.1-0.5-0.2-0.8c-0.3-1.3-0.8-3-0.6-3.6l0.1-0.2l-0.2,0.1c0,0-0.6,0.2-1.9,0.6
		c-1.3,0.4-2,0.6-2,0.6l-0.2,0.1l0.2,0.1c0.6,0.4,1.1,2.5,1.4,3.6c0,0.1,0.1,0.3,0.1,0.4l0.5,1.9l-4.5,1.1l-0.3-1.8
		c0-0.2-0.1-0.4-0.1-0.6c-0.2-1.1-0.6-3.3-0.3-3.8l0.1-0.2l-0.2,0.1c0,0-0.7,0.2-2,0.4c-1.4,0.3-2,0.4-2,0.4l-0.3,0.1l0.2,0.1
		c0.6,0.3,1.1,3.3,1.3,4.3l1.2,6.2l0,0.1c0.4,2.5,0.5,4,0.3,4.3l-0.1,0.2l0.2,0c0,0,0.8-0.1,2-0.4c1.4-0.3,2.1-0.4,2.1-0.4l0.2-0.1
		l-0.2-0.1c-0.6-0.3-1.1-3.3-1.2-4.3l-0.5-3l4.6-1.1l0.7,2.8c0.4,1.5,0.9,4.2,0.6,4.6L83.6,211.4z M83.3,206.5l-0.7-2.9l0-0.1
		l-5,1.2l0.6,3l0,0.1c0.3,1.7,0.7,3.7,1.2,4.3c-0.3,0.1-0.9,0.2-1.9,0.4h0c-0.8,0.2-1.5,0.3-1.8,0.3c0.2-0.8-0.1-2.8-0.3-4.3
		l-1.2-6.2c-0.3-1.8-0.7-3.7-1.3-4.3c0.3-0.1,0.9-0.2,1.8-0.3c1-0.2,1.6-0.3,1.9-0.4c-0.2,0.7,0.1,2.2,0.4,3.7
		c0,0.2,0.1,0.4,0.1,0.6l0.4,2.1l4.8-1.2l0.1,0l-0.6-2.5c-0.3-1.1-0.8-3-1.3-3.6c0.3-0.1,0.9-0.2,1.8-0.5c0.9-0.3,1.4-0.4,1.7-0.5
		c-0.1,0.7,0.3,2.3,0.6,3.5c0.1,0.3,0.1,0.6,0.2,0.8l1.4,6.1c0,0.2,0.1,0.3,0.1,0.5c0.3,1.2,0.7,3.1,1.3,3.7
		c-0.4,0.1-1.2,0.3-1.7,0.5c-0.5,0.2-1.5,0.4-1.9,0.5C84.2,210.1,83.3,206.6,83.3,206.5z"/>
	<path class="st1" d="M97.5,206.9l0.2-0.1c0,0,0.9-0.3,2.2-0.9c1.3-0.6,2-0.9,2-0.9l0.2-0.1l-0.3-0.1c-0.7-0.2-1.7-1.2-3-2.9
		l-6.8-8.5c-0.8-1-1.3-1-2.4-0.5c-0.7,0.3-1.3,0.6-1.9,1l-0.1,0.1l0.1,0.1c0.2,0.1,0.4,0.3,0.5,0.6c0.1,0.4,0.2,0.8,0.2,1.2
		l0.4,12.1c0.1,0.7,0,1.3-0.3,1.9l-0.1,0.2l0.2-0.1c0,0,0.5-0.1,1.2-0.4c0.8-0.3,1.3-0.4,1.3-0.4l0.2-0.1l-0.2-0.1
		c-0.2-0.1-0.3-0.2-0.4-0.4c-0.2-0.7-0.3-1.4-0.3-2.1l-0.2-2.5l4.5-1.8l1.3,1.6c0.5,0.6,0.9,1.2,1.3,1.9c0.1,0.3,0.2,0.6,0.1,0.9
		L97.5,206.9z M96.4,203.8L95,202l-4.7,1.8l-0.1,0l0.2,2.6c0,0.7,0.1,1.4,0.3,2.2c0.1,0.1,0.2,0.3,0.3,0.4c-0.2,0.1-0.6,0.2-1.1,0.4
		c-0.5,0.2-0.8,0.3-1,0.3c0.2-0.6,0.3-1.2,0.2-1.8l-0.4-12.1c0-0.4-0.1-0.8-0.2-1.2c-0.1-0.2-0.2-0.4-0.4-0.6
		c0.6-0.4,1.1-0.7,1.7-0.9c1-0.4,1.4-0.4,2.2,0.4l6.8,8.5c0.8,1.1,2,2.4,2.9,2.9c-0.3,0.1-0.9,0.4-1.8,0.8c-1,0.4-1.7,0.7-2,0.8
		c0-0.3,0-0.6-0.1-0.9C97.3,205,96.9,204.3,96.4,203.8z"/>
	<path class="st1" d="M90.2,202.6l0,0.1l4-1.5l0.1,0l-4.4-6.1L90.2,202.6z M90.4,202.5l-0.3-6.7l3.9,5.3L90.4,202.5z"/>
	<path class="st1" d="M116.2,196.4c-0.8-0.2-2-1.7-2.8-2.7c-0.2-0.2-0.3-0.5-0.5-0.6l-3.7-4.8c-1.6-2-2.4-3.5-2.5-4.1l0-0.2
		l-0.1,0.1c0,0-0.8,0.6-1.6,1.1c-0.9,0.6-1.3,0.9-1.3,0.9l-0.1,0l3.3,10.1l-8.3-7.1l-0.1,0l-0.1,0c0,0-0.7,0.4-1.5,0.8l-0.6,0.3
		c-0.5,0.2-0.7,0.3-1.2,0.6l-0.2,0.1l0.2,0.1c0.8,0.3,1.8,2,2.7,3.7l3,5.6c0.1,0.2,0.2,0.4,0.3,0.6c0.7,1.3,1.6,3,1.5,3.6l0,0.2
		l0.2-0.1c0,0,0.4-0.2,1.1-0.5c0.7-0.3,1.2-0.6,1.2-0.6l0.2-0.1l-0.2-0.1c-0.7-0.2-1.8-2.4-2.5-3.6c-0.1-0.2-0.2-0.3-0.2-0.4
		l-2.4-4.5l7.2,6c0.5,0.5,1.4,0.5,2,0.1c0.2-0.2,0.4-0.4,0.6-0.7l0,0l-3.1-9.8l3.8,4.9c0.6,0.8,2.2,2.9,2.2,3.7l0,0.2l0.1-0.1
		c0,0,0.7-0.5,1.6-1.1c0.9-0.6,1.8-1.3,1.8-1.3l0.2-0.1L116.2,196.4z M114.4,197.7c-0.7,0.5-1.3,0.9-1.5,1c-0.2-1-1.6-2.8-2.2-3.6
		l-4.5-5.8l3.4,10.8c-0.1,0.2-0.3,0.4-0.5,0.6c-0.5,0.4-1.2,0.4-1.7-0.1l-8-6.7l2.9,5.4c0.1,0.1,0.1,0.3,0.2,0.4
		c0.7,1.3,1.6,3.2,2.4,3.6c-0.2,0.1-0.6,0.3-1,0.5c-0.4,0.2-0.7,0.4-0.9,0.4c0-0.7-0.8-2.2-1.5-3.5c-0.1-0.2-0.2-0.4-0.3-0.6l-3-5.6
		c-0.8-1.5-1.8-3.2-2.6-3.7c0.4-0.2,0.6-0.3,1-0.5l0.6-0.3c0.6-0.3,1.2-0.6,1.4-0.7l8.8,7.5l-3.5-10.6c0.2-0.1,0.6-0.4,1.2-0.8
		c0.6-0.4,1.2-0.9,1.5-1c0.2,0.9,1.4,2.7,2.5,4l3.7,4.8l0,0c0.1,0.2,0.3,0.4,0.5,0.6c0.8,1,1.8,2.4,2.7,2.7
		C115.7,196.7,115.1,197.2,114.4,197.7z"/>
	<path class="st1" d="M28.4,217.3l0.2-0.1l-0.2-0.1c0,0-1-0.4-1.8-0.6l-2.2-0.8l0,0.2c0.2,0.8-0.6,2.9-1,4c-0.1,0.2-0.1,0.4-0.2,0.5
		l-0.7,1.7l-4.5-1.8l0.7-1.5c0.1-0.2,0.2-0.5,0.3-0.8c0.6-1.3,1.4-3.3,2-3.5l0.2-0.1l-0.2-0.1c-0.6-0.2-1.1-0.5-2-0.9
		c-1.2-0.5-1.7-0.8-1.7-0.8l-0.2-0.1l0,0.2c0.1,1-0.6,2.5-1.4,4.3l-2.6,5.8c-0.1,0.3-0.2,0.5-0.3,0.8c-0.6,1.3-1.2,2.6-2,3l-0.2,0.1
		l0.2,0.1c0,0,0.3,0.2,1.8,0.9c1.2,0.6,2.1,0.9,2.1,0.9l0.2,0.1l-0.1-0.2c-0.2-0.6,0.7-2.7,1.2-3.7l1.5-3.1l4.6,1.9l-0.9,2.5
		c0,0.1-0.1,0.3-0.2,0.5c-0.4,1.2-1.2,3.6-2,3.8l-0.3,0.1l0.3,0.1c0.7,0.3,1.1,0.5,1.7,0.7l0.3,0.1c0.9,0.3,2,0.7,2,0.7l0.2,0.1
		l-0.1-0.2c-0.2-0.6,0.4-2.3,0.9-3.7c0.1-0.3,0.2-0.5,0.3-0.7l2-5.5c0.1-0.2,0.2-0.4,0.3-0.7C27,219.7,27.7,217.8,28.4,217.3z
		 M26.3,221c-0.1,0.2-0.2,0.5-0.3,0.7l-2,5.5c-0.1,0.2-0.2,0.5-0.3,0.7c-0.5,1.3-1,2.8-0.9,3.6c-0.3-0.1-1.1-0.4-1.8-0.6l-0.3-0.1
		c-0.6-0.2-0.9-0.3-1.5-0.6c0.8-0.5,1.5-2.6,1.9-3.8c0.1-0.2,0.1-0.4,0.2-0.5l0.9-2.7l-4.9-2l-0.1,0l-1.4,3l-0.1,0.3
		c-0.6,1.4-1.3,2.9-1.2,3.7c-0.3-0.1-1-0.4-1.9-0.8c-0.9-0.4-1.4-0.7-1.6-0.8c0.8-0.5,1.3-1.7,2-3c0.1-0.2,0.2-0.5,0.3-0.8l2.5-5.5
		L16,217c0.8-1.7,1.4-3.2,1.4-4.2c0.2,0.1,0.7,0.4,1.5,0.7c0.8,0.4,1.3,0.6,1.8,0.8c-0.6,0.5-1.4,2.2-2,3.5
		c-0.1,0.3-0.2,0.5-0.3,0.8l-0.8,1.7l4.8,2l0.1,0l0.8-1.9c0-0.1,0.1-0.3,0.2-0.5c0.4-1.1,1.2-3,1.1-3.9l1.8,0.7
		c0.6,0.2,1.3,0.5,1.7,0.6C27.4,217.9,26.8,219.7,26.3,221z"/>
	<path class="st1" d="M36,219.1c-3.9-1-7.3,1.4-8.5,6c-0.6,2.1-0.5,4.2,0.2,5.9c0.8,1.8,2.2,3,4.2,3.6c0.6,0.2,1.2,0.2,1.8,0.2
		c1.3,0,2.6-0.4,3.7-1.3c1.4-1.1,2.5-2.9,3.1-5C41.6,224,39.8,220.2,36,219.1z M40.2,228.5c-0.6,2.1-1.6,3.8-3,4.9
		c-1.5,1.2-3.3,1.5-5.3,1c-1.9-0.5-3.4-1.7-4.1-3.4c-0.7-1.6-0.8-3.7-0.2-5.8c0.9-3.2,3.2-6.1,6.6-6.1c0.5,0,1.1,0.1,1.7,0.2
		C40.3,220.5,41.2,224.8,40.2,228.5z"/>
	<path class="st1" d="M35.6,220.4c-1.3-0.3-2.3,0.1-3.2,1.4c-0.7,0.9-1.3,2.4-1.8,4.3c-0.5,2-0.7,3.5-0.6,4.6
		c0.2,1.5,0.9,2.5,2.1,2.8c0.3,0.1,0.5,0.1,0.8,0.1c0.9,0,1.8-0.5,2.5-1.5c0.7-1,1.3-2.4,1.8-4.3c0.5-2,0.7-3.5,0.6-4.6
		C37.6,221.6,36.9,220.7,35.6,220.4z M37,227.7c-0.5,1.9-1.1,3.3-1.8,4.2c-0.9,1.2-1.8,1.6-3,1.3c-1.2-0.3-1.8-1.2-2-2.6
		c-0.1-1.1,0.1-2.6,0.6-4.6c0.5-1.9,1.1-3.3,1.8-4.2c0.7-0.9,1.4-1.4,2.3-1.4c0.2,0,0.5,0,0.7,0.1c1.2,0.3,1.8,1.2,2,2.6
		C37.7,224.3,37.5,225.8,37,227.7z"/>
	<path class="st1" d="M52.4,221.8c0,0-4.2-0.4-5.5-0.6c-0.5-0.1-1-0.1-1.4-0.2c-1.4-0.2-2.6-0.3-3.2-0.4l-0.1,0l-1.2,2.7l0.3-0.2
		c1-0.6,1.6-0.8,4-0.5l-1.2,8.9c-0.1,1.2-0.3,2.4-0.6,3.6c-0.1,0.3-0.2,0.6-0.4,0.8l-0.1,0.1l0.3,0c0.5,0.1,1.3,0.2,2,0.3
		c0.7,0.1,1.5,0.2,2,0.2l0.2,0l-0.1-0.2c-0.4-0.7-0.1-3.2,0.1-4.2c0-0.1,0-0.3,0-0.3l1.2-9c2,0.2,2.9,0.3,3.8,1.3l0.2,0.2
		L52.4,221.8L52.4,221.8z M48.6,222.8L48.6,222.8l-1.3,9.1c0,0.1,0,0.2,0,0.3c-0.1,1.1-0.4,3.3-0.1,4.2c-0.5-0.1-1.2-0.1-1.9-0.2
		c-0.6-0.1-1.4-0.2-1.9-0.3c0.2-0.2,0.3-0.5,0.4-0.8c0.3-1.2,0.5-2.4,0.6-3.6l1.2-9l0-0.1l-0.1,0c-2.3-0.3-3.1-0.1-4,0.4l0.9-2
		c0.6,0.1,1.7,0.3,3.1,0.4c0.4,0.1,0.9,0.1,1.4,0.2c1.3,0.2,4.9,0.5,5.5,0.5l0.1,1.9C51.5,223,50.5,222.9,48.6,222.8z"/>
	<path class="st1" d="M60,228.5l-0.4-0.2c-1.9-1.1-3.3-1.8-3.3-3.2c0-0.1,0-0.2,0-0.4c0.1-0.5,0.3-0.9,0.7-1.2
		c0.4-0.3,0.9-0.4,1.4-0.4c1.4,0,2.4,0.7,3.6,2.2l0.1,0.2l0.6-2.6l-0.1,0c-1.3-0.7-2.8-1.1-4.3-1.1c0,0,0,0-0.1,0
		c-2.6,0-5.2,1.3-5.2,4.1c0,2.1,1,3.4,3.6,4.7c2.6,1.3,3.2,2,3.2,3.1c0,0.1,0,0.2,0,0.2c-0.1,0.7-0.4,1.2-0.9,1.7
		c-0.5,0.4-1.2,0.6-1.8,0.5c-1.6-0.2-3-1.3-3.6-2.8l-0.1-0.3l-0.6,3l0,0c1.2,1,2.8,1.6,4.4,1.6c0.1,0,0.1,0,0.2,0c0,0,0.1,0,0.1,0
		c1.8,0,3.3-0.5,4.3-1.5c0.8-0.8,1.3-1.9,1.3-3.2C63.1,231.6,62.7,230,60,228.5z M61.7,235.9c-1,1-2.4,1.5-4.1,1.5
		c-0.1,0-0.2,0-0.3,0c-1.5,0-3-0.5-4.2-1.5l0.5-2.2c0.7,1.4,2.1,2.4,3.7,2.6c0.7,0.1,1.4-0.1,2-0.6c0.6-0.4,0.9-1.1,1-1.8
		c0-0.1,0-0.2,0-0.3c0-1.2-0.7-2-3.3-3.3c-2.5-1.3-3.5-2.5-3.5-4.5c0-1.8,1.3-3.9,5-3.9c0,0,0,0,0.1,0c1.4,0,2.9,0.4,4.1,1l-0.5,2.1
		c-1.1-1.5-2.2-2.1-3.6-2.1c-0.5-0.1-1.1,0.1-1.5,0.4c-0.4,0.3-0.7,0.8-0.8,1.4c0,0.1,0,0.3,0,0.4c0,1.4,1.4,2.2,3.4,3.3l0.4,0.2
		c2.6,1.5,3,3,3,4.2C62.9,234.1,62.5,235.1,61.7,235.9z"/>
	<path class="st1" d="M75.4,224.5L75.4,224.5c-0.3-0.9-0.9-1.7-1.7-2.3c-1.4-0.9-3-1.2-4.6-0.9c-3.4,0.3-5.3,0.6-5.3,0.6l-0.2,0
		l0.1,0.1c0.6,0.6,0.8,2.9,0.9,4c0,0.2,0,0.3,0,0.4l0.7,7.4c0.1,1,0.1,2-0.2,3l0,0.1l0.1,0c0,0,0.9,0,2-0.1c1.4-0.1,2.2-0.2,2.2-0.2
		l0.2,0l-0.2-0.2c-0.6-0.5-0.8-3.1-0.9-4.1l-0.9-9.6l0,0c0-0.1,0-0.1,0.1-0.1c0.4-0.1,0.7-0.1,0.7-0.1c0.8-0.1,1.6,0.1,2.3,0.6
		c0.8,0.6,1.2,1.6,1.2,2.6c0.1,1-0.1,2.1-0.7,2.9c-0.5,0.6-1.2,0.9-1.9,1l-0.2,0c-0.1,0-0.1,0-0.2,0.1c-0.1,0.1-0.1,0.2-0.1,0.2
		l0,0.1c0.1,0.6,0.3,0.8,1,0.8c0,0,0,0,0.1,0c1.6,0,3.1-0.6,4.3-1.8c0.7-0.7,1.1-1.7,1.2-2.7c0-0.3,0-0.7,0-1
		C75.6,225.2,75.5,224.9,75.4,224.5z M74.3,229.1c-1.1,1.1-2.6,1.7-4.1,1.7c0,0,0,0-0.1,0c-0.7,0-0.8-0.1-0.8-0.6l0-0.1
		c0,0,0-0.1,0-0.1c0,0,0,0,0,0l0.2,0c0.8-0.1,1.5-0.4,2.1-1.1c0.6-0.9,0.9-2,0.7-3.1c0-1.1-0.5-2.1-1.3-2.7
		c-0.7-0.5-1.6-0.8-2.4-0.7c0,0-0.3,0-0.7,0.1c-0.2,0-0.3,0.2-0.3,0.3l0.9,9.6c0.1,1.5,0.4,3.3,0.9,4c-0.3,0-1,0.1-2,0.2
		c-0.8,0.1-1.5,0.1-1.8,0.1c0.2-1,0.3-1.9,0.1-2.9l-0.7-7.4c0-0.1,0-0.2,0-0.4c-0.1-1.1-0.3-3.2-0.8-4c0.5-0.1,2.3-0.3,5.1-0.6
		c1.5-0.2,3.1,0.1,4.5,0.9c0.8,0.5,1.3,1.3,1.6,2.1c0.1,0.3,0.2,0.7,0.2,1c0,0.3,0,0.7,0,1C75.3,227.5,74.9,228.4,74.3,229.1z"/>
	<path class="st1" d="M88.1,222.6c0-0.1-0.1-0.4-0.2-0.6c-0.3-1.1-0.9-3.2-0.6-4l0.1-0.2l-0.2,0.1c-0.4,0.1-0.9,0.3-2,0.6
		c-1.3,0.4-2,0.5-2,0.5l-0.2,0.1l0.2,0.1c0.5,0.3,1,2.2,1.4,3.7l1.8,6.7c0.3,0.9,0.3,1.8-0.1,2.6c-0.3,0.5-0.9,0.9-1.5,1
		c-0.6,0.1-1.2,0-1.7-0.3c-0.7-0.6-1.1-1.4-1.2-2.3l-1.5-6.2c-0.5-2.4-0.7-4-0.4-4.4l0.1-0.2l-0.2,0.1c0,0-0.7,0.2-2,0.4
		c-1.4,0.3-2.3,0.4-2.3,0.4l-0.2,0l0.2,0.1c0.7,0.6,1.2,2.8,1.5,4.1l1.2,5.2c0.4,1.8,1.3,3.1,2.6,3.9c0.8,0.5,1.9,0.8,2.9,0.8
		c0.5,0,0.9-0.1,1.4-0.2c0.2,0,0.4-0.1,0.6-0.1c2.9-0.9,4.6-3.9,3.7-6.8L88.1,222.6z M85.7,234.2c-0.2,0.1-0.4,0.1-0.5,0.1
		c-1.4,0.4-2.9,0.1-4.1-0.6c-1.2-0.8-2.1-2.1-2.5-3.8l-1.2-4.9l-0.1-0.2c-0.3-1.3-0.7-3.3-1.4-4.1c0.3-0.1,1.1-0.2,2.1-0.4
		c1-0.2,1.6-0.3,1.9-0.4c-0.3,0.9,0.2,3.1,0.5,4.4l1.5,6.2c0.1,1,0.6,1.8,1.3,2.5c0.5,0.4,1.2,0.5,1.8,0.3c0.7-0.1,1.3-0.5,1.6-1.1
		c0.4-0.9,0.4-1.9,0.1-2.8l-1.7-6.2l-0.1-0.4c-0.4-1.6-0.8-3.2-1.3-3.7c0.3-0.1,0.9-0.2,1.8-0.5c0.9-0.3,1.4-0.4,1.8-0.5
		c-0.2,0.9,0.3,2.8,0.6,3.9c0.1,0.3,0.1,0.5,0.2,0.6l1.3,5C90.1,230.4,88.5,233.4,85.7,234.2z"/>
	<path class="st1" d="M104.5,226.2L104.5,226.2c-2.1-0.9-4.1-2.1-5.8-3.6c0.5-0.4,1-0.9,1.3-1.5c0.5-0.8,0.7-1.8,0.5-2.7
		c0-0.3-0.1-0.6-0.2-0.9c-0.1-0.3-0.3-0.6-0.5-0.8c-0.5-0.7-1.2-1.2-2-1.5c-1.6-0.4-3.3-0.2-4.8,0.6c-1.5,0.7-3,1.2-4.5,1.7
		l-0.2,0.1l0.2,0.1c0.7,0.4,1.6,3.1,2,4.2l1.9,5.7c0,0.1,0.1,0.2,0.1,0.3c0.3,0.9,1,3.1,0.8,3.9l0,0.2l0.2,0c0,0,0.8-0.2,2-0.6
		c1.2-0.4,2-0.8,2-0.8l0.2-0.1l-0.2-0.1c-0.6-0.3-1.3-2.3-1.7-3.6c-0.1-0.2-0.1-0.3-0.2-0.5l-3-8.5c-0.1-0.3,0-0.4-0.1-0.4
		c0.2-0.2,0.5-0.3,0.7-0.4c0.6-0.3,1.3-0.3,2-0.1c0.9,0.4,1.5,1.1,1.9,1.9c0,0,0,0.1,0.1,0.1c0.7,1.6,0.1,3.5-1.5,4.2l-0.1,0.1l0,0
		l0,0c0,0-0.1,0.1-0.1,0.1c0,0.1,0,0.1,0,0.2l0,0c1.9,2,4,3.6,6.5,4.8c1.2,0.4,2.4,0,3.2-1c0.3-0.3,0.5-0.6,0.6-1l0-0.2l-0.2,0
		C105.1,226.4,104.8,226.4,104.5,226.2z M104.9,227.3c-0.7,0.9-1.9,1.3-3,1c-2.4-1.2-4.5-2.8-6.4-4.7l0.2-0.1
		c0.8-0.4,1.4-1.1,1.7-1.9c0.3-0.9,0.3-1.8-0.1-2.6c0,0,0-0.1-0.1-0.1c-0.3-0.9-1.1-1.7-2-2c-0.7-0.2-1.5-0.2-2.1,0.1
		c-0.3,0.1-0.5,0.2-0.8,0.4c0,0-0.2,0.2,0,0.6l3,8.5c0.1,0.1,0.1,0.3,0.2,0.5c0.5,1.3,1.1,3,1.7,3.6c-0.3,0.1-1,0.4-1.8,0.7
		c-0.9,0.3-1.5,0.5-1.8,0.6c0.1-1-0.5-2.9-0.9-3.8c0-0.1-0.1-0.2-0.1-0.3l-1.9-5.7c-0.6-1.8-1.3-3.6-1.9-4.2c1.5-0.5,3-1,4.4-1.7
		c1.5-0.7,3.1-0.9,4.7-0.6c0.8,0.2,1.5,0.7,1.9,1.4c0.2,0.3,0.3,0.5,0.4,0.8c0.1,0.3,0.2,0.5,0.2,0.8c0.2,0.9,0,1.8-0.5,2.6
		c-0.3,0.6-0.8,1.1-1.4,1.5l-0.1,0.1l0.1,0.1c1.8,1.5,3.8,2.8,6,3.7c0.3,0.1,0.6,0.2,0.9,0.1C105.2,226.8,105.1,227.1,104.9,227.3z"
		/>
</g>
</svg>
