<?xml version="1.0" encoding="utf-8"?>
<!-- Generator: Adobe Illustrator 24.0.1, SVG Export Plug-In . SVG Version: 6.00 Build 0)  -->
<svg version="1.1"
	 id="svg2" inkscape:version="0.48.4 r9939" sodipodi:docname="New document 1" xmlns:cc="http://creativecommons.org/ns#" xmlns:dc="http://purl.org/dc/elements/1.1/" xmlns:inkscape="http://www.inkscape.org/namespaces/inkscape" xmlns:rdf="http://www.w3.org/1999/02/22-rdf-syntax-ns#" xmlns:sodipodi="http://sodipodi.sourceforge.net/DTD/sodipodi-0.dtd" xmlns:svg="http://www.w3.org/2000/svg"
	 xmlns="http://www.w3.org/2000/svg" xmlns:xlink="http://www.w3.org/1999/xlink" x="0px" y="0px" viewBox="0 0 300 302"
	 style="enable-background:new 0 0 300 302;" xml:space="preserve">
<style type="text/css">
	.st0{fill:none;}
	.st1{fill:#FFFFFF;}
	.st2{fill:none;stroke:#FFFFFF;stroke-width:0;stroke-linecap:round;stroke-linejoin:round;}
</style>
<sodipodi:namedview  bordercolor="#666666" borderopacity="1.0" id="base" inkscape:current-layer="layer1" inkscape:cx="121.51811" inkscape:cy="104.61623" inkscape:document-units="px" inkscape:pageopacity="0.0" inkscape:pageshadow="2" inkscape:window-height="594" inkscape:window-maximized="0" inkscape:window-width="700" inkscape:window-x="1016" inkscape:window-y="126" inkscape:zoom="0.98994949" pagecolor="#ffffff" showgrid="false">
	</sodipodi:namedview>
<g>
	<path class="st0" d="M77.3,185.3c0,0-3.7,3.6-5,4.7c-1.4,1.2-6.7,7.7-6.3,10.2c0.6,4.8,7.7,4.8,7.7,4.8c10.8-1.1,10.9-8.3,11-9.7h0
		c0.1-1.4-0.4-4.2-0.4-4.2C82.7,188.8,77.3,185.3,77.3,185.3z"/>
	<path class="st0" d="M166,128.2c1.7,1,7.5,2.2,11.3,2.2c3.8,0,6.9-1.3,6.9-1.3c-0.9-1.3-1-3.3-1-3.3c1-6.1,3.8-6.5,7-6.9
		c3.2-0.4,5,2.4,5,2.4c-0.4-3.2-1-5.3-3.2-5.4c-2.2-0.1-5.4,2.5-6.7,4.1c-1.3,1.6-2.5,0.5-3,1.9c-0.5,1.4,0.3,5,0.3,5l-0.5,0.7
		l-7.9,1c-0.2-0.6-1.9-1.3-2.7-1c-0.8,0.2-2.4,0-2.6-0.5s-0.5-0.9-1.8-0.9c-1.3,0-0.1-1.7-0.1-1.7l4.9-4.8l-1.5-0.8
		c0,0-1.9,0.8-3.4,1.1c-1.6,0.3-2.6-0.2-2.6-0.2l0,0c0.6,2.6-0.5,4.6-0.6,5.1C163.5,125.4,164.3,127.2,166,128.2z"/>
	<polygon class="st0" points="225.8,184.9 225.8,184.9 225.8,184.9 	"/>
	<path class="st0" d="M95.9,186.4c0,0,0.2-0.2,0.8-0.6c0.6-0.5-0.4-1.4-1.1-2.3c-0.8-1-0.4-1.3-0.2-1.5c0.2-0.2,3.3-1.5,3.5-1.9
		c0.3-0.4,4.1-14.2,4.1-14.2c-1.4-2.2-1.6-6.7-1.6-6.7c-0.5-0.8-2.6-2.1-3.2-2.1c-0.9,0-1.8,1.8-2.8,3.4s-8.6,12.6-9.8,13.9
		c-1.1,1.3-1.3,2.2-1.3,2.2s2.6,1.9,5,5.1c5.6,7.6,6.6,14.4,6.6,14.4s0.3-2.5,0.3-3.2c0-0.7,0.3-1,0.5-1.6c0.2-0.6,0.1-1.3-0.3-1.8
		c-0.4-0.5-1.2-1.6-1.6-2.4C94.5,186.5,95.9,186.4,95.9,186.4z"/>
	<path class="st0" d="M236.8,199.8h-2.2H236.8C236.8,199.8,236.8,199.8,236.8,199.8l-2.2,0v-0.2h2.3l0,0c0-0.8-1.6-3.8-2.5-5.4
		c-0.9-1.7-8.6-9.2-8.6-9.2c-3.3,2-7.3,3.7-7.5,9.4c-0.2,5.7,5.1,10.7,11.3,10.3C235,204.4,236.5,200.7,236.8,199.8z"/>
	<path class="st0" d="M138.2,68.2c0.9,0.1,1.5-0.2,1.5-0.2v-0.8c-1.2,0.4-6.4,0.3-6.4,0.3c-0.9,9.6,0,42.4,0,42.4
		c0.7,0.4,1.3,0.1,1.9-0.1c0.5-0.2,1.4-0.2,2-0.4c0.6-0.2,1-3.6,1.1-5c0.1-1.3,1.2-1.2,1.2-1.2l1-6.5l1.2-0.9l0,0
		c0,0,0.8-12.7,0.8-13.6s-0.3-1.1-0.8-1.1c-0.4,0-0.7-1-0.7-1v-1.3c-1.3,0.1-2.8-1.5-3.5-2.6c-0.8-1.1-2.8-1.2-2.8-1.2v-6.4
		C135.5,68,137.3,68.1,138.2,68.2z"/>
	<path class="st0" d="M133.5,52.3L133.5,52.3l-0.3,6.5c0.3,0.7-0.1,1.4,0.9,1.8c1.5,0.2,2.7-0.6,3.6-1.9c0.4-0.4,1.2-0.5,1.3-1.1
		c-0.8-0.6-1.9-0.1-2.7,0.1c-1.3-0.7,0-2-0.6-3c-0.9-0.1-1.5-0.5-2.2-1.1c-0.1-0.4,0.1-0.7,0.4-1C133.8,52.5,133.7,52.3,133.5,52.3z
		"/>
	<path class="st0" d="M218.4,176.2c-2.8-4.5-7.9-11-8.9-12.5c-1.1-1.5-4.4-7.1-4.4-7.1s-0.1-0.2-1.9,0.6c-1.8,0.8-2.1,3-2.2,4.9h0
		c-0.1,1.9-1.3,3-1.3,3s2.6,9.6,3.4,12.7c0.8,3.1,2.7,3.1,3.1,3.2c0.3,0.1,1.6,0.3,1.6,1.3c0,1-1.7,1.2-1.7,2.4s2.1,1.7,2.1,1.7
		l-0.1,0.8c-2.2,1.2-2,3.6-1.6,5.1c0.4,1.5,0.6,4.5,0.6,4.5C207.5,185.7,218.4,176.2,218.4,176.2z"/>
	<path class="st1" d="M234.6,199.8h2.2c0-0.1,0.1-0.2,0.1-0.2h-2.3V199.8z"/>
	<polygon class="st1" points="236.8,199.8 236.8,199.8 234.6,199.8 	"/>
	<path class="st1" d="M148.6,15.1L148.6,15.1c2.2,0.6,4.6,0.9,6.7,1.1l0.1,0l-0.1-3.1l0,0l0,0c-1.3-1.1-3.2-1.4-5.1-1.7
		c-0.4-0.1-0.9-0.1-1.3-0.2l0,0l0,0C147.9,12.4,148.3,14.1,148.6,15.1L148.6,15.1z"/>
	<path class="st1" d="M133.4,13.4L133.4,13.4L133.4,13.4c0.1,0.5,0,0.9-0.1,1.3c-0.1,0.7-0.2,1.4,0.2,1.9l0,0l0,0
		c1.1-0.1,2.1-0.4,3-0.7c1.1-0.3,2.3-0.7,3.6-0.7c0.3,0,0.6-0.2,0.8-0.4c0.4-0.5,0.3-1.4,0.1-2.2c-0.1-0.4-0.1-0.7-0.1-0.9v0l0,0
		c-1.2-0.5-2.5-0.2-3.7,0.2c-0.4,0.1-0.8,0.2-1.2,0.3l0,0l0,0c-0.3,0.3-0.8,0.4-1.3,0.6C134.3,12.9,133.8,13,133.4,13.4z"/>
	<path class="st1" d="M155.3,23.6L155.3,23.6c-1.1-0.7-2.4-1.5-3.9-1.7c-0.9-0.2-2.1-0.2-3.1,0l-0.1,0l0,0.1c0.1,0.9,0,1.8-0.1,2.6
		c-0.1,1.1-0.2,2,0.2,3l0,0l0,0c1.7,0.4,3.2,0.6,4.7,0.8c0.7,0.1,1.5,0.2,2.2,0.3l0.1,0L155.3,23.6L155.3,23.6z"/>
	<path class="st1" d="M140.9,21.9L140.9,21.9c-2.8,0.3-5.3,0.5-7.6,2.4l0,0v5.2l0.1,0c1.6-0.6,3.4-1,5-1.3c0.9-0.2,1.7-0.4,2.6-0.6
		l0.1,0l0-0.1c-0.1-0.8,0-1.6,0.1-2.3C141.2,24.1,141.3,23.1,140.9,21.9L140.9,21.9z"/>
	<path class="st1" d="M133.5,21.7c2.5-1,5.4-1.4,8.1-1.8c2.2,1.3,0.7,4.1,0.9,5.8c-0.7,3,2.4,1.1,3.9,1.7l0.3-2.6
		c0.2-1.4-0.4-3.7,0.7-5c2.8,0.1,5.3,0.9,7.9,1.5l0.1-2.3c-2-1.6-4.6-1.4-7-2.1c-2.4-0.4-1.1-3.4-1.7-5.1h0l-0.3-0.7
		c-1.2,0.1-2.7-0.4-3.7,0.4v5l-0.4,0.4c-3.2,0.1-6,0.9-8.7,2.1V21.7z"/>
	<path class="st1" d="M157,28.9c9.3,1.1,18.1,3.5,28,1.9c7.8-1.4,15.8-2.9,21.3-9.8v-0.3l-3,0.5l0,0c-16,3.3-32-1.2-46-7.7l-0.4,0.6
		c-0.3,4.5-0.1,7.6-0.1,11.4C156.8,26.8,156.4,27.8,157,28.9z"/>
	<path class="st1" d="M103.7,182.1C103.7,182.1,103.7,182.1,103.7,182.1C103.7,182.1,103.7,182.1,103.7,182.1z"/>
	<path class="st1" d="M62.4,85.1c-2,7.8-2.2,15.7,4.2,21.6c1.6,3.3,6,0.3,7.3,3.6c-0.4,0.6-1.2,0.3-1.8,0.6c2.7-0.2,5.5,1.8,6.8,4.3
		c-0.5,1.6,1.2,2.3,2.1,3.4c-0.1,0.9,1.4,2.4-0.1,2.9c0.9,1.3,1.4,2.9,1.2,4.5c-1.4,2.8-1.5-1.2-3.2-1.5c-1.2-0.7-2.7-1-3.9-0.6
		c1.4,0.1,2.7,0.9,3.9,1.7c1.8,1.9,2.2,5.1,1.4,7.3c-2,3.3-6,4.4-9.8,3.6c0.1,2.1-0.6,3.9-0.6,6c0.9,2.7,3.7,4.3,6,5.2
		c2.1,0.9,4.7,0.6,6.6,1.9c0.1,0.2-0.2,0.3-0.3,0.4c-4.8-0.4-9.5-1.6-12.6-5.2c-0.6,1.6-1.4,2.9-1.1,4.7c0.1,2.5,2.7,3.8,4.5,5.1
		c0.7,0.7,1.9,0.7,2.7,1.3c3.1,1,6.5,1.9,9.7,1.9c3.5,0.7,7.5,0.4,10.4-1.8c-1.4-0.7-3-0.8-4.3-1.6c-3.3-0.9-5.5-3.1-7.2-6
		c-1.1-3.2-5.1-1-6.2-4.2c-0.1-0.3-0.3-0.9,0.2-1.2c2,1.1,4.2,2.4,6.7,1.8c2.2,0.8,3.3,3.2,4,5.2c0.9,0.1,1.4,1.2,2.1,1.5l0.6-0.7
		c1.5,1.2,3.3,2.2,5.1,2.4c3.4,1.9,8.8,3.7,8,8.9c2.7,4,0.7,8.8-0.6,12.7c0.5,0.9,0.6,2.1,1,3.1c0.1,0.9-0.8,1-1.5,0.9
		c-1.1,2.1-3.3,3.4-4.9,5.1c0.6,0,1-0.6,1.7-0.6c1-0.3,1.6-1.7,2.7-1.9c0.3,0.1,0.5,0.7,0.5,0.8c0.4-0.5,1-0.5,1.6-0.5
		c1.4,1.7-0.6,3.2-0.4,5c0.5-1.4,0.8-2.9,1.5-4.2c0.2-0.4,0.4,0.1,0.7,0.1c0.4,3.5-0.4,7.4-1.8,10.6c4.1-2.4,2.4-8.8,2.4-12.6
		c0.6-2.3,1.3-4.8,1.2-7.2c-2-5.5,2.1-10.8-0.6-16c-3.2-4.8-8.3-9.3-12.3-13.3c-0.7-0.9-1.6-1.6-1.6-2.9c0.4-2.3,0.5-4.7,0.4-7.3
		c-0.1-0.7-0.9-1.6-0.4-2.4c2.7,1.8,1.9,6.4,1.8,9.1c0.4,0.8,0.3,2.1,1.5,2.1c1.9-1.2,1.1-4,1.4-6.1c0.1-1.2-0.9-1.9,0.3-2.9
		c1.1,0.4,1,1.9,1.2,2.9c0.6,2.4-0.4,5.7,0,8.2c0.7-2.4,1-5,0.9-7.8c-0.6-3.7-0.9-7.9-3.7-10.9c-1.9-10.1-10.6-19.2-20.1-23.1
		c-0.9-1.2-1.8,0.4-2.8,0.3c-0.2-0.2-0.5-0.4-0.5-0.6c0.2-0.1,0.4-0.5,0.6-0.5v-0.4c-1.3-0.3-2.4,0.6-3.7,0.4
		c-1.4-1.1,1-0.7,1.3-1.7c-1.5,0.4-3,0-4.3-0.7c0.1-1.1,1.7,0.1,2.4-0.7l-0.1-0.5c-3.3-1.9-4.8-5.4-4.9-8.8h0.3
		c0.9,1.6,1.1,3.5,2.5,4.9c0.8,0.6,1.9,0.8,2.9,0.5c0.7,2,2.4,0,3.2,1.4c2.9,0.9,3.2-2.6,4.7-4.2c2.3-0.3-0.1,1.9,0.9,3
		c0.7,0.6,1.6,0.7,2.6,0.9c0.8,0.6,1.5,1.8,1.2,2.6c0.1,0.9,0.6,2.2,1.7,2.4c-0.1-0.5-0.1-1.1-0.6-1.5c-0.5-1.2,0.1-2.5,1.2-3.2
		c2.1-0.9,3.4,1.5,4.7,2.4c1.5,0.6,2.7-0.6,3.6-1.2c-0.2-6.6-7.2-9.9-11.1-14.8l0,0c-0.2-1.5-1.9-2.4-2.5-3.7
		c-2.4-1.4-4.8-4.2-7.8-2.9c-1.2,2.2-3.6,1.7-5.2,2.2C65.6,80.3,63.5,82.6,62.4,85.1z M89.6,93.1c0.4-0.4,0.9-0.8,1.4-0.9
		c0.3,0.1,0.1,0.5,0.1,0.7c-0.1,0.2-0.4,0.3-0.3,0.5c0.6-0.1,1.5,0.1,2.1,0.4c0.8,0.8,0.2,1.7,0.2,2.7c-0.4,0.5-1.2,0.4-1.7,0.1
		c-0.7-0.4-0.6-1.2-1.2-1.6c-0.3,0.3-0.1,1.2-0.7,1c-0.6-1-1.3-2-1.7-3.2C88.3,93.1,89,93.6,89.6,93.1z M73.4,81.9
		c0.4-0.6,1.2-0.6,1.9-0.6c0.8,0.3,1.4,1.4,2.4,0.7c0.8-0.8,1.9-0.8,2.9-0.3c1.1,0.9,1.9,2.4,2.5,3.6c-1.6-0.1-3.8,0.9-5.2-0.3
		c-1.3-1.3-2.9-1.7-4.5-2.4C73.3,82.5,73.1,82.1,73.4,81.9z"/>
	<path class="st1" d="M103.4,135.1c1.7-4.9,1.4-10.1,2.5-15.3l-0.7-1.9c-1.2-2.5,1.9-1.9,2.9-3.3c2.6-1.8,5.6,0,7.9,1.4
		c1.9,0.9,2.2,3.7,4.3,3.3c1.9,1.9,2.4,4.5,2.2,7.1c0.6,0.1,1.3,0.6,1.7,0c-0.3-1-0.5-2.2-0.7-3.2c-0.4-1-1.2-2.2-0.4-3.3
		c2.2,1.4,1.6,4.7,2.7,6.8l0.3-0.4l-1.8-5.8c0.1-0.4,0.6-0.4,0.9-0.4c1.8,1.6,2.7,3.6,3.6,5.5c0.1,1.4,1.3,0.3,1.8,0.1l-0.9-1.5
		c-0.5-1.3-2.7-2.1-2.4-3.6c1.9,1.2,4,2.9,5.2,5c0.7,0,1.1-0.7,1.8-0.9c-1.5-1.6-3.6-3.2-5.5-4.3c-3.2-1.1-4.2-4.2-7.2-6v0
		c-4.9-1.2-8.7-4.9-13.9-5.3c-1.7,0.4-3.6,1.9-3.9,3.7c-1,3.5-1.7,7-2.8,10.4c-1.1,2.2,0.8,4.2,1,6.4
		C102.6,131.3,102.9,133.3,103.4,135.1z"/>
	<path class="st1" d="M171.5,122c-1,1-2.3,1.8-3,3.1c0.6,0.1,1,0.6,1.5,0.8c1.2-2.1,3.3-3.7,5.2-5.2c0.8,1.2-1.3,2-1.6,2.9
		c-0.4,0.7-0.9,1.5-1.3,2.2c0.4,0.3,1,0.6,1.4,0.4c0.9-2.2,2.1-4.4,3.8-6.2c0.4,0,0.7-0.1,0.9,0.3c-0.2,2.2-1.5,4.3-1.5,6.4
		c0.1-0.1,0.1-0.2,0.3-0.2c0.8-2.2,0.5-5,2.4-6.7l0.5,0.4c-0.2,2.3-1.6,4.1-1.4,6.5c0.6,0.1,1.2-0.1,1.6-0.5c-0.4-2.4,0.1-5,2-6.9
		c0.3,0,0.8-0.2,1,0.1c1.8-2.5,4-4.5,6.8-5.5c2.2-0.7,4.2,0.3,5.9,1.4c0.5-0.1,0.9,0.1,1.2,0.4c0.7,1.1,0,2.4-0.5,3.5
		c0.9,5.1,1.3,10.8,2.9,15.8c0.6-3.1,0.9-6.3,2.4-9.2c0.9-1.7-0.5-3.4-0.7-5.2c-1.7-3.2-1.6-7.3-3.8-10.2c0,0.1-0.1,0.2-0.1,0.3
		c-0.2-0.1-0.1-0.3-0.1-0.4l0,0l-0.1-0.4c-5.7-3.3-10.2,3.5-15.7,4.3c-0.8,0.7-1.9,1.5-2.8,2.1c-1.3,2-3.1,3.5-5.2,4.4
		C172.7,121,172.4,121.9,171.5,122z"/>
	<path class="st1" d="M113.6,137c7.4,3.7,16.5,3.3,24.4,0.8c4.5-1.8,10-5.1,11.6-10.1c0.5-1.3,0.9-2.6,0.8-4.2
		c-0.1-1.3-0.6-2.3-0.9-3.5v0c-0.7-1.5-2.4-2.3-3.7-3c-1.7-0.3-3.5-0.1-4.5,1.4c-0.5,1.1-1,1.9-0.8,3c-0.4,1.5,1.9,2.7,0.9,4.3
		c-3.5,5.4-10.1,6.3-16,6.8c-2-0.3-4.2-0.1-6-0.8c-0.8-0.1-1.5-0.3-2.2-0.4c-3.7-1.1,0.6-3.6,0-5.5c-0.4-1.1-0.5-2.3-1.5-3.2
		c-1.1-0.4-2.1-1.6-3.6-1.2c-1.4,0.1-2.7,1.2-3.3,2.4c-0.3,1.5-1.5,2.6-1.1,4.3C107.3,132.3,110.7,134.9,113.6,137z"/>
	<path class="st1" d="M183.5,138.9c0.8-0.3,1.7-0.7,2.3-0.7c3.8-1.2,7.7-3.8,8.9-7.8c0.6-3.2,0-6.9-2.8-8.9
		c-1.9-0.7-3.9-0.1-5.2,1.2c-1.4,1.5-0.9,2.8-0.9,4.7c0.5,1.1,1.4,1.6,1,3c-6.7,3.4-16.3,2.1-22.6-1.4c-1.4-1.4-3.6-2.7-3.2-5
		c1.2-1.2,1.1-3.1,1.1-4.6c-0.4-1.1-1.6-1.7-2.4-2.3c-2-0.5-4.1,0.2-5.5,1.7c-2.1,2.7-2.5,7.4-0.8,10.4
		C159.9,138.6,172.2,141,183.5,138.9z"/>
	<path class="st1" d="M148.2,112c-1.2,0-2.7-0.8-3.7,0.1c1.9,2.7,4.8,5.8,8.6,4.9v-0.6l0,0C152,114.6,150.2,112.8,148.2,112z"/>
	<path class="st1" d="M159.1,114.6L159.1,114.6c-0.6-0.9-1.3-1.9-2.4-2.4c-1.3-0.7-2.9,0-3.9,0.6l2.4,2.9
		C156.6,115.5,157.9,114.7,159.1,114.6z"/>
	<path class="st1" d="M143.4,114.7L143.4,114.7c-1.5-2.2-4-3.2-6.8-2.7l-0.1,0.4l3.4,3.6C141.3,115.9,141.9,114.7,143.4,114.7z"/>
	<path class="st1" d="M172.4,117.2c1,0.6,1.8-0.3,2.6-0.9c0.4-0.6,0.4-1.9,0-2.5l0,0c-0.4-0.9-1.4-1.2-2.1-1.7
		c-1.5,0-2.8-0.1-4.2,0.6C169.9,114.4,170.4,116.2,172.4,117.2z"/>
	<path class="st1" d="M163.9,116.9c1.4,0.6,3.2,0.8,4.6-0.1c0.3-0.9-1-1.2-1-1.9c-0.8-1.1-1.9-1.9-3-2.4c-1.7,0.1-2.5-0.8-4,0.1
		C161.2,114.2,162.2,116.1,163.9,116.9z"/>
	<line class="st2" x1="137.1" y1="116.1" x2="137.1" y2="116.1"/>
	<path class="st1" d="M129.5,112.8c-0.4,0.7-0.6,1.5-0.3,2.2c1.7,2.5,5.2,2.2,7.9,1.5v-0.4C135.2,113.6,132.6,111.3,129.5,112.8z"/>
	<path class="st1" d="M152.7,70.4c-1.4-0.1-2.9-0.3-4.2,0.1v1.2c-0.7,2.4-3.7,1-5.5,1.2c-0.9-0.6-0.1-1.8-0.6-2.6l0,0
		c-1.7,0-6.3-1.6-5.5,1.9c0.3,0.6,1.1,0.1,1.5,0.4c0.8,0.5,0.6,1.3,0.9,2c0.7,1.3,2.4,1.1,3.6,1.4c1.4,0.4,0.8,2,1.4,2.7
		c4.2,0.4,9.1,0.6,13.4,0.1c0.6-0.4,0.2-1.1,0.4-1.7c-0.1-1.6,1.7-0.6,2.5-1.4c0.9-0.5,1.8-1.6,1.8-2.8c0.3-1.1,1.4-0.8,2.2-1.1
		c0.4-0.6,0.1-1.4-0.3-1.9c-1.8,0.3-3.8-0.6-5.5,0.1v1.4c-0.6,2-3.3,0.6-4.8,1.2C152.5,72.9,153.3,71.2,152.7,70.4z"/>
	<path class="st1" d="M157.1,81.8c-4-0.2-8.5-0.2-12.2,0c-0.1,0.9-0.7,2,0,2.9l11.5,0.1c1.9,0.4,0.7-1.8,1-2.7L157.1,81.8z"/>
	<path class="st1" d="M144.3,97.2c4.8,0.1,9.9,0.3,13.7,0.1l-0.4-10.5l0,0l-0.4-0.7L145.2,86l-0.5,0.3
		C143.9,89.5,144.4,93.8,144.3,97.2z"/>
	<path class="st1" d="M142.6,103.2l16.3,0.1l0.6-0.3c-0.4-1.3,0.1-3-0.6-4.2v0c-5.5,0.1-10.4-0.5-16,0.1
		C142.6,100.3,142.3,101.8,142.6,103.2z"/>
	<path class="st1" d="M141,105.6c-0.3,0.8-0.6,1.9-0.3,2.6c6.7,0.6,13.9,0.1,20.5,0.4c0.4-0.7,0.4-2.1,0-2.9
		C154.8,105.4,147.9,105.4,141,105.6z"/>
	<path class="st1" d="M133.3,49.6l0.3-0.4c1,0.6,3.2-0.6,3.3,1c-0.4,0.9-2.2,0.8-2.4,0.8c0.9,0.9,2.4-1.2,3.2,0.3
		c-0.4,0.7-1.2,1.3-1.9,1.5c-0.3,0.6,1,0.6,1.3,1.1c-1.1,3.6,3.2,0.4,3.7,3.3c2.2-0.1-0.5-1.9,0.6-3.2l0,0c1.4-5.4-5.6-8-7-12.4
		c-0.1,0.6-1,1.1-0.4,1.8C134.2,45.5,132.8,47.3,133.3,49.6z"/>
	<path class="st1" d="M160.3,62.8c0.4-2.3,3-3.4,5-3.9c1.3-0.3,3.1,0.3,4.2,1.6c0.2,1.2,1.4,2.3,0.7,3.7c-0.4,1.1-1.6,1.2-2.4,1.6
		h2.1c1.2-0.7,1.9-2,1.6-3.4c0.2-1.6-2.5-2.4-1.6-3.9c0.9-0.1,1.4,0.7,2.1,1.4c0.9,0.8,2.4,1,3.5,0.6c3.2-1.3,0.7-5.4,2.5-7.5
		c-0.4,0-0.9-0.1-1.3,0.1c-0.6,1.3-0.9,2.6-2.1,3.6c-0.9,0.5-1.9,0.7-2.9,0.6c-1.2,0.1-2.2,1.6-3.5,0.6c0.4-1.7,2.7-1.4,3.9-2.5
		c0.6-0.6,0.9-1.4,0.8-2.1l0,0c-0.4-0.3-0.4-0.9-0.9-0.9c-1.1,3.8-5.5,2.4-7.9,4.7c-0.4,2.1-2.8,1.6-3.7,3.3
		c-1.5,2.2-1.7,5.5-0.4,7.6C160,66.7,160,64.4,160.3,62.8z"/>
	<path class="st1" d="M132.8,61.4c-0.4,1.2-2.1,0.7-2.5,2.1c0.9,0,1.3-1.2,2.2-1c1.7,1.1-1.4,1.6-0.9,2.4c0.9-0.4,1.6-1.9,2.7-1.4
		l0.1,1.4l1.5-1.2c0.9,0.1,0.9,1.4,0.6,1.6c0.6-0.2,1-1.2,1.8-1.2c1.5,1.9,0.9-1.2,2.1-1.4c0.7,0.4,0.5,1.2,0.7,1.7
		c0.9-0.6,0.9-1.7,1.6-2.4c0.3-0.1,0.4,0.1,0.6,0.3c0.2,0.7-0.1,1.4-0.5,2.1c1.2-0.4,0.9-1.7,1.8-2.2c0.4,0,0.6,0.7,1.1,0.4
		c1.5-0.8,2.9-2.2,4.3-3.2l-3.2,0.7c-0.9,0.4-1.4,1.7-2.4,1.6c-0.9-0.9-0.2-2.4,0-3.4h0c-2.5,0.1-5.3,0.6-7.2,2.8
		C136,61.9,134.1,62.2,132.8,61.4z"/>
	<path class="st1" d="M144.1,65.8c-0.9,0.5-2.1,0.8-1.9,2.1c0.3,0.4,0.9,0.4,1.2,0.3c1.7,0.4,0.4,2.1,1,3l1.8,0.1
		c0.6-0.9,0.1-1.7,0.4-2.7c1.4-0.6,4.1-0.1,6-0.4v-1.1c-0.7-1.6-0.6-4.1-0.1-5.7c-0.4-0.6,0.8-1.9-0.6-1.8c-0.6,1.2-1.7,2.1-2.8,2.3
		C147.6,63.5,145.5,64.1,144.1,65.8z"/>
	<path class="st1" d="M157,39.3c0.7-0.1,0.4,0.8,0.9,1.1c0.9-0.9,1.6,0.4,2.4,0.6c0.4,0.5-0.2,0.9-0.3,1.2c0.3,0.6,0.5,0.1,1.2,0.3
		c0.9,0.4,0.1,1.1,0.1,1.7h0.4c0.9-0.2,0.6-1.2,0.7-1.9c-0.1-0.7-0.9-0.6-1.4-0.4c-1.6-1.8,2.4-1.5,1.5-3c-2.5,0.9-1.7-2.4-3.2-3.3
		c-0.7-0.3-0.6,0.5-1.2,0.8l0,0c-1.1-0.1-1.6-1.3-2.7-1.5c-0.5,2-0.4,3.5-0.1,5.4C155.8,39.6,156.4,39.1,157,39.3z"/>
	<path class="st1" d="M132.2,37.3l-0.4,1.1c-0.9,1.1-1.3,2.7-1.7,4.2c0.5,1.2,1,2.4,2.1,3.2c0.7-1.1,0.4-2.1,0.3-3.3
		c1.5-0.9-0.6-2.8,1.1-3.4C133.1,38.5,132.9,37.6,132.2,37.3z"/>
	<path class="st1" d="M149.8,47.7c-0.7-1.4,0.5-2.5,0.8-3.7c0.7-0.8,0.1-2.4,1.2-3.3c1.5,0.1,0.1,2,1.2,2.5c0.5,0.2,1,0,1.5-0.3
		c-0.2,0-0.4,0-0.6,0c-0.6-0.1-1.2-0.8-1.2-1.5c0-0.4,0.6-0.3,0.4-0.7h-0.4c-0.5-0.2-0.5-0.8-0.5-1l0,0c0.6-1.2-0.4-0.9-1-1.4
		c-1.2,0.9,0.3,2.4-0.6,3.3c-0.7-0.1-1.3-0.6-1.7-1.2l-0.3,0.3c-0.4,0.9-0.6,1.8,0.1,2.5c0.1,0.4,0.4,1.4-0.4,1.5
		c-0.9-0.6-1.9,0.4-2.8,0.6c-0.4,0.6-1.1,1.2-0.9,1.9l1.5-0.5c0.9-0.3,1.7-1.8,2.7-1c-0.8,3.2-5.2,1.9-5.7,4.9
		c1.1-0.6,2.4-0.6,3.7-0.9C148.2,49.3,149.4,49.1,149.8,47.7z"/>
	<path class="st1" d="M154.5,42.9c0.2,0,0.4-0.1,0.6-0.3C154.9,42.7,154.7,42.8,154.5,42.9z"/>
	<path class="st1" d="M146.1,58.6c1.6-1.5,4.2-1.1,5.3-3.4c-0.4,0.1-0.8-0.1-1.1-0.4c0-1.8,1-3,2.2-4.5c-1.7-2.7-3,1.3-4.8,1.1
		c0.6,2.8-3.5,4.2-2.7,6.1c1.1-1.6,2.7-3,3.9-4.5c0.3-0.1,0.5,0,0.7,0.3C149.4,55.6,146.1,56.5,146.1,58.6z"/>
	<path class="st1" d="M145.9,51.6c-1.2,0.1-2.6,0.4-3,1.7c-0.4,1.2-0.5,2,0.2,2.9C143.6,54.5,146.4,53.7,145.9,51.6z"/>
	<polygon class="st1" points="145.9,51.6 145.9,51.6 145.9,51.6 	"/>
	<path class="st1" d="M155.1,46.5c-0.2-0.2-0.6-0.1-0.9-0.1c-0.1,0.3-0.5,0.5-0.4,0.9h0.6C154.6,47,155,46.8,155.1,46.5z"/>
	<path class="st1" d="M160.6,48c-0.6-0.2-1.1-0.9-1.1-1.5c-0.4-0.1-0.4,0.4-0.4,0.6c0.2,0.6,0.3,1.4,1.1,1.4
		C160.3,48.4,160.8,48.4,160.6,48L160.6,48z"/>
	<path class="st1" d="M158.4,49.1l-0.8-1.5c-0.9,0.2-1.2,1.4-1.9,1.8c-0.6,1.2,0.9,1.5,1.5,2.2c0.1-0.9-0.8-1.9,0.1-2.5
		c1.4,0.4,0.9,2.4,1.7,3.2c0.6-0.4,0.2-0.9,0.3-1.3c0.1-0.1,0.2,0.1,0.3,0.1C159.6,50.2,159,49.6,158.4,49.1z"/>
	<path class="st1" d="M154.6,51.7c0.9,0.6,0.6,1.6,1.4,2.2C156.1,53,155.3,52.1,154.6,51.7z"/>
	<path class="st1" d="M154.2,57.1l0.4-0.9c0.4-1-0.2-2-0.6-2.9C151.7,54.4,154.6,55.6,154.2,57.1z"/>
	<path class="st1" d="M152.7,45.8L152.7,45.8l-0.7-0.5c0,0-0.2,0.6,0.2,1C152.6,46.7,152.7,45.8,152.7,45.8z"/>
	<polygon class="st1" points="156.6,45.2 156.6,45.2 156.6,45.2 	"/>
	<path class="st1" d="M157.1,44.6c0,0-0.3-0.5-0.3-1.6c-0.2,1.1-0.5,1.8-0.5,1.8l0.3,0.4c0,0,0.9-0.6,1.5-0.7
		C157.9,44.6,157.1,44.6,157.1,44.6z"/>
	<path class="st1" d="M202.2,144.6v-7.9c0.4-1-0.4-2.8,1.2-3.2c0.4,0.4,0.5,0.9,0.4,1.4c-0.6,2,0,4,0,6.2c0.3,1,0.7,1.6,1.8,1.1
		c1.4-2.4,0.5-5.1,0.8-7.9c0.4-1.1,0.6-2.5,1.8-3c0.7,0.4-0.1,1-0.1,1.5c-0.8,3.1,0.2,6.6-0.1,9.6l-6.9,6.9l-0.6,1.2l-0.2-0.1
		c-2,1.8-3.7,3.9-5.3,6c-0.9,1.7-0.9,3.9-1.2,5.8c1,4.5,0.5,9.6,0.4,14c1.7,3.7,0.4,7.7,0.8,11.9c0.5,1.8,0.6,4.5,3,4.9
		c-1.6-3-2.1-6.6-2.2-10.3c0.1-0.3,0.4-0.8,0.9-0.6c1.9,3.2,1.5,8,5.5,9.9c-3.2-2.7-4.2-6.5-4.9-10.1c0.1-0.6,0.9-0.6,1.5-0.6
		c0.5,0.3,0.8,0.9,0.7,1.5c1.7,2.1,2.9,5.8,6.3,4.8c0.1-0.2-0.1-0.3-0.3-0.5c-0.4,0-1.4-0.5-1.5,0.3c-0.4-0.1-0.1-0.5-0.4-0.7
		c-2.2-0.7-3.1-3.2-4.2-5.1c0-0.4,0.5-0.4,0.7-0.6c1,1.2,2.6,2.5,4.2,2.4c-1.4-1.3-3.2-2.4-4.4-3.9c-0.4-0.4-0.4-1.4-1.4-1
		c-0.4-0.1-1.2-0.6-0.9-1.2c2.4-3-0.6-6.1-0.9-9.1c-1-2.8,1.6-5.4,1.3-8.6c0.9-3.6,4.9-4.9,7.6-6.5c1-0.5,1.6-0.3,2.7-0.6
		c1.1-0.2,2.2-2.8,3.3-1.2c0.7-0.4,1.2-1.4,2.1-1.5c0.5-2,1.6-4.4,3.7-5.2c1.8,0.4,3.2-0.3,4.9-0.7c0.8-0.3,1.5-1.4,2.3-0.8
		c-0.3,3.5-4.3,2.2-5.7,4.4c-2.3,4.6-7.2,7.1-12,8.2c-0.1,1.2,1.4,0.6,1.9,1.4c0.5,0.2,1.2,0.2,1.5,0.6h0.4c5.9,0.9,12-0.3,17-2.7
		c2.1-0.7,4.1-2.4,5.5-4c1.2-1.9,0.4-4.5-0.4-6.3c-2.5,2.9-5.8,3.8-9.1,4.8c-1.4-0.2-2.7,1-3.7,0.1c0-0.3,0.3-0.4,0.4-0.6
		c3.8-0.9,7.8-1.3,10.6-4.5c2.5-2.1,0.9-5.5,0.8-8.3l-1.5,0.4c-3.3,0.3-6.2-1.3-7.9-3.7c-0.9-1.7-0.9-4,0-5.7c0.7-2.2,3.1-3,5-3.6
		h-2.2c-1.8,0.5-2.9,1.7-3.9,3.3c-0.3,0.1-0.4-0.1-0.6-0.4c-0.9-1.6-0.2-3.7,0.9-5.2c-0.3,0-0.6-0.1-0.7-0.4
		c-0.2-1.9,0.9-3.2,2.4-4.5c-0.3-0.8,0.4-1.6,0.6-2.4c1.6-1.9,3.7-3.6,6.2-3.3c-0.4-0.7-1.4,0.2-1.7-0.7c0.9-2.3,3.7-1.8,5.8-2.3
		c7-5.3,7.8-14.4,5.7-22.4c-1.1-3-4-6.3-7-7.2h0c-1.9,0.3-3.1-1.2-4.5-2.1c-3.3-0.2-6,2.2-8.3,4.4c-2.5,6.8-12.7,9.3-12.2,17.6
		c3,3.5,4.7-2,7.8-1.7c0.6,0.4,1.5,0.7,1.6,1.5c0.5,1.2-0.3,2.2-0.8,3.2l0.5,0.1c1.4-0.6,1.4-2.1,1.3-3.4c0.4-1.2,1.7-1.6,2.7-1.8
		c2.2-0.3,0.5-2.7,1.5-3.7c1.9,0.9,1.6,3.8,3.9,4.3c1.2,0.8,2.1-1.4,3.2-0.4c0.9-1.2,1.9-1.1,3.2-1.1c1.4-0.2,1.5-1.7,2.2-2.7
		c0.4-0.9,0.2-2.3,1.4-2.7c0.8,2.4-1.3,4.5-2.2,6.5c-0.9,0.8-2.1,1.8-2.5,2.7c0.6,0.6,1.4-0.2,2.2,0.3c-0.9,1.1-2.7,1.6-4.2,1.2
		c0.5,0.6,1.2,0.5,1.7,0.9c0,0.2,0.1,0.5-0.1,0.6c-1.7,0.6-3.1-1.2-4.2-0.1c0.1,0.4,0.9,0.3,0.7,0.9c-0.1,0.2-0.4,0.3-0.7,0.3
		c-1.8-1.7-3.4,0.7-5,1.3c-8.3,3.7-15.4,12.2-17,21C201,131,200.5,138,202.2,144.6z M213.1,95.9c-0.7,0.2-0.7-0.6-0.9-1.1
		c-0.5,0.6-0.6,1.6-1.5,1.9c-0.6,0.1-1.1,0-1.5-0.4c0.3-0.9-0.6-2.5,0.8-2.8c0.4-0.1,0.7-0.2,1.2-0.1l0.4,0.3
		c0.2-0.4-0.3-0.9-0.2-1.4c1.3-0.6,1.7,1.8,2.9,0.6l0,0h0.4C214.3,93.8,213.4,94.8,213.1,95.9z M228.3,83c-3,0.7-5.4,3.9-8.8,2.2
		c0.1-0.8,0.8-1.4,1.2-2.2c0.6-0.8,1.4-1.5,2.3-1.8c1.3,0.1,2.7,1.9,3.9,0.1h0c0.8-0.3,1.7-0.1,2.4,0.4
		C229.5,82.6,228.5,82.6,228.3,83z"/>
	<path class="st1" d="M230.5,155c-6.3,3.8-14.2,5.4-22,3.7c0.9,1.7,1.6,3.7,3.4,4.6c1.7,0.6,3,1.2,4.7,1.5
		c7.2,0.5,14.2-1.7,19.2-7.2c1.4-2.1-0.2-4.3-0.9-6.3C233.4,152.6,231.9,153.7,230.5,155z"/>
	<path class="st1" d="M237.2,158.3c-4.7,5.5-11.9,8.6-19.3,8c-1.9,0.2-3.7-0.9-5.1-0.7l0.1,0.1c2.2,6.2,8.8,5,13.9,5
		c4.7-0.8,9.7-2.6,12.1-7c0.2-1.2,0.3-2.6-0.3-3.6C238,159.6,238.3,158.4,237.2,158.3z"/>
	<path class="st1" d="M240.5,165.1c-0.9,0.3-1.6,1.5-2.4,2.3c-2.7,2.2-5.5,3.9-8.8,4.6c-3.7,1.3-8.1,0.1-11.5-0.1
		c0.6,1.2,1.6,2.3,2.4,3.5c6.2,3.7,14.2,1.1,19.5-2.9c0.9-1.5,2.7-2.7,2.1-4.9L240.5,165.1z"/>
	<path class="st1" d="M239.6,174.2c-2.2,1.2-4.5,2.8-6.8,3.3c-3,1.2-7,0.9-9.8,0.9l1.8,2.1c2.9,2.6,7.5,2,10.9,1
		c3.4-1,7.8-4.1,8.3-7.9c-0.6-0.9-0.5-2.2-1.2-3C241.5,171.5,240.8,173.2,239.6,174.2z"/>
	<path class="st1" d="M244.5,176.2c-3,6.3-10.3,8.6-16.8,7.8c1.2,1.6,2.4,2.7,4.4,3.2c4.7,0.9,9.6-0.3,12.5-4.2
		c1.2-1.2,1.5-3.3,0.9-5C245.1,177.6,245.2,176.5,244.5,176.2z"/>
	<path class="st1" d="M232.4,188.9c0.6,0.9,1.3,2,2.4,2.4c3.9,0.7,8.9,0.4,11.6-3.2c1.2-1.5,1-3.8,0.2-5.4
		C243.6,187.8,237.7,189.7,232.4,188.9z"/>
	<path class="st1" d="M235.7,193.3c0.4,0.6,0.5,1.5,1.3,1.8c3.3,1.4,7.6,0.8,10.5-1.2h0c0.9-1.3,0.8-3.5,0.1-5
		C244.9,192.9,240,193.4,235.7,193.3z"/>
	<path class="st1" d="M248,195.2c-2.9,1.8-6.5,2.7-10,2.1c-0.3,0.7,0.4,1.4,0.9,2.1c2.5,1.1,6,1.2,8.3-0.1
		C248.6,198.5,247.7,196.2,248,195.2z"/>
	<path class="st1" d="M238.8,201.2c0.1,1-0.2,1.6,0.6,2.2c2.2,1,5.3,1.4,7.3-0.3h0c0.4-0.7,0.5-1.7,0.4-2.4
		C244.9,202.5,241.3,201.9,238.8,201.2z"/>
	<path class="st1" d="M239,205.1c-0.6,1.2-0.1,1.9,0.4,3c1.1,1.4,3.1,1.3,4.7,1c0.8-1.2,1.6-2.4,1.9-3.9h0
		C243.8,206.3,241.2,205.8,239,205.1z"/>
	<path class="st1" d="M241.3,210.6L241.3,210.6c-1.2-0.2-2.4-0.6-3-1.7c-1,0.8-1.2,1.9-1.5,3c0.2,1.1,1.2,1.4,1.9,1.9
		c0,0.3-0.3,0.4-0.4,0.6c-0.8-0.1-2.2-0.1-2.4-1.4c-1.9,0.4-3.1,2.6-5.1,1.9v-0.4c1.9-1.2,4.1-2.9,5.1-4.9l-0.1-0.2
		c-4.4,1.8-9,1.8-12.9,4.7c-0.7,0.9-1.2,1.9-0.8,3c2.3,2.8,5.6,1.5,9,1.6c4.8-0.9,9.1-4.1,12.2-8.3
		C242.6,210.3,241.8,210.2,241.3,210.6z"/>
	<path class="st1" d="M224.8,71.8l0.4-0.6l0.9,0.9c-0.1-1.5-0.9-2.7-1.9-3.9c-0.1,1.4,0.3,2.9,0.8,4.2
		C224.9,72.2,225,71.9,224.8,71.8z"/>
	<path class="st1" d="M222.7,73.4c-0.4-0.8-1.2-1.5-1.9-1.6c-0.4,1,0.2,1.9,0.9,2.7v-0.7C221.8,72.9,222.9,73.7,222.7,73.4z"/>
	<path class="st1" d="M193,179.3c0.1,0.5,0.2,1.1,0.4,1.6C193.3,180.3,193.1,179.8,193,179.3z"/>
	<path class="st1" d="M195.8,145.3c1-1.9,2.9,0,4.3-1.2c-0.6-3.2-2.2-5.9-2.7-9.1h0l-0.4-0.4c-3.2,0-5.8,2.8-7.3,5.4
		c-5.7,13.1-0.1,26.6,3.3,39.4c-0.7-3.1-0.7-6.2-0.2-9.1c-0.1-4.4-1.6-10.1,0.5-14.7C196.9,153.1,193.4,148.2,195.8,145.3z"/>
	<path class="st1" d="M236,76.4c7.5,5,9.4,14.8,7.9,22.8c0.5,4.1-4.2,6.5-2.7,10.4c0.8,0.9,2,1,3.2,0.9c1,0.1,1.8-1.5,2.7-0.3
		c-0.1,1.4-1.6,1.2-2.4,1.8c-2.8,0.8-5.1-1.3-6.6-2.9c-0.1,0.5-0.5,1-0.1,1.5c1.1,2.7,4.3,1.9,6.4,2.2l0.1,0.4
		c-0.4,0.6-1,0.6-1.4,0.9c-3.4,1.2-5.6-1.6-7.6-3.9c-1.1-0.5-2.2-0.9-3.3-0.8c2.1,1.3,2.2,3.7,3.6,5.4c1.2,0.9,2.9,0.3,4.3,0.5
		l0.6,0.6c-0.4,0.7-1.2,0.5-1.7,0.9c-4.3,1.9-5-3.3-8.3-4.5c-1.2-0.3-2.7-0.3-3.6,0.6h2.7c3.1,0.1,2.9,3.6,5.4,4.5
		c0.9,0.3,2.3-0.1,3,0.3c-0.3,0.7-1.2,1.1-1.9,1.4c0.1,0.8-0.3,1.4-0.7,1.8c-4,0.6-7.6-1.9-11.3-0.5c-0.9,0.7-1.9,1.6-1.9,2.7
		c1.9-1.2,4.3-2.2,6.5-1.4c2,0.7,4.2,0.1,6.1-0.6c0.3,0.1,0.4,0.4,0.3,0.7c-2.4,2.3-5.7,2.9-8.5,3.6c-1.9,0.9-2.9,2.7-3,4.7
		c0.2,1.4,1.2,3.1,2.6,3.7c-0.2-1-0.9-1.8-0.8-2.9c0.5-4.2,5.2-4.7,7.9-6.9c0.4,0,0.7-0.1,0.9,0.3c-0.9,3.3-5.2,2.1-6.8,5.1
		c-0.2,1-0.9,2.4,0.1,3.3c-0.2-5.2,6-4.5,7.8-8.6c1.2-5.9,7.3-7.8,11.4-11.8c1.4-2.8,0.5-6.4-0.9-9c-0.3-1-2.4-1.9-1.4-3
		c2.9,1.1,2.7,4.8,5.8,5.8c-1.4-2.9-0.9-6.7-4-8.7c-0.4-0.3-1.1,0.1-1.3-0.6c0-0.3-0.1-0.7,0.1-0.9c1.9-0.1,3.6,1.4,4.9,2.7
		c-0.2-1.2-1.1-2.2-2.1-3.2c-0.7-0.7-2.7-0.8-2.1-2.2c2.2,0.1,3.7,1.5,5.5,2.4c-0.1-2.7-3.2-3.8-4.9-5.5c-0.4-0.2-0.1-0.9,0.3-0.9
		c1.9,0.1,2.7,1.9,4.7,1.9c-0.6-1.1-1.2-2.3-2.4-2.9c-1.1,0-2.5-0.3-2.9-1.4c0.2-0.4,0.7-0.3,1.1-0.4c-0.6-0.7-1.9,0.3-2.2-0.9
		c0.9-0.7,2.2-1.3,3.5-0.6c-0.5-0.4-1.4-0.2-1.5-1c-0.1-0.8,0.8-1,1-1.5c-1.7-0.7-3,1.2-4.6,1.6c-0.4-1.6,1.7-2.6,2.8-3.4
		c-1.3-0.3-2,1.1-3.1,1.4c-1-1.9,2.1-2.9,2.5-4.4c-1.8-0.4-2.6,1.8-4.2,2.1c-0.6-1.7,1.6-2.6,2.4-4.2c-1.6-0.1-2.3,2.2-3.7,2.2
		c-0.4-1.6,1.7-2.7,2.2-4.2c-0.8-0.2-1.3,0.4-1.9,0.6c-1,0.5-1.4,2-2.5,1.5c0.6-1.6,1.9-3.2,1.8-5.1c-2.2,0.4-2.2,2.7-4,3.8
		l-0.3-0.4c0.3-1.7,1.3-3.2,1.3-4.9c-2.5,0.1-2.4,3.2-4,4.3c-1.3-0.9,0.6-2.2,0.1-3.6h0c-0.2-0.6-0.5-1.4-1-1.8
		c0.1,1-0.4,1.7-0.6,2.5c-0.5,0.8-2.1,1.6-1.5,2.7C232,74.4,234.1,75.3,236,76.4z"/>
	<path class="st1" d="M233.4,119.2c-1.8-0.1-2.3-2.4-3.9-3c-1.8-0.4-3.9-0.5-5.2,1C227.9,115.3,230.4,120.1,233.4,119.2z"/>
	<path class="st1" d="M242.6,162.7c0-1.5-0.1-2.6,0.5-3.9c2.2-2.4-1.4-2.4-2.3-4.2c-1.5-2-0.5-4.4,0.6-6.3c-1.1-1-2.4-2-3-3.5
		c-1.5-2.2-0.4-5.3,0.1-7.5h0c-1.2-0.4-2.2-1.8-3.2-2.8C234.9,144.6,238.6,154,242.6,162.7z"/>
	<path class="st1" d="M248.2,180.7c0.5-1.4,0.9-2.8,1.5-4c-1.4-0.7-2.7-2-3.4-3.4c-1-1.9,0.6-3.4,0.9-5.1c-1.3-1.1-2.8-1.9-3.9-3.3
		C245.4,169.9,246.4,175.5,248.2,180.7z"/>
	<path class="st1" d="M249.5,188.2l1.5-1.6c-0.4-1.4-1.6-1.6-2.1-2.9C249,185.2,249.1,186.8,249.5,188.2z"/>
	<polygon class="st1" points="223.7,119.2 223.1,119.7 224.1,119.2 	"/>
	<path class="st1" d="M231.6,131L231.6,131c-0.4-0.1-0.3-1-1-0.7c-0.6,0.3-0.7,1.1-1.1,1.6c-0.4,1,0.1,2,0.9,2.6
		c0.4,0,1.1,0.6,1.5,0C231.8,133.3,232.2,132,231.6,131z"/>
	<polygon class="st1" points="248,171.7 248,171.7 248,171.7 	"/>
	<path class="st1" d="M256.2,166.2c0.1-0.8,0.4-2.1-0.5-2.5c-0.4-0.5-1-0.4-1.4-0.6c-3,0.3-5.9,0.7-8.7,1.4c0.4,1.1,1.5,1.6,2.4,2.2
		c4.7,0.4-0.6,3.2,0,5.1c0,0,0,0,0,0c0,0,0,0,0,0l0,0c0,0,0,0,0,0c0.6-0.1,1.2-0.3,1.8-0.4c3.2-0.9,6.9-0.9,10.5-0.5
		c3.7,0.9,6.8,3.8,7.8,7.6c1.4,4-0.7,7.4-1.8,10.9c0.1,1.7-1.3,3.2-0.6,4.7c0.9-1.2,2.2-2.5,3.4-3.3c2.4-1.1,2.9-3.4,4.5-5.3
		c-0.1-2,0.6-3.8,1.1-5.7c1.9-1.4-0.4-3.4-0.1-5.1c0.2-1.1-1.3-2.4,0.1-3.1c-0.8-1.9-1.4-3.8-2.9-5.4c-1.2-1.7-3.3-1.3-4.7-2.4
		c-0.1-0.5,0-0.9,0.4-1.1c1.9-0.9,3-2.8,3.6-4.6c-1.2-0.9-2.5-1.5-4.2-1.2c-0.8,0.1-1.4,1-2.1,0.1c0.5-2,2.9-2.4,3.4-4.5
		c0.8-2.4,1.7-5.6,0.3-8c-0.1-2.4,0.4-4.3-0.4-6.4c-0.2,0.4-0.6,0.3-0.9,0.3c-1.2-2.7-1.9-5.8-3.9-8.1c-0.1,0.4-0.4,0.8-0.8,0.9
		c-1.9-0.9-2.8-2.7-4.2-4h0H258c0.6,5.7,1.9,11.9,1.2,17.8c-1.1,6.9-5.4,13.2-11.1,17l3.2-0.4c2.2,0.4,4.2-0.7,6,0.9
		c0.5,0.8,0.6,1.8,0.8,2.7c-0.4,2.2-2.7,3.2-4.2,4.2c-0.6-0.2,0-0.6,0-0.9C254.6,168,255.4,167,256.2,166.2z M267,166.6
		c1.4,1,2.7,2.3,3.7,3.7h0c1.6,2.6,2.4,6.1,1.6,9.1c-0.6-0.8-0.1-1.5-0.4-2.4c-0.6-3.7-2.4-7.1-5.8-9.6
		C266,167.1,266.3,166.4,267,166.6z M265.6,171c3.6,2.4,5,7,4.5,10.9v0c-0.6,3.3-1.5,6.9-3.3,9.9c-0.2-0.1-0.3-0.5-0.3-0.9
		c0.3-0.7,0.7-1.4,0.8-2.4c0.7-2.6,1.7-5.1,1.9-7.9c-0.1-3.2-1.7-6.2-4-8.7C265.1,171.5,265.2,171.1,265.6,171z M265.6,142.8
		c0.2,0,0.4,0.1,0.4,0.3v0.5h-0.4V142.8z M265.5,144.8l0.4-0.3c0.1,3.2-0.7,6.3-1.6,9.1c-1.1,1.4-1.6,3.6-3.6,3.9
		c-0.9-1.9,1.9-2.7,2.2-4.5C264.5,150.6,264.8,147.6,265.5,144.8z M257.9,156.6c-0.5-1.2,0.6-2.4,1.1-3.5c2.2-5.8,3.6-12.5,1.7-18.8
		c-0.4-1-0.6-2.1-0.3-3.2c0.2,0,0.4,0.3,0.6,0.4h0c2.7,7.9,1.7,17-1.5,24.2C259.2,156.4,258.5,157.1,257.9,156.6z"/>
	<path class="st1" d="M281.7,208.7L281.7,208.7c-0.5-1-1.3-1.1-2.1-1.1c-0.5,0-1-0.1-1.5-0.3l0,0l0,0c-0.5,0.1-0.9,0.2-1.4,0.3
		c-3.2,0.8-6.3,1.5-8.8,3.7l0,0l0,0c1,3.8,2.2,7.4,3.6,10.5l0,0.1l2.7-1.7C277.9,217.5,282.2,213.3,281.7,208.7z"/>
	<path class="st1" d="M292.6,221.9c-0.8-2.1-1.7-4.3-2.2-6.5h0l-0.1-0.1c-0.2-0.3-0.3-0.6-0.4-1c-0.3-0.7-0.6-1.4-1.1-1.8l-0.1-0.1
		l0,0.1c-4.2,10.9-15.7,16-25.3,19.2l0,0c-0.6,0.4-1.3,0.5-2.1,0.7c-0.6,0.1-1.1,0.2-1.5,0.4l0,0l0,0.1c1.9,7.4,4,15.2,6.8,22.7l0,0
		h0c0.9,0,1.7-0.2,2.5-0.5c0.3-0.1,0.5-0.2,0.8-0.2c0.5-0.2,1.1-0.5,1.6-0.7c9-4.1,19.1-8.8,23.6-18.4l0,0
		C296,230.6,294.3,226.2,292.6,221.9z"/>
	<path class="st1" d="M249.5,233.4c0.6-0.3,1.3-0.9,1.4-1.6l0-0.1l-0.1,0c-1.9,0.6-4.1,2.3-4.9,3.5l-0.1,0.2l0.2-0.1
		c1.1-0.4,2-1,3-1.7C249.2,233.6,249.4,233.5,249.5,233.4z"/>
	<polygon class="st1" points="109.9,277.8 114.1,278.3 112.5,272.9 	"/>
	<path class="st1" d="M250,265.4c0.4,0.8,0.7,1.1,1.6,0.6c2.2-1,3.4-3,1.3-7.7c-0.8-1.8-3.1-5.8-6.5-4.3c-1.3,0.6-1,1-0.8,1.5
		L250,265.4L250,265.4z"/>
	<path class="st1" d="M258.5,235.4L258.5,235.4l-0.6-0.7l-2.9,3.4c-10.1,6.8-21.9,10-33.4,13.1c-1.5,0.4-2.9,0.8-4.4,1.2
		c-12.4,3.5-23.6,6-34,7.5c-2.3,0.2-4.7,0.5-7.1,0.8c-12.9,1.4-26.3,2.9-39.6,1.2c-1.4-0.1-2.9-0.3-4.3-0.4
		c-9.2-0.9-18.8-1.8-27.4-4.1c-11.1-2.1-22-5.3-32.5-8.4c-1.3-0.4-2.7-0.8-4-1.2c-1-0.3-1.9-0.7-2.9-1c-7.8-2.7-15.9-5.5-22-12.3
		l-0.1-0.1l0,0.1c-0.8,1.3-1.1,2.8-1.5,4.3c-0.1,0.4-0.2,0.7-0.3,1.1c-1.1,3.8-2.4,7.6-3.6,11.2c-1.3,3.9-2.7,8-3.8,12.1
		c-0.5,2.9,0.3,5.2,2.4,6.7c8.5,4.8,18,8.8,29.2,12.3c11,3.5,22.3,6,31,7.9c1.7,0.3,3.4,0.6,5,0.9c6.1,1.1,12.4,2.3,18.9,2.6
		c4.7,0.5,10.3,1.1,16.6,1.4c4,0.1,7.9,0.2,11.7,0.2c14.4,0,27.5-0.7,39.1-2.2c1.7-0.2,3.4-0.5,5.1-0.8c2.9-0.5,5.9-1,8.8-1.3
		c22.3-4.9,43.9-10.2,63.5-21.4c2.5-2.1,2-5.6,1.2-9.1C263.6,252.6,260.7,244.2,258.5,235.4z M246.9,266.9l-4.3-9.7
		c-0.5-1.2-1.4-0.9-2.2-0.6l-0.2-0.5l6-2.7c5.5-2.5,8.8,0.2,10.2,3.2c1.6,3.6,0.9,7.7-4,10l-6.2,2.8l-0.2-0.5h0
		C247,268.3,247.2,267.6,246.9,266.9z M233.1,271.8l-3.4-9.9c-0.5-1.3-1.3-1.1-2.3-0.8l-0.2-0.5l0,0l11.8-4l1.4,4.1l-0.5,0.2
		c-1.5-2.7-3.1-2.7-5.8-1.8c-1.1,0.4-1.5,0.6-1.2,1.5l1.6,4.7c2-0.7,2.8-1.5,2.3-4.2l0.5-0.2l2.4,6.9l-0.5,0.2
		c-1.1-2.5-2.4-2.7-4.4-2l1.7,4.9c0.3,0.9,0.8,1,2.1,0.6c2-0.7,3.9-1.9,4.1-5.5l0.6-0.2l0.6,4.5l-11.9,4.1l-0.2-0.5
		C233,273.4,233.6,273.1,233.1,271.8z M221.6,274.6l-3-11c-1.4,0.5-3.6,1.2-3.1,4.6l-0.6,0.2l-1.1-4.2l12.5-3.3l1.2,4.2l-0.6,0.2
		c-1.3-3.2-3.5-2.8-4.9-2.5l2.9,11c0.5,1.8,1,1.7,2.6,1.4l0.1,0.5l-7.4,2l-0.1-0.5C221.6,276.5,222.1,276.4,221.6,274.6z
		 M210.7,277.6l-2.2-10.2c-0.3-1.4-1.3-1.2-2.3-1.1l-0.1-0.5l7.4-1.6l0.1,0.5c-1,0.2-2,0.5-1.7,1.9l2.2,10.2
		c0.3,1.4,1.1,1.2,2.3,1.1l0.1,0.5l-7.4,1.6l-0.1-0.5C210.2,279.2,211,278.9,210.7,277.6z M196.1,279.6c0.2,1.5,0.8,1.9,2.4,1.8
		l0.1,0.5l-4.8,0.8l-0.1-0.5l0,0c1.3-0.4,1.8-0.6,1.6-2l-1.6-10.1c-1.4-1.3-1.8-1.3-2-1.2l-0.1-0.5l4.5-0.7l8.8,7.9l0,0l-1-6.5
		c-0.2-1.3-0.6-1.9-2.3-1.8l-0.1-0.5l4.6-0.7l0.1,0.5c-1.5,0.4-1.5,0.9-1.4,2l2,12.5l-0.6,0.1l-11.3-10l0,0L196.1,279.6z M190,271
		l0.7,6.8c0.1,1.3,0,3.2-0.8,4.3c-1,1.3-2.8,1.9-4.1,2c-0.9,0.1-3,0.2-4.5-0.9c-1-0.7-1.6-1.4-1.9-3.7l-0.8-7.2
		c-0.2-1.8-0.7-1.8-2-1.8l-0.1-0.5l7.3-0.8l0.1,0.5c-1.4,0.2-2.1,0.3-1.9,2.2l0.8,7.2c0.1,1.2,0.4,4.2,3.5,3.9
		c3.8-0.4,3.5-3.7,3.3-5l-0.7-6.5c-0.1-1.3-0.5-2-2.3-1.9l-0.1-0.5l4.7-0.5l0.1,0.5C190.3,269.3,189.9,269.6,190,271z M161.1,272.9
		c-0.1-1.4-1-1.4-2-1.4l0-0.5h0l12.4-0.6l0.2,4.3l-0.5,0c-0.7-3-2.2-3.5-5.1-3.3c-1.2,0.1-1.6,0.2-1.5,1.1l0.3,5
		c2.1-0.1,3.1-0.7,3.3-3.4l0.6,0l0.4,7.3l-0.6,0c-0.4-2.7-1.5-3.3-3.7-3.1l0.3,5.2c0,1,0.5,1.2,1.9,1.1c2.1-0.1,4.3-0.8,5.5-4.1
		l0.6,0l-0.6,4.5l-12.6,0.7l0-0.5c1.2-0.2,1.9-0.3,1.8-1.6L161.1,272.9z M158.6,285.5L158.6,285.5L158.6,285.5h-12.5V285
		c1.2-0.1,1.9-0.2,1.9-1.5V273c0-1.4-0.9-1.5-1.9-1.5V271h7.5v0.5c-1.5,0.1-2.2,0.1-2.2,2v10.2c0,1,0.5,1.2,1.9,1.2
		c3.3,0,4.5-1.8,5.5-4.2h0.6L158.6,285.5L158.6,285.5z M133,274.8l-0.6,0l0.2-4.3l12.9,0.5l-0.1,4.3l-0.6,0c-0.3-3.5-2.5-3.7-4-3.8
		l-0.4,11.4c-0.1,1.8,0.5,1.9,2,2l0,0.5l-7.7-0.3l0-0.5c1.6-0.1,2.1-0.1,2.2-1.9l0.4-11.4C135.8,271.3,133.6,271.4,133,274.8z
		 M126.2,274.9l3.1,1.8c0.7,0.4,2.3,1.8,2.1,4.1c-0.1,1.9-1.7,4.4-5.7,4.1c-2-0.1-3-0.9-3.6-1c-0.4,0-0.6,0.3-0.7,0.7l-0.6,0
		l0.4-5.3l0.6,0c0.3,2.2,1.4,4.7,4.1,4.9c2.6,0.2,2.8-1.9,2.9-2.2c0.1-1.4-0.9-2-2.2-2.8l-1.4-0.8c-3.6-2-3.4-3.9-3.4-4.9
		c0.1-1.3,1-4.2,5.1-3.9c1.7,0.1,2.7,0.9,3.3,0.9c0.5,0,0.6-0.3,0.8-0.7l0.6,0l-0.3,4.7l-0.6,0l0,0c-0.3-1.5-1.4-4.1-3.9-4.3
		c-1.1-0.1-2.4,0.5-2.5,1.9C124.1,273.3,124.5,273.8,126.2,274.9z M114.3,279.2l-4.8-0.6c-0.8,1.5-1.2,2.3-1.3,2.6
		c-0.1,0.8,0.9,1,1.6,1.1l-0.1,0.5l-4.3-0.5l0.1-0.5c1.2,0,1.6-0.7,2.4-2.2l6.2-11.2l0.6,0.1l3.4,11.9c0.7,2.4,0.9,3.2,2,3.3
		l-0.1,0.5l-6.9-0.9l0.1-0.5c1.3,0.1,1.7,0.1,1.8-0.6C115,281.6,114.5,279.9,114.3,279.2z M100,281.8c-5-0.8-7.1-4.7-6.5-8.7
		c0.7-4.3,4.3-7.2,8.8-6.5c1.9,0.3,3.4,1.6,3.9,1.7c0.6,0.1,0.8-0.3,1.1-0.8l0.6,0.1l-0.8,5l-0.5-0.1c-0.5-2-1.8-4.7-4.3-5.1
		c-3.1-0.5-4.5,2.6-5,6.2c-0.2,1.3-0.4,3.3,0.2,4.8c0.7,1.7,2.3,2.3,3,2.4c1.7,0.3,3.4-0.1,5.4-1.8l0.6,0.6
		C104.6,281.1,102.7,282.2,100,281.8z M69,259.8c-1.1-0.4-1.5-0.4-1.8,0.5l-1.6,4.8c2,0.7,3.2,0.5,4.3-2l0.5,0.2l-2.3,6.9l-0.5-0.2
		c0.6-2.6-0.3-3.6-2.3-4.3l-1.6,5c-0.3,0.9,0,1.3,1.3,1.7c2,0.7,4.3,0.8,6.6-1.9l0.6,0.2l-2.2,4l-12-3.9l0.2-0.5
		c1.2,0.3,1.9,0.4,2.3-0.9l3.2-9.9c0.4-1.4-0.4-1.7-1.3-2l0.2-0.5l0,0l11.8,3.8l-1.3,4.1l-0.5-0.2C73,261.7,71.8,260.8,69,259.8z
		 M48,266.2l-0.2,0.5l-4.5-1.8l0.2-0.5h0c1.3,0.3,1.9,0.4,2.4-0.9l3.8-9.5c-0.6-1.8-0.9-2-1.1-2.1l0.2-0.5l4.2,1.7l3.5,11.3l0,0
		l2.5-6.1c0.5-1.2,0.5-2-1.1-2.7l0.2-0.5l4.3,1.7l-0.2,0.5c-1.5-0.4-1.8,0-2.2,1l-4.8,11.8l-0.6-0.2l-4.5-14.4l0,0l-3.2,8
		C46.3,264.9,46.6,265.4,48,266.2z M74.9,261.2l6.2,1.4l-0.1,0.5c-0.8-0.1-1.4-0.2-1.5,0.6c0,0.2,0,0.5,0,0.7l0.7,8.2l0,0l3.9-5.8
		l-0.3-2.2c-0.2-0.5-0.3-0.8-1.3-1.1l0.1-0.5l6.6,1.5L89,265c-0.9-0.1-1.5-0.3-1.7,0.4c-0.1,0.2,0,0.8,0,1.2l0.6,7.5l0,0l4-6.6
		c0.1-0.2,0.3-0.4,0.4-0.9c0.2-0.9-0.5-1.1-1.2-1.3l0.1-0.5l3.8,0.9l-0.1,0.5c-0.7-0.1-1.3,0.3-1.8,1l-7.1,11.7l-0.6-0.1l-1.3-10.7
		l-0.1,0l-6.1,9l-0.6-0.1l-1.5-13.7c-0.1-1.1-0.3-1.3-1.1-1.7L74.9,261.2z"/>
	<path class="st1" d="M227.4,236L227.4,236L227.4,236c-0.2,0.2-0.5,0.3-0.8,0.4c-0.3,0.1-0.6,0.2-0.7,0.4c-0.1,0.1-0.1,0.3,0,0.4
		l0,0l0,0c0.4,0,0.7,0,1.1,0c2.6,0,4.9-0.7,7.2-2l0.3-0.1l-0.3,0c-0.4,0-0.8,0-1.2,0.1C231.1,235.4,229.4,235.5,227.4,236z"/>
	<path class="st1" d="M220.6,244.6c1.5,0,3.1-0.5,3.8-0.9l0.2-0.1l-4.2-1l-0.1,0v0.1c0,0.1,0,0.1,0,0.2
		C220.2,243.5,220.2,244.2,220.6,244.6L220.6,244.6L220.6,244.6z"/>
	<path class="st1" d="M259.3,230.7l3.2-0.4c6.6-2.2,13.2-4.9,18.5-9.6c4.2-4,7.9-9.7,5.3-15.7l0,0c-1.3-1.9-3.5-2.7-5.4-2.7
		c-6.2,0.6-12.1,2.7-17.5,5.5c-3.6,2,0.3,5.5,0.4,8.3c1.3,2.6,1.6,5.8,3.2,8c0.8-0.4,1.8-0.8,2.5-1.3c-1.2-3.9-2.3-7.8-3.7-11.6
		l0.4-1c3.2-2.4,6.9-3.3,10.6-4.4c2.4-0.1,4.7-0.7,6.4,1.5c0.8,1.6,0.6,3.5,0,5.1c-5.3,9.5-15,13.4-24.2,16.5
		C258.7,229.6,259.6,230,259.3,230.7z"/>
	<path class="st1" d="M54.4,240.4c17.5,7.8,36.3,11.9,55.2,16.2c1.2-0.1,2.3,0.7,3.4,0.4c14.5,2.6,29.1,3.7,43.9,3.6
		c6.3-0.3,12.4-1.2,18.6-1.5c21.1-2.7,41.8-7.6,61.3-14.2c5.7-2.2,11.4-4.3,16.3-8.1c2.2-1.4,4.1-3.8,4.2-6.5
		c-0.1-1.1-0.9-2.3-1.9-2.7c-8.5-3-13.2,6.2-19.7,9.6c-3.7,1.2-8.5,3.6-12,0.9c-0.6-0.6-0.1-1.4,0.1-1.9c2.6-2.3,6.3-2.4,9.4-2.9
		c2.4-0.9,6.6,1.6,8-2.1h-8.3c-4.6,0.8-9.4,0.9-12.9,4.2c-0.8,0.9-0.8,2.2-0.7,3.5c3.8,4.8,10.1,2.2,15.2,1.7
		c6.5-0.9,9.9-8.3,15.7-10.9c1.1-0.1,2.6-0.4,3.2,0.8c0.8,4.5-4.4,5.3-7.1,7.3c-9,4.2-18.5,7.5-28,9.8c-4.3,1-8,2.2-12.2,3.3
		c-19.7,4.8-38.6,7.3-59.7,7.2l-0.3,0.3c-7.2-0.7-15.5-1-22.6-2.2c-17.1-1.7-32.3-6.7-48.3-10.9c-2.7-0.7-5.2-1.9-7.6-2.6
		c-6.5-2.2-13-4.7-18.7-9.1l-0.8-1.3c-0.3-0.9-0.2-1.9,0.4-2.6c3.4-1.2,6.2,1.9,8.7,4.4c3.2,3.4,6.9,5.9,11.2,6.7
		c4.4,0.6,8,1.6,12.2-0.1c1.3-0.6,2.2-2.1,1.8-3.7c-0.4-2.6-3.2-3-5-4.2c-5.3-1.2-11.3-2.2-16.9-1.5c0.6,0.8,1.4,1.2,2.1,1.8
		c4.6,0.2,9.7,0,13.7,1.9c0.8,0.6,2.6,1.4,2,2.9c-1.9,2.1-5.2,1.6-7.8,1h0c-8.5-1.5-13.1-11.8-22-12.1c-1.7,0.4-3.3,1-4.2,2.7
		C43.4,235.1,50.3,238,54.4,240.4z"/>
	<path class="st1" d="M33.8,211L33.8,211c-1.8-1.2-3.5-2.1-5-2.7c-0.5-0.1-1-0.3-1.5-0.4c-2.2-0.6-4.8-1.4-7.1-0.2l0,0
		c-0.6,0.8-0.7,1.9-0.6,2.9l0,0c1.7,4.5,5.5,8.4,10.5,10.8l0.1,0L33.8,211L33.8,211z"/>
	<path class="st1" d="M34.4,255.6c0.3-0.2,0.4-0.7,0.5-1.2c0.1-0.5,0.2-1,0.5-1.2l0,0l0.2-0.7c1.3-3.9,2.6-7.9,3.8-11.9
		c0.2-1.1,0.6-2.1,0.9-3.1c0.5-1.6,1-3.2,1.1-4.8l0-0.1l-0.1,0c-0.6-0.2-1.1-0.4-1.7-0.6c-8.5-2.8-17.4-5.8-23.4-13.2v0
		c-1.7-2.1-3-4.4-3.9-6.8l-0.1-0.1l-0.7,1.3c-0.8,2.7-1.8,5.3-2.8,7.8c-1.1,2.8-2.2,5.8-3,8.8c-1.6,4.6,1.3,8.8,4.1,11.9
		c6,6,13.7,10.5,23.5,13.7c0.3,0.2,0.6,0.2,0.8,0.2C34.2,255.6,34.3,255.6,34.4,255.6z"/>
	<path class="st1" d="M50.8,231.5l-0.1,0L50.8,231.5c0.6,1.9,3.2,3.1,4.7,3.7l0.3,0.1l-0.2-0.2c-0.1-0.1-0.2-0.2-0.4-0.4
		C54,233.4,52.5,232,50.8,231.5z"/>
	<path class="st1" d="M74.1,237.3L74.1,237.3L74.1,237.3c0.2-0.1,0.5-0.1,0.7-0.1c0.3,0,0.5,0,0.7-0.1c0.1-0.1,0.1-0.2,0.1-0.4v0
		l0,0c-2.1-1.3-4.6-1.4-7.2-1.5c-0.3,0-0.5,0-0.8,0l-0.2,0l0.2,0.1c1.4,1.2,3.4,1.5,5.2,1.9C73.3,237.1,73.7,237.2,74.1,237.3z"/>
	<path class="st1" d="M79.6,242.9c-0.8,0.1-1.6,0.3-2.3,0.5l-0.2,0.1l3.7,1.1l0,0c0.5-0.2,0.6-0.7,0.6-1.2c0-0.3,0.1-0.5,0.2-0.8
		l0.1-0.1l-0.1,0C80.8,242.7,80.2,242.8,79.6,242.9z"/>
	<path class="st1" d="M25.5,224.1c5,3.1,10.5,5.3,16.3,6.5c0.3-0.6,0.6-1.4,0.3-1.9c-5-1.7-9.7-3.6-14.2-6.3
		c-4.7-3.4-11-8-10.1-14.7c0.4-1,1.4-1.9,2.5-2.2c4.5-0.4,9.3,1.1,13.2,3.3c0.9,0.6,2.7,1.2,2.2,2.7c-0.4,1.9-1.3,3.7-2.1,5.5
		c-0.4,1.8-1.2,3.9-1.4,5.7c0.6,0.4,1.6,1.1,2.5,1.2c1.2-1.9,1.2-4.2,2.2-6.1c0.8-3,2.4-5.7,2.9-8.8c-1.9-2-4.4-2.6-6.6-3.7v0
		c-4.2-1.5-8.9-3.2-13.7-3.2c-2.4,0.4-4.7,2.4-5.1,4.8C13.2,214.1,19.2,220.5,25.5,224.1z"/>
	<path class="st1" d="M78.4,84.4c0.4,0.4,0.9,0.5,1.3,0.5l1.5-0.2l0,0l-0.7-0.8c0,0-0.3,0.7-0.9,0.7c-0.9,0-1.1-0.8-1.1-0.8
		C78.3,84,78.2,84,78,84C78.2,84.1,78.3,84.3,78.4,84.4z"/>
	<path class="st1" d="M222.5,84.6c-0.6,0-0.9-0.7-0.9-0.7l-0.7,0.8c0,0,0.6,0.3,1.1,0.3c0.5,0,1.2-0.1,1.7-0.5
		c0.1-0.1,0.2-0.3,0.4-0.4c-0.2,0-0.3-0.1-0.5-0.2C223.5,83.8,223.4,84.6,222.5,84.6z"/>
	<polygon class="st1" points="220.8,84.6 220.8,84.6 220.8,84.6 	"/>
	<path class="st1" d="M77.8,119c0.6,0.5,1.6,0.9,2.2,1.5C79.6,119.9,78.7,119.4,77.8,119z"/>
	<line class="st2" x1="72.6" y1="73" x2="72.6" y2="73"/>
	<path class="st1" d="M71.3,128.2c1.9,1.1,3.5,3.2,3.6,5c0.7-0.7,0.4-1.9,0.3-2.7c-0.9-2.5-3.4-2.5-5.2-3.5
		c-0.7-0.5-2.1-0.9-1.8-2.1c0.2-0.3,0.4-0.4,0.7-0.4c2.6,2.2,6.7,2.2,8,5.9c0.3,1.3,0.1,2.7-0.5,3.9c1.1-0.4,1.8-1.6,2.3-2.6
		c1.4-7.9-8-5-11.4-9.3c-0.3-0.2-0.3-0.7,0.1-0.9c1.7,0.5,3,0.9,4.9,0.9c2.4-1.2,5.8-0.4,8,1.1l-0.2-0.8c-0.8-1.9-2.8-2.2-4.5-2.5
		c-1.1,0.1-2,0.5-3,0.8l-0.1-0.2c-1.9,0.4-4.5,1.3-6.2-0.1c0.8-1.7-1.5-1.2-2.1-2.2c0.2-1.2,1.4-0.1,2.2-0.4c2.4,0.2,2.7-2.5,4-3.7
		c1.5-1.1,3.3-1.1,5-1.1c-0.4,0-0.7-0.3-1.1-0.4c-4.2-1.5-5.1,3.7-8.2,4.7c-1.7,0.4-3.4-0.1-4.5-1.2c0.8-0.9,1.9-0.1,2.9-0.1
		c4.1,0.1,2.6-4.7,5.7-6.1c-3.7-0.9-4.7,3.8-7.9,4.6c-1.4-0.1-3.7,0.8-4.5-1.1c1.9-0.9,5.2,0.4,6.5-2.2c0.1-0.7,0.5-1.4,0-2.1
		c-1.2,1.9-3.2,3.3-5.5,3.3c-1.3-0.4-3.2-0.3-3.5-1.9c0-0.4,0.5-0.5,0.9-0.4c1.1,0.8,3,0.9,4.4,0.4c0.9-0.6,1.4-1.5,1.2-2.9
		c-4.2-6.1-4.5-15.4-2.1-22.3c1.6-5.8,7.7-10.1,13.2-11.6V73c-1.4-1.1-2-2.9-2.4-4.5c-1.2,1.4-0.9,3.5-0.3,5.1
		c-1.9,0.8-1.5-1.9-2.4-2.9c-0.8-0.3-1.6-1.3-2.3-0.9c0.2,1.8,1.5,3.3,1.2,5.1c-1.7-0.9-1.9-3.7-4.2-3.7c-0.4,2.2,1.7,3.5,1.7,5.3
		c-1.5-0.6-2.5-2.5-4.4-2.4c0.6,0.9,1.1,1.9,1.9,2.6c0.4,0.5,0.6,1.4,0.4,1.8c-1.5-0.6-2.2-2.7-3.7-2.3c0.7,1.2,1.9,1.8,2.5,3
		c0.1,0.4,0.4,1-0.1,1.2c-1.4-0.4-2.5-2.9-4.2-1.9c0.6,1.7,3.5,2,2.5,4c-1.1-0.4-2.1-1.7-3.2-1.2c1.2,0.8,2.6,1.4,3.2,2.7
		c0,0.3-0.1,0.6-0.3,0.7c-1.4-0.6-2.9-2.2-4.7-1.8v0.3c0.4,0.1,0.7,0.6,1.1,0.9c0.3,1.1-1.4,1.2-1.4,1.3c1.2-0.4,2.4,0.1,3.3,0.8
		c-0.4,0.7-1.7,0.4-2.4,0.9h0.7c0.2,0.3,0.6,0.5,0.4,0.9c-1.2,0.5-2.6,0.8-3.7,1.5c-0.5,0.7-1.4,1.5-1.5,2.2l1.6-0.4
		c1.2-0.4,2.4-1.7,3.6-1.2c-1.4,2.3-5.1,3.2-4.9,6.1l3.4-2.1c0.8,0,1.6-0.6,2.3,0c-0.1,0.3-0.3,0.7-0.6,0.9c-1.8,0.5-3.3,2.5-4,4.2
		c0.6-0.1,1.1-0.9,1.6-1.4c1.2-0.6,2.5-2,3.7-1.1c0.1,0.4-0.1,0.6-0.3,0.9c-4.1,1-3.7,5.9-5.1,9c3-0.8,2.9-4.7,5.7-5.8
		c0.4,0,0.5,0.5,0.5,0.9c-2.4,3-4.7,6.8-2.9,10.8c2.9,4.2,8.6,4.7,10.8,9.6C66.5,125.1,68.6,127.4,71.3,128.2z"/>
	<path class="st1" d="M78,117.4l-1.3-0.9c-3.6-1.5-5.2,1.8-7.3,3c1.2,0.4,2.3-0.6,3.5-1.2c1.4-0.7,2.9-1.2,4.3-0.9
		C77.6,117.4,78.1,117.6,78,117.4L78,117.4z"/>
	<path class="st1" d="M72.2,134.6c1-0.4,1-1.7,0.8-2.7c-0.3-0.5-0.6-1.2-1.2-1.3c-1.2,1-1.4,2.9-1.1,4.5
		C71.3,135.1,71.7,135,72.2,134.6z"/>
	<path class="st1" d="M94.3,159c-3.1,0.4-6.9,1.3-10.1,0.3c-4.5,0-8.6-1.9-12.3-4.3c-1.4-0.6-2.5-1.6-3.6-2.9
		c-1.4-0.4-1.3,1.6-1.9,2.4c-1,3.3,2.1,5.1,4.2,7c5,3.4,11.3,4.2,17.4,3.3C90.8,164.1,93.4,161.9,94.3,159z"/>
	<path class="st1" d="M89.8,165.8l-1.9,0.7c-8.3,1.2-16.8-1.1-22.6-7.8c-1.2,1.6-2.3,3.5-1.6,5.5c2,4.2,6.8,5.8,11.1,6.8
		c4.5,0.9,9.2,0.5,12.9-1.8C88.2,168,89.8,167.1,89.8,165.8z"/>
	<path class="st1" d="M84.9,172.3h-0.4c-0.4-0.1-0.2,0.2-0.4,0.3c-0.7,0.1-1.8-0.1-2.6,0.2h0c-7.4,1.4-14.3-1.8-19.1-7.3
		c-0.9,0.7-0.7,1.9-1.4,2.7c-0.6,1.9,1.1,3.1,1.8,4.5c4.1,3.6,9.2,5.2,14.7,5C80.7,177.4,83.6,175.4,84.9,172.3z"/>
	<path class="st1" d="M79.6,178.8c-7.6,0.9-14.8-1.3-19.6-7.5h0h-0.4c-0.3,1.8-2,3.2-0.6,4.9c2.4,4.5,7.8,6.7,12.6,6.8
		C75,183.2,78.1,181.8,79.6,178.8z"/>
	<path class="st1" d="M74.9,184.4c-6.9,0.7-13.7-1.4-17.1-7.8c-0.5,1.7-1.4,3.6-0.9,5.4c2.2,4.3,7,6.3,11.8,6.1
		C71.2,187.8,73.5,186.9,74.9,184.4z"/>
	<path class="st1" d="M56,183.5c-0.7,0.9-0.4,2.2-0.7,3.2c0.6,2.8,3.5,4.8,6.3,5.4c3.3,0.1,7.2,0.9,8.7-2.5
		C65,190.2,59.1,188.5,56,183.5z"/>
	<path class="st1" d="M56.9,195.8c2.4,0.8,5.6,1.1,8.1,0.1c1-0.2,1.7-1.2,1.9-2.1c-4.5,0.2-9.3-0.4-12.1-4.3c-0.4,1.2-0.6,2.7-0.3,4
		C54.9,194.6,56.1,195.2,56.9,195.8z"/>
	<path class="st1" d="M56.8,200.6c2.2,0.9,5,0.1,6.9-0.5c0.7-0.6,1.2-1.3,1.2-2.2h0c-3.4,0.5-7.3,0.1-10.1-1.9v2.9
		C55.3,199.5,55.8,200.4,56.8,200.6z"/>
	<path class="st1" d="M62.9,204.2c1-0.4,1.2-1.4,1.1-2.4h0c-2.7,1.3-6.1,0.9-8.7-0.3c0.3,0.8,0,1.8,0.7,2.4
		C58,205.6,60.7,205.2,62.9,204.2z"/>
	<path class="st1" d="M63.5,208.7c-0.1-0.9,1-1.4,0.6-2.4l-0.3-0.5c-2.3,0.7-4.8,1.3-7.1,0.1c0.2,1.4,1.1,2.5,1.7,3.8
		c0.6,0.1,1.4,0.1,1.9,0.3C61.6,210.2,62.5,209.3,63.5,208.7z"/>
	<path class="st1" d="M67,210.2c0,0.6,0.6,1.1,0.9,1.6c1,1.5,2.6,2.4,4,3.2c0,0.3,0.1,0.6-0.1,0.8c-1.9,0.2-3.2-1.7-5-2.1v0.3
		c-0.7,0.6-1.4,1.4-2.5,1c-0.9-1.6,2.1-0.9,1.6-2.8l0,0c-0.6-0.9-0.6-2.2-1.6-2.5c-1.2,1.3-3.3,1.8-5,1.3c2.4,3.4,6,6.1,9.8,7.6
		c3.8,0.6,8.2,2.2,11.5-0.7c0.6-0.7,0.1-1.8-0.1-2.5C77,211.6,71.4,212.4,67,210.2z"/>
	<path class="st1" d="M52.6,168.3c1.2-1.3,3.6-1.5,4.3-3.4c-1.6-0.4-3.6-0.2-5.2-0.7c-2,0.2-3.9-1.1-5.4,0.6
		c-1.2,2.5,1.9,3.2,2.7,5.1l-0.1,0.1c-1.7-0.7-3.2-1.7-4.2-3.5c-0.2-1.1-0.2-2.7,0.6-3.6c2.7-1.7,6.1-0.4,8.9-0.6
		c-2.1-1.5-3.9-3.2-5.7-5.1c-5-5.4-5.9-12.2-5.5-19.4c-0.1-3.6,1.7-6.9,1.1-10.2l-3.9,4h-0.6c-0.4-0.2-0.5-0.5-0.5-0.9l-0.4,0.1
		c-1.4,2.6-2.6,5.3-3.6,8.1c-0.5,0.3-0.9-0.4-1-0.1c-0.9,2.4,0.6,5.3-0.9,7.2c-0.4,3.9,0.6,8.4,4.2,10.6c0.1,0.4,0.6,1-0.1,1.4
		c-0.4,0.1-0.7-0.2-1-0.4c-1.6-0.6-3.5,0-4.8,1.1c0.6,1.1,0.8,2.2,1.7,3.2c0.5,1.2,3.4,1.2,2.1,2.8c-3.9,0.2-6.2,3.8-7.3,7v0.4h0.1
		c0.4,0.3,0.5,0.7,0.4,1.2c-0.4,2-0.9,4-1.3,6c1.2,1.9,1.9,4,1.8,6.5c0.9,4.4,6,5.6,8.2,8.9c0-4-2.2-7.1-2.8-10.9
		c-0.4-4,0.5-8.6,4.5-10.9c4.5-2.7,11.1-2,15.9-0.7C55.1,170.4,52.7,169.9,52.6,168.3z M30.1,180.3h-0.3c-0.8-5.5,1.4-10.2,5.7-13
		c0.4-0.1,0.6,0.2,0.9,0.4c0,1.2-1.2,1-1.7,1.9C31.6,172.4,30.7,176.3,30.1,180.3z M35.3,175c-4.2,5.5-0.6,11.8,0.5,17.5
		c-0.8-0.1-0.9-1.2-1.2-1.8c-1.9-5.1-4.5-12.5,0-17.3c0.7-0.6,1.2-1.5,2.1-1.8C38.2,173,35.6,173.8,35.3,175z M36.4,143.3
		c0.1,0.2,0.4,0.1,0.3,0.4v0v0.4c-0.2,0-0.5,0.1-0.6-0.1C36.1,143.8,36.1,143.5,36.4,143.3z M41.5,158.1c-1.4-0.1-2-1.6-2.7-2.6
		c-1.8-3-2.4-6.6-2.7-10.3c0.3-0.3,0.4,0,0.7,0.1v0c0.8,4.3,1.9,8.5,5.2,11.8C42.2,157.6,41.8,158,41.5,158.1z M44.2,157.3
		c-1.2,0.1-1.3-1.2-1.8-1.8c-3.2-7.3-3.5-16.1-0.9-23.8H42c-0.2,4.8-2.2,9.7-0.6,14.8c0.4,3.6,1.8,6.7,3.4,9.8
		C44.9,156.8,44.6,157.3,44.2,157.3z"/>
	<path class="st1" d="M77.3,71.5c0.6-0.1,0.1,0.9,0.3,0.6c0.4-1.1,0.7-2.2,0.8-3.6H78c-0.5,1.2-2,2.4-1.6,3.6
		C76.5,71.8,76.8,71.3,77.3,71.5z"/>
	<path class="st1" d="M80.7,74.6c0.6-0.7,1.2-1.6,0.9-2.7c-0.9,0.1-1.4,1.1-1.9,1.7h1.1V74.6z"/>
	<path class="st1" d="M60.1,163l0.7-1.8v0c3.7-8.1,6.6-16.7,6.5-26.5c-1.2,1.3-2.2,2.5-3.6,3.5c0.4,0.3,0.3,1,0.7,1.4
		c1,2.5,0.4,5.9-1.8,7.9c-3.5,1.4,0.9,3.6,0,6c-0.4,1-0.9,2.1-1.9,2.7C56.6,157.3,60.8,160.5,60.1,163z"/>
	<path class="st1" d="M127.8,126.7c-0.1-0.4-0.4-0.9-0.6-1.2C127.1,126,127.6,126.5,127.8,126.7z"/>
	<path class="st1" d="M175.4,125.6c-0.4,0.3-0.6,0.9-0.3,1.1C175.3,126.4,175.3,126,175.4,125.6z"/>
	<path class="st1" d="M93.3,198.5c-0.3,0.1-0.4-0.1-0.6-0.3c0.3-3.6,0.4-8.2-1.8-11.4c-0.4,2.2,0.9,4.6-0.6,6.3
		c-0.3,0.1-0.6,0.1-0.7-0.2c-0.2-4.2-0.5-8.7-3.2-11.9c0.2,2.1,0.9,5-0.6,6.9c-0.3,0.1-0.4-0.1-0.6-0.3c0.6-2.4-0.4-5-0.9-7.3l0,0
		l-1.1-2.2c-2.4,1.1-0.2,4.8-1.9,6.5c-1-0.7-0.2-2.3-0.4-3.5c-1.1,0.5-2.1,1.7-2.2,2.7c8.1,5.5,14.9,14,14.3,24.1
		c1.4-3.6,1.9-7.8,1.2-11.4C94.1,197.3,93.8,198,93.3,198.5z"/>
	<path class="st1" d="M224.3,183.2c-0.4-1.1-1.3-1.9-2.2-2.5c-0.6,1.1,0.5,2.4-0.3,3.4c-2-1.5,0.3-4.9-1.9-6.5
		c-2.1,2.5-2.3,6.1-2.1,9.4l-0.3,0.3c-2.2-1.5-0.9-4.2-1.1-6.5c-2.4,3.2-3.3,7.5-2.8,11.5c-0.1,0.3-0.4,0.6-0.8,0.4
		c-1.4-1.7-0.6-4.2-0.6-6.5c-1.9,2.2-2.1,5.2-2.1,7.9c-0.8,1.4,0.9,3.2-0.3,3.9c-0.8-0.4-0.9-1.4-1.1-2.2c-0.7,4.2-0.1,8.7,1.2,11.8
		C209.3,197.3,216.2,189,224.3,183.2z"/>
	<path class="st1" d="M103.4,182.9c-1.2,1.2-1.6,2.7-2.8,3.7c-1,0.8-2.4,0.5-3.3,1.2l0.9,0.1C100.9,187.8,102.2,185,103.4,182.9z"/>
	<path class="st1" d="M101.3,189.6c0.2-0.9,1.3-1.3,1.2-2.3C102.2,188.2,100.5,188.6,101.3,189.6z"/>
	<path class="st1" d="M104.7,186.8c-0.8,1.9-2,3.9-3.5,5.2C102.8,190.8,104.7,188.9,104.7,186.8z"/>
	<path class="st1" d="M200.1,186.7c0.4,1.1,1.1,1.9,1.7,2.9C202.7,188,200.4,187.8,200.1,186.7z"/>
	<path class="st1" d="M203.4,189.6v0.6c0.1,0.1,0.2,0.4,0.4,0.3v-0.6C203.7,189.7,203.6,189.5,203.4,189.6z"/>
	<path class="st1" d="M99.3,190.9l0.4-0.9h-0.3C99.3,190.3,98.9,190.7,99.3,190.9z"/>
	<path class="st1" d="M131,46.8c-0.2,4.2-0.2,8.3,0,12.9c0.3,0,0.6,0.1,0.7-0.1c0.1-3.7,0.2-8.3,0.1-12.2v0
		C131.8,46.8,131.3,46.8,131,46.8z"/>
	<path class="st1" d="M89.2,100.9c-0.6-0.8-2.4-1-2.4-1v0l0.1,0.6c0.5,0.1,1.2,0.4,1.8,1.4c0.6,1,1.7,2.4,3.6,2.4
		c2,0,1.4-1.1,1.4-1.1C91.5,104.3,89.9,101.7,89.2,100.9z"/>
	<path class="st1" d="M211.9,102.2c-1.2,1.6-2,1.1-2.4,0.9c-0.3-0.2-1-0.1-0.8,0.4c0.1,0.5-0.1,0.7,1.3,0.7c1.4,0,3-1.6,3-1.6
		c0.1-0.2,0-0.8,1-1.2c1-0.4,1.6-1.6,1.6-1.6v0C215,99.6,213.1,100.6,211.9,102.2z"/>
	<path class="st1" d="M102.7,144.2c0.9,0.8,2.4,0.4,3.6,0.3c2.1,2.4,1.5,6,1.7,9.3c1.4,1.4,2.4,3.2,2.2,5.1c2,4.2-1.3,8.6,0.3,13.2
		c0.1,2.9-0.3,6-0.8,8.7c3.1-12.1,8.2-24.5,4.7-37.6l0,0c-1.2-3.9-4.3-8-8.7-8.5C104.7,137.8,103.5,140.9,102.7,144.2z"/>
	<path class="st1" d="M134.3,8.2c0.4,1-0.2,1.9-0.4,2.8c0.4-0.1,0.8-0.3,1.2-0.7c0.2-0.7,0.4-1.8-0.1-2.4v0
		c-0.4-0.7-0.9-1.3-1.6-1.9c-1.9-1.2-3.8,0.2-5.4,1.1c-0.7,1.1-0.9,2.4-0.6,3.7c0.4,0.9,1.1,1.5,1.9,1.9c-0.1-1.4-2-2.9-0.9-4.7
		c0.6-1,1.7-1.8,2.9-1.9C132.6,6.1,133.5,7.3,134.3,8.2z"/>
	<path class="st1" d="M130.8,8.9c-0.4,9.1,0.1,17.7,0.1,27.7c0.6,0.1,0.7-0.7,1.1-1.1c0.1-8.3-0.2-16-0.4-24.1l0.4-1.9
		C132.1,8.9,131.3,8.9,130.8,8.9z"/>
	<polygon class="st1" points="54.4,181.1 54.4,181.1 54.4,181.1 	"/>
	<path class="st1" d="M59.1,165.3c-1,1.6-2.7,2.4-3.9,3.6c0.4,1.2,1.4,2.2,1.2,3.6c0,2.2-1.9,4.1-3.7,5c0.9,1.1,1.1,2.4,1.7,3.7
		C56,176,57.1,170.4,59.1,165.3z"/>
	<path class="st1" d="M51.5,187c0.6,0.4,1.2,1.7,1.6,1.7c0.4-1.3,0.4-2.9,0.6-4.3C53.2,185.2,52.2,186.3,51.5,187z"/>
	<polygon class="st1" points="204,193.3 204,193.3 204,193.3 	"/>
	<path class="st1" d="M151.8,253.7c10.7-12.8,25.7-18.5,38.5-27.8c10.2-6,15.3-16.6,14.4-28.7c0-1.2,0-3-0.6-3.9
		c-1.2,0.6-2.8,0.6-3.9-0.4l0.5,1.6c-1,1.4-2.6,0-3.9,0c1.2,9.4-2.2,18.2-9.3,24.5c-10.7,8.2-23.7,12.2-33.7,21.9
		c-0.9,0.6-0.9,2.2-2.2,2.2c-8.8-9.1-19.7-14.2-30.1-19.9c-10.5-5.6-16.5-16.1-15.2-28.3c-1.1,0.4-2,0.7-3.2,0.6
		c-0.9-0.5-0.3-1.4-0.4-1.9l-0.6,0.3c-1.1,0.5-2.4-0.4-3.2,0.1c-0.9,1.9,0.2,4.8-0.4,6.9c-0.2,11.9,6.5,21.1,16.8,26.9
		c1.6,1.5,3.7,2.3,5.4,3.6c2.8,1.4,5.2,3.3,8.1,4.5c7.8,5.2,16.7,10.1,22.7,17.9L151.8,253.7z"/>
	<path class="st1" d="M128.5,224.4c0,0,10.5,5.7,11.9,6.8c1.4,1.1,1.6,0.6,1.6,0.6v-92.9c-3.3,1.8-13.3,3.4-13.3,3.4L128.5,224.4z"
		/>
	<path class="st1" d="M160.8,138.8l0.1,93.4c1.4-1,13.2-7.6,13.2-7.6v-81.9c-0.2-0.8-2.5-1.1-5.3-1.5
		C165.9,140.8,160.8,138.8,160.8,138.8z"/>
	<path class="st1" d="M130.8,68c0,0,0,29.8,0,33c0,3.2,0.4,9.2,0.4,9.2l0.4-3.5L131.5,67v0C130.8,67,130.8,68,130.8,68z"/>
</g>
</svg>
