<?xml version="1.0" encoding="utf-8"?>
<!-- Generator: Adobe Illustrator 24.0.1, SVG Export Plug-In . SVG Version: 6.00 Build 0)  -->
<svg version="1.1" id="Layer_1" xmlns="http://www.w3.org/2000/svg" xmlns:xlink="http://www.w3.org/1999/xlink" x="0px" y="0px"
	 viewBox="0 0 290 339.3" style="enable-background:new 0 0 290 339.3;" xml:space="preserve">
<style type="text/css">
	.st0{fill:none;}
	.st1{fill:#FFFFFF;}
</style>
<g>
	<path class="st0" d="M141,35.5c-0.2,0-0.3-0.1-0.5-0.1C140.7,35.4,140.9,35.4,141,35.5z"/>
	<path class="st0" d="M142.8,36.2c-0.3-0.2-0.5-0.3-0.8-0.4C142.2,35.9,142.5,36.1,142.8,36.2z"/>
	<path class="st0" d="M141.8,35.7c-0.2-0.1-0.3-0.1-0.5-0.2C141.4,35.6,141.6,35.6,141.8,35.7z"/>
	<path class="st0" d="M139.6,35.5c0.2,0,0.5-0.1,0.7-0.1c0,0,0,0,0,0C140.1,35.4,139.9,35.4,139.6,35.5z"/>
	<path class="st1" d="M6.5,8.9v164.3c0,36,14.6,70.5,42.1,99.8c24.9,26.6,58.6,46.6,94.9,56.5l2.7,0.6l3-0.3l0.1,0
		c10.7-1.5,24.5-7.5,28.5-9.3c14.7-6.6,28.7-15.1,41.4-25c36.8-28.8,59-67.7,64.2-112.3l0.1-174.4H6.5z M271.8,181.9
		c-11.5,99.3-108.9,134.2-125.4,136.5C78.3,299.9,18.2,242.6,18.2,173.2l0-152.8h253.6V181.9z"/>
	<polygon class="st1" points="157.4,51 157.4,51 157.4,51.1 	"/>
	<path class="st1" d="M180,87.2c0.3,0,0.5-0.1,0.8-0.2l0.1-0.1v-1.5l0-0.1c-0.3-0.7-1.4-2-2.3-2.1c-0.2,0-0.3,0-0.4,0v0
		c-0.4,0.1-0.7,0.5-0.8,1.3l0,0.1l0,0.1C177.9,85.6,178.7,87.2,180,87.2z M178.3,83.6L178.3,83.6c0.1,0,0.2,0,0.3,0
		c0.7,0.2,1.7,1.2,2,1.9v1.2c-1.2,0.5-2-0.8-2.7-2.3C177.9,83.9,178,83.7,178.3,83.6z"/>
	<path class="st1" d="M113.6,91.1c1,0.9,2,1.8,4,0.9l0.1-0.1v-1l-0.1-0.1c-0.3-0.2-0.7-0.3-1-0.5c-0.5-0.2-1-0.4-1.2-0.7
		c-0.1-0.2,0-0.3,0.1-0.6c2.4-1.2,3.3-0.2,4.5,1c1,1.1,2.1,2.2,4.3,2.2c0.2,0,0.4,0,0.6,0l0.1,0l0,0c0.5-0.3,0.7-0.7,0.7-1.1
		c0-0.7-0.8-1.2-1.6-1.8c-0.7-0.5-1.4-1-1.6-1.6l0-0.1l-0.1,0c-1.2-0.4-1.9-1.3-2.7-2.2c-1-1.2-2-2.4-4.1-2.5v0
		c-0.6,0-1.2,0-1.8,0.2l-0.1,0l0,0c-2.4,2.1-2.5,4-1.7,6.6l0,0.1l0.1,0C112.6,90.2,113.1,90.7,113.6,91.1z M113.8,83.6
		c0.6-0.1,1.2-0.2,1.7-0.1c2,0.1,2.9,1.2,3.8,2.4c0.7,0.9,1.5,1.8,2.8,2.3c0.2,0.6,1,1.2,1.7,1.7c0.7,0.5,1.5,1,1.5,1.5
		c0,0.2-0.2,0.5-0.5,0.7c-2.4,0.2-3.5-1-4.5-2.1c-0.8-0.8-1.5-1.7-2.8-1.7c-0.6,0-1.3,0.2-2.2,0.6l-0.1,0l0,0.1
		c-0.2,0.4-0.2,0.7-0.1,1c0.2,0.5,0.8,0.7,1.4,0.9c0.3,0.1,0.6,0.2,0.8,0.4v0.5c-1.7,0.7-2.5-0.1-3.5-0.9c-0.5-0.4-1-0.9-1.7-1.1
		C111.5,87.2,111.6,85.5,113.8,83.6z"/>
	<path class="st1" d="M37.6,203.4c0.3,4.3,2.4,9.5,3.7,12.3l-1.2,3.9c-1,3.3,0.1,10.6,1.6,15.6c0.3,1,0.6,1.9,0.9,2.6
		c0.3,0.8,0.6,1.4,1,1.9l0,0c1.5,2.3,3.2,2.7,6.1,3.5c1.4,0.4,3.2,0.8,5.3,1.6c4.5,1.6,12.4,5.7,20.5,11.2c1.6,1,3.2,2.2,4.7,3.3
		c1.6,1.1,3.1,2.3,4.6,3.6l0,0c4.1,3.3,12.4,10,23.3,15.7c10.9,5.8,24.4,10.7,38.7,10.6c13.2-0.1,23.6-2.7,31.9-6.2
		c8.3-3.5,14.3-8,18.5-11.9c5.9-5.5,15.1-12.5,22.5-17.6c1.4-1,2.8-1.9,4.1-2.7c1.2-0.8,2.4-1.5,3.4-2.1c4-2.4,8.6-3.1,12.1-3.6
		c2.7-0.4,4.9-0.7,5.9-1.8l0.1-0.1h0c1.5-1.6,3.2-5.1,4.5-9.3c0.2-0.8,0.4-1.7,0.6-2.5c0.2-0.8,0.4-1.7,0.5-2.7
		c0.7-4.5-0.5-8-1.3-9.9l0.1-0.8c0.6-1.2,4.1-8.4,4.5-14h0c0.4-6-1-11.7-1-11.7c0-0.1-0.1-0.2-0.1-0.2c0.3-2.6,0.5-6.7-0.3-9l0,0
		c-0.2-0.5-0.4-1-0.7-1.6c-0.3-0.5-0.7-1.1-1-1.6c-2.1-2.8-5.3-5.4-8.5-5.4c-0.7,0-1.3,0.1-2,0.3c-0.6,0.2-1.3,0.5-1.9,0.8
		c-3.1,1.8-6,5.3-6.6,7.7l0,0c-0.6,2.2-0.1,4.8,0.3,7.3c0.2,1.3,0.4,2.5,0.5,3.6c0,1.9-0.1,4.5-0.2,5.8c-0.2,0-0.4,0.1-0.5,0.1
		c-3.3,0.6-6.1,1.1-7.1,1.5h0c-0.4,0.1-0.8,0.3-1.2,0.5c-0.4,0.2-0.9,0.4-1.4,0.7c-2.6,1.5-5.6,3.9-6,6.5v0
		c-0.1,0.5-0.1,1.1-0.1,1.7c0,0.7,0,1.4,0.1,2.2c0.2,3.4,0.8,7.8,1.5,9.8c-2.2,1.2-4.3,2.6-6.6,4.1c-6,4.1-12.2,9-18,13.8
		c-8.3,6.9-21.8,15.1-33.4,19.3c-2.2,0.8-4.4,1.5-6.4,1.9c-2,0.5-3.9,0.7-5.6,0.8l0,0c-7.5,0.2-16.8-3.6-26.6-9.3
		c-9.9-5.8-20.3-13.6-29.7-21.4c-5.3-4.3-11.3-7.6-17.3-10.2c0.6-2.1,1.2-6.2,1.4-9.4c0-0.8,0.1-1.5,0.1-2.2c0-0.7,0-1.3-0.1-1.7v0
		c-0.4-2.6-3.4-5-6-6.5c-0.5-0.3-1-0.5-1.4-0.7c-0.4-0.2-0.8-0.4-1.2-0.5h0c-1-0.4-3.8-0.9-7.1-1.5c-0.2,0-0.4-0.1-0.5-0.1
		c0-1.3-0.1-4-0.2-5.8c0.1-1.1,0.3-2.3,0.5-3.6c0.1-0.5,0.2-0.9,0.2-1.4l0.1-0.3l0,0c0.3-2,0.5-4,0-5.7v0c-0.6-2.4-3.5-5.9-6.6-7.7
		c-0.6-0.4-1.3-0.6-1.9-0.8c-0.7-0.2-1.3-0.3-2-0.3h0c-3.1,0-6.4,2.6-8.5,5.4c-0.4,0.5-0.7,1.1-1,1.6c-0.3,0.5-0.6,1.1-0.7,1.6v0
		c-0.8,2.3-0.6,6.3-0.4,8.9l-0.1,0.3C38.6,191.8,37.2,197.4,37.6,203.4z M233.9,183.9L233.9,183.9c0.5-2,3-4.9,5.7-6.5
		c0.5-0.3,1-0.5,1.5-0.7c0.5-0.1,0.9-0.2,1.3-0.2v0c2.4,0,5.1,2.2,6.8,4.5c0.4,0.5,0.7,0.9,0.9,1.4c0.3,0.4,0.5,0.9,0.6,1.3h0
		c0.8,2.1,0.4,6.1,0.2,8.5c-0.8,0.7-2.4,2.2-4.1,3.5c-0.1-0.3-0.3-0.6-0.5-0.9c-0.7-0.9-1.6-1.9-2.9-3.2c-2.2-2.2-7.4-2.5-9.3-2.5
		C233.8,187.2,233.6,185.4,233.9,183.9z M234.6,191.2c2,0.1,5.7,0.4,7.3,1.9h0c1.2,1.2,2.1,2.1,2.7,2.9c0.2,0.3,0.4,0.6,0.5,0.9
		c-0.5,0.3-0.9,0.6-1.4,0.7h0l-0.1,0c-1.5,0.6-5.2,1.4-8.9,2c0,0-0.1,0-0.1,0c0.1-1.6,0.2-4.7,0.2-6.2
		C234.8,192.6,234.7,191.8,234.6,191.2z M218.4,209.7L218.4,209.7c0.2-1.8,2.8-3.7,4.9-5c0.4-0.2,0.9-0.5,1.3-0.7
		c0.4-0.2,0.7-0.3,1-0.4c0.8-0.3,3.6-0.8,6.8-1.4c4.6-0.8,10-1.8,12.1-2.7l0,0l0,0h0c2.3-1,5.3-3.5,7-5c0.4,2,0.9,5.6,0.6,9.3
		c-0.3,5-3.4,11.5-4.2,13c-0.9-0.1-9.6-0.9-19.5,1.7c-2.8,0.7-5.8,2-8.8,3.6c-0.5-1.7-1.1-5.7-1.2-8.9c0-0.7-0.1-1.4-0.1-2
		C218.3,210.6,218.4,210.1,218.4,209.7z M90.1,234L90.1,234c9.5,7.8,19.9,15.7,30,21.6c10.1,5.9,19.8,9.8,27.7,9.6h0
		c1.9-0.1,3.9-0.4,6-0.8c2.1-0.5,4.4-1.2,6.7-2c11.8-4.3,25.6-12.7,34-19.7c5.8-4.8,11.9-9.7,17.8-13.7c5.9-4,11.6-7.1,16.6-8.4
		c8.7-2.2,16.3-1.8,18.4-1.7c0.6,1.2,2.3,4.7,1.6,9.5v0c-0.1,0.8-0.3,1.7-0.5,2.5c-0.2,0.8-0.4,1.7-0.6,2.4
		c-1.1,3.9-2.6,7.1-3.9,8.4v0l0,0v0l0,0c-0.6,0.6-2.5,0.9-4.8,1.2c-3.7,0.6-8.4,1.3-12.8,3.9c-1,0.6-2.2,1.3-3.5,2.2
		c-1.3,0.8-2.7,1.8-4.1,2.8c-7.5,5.2-16.7,12.2-22.7,17.8c-4.1,3.8-9.9,8.1-17.9,11.5c-8,3.4-18.2,5.9-31.1,6
		c-13.9,0.1-27.1-4.7-37.8-10.3c-10.7-5.7-18.9-12.2-23-15.5v0c-1.5-1.2-3.1-2.5-4.7-3.7c-1.6-1.2-3.2-2.3-4.8-3.4
		c-8.3-5.6-16.3-9.7-20.9-11.4c-2.3-0.8-4-1.3-5.5-1.7c-2.4-0.6-3.9-1-4.9-2.6l0,0c-0.2-0.4-0.5-0.9-0.7-1.5
		c-0.3-0.7-0.6-1.5-0.8-2.4c-1.4-4.7-2.5-11.5-1.6-14.4l1.1-3.5C48,217.1,73.3,220.1,90.1,234z M41,183.3L41,183.3
		c0.1-0.4,0.4-0.8,0.6-1.3c0.3-0.4,0.6-0.9,0.9-1.4c1.7-2.3,4.4-4.6,6.8-4.6h0c0.4,0,0.9,0.1,1.3,0.2c0.5,0.2,1,0.4,1.5,0.7
		c2.7,1.5,5.1,4.5,5.6,6.4v0c0.4,1.4,0.2,3.3-0.1,5.2c-1.9,0-7.1,0.3-9.3,2.5h0c-1.3,1.2-2.2,2.2-2.9,3.2c-0.2,0.3-0.4,0.6-0.5,0.9
		c-1.7-1.3-3.3-2.7-4.1-3.5C40.6,189.4,40.2,185.3,41,183.3z M57.1,199.2C57.1,199.2,57.1,199.2,57.1,199.2c-3.8-0.7-7.6-1.4-9-2.1
		l0,0h0c-0.4-0.2-0.9-0.4-1.4-0.7c0.1-0.3,0.2-0.6,0.5-0.9c0.5-0.8,1.5-1.7,2.7-2.9c1.5-1.5,5.3-1.9,7.3-1.9
		c-0.1,0.6-0.2,1.4-0.2,2.4C57,194.6,57.1,197.6,57.1,199.2z M40.3,194c1.7,1.5,4.7,4,7,5l0,0c2,0.9,7.5,1.9,12.1,2.7
		c3.2,0.6,5.9,1.1,6.8,1.4c0.3,0.1,0.6,0.2,1,0.4c0.4,0.2,0.8,0.4,1.3,0.7c2.2,1.2,4.7,3.2,5,5v0c0,0.4,0.1,0.9,0.1,1.5
		c0,0.6,0,1.3-0.1,2c-0.2,3.1-0.7,7-1.2,8.8c-13.6-5.3-26.5-6.6-29.2-6.9c-1.2-2.7-3.1-7.4-3.3-11.3l0,0
		C39.4,199.6,39.9,196,40.3,194z"/>
	<path class="st1" d="M64.8,237c0.6-1.5,0-2.5-0.7-3.2c0.9-0.1,1.6-0.5,2-1.5c0.4-1,0.4-2.8-2.2-3.8l-5.5-2.2l-4,10.1l5.7,2.3
		C61.8,239.4,64,239.1,64.8,237z M60.4,230l1.6,0.6c0.6,0.3,1,0.6,0.8,1.1c-0.3,0.7-0.7,0.7-1.4,0.4l-1.6-0.7L60.4,230z M59.1,233.4
		l1.9,0.8c0.7,0.3,1,0.7,0.7,1.3c-0.3,0.8-0.9,0.7-1.6,0.5l-1.8-0.7L59.1,233.4z"/>
	<path class="st1" d="M68.3,242.6c3,1.4,5.1,0.8,6.3-1.9l2.8-6l-3-1.4l-2.5,5.4c-0.5,1-1,2.3-2.5,1.6c-1.5-0.7-0.9-1.9-0.4-2.9
		l2.5-5.4l-3-1.4l-2.8,6C64.4,239.2,65.3,241.2,68.3,242.6z"/>
	<path class="st1" d="M76.4,246.4l1.9-3.3l1.5,0.9c1.1,0.7,0.7,1.6,0.2,2.6c-0.2,0.5-0.5,1-0.6,1.6l2.9,1.7c0-0.6,0.6-1.7,0.8-2.2
		c0.6-1.2,0.6-2.4,0-3.1c1.2,0.2,2.2-0.6,2.8-1.5c1-1.8,0.1-3.5-1.5-4.5l-5.5-3.2l-5.4,9.4L76.4,246.4z M80.5,239.3l1.3,0.8
		c1.1,0.6,1.2,1.2,0.9,1.8c-0.5,0.8-1.3,0.5-1.8,0.2l-1.5-0.9L80.5,239.3z"/>
	<polygon class="st1" points="85,251.9 88.7,247.3 88.8,247.3 87.6,254 90.1,256.1 96.9,247.7 94.5,245.7 90.8,250.2 90.8,250.2 
		92,243.7 89.4,241.5 82.5,249.9 	"/>
	<polygon class="st1" points="97.6,262 99.3,259.8 95.5,256.9 100.4,250.5 97.8,248.4 91.1,257 	"/>
	<polygon class="st1" points="106,267.8 107.6,265.5 102.8,262.2 103.5,261.1 107.8,264 109.2,261.8 105,259 105.7,257.8 110.4,261 
		111.3,259.6 111.3,266.2 109.4,269.7 112.3,271.3 114.2,267.8 120.9,263.7 117.8,261.9 114.2,264.5 114.5,260.2 111.9,258.7 
		111.9,258.7 104.5,253.7 98.5,262.7 	"/>
	<polygon class="st1" points="123.5,276.3 124.9,272.4 129,273.9 129.8,271.5 125.8,270 126.2,268.7 131,270.4 131.9,267.8 124,265 
		120.4,275.2 	"/>
	<path class="st1" d="M130.4,273.1c-0.6,3.2,1.1,6,4.3,6.6c3.2,0.6,5.8-1.3,6.5-4.5c0.6-3.2-1.1-6-4.3-6.6h0
		C133.6,267.9,131,269.8,130.4,273.1z M133.7,273.7c0.5-2.4,1.9-2.7,2.7-2.5c0.8,0.2,2,1,1.5,3.3c-0.5,2.4-1.9,2.7-2.7,2.5
		C134.4,276.9,133.2,276.1,133.7,273.7z"/>
	<path class="st1" d="M147.1,281.1c3.3,0.1,5.5-2.3,5.6-5.6c0.1-3.3-2.1-5.7-5.4-5.8c-3.3-0.1-5.5,2.3-5.6,5.6
		C141.6,278.6,143.8,281,147.1,281.1z M147.2,272.4c0.9,0,2.1,0.6,2.1,3c0,2.4-1.4,3-2.2,2.9c-0.8,0-2.1-0.6-2.1-3
		C145.1,272.9,146.4,272.4,147.2,272.4z"/>
	<polygon class="st1" points="155.7,272.3 157,280.3 160.3,279.7 159,271.8 162,271.3 161.5,268.5 152.2,270 152.7,272.8 	"/>
	<path class="st1" d="M171.3,276.5c1.8-0.6,3.2-2.3,2.5-4.4c-0.5-1.5-1.7-1.9-2.7-1.9c0.6-0.7,0.9-1.4,0.5-2.5
		c-0.4-1-1.5-2.4-4.2-1.4l-5.6,2l3.7,10.2L171.3,276.5z M170.5,273c0.3,0.8-0.2,1.2-0.9,1.4l-1.8,0.7l-0.7-1.9l2-0.7
		C169.8,272.2,170.3,272.4,170.5,273z M167.5,269.1c0.6-0.2,1.1-0.2,1.3,0.3c0.2,0.7-0.1,1-0.8,1.2l-1.6,0.6l-0.6-1.5L167.5,269.1z"
		/>
	<path class="st1" d="M177.8,273.7l-0.3-1.6l3-1.6l1.1,1.2l3.1-1.6l-8.5-7.8l-2.9,1.5l1.5,11.5L177.8,273.7z M176.4,266.3l2.4,2.5h0
		l-1.8,1L176.4,266.3L176.4,266.3z"/>
	<polygon class="st1" points="192,265.1 190.5,262.8 186.5,265.5 182,258.7 179.2,260.6 185.2,269.6 	"/>
	<polygon class="st1" points="199.3,259.6 197.7,257.4 193.8,260.3 189,253.8 186.3,255.8 192.8,264.5 	"/>
	<path class="st1" d="M207.5,253.5c2.5-2,2.4-4.9,1.1-6.6l-2.6,2c0.5,0.9,0.6,1.8-0.2,2.5c-1.2,1-2.6,0.1-3.5-1
		c-0.9-1.1-1.5-2.6-0.2-3.6c1.1-0.9,2.1-0.1,2.4,0.2l2.5-2c-1.9-1.9-4.2-2.2-6.5-0.3c-2.6,2.1-2.9,5.2-0.8,7.9
		C201.7,254.9,204.8,255.6,207.5,253.5z"/>
	<polygon class="st1" points="218.1,244.9 216.5,242.6 212.6,245.5 207.7,239.1 205.1,241.2 211.7,249.8 	"/>
	<path class="st1" d="M222.7,242.2c2.8-1.7,3.5-3.8,1.9-6.3l-3.4-5.7l-2.9,1.7l3,5.1c0.6,1,1.3,2.1-0.1,2.9
		c-1.4,0.8-2.1-0.4-2.7-1.3l-3-5.1l-2.9,1.7l3.4,5.7C217.7,243.5,219.9,243.9,222.7,242.2z"/>
	<path class="st1" d="M233,237.2c1.8-0.6,3.2-2.3,2.5-4.4c-0.5-1.5-1.7-1.9-2.7-1.9c0.6-0.7,0.9-1.4,0.5-2.5c-0.4-1-1.5-2.4-4.2-1.4
		l-5.6,2l3.7,10.2L233,237.2z M232.2,233.7c0.3,0.8-0.2,1.2-0.9,1.4l-1.8,0.7l-0.7-1.9l2-0.7C231.5,232.9,232,233.1,232.2,233.7z
		 M229.3,229.8c0.6-0.2,1.1-0.2,1.3,0.3c0.2,0.7-0.1,1-0.8,1.2l-1.7,0.6l-0.5-1.5L229.3,229.8z"/>
	<path class="st1" d="M113.1,108.7c0-0.2-0.1-0.5-0.1-0.7l2.9-5c0.2-0.3,0.1-0.8-0.3-1c-0.3-0.2-0.8-0.1-1,0.3l-2.2,3.8
		c0-0.1-0.1-0.2-0.1-0.3c-0.9-2.5-2.2-4.1-3.6-4.1c-1.4,0-2.6,1.4-3.5,3.8l-2.1-3.7c-0.2-0.3-0.6-0.4-1-0.3c-0.3,0.2-0.4,0.6-0.3,1
		l2.7,4.8c-0.1,0.3-0.2,0.6-0.2,0.9c-6.4-1.2-11.3-1.1-11.8,0.6c-0.4,1.3,1.9,3.1,5.6,4.9c-3.9,1.9-6.3,3.7-6.1,5
		c0.2,1.7,5.1,1.7,11.8,0.3c0.1,0.6,0.1,1.1,0.2,1.6l-3,5.3c-0.2,0.3-0.1,0.8,0.3,1c0.3,0.2,0.8,0.1,1-0.3l2.2-3.9
		c0.4,1.8,1,3.3,1.7,4.3c0.3,0.5,0.6,0.8,1,1.1c0.4,0.3,0.9,0.5,1.4,0.5c1.4,0,2.7-1.6,3.6-4.1c0.3-0.8,0.5-1.6,0.7-2.6l2.3,4.1
		c0.2,0.3,0.6,0.4,0.9,0.3c0.3-0.2,0.5-0.6,0.3-0.9l-3.2-5.6c0.1-0.4,0.1-0.8,0.1-1.3c6.1,1.1,10.8,0.9,11.2-0.7h0
		c0.3-1.1-1.5-2.8-4.6-4.4c3.5-1.8,5.6-3.5,5.4-4.6C125.4,107.1,120.1,107.1,113.1,108.7z M106.1,106.6c0,0,0.6-2,1.4-2.5
		c0.8-0.5,1.5-0.9,2.4-0.1c0.8,0.8,0.9,1.2,1.1,1.9c0.2,0.7,0.2,1,0.2,1H106L106.1,106.6z M109.9,127.4c-0.6,0-1.3,0-1.6,0
		c-0.2,0-0.6,0-1-0.1c-0.2-0.2-0.4-0.4-0.5-0.7c-0.2-0.3-0.4-0.6-0.5-0.9c0.7,0.2,2.2,0.5,2.7,0.4c0.5-0.1,1.4-0.2,2-0.3
		C110.7,126.5,110.3,127,109.9,127.4z M111.7,124.3c-0.8,0.2-2.5,0.3-2.9,0.3c-0.4,0-2.2-0.2-3-0.3c-0.3-0.8-0.5-1.8-0.7-2.8
		c0.8,0.2,2.6,0.6,3.7,0.5c1.1,0,2.9-0.4,3.7-0.5C112.2,122.5,111.9,123.4,111.7,124.3z M112.7,119.5c-1,0.2-3.5,0.6-4.1,0.6
		c-0.6,0-3-0.3-3.9-0.4c0-0.3-0.1-0.6-0.1-0.9c1.5-0.3,3-0.7,4.6-1.2c1.2,0.3,2.4,0.6,3.6,0.8C112.8,118.8,112.7,119.2,112.7,119.5z
		"/>
	<path class="st1" d="M145.5,107.7c0.7,1.3-0.2,2.5,0.5,3.8c0.5,0.2,1.3,0.1,1.5-0.4c0.6-2.1-0.2-4.3,0.2-6.6l0.2-0.3h0
		c-0.3-0.9,0.2-2.8-1.5-2.8C144.8,103.2,145.8,105.7,145.5,107.7z"/>
	<path class="st1" d="M143.4,112.1l0.8-0.2c0.2-0.1,0.6-0.4,0.6-0.7c-0.1-2.8,0.2-5.9-0.3-8.3h0c-0.2-0.2-0.4-0.3-0.7-0.3
		c-0.7,0.6-0.9,1.3-1.1,2.3C142.9,107.4,142.1,110,143.4,112.1z"/>
	<path class="st1" d="M149.7,111.7c0.5-0.2,0.2-0.8,0.6-1.2c-0.2-2.8,0.3-5.1-0.1-7.5c-0.8-0.6-1.2,0.2-1.5,0.7
		c-0.3,2.6-0.1,5,0,7.4C148.8,111.5,149.2,111.8,149.7,111.7z"/>
	<path class="st1" d="M154.3,111.7c-1.4,0.3-1-1.6-1.9-1.7c-1.4,1.4-0.6,3.2-0.7,5c-0.5,0.7-1.8,0.6-2.5,0.9
		c-1.1,0.5-2.4,0.5-3.1,1.6l-0.2,2.7c0.4,0.4,0,0.8-0.3,1c-0.9-1.4-0.4-3.2-0.4-4.9c0.6-0.6,1.4-0.6,2.2-0.9c1-0.6,2.8-0.2,3.1-1.5
		c-0.8-0.9-2.4-0.3-3.6-0.5c-0.7,0.6-1.8,0.1-2.6,0.4c-0.9-0.1-1.6,0.5-2.7,0.3c-0.4-0.2-0.9-0.5-1-1c0.3-0.7,1-0.3,1.2-0.8
		c0.3-2,0.3-4,0.3-6.1l0,0c-0.4-0.3,0.2-1.6-0.9-1.3c-0.7,0.9-0.8,2.4-0.8,3.6c-0.6,4.7-1,9.8,0.2,14.7c0.7,0.4,1.3,0.9,1.8,1.5
		c0.2,1.2,0.3,2.7,0.3,3.7c0.5,0.3,0.9-0.1,1.4-0.1c0.9,0.3,2,0.1,2.8,0.6c0.9-0.3,2-0.6,3-0.6c0.6-0.9,0.6-1.9,0.4-2.9
		c0-0.8-0.8-0.4-1-1c0.2-0.4,0.4-0.6,0.8-0.8c2.2-0.1,3.5-2.3,4.1-4c-0.1-1.9-0.1-4.1-0.1-6C154.3,113,154.5,112.2,154.3,111.7z"/>
	<path class="st1" d="M189.2,108.7c0-0.2-0.1-0.5-0.1-0.7l2.9-5c0.2-0.3,0.1-0.8-0.3-1c-0.3-0.2-0.8-0.1-1,0.3l-2.2,3.8
		c0-0.1-0.1-0.2-0.1-0.3c-0.9-2.5-2.2-4.1-3.6-4.1c-1.4,0-2.6,1.4-3.5,3.8l-2.1-3.7c-0.2-0.3-0.6-0.4-1-0.3c-0.3,0.2-0.4,0.6-0.3,1
		l2.7,4.8c-0.1,0.3-0.1,0.6-0.2,0.9c-6.4-1.2-11.3-1.1-11.8,0.6c-0.3,1.3,1.9,3.1,5.6,4.9c-3.9,1.9-6.3,3.7-6.1,5
		c0.2,1.7,5.2,1.7,11.8,0.3c0.1,0.6,0.1,1.1,0.2,1.6l-3,5.3c-0.2,0.3-0.1,0.8,0.3,1c0.3,0.2,0.8,0.1,1-0.3l2.2-3.9
		c0.4,1.8,1,3.3,1.7,4.3c0.3,0.5,0.6,0.8,1,1.1c0.4,0.3,0.9,0.5,1.4,0.5c1.5,0,2.7-1.6,3.6-4.1c0.3-0.8,0.5-1.6,0.7-2.6l2.3,4.1
		c0.2,0.3,0.6,0.4,1,0.3c0.3-0.2,0.4-0.6,0.3-0.9l-3.2-5.6c0.1-0.4,0.1-0.8,0.1-1.3c6.1,1.1,10.8,0.9,11.2-0.7h0
		c0.3-1.1-1.5-2.8-4.6-4.4c3.5-1.8,5.6-3.5,5.4-4.6C201.5,107.1,196.2,107.1,189.2,108.7z M182.2,106.6c0,0,0.6-2,1.4-2.5
		c0.8-0.5,1.6-0.9,2.4-0.1c0.8,0.8,0.9,1.2,1.1,1.9c0.2,0.7,0.2,1,0.2,1h-5.2L182.2,106.6z M186,127.4c-0.6,0-1.3,0-1.6,0
		c-0.2,0-0.6,0-1-0.1c-0.2-0.2-0.4-0.4-0.5-0.7c-0.2-0.3-0.4-0.6-0.5-0.9c0.7,0.2,2.2,0.5,2.7,0.4c0.5-0.1,1.4-0.2,2-0.3
		C186.8,126.5,186.4,127,186,127.4z M187.8,124.3c-0.8,0.2-2.5,0.3-2.9,0.3c-0.4,0-2.2-0.2-3-0.3c-0.3-0.8-0.5-1.7-0.7-2.8
		c0.8,0.2,2.6,0.6,3.7,0.5l3.7-0.5C188.3,122.5,188.1,123.4,187.8,124.3z M188.8,119.5c-1,0.2-3.5,0.6-4.1,0.6c-0.6,0-3-0.3-3.9-0.4
		c0-0.3-0.1-0.6-0.1-0.9c1.5-0.3,3-0.7,4.7-1.2c1.2,0.3,2.4,0.6,3.6,0.8C188.9,118.8,188.9,119.2,188.8,119.5z"/>
	<path class="st1" d="M114,240.4c15.9,9.8,31.1,13.7,31.8,13.8l0.5,0.1l0.5-0.1c0,0,0,0,0,0c0,0,0.1,0,0.1,0l0.2-0.1
		c2.3-0.6,16.7-4.5,31.7-13.7c21.3-13.1,33.2-30.7,34.2-51c0.8-15.6,1.1-93.7,1.1-94.5l0-2.1l-32.8-0.1c2.9-0.4,5.1-2.8,5.1-5.8
		c0-3.2-2.5-5.7-5.6-5.9v0h-9.1c-1.1-1.1-2.6-3.4-2.6-3.4l-0.1-0.2l-1.2,1.1c-0.2,0.1-1.9,0.7-3.3,0.2c-1.5-0.6-3-3.1-3.1-3.1
		l-0.1-0.1l-6.7,2.1l-1.3-2.4c0.8-1.5,2.7-3.8,3.1-4.1c0,0,2-1.4,2-1.8c0-0.1,0-0.3-0.1-0.6c-0.1-0.3-0.2-0.7-0.3-1.1
		c-0.1-0.7-0.4-2.2-0.5-2.5c0,0,0-0.1,0-0.1c0,0,0-0.1-0.1-0.1c0.5-0.3,0.8-0.6,1.7-0.9c1.1-0.3,2.3-0.7,2.4-0.8
		c0.6-0.1,1.2-0.2,1.2-0.2l0.3-0.1l-0.4-0.5c0.6,0.3,1.5,0.8,1.7,0.8l0.2,0c0.2,0,0.4-0.1,0.5-0.2c0.2,0.1,0.4,0.2,0.8,0.3l0.1,0
		c0.6,0,1-0.7,1.5-1.2c0.3-0.4,0.6-0.7,0.6-1.1c0-0.3-0.3-0.5-0.7-0.6c-0.9-0.2-1.3-0.5-2.1-0.7c-0.3-0.1-0.4-0.2-0.6-0.3l0.7-0.1
		l0.5-0.1l-0.4-0.3c0,0-0.7-0.5-1.5-1.2c-0.8-0.7-1.7-1.5-2.1-2c-0.8-1.2-2.5-3.3-4.5-4.8v0c-2-1.5-3.9-3.1-5.7-3.5
		c-1.3-0.3-2.2-0.5-2.5-0.6c0-0.7,0.1-3.7,0.5-4.8c0.2-0.7,0.6-1.9,1-3c0.4-1.1,0.7-2.2,0.8-2.8c0-0.2,0-0.4,0-0.7
		c0-0.9-0.1-2-1.2-3.1c-1.3-1.3-2.5-1.9-4-1.8c-1.5,0-3.1,1-4.1,1.5c-0.2,0.1-0.3,0.2-0.5,0.3c0,0,0,0,0,0c-0.5,0.2-0.8,0.4-1.1,0.6
		c0.2-0.3,0.4-0.6,0.5-0.8c0.5-0.8,1.9-1.6,3.2-2.4c0.6-0.3,1.7-0.9,2.8-1.4c0.5-0.2,1-0.5,1.3-0.6l0.4-0.2l0.1-0.1l0,0l0,0l0.1-0.1
		l-0.1-0.2l-0.1,0l-0.1,0c-0.5,0.2-2.1,0.5-3.2,0.7c-0.7,0.2-1.9,0.8-2.6,1.1c0.1-0.3,0.2-0.8,0.4-1.4c0.1-0.5,0.1-1,0.1-1.5
		c0-1-0.1-1.8-0.1-1.8l0-0.3l-0.3,0.1l0,0l0,0c-0.9,0.4-3,1.8-4.1,3.1v0c-1,1.3-1.5,3.8-1.6,5.3l0,0.3l0,0.2c0,0.7-0.2,1.6-0.5,2.3
		c0,0,0,0,0,0.1c-0.1,0.1-0.2,0.2-0.2,0.2c-0.4,0.3-0.4,0.7-0.4,0.7l0.4-0.2c0,0,0,0,0,0c-0.1,0.4-0.2,0.6-0.2,0.6l0,0
		c-0.1,0.2-0.6,1-1.4,2c-0.5,0.7-0.8,2-1,3.3c-0.2,1.2-0.3,2.3-0.3,2.4l0,0.5l0.4-0.3c0,0,0.8-0.6,1.6-1.6c0.9-1,1-1.8,1.2-2.4
		c0.1-0.3,0.3-0.6,0.5-0.7l0,0c0,0,0,0,0,0c0.1,0.3,0.1,0.7,0.2,1.3c0,0.5,0.1,0.9,0.1,1.1l0.1,0.3l0.3,0.2l0.3-0.1
		c0.3-0.3,0.8-1.1,1-2.6l0-0.4c0-1.3-1-2.3-1-3c0-0.2,0.1-0.6,0.4-1c0.3-0.1,0.6-0.1,0.8-0.2c0.2,0,0.5-0.1,0.7-0.1c0,0,0,0,0,0
		c0.1,0,0.1,0,0.2,0c0.2,0,0.3,0,0.5,0.1c0.1,0,0.2,0,0.2,0.1c0.2,0,0.3,0.1,0.5,0.2c0.1,0,0.1,0.1,0.2,0.1c0.2,0.1,0.5,0.2,0.8,0.4
		c0.1,0.1,0.2,0.1,0.3,0.2c1.2,0.8,1.6,1.2,1.6,2.6c0,1.3-1.3,4-2.1,5.4c-0.8,1.4-2.2,2.8-2.5,4.4c-0.2,1.2-0.6,2.5-0.6,3.9
		c0,0.3,0,0.5,0,0.8c0.2,1.6,1.2,4,2.5,5.4c0.1,0.1,1.3,2.1,2.3,2.7c0.2,0.1,0.4,0.2,0.6,0.2c0.4,0.4,0.9,0.9,1.1,1.3
		c0.2,0.3,0.4,0.7,0.6,1.1c0.3,0.5,0.6,1.1,0.7,1.3c0,0.1,0.1,0.2,0.1,0.3c0,0,0,0,0,0c-0.3,0-1.3-0.1-2.6-0.3
		c-1.3-0.2-3.2-1.4-3.5-1.7c-0.4-0.4-1.7-1.1-2.7-1.2c-1-0.1-1.6-0.1-1.7-0.1h-0.4l0,0c-0.2,0-0.4,0-0.7,0c-0.9,0-1.8,0.1-2.8,0.4
		c-3,1-5.1,3.2-5.1,5.4c0,0.3,0,0.7,0.2,1c0.6,1.8,2.5,2.8,4.9,2.8c0.9,0,1.8-0.1,2.8-0.4c2.7-0.9,4.7-2.8,5-4.8
		c0.7,0.6,1.7,1.3,2.6,1.7c0.5,0.2,0.9,0.5,1.4,0.8c1,0.6,2,1.2,3.1,1.4c0.2,0,0.4,0.1,0.6,0.1c1.2,0.2,1.5,0.2,2.2-0.5
		c0.5-0.5,0.9-1.1,1.1-1.5c0,0.2,0.1,0.5,0.1,1c0,1-0.6,2.6-0.9,3.3c0,0.1-0.1,0.2-0.1,0.3c-0.1,0.3-0.7,1.6-1.1,2.6
		c0,0.1-0.1,0.1-0.1,0.2l-1.5,1.2l-0.5-3l-0.3,0.4c0,0-2.2,3.1-2.7,3.6c-0.4-0.1-2.3-2-3.8-3.8l-0.3-0.4l-0.1,0.5
		c-0.2,1.9-0.6,4.1-0.8,4.3c-0.2,0.2-0.9,0.5-1.3,0.6l-6.1-3.2l-4.5,4.2c-2.1-1.2-4.4-2.7-4.7-3l0-0.2l-0.2,0c-0.2,0-0.2,0-0.3,0.7
		c-0.1,0.7-0.5,2.7-0.8,3c0,0-0.1,0-0.1,0.1c0,0,0,0-0.1,0H112c-3.2,0-5.8,2.6-5.8,5.9c0,2.8,2,5.1,4.6,5.7l-31.1-0.1l0,2.1h0
		c0,3.5-0.6,84.9,0,94.8C80.8,209.7,92.7,227.3,114,240.4z M148.6,27.2C148.6,27.2,148.6,27.2,148.6,27.2L148.6,27.2L148.6,27.2z
		 M138.7,35.2c-0.5,0.1-1,0.2-1.4,0.3c0.4-0.4,1-0.9,1.8-1.3c0.5-0.3,0.9-0.5,1.3-0.7l0.3-0.2c0.2-0.1,0.4-0.2,0.6-0.3
		c0,0.2,0.1,0.4,0.1,0.6c0.1,0.5,0.4,1.2,0.7,1.7c-0.6-0.3-1.2-0.4-1.7-0.4c-0.2,0-0.5,0-0.8,0.1C139.3,35.1,139,35.2,138.7,35.2z
		 M140.2,226.9c0.7,1,0.9,2.3,1.1,3.5c0.1,0.2,0,0.6-0.4,0.5c-0.8-0.3-1.4-1-2.3-0.7c-0.6,1.2,0.8,2.4,0.2,3.7
		c-0.3,0.6-0.8,0.1-1-0.1c-0.1-0.4-0.7-0.3-1-0.5c-1,0.5-0.4,1.5-0.6,2.3c-0.7,0.4-1.4-0.7-1.9,0c-1,1.5-2.8,2-4.5,1.7
		c-0.3-0.8,0.5-1.7,1.2-2.2l0.1-0.3c-0.1-0.2-0.4-0.3-0.7-0.3c-0.9,0.4-1.6,1.3-2.6,1c-0.3-0.8,0.5-1.3,0.8-1.9
		c0.3-0.3,0.9-0.2,0.9-0.8c-1-0.6-1.7,0.4-2.6,0.6c-0.3-1.2,1.3-1.3,2-1.8c0.6,0,1.3,0,1.7,0.4c1.7,0.5,3.5-0.7,4.5-2.1
		c1.2-3.2,0.4-6,0.6-9.5c0.7-1.2,1.1-2.8,2.5-3.5h3.8c0.8,0.4,1.8,0.3,2.8,0.3c0.9,1-0.4,3.2,1.7,3c-0.7,1.5-1,3.3-1.4,4.9
		c-1.8,0.3-4-1.7-5.4,0.3C139.8,226.1,140.1,226.4,140.2,226.9z M170.9,195.8c-0.4,3-1.7,5.5-2.7,8.2c-0.4,0.8-0.5,1.5-0.8,2.3
		c-0.8-0.3-0.5-1.5-0.7-2.4c-0.3-0.5-1-0.3-1.4-0.1c-0.2-2.1,1.3-3.5,2.3-5.2c0.1-0.2-0.1-0.5-0.4-0.6c-0.9,0.1-1.3,0.2-1.9,0.8
		l-0.2-0.2c0.7-1.9,2.9-2.5,3.8-4.2c0.1-0.7,0.6-1.5,0.1-2.2c-0.1-1-1.3-1.3-2-1.7c-3.1,0.6-5.2,3.6-6.1,6.4c-0.3,1.5-1.1,2.8-1,4.5
		c-0.4,1.9,0.2,4.3,0.6,6.1c0.9,1.6,1.5,3.3,2.7,4.8c0.2,0.4,0.4,0.8,0.6,1.2h0c0.8,1.8,1.4,3.9,0.6,5.9c-0.4,1.5-1.2,3-2.8,3.7
		c-1,1.1-3.5-0.1-3.8,1.8c-0.5,1.1-0.7,2.4-0.6,3.7c0.1,0.9,1.2,1,1.8,1.3c0.4,0,0.9,0.1,1.1,0.6c-0.1,1.2,0.5,2.4,0.2,3.4
		c-0.9,0.6-1.4-1.1-2.2,0c-0.3,1.5,0.4,2.8,0.8,4c-0.8,0.4-1.3-0.4-1.9,0.4c-0.2,1.5,0.4,2.5,0.6,3.9c-1,0.5-1.9-1.1-2.4,0.4
		c0.1,0.7-0.1,1.5,0.2,2c0.2,0.7-0.5,0.8-1,0.7c-0.6-0.4-1.2-0.1-1.7-0.2c-0.7,0.2-0.9,1-1.6,1.1c-0.3,0.6-1.2,0.4-1.6,0.8l-2-0.2
		c-0.2-1.2,1.1-1.5,1.7-2.2c-0.3-0.5-0.9-0.2-1.3-0.3c-0.8,0.3-1.4,1.4-2.3,0.8c-0.5-0.2-0.9-0.6-0.6-1.1c0.7-1.4,2.2-1.3,3.5-1.4
		c-0.3-0.7-1.1-0.3-1.5-0.8c-0.9,0.3-1.7,0.6-2.7,0.5l-0.4-0.5c0.3-1.1,1.4-1.2,2.2-1.8c2.4-0.5,3.6,1.5,5.8,0.9l1.7-1.5
		c0.3-3.3,1.3-7.3-1.6-9.5c-1.8-1.6-5.2-2.9-5.2-6c-0.1-2.3,2.3-4.4,0.9-6.8c-0.1-0.7-0.6-1.1-0.8-1.7c-0.2-0.5-0.7-1-1.2-1.3
		c-0.4,0.2-0.3,0.8-0.2,1.2v0c0,0,0,0,0,0v0.1c0,0,0-0.1,0-0.1c-0.8-0.7-1.6-1.2-2.3-1.9c-1-0.8-1.8-1.8-2.3-3.1
		c0-0.4,0.4-0.6,0.6-0.7c0.6,0.1,0.9-0.5,1.5-0.6c0.6-1,0.9-2.2,1-3.3c-0.2-0.1-0.4-0.5-0.7-0.5c-0.4,0.9-0.3,2.4-1.3,3.1
		c-0.7,0.1-1.5,0.8-2.3,0.8c-1.2,0.3-0.8,3.4-2.7,1.9c-0.6,0.2-1.4-0.8-1.4,0.3c-0.1,0.5,0.3,1.3-0.4,1.5c-1.2,0.1-1.3-1.9-2.6-1.6
		c-0.7,0.5-0.4,2.2-1.5,1.6c-0.5-0.4-0.9-1.2-1.8-1.1c-1.1,0.5-1.9,1.1-3.1,0.6c0.3-0.8,0.3-1.3,0.8-1.9c0.1-0.5-0.4-0.6-0.7-0.4
		c-0.5,0.5-1.2,1-1.8,0.9c-0.4-1,0.9-1.8,1-2.9c-0.1-0.4-0.6-0.3-0.8-0.2c-0.7,0.5-0.7,1.9-1.8,1.4c-0.3-0.3,0-0.8,0-1.3
		c0.7-0.5,1.1-1.6,2.2-1.5c0.2-0.5,0.8-0.1,1.1-0.5c0.4,0.4,1.1,0.1,1.5,0.3c1.4,0.7,3.3,1.8,4.8,0.8c0.9-0.2,1.6-1.1,2.3-1.6
		c1.5-1.3,3.3-2.7,5-4c0.2-0.6-0.4-0.4-0.7-0.5c-2.2,0.8-4.2-0.2-6.1-0.9c0-1.1,1.3-0.8,1.5-1.8c-0.2-1.1-1.5-0.9-2.3-1.3
		c0.2-0.9,2-1.7,0.8-2.7c-0.6,0-1.2-0.2-1.6-0.6v-0.3c0.4-0.2,0.8-0.7,1-1c0.8-1,0.8-2.4,0.7-3.7c-1.2-1.6-4.1-2.4-4.1-4.6
		c1-0.6,2.2,0.4,3.2,0.5c0-1.3-2.8-1.3-1.3-2.6c0.9-0.2,1.7-0.5,2.6-0.1l0.3-0.3c-0.4-0.9-2-0.5-1.5-1.7c0.4-0.3,0.8-0.5,1.2-0.6h0
		c1.2-0.3,2.6,0.3,3.7,1.1c0.3,0.6,0.9,1.3,0.6,2.1c0.5,0.8-0.2,1.8-0.1,2.7c-1.4,2.6-0.2,5.5,1,7.7c0.8,1.4-0.9,2.6-1.1,3.9
		c-0.1,0.6-0.6,1.1-0.2,1.6l0.6,0.4c0.7-0.1,1.5-0.1,2.3,0l0.2-0.2c0.4,0.5-0.4,1.4,0.6,1.5c0.8-0.1,1.5-0.1,2.2-0.6
		c0.3,0.1,0.7,0.2,0.7,0.7c0,0.8,0.4,1.6,0.8,2.4c0.1,0.3,0.6,0.2,0.7,0.1c0.7-0.4,1.3-2,2.2-1.4c0.9,0.8,1.5,2.5,3,2.7
		c0.4-0.7,0.4-1.6,0.7-2.1c0.6-0.1,0.9,0.5,1.4,0.6c0.5,1.3-0.4,2.5-0.5,3.7c0.2,1.2-0.6,2.5,0,3.7c-0.2,1.3,0.2,2.5,0.7,3.6
		c0.7,1.4,1.9,2.6,2.9,3.8c1.1,1.2,1.4,3.2,2.8,4.2c0.7-0.3,1.9,0.2,2.4-0.4c0.8-0.2,1.6-0.6,2.1-1.4c1-1.4,0.5-3.7-0.3-5.2
		c-1-1.3-2.6-0.4-3.8-0.9l-0.6-0.2h0c-0.8-0.2-1.6-0.7-2.1-1.5c0.5,0,0.9,0.1,1.4,0.3c0.5-0.4,1,0.4,1.6,0c0.3-0.1,0.6-0.1,0.7-0.4
		c-1.3-1.5-3.9-2-4.2-4.4c0.9,0.9,2.2,1.3,3.6,1.1c0.3-0.4-0.2-0.6-0.2-0.9c-0.8-0.6-1.4-1.6-1.9-2.3c-0.3-0.6-0.5-1.3-0.5-1.8
		c0.5,0.4,1.2,1,1.8,0.8c0.6-1.1,0.2-2.3,0.7-3.4c-0.5-1.6,1-2.8,0.9-4.4c1.1-1.5,1.3-3.4,2.6-4.8c1.4-1.6,3.1-2.9,5.2-2.8
		c0.3,0.2,0.6-0.3,0.9,0c1.7,0.7,1.9,2.5,2.2,3.9C171.1,193.9,171,194.8,170.9,195.8z M141.2,195.2c0.7,1.1,1.5-0.2,2.4,0.1
		c0.2-0.3,0.8-0.3,0.9-0.1c-0.4,0.7-0.9,1.3-0.9,2.1c1.4,0.8,2.8,0.1,4.2-0.3c0.3,0.6-0.7,1.5,0.5,1.8c1.3-0.2,2.6-0.6,3.6-1.4
		c1-0.3,1.5,1.2,2.3,1.4c0,0.3,0.4,0.6,0,0.8c-0.5-0.1-1.4-0.3-1.5,0.6c0.2,0.3,0.1,0.8,0.1,1.2c-0.8-0.2-1.4-1.1-2.4-1.1
		c-0.9,0.6-0.4,2.1-1.4,2.2c-1-0.7-0.6-2.3-1.9-2.4c-0.8,0.4-1.4,1.3-2.2,1.6c-0.6-0.9,0-2.3-0.8-3.1c-0.8,0-1.4,0.8-2.2,0.4
		c-0.3-0.8,0.7-1.7-0.5-2.1c-0.9,0.3-1.7,0.8-2.8,0.9l-0.1-0.5c0.7-1.6,1.3-3,2.9-4l0.4,0.1C141.6,194,140.9,194.5,141.2,195.2z
		 M151.6,186.2c-0.6,0.2-0.8,0.7-0.9,1.2c-0.6,0.6-1.4,1.2-2.2,0.8c-0.4-0.2-0.8-0.4-1.1-0.5v-0.1c0.6-0.1,1.5-0.2,1.8-0.9
		c0.5-0.9-0.1-1.6-0.2-2.5c0-0.4,0-0.7-0.4-0.9c-1.4-0.1-2.5,1-3.8,0.2c-0.4-0.6-0.1-1.1-0.2-1.8c0.9-0.4,1.6-1.1,2.7-1.1
		c1,0.3,1.6,1.6,2.7,1.1c0.7-0.4,1.3-1,2.2-1.1c-0.1-0.6-0.8-0.9-1.1-1.1c-0.9,0.2-1.5,0.7-2.4,0.4c0-0.6,0.6-0.7,0.9-1
		c1.2,0.1,2,0.5,3.2,0.2c0.7-0.2,1.4-0.3,2.2-0.4c0.4-0.3,0.9-0.2,1.3-0.5c0.6,0,1.2,0.1,1.7,0.4l0,0c-1,2.8,2.7,4.2,1.1,6.7
		c-0.6,1-1.1,2.2-1.1,3.3c-0.7,1-0.6,2.4-0.5,3.7l0.1,0.6c-0.6,0.4-1.4-0.7-1.7,0.4c0.3,0.7,0.2,1.5,0.6,2.2l-1.3,0.3
		c0,0.9,0.5,1.6-0.1,2.4c-1.7,0-1.6-1.8-2.8-2.7c-0.7,0.1-0.9,1-1.5,1.2c-0.3,0.4-0.9,0.7-1.4,0.8c-0.2-0.9,0.3-2-0.8-2.3
		c-0.9,0.4-1.6,1.1-2.6,1.2c-0.1,0.3-0.4,0.2-0.6,0.2c-0.2-0.9,0.8-1.6,0.6-2.6c-0.3-0.3-0.5-0.6-0.9-0.5c-0.4,0.2-0.9,0.4-1.3,0.4
		c-0.2,0.5-0.7,0.2-1,0.3c-0.1-1.5,1.2-2.4,2.1-3.5c1.4-0.6,2.8-1.2,4.5-1.4c1-0.4,2.2-0.9,2.3-2.1
		C151.9,186.7,151.8,186.4,151.6,186.2z M204.2,208.8H197v-10.3h-11.1v-9.3h-8.8v-8.6h-8.9v-8.8h-8.6v-9h-8.1v-8.8h-2.2h-7.9v8.5
		h-9.1v9.1h-9.4v8.8h-8.9v9.1h-9.6v9.1h-8.4v9h-7.4c-1.8-4-3.2-8.1-3.9-12.5h3.5v-8.3h6.5v-7.8h9.1V170h8.9v-8.1h9.1v-8.5h10.6v-9
		h9.9l4.7-7.2l5.5,7.2h9.2l0.1,9.5h8.9v7.3h8.4v8.5h7.8v9.5h8.6v8.1h9.1v9.8h3.7C207.5,201.2,206.1,205.1,204.2,208.8z M92.8,150.8
		l6.6-11l6.6,10.9l-6.5,12.6L92.8,150.8z M189,150.1l6.6-11l6.6,10.9l-6.5,12.6L189,150.1z M147.8,55.6c0.2,0.3,0.4,0.5,0.6,0.8
		c1.2,1.3,2.8,2.5,3.7,2.8c0.3,0.1,0.5,0.2,0.7,0.2l-0.2-0.3l0.5-0.5c0,0,0.9,0.8,1.7,1l0.1,0l-0.4-0.6l0,0l0.6-0.4l0,0l0,0l0.1,0.1
		c0.2,0.3,0.8,1.2,1.2,1c0.6-0.4,0.7-0.7,0.7-0.7l0.6,0.4c0,0-0.2,0.4-1,0.9l-0.4,0.1l0.1,0.2l-0.8-0.2l-1-0.2l-0.3-0.1l0.1,0.1
		h-0.7c0,0-0.4,0-1.9-0.4c-1-0.3-2.8-1.6-4-3c-0.2-0.3-0.5-0.6-0.7-0.8c-0.2-0.3-0.4-0.6-0.6-0.9v0c-1.1-2-1.2-5.5-1.2-5.5l0.7,0
		c0,0,0.1,3.3,1.1,5.2C147.4,55,147.6,55.3,147.8,55.6z M144.6,32.6L144.6,32.6c0,0,0.4-0.4,1-0.4c0.5,0,1.3,0.4,1.3,0.4
		s-0.4,0.4-1,0.5C145.4,33.2,144.6,32.6,144.6,32.6z M149.9,76c0.4-1,1-2.3,1.1-2.6c0-0.1,0.1-0.2,0.1-0.3c0.3-0.8,0.9-2.4,0.9-3.4
		c0.1-1.2-0.2-1.5-0.2-1.5l-0.2-0.2l-0.1,0.2c0,0-0.7,1.1-1.3,1.8c-0.5,0.6-0.6,0.5-1.9,0.4c-0.2,0-0.4-0.1-0.6-0.1
		c-1.1-0.1-2.1-0.7-3-1.3c-0.5-0.3-1-0.6-1.5-0.8c-0.9-0.4-1.9-1.2-2.7-1.8c0-0.1,0-0.1,0-0.2c0-0.3,0-0.7-0.1-1l-0.2,0.1l0.2-0.1
		c-0.3-1.1-1.2-1.8-2.4-2.3c0,0,0.1,0,0.1,0c0.9,0.1,2.1,0.8,2.5,1.1c0.4,0.3,2.3,1.6,3.7,1.8c1.3,0.2,2.3,0.3,2.6,0.3
		c0.1,0,0.2,0,0.3-0.1c0.1-0.1,0.1-0.3,0-0.6c-0.1-0.2-0.3-0.6-0.7-1.3c-0.2-0.4-0.4-0.8-0.6-1.1c-0.3-0.5-0.8-1.1-1.2-1.4
		c0.5,0.1,1.2,0.2,1.5,0.2c0.5,0,1.8,0,1.8,0c0,0,0.7,0.1,3.8,2.2l0.7,0.3c1.5,0.6,2,0.8,3.4,0.9c0.7,0,1,0.1,1.1,0.2l0,0
		c0,0,0.4,1.8,0.5,2.6c0.1,0.4,0.2,0.8,0.3,1.2c0.1,0.2,0.1,0.4,0.1,0.5c-0.1,0.2-1.3,1.2-1.8,1.5c-0.5,0.3-2.2,2.5-3.1,4l0-0.1
		l-2.8,2.5l-0.6-1C149.8,76.3,149.9,76.2,149.9,76z M106.5,87c0-3,2.4-5.5,5.4-5.5h9.6l0.1,0c0,0,0.1,0,0.1,0c0.1,0,0.2-0.1,0.2-0.1
		c0.3-0.3,0.6-1.5,0.9-3.2c0-0.1,0-0.1,0-0.2c0.5,0.4,1.7,1.2,4.7,3l0.1,0.1l4.5-4.2l6,3.2l0.1,0c0.1,0,1.2-0.4,1.5-0.8
		c0.3-0.3,0.7-2.8,0.8-4.1c0.9,1.1,3.1,3.6,3.8,3.6c0.1,0,0.2,0,0.3-0.1c0.4-0.4,1.9-2.4,2.5-3.3l0.5,2.7l1.7-1.4l0.8,1.3l2.8-2.4
		l1.4,2.6l6.7-2.2c0.4,0.6,1.8,2.6,3.2,3.2c1.6,0.6,3.5-0.2,3.6-0.3l0.9-0.8c0.4,0.6,1.6,2.4,2.6,3.4l0.1,0.1h8.8v0h0.2
		c3,0,5.4,2.4,5.4,5.5c0,3-2.4,5.5-5.4,5.5h-9.2v-1.8l-0.1-0.1c-2.2-0.9-3.8-2.4-5.4-3.8c-2.7-2.3-5.2-4.5-9.9-4.5c0,0-0.1,0-0.1,0
		c-0.5,0-1.1,0-1.7,0.1c-0.4,0.1-1.1,0.2-1.6,0.2c-1.1,0.1-2.1,0.2-2.6,0.8c-0.2,0.3-0.2,0.7-0.1,1.1l0,0.1c0.7,0.9,1.7,1.5,2.7,2.2
		c1.3,0.8,2.6,1.6,3,2.9l0,0.1l0.1,0c1,0.3,1.7,0.9,2.4,1.5c0.5,0.4,1,0.9,1.6,1.2h-13.5V91l0-0.1c-2.9-4.2-6.4-7.2-10.5-9.1l-0.1,0
		c-1.2-0.2-2.6-0.3-4-0.3c-1.7,0.1-2.9,0.6-3.7,1.4L128,83v0.1c0,1.4,1.1,2.2,2.2,3c0.8,0.6,1.6,1.1,1.8,1.9l0,0.1l0.1,0
		c0.8,0.4,1.5,1.1,2.2,1.8c1.2,1.2,2.5,2.4,4.3,2.5h-26.5v0H112C109,92.4,106.5,90,106.5,87z M164.8,89.4c-1.3-0.8-2.6-1.6-4.3-2.3
		l-0.1,0l-0.1,0.1c-0.8,0.6-1.2,1.1-1.1,1.6c0,0.7,0.9,1.3,1.7,1.8c0.8,0.5,1.7,1,1.8,1.8c-0.4,0.1-0.8,0.1-1.1,0.1h-0.2
		c-1.4,0-2.2-0.7-3-1.5c-0.7-0.6-1.4-1.2-2.4-1.5c-0.5-1.4-1.8-2.2-3.1-3.1c-1-0.6-1.9-1.2-2.6-2.1c-0.1-0.3-0.1-0.6,0-0.8
		c0.3-0.5,1.3-0.5,2.3-0.6c0.6,0,1.2-0.1,1.7-0.2c0.5-0.1,1.1-0.1,1.6-0.1c0,0,0.1,0,0.1,0c4.5,0,7,2.1,9.6,4.4
		c1.6,1.4,3.2,2.8,5.4,3.8v1.3C168.3,91.6,166.6,90.5,164.8,89.4z M170.3,92.5h-7.1c0-1-1-1.6-2-2.2c-0.8-0.5-1.5-0.9-1.6-1.5
		c0-0.3,0.3-0.8,0.9-1.2c1.6,0.6,2.9,1.4,4.1,2.2C166.2,90.8,167.8,91.8,170.3,92.5z M139.5,91.3c1.3-0.9,2.2-0.4,3.5,0.4
		c0.5,0.3,1.1,0.6,1.7,0.8h-5.4c0.2,0,0.5,0,0.8-0.1l0.3-0.1L139.5,91.3z M143.1,91.3c-0.8-0.5-1.5-0.9-2.3-0.9
		c-0.5,0-1.1,0.2-1.7,0.7l-0.2,0.1l0.7,0.8c-2.2,0.3-3.5-1-4.9-2.4c-0.7-0.7-1.4-1.4-2.2-1.8c-0.3-0.9-1.1-1.5-2-2
		c-1-0.7-2-1.4-2.1-2.6c0.7-0.8,1.8-1.2,3.4-1.2c1.3-0.1,2.8,0.1,3.9,0.3c4.1,1.9,7.4,4.9,10.3,9v1.1
		C144.9,92.3,144,91.8,143.1,91.3z M83.6,97l125.7,0l0,36.9H83.6C83.6,117.5,83.6,102.4,83.6,97z"/>
</g>
</svg>
