<?xml version="1.0" encoding="utf-8"?>
<!-- Generator: Adobe Illustrator 24.0.1, SVG Export Plug-In . SVG Version: 6.00 Build 0)  -->
<svg version="1.1" id="Layer_1" xmlns="http://www.w3.org/2000/svg" xmlns:xlink="http://www.w3.org/1999/xlink" x="0px" y="0px"
	 viewBox="0 0 316.2 316.2" style="enable-background:new 0 0 316.2 316.2;" xml:space="preserve">
<style type="text/css">
	.st0{fill:#FFFFFF;}
</style>
<g>
	<path class="st0" d="M237.2,21.1H79.1L0,158.1l79.1,137h158.1l79.1-137L237.2,21.1z M223.3,271.1H93l-65.2-113l0.7-1.2L93,45.1
		h130.4l0.7,1.2l64.5,111.8L223.3,271.1z"/>
	<path class="st0" d="M195.9,57.5l-19.5,49h-36.6l-19.5-49L67.6,164.8l57.2,33.7l18.3,60.2h30.1l18.3-60.1l57.1-33.8L195.9,57.5z
		 M120.4,172.6v-28.9l26.9,28.9H120.4z M195.9,172.6h-27l27-28.9V172.6z"/>
</g>
</svg>
