<?xml version="1.0" encoding="utf-8"?>
<!-- Generator: Adobe Illustrator 24.0.1, SVG Export Plug-In . SVG Version: 6.00 Build 0)  -->
<svg version="1.1"
	 id="svg2" xmlns:cc="http://creativecommons.org/ns#" xmlns:dc="http://purl.org/dc/elements/1.1/" xmlns:rdf="http://www.w3.org/1999/02/22-rdf-syntax-ns#" xmlns:svg="http://www.w3.org/2000/svg"
	 xmlns="http://www.w3.org/2000/svg" xmlns:xlink="http://www.w3.org/1999/xlink" x="0px" y="0px" viewBox="0 0 299 334.5"
	 style="enable-background:new 0 0 299 334.5;" xml:space="preserve">
<style type="text/css">
	.st0{fill:#FFFFFF;}
</style>
<g>
	<path class="st0" d="M298.5,6.2l-5-5H5.4l-4.9,5L0.9,97c0,56,16.5,114.9,45.3,161.5c29.3,47.6,67,74.9,103.3,74.9
		c36.3,0,74-27.3,103.3-74.9C281.6,211.9,298.1,153,298.1,97h-5l5,0L298.5,6.2z M288.2,97L288.2,97c0,54.3-16,111.3-43.8,156.4
		c-27.5,44.6-62.1,70.2-94.9,70.2s-67.4-25.6-94.9-70.2C26.8,208.2,10.8,151.2,10.8,96.9l-0.4-85.8h278.2L288.2,97z"/>
	<path class="st0" d="M23.8,20.3c0,10.5,0,21.2,0,31.6l0,0c9,0,18.2,0.1,27.4,0.1c8,0,16,0,24-0.1l0,0c0-1.4,0-2.8,0-4.2
		c0-2.5,0-5.2,0.1-7.7c4.5,0,9,0,13.4,0c1.5,0,3,0,4.5,0c0,1.4,0,2.9,0,4.3c0,2.5,0,5.1,0.1,7.6l0,0c16,0.1,34.9,0.1,53.9,0l0,0
		c0-10.3,0-21,0-31.6l0,0c-4.7-0.1-9.8-0.1-14.9,0l0,0c0,0.4,0,0.9,0,1.3c0,1.7,0,3.6-0.1,5.3c-1.7,0-3.3,0-5,0c-1.9,0-3.8,0-5.8,0
		c-1.7,0-3.3,0-5,0c-0.1-1.7-0.1-3.3-0.1-5c0-0.5,0-1.1,0-1.7l0,0c-3.9-0.1-7.9-0.1-11.9,0l0,0c0,0.4,0,0.7,0,1.1
		c0,1.8,0,3.7-0.1,5.5c-1.4,0-2.8,0-4.1,0c-1.7,0-3.3,0-5,0c-1.4,0-2.8,0-4.1,0c0-0.8,0-1.7,0-2.5c0-1.4,0-2.8-0.1-4.2l0,0
		c-4.8-0.1-9.3-0.1-13.6,0l0,0c0,2.2,0.1,4.4,0,6.6c-1.5,0-3,0-4.5,0c-1.7,0-3.4,0-5.2,0c-1.5,0-3,0-4.5,0c-0.1-2.2-0.1-4.4,0-6.6
		l0,0c-3.8-0.2-8.1-0.2-12.9,0l0,0c0,0.4,0,0.9,0,1.3c0,1.7,0,3.6-0.1,5.3c-1.5,0-3,0-4.6,0c-1.8,0-3.5,0-5.3,0c-1.5,0-3.1,0-4.6,0
		c-0.1-1.6-0.1-3.2,0-4.7c0-0.6,0-1.3,0-1.9l0,0C31.7,20.2,27.7,20.3,23.8,20.3L23.8,20.3z M42.1,34.6c0-0.4,0-0.9,0-1.3l0,0h2.3
		l0,0l0,0c0,2.9,0.1,6,0,9l0,0c-0.8,0-1.5,0-2.3,0l0,0c0-0.6,0-1.2,0-1.8c0-0.3,0-0.5,0-0.8C42.1,38.1,42.1,36.3,42.1,34.6z
		 M123.1,36.4c0-1,0-2,0-3l0,0c0.8,0,1.6,0,2.3,0l0,0c0.1,2.9,0.1,5.9,0,9l0,0h-2.3l0,0C123.1,40.4,123.1,38.4,123.1,36.4z
		 M128.1,52c4,0,8,0,12,0C136,51.9,132,51.9,128.1,52z M86.7,20.3c0.5,0,1.1,0,1.6,0C87.7,20.3,87.2,20.3,86.7,20.3z M79.5,20.3
		c0.8,0,1.6,0,2.3,0C81.1,20.3,80.3,20.3,79.5,20.3z"/>
	<path class="st0" d="M178.8,93.6c-0.7,2-1.2,4.1-1.8,6.2c-1.4,4.9-2.8,10-5.5,14.6l0,0c5.8,2.4,12.2,1.1,17.7-0.4
		c0.3-0.1,0.5-0.2,0.8-0.3c0.3-0.1,0.7-0.2,1-0.3c0.6-0.2,1.1-0.4,1.6-0.6c0.3-0.1,0.6-0.2,0.8-0.3c0.5-0.2,1.1-0.5,1.6-0.7
		c0.3-0.1,0.5-0.3,0.8-0.4c0.5-0.3,1-0.5,1.4-0.8c0.3-0.2,0.6-0.4,0.9-0.5c0.2-0.1,0.4-0.3,0.6-0.4c2.7-1.8,4.9-4,6.6-6.6
		c0.2-0.4,0.4-0.7,0.7-1.1c2.4,0.5,4.9,0.9,7.4,1.1c0.4,0,0.9,0,1.3,0.1c0.2,0,0.3,0,0.5,0c0.3,0,0.5,0,0.8,0
		c4.9-0.1,9.7-1.2,14.4-3.3c4.5-2,8.7-4.9,12.2-8.4c0.3,0.3,0.5,0.6,0.8,0.9c-2.7,3.7-5.2,6-8.1,7.3c-0.1,0.1-0.2,0.1-0.4,0.2
		c-0.8,0.3-1.7,0.7-1.8,1.7c-2.4,9.3-7.2,18.3-13.9,25.9c-6.3,7.2-14.3,13.3-23.7,18.2c-8.4,4.4-18,7.7-28.3,10
		c-0.5,0.1-1,0.2-1.5,0.3c-1.1,0.2-2.2,0.4-3.1,1c-2.8,2.6-5.9,5.4-9.3,7.6c-3.7,2.5-7.3,4-11,4.8v0c7.9,1.6,15.8,2.4,23.6,2.4
		c3.9,0,7.7-0.2,11.6-0.6c7-0.7,13.8-2,20.2-4.1c6.8-2.1,13.1-5,18.7-8.6c9.8-5.7,18.3-13.6,24.5-23c2.9-4.2,5.4-9,7.6-14.1
		c2-4.7,3.8-9.8,5.2-15.2c2.4-9,4.1-18.7,5.2-29.7c0.1-0.5,0.1-1.1,0.1-1.6c0.7-8.2,1.1-17.1,1.2-28.5l0,0
		c-1.2,3.7-2.9,7.2-5.2,10.2c-2.4,3.2-5.2,5.8-8.4,7.7c-3.5,1.7-7.7,2-11.7,0.9c-2.1-0.6-4.1-1.9-5.5-3.7c-1.4-1.8-2.2-4-2.2-6.2
		c0-0.7-0.1-1.4-0.2-2.2c-0.2-2.1-0.4-4.2-0.1-6.2c0.2-2.3,1-4.1,2.3-5.6c0.1-0.1,0.2-0.3,0.3-0.4c0,0,0.1-0.1,0.1-0.1
		c1-1,2.3-1.4,3.5-1.8c0.7-0.3,1.5-0.5,2.2-0.9c0.8-0.5,1-1.5,1.1-2.4c0.1-0.7,0.2-1.4,0.6-1.9c1.4-2.1,3.9-2.9,6.4-3.6
		c3.7-1.2,7.6,0.3,10.2,1.9c1.5,1,2.4,2.6,2.6,4.6c0.2,2.1-0.6,4.1-2,5.4c-2.7,2.6-6.7,2.9-9.6,2.6c-2.6-0.1-4.9-1.1-6.3-2.7
		c-0.1-0.2-0.3-0.3-0.4-0.5c-0.6-0.7-1.3-1.5-2.4-1.2c-0.1,0-0.2,0.1-0.4,0.1c-0.1,0-0.3,0.1-0.4,0.1c-0.2,0.1-0.5,0.1-0.7,0.2
		c-0.2,0.1-0.3,0.1-0.4,0.2c-0.2,0.1-0.4,0.2-0.6,0.3c-0.1,0.1-0.3,0.2-0.4,0.3c-0.2,0.1-0.4,0.3-0.6,0.5c-0.1,0.1-0.2,0.2-0.3,0.3
		c-0.1,0.1-0.2,0.2-0.3,0.3c-1.2,1.2-1.9,2.7-2,4.3c-0.2,1.9-0.3,3.7-0.2,5.3c0,0,0,0,0,0c0,0.6,0.1,1.2,0.1,1.8c0,0,0,0,0,0
		c0.1,0.6,0.2,1.2,0.3,1.7c0,0,0,0,0,0c0.4,1.8,1,3.5,1.8,5c1.1,1.3,2.7,2.2,4.5,2.7c1.7,0.5,3.5,0.6,5.3,0.4
		c4.8-1.1,9.1-4.3,12-8.8c1.9-3.1,4.4-6.9,5.3-11c0.7-3,0.8-6.2,0.3-9.4c-0.5-3.1-1.6-6.1-3.3-8.8c-1.1-1.8-3.4-2.5-5.3-3l-0.2-0.1
		c-4-0.8-8.2-0.4-12.3,1.1c-1,0.4-1.9,0.8-2.9,1.3c-2.8,1.4-5.4,3.3-7.5,5.6c-8.6,8.6-15.5,18.9-22.1,28.8
		c-7,10.5-14.3,21.3-23.5,30.2l-0.1,0.1C180.4,90.9,179.2,92,178.8,93.6z M236.1,37.4C236.1,37.4,236.1,37.4,236.1,37.4
		C236.1,37.4,236.1,37.4,236.1,37.4z M230.4,58c0-0.1-0.1-0.1-0.1-0.2C230.4,57.9,230.4,58,230.4,58z M227.6,44.2
		c-0.1,0.2-0.1,0.4-0.2,0.7C227.5,44.6,227.6,44.4,227.6,44.2z M228.3,42.7c-0.1,0.2-0.3,0.5-0.4,0.8C228,43.2,228.2,43,228.3,42.7z
		 M156.9,162.1c0.1-0.1,0.2-0.1,0.2-0.2C157.1,161.9,157,162,156.9,162.1z M154.2,164.1c0.3-0.2,0.6-0.4,0.9-0.6
		C154.8,163.7,154.5,163.9,154.2,164.1z M259.6,48.5c0.2-0.4,0.3-0.8,0.5-1.3C260,47.7,259.8,48.1,259.6,48.5z M258.6,51.1
		c0.2-0.4,0.3-0.7,0.5-1.1C258.9,50.4,258.7,50.7,258.6,51.1z M257.2,53.6c0.2-0.3,0.4-0.7,0.6-1C257.6,52.9,257.4,53.3,257.2,53.6z
		 M255.6,56.1c0.3-0.4,0.5-0.7,0.8-1.1C256.1,55.4,255.9,55.7,255.6,56.1z M227.1,46.4c0-0.2,0.1-0.5,0.1-0.7
		C227.2,46,227.1,46.2,227.1,46.4z M228.6,42.2c0.1-0.2,0.2-0.3,0.3-0.5C228.9,41.9,228.7,42,228.6,42.2z M235.6,38
		c0.1,0,0.1-0.1,0.1-0.1C235.7,37.9,235.7,37.9,235.6,38z M229.6,54.6c0,0,0,0.1,0,0.1C229.6,54.7,229.6,54.6,229.6,54.6z
		 M229.9,56.5c0-0.1,0-0.2-0.1-0.2C229.9,56.3,229.9,56.4,229.9,56.5z"/>
	<path class="st0" d="M260.3,31.4L260.3,31.4L260.3,31.4c0.9-0.2,1.7-0.4,2.6-0.6c2.8-0.6,5.7-1.3,8.4-2.1l0,0
		c-3.6-1.6-7.8-2.6-12.4-2.8l0,0C259.3,27.7,259.8,29.6,260.3,31.4z"/>
	<path class="st0" d="M262.6,38.8L262.6,38.8c1.7-2.2,4.1-3.4,6.4-4.7c1.4-0.7,2.8-1.5,4.1-2.4c0,0,0,0,0,0c0.2-0.2,0.5-0.3,0.7-0.5
		l0,0c-2.5,0.1-4.6,0.3-6.5,0.7c-2.3,0.5-4.3,1.3-6,2.4l0,0l0,0C261.6,35.6,262,37.1,262.6,38.8z M261.6,35.7
		c-0.1-0.2-0.1-0.5-0.2-0.7C261.5,35.2,261.6,35.4,261.6,35.7z M262.2,37.6C262.2,37.6,262.2,37.5,262.2,37.6
		C262.2,37.5,262.2,37.6,262.2,37.6z"/>
	<path class="st0" d="M245.8,32.1c-0.2,0-0.4,0-0.6,0l0,0c-3.3,0.7-5.5,1.9-6.9,3.7l0,0v0c-0.1,1.2,0.1,2.4,0.7,3.4
		c0.6,1.2,1.5,2,2.6,2.4c0.3,0.1,0.7,0.3,1.1,0.4c0.6,0.2,1.2,0.3,1.8,0.3c0,0,0,0,0,0c0.3,0,0.6,0.1,1,0.1c0,0,0,0,0,0
		c0.2,0,0.4,0,0.7,0c0.7,0,1.4-0.1,2.2-0.2c0.1,0,0.3,0,0.4-0.1c0.2,0,0.5-0.1,0.7-0.1c1.5-0.8,3.2-1.7,4.6-3.2
		c0-0.1,0.1-0.2,0.1-0.3c0-0.1,0-0.1,0.1-0.2c0.1-0.2,0.1-0.5,0.1-0.7c0,0,0,0,0,0c0-0.4,0-0.8-0.1-1.2c0,0,0-0.1,0-0.1
		c0-0.1-0.1-0.3-0.1-0.4c-0.5-1.2-1.5-2.2-2.7-2.5c-0.5-0.1-1.1-0.3-1.6-0.5C248.5,32.6,247.2,32.1,245.8,32.1z M246.1,41.3
		c-1.6-0.3-4.4-0.9-5-3.2c-0.2-1,0-2,0.6-2.9c0.6-0.8,1.5-1.4,2.5-1.7c1.3-0.3,3.7-0.6,5.8,0.7c0.8,0.5,1.4,1.4,1.5,2.4
		c0.1,1-0.1,1.9-0.7,2.5c-1,1-2.4,2.2-3.9,2.2C246.7,41.4,246.4,41.3,246.1,41.3z"/>
	<path class="st0" d="M52.7,113.5c0.2,0.2,0.5,0.3,0.7,0.3c0.1,0,0.2,0,0.3,0c0,0,0.1,0,0.1-0.1c0,0,0,0,0,0c0,0,0,0,0.1,0
		c0.6-0.3,1.1-0.9,1.4-1.5c1.6-2.7,0.4-6-0.4-8.4c3.1-0.8,6.3-0.9,9.4-1.1c1.3-0.1,2.6-0.1,3.9-0.2c0.2,0,0.3,0,0.5,0
		c0.5,0,1.1-0.1,1.6-0.1c5.2-0.7,9.3-2.1,12.7-4.3c1.9-1.2,3.7-2.5,5.4-3.9c2.5-1.9,5-3.8,7.8-5.2c0.2-0.1,0.4-0.2,0.7-0.3
		c0.3-0.1,0.5-0.2,0.8-0.3c1.2-0.5,2.5-0.8,3.8-1c0,0,0,0,0,0c0.4,0,0.9-0.1,1.3-0.1c0,0,0,0,0,0c0.2,0,0.3,0,0.5,0
		c1.9,0.1,3.8,0.5,5.7,1.2c0.6,1.9,0.5,3.8,0.5,5.7c0,1.4,0,2.9,0.2,4.3c0.3,1.2,0.9,2.4,1.7,3.2c0,0,0,0,0.1,0
		c0.2,0.2,0.3,0.3,0.5,0.4c0,0,0.1,0,0.1,0.1c0,0,0.1,0,0.1,0.1c0.1,0.1,0.3,0.2,0.5,0.2c0.1,0,0.2,0.1,0.3,0.1
		c0.2,0.1,0.3,0.1,0.5,0.1c0.1,0,0.2,0,0.3,0c0.1,0,0.2,0,0.2,0c0,0,0.1,0,0.1,0c0.3,0,0.6,0,0.9,0c0.5,0,1,0,1.5,0
		c2.7,0,5.5-0.2,7.8-1.7c1.7-1.2,3.9-2.1,6.6-2.5c0.2,0,0.4,0,0.6,0c0.8,0,1.7,0.3,2.4,0.8c0.8,0.6,1.3,1.4,1.4,2.3
		c0.2,1.3-0.2,2.6-0.5,3.9c-0.1,0.2-0.1,0.5-0.2,0.7l0,0c0.2,0,0.5,0,0.7-0.1c1-0.1,2-0.2,2.8,0.4c0.1,0.1,0.2,0.2,0.3,0.3
		c0.6,0.7,1.1,1.6,1.5,2.4c0.7,1.5,1.5,3,3.2,3.6l0,0c-0.1-0.2-0.1-0.5-0.2-0.7c-0.2-0.9-0.5-1.9-0.5-2.8c0.1-2.3,1.4-4.1,2.7-5.9
		c1.4-2.1,2.9-4.2,2.6-6.9l0,0c-1,0.1-1.8,0.7-2.6,1.3c-0.7,0.5-1.3,1-2.1,1.2c-0.7-0.3-1.2-0.9-1.7-1.6c-0.4-0.6-0.9-1.2-1.5-1.5
		c-2.5-1.4-5.6-0.9-8.5-0.2c-1.5,0.6-3.3,0.3-4.8-0.7c-1.7-1.2-2.9-3.1-3-5c0.7-1.6,2.4-2.6,3.6-3.2c2.2-1,4.6-1.2,6.9-1.5
		c1.3-0.1,2.7-0.3,4-0.6c0.1,0,0.2,0,0.3-0.1c0.4-0.1,0.8-0.2,1.2-0.3c0.2-0.1,0.4-0.1,0.6-0.2c0.2-0.1,0.3-0.1,0.5-0.2
		c1.3-0.5,2.4-1.5,3.1-2.7c0.7-1.2,1.1-2.6,1-4l0,0c-0.8-1.6-2.2-2.6-3.6-3.6c-0.1-0.1-0.2-0.2-0.3-0.2c-3.9-2.5-8.4-4-13.5-4.3
		c-4.6-0.3-9.5,0.3-14.2,1.7c-2.3-3.6-7-4-10.5-3.7c-1.2,0.3-1.9,1.4-2.6,2.5c-0.8,1.2-1.5,2.4-3,2.5c-0.7,0.1-1.3,0.2-2,0.3
		c-3.5,0.6-7.2,1.2-10.8,0.5c-2.5-0.7-4.1-1.8-4.8-3.3c0.1-1.2,0.3-2.5,0.7-3.7c0.5-1.4,1.4-2.1,2.6-2.4c5.7-1.3,11.8-1.7,18.2-1.2
		c6.3,0.3,12.6,1.4,18.6,2.3c7.6,1.2,15.4,2.5,23.2,2.5c0.4,0,0.9,0,1.3,0l0,0c-0.2-0.3-0.3-0.7-0.5-1c-1.4-2.3-3.8-4-6.8-4.9
		c-4.3-1.4-7.8-1.5-10.7-0.3c-0.4,0.2-0.8,0.4-1.2,0.6c-0.8,0.4-1.7,0.8-2.6,0.8c-0.2,0-0.3,0-0.5,0c-7.6-0.8-14.2-1.2-20.3-1.3
		c-0.9,0-1.7,0-2.6,0c-1.4,0-2.8,0-4.2,0.1c-0.2,0-0.5,0-0.7,0c-1.8,0-3.5,0.1-5,0.3c0,0-0.1,0-0.1,0c-0.6,0.1-1.2,0.2-1.8,0.3
		c0,0,0,0-0.1,0c0,0,0,0-0.1,0c-0.6,0.1-1.2,0.2-1.8,0.4c0,0-0.1,0-0.1,0c-1.4,0.3-2.7,0.8-3.9,1.3c-0.5,0.2-1,0.4-1.5,0.7
		c-0.1,0.1-0.2,0.2-0.3,0.2c-0.1,0.1-0.2,0.2-0.4,0.2c-0.1,0.1-0.3,0.2-0.4,0.3c-0.1,0.1-0.2,0.2-0.3,0.3c-0.2,0.2-0.3,0.4-0.4,0.6
		c-0.1,0.1-0.1,0.2-0.2,0.3c-0.1,0.2-0.2,0.4-0.3,0.7c-0.1,0.2-0.1,0.3-0.1,0.5c0,0.1-0.1,0.2-0.1,0.3c-0.4,2,0.2,4.3,1.4,5.9
		c0.9,0.6,1.9,0.9,3,1.1c0.2,0,0.3,0.1,0.5,0.1c1.2,0.3,2.5,0.5,3.8,0.6c0.1,0,0.1,0,0.2,0c0.5,0,1.1,0.1,1.6,0.1c0.2,0,0.3,0,0.5,0
		c0.5,0,1.1,0,1.6,0c0.1,0,0.3,0,0.4,0c0.4,0,0.8,0,1.3,0c3.1-0.2,6.3-0.6,9.3-1.1c3.8-0.6,7.7-1.2,11.6-1.2c0.4,0,0.8,0,1.2,0
		c2.3-0.1,4.6-0.4,6.8-0.8c4.6-0.7,9.3-1.3,13.9,0c1.3,0.3,2.4,0.9,3.4,1.9c0.9,1,1.5,2.2,1.8,3.5c0.1,2.1-1.8,3.8-3.7,4.3
		c-2.6,0.7-5.6,0.9-9.1,0.7c-12.5-0.7-23.8-0.9-34.7-0.7c-12.2,0.3-23.5,1.2-34.5,2.7c0.2-0.4,0.4-0.8,0.6-1.2
		c0.1-0.3,0.3-0.6,0.4-0.9l0,0c-1.4-0.1-2.9-0.8-3.9-1.9c-1-1.1-1.6-2.5-1.6-4c1.5-0.1,3-0.2,4.5-0.2c1.6,0,3.3-0.1,5-0.2l0,0l0,0
		c0.3-0.6,0.7-1.3,1-1.9c1.2-2.4,2.5-4.9,3.5-7.5c0,0,0-0.1,0-0.1c0-0.1,0-0.1,0.1-0.2c0.2-0.4,0.3-0.8,0.5-1.2l0,0
		c-0.3,0.1-0.6,0.3-0.8,0.4c-0.7,0.4-1.3,0.7-2.1,0.7c0,0,0,0-0.1,0c-0.8-0.7-1-1.7-1.3-2.7c-0.1-0.4-0.2-0.9-0.4-1.3l0,0l0,0
		c-2.1,0.5-4.2,1.2-5.7,1.8c-0.4-0.3-0.8-0.8-1.2-1.2c-0.6-0.7-1.3-1.4-2.2-1.7l0,0l0,0c-2.9,2.1-5.4,5.1-7,8.9l0,0l0,0
		c0.1,0.1,0.2,0.3,0.3,0.4c0,0,0,0,0,0.1c0.4,0.4,0.8,0.9,1.2,1.3c1.6,1.6,3.2,3.3,2.1,5.6c-1.4,0.1-2.9,0.1-4.4,0.1
		c-0.7,0-1.5,0-2.2,0h0h0l0,0c-1,2.8-1.5,5.5-1.3,8l0,0c0.4-0.3,0.7-0.7,1.1-1.1c0.4-0.5,0.9-0.9,1.4-1.3c0,0,0.1-0.1,0.1-0.1
		c0.1-0.1,0.3-0.2,0.4-0.3c1.1-0.3,2.4-0.2,3.6,0.3c0.3,0.1,0.6,0.2,0.8,0.4c0.8,0.4,1.6,1,2.2,1.7c0.5,0.6,1.1,1.2,1.6,1.8
		c1.2,1.4,2.4,2.8,3.9,4c-0.3,0-0.5,0-0.8,0c-0.3,0-0.6,0-0.9,0c-2.1-0.1-4.2-0.7-6.2-1.2c-2-0.5-4.1-1.1-6.2-1.2
		c-0.3,0-0.6,0-0.9,0c-0.2,0-0.4,0-0.7,0l0,0l0,0c-0.6,0.8-1,1.8-1.2,2.8c0,0.1,0,0.1,0,0.2c0,0.3-0.1,0.6-0.1,0.8c0,0,0,0.1,0,0.1
		c0,0,0,0.1,0,0.1c0,0.2,0,0.3,0,0.5c0,1.5,0.3,3.1,0.6,4.7c0.4,2.1,0.8,4.2,0.5,6.3c0,0.3-0.1,0.6-0.2,0.9c-5.5,1.6-10.8,0-16-1.6
		c-1.9-0.6-3.9-1.2-5.8-1.6l0,0c0.2,0.1,0.4,0.2,0.6,0.3c0.4,0.2,0.7,0.3,1.1,0.5c-0.4,0.8-0.8,1.6-1.2,2.4c-0.3,0.6-0.6,1.2-1,1.9
		l0,0c2.6,1,5.4,1,8.1,0.9c2.1,0,4.4-0.1,6.5,0.4c0,0.6,0,1.2,0,1.8c0,1.2,0,2.4,0.1,3.6l0,0l0,0c0.1,0,0.2,0,0.3,0
		c0.1,0,0.1,0,0.2,0c0,0,0.1,0,0.1,0c0.2,0,0.4,0,0.6,0c0.1,0,0.2,0,0.3,0c0,0,0.1,0,0.1,0c0.2,0,0.3-0.1,0.5-0.1
		c0.2,0,0.3-0.1,0.5-0.2c0.2-0.1,0.4-0.2,0.6-0.3c0.1-0.1,0.2-0.1,0.4-0.2c0.1-0.1,0.2-0.1,0.3-0.2c1.1-0.8,2.2-1.9,3.1-2.9l0,0
		c1.3,0.9,2.4,2.2,3.1,4.1l0,0l0,0c0.1,0,0.2,0,0.2,0c1.4,0,2.3-0.8,3.2-1.7c0.1-0.1,0.3-0.3,0.4-0.4c0.1-0.1,0.2-0.2,0.3-0.3
		c0.8-0.8,1.6-1.5,2.7-1.8c0.4,0.6,0.8,1.4,1.1,2C51.9,112.2,52.3,112.9,52.7,113.5L52.7,113.5z M80,65.6c0.1-0.1,0.1-0.3,0.2-0.4
		C80.1,65.3,80.1,65.4,80,65.6z M80.5,64.7C80.5,64.7,80.5,64.7,80.5,64.7c0.1-0.2,0.2-0.2,0.3-0.3C80.7,64.5,80.6,64.6,80.5,64.7z
		 M129.3,60.1C129.3,60.1,129.3,60.1,129.3,60.1C129.3,60.1,129.3,60.1,129.3,60.1z M128.1,60.3C128.1,60.3,128.1,60.3,128.1,60.3
		C128.1,60.3,128.1,60.3,128.1,60.3z M82.2,63.5c-0.1,0-0.2,0.1-0.3,0.1C82,63.6,82.1,63.6,82.2,63.5z M81.4,63.9
		c-0.1,0.1-0.2,0.1-0.3,0.2C81.2,64,81.3,63.9,81.4,63.9z M53,113.7C53,113.6,53,113.6,53,113.7C53,113.6,53,113.6,53,113.7z
		 M57.3,82.5c-0.1,0-0.2,0-0.2-0.1c0.1,0,0.3,0.1,0.5,0.1C57.4,82.5,57.3,82.5,57.3,82.5z M56,82.1c0.2,0.1,0.3,0.1,0.5,0.2
		C56.3,82.2,56.1,82.2,56,82.1z M121.5,102.3c0,0-0.1,0-0.1,0C121.4,102.3,121.4,102.3,121.5,102.3z M122.5,101.9
		c-0.1,0-0.2,0.1-0.3,0.1C122.3,102,122.4,102,122.5,101.9z M123.4,101.5c0,0-0.1,0-0.1,0.1C123.3,101.6,123.4,101.6,123.4,101.5z
		 M128.4,99.1c-0.2,0.1-0.5,0.2-0.7,0.2C127.9,99.3,128.1,99.2,128.4,99.1z M130.1,98.7c-0.2,0-0.4,0.1-0.7,0.1
		c0.1,0,0.3-0.1,0.4-0.1C130,98.7,130.1,98.7,130.1,98.7z M135.2,102.3c0-0.1,0-0.2,0-0.2C135.2,102.2,135.2,102.3,135.2,102.3z
		 M126.7,99.7c-0.2,0.1-0.4,0.2-0.6,0.3C126.3,99.9,126.5,99.8,126.7,99.7z M125.1,100.5c-0.2,0.1-0.4,0.2-0.5,0.3
		C124.8,100.7,125,100.6,125.1,100.5z M131.4,71.7c-0.1,0-0.2,0-0.4,0C131.1,71.7,131.3,71.7,131.4,71.7z M132.6,71.9
		c-0.1,0-0.1,0-0.2,0C132.5,71.9,132.6,71.9,132.6,71.9z M133.8,82.3c0.2,0,0.5-0.1,0.7-0.2C134.3,82.2,134,82.2,133.8,82.3z
		 M131.6,82.6c0.3,0,0.6-0.1,0.9-0.1C132.2,82.6,131.9,82.6,131.6,82.6z M129.5,82.8c-0.1,0-0.2,0-0.2,0c0.3,0,0.6,0,0.9,0
		C130,82.7,129.8,82.7,129.5,82.8z M127.7,82.7c-0.2,0-0.5,0-0.7,0C127.2,82.7,127.4,82.7,127.7,82.7z M55.5,81.8
		c-0.2-0.1-0.3-0.2-0.4-0.3C55.2,81.7,55.3,81.8,55.5,81.8z M54.5,81.2c-0.1-0.1-0.2-0.2-0.3-0.3C54.3,81,54.4,81.1,54.5,81.2z
		 M53.4,80c0.1,0.1,0.2,0.3,0.3,0.4C53.6,80.3,53.5,80.2,53.4,80z M63.5,66C63.5,65.9,63.5,65.9,63.5,66C63.6,66,63.6,66,63.5,66
		C63.6,66,63.6,66,63.5,66z M63.3,65.5C63.3,65.5,63.3,65.5,63.3,65.5C63.3,65.5,63.3,65.5,63.3,65.5z M56.4,90.3
		c-0.1-0.1-0.3-0.2-0.4-0.3C56.1,90,56.3,90.1,56.4,90.3z M32.3,107.8c0.2,0,0.3,0.1,0.5,0.1C32.6,107.9,32.4,107.8,32.3,107.8z
		 M82.7,74.7c0.1,0,0.1,0,0.2,0C82.8,74.7,82.8,74.7,82.7,74.7z M52.4,77.4c0-0.2,0-0.3,0-0.5C52.4,77.1,52.4,77.3,52.4,77.4z
		 M53.1,79.5c-0.1-0.1-0.1-0.2-0.2-0.4C52.9,79.2,53,79.3,53.1,79.5z M52.6,78.5c0-0.1-0.1-0.3-0.1-0.4
		C52.6,78.2,52.6,78.3,52.6,78.5z"/>
	<path class="st0" d="M21.4,65.8c-0.8,0.8-1.5,1.6-1.4,2.7c-0.3,2.2,0.8,3.9,1.9,5.6c1,1.5,2,3,2,4.9c-1.2,0-2.2-0.1-3.3-0.2l0,0
		l0,0c-0.9,2.1-0.9,4.5-0.1,6.7c0.4,0.8,1.2,1.3,1.9,1.7c0.4,0.3,0.9,0.5,1.2,0.9c0.2,0.5-0.2,0.7-0.6,0.9c-0.4,0-0.9-0.1-1.3-0.1
		c-0.9-0.1-1.8-0.2-2.8,0l0,0c1.3,3,2.9,4.9,5,5.9c3,1.1,6.2,1.4,9.4,1.5c0.5,0,0.9,0,1.4,0c0.9,0,1.8,0,2.8,0l0,0
		c0.1-1.7,0.2-3.3,0.4-4.8c0-0.1,0-0.2,0-0.3c0.1-0.5,0.1-0.9,0.2-1.4l0,0c0,0-0.1,0-0.1,0c-1.7,0-3.5-0.4-5.1-1.1
		c-1.6-0.7-3.1-1.9-4.2-3.2c-2.8-2.6-2.2-6.9-1.6-9.1c0.9-3.2,3-5.8,5-8.3c1-1.3,2.1-2.6,3-4l0,0c-1,0-1.9,0.6-2.6,1.2
		c-0.5,0.4-1.1,0.8-1.7,1c-1.8-0.2-3.3-1.3-4.7-2.4c-0.9-0.7-1.9-1.4-2.9-1.9c0,0-0.1,0-0.1,0c-0.2-0.1-0.3-0.2-0.5-0.2l0,0
		c0,0.2,0.1,0.4,0.1,0.6c0.1,0.6,0.2,1.2,0.2,1.8C22.6,64.6,22,65.2,21.4,65.8z M21.9,93.2C21.9,93.2,21.9,93.2,21.9,93.2
		C21.9,93.2,21.9,93.2,21.9,93.2z M22.7,64.2C22.7,64.2,22.7,64.2,22.7,64.2C22.7,64.2,22.7,64.2,22.7,64.2z"/>
	<path class="st0" d="M113,106.3c-0.7-1.5-1.9-2.7-3.1-3.8c-1.2-1.1-2.4-2.2-3.1-3.7c-0.6-1.2-0.5-2.5-0.3-3.8c0-0.1,0-0.2,0-0.3
		l0,0c-0.7,0-1.4,0-2.1,0c-1.8,0-3.6-0.1-5.2,0.7v0c-0.5,0.2-1,0.7-1.2,1.2c-0.1,0.1-0.1,0.2-0.1,0.3c0,0,0,0,0,0c0,0,0,0.1,0,0.1
		c-0.1,0.4,0.1,0.7,0.4,1c1.4,1.6,2.8,3.2,4.2,4.7c1.3,1.4,2.5,2.8,3.8,4.2c-1.5,1.3-3.3,2-5.2,2c-0.1,0-0.2,0-0.3,0
		c-2.7,0-5.3-1-7.7-2c-2.2-0.8-4.4-1.7-6.7-1.9l0,0l1.8,2c-1.1,0.8-2.4,1.3-3.6,1.8c-2,0.8-4.1,1.6-5.3,3.6l0,0
		c1.5-0.3,3.1-0.8,4.5-1.3c0.2,0.7,0.4,1.3,0.5,2c0,0.2,0.1,0.5,0.2,0.7c0.2,0.7,0.3,1.4,0.6,2l0,0c1,0.9,2.4,1.1,3.4,1.1
		c0.2,0,0.4,0,0.6,0c1.8-0.2,3.5-1,5.1-1.8c1.6-0.8,3.2-1.5,5-1.7c0.2,0,0.4,0,0.6,0c0.1,0,0.1,0,0.2,0c1.3,0,2.6,0.3,3.9,0.6
		c1.5,0.4,3.1,0.7,4.8,0.5c1.4-0.1,2.7-1,3.4-2.3C112.8,110.6,113.9,108.4,113,106.3z M98,98C98,97.9,98,97.9,98,98
		C98,97.9,98,97.9,98,98z M84.7,115.5c0,0,0-0.1,0-0.1C84.7,115.4,84.7,115.5,84.7,115.5z M89.9,117c-0.2,0-0.3,0.1-0.5,0.1
		C89.5,117.1,89.7,117.1,89.9,117z M91,116.7c0,0-0.1,0-0.1,0C90.9,116.7,91,116.7,91,116.7z"/>
	<path class="st0" d="M175.5,97c-1,1-2,2.2-3,3.4c-0.4,0.5-0.9,1.1-1.4,1.6c-7,8.4-14.1,16.9-21,25.2
		c-15.6,18.8-31.8,38.2-47.8,57.2c-0.3,0.3-0.6,0.6-0.8,1c-1,1.2-2.1,2.4-3,3.7l0,0c2.4-1,4.6-2.2,6.8-3.5c0.5-0.3,1.1-0.6,1.6-0.9
		c4.9-2.9,11.7-7.5,15.2-14.6l0,0l0,0c-0.1-0.1-0.3-0.3-0.4-0.4c-0.3-0.3-0.5-0.5-0.8-0.8c2.4-2.7,4.9-5.4,7.3-8.1
		c2.9-3.2,5.9-6.4,8.7-9.7c3-3.5,6.2-6.9,9.4-10.2c4.2-4.5,8.5-9.1,12.5-13.9c0.1-0.2,0.3-0.3,0.4-0.5c1.7-2,3.3-4.1,4.8-6.3
		c0.2-0.3,0.4-0.6,0.6-0.9c0.5-0.7,0.9-1.3,1.3-2c0.2-0.3,0.4-0.6,0.5-0.8c0.4-0.6,0.8-1.2,1.2-1.9C171.4,108.9,174,103,175.5,97
		L175.5,97z M120.6,172.7c-0.1,0.1-0.2,0.3-0.3,0.4C120.4,173,120.5,172.9,120.6,172.7z M120,173.6c-0.1,0.1-0.2,0.3-0.3,0.4
		C119.8,173.9,119.9,173.8,120,173.6z"/>
	<path class="st0" d="M223.1,106.3c-0.1,0.3-0.2,0.6-0.3,0.8c-1.9,5.1-4.8,10-8.6,14.4c-3.6,4.2-7.9,7.9-12.8,11
		c-4.9,3.1-10.3,5.8-16.2,8c-5.3,2-11.2,3.6-17.5,4.9c-3.5,1-7.2,0.5-10.7,0c-3.7-0.5-7.5-1.1-11.2,0.1c-1.5,0.4-2.9,1.3-4,2.6
		c-1,1.2-1.9,2.6-2.4,4.2l0,0c2.4,0.2,4.9,0.6,7.3,0.9c2.1,0.3,4.3,0.6,6.5,0.9c0.1,0,0.3,0,0.4,0c0.7,0.1,1.4,0.1,2.1,0.1
		c0.4,0,0.8,0,1.2,0c0.3,0,0.5,0,0.8,0c0.4,0,0.8,0,1.2,0c0,0,0,0,0.1,0c0.5,0,0.9,0,1.4-0.1c0,0,0,0,0,0c0.5,0,0.9-0.1,1.4-0.1
		c17.5-2.5,33.3-9,45.7-18.8c5.4-4.3,10.1-9.2,13.9-14.6c4-5.7,6.9-11.8,8.7-18.1l0,0c-0.3,0-0.7,0.1-1,0.1
		c-1.2,0.1-2.5,0.3-3.6,0.7c-0.1,0-0.2,0.1-0.2,0.1c-0.2,0.1-0.3,0.1-0.5,0.2C223.9,104.3,223.5,105.3,223.1,106.3z M199.5,133.8
		c-0.3,0.2-0.6,0.3-0.9,0.5c0.6-0.4,1.3-0.7,1.9-1.1C200.2,133.4,199.9,133.6,199.5,133.8z M194.6,136.5c0.7-0.4,1.5-0.8,2.2-1.2
		C196.1,135.7,195.4,136.1,194.6,136.5z M190.6,138.4c0.8-0.4,1.6-0.7,2.3-1.1C192.1,137.7,191.3,138.1,190.6,138.4z M186.4,140.2
		c0.7-0.3,1.5-0.6,2.2-0.9C187.8,139.6,187.1,139.9,186.4,140.2z M169.4,145.2c0.5-0.1,1-0.2,1.4-0.3
		C170.3,144.9,169.8,145.1,169.4,145.2z M173.8,144.1c0.6-0.1,1.1-0.3,1.7-0.4C174.9,143.9,174.3,144,173.8,144.1z M178.1,143
		c0.5-0.2,1.1-0.3,1.6-0.5C179.2,142.6,178.7,142.8,178.1,143z M182.5,141.6c0.5-0.2,0.9-0.3,1.4-0.5
		C183.4,141.3,182.9,141.4,182.5,141.6z"/>
	<path class="st0" d="M207,104.3c-1.9,2.3-3.9,4.7-6.5,6.7c-4.1,3.3-9.1,5.6-14.6,6.6c-5.3,1-10.9,0.7-16.1-0.8l0,0l0,0
		c-2.5,2.8-5.4,6.2-8.2,9.7l0,0l0,0c0.6,0.9,1.5,1.3,2.5,1.5c0.6,0.1,1.2,0.2,1.8,0.3c0.4,0,0.7,0.1,1.1,0.2
		c0.6,0.1,1.3,0.2,1.9,0.4c0.9,0.2,1.8,0.4,2.7,0.4c0.1,0,0.2,0,0.2,0c8.1-0.7,16-3.2,22.9-7.3c3.5-2.1,6.7-4.5,9.5-7.3
		c2.9-2.9,5.4-6.1,7.3-9.5l0,0C210,104.8,208.5,104.5,207,104.3L207,104.3L207,104.3z M168,119C168,119,168,119,168,119
		C168,119,168,119,168,119z M162.9,125c0.6-0.7,1.2-1.4,1.7-2.1C164.1,123.6,163.5,124.3,162.9,125z M162.6,127.3
		C162.6,127.3,162.6,127.3,162.6,127.3C162.6,127.3,162.6,127.3,162.6,127.3z"/>
	<path class="st0" d="M211.7,109.9c-0.8,1.3-1.6,2.7-2.8,3.7c-3.9,3.5-9.2,8-15.2,11.6c-7.7,4.6-14.6,6.8-21.2,6.8c-0.3,0-0.6,0-1,0
		c-0.2,0-0.5,0-0.7,0c-3.5,0-7.2-0.8-11.3-2.5l0,0l0,0c-3.7,4.1-7.3,8.4-10.9,12.7l0,0c0.5,0.1,1,0.2,1.6,0.2c0.1,0,0.1,0,0.2,0
		c0.6,0.1,1.2,0.2,1.7,0.3c0.5,0.1,0.9,0.1,1.3,0.1c0.2,0,0.3,0,0.5,0.1c1,0.1,1.9,0.2,2.9,0.3c0.2,0,0.4,0,0.6,0
		c0.9,0.1,1.8,0.1,2.8,0.1c0.2,0,0.4,0,0.6,0c0.4,0,0.9,0,1.3,0c0.3,0,0.7,0,1,0c0.5,0,1.1,0,1.6,0c0.7,0,1.3-0.1,2-0.1
		c0.5,0,1-0.1,1.5-0.1c0.6-0.1,1.3-0.1,1.9-0.2c0.5-0.1,1-0.2,1.5-0.2c0.3-0.1,0.6-0.1,0.9-0.2c0.3-0.1,0.6-0.1,0.9-0.2
		c0.5-0.1,1-0.2,1.4-0.3c0.3-0.1,0.6-0.1,0.9-0.2c9.9-3.7,20.3-8,29.2-14.6c3.9-2.9,7.3-6.2,9.9-9.9c0.4-0.5,0.7-1,1.1-1.5
		c2.4-3.5,4-7.2,5-11.1l0,0c-1.8-0.3-4.2-0.3-6,1.3C213.3,107,212.5,108.5,211.7,109.9z M192,126.2c0.2-0.1,0.5-0.3,0.7-0.4
		C192.5,125.9,192.3,126.1,192,126.2z M189.1,127.7c0.3-0.2,0.6-0.3,0.9-0.5C189.8,127.4,189.5,127.6,189.1,127.7z M186.3,129
		c0.4-0.1,0.7-0.3,1.1-0.5C187,128.7,186.7,128.8,186.3,129z M184.7,129.7c-0.3,0.1-0.6,0.2-0.9,0.3
		C184.1,129.9,184.4,129.8,184.7,129.7z M181.9,130.6c-0.2,0.1-0.5,0.1-0.7,0.2C181.5,130.7,181.7,130.6,181.9,130.6z M179.2,131.3
		c-0.2,0-0.5,0.1-0.7,0.1C178.7,131.4,179,131.3,179.2,131.3z M175.8,131.8c0.2,0,0.5-0.1,0.7-0.1
		C176.2,131.8,176,131.8,175.8,131.8z M156,133.6c0.5-0.6,1.1-1.2,1.6-1.9C157.1,132.3,156.5,132.9,156,133.6z M152.1,138.1
		c-0.5,0.6-1,1.2-1.5,1.7C151.1,139.3,151.6,138.7,152.1,138.1z M173,132c0.5,0,1,0,1.5-0.1C174,132,173.5,132,173,132z"/>
	<path class="st0" d="M142,166.7c0.6-0.1,1.1-0.3,1.7-0.4c6.1-1.9,11.5-5.2,15.6-9.6l0,0c-0.3,0-0.5,0-0.8,0c-0.4,0-0.9,0-1.3,0
		c-0.4,0-0.8,0-1.2,0c-0.6,0-1.1,0-1.7,0c-0.4,0-0.8,0-1.2-0.1c-0.4,0-0.8,0-1.2-0.1c-3.6-0.3-8.3-0.9-14.4-2.4l0,0l0,0
		c-1,1.1-2.1,2.2-3.1,3.3c-3,3.2-6.1,6.6-9.1,10l0,0c2.1,0.3,4.1,0.5,6.2,0.5c0.2,0,0.4,0,0.6,0c0.1,0,0.2,0,0.3,0
		c1.3,0,2.6-0.1,3.9-0.3c0.2,0,0.4,0,0.6-0.1c0.6-0.1,1.2-0.2,1.8-0.3c0.3,0,0.6-0.1,0.8-0.2c0.6-0.1,1.2-0.2,1.7-0.4
		C141.6,166.8,141.8,166.7,142,166.7z"/>
	<path class="st0" d="M137.2,170.5c-1.2,0-2.4,0.1-3.6,0.1c-0.7,0-1.4,0.1-2.1,0.1c-0.1,0-0.2,0-0.2,0c-0.8,0-1.5-0.3-2.2-0.6
		c-0.7-0.3-1.4-0.6-2.2-0.6c-0.1,0-0.1,0-0.2,0c-1.3,0.1-2.2,0.9-2.8,1.5c-0.8,0.8-1.4,1.8-2,2.7c-0.2,0.3-0.4,0.6-0.6,1
		c-0.2,0.4-0.5,0.8-0.7,1.2c-0.8,1.2-1.6,2.4-2.8,3.4c-0.1,0.1-0.2,0.2-0.3,0.3c-0.5,0.4-1,0.8-1.2,1.5c0,0.1,0,0.1,0,0.2
		c0,0.1,0,0.1-0.1,0.2c-0.4,2.6-0.3,6.4,1.7,9.5l0,0C124.4,183.9,130.8,177,137.2,170.5L137.2,170.5z M124.8,170.4
		C124.8,170.4,124.9,170.4,124.8,170.4C124.9,170.4,124.8,170.4,124.8,170.4z M125.5,170c0.1,0,0.2-0.1,0.3-0.1
		C125.6,169.9,125.5,170,125.5,170z M126.2,169.7c0.1,0,0.2,0,0.3-0.1C126.4,169.7,126.3,169.7,126.2,169.7z"/>
	<path class="st0" d="M153.9,183.7c0,0.2,0,0.4,0.1,0.6c0.1,0.6,0.1,1.2,0.2,1.7c0,0,0,0.1,0,0.1c0.3,1.6,0.6,3.3,1,4.8
		c0.7,2.8,1.4,5.8,1.4,8.8l0,0c1.2-0.2,2.4-0.5,3.6-0.8l0,0c-0.3-1.2-0.7-2.4-1.1-3.5c-0.1-0.4-0.3-0.8-0.4-1.1
		c-0.7-2-1.5-4.1-1.8-6.3c0-0.1,0-0.3,0-0.4c0-0.2,0-0.4,0-0.7c0-3.2,1.4-6,2.8-8.7c0.7-1.4,1.4-2.9,2-4.4l0,0c-0.4,0-0.8,0-1.2,0
		c-1.2-0.1-2.5-0.2-3.4,0.8c-1.7,1.6-2.8,3.7-3.2,6.1c-0.1,0.8-0.2,1.6-0.1,2.4C153.8,183.2,153.9,183.4,153.9,183.7z"/>
	<path class="st0" d="M169.8,174.1c-0.1,0.1-0.1,0.3-0.2,0.5c0,0,0,0,0,0c-0.4,0.9-0.6,1.9-0.8,2.9c-0.3,1.5-0.5,3.1-1.7,4.3
		c-0.6,0.7-0.9,1.6-0.9,2.7c-0.1,1.2,0,2.4,0.2,3.6c0.5,3.5,1.8,6.8,3.1,10.1c1.4,3.7,2.9,7.4,3.2,11.4c0,0.6,0.1,1.1,0.1,1.7
		c0,1.1-0.4,2.3-1.3,3.2c-1.7,2-4,3-6.4,3.9c-2.7,1.1-5.4,2.2-7,4.8l0,0c0.8-0.4,1.7-0.9,2.5-1.3c2.6-1.4,5.2-2.8,8.1-3.7
		c0,0,0,0,0,0c0.9-0.3,1.9-0.5,2.9-0.7c0.1,0,0.2,0,0.4,0c0,0,0,0,0.1,0c0.2,0,0.4,0,0.6,0.1c0,0,0,0,0,0c1.4,0.3,2.5,1.4,3.5,2.5
		c1.8,2.2,2.7,4.8,3.5,7.4c0.6,1.8,1.2,3.7,2.2,5.4l0,0c0.4-1.8,0-3.6-0.3-5.4c-0.1-0.4-0.2-0.8-0.2-1.2c-0.2-1.2-0.4-2.4-0.2-3.7
		c2.2-0.8,4,0.3,5.7,1.4c0.9,0.5,1.8,1.1,2.8,1.4l0,0c-1.7-2.1-3.9-3.5-6.1-4.8c-1.7-1.1-3.6-2.2-5.1-3.7c0.8-1.3,2-2.1,3.7-2.4
		c1.5-0.3,3.1-0.3,4.6-0.3c0.8,0,1.5,0,2.2,0l0,0c-2.2-0.4-4.4-0.6-6.6-0.8c-1.9-0.2-3.9-0.3-5.9-0.7c-0.4-4.1-1.7-8.2-3-12.1
		c-1.7-5-3.4-10.2-3.1-15.7c0.1-3.5,1.7-7,4.9-10.7l0,0C173.5,174.1,171.6,174.1,169.8,174.1L169.8,174.1L169.8,174.1z M181.1,224.6
		C181.1,224.6,181.1,224.6,181.1,224.6C181.1,224.6,181.1,224.6,181.1,224.6C181.1,224.6,181.1,224.6,181.1,224.6z M181.1,223.5
		c0-0.1,0-0.3,0-0.4C181.1,223.2,181.1,223.4,181.1,223.5z M182.3,222.4C182.3,222.4,182.3,222.4,182.3,222.4
		C182.3,222.4,182.3,222.4,182.3,222.4z M187.5,223.4c0.1,0.1,0.1,0.1,0.2,0.2C187.6,223.5,187.6,223.4,187.5,223.4z M181.9,214.6
		c-0.2,0.1-0.5,0.1-0.7,0.2C181.4,214.7,181.7,214.6,181.9,214.6z M180.7,215c-0.1,0.1-0.3,0.1-0.4,0.2
		C180.5,215.1,180.6,215.1,180.7,215z M179.7,215.6c-0.1,0.1-0.2,0.2-0.4,0.3C179.5,215.8,179.6,215.7,179.7,215.6z M179,216.3
		c-0.1,0.1-0.2,0.2-0.2,0.3C178.8,216.5,178.9,216.4,179,216.3z M171,192C171,192,171,192,171,192C171,192,171,192,171,192
		C171,192.1,171,192,171,192z M170.7,190.3c0,0,0-0.1,0-0.1C170.7,190.2,170.7,190.3,170.7,190.3
		C170.7,190.3,170.7,190.3,170.7,190.3z M170.5,188.5C170.5,188.5,170.5,188.5,170.5,188.5C170.5,188.5,170.5,188.5,170.5,188.5z
		 M171.9,179.1C171.9,179.1,171.9,179.1,171.9,179.1C171.9,179.1,171.9,179.1,171.9,179.1z M171.3,180.5
		C171.3,180.5,171.3,180.5,171.3,180.5C171.3,180.5,171.3,180.5,171.3,180.5z M172.6,177.8C172.6,177.8,172.6,177.8,172.6,177.8
		C172.6,177.8,172.6,177.8,172.6,177.8z M189.3,225.1c-0.2-0.2-0.3-0.4-0.5-0.6C188.9,224.7,189.1,224.9,189.3,225.1z"/>
	<path class="st0" d="M69.1,251.9L69.1,251.9c0.7-1.1,1.4-2.3,2.1-3.4c0.8-1.4,1.6-2.9,2.6-4.2c7-11,15.6-21.1,24.2-30.7
		c1.2-1.4,2.5-2.7,3.7-4.1c4.8-5.4,9.8-10.9,14.4-16.5l0,0l0,0c-1.5-2.8-2.4-5.9-2.7-9.3l0,0c-0.1,0.2-0.3,0.4-0.4,0.6
		c-0.3,0.5-0.6,0.9-1,1.4c-5.4,8.8-11.6,17.2-18.3,24.9c-6,6.9-12.5,13.3-19.3,19.1c-1,0.8-2,1.6-2.9,2.4c-0.9,0.7-1,1.8-1.1,2.8
		c0,0.4-0.1,0.7-0.1,1c-0.2,1.2-0.4,2.5-0.6,3.7c-0.5,2.8-1,5.6-1,8.4c0,0,0,0.1,0,0.1c0,0.6,0.1,1.3,0.1,1.9c0,0,0,0,0,0.1
		c0,0.3,0.1,0.6,0.2,0.9c0,0.1,0,0.2,0.1,0.2C69,251.4,69,251.7,69.1,251.9z M75.4,241.7c0.2-0.4,0.5-0.7,0.7-1.1
		C75.9,241,75.7,241.3,75.4,241.7z M78,238c0.3-0.4,0.6-0.9,0.9-1.3C78.6,237.1,78.3,237.5,78,238z M80.8,234.1
		c0.2-0.2,0.4-0.5,0.5-0.7C81.1,233.6,81,233.9,80.8,234.1z M85.7,227.8c0.1-0.1,0.2-0.2,0.3-0.4C85.9,227.5,85.8,227.6,85.7,227.8z
		 M88.6,224.3C88.6,224.3,88.6,224.3,88.6,224.3C88.6,224.3,88.6,224.3,88.6,224.3z M115.3,191.3c0.1,0.3,0.3,0.7,0.5,1
		C115.6,192,115.4,191.7,115.3,191.3z M114.4,189.1c0.1,0.4,0.2,0.7,0.4,1.1C114.6,189.8,114.5,189.4,114.4,189.1z M113.8,186.7
		c0.1,0.4,0.2,0.8,0.3,1.1C113.9,187.5,113.8,187.1,113.8,186.7z M113.4,184.3c0,0.4,0.1,0.8,0.2,1.2
		C113.5,185.1,113.4,184.7,113.4,184.3z"/>
	<path class="st0" d="M56.3,232.8c0.1,0,0.3-0.1,0.4-0.1c1.8-0.4,3.6-0.4,5.3-0.4c1.8,0,3.6,0,5.3-0.4c0.6-0.1,1.1-0.3,1.5-0.6
		c0.8-0.5,1.5-1.1,2.2-1.7c0.2-0.2,0.5-0.4,0.7-0.6c15.2-13,27.6-27.4,36.6-42.6l0,0c-0.4,0.3-0.9,0.6-1.3,0.9
		c-3.1,2.2-6.4,4.4-10.2,5.2c-1.4,0.2-2.4,1.2-3.3,2.2c-0.1,0.1-0.3,0.3-0.4,0.4l0,0c-2.7,3-5.4,6-8.1,9
		c-9,10.1-18.2,20.6-29.3,28.8l0,0C55.9,232.9,56.1,232.8,56.3,232.8z M72.8,217.5c0.1-0.1,0.3-0.3,0.4-0.4
		C73,217.2,72.9,217.4,72.8,217.5z M68.3,222.1c0.3-0.3,0.6-0.6,0.8-0.8C68.8,221.5,68.5,221.8,68.3,222.1z M65.9,224.3
		c-0.3,0.3-0.6,0.5-0.8,0.8c0.5-0.4,1-0.9,1.4-1.3C66.3,224,66.1,224.2,65.9,224.3z M62.5,227.4c-0.6,0.5-1.2,1-1.8,1.6
		C61.3,228.5,61.9,227.9,62.5,227.4z M57.3,231.7c0.5-0.4,1.1-0.8,1.6-1.3C58.4,230.9,57.8,231.3,57.3,231.7z"/>
	<path class="st0" d="M222.3,263c2.6-9,2.7-18.3,0.3-26.8c-1-3.3-2.4-6.6-4-9.7c-1.6-3.1-3.6-6.1-5.8-8.8c-2.2-2.8-4.7-5.3-7.4-7.5
		c-2.8-2.3-5.7-4.2-8.8-5.8c-6.1-3.1-13.1-4.8-20.3-5.1l0,0c0.3,2.6,0.7,5.2,1.2,7.7c0.2,1.1,0.4,2.2,0.6,3.2l0,0l0,0
		c2,0.2,4,0.4,6,0.6c2.8,0.2,5.8,0.5,8.6,0.9c1.7,0.3,3.3,1.2,4.5,2.1c0.6,0.3,0.7,0.9,0.7,1.5c0,0.1,0,0.2,0,0.4
		c-2.1,0.6-4.4,0.7-6.5,0.7c-0.6,0-1.1,0-1.6,0c-1.9,0-3.9,0-5.8,0.2c-0.1,0-0.2,0-0.3,0c-0.3,0-0.5,0.1-0.8,0.1l0,0
		c0.3,0.2,0.5,0.4,0.8,0.7c0.1,0.1,0.2,0.2,0.4,0.3c0.8,0.7,1.7,1.3,2.5,1.9c1.6,1.2,3.2,2.4,4.6,3.8c1.4,1.4,3,3.3,3.8,5.6
		c0,0.1,0.1,0.2,0.1,0.2c0.1,0.3,0.2,0.7,0.3,1c0,0.1,0,0.3,0.1,0.4c0,0.3,0.1,0.6,0.1,0.9c0,0.2,0,0.3,0,0.5c0,0.1,0,0.3,0,0.4
		c-2-0.7-3.6-2.1-5.1-3.5c-1.9-1.7-3.8-3.4-6.4-3.9l0,0c1.6,5.1,0.4,10.6-3,14.1c-0.8-2.1-1.5-4.3-2.1-6.5c-0.4-1.5-0.9-3-1.4-4.6
		c-0.2-0.5-0.3-1.1-0.5-1.6c-0.5-1.8-1-3.5-2.1-4.9c-0.4-0.5-0.8-0.9-1.3-1.2c-0.1-0.1-0.2-0.1-0.3-0.2c0,0,0,0-0.1,0c0,0,0,0,0,0
		c-1.5-0.8-3.2-0.1-4.8,0.5c-0.3,0.1-0.5,0.2-0.7,0.3c-2,0.8-3.9,2-5.8,3.1c-2,1.2-4.1,2.5-6.4,3.3c-0.2,0.1-0.3,0.1-0.5,0.2
		c-0.2,0.1-0.5,0.2-0.7,0.2c0-1.9,0.3-4.5,2.2-6.5c1.8-1.9,4.2-3,6.5-4.1c2.1-1,4.4-2,6.1-3.7c1.1-1.1,1.2-2.7,1.2-4.2
		c0-0.2,0-0.5,0-0.7c-0.2-4.1-1.2-6.9-3.2-8.6l0,0h0c-0.2,0-0.3,0-0.5,0c-1,0-2,0.3-2.9,0.5c-0.3,0.1-0.7,0.2-1,0.2
		c-3.7,0.9-7.2,2.2-10.5,3.8c-3.4,1.7-6.6,3.7-9.5,5.9c-12.3,9.9-19.3,25.9-18.5,42c0.5,10.3,4.7,20.6,11.9,28.9
		c7.2,8.3,16.7,14.1,26.8,16.1c4,0.9,8.1,1.3,12.1,1.3c4.1,0,8.3-0.5,12.2-1.4c4.1-0.9,7.9-2.4,11.4-4.2c3.7-2,7-4.4,9.8-7.2
		c0.2-0.2,0.4-0.5,0.7-0.7c0.4-0.4,0.7-0.7,1-1.1c0.4-0.5,0.8-0.9,1.3-1.4c0.3-0.4,0.7-0.8,1-1.1c0.4-0.5,0.8-1,1.2-1.5
		c0.3-0.4,0.6-0.8,0.9-1.2c0.4-0.5,0.7-1,1.1-1.6c0.1-0.2,0.3-0.4,0.4-0.6c0.1-0.2,0.3-0.4,0.4-0.6c0.2-0.3,0.4-0.5,0.5-0.8
		c0.2-0.3,0.3-0.6,0.5-0.9c0.2-0.4,0.5-0.8,0.7-1.2c0.3-0.6,0.6-1.2,0.9-1.8c0.2-0.4,0.4-0.8,0.6-1.3c0.3-0.6,0.5-1.2,0.8-1.8
		c0.2-0.4,0.4-0.9,0.5-1.3c0.2-0.6,0.5-1.2,0.7-1.8c0.2-0.5,0.3-0.9,0.5-1.4C222.1,263.6,222.2,263.3,222.3,263z M148.7,241.1
		c0.3-0.8,1.1-0.9,1.9-1c0,0,0.1,0,0.1,0l0,0c-1.3,4.2-1.9,8.9-1.8,14.1l0,0c-0.5-0.1-1.1-0.1-1.6-0.1l0,0l0,0
		c-0.1-0.7-0.2-1.3-0.2-1.9C146.8,247.7,147.3,244.1,148.7,241.1z M143.7,253.2L143.7,253.2L143.7,253.2c-0.5,0-1,0-1.5-0.1l0,0l0,0
		c-0.2-0.4-0.3-0.8-0.5-1.2c-0.9-3-0.6-6.5,0.9-9.7c0-0.1,0.1-0.1,0.1-0.2c0,0,0-0.1,0-0.1c0.1-0.1,0.1-0.1,0.2-0.2c0,0,0,0,0,0
		c0.3-0.2,0.7-0.2,1-0.3c0.2,0,0.4,0,0.6-0.1l0,0c-0.7,2.1-1.2,4-1.3,5.8C143,249.4,143.2,251.4,143.7,253.2z M139.5,252.3
		L139.5,252.3l-1.4,0l0,0c-1.1-3.8-1.2-7-0.2-9.7l0,0l0,0c0.3,0,0.5-0.1,0.8-0.1c0.3,0,0.5-0.1,0.8-0.1l0,0
		c-0.2,2.2-0.3,4.2-0.3,6.1c0,0.2,0,0.4,0,0.6c0,0.5,0.1,1,0.1,1.5c0,0.3,0.1,0.7,0.1,1C139.5,251.8,139.5,252,139.5,252.3z
		 M168.9,202.5C168.9,202.5,168.9,202.5,168.9,202.5C168.9,202.5,168.9,202.5,168.9,202.5z M168.4,201.6
		C168.4,201.6,168.4,201.6,168.4,201.6C168.4,201.6,168.4,201.6,168.4,201.6z M135.9,251.7L135.9,251.7c-0.2-0.1-0.3-0.1-0.5-0.2
		c-0.3-0.1-0.6-0.2-0.8-0.5c0,0,0-0.1,0-0.1c0,0,0,0,0,0c0-0.1-0.1-0.1-0.1-0.2c-0.7-2.5-0.6-5.1,0-7.5l0,0l0,0
		c0.4-0.1,0.8-0.1,1.3-0.3l0,0C135.6,246.1,135.7,249.2,135.9,251.7z M132.7,250.9L132.7,250.9c-0.4,0-0.8,0-1.1-0.1l0,0l0,0l0-0.2
		c-0.4-2.3-0.8-4.6,0.1-6.8l0,0h0c0.1,0,0.3,0,0.5,0c0.2,0,0.4,0,0.5,0l0,0C132.5,245.9,132.5,248.3,132.7,250.9z M129.5,250.3
		L129.5,250.3L129.5,250.3c-0.1-0.3-0.1-0.5-0.2-0.8c-0.2-1.1-0.5-2.3-0.4-3.3c0,0,0,0,0,0c0-0.2,0.1-0.5,0.2-0.7c0,0,0-0.1,0-0.1
		c0-0.1,0.1-0.2,0.1-0.3c0-0.1,0.1-0.1,0.1-0.2c0.1-0.1,0.2-0.3,0.3-0.4c0.1-0.1,0.1-0.1,0.2-0.2c0.1-0.1,0.1-0.1,0.2-0.2l0,0
		c0.1,1,0.1,2.1,0.1,3.1c0,1.1,0,2.2,0.1,3.3l0,0C130.1,250.4,129.7,250.4,129.5,250.3z M127.1,249.1c-0.3-1.6-0.6-3.3,0.5-4.5
		c0,0,0,0,0,0c0,0,0,0,0,0c0,0,0.1,0,0.1-0.1c0,0,0,0,0,0c0,0,0,0,0,0c0.1-0.1,0.1-0.2,0.2-0.2l0,0c0.1,1.1,0.1,2.2,0.1,3.3
		c0,0.9,0,1.7,0,2.6l0,0c-0.1,0-0.3-0.1-0.4-0.1c-0.1,0-0.3-0.1-0.4-0.1l0,0l0,0C127.2,249.7,127.1,249.4,127.1,249.1z M125.6,244.9
		c0.1,0,0.3-0.1,0.4-0.1l0,0c0,0.4,0,0.8,0,1.2c0,0.9,0,1.8,0,2.7c0,0.1,0,0.2,0,0.2c0,0.4,0,0.8-0.1,1.1l0,0c-1.2-1.2-1-3-0.8-4.6
		c0-0.1,0-0.3,0.1-0.4l0,0l0,0C125.3,245,125.5,245,125.6,244.9z M197.4,214.1c0,0-0.1-0.1-0.1-0.1
		C197.4,214,197.4,214.1,197.4,214.1z M175.3,222.5C175.3,222.5,175.3,222.5,175.3,222.5C175.3,222.5,175.3,222.5,175.3,222.5z
		 M174.8,221.8c0-0.1-0.1-0.1-0.1-0.2C174.7,221.7,174.8,221.8,174.8,221.8z M174.2,221.1C174.2,221.1,174.1,221.1,174.2,221.1
		C174.1,221.1,174.2,221.1,174.2,221.1z"/>
</g>
</svg>
