<?xml version="1.0" encoding="utf-8"?>
<!-- Generator: Adobe Illustrator 24.0.1, SVG Export Plug-In . SVG Version: 6.00 Build 0)  -->
<svg version="1.1" id="Layer_1" xmlns="http://www.w3.org/2000/svg" xmlns:xlink="http://www.w3.org/1999/xlink" x="0px" y="0px"
	 viewBox="0 0 316.2 316.2" style="enable-background:new 0 0 316.2 316.2;" xml:space="preserve">
<style type="text/css">
	.st0{fill:#FFFFFF;}
</style>
<g>
	<path class="st0" d="M157.5,0C70.5,0,0,70.5,0,157.5c0,87,70.5,157.5,157.5,157.5c87,0,157.5-70.5,157.5-157.5
		C315.1,70.5,244.5,0,157.5,0z M157.5,307.2c-82.6,0-149.6-67-149.6-149.6c0-82.6,67-149.6,149.6-149.6s149.6,67,149.6,149.6
		C307.2,240.2,240.2,307.2,157.5,307.2z"/>
	<path class="st0" d="M157.5,50.5c-59.1,0-107,47.9-107,107c0,59.1,47.9,107,107,107c59.1,0,107-47.9,107-107
		C264.5,98.4,216.6,50.5,157.5,50.5z M157.5,256.9c-54.9,0-99.3-44.5-99.3-99.3s44.5-99.3,99.3-99.3s99.3,44.5,99.3,99.3
		S212.4,256.9,157.5,256.9z"/>
	<path class="st0" d="M153,114.7c-1.6,2.3-6,9.6-9,13.5c1.6,6.2,6.4,1.8,13.1,1.5c6.3-0.3,9.2,5,13.2-1.7
		c-2.6-4.4-7.3-11.5-8.9-13.5c-1.2,0.9-2.7,1.4-4.3,1.4C155.6,115.8,154.2,115.4,153,114.7z"/>
	<path class="st0" d="M144.2,90.1c-4.9,4-10.9,1.9-10.1,9.7c4.9,2,13.8,4.6,16,5.2c1.1-2.5,3.5-4.2,6.4-4.4l0,0
		c0,0-0.4-11.6-0.4-17.5C151.1,79,149.4,85.8,144.2,90.1z"/>
	<path class="st0" d="M142.5,127.7c2.8-4.2,8.1-11.8,9.5-13.8c-1.6-1.4-2.6-3.4-2.7-5.7c0-0.7,0.1-1.4,0.3-2
		c-1.7-0.5-11-3.4-16.4-4.5c-4.9,6.1,1.2,7.6,3.1,13.6C138.4,121.7,136.2,128.4,142.5,127.7z"/>
	<path class="st0" d="M164.1,104.9c2.2-0.6,11.1-3.2,16-5.2c0.8-7.8-5.2-5.7-10.1-9.7c-5.2-4.2-6.9-11-11.9-7
		c0,5.8-0.4,17.5-0.4,17.5l0,0C160.5,100.7,162.9,102.5,164.1,104.9z"/>
	<path class="st0" d="M177.8,115.4c1.9-6.1,8-7.6,3.1-13.6c-5.4,1-14.7,3.9-16.4,4.5c0.2,0.7,0.3,1.3,0.3,2c0,2.3-0.9,4.2-2.5,5.6
		c1.4,2.1,6.6,9.1,9.4,13.3C178,127.7,175.8,121.7,177.8,115.4z"/>
	<path class="st0" d="M140.8,129c-6.9,0.3-4.3-9.1-6.1-14.2c-1.2-3.4-4.5-4.6-4.8-6.5c-0.6-3.2,0.4-6.5,0.5-6.5
		C116.3,105.7,127.4,138.3,140.8,129z"/>
	<path class="st0" d="M183.2,101.1c0.1,2.3,2,2.7,1.8,5.3c-0.1,3.7-4.3,4.7-5.2,9c-1.6,7.4,0.6,12.4-5.2,14.3
		c1.8,0.8,4.8,1.6,7.2,0.8C187.8,129.3,197.5,103.2,183.2,101.1z"/>
	<path class="st0" d="M172.2,130.9c-2.4,4.4-7.9,1.5-13.6,1.4c-8.6-0.3-12.9,4.5-16.1-1.6C139.5,147.4,176.5,145.1,172.2,130.9z"/>
	<path class="st0" d="M131.6,98.6c-0.7-5,5.4-6,10-9.3c7-5,7.5-11.4,13.7-8.4C147.7,65.7,119.6,89.9,131.6,98.6z"/>
	<path class="st0" d="M172.5,89.3c4.7,3.3,10.8,4.3,10,9.3c11.9-8.7-16.2-32.9-23.8-17.8C165,77.9,165.5,84.3,172.5,89.3z"/>
	<path class="st0" d="M157.1,80c-0.1-2.6,3.2-4.9,3.2-4.9s-3.1-1.4-3.4-4.9c0.1,2.6-3.2,4.9-3.2,4.9S156.9,77.3,157.1,80z"/>
	<path class="st0" d="M189.8,101.4c0,0,2-3.8,4.3-4.3c-3.6,0.4-5.8-1.9-5.8-1.9s-1.4,3.5-4.3,4.3
		C186.4,99.3,189.8,101.4,189.8,101.4z"/>
	<path class="st0" d="M180.4,139.4c-1.7-2.1-0.3-6.1-0.3-6.1s-4.2,0.3-5.8-1.8c1.3,2.6,0.3,6.1,0.3,6.1S178.7,137.3,180.4,139.4z"/>
	<path class="st0" d="M135.2,132.6c0,0,1.5,3.1-0.2,6c2.3-2,5.9-1.5,5.9-1.5s-1.3-3.5,0.2-6C138.6,133.8,135.2,132.6,135.2,132.6z"
		/>
	<path class="st0" d="M124.5,102.3c2.4-2.9,5.1-2.3,5.1-2.3s-3.5-1.9-3.5-4.4c-1,2.2-5.1,2.3-5.1,2.3S123.8,99.3,124.5,102.3z"/>
	<path class="st0" d="M150.5,108.2c0,3.6,3,6.5,6.7,6.5c3.6,0,6.5-3,6.5-6.6c0-3.6-3-6.5-6.7-6.5
		C153.4,101.6,150.5,104.6,150.5,108.2z M158.6,103.6c1.5,0,3,1.5,3,2.9c0,0.6-0.3,1.2-0.8,1.6c0.5,0.4,0.8,0.9,0.8,1.6
		c0,1.5-1.4,3-2.9,3h0c-0.6,0-1.2-0.3-1.6-0.8c-0.4,0.5-0.9,0.8-1.6,0.8c-1.5,0-3-1.5-3-2.9c0-0.6,0.3-1.2,0.8-1.6
		c-0.5-0.4-0.8-0.9-0.8-1.5c0-1.5,1.4-3,2.9-3c0.6,0,1.2,0.3,1.6,0.8C157.4,103.9,157.9,103.6,158.6,103.6z"/>
	<path class="st0" d="M158.5,105.3c0.2,0.2,0.4,0.5,0.4,1c0.2,0,0.4,0,0.5,0.1c0.3,0.1,0.5,0.3,0.7,0.6c0.1-0.1,0.2-0.2,0.2-0.4
		c0-0.8-0.9-1.7-1.7-1.7c-0.1,0-0.2,0.1-0.3,0.2C158.3,105.2,158.4,105.2,158.5,105.3z"/>
	<path class="st0" d="M159.5,110c-0.1,0.1-0.3,0.1-0.5,0.1c0,0.5-0.2,0.8-0.4,1c-0.1,0.1-0.2,0.2-0.3,0.2c0.1,0.1,0.2,0.1,0.4,0.1
		c0.8,0,1.7-0.9,1.7-1.7c0-0.1-0.1-0.2-0.2-0.4C160,109.6,159.8,109.8,159.5,110z"/>
	<path class="st0" d="M154,107.1c0.2-0.3,0.4-0.5,0.7-0.6c0.1-0.1,0.3-0.1,0.5-0.1c0-0.5,0.2-0.8,0.4-1c0.1-0.1,0.2-0.2,0.3-0.2
		c-0.1-0.1-0.2-0.1-0.4-0.1c-0.8,0-1.6,0.9-1.7,1.7C153.8,106.9,153.9,107,154,107.1z"/>
	<path class="st0" d="M155.6,111.1c-0.2-0.2-0.4-0.5-0.4-1c-0.2,0-0.4,0-0.5-0.1c-0.3-0.1-0.5-0.3-0.7-0.6c-0.1,0.1-0.2,0.2-0.2,0.4
		c0,0.8,0.9,1.6,1.7,1.7c0.2,0,0.3-0.1,0.4-0.2C155.8,111.2,155.7,111.2,155.6,111.1z"/>
	<path class="st0" d="M158.9,108.8L158.9,108.8c0.1,0,0.3-0.2,0.3-0.6c0-0.4-0.2-0.6-0.2-0.6l-0.1,0c-0.1,0-0.3,0.1-0.5,0.3
		c0,0.1,0,0.2,0,0.3c0,0.1,0,0.2,0,0.4C158.6,108.7,158.8,108.8,158.9,108.8z"/>
	<path class="st0" d="M157.7,110.1l0-0.1c0-0.1-0.1-0.3-0.3-0.6c-0.1,0-0.2,0-0.3,0c-0.1,0-0.2,0-0.3,0c-0.2,0.2-0.3,0.5-0.3,0.6
		l0,0.1c0.1,0.1,0.3,0.2,0.6,0.2C157.4,110.3,157.6,110.2,157.7,110.1z"/>
	<path class="st0" d="M155.2,108.8L155.2,108.8c0.1,0,0.4-0.1,0.6-0.3c0-0.1-0.1-0.2-0.1-0.3c0-0.1,0-0.2,0-0.3
		c-0.3-0.2-0.5-0.3-0.6-0.3l0,0l0,0c0,0-0.2,0.2-0.2,0.6C154.9,108.6,155.1,108.8,155.2,108.8z"/>
	<path class="st0" d="M156.5,106.3L156.5,106.3c0,0.2,0.1,0.4,0.3,0.6c0.1,0,0.2-0.1,0.4-0.1c0.1,0,0.2,0,0.3,0
		c0.2-0.2,0.3-0.4,0.3-0.5l0-0.1c-0.1-0.1-0.3-0.2-0.6-0.2C156.8,106.1,156.5,106.2,156.5,106.3z"/>
	<path class="st0" d="M157.1,108.6c0.2,0,0.4-0.2,0.4-0.4s-0.2-0.4-0.4-0.4s-0.4,0.2-0.4,0.4S156.8,108.6,157.1,108.6z"/>
	<path class="st0" d="M127,195.4c-1.6-2.4-5.3-3.4-7.6-2.5c-2.3,0.9-2.5,3.5-1.2,5.9c5.4,9.6,1.9,21.1,8.2,30.7
		c1.6,2.4,5.3,3.4,7.6,2.5c2.3-0.9,2.5-3.5,1.2-5.9C129.9,216.5,133.4,205,127,195.4z"/>
	<path class="st0" d="M195.3,192.9c-2.3-0.9-6,0.1-7.6,2.5c-6.4,9.6-2.8,21.1-8.2,30.7c-1.3,2.4-1.1,5,1.2,5.9
		c2.3,0.9,6-0.1,7.6-2.5c6.4-9.6,2.8-21.1,8.2-30.7C197.8,196.4,197.6,193.9,195.3,192.9z"/>
	<path class="st0" d="M98.8,211.3c-1.3-0.4-2.7,0.4-3.1,1.7l-2.1,6.9c-0.4,1.3,0.4,2.7,1.7,3.1c1.3,0.4,2.7-0.3,3.1-1.7l2.1-6.9
		C100.9,213.1,100.1,211.7,98.8,211.3z"/>
	<path class="st0" d="M105.4,211.1c-1.3-0.4-2.7,0.3-3.1,1.7l-2.1,6.9c-0.4,1.3,0.4,2.7,1.7,3.1c1.3,0.4,2.7-0.3,3.1-1.7l2.1-6.9
		C107.5,212.9,106.7,211.5,105.4,211.1z"/>
	<path class="st0" d="M112.3,210.4c-1.3-0.4-2.7,0.3-3.1,1.7l-2.1,6.9c-0.4,1.3,0.3,2.7,1.7,3.1c1.3,0.4,2.7-0.3,3.1-1.7l2.1-6.9
		C114.4,212.2,113.6,210.8,112.3,210.4z"/>
	<path class="st0" d="M119,209.9c-1.3-0.4-2.7,0.3-3.1,1.7l-2.1,6.9c-0.4,1.3,0.4,2.7,1.7,3.1c1.3,0.4,2.7-0.4,3.1-1.7l2.1-6.9
		C121.1,211.6,120.3,210.3,119,209.9z"/>
	<path class="st0" d="M219.3,213c-0.4-1.3-1.8-2.1-3.1-1.7c-1.3,0.4-2,1.8-1.7,3.1l2.1,6.9c0.4,1.3,1.8,2,3.1,1.7
		c1.3-0.4,2.1-1.8,1.7-3.1L219.3,213z"/>
	<path class="st0" d="M212.7,212.8c-0.4-1.3-1.8-2.1-3.1-1.7c-1.3,0.4-2,1.8-1.7,3.1l2.1,6.9c0.4,1.3,1.8,2.1,3.1,1.7
		c1.3-0.4,2-1.8,1.7-3.1L212.7,212.8z"/>
	<path class="st0" d="M205.8,212c-0.4-1.3-1.8-2-3.1-1.7c-1.3,0.4-2.1,1.8-1.7,3.1l2.1,6.9c0.4,1.3,1.8,2.1,3.1,1.7
		c1.3-0.4,2-1.8,1.7-3.1L205.8,212z"/>
	<path class="st0" d="M199.1,211.5c-0.4-1.3-1.8-2.1-3.1-1.7c-1.3,0.4-2.1,1.8-1.7,3.1l2.1,6.9c0.4,1.3,1.8,2,3.1,1.7
		c1.3-0.4,2-1.8,1.7-3.1L199.1,211.5z"/>
	<path class="st0" d="M159.1,192.9c3.4,2.3,6.8,4.4,10.2,6.4c31.4-17.8,56.6-41.7,58.6-88.9c-9.4,4.1-18.1,8.8-27.3,13.1
		C196.7,156.7,179.5,176.1,159.1,192.9z"/>
	<path class="st0" d="M132.4,207.1c0,0.3,0.1,0.5,0.1,0.8c0.6,2.2,0.5,4.5,1.1,5.9c7.3-2.8,15.9-4.9,22.5-8.4
		c-3.5-1.5-7.1-3.1-10.5-4.9C141.8,203.3,137.3,205.6,132.4,207.1z"/>
	<path class="st0" d="M181.9,211.4c0.1-1.3,0.3-2.6,0.5-3.9c-34.4-16.4-61.8-39.4-67.9-84.2c-9.2-4.2-18-9-27.3-13.1
		c3.4,62,45.4,88.3,94.6,102.6C181.8,212.4,181.8,211.9,181.9,211.4z"/>
	<path class="st0" d="M35.4,136.1c-5.2-0.5-6.8,4.5-7.3,6.2c-2,5.6-2.4,6.7-4.1,6.5c-1.9-0.2-2.4-2.1-2.3-3.7
		c0.2-2.4,1.1-4.3,3.9-4.2L26,136c-5.3-0.5-7.8,3.7-8.3,8.5c-0.4,4.1,1.4,8.8,6.1,9.2c4.3,0.4,5.9-2.9,7.2-6.2
		c1.2-3.3,2-6.7,4.4-6.5c2.3,0.2,2.6,3,2.4,4.7c-0.3,2.7-1.7,5-4.7,4.7l-0.5,4.9c5.7,0.6,8.6-3.9,9.1-9
		C42.4,140.1,39.6,136.5,35.4,136.1z"/>
	<polygon class="st0" points="24.4,114.4 32.9,116.8 30.3,125.8 21.8,123.3 20.4,128.2 42.6,134.6 44,129.7 34.4,126.9 37,118 
		46.6,120.7 48,115.9 25.8,109.5 	"/>
	<polygon class="st0" points="53.4,95.1 47.8,106.2 42.8,103.7 47.8,93.7 44.2,91.9 39.2,101.9 34.8,99.7 40.3,88.8 36.5,86.9 
		28.7,102.3 49.4,112.7 57.2,97 	"/>
	<polygon class="st0" points="62.2,90.1 54.5,84.4 60.2,76.6 57.1,74.3 51.3,82.1 47.1,78.9 53.7,70 50.2,67.4 40.6,80.5 59.2,94.1 
			"/>
	<polygon class="st0" points="73.4,76.5 66.7,69.7 73.5,62.9 70.8,60.1 63.9,66.9 60.2,63.2 68,55.3 65,52.3 53.6,63.7 69.8,80 	"/>
	<rect x="75.5" y="45.3" transform="matrix(0.7843 -0.6204 0.6204 0.7843 -18.4316 60.6484)" class="st0" width="5.1" height="23"/>
	<polygon class="st0" points="105.1,52.7 102.9,49.1 92.3,55.5 89.4,50.7 98.9,44.9 96.9,41.5 87.3,47.3 84.8,43.1 95.2,36.8 
		93,33.1 78.2,42 90.2,61.8 	"/>
	<polygon class="st0" points="123.7,45.4 122.1,41.4 111.6,45.5 104.8,27.9 100.1,29.8 108.5,51.3 	"/>
	<path class="st0" d="M136.6,42.6c6.9-1.3,9.4-6.8,8.2-13.3c-1.4-7.5-6.5-10.4-12.3-9.3l-9.8,1.8l4.1,22.7L136.6,42.6z M132,24.4
		c5-0.9,7.1,1.7,7.9,6.3c0.9,5-1.5,7.3-4.4,7.8l-4.4,0.8L128.4,25L132,24.4z"/>
	<path class="st0" d="M170.7,42c6.1,0.7,10.1-1.9,10.8-8.1l1.6-14.2l-5-0.6l-1.6,14.2c-0.4,3.4-1.7,4.8-5.3,4.4
		c-4.1-0.5-4.4-3-4.2-5.5l1.6-14.2l-5-0.6l-1.6,14.2C161.2,37.9,164.5,41.3,170.7,42z"/>
	<polygon class="st0" points="187.5,44.5 192.1,29.8 192.2,29.8 196.7,47.4 201.6,48.9 208.4,26.9 203.9,25.5 199.3,40.2 
		199.3,40.2 194.7,22.6 189.9,21.1 183,43.1 	"/>
	
		<rect x="200.7" y="38.9" transform="matrix(0.4269 -0.9043 0.9043 0.4269 84.1607 215.6554)" class="st0" width="23" height="5.1"/>
	<polygon class="st0" points="217,57 221.3,59.6 231.2,43.7 237.1,47.3 239.3,43.7 223.3,33.7 221,37.4 226.9,41 	"/>
	<polygon class="st0" points="241,75.3 243.8,72.1 234.4,64 238.1,59.7 246.5,67 249.1,64 240.7,56.7 243.9,53 253.1,61 255.9,57.7 
		242.9,46.4 227.8,63.9 	"/>
	<path class="st0" d="M249.6,85.7c4.3,5.5,10.4,5.2,15.6,1c6-4.7,6.2-10.6,2.5-15.3l-6.1-7.8l-18.1,14.2L249.6,85.7z M261.4,70.3
		l2.2,2.8c3.1,4,1.8,7.1-1.9,9.9c-4,3.1-7.2,2.1-9-0.3l-2.8-3.6L261.4,70.3z"/>
	<polygon class="st0" points="277.2,116.5 280.9,115 277.2,106 282.1,104 286.4,114.3 290.3,112.7 284.2,97.7 262.8,106.5 
		264.8,111.2 273.6,107.5 	"/>
	<rect x="269.2" y="120.3" transform="matrix(0.957 -0.2902 0.2902 0.957 -23.9678 84.1307)" class="st0" width="5" height="5.1"/>
	<path class="st0" d="M296.1,135c-1.2-7-7.1-10.3-13.9-9.2c-6.6,1.1-11.1,6.1-10,13.1c0.9,5.6,5.2,8.9,11,8.5l-0.8-4.8
		c-3.1,0.1-5.4-1.3-6-4.3c-0.7-4.5,2.8-6.8,6.6-7.4c4-0.7,8.1,0.4,8.8,4.9c0.4,2.5-0.9,4.9-3.2,5.6l0.8,4.8
		C294.7,144.7,296.9,140,296.1,135z"/>
	
		<rect x="274.2" y="151.1" transform="matrix(0.9995 -3.198209e-02 3.198209e-02 0.9995 -4.7722 8.9289)" class="st0" width="5" height="5.1"/>
	<path class="st0" d="M125.5,275l-0.7,3.4l5.6,1.2l-3.1,14.3l4.5,1l4.7-22.1l-3.6-0.8C131.7,275.3,128.6,275.7,125.5,275z"/>
	<path class="st0" d="M150.4,284.9c2.2-0.6,3.5-2.3,3.7-4.5c0.2-2.2-1.4-6.2-7-6.7c-3.7-0.3-7.8,1.4-8.1,5.5
		c-0.2,2.2,0.8,4.1,2.9,4.9l0,0.1c-2.7,0.4-4.5,2.3-4.7,5.2c-0.4,4.9,3.6,7.4,7.9,7.8c4.2,0.4,8.6-1.6,9.1-6.3
		C154.4,288,153,285.8,150.4,284.9z M145.4,293.7c-2.2-0.2-3.9-1.9-3.6-4.2c0.2-2.3,2.1-3.4,4.3-3.2c2.1,0.2,3.7,1.8,3.5,3.9
		C149.4,292.5,147.6,293.9,145.4,293.7z M149.9,280.6c-0.2,1.9-1.8,2.8-3.6,2.7c-1.8-0.2-3.4-1.3-3.2-3.3c0.2-2,1.9-3,3.7-2.8
		C149.6,277.4,150,279.4,149.9,280.6z"/>
	<path class="st0" d="M169.7,284.5c2.1-0.9,3.1-2.8,3-5c-0.1-2.2-2.3-5.9-7.9-5.6c-3.7,0.2-7.5,2.6-7.2,6.6c0.1,2.2,1.4,4,3.6,4.4
		l0,0.1c-2.6,0.8-4.1,2.9-3.9,5.8c0.3,4.9,4.7,6.8,9,6.5c4.2-0.3,8.3-2.9,8-7.6C174.1,287,172.4,285,169.7,284.5z M165,277.4
		c2.8-0.2,3.5,1.8,3.6,2.9c0.1,1.9-1.3,3.1-3.2,3.2c-1.8,0.1-3.5-0.8-3.6-2.8C161.6,278.7,163.1,277.5,165,277.4z M166,294
		c-2.2,0.1-4.1-1.3-4.2-3.6c-0.1-2.3,1.6-3.7,3.8-3.8c2.1-0.1,4,1.2,4.1,3.4C169.8,292.2,168.2,293.8,166,294z"/>
	<path class="st0" d="M181.7,271.7c-4.6,1-7,5.2-6,9.7c0.4,1.7,1.3,3.5,2.8,4.6c1.6,1.1,3.7,1.6,5.6,1.2c2.1-0.5,3.6-1.5,4.5-3.5
		l0.1,0c0.4,2.5,0.5,6.9-2.8,7.6c-1.5,0.3-3-0.7-3.6-2.1l-4.3,0.9c1.3,3.8,4.7,5.4,8.5,4.6c6.3-1.3,7.4-8,6.2-13.4
		C191.4,275.7,188.4,270.2,181.7,271.7z M184.4,283.5c-2.3,0.5-3.8-1.4-4.3-3.4c-0.4-2,0.4-4.3,2.5-4.8c2.2-0.5,4,1.3,4.4,3.3
		C187.5,280.8,186.8,283,184.4,283.5z"/>
</g>
</svg>
