<?xml version="1.0" encoding="utf-8"?>
<!-- Generator: Adobe Illustrator 24.0.1, SVG Export Plug-In . SVG Version: 6.00 Build 0)  -->
<svg version="1.1" id="Ebene_1" xmlns="http://www.w3.org/2000/svg" xmlns:xlink="http://www.w3.org/1999/xlink" x="0px" y="0px"
	 viewBox="0 0 296.1 337.8" style="enable-background:new 0 0 296.1 337.8;" xml:space="preserve">
<style type="text/css">
	.st0{fill:none;}
	.st1{fill:#FFFFFF;}
	.st2{fill:none;stroke:#EB1231;stroke-width:0;stroke-linecap:round;stroke-linejoin:round;}
</style>
<g>
	<polygon class="st0" points="280.2,94.6 277.5,100.4 277.5,100.4 280.2,94.6 	"/>
	<polygon class="st0" points="28.2,119.5 31.5,125.9 23,128.2 23,128.2 31.5,125.9 	"/>
	<polygon class="st0" points="240.5,81.2 247,68.3 247,68.3 240.5,81.2 	"/>
	<polygon class="st0" points="282.6,109 274.2,106.8 274.2,106.8 282.6,109 	"/>
	<polygon class="st0" points="264.6,125.9 269.3,127.2 264.6,125.9 	"/>
	<polygon class="st0" points="267.8,119.5 267.8,119.5 271.9,120.6 	"/>
	<polygon class="st0" points="57.2,84.9 57.2,84.9 60,90.4 60,90.4 	"/>
	<polygon class="st0" points="252,137.4 274.3,92.9 274.3,92.9 252,137.4 	"/>
	<polygon class="st0" points="113,103 113,103 113,87 113,87 	"/>
	<polygon class="st0" points="21.8,106.8 21.8,106.8 25,113.1 	"/>
	<polygon class="st0" points="183,87.7 183,103 183,103 183,87.7 	"/>
	<polygon class="st0" points="18.6,100.4 15.8,94.6 15.8,94.6 18.6,100.4 	"/>
	<polygon class="st0" points="41.9,92.6 36,80.2 36,80.2 41.9,92.6 	"/>
	<polygon class="st0" points="34.7,132.3 38.4,139.4 38.4,139.4 34.7,132.3 26.2,134.5 26.2,134.5 	"/>
	<polygon class="st0" points="77.4,80.9 77.4,80.9 84.6,103 84.6,103 	"/>
	<polygon class="st0" points="230.2,103 234.5,94.2 234.5,94.2 230.2,103 	"/>
	<polygon class="st0" points="269.8,134.5 261.4,132.3 261.4,132.3 269.8,134.5 	"/>
	<path class="st1" d="M253.5,240.8c-6.6,7.8-13.9,14.8-21.9,20.8V131.4c1.5,0.4,2.9,0.5,4.4,0.2c2.3,2.8,6.8,5.9,12.1,8.3
		c3.8,1.8,10.9,4.6,18.4,4.6c0.5,0,1,0,1.5,0l1.1-0.1l26.9-53.6l-3.5,0.3c-17.7,1.5-22.8-5-28.8-12.6c-1.2-1.6-2.5-3.2-4-4.8
		c-6.9-7.7-14.7-12-20.9-11.8c-2.7,0.1-4.8,1.2-6.2,2.9c-0.5,0.7-1,1.5-1.3,2.2l-7.2,13c-6.7-5.4-14-9.9-22.2-9.9
		c-4.5,0-8.9,1.2-12.7,2.8c-0.4,1.7-0.8,3.4-1.4,5c3.9-2,8.5-3.7,13.3-3.9l-4.4,33c-4,0.1-8.7,2-13.8,4.6V105h0v-2h0V87.7
		c-3.7,5.4-8.6,10-14.4,13.2v19.5c-5.4,3.3-10.7,6.4-15.1,8.1v-22.5c-1.6,0.2-3.3,0.3-5,0.4v0l-0.5,0c-1.9,0-3.7-0.2-5.5-0.4v22.6
		c-4.5-1.7-9.8-4.8-15.1-8.1v-19.8c-5.8-3.4-10.7-8.1-14.4-13.7V103h0v2h0v6.9c-5.1-2.7-9.8-4.5-13.8-4.6l-4.4-33
		c5.1,0.2,10,2.1,13.9,4.2c-0.6-1.7-1.1-3.4-1.5-5.1c-4-1.8-8.5-3.1-13.3-3.1c-8.2,0-15.5,4.5-22.1,9.9l-7.4-13.2l0,0
		c-0.3-0.6-0.7-1.3-1.2-1.9c-1.3-1.8-3.5-2.8-6.1-2.9c-6.2-0.3-14,4.1-20.8,11.7c-1.5,1.6-2.8,3.2-4,4.8c-6,7.5-11.1,14-28.8,12.5
		L0,90.9l26.9,53.6l1.1,0.1c0.5,0,0.9,0,1.4,0c11.7,0,25.7-7.2,30.5-12.9c2.6,0.5,5.1-0.2,7.7-1.6l0,132.3c-8-6-15.5-12.9-22.1-20.7
		l-0.8-0.9l-31.1,37.4l0.6,0.6c17.1,18.4,37.4,32.8,60.2,43c23.6,10.5,48.9,15.9,74.9,15.9c51.4,0,100.8-21.7,135.7-59.5l0.6-0.6
		l-31.3-37.7L253.5,240.8z M149.4,335.8c-25.8,0-50.7-5.3-74.1-15.7c-22.3-9.9-42.2-24-59-41.9l28.5-34.3c6.9,7.9,14.6,15,22.9,21
		c0.6,4.3,3.4,8,7.5,9.5l74,28.7l0.4,0.1l74.3-28.8c4.3-1.6,7.3-5.7,7.6-10.3c8.2-6.1,15.8-13.2,22.7-21.2l28.7,34.6
		C248.6,314.6,199.9,335.8,149.4,335.8z M69.6,263.4l0-134.5c2.5-1.7,5-3.8,7.5-6c6.3-5.5,13.5-11.7,21.7-11.7
		c6,0,15.2,5.7,24.1,11.2c3.8,2.3,7.5,4.6,11,6.5H72.5v69.5c1.4,2.1,4.6,3.7,8.5,3.7c3.9,0,7.2-1.5,8.5-3.7c1.4,2.2,4.7,3.7,8.6,3.7
		c3.9,0,7.2-1.6,8.5-3.7h0c1.4,2.2,4.7,3.7,8.6,3.7c3.9,0,7.2-1.5,8.6-3.7c1.4,2.2,4.7,3.7,8.6,3.7c3.9,0,7.2-1.6,8.6-3.7
		c0,0,0,0,0,0h0c0,0,0,0,0,0c1.4,2.1,4.7,3.7,8.6,3.7c3.9,0,7.2-1.5,8.6-3.7c1.3,2.2,4.6,3.7,8.6,3.7c3.9,0,7.2-1.6,8.6-3.7h0
		c1.4,2.2,4.7,3.7,8.6,3.7c3.9,0,7.2-1.5,8.6-3.7c1.4,2.2,4.7,3.7,8.6,3.7c3.9,0,7.2-1.6,8.6-3.7c1.3,2.2,4.7,3.7,8.6,3.7
		c3.9,0,7.2-1.5,8.5-3.7l0-69.1c1,0.6,1.9,1.2,2.9,1.6v132.7c0,4.1-2.6,7.8-6.4,9.2l-73.7,28.6L76,272.6
		C72.2,271.2,69.6,267.5,69.6,263.4z M23,128.2l-3.2-6.4l8.4-2.3l3.2,6.4L23,128.2L23,128.2z M15.8,94.6
		C15.8,94.6,15.8,94.6,15.8,94.6l2.8,5.7l0,0l0,0l-8.3,2.3l-3.7-7.4C10.1,95.4,13.2,95.2,15.8,94.6z M13.5,109l8.4-2.3l0,0l0,0
		l3.2,6.4l-8.4,2.3L13.5,109z M34.7,132.3l3.7,7.1c0,0,0,0,0,0c-3.1,0.8-6.1,1.3-8.9,1.3c-0.1,0-0.1,0-0.2,0l-3.1-6.2l0,0
		L34.7,132.3z M21.8,92.9c6.3-2.7,10-7.3,13.5-11.8c0.2-0.3,0.5-0.6,0.7-0.9c0,0,0,0,0,0l5.8,12.4c0,0,0,0,0,0
		c-0.3,0.6-0.5,1.2-0.6,1.8c0,0.3-0.1,0.6,0,0.8c0,0,0,0.1,0,0.1c0,0.2,0.1,0.5,0.1,0.7c0,0.1,0.1,0.2,0.1,0.2
		c0.1,0.2,0.1,0.4,0.2,0.5c0,0.1,0.1,0.2,0.2,0.3c0.1,0.1,0.1,0.3,0.2,0.4l14.9,31.7c-1.7,2-5.4,4.8-10.7,7.2
		c-0.7,0.3-1.4,0.6-2.1,0.9L21.8,92.9z M54.6,94.5C54.6,94.5,54.6,94.5,54.6,94.5c-0.3,0.2-0.6,0.4-0.9,0.6
		c-0.2,0.1-0.5,0.3-0.7,0.4c-0.1,0-0.2,0.1-0.3,0.1c-2.6,1.3-5,1.6-7,0.3c-0.4-0.3-0.5-0.4-0.5-0.4l-0.1-0.1
		c-0.1-0.2-0.1-0.3-0.1-0.3c0.1-0.8,1.4-2,3-3.3c1.3-1,2.8-2.1,4.1-3c1.7-1.2,3.4-2.4,5-3.7c0,0,0,0,0,0l2.8,5.5c0,0,0,0,0,0
		C58,92.1,56.2,93.5,54.6,94.5z M60.1,67.3c0.4,0.5,0.7,1,0.9,1.5c0.2,0.3,0.3,0.6,0.4,0.9c0,0.1,0,0.1,0.1,0.2
		c0.5,1.4,0.4,2.8-0.1,4.1c0,0,0,0,0,0c-0.1,0.3-0.2,0.6-0.4,0.9c0,0,0,0.1-0.1,0.1c-0.2,0.3-0.3,0.6-0.5,0.9c0,0,0,0,0,0
		c-1.1,1.7-2.8,3.3-4.8,5.1l-6.4-12.9c3.1-1.7,5.9-2.4,7.8-2.3C58.4,66.1,59.5,66.5,60.1,67.3z M239.1,66c2-0.1,4.7,0.6,7.8,2.3
		c0,0,0,0,0,0l-6.5,12.9c0,0,0,0,0,0c-5-4.1-7.7-8-5.5-12.4l0,0c0.2-0.5,0.5-0.9,0.9-1.4C236.5,66.5,237.7,66.1,239.1,66z
		 M260.7,81.1c3.6,4.5,7.2,9.1,13.5,11.8c0,0,0,0,0,0L252,137.4c0,0,0,0,0,0c-5.8-2.4-10.7-5.7-12.8-8.2l8.4-17.9l6.5-13.9
		c0.1-0.1,0.1-0.2,0.2-0.3c0.1-0.1,0.1-0.2,0.2-0.3c0.1-0.1,0.1-0.3,0.2-0.4c0-0.1,0.1-0.2,0.1-0.4c0-0.1,0-0.3,0.1-0.4
		c0-0.1,0.1-0.3,0.1-0.4c0-0.1,0-0.2,0-0.3c0-0.2,0-0.3,0-0.5c-0.1-0.6-0.3-1.2-0.6-1.8l5.8-12.4C260.3,80.5,260.5,80.8,260.7,81.1z
		 M289.5,95.3l-3.7,7.4l-8.3-2.3l0,0l0,0l2.8-5.7c0,0,0,0,0,0C282.9,95.1,285.9,95.4,289.5,95.3z M279.4,115.4l-8.4-2.3l3.2-6.4l0,0
		l0,0l8.4,2.3l0,0L279.4,115.4z M273,128.2l-3.7-1l-4.7-1.2l0,0l0,0l3.2-6.4l0,0l0,0l4.1,1.1l4.3,1.2L273,128.2z M257.7,139.4
		l3.7-7.1l0,0l0,0l8.4,2.2l0,0l-3.1,6.2C263.8,140.7,260.7,140.2,257.7,139.4z M242.9,95.4c-0.2-0.1-0.3-0.2-0.5-0.3
		c-1.9-1.1-4-2.7-6.3-4.7l2.8-5.5c1.6,1.3,3.3,2.5,5,3.7c3.1,2.2,6.9,4.9,7.1,6.4c0,0,0,0.1,0,0.1c0,0.1-0.1,0.1-0.1,0.2
		c-0.1,0.2-0.5,0.5-0.6,0.5c-1.9,1.4-4.3,1.1-6.9-0.2C243.2,95.5,243,95.5,242.9,95.4z M197.2,111.1c8.2,0,15.4,6.2,21.7,11.7
		c2.5,2.2,5,4.3,7.4,6H162c3.5-1.9,7.2-4.2,11-6.5C181.9,116.8,191.1,111.1,197.2,111.1z M196.4,173.7c-0.9,2.9-3.6,5-7.8,6.2
		c-1.3,1.7-4.5,5.3-9.2,5.7c-3.8,0.3-7.4-1.5-10.9-5.3l-9.1,5.3v2.5c0,0,13.9,7.8-3,7.5l0,0.1c-5.9,5-11.6,0.1-11.6,0.1
		c-17,0.3-3.1-7.5-3.1-7.5v-2.5l-4.6-3.6c-0.8,0.4-1.6,0.5-2.2,0.6c-3.5,4.2-7.2,6.3-11,6.3c-0.3,0-0.6,0-0.9,0
		c-5.6-0.5-9.3-5.4-10.5-7.4c-4.9-2-7.7-4.9-8.5-8.6c-1.1-4.9,2.1-9.5,3.8-11.6c-1.5-4.9-1.2-8.9,1-12c2.7-3.7,7.3-4.7,9.8-4.9
		c1.5-2.9,3.6-4.8,6.3-5.6c3.4-1,6.7,0.1,8.7,1.1c2.2-2.1,6.6-5.7,12.7-6.3c4.8-0.5,9.6,0.9,14.2,4.3c4.5-3.5,12.7-6.6,20.6-0.2
		c1.7,0.1,4.9,0.5,7.5,2.9c2.2,2,3.4,4.8,3.7,8.4c2.5,1.3,7.1,4.5,7.5,9.1c0.2,2.9-1.2,5.7-4.3,8.2
		C196.4,168.3,197.3,170.9,196.4,173.7z M218.7,80.9c3.6,2.6,7,5.7,10.3,8.6c1.8,1.6,3.7,3.3,5.5,4.7l0,0c0,0,0,0,0,0l-4.2,8.8h0
		l-0.9,2h0l-7.3,15.3c-0.2-0.1-0.3-0.3-0.5-0.4c-3.8-3.3-7.9-6.8-12.4-9.3L218.7,80.9z M85.2,105L85.2,105l1.8,5.6
		c-4.5,2.5-8.6,6-12.4,9.3c-0.2,0.1-0.3,0.3-0.5,0.4L61.6,94.2c1.8-1.5,3.6-3.1,5.5-4.8c3.3-2.9,6.7-6,10.3-8.6c0,0,0,0,0,0
		l7.2,22.2h0L85.2,105z"/>
	<path class="st1" d="M132.5,217c-3.9,0-7.2-1.5-8.6-3.7c-1.4,2.2-4.7,3.7-8.6,3.7c-3.9,0-7.2-1.6-8.6-3.7h0
		c-1.3,2.1-4.7,3.7-8.5,3.7c-3.9,0-7.2-1.5-8.6-3.7v0.1c-1.4,2.2-4.7,3.6-8.5,3.6c-3.9,0-7.2-1.5-8.5-3.6v4.5
		c1.4,2.2,4.6,3.7,8.5,3.7c3.9,0,7.2-1.5,8.5-3.6v-0.1c1.4,2.2,4.7,3.7,8.6,3.7c3.9,0,7.2-1.5,8.5-3.7h0c1.4,2.2,4.7,3.7,8.6,3.7
		c3.9,0,7.2-1.5,8.6-3.7c1.4,2.2,4.7,3.7,8.6,3.7c3.9,0,7.2-1.5,8.6-3.7c0,0,0,0,0,0h0c0,0,0,0,0,0c1.4,2.2,4.7,3.7,8.6,3.7
		c3.9,0,7.2-1.5,8.6-3.7c1.3,2.2,4.6,3.7,8.6,3.7c3.9,0,7.2-1.5,8.6-3.7h0c1.4,2.2,4.7,3.7,8.6,3.7c3.9,0,7.2-1.5,8.6-3.7
		c1.4,2.2,4.7,3.7,8.6,3.7c3.9,0,7.2-1.5,8.6-3.7c1.3,2.2,4.7,3.7,8.6,3.7c3.9,0,7.2-1.5,8.6-3.7l0-4.5c-1.4,2.2-4.7,3.7-8.5,3.7
		c-3.9,0-7.3-1.6-8.6-3.7c-1.4,2.1-4.7,3.7-8.6,3.7c-3.9,0-7.2-1.5-8.6-3.7c-1.4,2.2-4.7,3.7-8.6,3.7c-3.9,0-7.2-1.6-8.6-3.7h0
		c-1.3,2.1-4.7,3.7-8.6,3.7c-3.9,0-7.2-1.5-8.6-3.7c-1.4,2.2-4.7,3.7-8.6,3.7c-3.9,0-7.2-1.6-8.6-3.7
		C139.6,215.4,136.3,217,132.5,217z"/>
	<path class="st1" d="M163.1,176.6c-1.5,0.3-2.7,0.1-3.6-0.2c-0.6-0.2-1.2-0.5-1.7-0.8l0.2,4.5L163.1,176.6
		C163.1,176.6,163.1,176.6,163.1,176.6z"/>
	<path class="st1" d="M142,174.3c-0.1,1.5-0.5,2.9-1.1,4l2.1,1.8l0.3-5.6C142.8,174.5,142.4,174.4,142,174.3z"/>
	<path class="st1" d="M81,211.6c3.9,0,7.2-1.5,8.5-3.7c1.4,2.2,4.7,3.7,8.6,3.7c3.9,0,7.2-1.6,8.5-3.7h0c1.4,2.2,4.7,3.7,8.6,3.7
		c3.9,0,7.2-1.5,8.6-3.7c1.4,2.2,4.7,3.7,8.6,3.7c3.9,0,7.2-1.6,8.6-3.7c0,0,0,0,0,0h0c0,0,0,0,0,0c1.4,2.2,4.7,3.7,8.6,3.7
		c3.9,0,7.2-1.5,8.6-3.7c1.3,2.2,4.6,3.7,8.6,3.7c3.9,0,7.2-1.6,8.6-3.7h0c1.4,2.2,4.7,3.7,8.6,3.7c3.9,0,7.2-1.5,8.6-3.7
		c1.4,2.2,4.7,3.7,8.6,3.7c3.9,0,7.2-1.6,8.6-3.7c1.3,2.2,4.7,3.7,8.6,3.7c3.9,0,7.2-1.5,8.5-3.7l0-4.3c-1.4,2.2-4.7,3.7-8.5,3.7
		c-3.9,0-7.3-1.5-8.6-3.7c-1.4,2.1-4.7,3.7-8.6,3.7c-3.9,0-7.2-1.5-8.6-3.7c-1.4,2.2-4.7,3.7-8.6,3.7c-3.9,0-7.2-1.5-8.6-3.7h0
		c-1.3,2.1-4.7,3.7-8.6,3.7c-3.9,0-7.2-1.5-8.6-3.7c-1.4,2.2-4.7,3.7-8.6,3.7c-3.9,0-7.2-1.5-8.6-3.7c-1.4,2.1-4.7,3.7-8.6,3.7
		c-3.9,0-7.2-1.5-8.6-3.7c-1.4,2.2-4.7,3.7-8.6,3.7c-3.9,0-7.2-1.5-8.6-3.7h0c-1.3,2.1-4.7,3.7-8.5,3.7c-3.9,0-7.2-1.5-8.6-3.7v0.1
		c-1.4,2.2-4.7,3.6-8.5,3.6c-3.9,0-7.2-1.5-8.5-3.6v4.3C73.8,210.1,77.1,211.6,81,211.6z"/>
	<line class="st2" x1="226.8" y1="217.8" x2="226.8" y2="217.6"/>
	<path class="st1" d="M168.7,244.9c-0.6,0.6-1.4,1.2-2.2,1.8c3.1-0.8,6.6-1.6,8.3-1.8c-1.8,1.1-4.7,2.2-7.5,3.1
		c1.1,0,2.1,0.1,3.1,0.2c2-0.7,4-1.5,5.3-2.4c0.5-0.3,1.4-0.9,1.1-1.6C176.6,243.8,176.2,243.1,168.7,244.9z"/>
	<path class="st1" d="M131.8,276.6c0.4,0.2,1.1,0.6,6.1-5.2c0.1-0.9,0.4-1.8,0.7-2.7c-2,2.4-4.4,5-5.6,6.2c0.8-1.9,2.5-4.4,4.3-6.8
		c-0.9,0.7-1.8,1.2-2.6,1.6c-1.2,1.8-2.3,3.6-2.9,5C131.5,275.1,131.1,276.1,131.8,276.6z"/>
	<path class="st1" d="M121.4,244c-0.1,0.4-0.3,1.2,6.8,4.2c0.9-0.1,1.8-0.2,2.9-0.1c-3-1.2-6.2-2.6-7.7-3.5c2,0.2,5.1,1.1,8,2.1
		c-1-0.7-1.8-1.3-2.5-2.1c-2.2-0.7-4.2-1.2-5.7-1.3C122.7,243.3,121.6,243.2,121.4,244z"/>
	<path class="st1" d="M149.1,224c-0.5,0-1.3,0.1-1.9,7.8c0.4,0.8,0.7,1.7,1,2.6c0.2-3.2,0.6-6.7,0.9-8.4c0.5,2,0.5,5.3,0.5,8.5
		c0.3-1.1,0.7-2.2,1.2-3.1c0-2.3-0.2-4.4-0.6-5.9C150.2,225,149.9,224,149.1,224z"/>
	<path class="st1" d="M160.6,267.8c1.7,2.7,3.5,5.8,4.2,7.4c-1.6-1.4-3.4-3.7-5.3-6.3c0.4,1.1,0.6,2.1,0.7,3
		c1.3,1.7,2.7,3.3,3.9,4.3c0.3,0.3,0.9,0.7,1.4,0.7c0.2,0,0.3-0.1,0.5-0.2c0.3-0.3,0.9-0.9-3.1-7.4
		C162.2,269,161.4,268.5,160.6,267.8z"/>
	<path class="st1" d="M154.3,261.7c-2.2-3.1-3.1-3.1-3.2-3c-0.5,0.1-0.7,1.4-0.7,2.2c0,2.4-0.2,3.2-0.3,3.5l-0.1,0.1l-0.9,0.8
		l-0.9-0.7l0.2-0.3l-0.4,0.1c-0.3-0.6-0.4-1.6-0.4-3.6c0-0.8-0.3-2.1-0.7-2.2c0,0,0,0-0.1,0c-0.3,0-1.2,0.3-3.1,3
		c-4.5,6.4-5.8,11.4-4.1,14.7c2.1,4.1,8.5,4.5,9.4,4.5c0.9,0,7.3-0.4,9.4-4.5C160.2,273,158.8,268.1,154.3,261.7z M154.7,277.6
		c-0.3,0.1-1.3,0.6-2.5,0.1c-1.2-0.4-3.1-0.5-3.1-0.5s-1.9,0.1-3.1,0.5c-1.3,0.4-2.2,0-2.6-0.1c0,0-1.6-0.5-1.6-1.3
		c0-0.9,1.6,0.1,1.6,0.1c0.3,0.1,1.3,0.5,2.6,0.1c1.2-0.4,3.1-0.5,3.1-0.5s1.8,0.1,3.1,0.5c1.3,0.4,2.3,0,2.5-0.1c0,0,1.5-1,1.5-0.1
		C156.2,277.1,154.7,277.6,154.7,277.6z"/>
	<path class="st1" d="M122.7,261.6c0,0.1,2.3,6.8,7.2,7.6c3.7,0.6,7.9-2.2,12.7-8.5c2.3-3,2-3.8,1.9-4c-0.3-0.4-1.5-0.3-2.3,0
		c-1.9,0.7-3.3,0.7-3.4,0.7l0,0l0,0l0-0.6l-0.3,0.5l-0.7-0.5l0-0.3c0-0.1,0-0.6,0.4-0.9c0.3-0.3,1-0.8,3.3-1.5
		c0.8-0.3,1.9-0.9,1.9-1.4c0-0.2-0.2-1-3.9-2.1c-7.5-2.3-12.6-2.1-15.2,0.6C120.9,254.6,122.4,260.7,122.7,261.6L122.7,261.6z
		 M124,255.3c0,0,0-1.6,0.8-1.9c0.8-0.3,0.4,1.5,0.4,1.5c0,0.3-0.1,1.4,0.7,2.4c0.8,1.1,1.4,2.8,1.4,2.8s0.5,1.8,0.5,3.1
		c0,1.3,0.7,2.1,0.9,2.4c0,0,1.4,1.2,0.6,1.5c-0.8,0.2-1.7-1.1-1.7-1.1c-0.2-0.3-0.9-1.1-0.9-2.4c0-1.3-0.5-3-0.5-3
		s-0.6-1.7-1.4-2.8C123.9,256.8,124,255.6,124,255.3z"/>
	<path class="st1" d="M127.7,239.9c0.6,3.7,4.6,6.9,12,9.4c3.6,1.3,4.3,0.7,4.4,0.6c0.3-0.4-0.2-1.5-0.7-2.2c-1.3-1.6-1.8-3-1.8-3
		l0.4-0.1l-0.4-0.1l0.4-0.1l-0.3-0.1l0.3-1h1.2l0.1,0.1c0.6,0.3,1.4,1.2,2.4,2.7c0.5,0.6,1.4,1.5,1.9,1.4c0.2-0.1,0.9-0.5,0.8-4.3
		c-0.2-7.8-2-12.6-5.3-14.3c-4.1-2-9.3,1.3-10.2,1.9l0,0C132.7,230.7,127,235,127.7,239.9z M134.8,233.6c0,0,1.5-1.1,2.2-2.2
		c0.8-1.1,1.9-1.3,2.2-1.4c0,0,1.5-0.5,2,0.1c0.5,0.7-1.3,0.8-1.3,0.8c-0.3,0.1-1.4,0.3-2.2,1.4c-0.7,1.1-2.2,2.2-2.2,2.2
		s-1.5,1-2.8,1.4c-1.3,0.4-1.8,1.3-2,1.6c0,0-0.7,1.7-1.2,1c-0.5-0.7,0.5-1.9,0.5-1.9c0.1-0.3,0.7-1.2,2-1.6
		C133.3,234.6,134.8,233.6,134.8,233.6z"/>
	<path class="st1" d="M155.1,228.8c-3.3,1.7-5.1,6.5-5.3,14.3c-0.1,3.8,0.7,4.3,0.8,4.3c0.4,0.1,1.4-0.7,1.9-1.4
		c1-1.5,1.8-2.4,2.4-2.7l0.2-0.1l1.1-0.1l0.3,1.3l-0.1,0.2c0,0.1-0.5,1.4-1.8,3c-0.5,0.6-1,1.8-0.7,2.2c0.1,0.1,0.8,0.7,4.3-0.6
		c7.4-2.6,11.4-5.8,12-9.5c0.7-4.6-4.2-8.6-5-9.1C164.8,230.4,159.3,226.7,155.1,228.8z M168,236.6c0,0,1,1.3,0.5,2
		c-0.5,0.7-1.2-1-1.2-1c-0.2-0.3-0.7-1.2-2-1.6c-1.2-0.4-2.8-1.4-2.8-1.4s-1.4-1.1-2.2-2.2c-0.8-1.1-1.9-1.3-2.1-1.4
		c0,0-1.8-0.1-1.4-0.8c0.5-0.7,2-0.1,2-0.1c0.3,0,1.4,0.3,2.1,1.4c0.8,1.1,2.2,2.2,2.2,2.2c0,0,1.5,1,2.8,1.4
		C167.2,235.4,167.8,236.3,168,236.6z"/>
	<path class="st1" d="M158.8,250.7c-3.6,1.1-3.8,1.9-3.8,2.1c0,0.5,1.1,1.1,1.9,1.4c1.7,0.5,2.8,0.9,3.3,1.5
		c0.3,0.3,0.4,0.8,0.4,0.9l0,0.3l-0.9,0.6l-0.2,0c-0.1,0-1.5-0.1-3.4-0.7c-0.4-0.1-1-0.2-1.5-0.2c-0.4,0-0.7,0.1-0.8,0.2
		c-0.1,0.1-0.5,0.9,1.9,4c4.7,6.2,9,9.1,12.7,8.5c4.9-0.8,7.2-7.6,7.2-7.6l0,0c0.3-1,1.8-7-1.4-10.3
		C171.4,248.7,166.3,248.5,158.8,250.7z M173.4,257.8c-0.8,1.1-1.4,2.8-1.4,2.8s-0.5,1.7-0.4,3c0,1.3-0.8,2.2-0.9,2.4
		c0,0-0.9,1.3-1.7,1.1c-0.8-0.3,0.6-1.5,0.6-1.5c0.2-0.2,0.9-1.1,0.9-2.4c0-1.3,0.5-3.1,0.5-3.1s0.6-1.7,1.4-2.8
		c0.8-1,0.7-2.2,0.7-2.4c0,0-0.4-1.8,0.4-1.5c0.8,0.3,0.8,1.9,0.8,1.9C174.1,255.6,174.2,256.8,173.4,257.8z"/>
	<path class="st1" d="M144.3,253.1c0,2.6,2.1,4.7,4.7,4.7c2.6,0,4.7-2.1,4.7-4.7c0-2.6-2.1-4.7-4.7-4.7
		C146.4,248.4,144.3,250.5,144.3,253.1z"/>
	<path class="st1" d="M191.7,172.2c0.6-1.7-0.9-4-1.5-4.7l-1.7-2.1l2.3-1.5c2-1.3,4.3-3.2,4.1-5.1c-0.2-2.4-4.1-4.9-6-5.7l-1.5-0.6
		l0-1.6c0-2.9-0.7-5-2.1-6.3c-2-1.9-4.9-1.7-4.9-1.7l-1,0.1l-0.8-0.7c-3.4-3-7.1-3.8-11-2.4c-3.1,1.1-5.3,3.2-5.3,3.2l-1.6,1.6
		l-1.7-1.4c-4.1-3.4-8.1-4.9-12.2-4.5c-6.4,0.6-10.8,6-10.8,6l-1.4,1.8l-1.9-1.3c-1-0.7-4-2.2-6.5-1.5c-1.6,0.5-2.8,1.9-3.8,4.2
		l-0.6,1.6l-1.7,0c0,0-0.1,0-0.1,0c-1.5,0-5.5,0.5-7.2,2.9c-1.4,1.9-1.3,4.9,0.2,8.8l0.5,1.5l-1.1,1.1c-1.2,1.2-4.2,5.1-3.5,8.3
		c0.5,2.1,2.6,3.9,6.2,5.3l0.9,0.3l0.4,0.8c0.8,1.5,3.7,5.4,7.1,5.7c2.6,0.2,5.4-1.6,8.3-5.3l0.8-1l1.3,0.1c0,0,1.3,0,2.2-1
		c1-1.1,1.3-3,1-5.7l-0.5-4.1l3.8,1.6c0.1,0,7.9,3.2,15.1-0.3l2.3-1.1l1,2.3c0.2,0.4,1,1.7,2.2,2.1c0.8,0.2,1.7,0,2.7-0.6l5.5-3.2
		l-1.8,5.9c0,0,0,0.4,0.2,0.7c0.3,0.5,1.2,0.8,2.4,1l0.8,0.1l1.1,1.1c2.5,2.8,4.9,4.2,7.1,4c3.5-0.3,6-4.2,6-4.3l0.5-0.9l1-0.2
		C189.4,174.6,191.3,173.5,191.7,172.2z"/>
	<path class="st1" d="M46.4,269.5c1.4-1.6,3-2,4.2-0.9c1.6,1.3,1.1,4-1,8.3l0.6,0.6l5.4-6.5l-0.6-0.5l-1.7,0.5
		c-0.1-1.6-0.6-2.8-1.6-3.7c-2.2-1.9-5.8-0.9-8.5,2.2c-2.7,3.1-2.8,5.6-1.2,8.7c0.8,1.6,1.5,2.7,1.5,3.6c0,0.7-0.4,1.5-1.1,2.3
		c-1.5,1.7-3.2,2.2-4.5,1.1c-1.8-1.5-1.4-4.7,1.1-9.3l-0.7-0.6l-6,7.1l0.6,0.5l2.1-0.7c-0.1,1.9,0.5,3.1,1.6,4.2
		c2.4,2.1,5.7,1,8.7-2.3c1.4-1.7,2.3-3.4,2.6-4.8c0.3-1.6-0.3-2.7-1-4.1C45.6,272.7,44.6,271.5,46.4,269.5z"/>
	<path class="st1" d="M64.8,277.6c-1.8-1.2-3.9-1.3-6.3-0.1c-2.3,1.1-4.6,3.1-6.5,5.9c-2,2.8-3,5.2-3.2,8c-0.3,2.9,0.5,4.8,2.3,6
		c1.7,1.2,3.9,1.2,6.5,0c2.4-1.1,4.3-2.9,6.3-5.7c2-2.8,3.1-5.6,3.3-8.1C67.4,280.8,66.7,278.9,64.8,277.6z M60.7,289.5
		c-4,5.7-6.8,7.8-8.7,6.5c-1.9-1.3-0.8-4.7,3.1-10.4c4-5.7,6.8-7.9,8.7-6.6C65.7,280.4,64.7,283.8,60.7,289.5z"/>
	<path class="st1" d="M85.4,292.3l0.8-1.4l-4.7-2.5l-0.8,1.5c0,0,0.1,0,0.1,0.1c1.4,0.8,1.2,2,0.1,4.1l-4,7.4
		c-1.4,2.5-2.3,4.2-3.7,4.9c-0.9,0.4-1.9,0.5-2.9,0c-2.1-1.1-2-3.3-0.1-7l5.5-10.3c0.6-1.1,0.9-1.4,1.6-1l0.8,0.5l0.8-1.5l-6.4-3.4
		l-0.8,1.5l0.8,0.5c0.7,0.4,0.7,0.8,0.1,2l-5.9,11.1c-2.4,4.5-1.9,7.7,1.4,9.5c2.2,1.2,4.2,1,6.2-0.7c1.4-1.2,2.3-2.8,3.5-5.1
		l4.1-7.6C83.2,292.5,84,291.8,85.4,292.3z"/>
	<path class="st1" d="M97.4,304.7l2.9-8.2l-11.8-4.7l-3.5,8l0.9,0.3c2-4.2,4.1-6.1,5.5-5.5c0.6,0.3,0.6,0.7,0.2,1.8l-6.1,15.4
		c-0.5,1.2-0.7,1.5-1.5,1.2l-0.9-0.4l-0.6,1.6l6.8,2.7l0.6-1.6l-0.9-0.4c-0.8-0.3-0.8-0.7-0.3-1.9l6.1-15.4c0.5-1.1,0.8-1.4,1.5-1.2
		c1.4,0.5,1.6,3.4,0.2,7.8L97.4,304.7z"/>
	<path class="st1" d="M116.7,302.9l1,0.3l0.4-1.6l-7-1.9l-0.4,1.6l0.9,0.2c0.8,0.2,0.8,0.7,0.5,1.9l-1.7,6.6l-4.9-1.3l1.7-6.6
		c0.4-1.2,0.6-1.6,1.4-1.4l0.9,0.3l0.4-1.6l-7-1.9l-0.5,1.6l0.9,0.2c0.8,0.2,0.8,0.7,0.5,1.9L99.5,317c-0.3,1.2-0.6,1.6-1.3,1.3
		l-0.9-0.2l-0.4,1.6l7,1.9l0.5-1.6l-0.9-0.3c-0.8-0.2-0.8-0.6-0.5-1.9l1.9-7.3l4.9,1.3l-2,7.3c-0.3,1.2-0.6,1.6-1.3,1.3l-0.9-0.3
		L105,322l7.1,1.9l0.4-1.6l-0.9-0.3c-0.8-0.2-0.8-0.6-0.5-1.8l4.2-15.8C115.7,303.1,115.9,302.7,116.7,302.9z"/>
	<path class="st1" d="M130.4,323.8l-2.3-21l-1.4-0.2l-7,16.7c-1,2.4-1.8,3.7-3.1,3.9l-0.2,1.6l5.4,0.8l0.2-1.6
		c-1.4-0.3-1.9-0.8-1.7-2.3c0-0.4,0.2-1.1,0.4-1.6l0.7-1.6l4.9,0.7l0.3,3.7c0,0.4,0,0.7,0,0.9c-0.1,0.5-0.2,0.7-0.6,0.7l-1-0.1
		l-0.2,1.7l6.4,0.9l0.2-1.7C130.7,325.1,130.5,324.8,130.4,323.8z M122.2,316.5l3.1-7.4l0.8,8L122.2,316.5z"/>
	<path class="st1" d="M145.2,318.4l-2.7-13.9l-6.2-0.2l-0.1,1.7l1,0c0.8,0.1,1,0.5,0.9,1.8l-0.3,13.9c-0.1,2.9-0.4,4-2.1,4v1.7
		l5.5,0.2l0-1.7c-1.8-0.1-2.2-1.2-2.1-4.1l0.3-14.7l3.9,20.6l0.9,0l4.7-20.5l-0.4,17.3c0,1.3-0.2,1.7-1,1.6h-0.8l-0.1,1.7l7.2,0.2
		l0.1-1.7l-1,0c-0.8,0-1-0.4-0.9-1.7l0.4-16.4c0-1.3,0.2-1.7,1-1.7l1,0.1l0.1-1.7l-6.1-0.1L145.2,318.4z"/>
	<path class="st1" d="M165.2,303.8l-8.4,0.8l0.2,1.7l1-0.1c0.8-0.1,1,0.3,1.1,1.6l1.6,16.3c0.1,1.3,0,1.7-0.8,1.8l-1,0.1l0.2,1.7
		l7.6-0.8l-0.2-1.7l-1.2,0.1c-0.8,0.1-1-0.2-1.1-1.5l-0.7-6.5c0.7,0,1.4-0.1,1.9-0.1c4.3-0.4,6.2-2.7,5.7-7.2
		C170.7,305.5,168.7,303.5,165.2,303.8z M164.3,315.4c-0.4,0.1-0.7,0.1-0.9,0l-0.8-7.7c-0.1-1.8,0.1-2,1.3-2.1
		c2.3-0.2,3.2,0.9,3.6,4.6C167.8,314,166.9,315.2,164.3,315.4z"/>
	<path class="st1" d="M182.3,302.5c1.5-0.3,3.2,2,4.5,6.4l0.9-0.2l-2.1-8.5l-12.4,2.6l1.5,8.5l0.9-0.2c-0.6-4.6,0.1-7.4,1.6-7.7
		c0.7-0.1,0.9,0.2,1.2,1.4l3.4,16.2c0.2,1.2,0.2,1.7-0.6,1.8l-0.9,0.2l0.4,1.6l7.1-1.5l-0.3-1.7l-0.9,0.2c-0.8,0.2-1-0.2-1.3-1.4
		l-3.3-16.3C181.5,303.1,181.6,302.7,182.3,302.5z"/>
	<path class="st1" d="M201.4,298.5c-2.1-1.9-4-2.4-6.2-1.7c-2.1,0.7-3.4,2.3-3.9,4.9c-0.5,2.5-0.2,5.5,0.8,8.8
		c1.1,3.3,2.4,5.6,4.4,7.4c2.2,1.9,4.1,2.5,6.2,1.8c2-0.7,3.4-2.4,4-5.2c0.5-2.6,0.3-5.3-0.8-8.5
		C204.8,302.8,203.3,300.2,201.4,298.5z M202.2,318.1c-2.2,0.7-4.3-2.2-6.4-8.8c-2.1-6.6-2.1-10.2,0-10.9c2.3-0.7,4.3,2.2,6.5,8.8
		C204.4,313.8,204.4,317.4,202.2,318.1z"/>
	<path class="st1" d="M219.5,289.1l-0.7-1.5l-5.1,2.4l0.7,1.5c1.7-0.8,2.5-0.1,3.8,2.7l3.6,7.8l-12.7-10l-4.4,2l0.7,1.5l0.2-0.1
		c0.7-0.3,1.1,0,1.8,0.4l0.6,0.4l5.8,12.6c1.2,2.5,1.4,3.6-0.1,4.6l0.7,1.5l5-2.3l-0.7-1.5c-1.7,0.7-2.5-0.1-3.7-2.8l-4.9-10.7
		l15.7,12.4l1.1-0.5l-7.5-16C218.2,291,218.1,289.9,219.5,289.1z"/>
	<path class="st1" d="M244.8,296.6c-0.7,0.5-1,0.2-1.7-0.8l-4.3-6.4c0,0,0.1-0.1,0.2-0.2c1.4-0.9,2.7-0.4,4.7,2.1l0.8-0.6l-6-8.8
		l-0.8,0.5c1.5,2.8,1.7,4.2,0.3,5.2c-0.1,0.1-0.2,0.1-0.3,0.1l-3.8-5.6c-0.9-1.4-0.7-1.6,0.2-2.2c2.4-1.7,4.5-1,7.8,2.6l0.8-0.5
		l-4.8-6.8l-10.3,7.1l0.9,1.4l0.8-0.5c0.7-0.5,1-0.2,1.7,0.8l9.2,13.5c0.7,1,0.8,1.5,0.1,1.9l-0.8,0.6l0.9,1.4l6.3-4.3l-0.9-1.4
		L244.8,296.6z"/>
	<path class="st1" d="M255.5,272.6l0.7-0.8l-6.3-6.9l-0.6,0.5l0.3,1.9c-1.6-0.3-2.8,0-3.9,0.9c-1.7,1.5-2.3,3.5-1.6,6.3
		c0.6,2.5,1.9,5.1,4,7.5c2.7,3.2,5.7,5.2,8.5,5.7c1.9,0.4,3.5,0,4.7-1.1c2.5-2.1,2.2-5.8-0.9-10.4l-1.2,0.2c2.4,3.9,2.7,6.7,1.1,8.1
		c-2.2,1.8-5,0.1-9.6-5.3c-4.6-5.3-5.9-8.5-3.9-10.1C248.5,268.1,251.4,269.2,255.5,272.6z"/>
	<path class="st1" d="M107.6,53.4c-9.9-5.5-16-12.9-16-21.1c0-16.8,25.5-30.4,57-30.4c31.4,0,56.9,13.6,56.9,30.4
		c0,8.3-6.3,15.8-16.4,21.3c0.2,0.6,0.3,1.3,0.4,1.9c11.1-5.9,18-14.1,18-23.2C207.5,14.5,181,0,148.6,0
		c-32.5,0-58.9,14.5-58.9,32.4c0,9,6.7,17.1,17.5,23C107.3,54.7,107.4,54.1,107.6,53.4z"/>
	<path class="st1" d="M108.9,49.1c0.3-0.7,0.6-1.5,0.9-2.2c-4.4-3.1-7-6.9-7-11.4c0-13.4,23.6-20.7,45.9-20.7
		c22.2,0,45.9,7.2,45.9,20.7c0,4.7-2.9,8.7-7.6,11.8c0.3,0.7,0.6,1.4,0.8,2.1c2.8-1.7,5.2-3.5,7.1-5.5c0.1-0.1,0.1-0.1,0.2-0.2
		c0.1-0.1,0.1-0.1,0.2-0.2c0.3-0.3,0.6-0.6,0.9-1c0.3-0.4,0.6-0.8,0.9-1.2c0.1-0.2,0.2-0.3,0.3-0.5c0.2-0.2,0.3-0.5,0.5-0.7
		c0.2-0.3,0.3-0.6,0.5-0.9c0.1-0.1,0.1-0.2,0.2-0.3c0.2-0.4,0.3-0.7,0.5-1.1c0-0.1,0.1-0.1,0.1-0.2c0.1-0.4,0.3-0.7,0.4-1.1
		c0-0.1,0-0.1,0.1-0.2c0.1-0.3,0.2-0.7,0.3-1c0-0.1,0-0.2,0.1-0.3c0.1-0.3,0.1-0.6,0.1-0.9c0-0.1,0-0.3,0.1-0.4c0-0.3,0-0.5,0-0.8
		c0-0.2,0-0.4,0-0.6c0-0.2,0-0.4,0-0.6c0-0.3,0-0.5,0-0.8c0-0.1,0-0.3-0.1-0.4c0-0.3-0.1-0.6-0.1-0.9c0-0.1,0-0.2-0.1-0.3
		c-0.1-0.4-0.2-0.7-0.3-1.1c0-0.1,0-0.1-0.1-0.2c-0.1-0.4-0.2-0.8-0.4-1.1c0-0.1-0.1-0.1-0.1-0.2c-0.2-0.4-0.3-0.7-0.5-1.1
		c-0.1-0.1-0.1-0.2-0.2-0.3c-0.2-0.3-0.3-0.6-0.5-0.9c-0.1-0.2-0.3-0.5-0.5-0.7c-0.1-0.2-0.2-0.3-0.3-0.5c-0.3-0.4-0.6-0.8-0.9-1.2
		c-0.3-0.4-0.6-0.7-1-1.1c0,0,0,0,0-0.1c-0.1-0.1-0.2-0.2-0.3-0.3c-2.1-2.2-4.8-4.2-8-6c-0.6-0.3-1.1-0.6-1.7-0.9
		c-0.6-0.3-1.2-0.6-1.8-0.9c-3.5-1.6-7.4-3-11.7-4.1c-0.9-0.2-1.9-0.5-2.9-0.7c-0.8-0.2-1.6-0.3-2.4-0.5c-0.2,0-0.5-0.1-0.7-0.1
		c-0.6-0.1-1.1-0.2-1.7-0.3c-0.5-0.1-1-0.2-1.6-0.2c-0.3,0-0.6-0.1-0.9-0.1c-0.6-0.1-1.2-0.1-1.8-0.2c-0.2,0-0.4-0.1-0.6-0.1
		c-0.6-0.1-1.2-0.1-1.8-0.2c-0.2,0-0.5,0-0.7-0.1c-0.5,0-1-0.1-1.6-0.1c-0.3,0-0.7,0-1-0.1c-0.3,0-0.7,0-1,0
		c-1.4-0.1-2.8-0.1-4.2-0.1c-1.4,0-2.8,0-4.2,0.1c-0.3,0-0.7,0-1,0c-0.4,0-0.7,0-1.1,0.1c-0.5,0-1,0.1-1.5,0.1c-0.3,0-0.5,0-0.8,0.1
		c-0.6,0.1-1.2,0.1-1.8,0.2c-0.2,0-0.5,0.1-0.7,0.1c-0.6,0.1-1.2,0.1-1.8,0.2c-0.3,0-0.6,0.1-0.9,0.1c-0.5,0.1-1,0.1-1.5,0.2
		c-0.6,0.1-1.2,0.2-1.8,0.3c-0.2,0-0.4,0.1-0.6,0.1c-0.8,0.1-1.6,0.3-2.4,0.5c-1,0.2-2,0.5-3,0.7c-4.2,1.1-8.1,2.4-11.6,4
		c-0.6,0.3-1.2,0.6-1.8,0.9c-0.6,0.3-1.2,0.6-1.7,0.9c-3.2,1.8-6,3.9-8.1,6.1c0,0-0.1,0.1-0.1,0.1c-0.1,0.1-0.2,0.2-0.3,0.3
		c-0.3,0.3-0.5,0.6-0.7,0.8c-0.3,0.4-0.6,0.8-0.9,1.2c-0.1,0.2-0.3,0.4-0.4,0.6c-0.1,0.2-0.3,0.4-0.4,0.7c-0.2,0.3-0.4,0.6-0.5,1
		c-0.1,0.1-0.1,0.2-0.2,0.3c-0.2,0.4-0.3,0.7-0.5,1.1c0,0.1-0.1,0.1-0.1,0.2c-0.1,0.4-0.3,0.7-0.4,1.1c0,0.1,0,0.1-0.1,0.2
		c-0.1,0.3-0.2,0.7-0.3,1c0,0.1,0,0.2-0.1,0.3c-0.1,0.3-0.1,0.6-0.1,0.9c0,0.1,0,0.3-0.1,0.4c0,0.2,0,0.5,0,0.7c0,0.2,0,0.4,0,0.6
		c0,0.2,0,0.4,0,0.6c0,0.3,0,0.5,0,0.8c0,0.1,0,0.3,0.1,0.4c0,0.3,0.1,0.6,0.1,0.9c0,0.1,0,0.2,0.1,0.2c0.1,0.4,0.2,0.7,0.3,1.1
		c0,0,0,0.1,0,0.1c0.1,0.4,0.3,0.8,0.4,1.2c0,0,0,0.1,0,0.1c0.2,0.4,0.3,0.8,0.5,1.2c0,0.1,0.1,0.1,0.1,0.2c0.2,0.3,0.4,0.7,0.6,1
		c0.1,0.2,0.3,0.4,0.4,0.6c0.1,0.2,0.3,0.4,0.4,0.6c0.3,0.4,0.6,0.8,0.9,1.2c0.2,0.3,0.5,0.5,0.7,0.8c0.1,0.1,0.2,0.2,0.3,0.3
		c0,0,0.1,0.1,0.1,0.1C104.1,45.8,106.3,47.5,108.9,49.1z"/>
	<path class="st1" d="M110.7,35.6c0,1.4,1.1,2.9,3,4.5c5.4-7.8,13.3-13.7,22.5-16.5C120.3,25.6,110.7,31.3,110.7,35.6z"/>
	<path class="st1" d="M159.9,23.4c9.6,2.8,17.8,8.9,23.3,17.1c2.3-1.7,3.5-3.4,3.5-4.9C186.7,31.2,176.5,25.3,159.9,23.4z"/>
	<path class="st1" d="M115.8,84l2.5-3.2l15.2,2.5l8.3,14.1l-2.6,3.9c2.9,0.7,5.9,1.1,9,1.1c3.1,0,6.1-0.4,9-1.1l-2.5-3.9l8.3-14.1
		l15.2-2.5l2.6,3.2c3.6-5.8,5.6-12.7,5.6-20c0-1.6-0.1-3.2-0.3-4.7l-1.8,0.8l-12.8-8l-0.5-16l1.7-1.3c-3.5-3-7.6-5.3-12-6.9v2
		L148.2,38v0l-12.5-8.2v-2c-4.4,1.6-8.5,3.9-12,6.9l1.7,1.3L125,52l-12.8,8l-1.7-0.8c-0.2,1.5-0.3,3.1-0.3,4.7
		C110.1,71.3,112.2,78.2,115.8,84z M131.4,58.4l16.8-12.2l16.9,12.2l-6.5,20.1H138L131.4,58.4z"/>
</g>
</svg>
