<?xml version="1.0" encoding="utf-8"?>
<!-- Generator: Adobe Illustrator 24.0.1, SVG Export Plug-In . SVG Version: 6.00 Build 0)  -->
<svg version="1.1" id="svg2" xmlns="http://www.w3.org/2000/svg" xmlns:xlink="http://www.w3.org/1999/xlink" x="0px" y="0px"
	 viewBox="0 0 316 316" style="enable-background:new 0 0 316 316;" xml:space="preserve">
<style type="text/css">
	.st0{fill:none;}
	.st1{fill:#FFFFFF;}
</style>
<path class="st0" d="M66.4,131.8c0,0-0.1,0.1-0.2,0.3c-11,30.1-0.2,76.9,33.5,101.7c0-0.7,0.4-2,0.8-2.9c0.1-0.3,0.1-0.8,0-1.2
	c-1.3-5.5-4.5-11-7.6-16.3c-10.6-17.7-4.7-29.8,12.5-37.7c0.3,0,0.3-0.2,0.2-0.4c-0.3-0.6-0.5-1.2-0.8-1.8c-0.1-0.1,0-0.5-0.4-0.4
	c-3.8,0.4-8.2,0.8-12.1,0.6c-5.9-1.3-11.6-3.6-15.8-9.9c-7.7-10.6,2.8-24.9-9.8-31.9C66.6,131.8,66.5,131.8,66.4,131.8z M76.3,184.8
	c4.1-3.8,8.6-7.2,13.2-7.2c0.3,0,0.6,0,0.9,0c0.3,0,0.5,0,0.7,0.2c1.1,1.3,0.9,3-1.1,4.4c-4.2,2.7-9,2.8-13.5,3
	C76.3,185.2,76,185,76.3,184.8z"/>
<path class="st0" d="M120.9,220.6c0.4-1.6,1.6-2.8,3.1-2.4c-0.9-3.9-2.1-8.2-2.8-12.5c-0.6,4.3-2.2,9.3-3.7,12.6
	C119.3,218.1,120.8,219.2,120.9,220.6z"/>
<path class="st0" d="M120.8,198.3c0.3,0.2,0.6-0.1,0.7-0.3c0.1-0.4,0.1-0.9,0-1.2c0-0.1-0.1-0.2-0.2-0.3c-0.1-0.1-0.2-0.2-0.4-0.2
	c-0.1,0-0.2,0-0.3,0c-0.1,0-0.2,0-0.3,0.1c-0.1,0.1-0.2,0.2-0.3,0.3c0,0.1,0,0.5-0.1,0.8c0,0.1,0.2,0.2,0.3,0.3
	C120.4,198,120.6,198.1,120.8,198.3z"/>
<path class="st0" d="M68.6,124.7c-0.1,0.1,0,0.2,0.2,0.2c10.7,0.9,14.1-12.9,22.3-18.1c0.1-0.1,0.2-0.2,0.2-0.3
	c-0.6-6.3-0.9-11.6,2.4-18.2C82.8,97.9,73.5,110.5,68.6,124.7z"/>
<path class="st0" d="M117.6,200c-0.3,0.1-0.7,0.4-0.8,0.8c-0.2,0.3-0.1,0.4,0,0.6c0.2,0.3,0.4,0.6,0.7,0.7c0.3,0.1,0.6,0.1,0.7-0.4
	c0.1-0.5,0.1-1.1-0.1-1.3C117.9,200.2,117.9,199.9,117.6,200z"/>
<path class="st0" d="M88.9,131.1c-0.2-0.2-0.2-0.5-0.5-0.4c-0.3,0.1-0.7,0.4-0.8,0.8c-0.1,0.3-0.1,0.4,0,0.6
	c0.2,0.3,0.4,0.6,0.7,0.7s0.6,0.1,0.7-0.4C89.1,131.9,89.1,131.3,88.9,131.1z"/>
<path class="st0" d="M76.6,152.6c0.8,8.2,7.1,19.3,24,17c0.2,0,0.3-0.1,0.2-0.3c-1.1-1.6-4.7-1-5.6-1.2
	c-13.4-2.5-15.6-14.9-18.4-28.8c-0.7-4-3.3-6.6-4.9-9.6c-0.1-0.3-0.2-0.4,0.2-0.5c8.5-1.6,15-9,21.8-16.9c0.1-0.1,0.2-0.3,0-0.4
	c-0.4-0.4-0.8-0.8-1.1-1.3c-0.1-0.1-0.1-0.1-0.2-0.1c0,0-0.1,0-0.2,0.1c-10,7.1-12.7,19.6-25.6,17.5
	C75.9,132.4,75.7,142.9,76.6,152.6z"/>
<path class="st0" d="M125.1,201.3c0.1-0.1,0.3-0.1,0.3-0.4c0-0.1-0.1-0.2-0.2-0.3c-0.1-0.2,0-0.6-0.1-0.7c-0.1-0.1-0.2-0.2-0.3-0.2
	c-0.1,0-0.2,0-0.3,0h-0.1c0,0-0.1,0.1-0.1,0.2c0,0.5-0.3,1.2,0.2,1.5C124.7,201.5,124.9,201.5,125.1,201.3z"/>
<path class="st0" d="M88.7,149.2c1.8-0.2,3.3,0.9,3.4,2.3c0.4-1.6,1.6-2.8,3.1-2.4c-1-3.9-2.1-8.2-2.8-12.5
	C91.9,140.9,90.3,145.9,88.7,149.2z"/>
<path class="st0" d="M95.7,131.9c0.1-0.1,0.3-0.2,0.3-0.4c0-0.1-0.2-0.2-0.2-0.3c-0.1-0.2,0-0.6-0.1-0.7c0-0.1-0.1-0.2-0.2-0.2
	c-0.1-0.1-0.2-0.1-0.3-0.1c0,0.1-0.1,0.1-0.1,0.1s-0.1,0.1-0.1,0.2c-0.1,0.5-0.3,1.2,0,1.4C95.3,132.1,95.5,132.1,95.7,131.9z"/>
<path class="st0" d="M91.5,128.7c0.3,0.2,0.6-0.1,0.7-0.3c0.1-0.4,0.1-0.9,0-1.2c0-0.1-0.1-0.2-0.2-0.3c-0.1-0.1-0.2-0.2-0.4-0.2
	c-0.1,0-0.2,0-0.3,0c-0.1,0-0.2,0-0.3,0.1c-0.1,0.1-0.2,0.2-0.3,0.3c0,0.1,0,0.5-0.1,0.8c0,0.1,0.2,0.2,0.3,0.3
	C91.1,128.4,91.3,128.5,91.5,128.7z"/>
<path class="st0" d="M154.4,63.7c-0.6,0-1.1,0-1.7,0c-17.4-0.1-37.7,6.8-51.3,18.1c-0.1,0-0.1,0.2,0,0.2c7.8,3,13.2,7.1,21.5,11.8
	c0.3,0.1,0.4,0.1,0.5-0.2c4.1-20.5,29-14.8,31.3-29.6C154.6,63.9,154.6,63.7,154.4,63.7z"/>
<path class="st0" d="M211.7,236.5c-6.2-2.9-11.9-0.8-18.8,0.8c-7.7,1.8-18.7,3.4-27.5-8.7c-0.1,0-0.2-0.2-0.4-0.2
	c-0.1-0.1-0.1,0-0.2,0c-3.4,1.6-8.8,2.4-11.8,0.7c-0.3-0.1-0.6,0-0.7,0.2c-5.4,9.2-18.3,8.9-27.5,6.6c-6.8-1.6-13.5-3.5-19.1,2
	C134.3,258.6,178.5,259.2,211.7,236.5z M158.6,230.7c0.3-0.2,0.4-0.3,0.7-0.3c0.1,0,0.2,0,0.3,0c1,0.1,1.6,0.6,2.2,1.3
	c0.2,0.4,0.3,0.8,0.3,1.3c-0.1,4.3-0.9,8.6-2.3,12.3c-0.1,0.1-0.2,0.2-0.3,0.1C157.9,240.1,155,234.8,158.6,230.7z"/>
<path class="st0" d="M225.8,150.2c0.4-1.6,1.6-2.8,3.1-2.4c-0.9-3.9-2.1-8.2-2.8-12.5c-0.5,4.4-2.1,9.4-3.7,12.6
	C224.2,147.7,225.7,148.8,225.8,150.2z"/>
<path class="st0" d="M226.8,127.6c0.1-0.4,0.1-0.9,0-1.2c0-0.1-0.1-0.2-0.2-0.3c-0.1-0.1-0.2-0.2-0.4-0.2c-0.1,0-0.2,0-0.3,0
	c-0.1,0-0.2,0-0.3,0.1c-0.1,0.1-0.2,0.2-0.3,0.3c-0.1,0.1-0.1,0.5-0.1,0.7c0.1,0.1,0.2,0.2,0.3,0.3c0.2,0.2,0.4,0.3,0.6,0.5
	C226.4,128,226.7,127.8,226.8,127.6z"/>
<path class="st0" d="M159.4,81.4c0.1-0.4,0.1-0.9,0-1.2c0-0.1-0.1-0.2-0.2-0.3c-0.1-0.1-0.2-0.2-0.4-0.2c-0.1,0-0.2,0-0.3,0
	c-0.1,0-0.2,0-0.3,0.1c-0.1,0.1-0.2,0.2-0.3,0.3c-0.1,0.1,0,0.5-0.1,0.8c0.1,0.1,0.2,0.2,0.3,0.3c0.2,0.2,0.4,0.3,0.6,0.5
	C159,81.9,159.3,81.6,159.4,81.4z"/>
<path class="st0" d="M155.4,83.1c-0.3,0.1-0.7,0.4-0.8,0.8c-0.1,0.3-0.1,0.4,0,0.6c0.2,0.3,0.4,0.6,0.7,0.7c0.3,0.1,0.6,0.1,0.7-0.4
	c0.1-0.4,0.1-1.1-0.1-1.3S155.7,83,155.4,83.1z"/>
<path class="st0" d="M157.6,69.5c-0.1,0.4-0.3,0.6-0.5,0.9c-11.2,11.3-25.1,8-30.3,24.6c-0.5,1.4,0.2,2.9,2.7,4.3
	c0.3,0.1,0.5,0.1,0.5-0.2c-0.6-18,23.7-16.8,29-29.3c0.1-0.1,0.2-0.1,0.3,0c4.5,8.3,11.8,9.4,18.6,13.3c5,2.9,8.7,5.5,9.7,13.8
	c0,0.4,0.1,0.3,0.3,0.1c0.8-0.8,2.7-1.2,2.6-2.5c-1.6-12.2-15.1-14.9-25.9-19.9c-0.5-0.3-0.9-0.7-1.4-1c-2.3-2.7-4-5.7-4.4-9.1
	C158.3,65.9,157.9,67.8,157.6,69.5z"/>
<path class="st0" d="M166.8,71.1c0.2,0.1,0.5,0.3,0.7,0.4c11.2,4.5,23.5,7.9,26.2,20.7c0.1,0.2,0.1,0.4,0.3,0.2
	c5.9-3.9,11.8-7.9,17.8-11.7c0.3-0.1,0.2-0.3,0-0.4c-13.6-9.7-30.6-16-48.6-16.7c-0.2,0-0.3,0.1-0.2,0.4
	C161.9,66.6,165,69.3,166.8,71.1z"/>
<path class="st0" d="M160.4,99.1c-1.1-3.9-1.1-5.5-1.4-10c-1.4,4.4-1.8,6.5-2.9,10C158,99.1,159,99.1,160.4,99.1z"/>
<path class="st0" d="M162.7,83.4c0-0.1-0.1-0.2-0.2-0.2c-0.1,0-0.2,0-0.3,0h-0.1c0,0-0.1,0.1-0.1,0.2c0,0.5-0.3,1.2,0.2,1.5
	c0.2,0.1,0.5,0.1,0.7-0.1c0-0.1,0.2-0.1,0.2-0.4c0-0.1-0.2-0.2-0.3-0.3C162.7,83.9,162.8,83.5,162.7,83.4z"/>
<path class="st0" d="M176.1,163.5c0.2,0.1,0.4,0.2,0.6,0.3c1.3,0.5,2.8,0.2,3.8-0.8c0.4-0.4,0.6-0.7,0.8-1.2
	c0.2-0.5,0.3-0.9,0.3-1.4c0-0.4-0.1-0.9-0.3-1.3c-0.3-0.8-1-1.5-1.9-1.9c-0.5-0.2-0.9-0.3-1.4-0.3c-0.3,0-0.5,0.1-0.7,0.1
	c-0.2,0.1-0.4,0.1-0.6,0.2l-0.1,0.1c-0.1,0-0.1,0-0.1,0c-0.1,0.1-0.3,0.2-0.4,0.3c-0.2,0.1-0.3,0.2-0.5,0.4l-0.1,0.1
	c-0.1,0.1-0.2,0.2-0.3,0.3c0,0.1-0.1,0.1-0.1,0.2c-0.1,0-0.1,0-0.1,0c0,0.2-0.1,0.3-0.2,0.5c-0.5,1.4-0.2,2.9,0.8,4
	C175.7,163.2,175.9,163.4,176.1,163.5z M176.6,158.3c0.4,0,0.8,0.3,0.8,0.7c0,0.5-0.3,0.9-0.7,0.9c-0.4,0.1-0.8-0.2-0.8-0.8
	C175.9,158.7,176.2,158.3,176.6,158.3z"/>
<path class="st0" d="M198.3,197.7c0.1-0.4,0.1-0.9,0-1.2c0-0.1-0.1-0.2-0.2-0.3c-0.1-0.1-0.2-0.2-0.4-0.2c-0.1,0-0.2,0-0.3,0
	c-0.1,0-0.2,0-0.3,0.1c-0.1,0.1-0.2,0.2-0.3,0.3c0,0.1,0,0.5-0.1,0.8c0.1,0.1,0.2,0.2,0.3,0.3c0.2,0.2,0.4,0.3,0.6,0.5
	C197.9,198.2,198.2,197.9,198.3,197.7z"/>
<path class="st0" d="M201.6,201.1c0.1-0.1,0.3-0.1,0.3-0.4c0-0.1-0.1-0.2-0.2-0.3c-0.1-0.2,0-0.6-0.1-0.7c0-0.1-0.1-0.2-0.2-0.2
	c-0.1,0-0.2,0-0.3,0H201c0,0-0.1,0.1-0.1,0.2c0,0.5-0.3,1.2,0,1.4C201.1,201.3,201.4,201.3,201.6,201.1z"/>
<path class="st0" d="M194.9,201.6c0.1-0.5,0.1-1.1-0.1-1.3c-0.2-0.2-0.2-0.5-0.5-0.4c-0.4,0.1-0.7,0.4-0.8,0.8
	c-0.1,0.3-0.1,0.4,0,0.6c0.2,0.3,0.4,0.6,0.7,0.7C194.5,202.1,194.8,202.1,194.9,201.6z"/>
<path class="st0" d="M122.9,127.9c1.5-2.1,3.1-4,4.4-6.3c0.5-0.9,0-1.3-0.8-1.7c-1.7-0.9-1.1-1.3-2-1.8c-1.1-0.9-0.3-2.8-0.2-4.8
	c0-0.7,0-1.4-0.1-2.1c-0.2-1.2-2-2.6-2.5-3.5c-2.1-3.6-3-3.5-3.6-5.5c-1.3-0.2-2.9-1.1-3.8-1.6c-4.5-2.2-4-4.4-9.6-6.9
	c-0.6-0.5-1.4-0.9-2.1-0.9c-0.4,0-0.8,0.1-1.1,0.4c-0.4,0.5,0,2.9,0.5,4.2c3.4,29.5,5.4,20.9,6.3,30.8c0.3,3.7,1.1,6.4,3.8,8
	c0.1,0,0.2,0.1,0.4,0c2.9-2.5,5.5-5.2,8.9-7.1C122,128.8,122.5,128.4,122.9,127.9z M116.6,130.3c-2.8,3.3-4.1,2.1-4.9,0
	c-0.5-1.5-1-3.3-0.3-5.1c0.4-0.9,0.1-1.8-0.6-2.7c-1-1.3-1.8-2.8-2.6-4.3c-0.3-0.5-0.5-1-0.6-1.7c-1-6.1-0.8-15.2-2.8-18.6
	c5.8,3.2,9.5,8.6,12.3,8.7c0.4,0.7,1.1,1.4,1.6,2c4.2,4.8,0.9,6.6,4.6,12.8c0.4,0.9,0.6,1.7,0.1,2.1
	C120.9,125.7,118.7,127.9,116.6,130.3z"/>
<path class="st0" d="M136,140.2c0.2,0.1,0.4,0.2,0.6,0.2c0.2,0.1,0.4,0.2,0.7,0.1c0.1-0.1,0.1-0.1,0.2-0.1c0.2,0,0.4,0,0.6,0.1
	c0.2,0.1,0.4,0.2,0.6,0.3c0.2,0.1,0.4,0.2,0.5,0.3c0.2,0.2,0.5,0.4,0.7,0.6c0.1,0.1,0.2,0.2,0.3,0.3c0.1,0,0.2,0.1,0.4,0.2
	c0.2,0.1,0.3,0.1,0.5,0.2c0.2,0.1,0.4,0.2,0.6,0.2c0.1,0,0.2,0,0.2,0l0.1-0.1c0.1-0.1,0.2-0.2,0.3-0.4c0,0,0.1-0.1,0.1-0.2
	c0-0.1,0-0.1,0-0.2c0-0.2-0.1-0.3-0.3-0.4c-0.4-0.3-0.7-0.6-1-0.8s-0.5-0.4-0.8-0.6c-0.7-0.6-1.3-0.9-1.9-1.1
	c-0.6-0.2-1.3-0.4-2.2-0.7c-0.4-0.1-0.7-0.2-1-0.3c-0.3-0.1-0.5-0.2-0.7-0.3c-0.8-0.4-0.9-0.6-1.2-0.9c-0.1-0.1-0.2-0.1-0.3-0.2
	c-0.1-0.1-0.2-0.1-0.4-0.2c0,0-0.1,0-0.2,0C132.4,138,134.3,139.5,136,140.2z"/>
<path class="st0" d="M197.8,220.4c0.4-1.6,1.6-2.8,3.1-2.4c-0.9-4-2.1-8.2-2.8-12.5c-0.6,4.4-2.2,9.4-3.7,12.6
	C196.2,217.9,197.7,219,197.8,220.4z"/>
<path class="st0" d="M266.9,90.6c2.6,1.5,5.3,6,6.4,8.7c-5.7,2.6-10.3,5-16,7.7c-1.1,0.6-2.8,0.2-3.9-0.2c1.2,2.4,3.1,6.5,4.3,8.9
	c0.6-1.8,2.4-3.3,4.1-4.1c5-2.3,9.2-4.5,14.3-6.7c1.3,2.5,3.4,7.3,2.7,10.2c1.9-1.2,2.9-3.7,5.1-3.5c-2.7-5.8-8.1-16.7-10.8-22.5
	C271.8,91.1,268.9,89.8,266.9,90.6z"/>
<path class="st0" d="M141.1,166.6c0.8,0,1.6-0.3,1.6-1.2c0-0.1,0-0.2-0.1-0.2c0-0.1-0.1-0.1-0.2-0.1c-0.6,0-1.1-0.1-1.6-0.1
	s-1-0.1-1.5-0.2c-0.5,0-1-0.2-1.4-0.3c-0.4-0.1-0.8-0.2-1.1-0.3c-0.1-0.1-0.2-0.2-0.3-0.2c-0.3-0.1-0.7-0.2-1-0.4
	c-0.4-0.2-0.7-0.3-1-0.5c-0.1-0.1-0.2-0.1-0.3-0.2c-0.3-0.2-0.6-0.3-0.8-0.5c-0.3-0.2-0.6-0.4-0.9-0.6c-0.6-0.4-1.1-0.8-1.6-1.2
	c-0.2-0.2-0.5-0.4-0.7-0.6s-0.4-0.3-0.6-0.5h-0.1c-0.3-0.1-0.5-0.3-0.7-0.4c-0.2-0.1-0.4-0.2-0.6-0.3c-0.2,0-0.3-0.1-0.5-0.1
	c-0.1,0-0.1,0-0.1,0c-0.1,0-0.2,0-0.3,0c0,0.1-0.1,0.1-0.2,0.1c-0.1,0-0.1,0.1-0.2,0.1c-0.1,0.1-0.2,0.1-0.3,0.2
	c-0.1,0-0.1,0.1-0.1,0.1v0.1c0.1,0,0.1,0.1,0.2,0.1c0.7,0.4,1,0.6,1.2,0.8c0.1,0.1,0.1,0.1,0.2,0.2c0.1,0.1,0.2,0.3,0.4,0.5
	c0,0.1,0.2,0.3,0.3,0.4c0.1,0.2,0.3,0.3,0.5,0.5c0.2,0.2,0.5,0.5,0.9,0.8c0.4,0.3,0.8,0.7,1.3,1.1c0.4,0.4,0.9,0.8,1.4,1.2
	c0.5,0.4,0.9,0.8,1.4,1.1c0.1,0.1,0.3,0.2,0.4,0.3c0.1,0,0.2,0.1,0.4,0.1c1.5,0.2,3,0.3,4.5,0.2
	C140.1,166.6,140.6,166.6,141.1,166.6z"/>
<path class="st0" d="M243.9,91.7c1.4,2.3,4.3,6,5.7,8.2c0.1-2.3,1.3-3.3,2.7-4.2c4.8-3.1,9.2-6.6,14-9.7c1.4-0.9,2.2-1.3,4-0.7
	c-1.4-2.1-4.2-5.9-5.6-8.1c-0.1,2.5-1.5,3.3-3.2,4.5c-4.4,3-8.6,6.1-13,9C247.3,91.5,245.7,92.6,243.9,91.7z"/>
<path class="st0" d="M184.5,136.5c-0.6-0.3-1.2-0.5-1.9-0.7c-0.7-0.2-1.4-0.2-2-0.2c-0.3,0-0.6,0-0.9,0.2c-0.3,0.1-0.7,0.2-1.1,0.4
	c-0.3,0.2-0.7,0.3-1.1,0.5c-0.6,0.3-1,0.6-1.3,0.8c-0.3,0.2-0.5,0.4-0.7,0.6c-0.3,0.3-0.7,0.6-1.7,1.1c-0.3,0.2-0.7,0.3-1.2,0.5
	c-0.1,0.2-0.4,0.2-0.4,0.6c0,0.3-0.1,0.5-0.1,0.8s-0.1,0.5,0,0.8c0,0.1,0.1,0.1,0.1,0.2c0.1,0.2,0.2,0.2,0.5,0.1
	c2.5-1.3,5-2.6,7.4-3.7c0.5-0.2,1-0.4,1.5-0.6c1-0.4,2-0.7,2.9-1C184.7,136.8,184.7,136.6,184.5,136.5z"/>
<path class="st0" d="M148.6,226.4c0.2-0.2,0-0.4-0.3-0.6c-0.6-0.4-1.2-0.7-1.8-0.9c-0.5-0.2-0.7-0.1-1,0.3c-5,5.3-21.3,4.2-33.7,4.2
	c-0.4,0-1.5,0.2-1.9,0.4c-1.2,0.6-2.4,1.1-3.7,1c-0.4,0-0.9-0.2-0.8-0.9c0.6-9-4.7-14.7-8.1-22.1c-1-2.5-8.9-16.7,10-25.3
	c0-0.2,0.2-0.2,0.2-0.5c-0.1-0.8-0.2-1.7-0.5-2.6c-0.1-0.3-0.2-0.3-0.4-0.3c0,0-0.1,0.1-0.2,0.1c-15.5,6-18.6,19.9-9.9,32.2
	c6.5,11,9.4,15.5,6.2,24.1C114.8,221.1,136.3,244.4,148.6,226.4z"/>
<path class="st0" d="M222.3,129.7c-0.4,0.1-0.7,0.4-0.8,0.8c-0.1,0.3-0.1,0.4,0,0.6c0.2,0.3,0.4,0.6,0.7,0.7
	c0.3,0.1,0.6,0.1,0.7-0.4c0.1-0.5,0.1-1.1-0.1-1.3C222.6,129.9,222.6,129.6,222.3,129.7z"/>
<path class="st0" d="M213.8,96c-0.2-0.9-0.4-1.8-0.5-2.7c-0.1-0.5-0.5-0.9-1-0.9c0,0-0.1,0-0.2,0c-0.2,0-0.5,0.1-0.7,0.3
	c-5.8,4.9-11.4,5.6-17.7,12.3c-5.5,5.7,1.4,10.9-6.2,15.9c4.9,4.5,10,10.2,15.6,13c0.2,0.1,0.4,0.1,0.5,0c3.6-2.3,4.3-6.1,4.4-12
	C212.4,115.1,210.4,104.1,213.8,96z M203.5,128.9c-0.2,0.2-0.4,0.3-0.7,0.3c-3.7-0.7-6.3-5.3-9.4-7.9c-0.3-0.2-0.5-0.4-0.4-0.7
	c1.2-2.8,4.2-5.6,1.9-8.5c0.1-8.2,10-9.5,15.8-15.6c-0.8,7.1-3.4,11.8-2.4,17.7C205.3,117.9,206.3,124.8,203.5,128.9z"/>
<path class="st0" d="M216.5,162.9c-1.8-3.8-1.2-4.1,4.7-12.3c-3.1-1.6-5.2-3.5-7.4-5c-6.8-5.3-0.7-9.8-0.1-12.4
	c0.4-1.4,1-3.3,1.1-5.2c0.7-4.4,0.3-9.5,2.5-11.8c1.7-1.5,2.1-10.2,2.4-10.9c1.8-5.7,1.2-6.5,1.5-10c0.1-0.5,0.2-0.9,0-1.4
	c-1.2-3.5-2.7-6.8-4.5-10.1c-0.2-0.3-0.3-0.5-0.5-0.6h-0.1H216c-9,2.6-21.1,12.9-31.1,22c-0.3,0.3-0.7,0.4-1,0.3
	c-6.7-2.1-14.4-2.4-20.8-2.6c-9.2-0.8-20.2,0.3-30.1,3.5c-0.5,0.2-0.8-0.2-1.1-0.6c-7.8-8.7-18.8-15.8-30.7-20.8
	c-0.3-0.2-0.6-0.3-1,0c-6.1,5.6-4.7,22.3,0.5,31.3c0.6,1.3,0.8,3.6,0.8,4.4c0.4,4.9,1.3,9.1,2.6,13.6c0.3,2.8,1.4,5.7,3,8.1
	c0.4,0.4,0.2,0.7,0,1c-2,2.1-3.9,4-6,6.1c-0.1,0.1-0.4,0.3-0.7,0.3c-1.8,0.2-2.3,0.7-3.1,2.7c-0.2,0.3-0.2,0.5,0,0.7
	c0.3,0.5,2.3,4,3.9,5.8c1.6,1.6,1,3.1-0.3,4.5c2.5,1.9,7,5.5,7.3,6.1c0.3,1.4,2.8,1.9,1.3,4c0.4,0.1,0.7,0.2,1,0.5
	c0.2,0.2,0.3,0.4,0.3,0.7c0.2,2.3,0.6,4.3,1.9,6.5c5.1,8.7,10.9,7.4,17.7,14.8c4.1,4.5,8.1,4.7,10.9,12.5c-0.3,3-0.4,4.8,0.8,7.4
	c1.4,3.2,5,3.3,9.6,5.4c0.6,0.2,0.9,0.4,1.4,0.9c1.2,1.2,2.5,2,4.1,2.7c1.2,0.6,2.7,0.6,3.9,0c2.2-1.3,2.7-0.4,6.8-3.3
	c3.9-1.2,10.2-5.9,9.5-14c0.1-0.2,0.1-0.4,0.2-0.6c0.1-0.4,0.5-0.7,0.8-1.1c1.5-1.9,3.3-3.5,4.4-5.8c0.2-0.6,0.4-1.1,0.9-1.5
	c15.4-12.6,9.9-7,15.5-11.3C210.6,178.8,203.1,168.6,216.5,162.9z M161.6,222.8c-0.1,0.1-0.4,0.1-0.6,0.2c-0.9,0.2-2.3,0.3-2.6,0.3
	c-0.3-0.1-0.5-0.2-0.7-0.3c-0.8-0.5-1.6-1-2.4-1.5c-0.2-0.2-0.2-0.4,0-0.4c1.1-0.1,2.2-0.2,3.4-0.2s2.5,0,3.7,0.2
	c0.2,0,0.2,0.2,0.2,0.4C162.4,222,161.9,222.6,161.6,222.8z M209.3,163.4c-3.8,4.1-8.8,7.3-13.8,9.4c-0.6,0.2-1.3,0.5-1.7,1
	c-1.3,1.5-2.5,2.8-3.8,4.2c-0.3,0.4-0.6,0.7-0.9,1.1c-0.2,0.2,0.1,0.2,0.2,0.2c0.4-0.1,0.6-0.1,0.9,0c0.2,0.1,0.2,0.3,0.2,0.5
	c0,0.7-0.6,0.8-0.4,1.6c1.1-1.3,2.1-2.6,3.1-3.8c0.3-0.3,0.6-0.7,1.1-0.6l1.1,0.2c0.4,0,0.8-0.1,1.2-0.2c1-0.4,1.7-0.9,2.7-1.5
	c0.3-0.2,0.6-0.2,0.8-0.2c0.6,0,0.8,0.6,0.7,1.2c-0.7,8.4-4.6,6.1-13.5,14c-2.3,1.8-1.6,3.7-4.7,6.3c-2.6,2.4-5.1,5-7.3,8.2
	c-0.4,0.5-0.7-0.1-0.7-0.3c-0.2-0.6-0.5-1.4-1.1-2c-1.5-1.6,0.9-1.4-1.8-5.4c-1.1-1.6-2.3,0.5-3.1-2.1c-0.5-1.7,0-0.9-0.6-4.8
	c-0.4-2.8-1.4-8.3-3.8-19.2c-0.1-0.5,0-0.9,0.2-1.4c2.1-3.8,4.9-7.7,8.1-10.9c2.2-1.8,4.1-2.5,5.8-2.6c2.9-0.1,5.3,1.3,7.8,1.1
	c0.2,0,0.3,0.1,0.4,0.3c0.1,0.2,0,0.7-0.2,0.9c-1.7,2.2-3.7,4.1-6,5.5c-0.5,0.3-1,0.5-1.5,0.6c-1.4,0.4-2.9,0.3-4.4,0.2
	c-1.6-0.1-1.8,1.5-3.5,5.1c-0.5,3.3-1.1,6.8-2.2,9.7c-0.3,3.8,0.2,7,1.1,9.6c0.7,2.1,1.8,3.8,2.9,5.3c0.1,0.2-0.2,1.9,0.5,3.5
	c0.1-2.4,2.3-3.8-0.8-8.2c-0.4-0.6-0.6-1.1-0.8-1.8c0-0.1,0-0.1,0-0.2c-0.3-1.7-0.8-3.3-1-4.9c-0.1-0.5-0.1-1,0-1.6
	c1.2-10,2.7-10.4,2.4-13.8c0-0.2,0-0.3,0.3-0.3c4.3,0.7,14-2.5,15.3-9.2c0-0.3,0.2-0.5,0.6-0.6c2.3-0.3,4.9-1.4,6.7-3.4
	c0.2-0.2,0.2-0.4-0.2-0.3c-2.1,0.4-4.4,0.8-6.7,1c-6-0.5-17.4-1.5-17.5,0.3c0,0.4,0.4,0.4,0.4,0.6c0,0.2-0.1,0.3-0.3,0.4
	c-2.6,0.7-5.7,5.3-6,6.2c-0.3,0.9-0.7,1.8-1.2,2.5c-0.6,0.8-1.5,1.9-1.9,2.7c-0.5,2.3-0.5,4.8,0.1,7.2c0.2,0.8,0.2,1.5,0,2.3
	c-0.5,2.4-0.3,4.9,0.2,7.4c1.1,7.3,3,8.8,4.8,18.4c0.1,0.5,0.7,0.7,1,0.5l0.1-0.1c0.4-0.5,0.7-0.9,1.2-1.2c0,0,0.1,0,0.2,0
	c0.3,0,0.5,0.2,0.6,0.5c1.3,2.8,2.8,7.6,2.3,9.2c-1.8,6.9-6.7,8.1-11.2,7.5c-3.4-0.4-3.4-1.2-3.5-3.5c0-0.2,0.3-0.3,0.6-0.4
	c4.1-1.3,6.6-3.5,6.7-7.8c0-0.6,0.1-1.2-0.2-1.7c-0.2-0.3-0.5-0.6-0.9-0.8c-3.2-1.5-7.4-1.7-11.8-0.9c-1.1,0.2-1.9,0.5-2.3,0.9
	c-0.2,0.2-0.3,0.4-0.4,0.7c-0.2,0.7-0.2,1.8,0,2.8c0.1,0.6,0.3,1.2,0.6,1.7c1.5,2.3,2.5,3.4,4.2,4.5c0.6,0.4,1.4,0.8,2.3,0.7
	c0.2-0.1,0.3,0.1,0.3,0.3c-0.3,3.4-1.8,3.6-5.7,3.1c-8.6-1.7-9.4-7.3-4.7-15.8c0.1-0.3,0.3-0.5,0.4-0.5c0.1,0,0.3,0,0.4,0.2
	c0.1,0.1,0.3,0.5,0.6,0.5c0.1,0,0.1,0,0.2,0c0.5-0.1,1.4,0,1.8-0.2c0.5-0.2,0.8-0.7-0.6-2.6c-0.1-0.1-0.2-0.2,0-0.4
	c3.1-3.4,5.6-27.1,5.8-29.7c0-2.9-3.9-4.5-4.6-4c-0.6,0.6,0.8,2.7,2,4c0.2,0.1,0.1,0.4,0,0.5c-1.1,1.5-2.2,13.4-3.6,20.7
	c-0.1,0.4-0.3,0.8-0.5,1.3c-0.5,1.3-1.2,3.1-1.4,4.3c-0.4,2.8-2.1,2.2-3.4,1.1c0.1,2.9,0.3,4.2-1.3,6.7c-0.2,0.4-0.4,0.2-0.5,0
	c-3.9-7.5-7.7-5.7-12.6-13.7c-0.4-1.2-1.3-2.3-2.9-2.9c-6.1-2.4-10.4-4-10.3-11c0-0.1,0.1-0.2,0.2-0.2c0.1,0,0.2,0,0.2,0
	c3,1.5,7,2.4,9.1,3.3c1.1,0.5,2.3,1.3,3.1,1.4c0.4,0,0.4-0.2,0.2-0.4c-0.3-0.4-0.5-0.7-0.7-1c-6.8-9.5-10.9-2.4-14.6-8.9
	c-1.6-3.4-3.1-2.5-7.1-6.6c-0.2-0.3,0.1-0.5,0.2-0.7c0.9-3.2-4.3-5.6-4.1-10c0.4-6.5,9.8-5.2,7.4-13c-2-4.9-3-10.2-4.5-15.5
	c0-0.5-0.1-0.9-0.3-1.3c-1.1-3.3-2.2-5.4-2.8-10.2c-0.9-11.3-6.8-17.5-3.4-20.8c0.3-0.3,0.7-0.7,0.9-1.5c0.3-0.9,0.4-1.1,0.8-2
	c0.2-0.3,0.4-0.3,0.7-0.3c5.9,1.4,23.5,15.6,35.3,26.2c0.1,0.1,0.3,0.1,0.2-0.1c-0.6-1.6-0.9-3.3-1.9-4.7c-0.2-0.3,0-0.7,0.3-0.9
	c3.6-2,14.7-4.9,24-4.1c13.6,1.5,24.8,2,19.2,9.5c2.7-1.7,5.3-3.7,7.9-5.8c6.3-9.4,18.5-16.5,28.3-20.1c0.1,0,0.2,0,0.2,0
	c0.1,0,0.2,0.1,0.3,0.3c1,1.9,1.8,4.7,2.1,6.3c1.2,7.8-3.3,4.5-3.8,19.1c-1,1.6-1.4,4-2.3,6.9c-0.8,2.5-1.4,5.3-1.4,7.7
	c-0.7,4.8-4.4,5.4-2.6,13.8c0.1,0.6,0.3,1.4,0.7,2c1.7,2,3.9,4.1,6.4,5.7c0.4,0.1,0.7,0.3,0.4,0.8c-2.3,4-5.8,5.6-5.4,10.6
	C209.6,163,209.4,163.3,209.3,163.4z"/>
<path class="st0" d="M149.8,161.1c-0.2-0.2-0.3-0.3-0.4-0.5c-0.2-0.2-0.3-0.4-0.5-0.6c-0.3-0.4-0.5-0.7-0.8-1
	c-0.1-0.1-0.1-0.1-0.1-0.1c-0.3-0.3-0.6-0.6-0.9-0.9c-0.2-0.2-0.5-0.5-0.7-0.7c-0.1-0.1-0.1-0.2-0.2-0.2c0-0.1-0.1-0.1-0.1-0.1
	l-0.1-0.1c-0.2-0.1-0.4-0.3-0.6-0.4c-0.1-0.1-0.2-0.1-0.3-0.2c-0.3-0.2-0.5-0.3-0.8-0.5c-0.4-0.2-0.7-0.4-1-0.6
	c-0.3-0.2-0.7-0.4-1-0.5c-0.3-0.1-0.7-0.3-1.1-0.4c-0.3,0-0.5-0.1-0.8-0.2c-0.2-0.1-0.4-0.2-0.6-0.2c-0.1-0.1-0.2-0.1-0.3-0.1
	c-0.3-0.1-0.7-0.1-1-0.2c-0.4-0.1-0.9-0.2-1.3-0.2c-0.5,0-0.9,0-1.3,0c-0.6,0-1,0.1-1.5,0.1c-0.1,0-0.1,0-0.2,0
	c-0.4,0.1-0.8,0.1-1.1,0.2H133c-0.4,0.1-0.8,0.2-1.1,0.3c-0.3,0.1-0.6,0.2-0.9,0.3c-0.8,0.2-2.4,0.3-4.3,0.4
	c-1.9,0.1-4.2,0.1-6.2,0.1c0.5,0.2,1.1,0.5,1.9,0.7c0.4,0.1,0.8,0.2,1.3,0.3c0.4,0.1,0.9,0.2,1.4,0.3c1,0.2,2.1,0.3,3.1,0.4
	c1,0.1,2,0.1,2.9,0c2.8-0.7,4.9-0.7,6.6-0.4c3.9,0.8,5.9,3.7,8.8,6.4c0.3,0.3,0.7,0.6,1,0.9c0.4,0.2,0.7,0.5,1.1,0.8
	c0.4,0.3,0.8,0.5,1.2,0.8h0.1c0.1,0,0.2-0.1,0.2-0.2c0.1-0.6,0.3-1.2,0.5-1.7c0-0.1,0-0.2,0.2-0.1c0-0.2-0.1-0.4-0.2-0.6
	C150.3,161.9,150.1,161.5,149.8,161.1z"/>
<path class="st0" d="M143,188.8c-1.2-0.9-2.5-1.6-3.7-2.4C140.5,187.2,141.8,188,143,188.8z"/>
<path class="st0" d="M136.6,163.3c0.1,0.1,0.4,0.2,0.6,0.3c0.2,0.1,0.5,0.2,0.7,0.2c0.5,0.1,1,0.1,1.4,0c0.9-0.2,1.7-0.7,2.2-1.5
	c0.1-0.2,0.2-0.4,0.3-0.6c0.3-0.6,0.3-1.3,0.2-2c-0.1-0.4-0.2-0.8-0.5-1.2c-0.2-0.2-0.3-0.3-0.5-0.5c-0.1-0.1-0.3-0.3-0.5-0.4
	c-0.2-0.1-0.4-0.2-0.6-0.3c-0.5-0.1-0.9-0.2-1.4-0.2c-0.2,0-0.3,0-0.5,0c-0.1,0-0.3,0.1-0.4,0.1c-0.2,0-0.4,0-0.5,0.1
	c-0.1,0.1-0.3,0.2-0.4,0.3c-0.2,0.1-0.3,0.2-0.5,0.4c0,0.1-0.1,0.1-0.1,0.1c-0.2,0.2-0.3,0.3-0.4,0.5c-0.1,0.2-0.2,0.4-0.3,0.6
	c-0.5,1.1-0.3,2.3,0.2,3.1C135.9,162.7,136.2,163,136.6,163.3z M137.2,158.5c0.4,0,0.8,0.3,0.8,0.7c0,0.4-0.3,0.8-0.7,0.8
	c-0.5,0-0.8-0.3-0.8-0.7S136.8,158.5,137.2,158.5z"/>
<path class="st0" d="M159.1,117.6c0,0.1-0.1,0.2-0.1,0.2c-0.1,0.1-0.1,0.2-0.1,0.5c0,0.4,0,0.7,0,1c0,0.5,0.1,0.8,0.1,1
	c0.1,0.4,0.2,0.3,0.2,0.7c0,0,0,0.1,0,0.3c0,0.1,0,0.1,0,0.2c0.1,0.2,0.3,0.4,0.6,0.7c0.4,0.4,0.8,0.7,1.1,0.9
	c0.1-0.1,0.1-0.2,0.1-0.3v-0.1v-0.1c-0.4-0.5-0.1-1.2-0.2-2.7c0-0.2,0.1-0.3,0.1-0.5c0.1-0.1,0.2-0.3,0.3-0.5
	c0.1-0.2,0.2-0.3,0.3-0.5c0.1-0.1,0.2-0.3,0.3-0.4c1.5-1.8,2.8-1.3,5.4-6.2c-2.7,1.7-5.7,3.2-8,5.6
	C159.2,117.5,159.1,117.6,159.1,117.6z"/>
<path class="st0" d="M156.6,118.6c-2.6-2.2-5.3-4.4-7.7-6c0,1,0.1,1.9,0.4,2.6c0.3,0.8,0.8,1.4,1.4,1.8c0.4,0.3,0.9,0.5,1.5,0.7
	c0.7,0.2,1.1,0.4,1.4,0.8c0.1,0.2,0.2,0.4,0.2,0.7c0,0.2,0,0.3,0,0.5c0,0.2,0,0.4,0,0.6s0.2,0.4,0.3,0.6c0.4,0.6,0.9,1.2,1.4,1.8
	c0,0,0.1,0,0.2,0l0.1-0.1c0.1,0,0.1-0.1,0.1-0.1c0.4-1,0.8-2,1-3c0.1-0.3,0-0.6-0.1-0.7C156.7,118.7,156.7,118.7,156.6,118.6z"/>
<path class="st0" d="M142.8,169.9c-0.8,0.5-1,1.8-0.6,2.5c2.3,4.9,2.4,8.5,1.8,12.1c-0.3,1.8-0.6,3.2-1,4.3v0.1
	c-0.1,0.5-0.3,0.9-0.4,1.2c0,0.2-0.1,0.4-0.2,0.6c-0.1,0.1-0.1,0.3-0.2,0.4c-0.1,0.2-0.2,0.5-0.3,0.7c-0.1,0.2-0.3,0.6-0.4,0.8
	c0,0.1-0.1,0.2-0.1,0.3c-0.1,0.2-0.1,0.3-0.2,0.5c0,0.1-0.1,0.2-0.1,0.3c0,0.1,0,0.1,0,0.2c-0.1,0.2-0.1,0.3-0.1,0.5
	c0,0.2,0,0.3,0,0.5c0.1,0.2,0.1,0.4,0.1,0.6c0.1,0.5,0.2,0.7,0.4,0.8c0.1,0,0.1,0,0.2,0c0.1,0.1,0.3,0.1,0.4-0.1
	c0-0.2,0.1-0.3,0.2-0.5c0-0.2,0.1-0.3,0.2-0.5c0.2-0.3,0.4-0.7,0.6-1c0.1,0,0.1-0.1,0.2-0.2c0.4-0.6,0.9-1.1,1.3-1.7
	c0-0.1,0.1-0.2,0.1-0.2c0.2-0.2,0.3-0.5,0.5-0.7c0.1-0.1,0.1-0.2,0.2-0.3c0.1-0.2,0.3-0.4,0.4-0.7c0.3-0.7,0.5-1.5,0.4-2.3
	c-0.1-0.4,0.1-0.6,0.2-0.8c3.3-6.3-2.1-10.7-3-17.2C143.3,169.5,143.2,169.6,142.8,169.9z"/>
<path class="st0" d="M130.7,280c0.4-3.6-3.5-5.3-5-6.1c4,0.4,6.7-1.7,6.9-5.4c0.3-2.6-2.1-5.5-7.6-7.3c-4-1.3-11.5-4-15.5-5.1
	c0.7,1.4,0.6,3,0.1,4.5c-1.8,5.7-4,10.9-5.7,16.7c-0.4,1.4-1.2,2.2-3,2.6c5.4,1.7,11.8,4,17.6,5.8
	C124.5,287.7,129.9,286.2,130.7,280z M118.8,281.5c-2.6-0.8-6.2-1.9-8.7-2.9c0.6-2.2,1.5-4.4,2.1-6.6c2.5,1,6.7,2.4,8.9,3.3
	C125.9,277,124.7,283.6,118.8,281.5z M123,271c-2.1-0.3-7.9-2-9.9-2.7c0.5-2,1.1-3.9,1.7-5.9c2.1,0.8,8.2,2.1,10.2,3
	C127.9,266.5,126,271.7,123,271z"/>
<path class="st0" d="M152.9,268c-0.2-0.8,0.1-1.6,0.1-1.7l-10.2-1c0.2,0.4,0.1,1.3-0.2,1.7l-10.7,18.2c-1,1.6-1.9,2.3-3.2,3.3
	c2.4,0.4,6.6,1.6,9.1,2.1c-0.8-1.7-0.7-3.9,0.6-5.5c3.7,0.3,10.8,0.8,14.6,1.3c0.8,1.8,1.7,4,0,5.6c2.5,0,6.8-0.1,9.2,0
	c-1.1-1.3-2.1-2.6-2.6-4.3C158.5,284.4,154.2,271.9,152.9,268z M140.9,280.9l6.3-11.1l4.4,11.9C148.9,281.5,143.6,281.2,140.9,280.9
	z"/>
<path class="st0" d="M188.9,281.6c-2,2.2-4.9,3.5-8,4c-1.7,0.3-7,1.1-8.6,1.1c-0.7-5.8-1.7-11.8-2.4-17.6c-0.2-1.5,0.4-2.4,1.4-3.6
	c-2.7,0.4-7.4,1-10,1.3c1.2,0.9,2.1,1.4,2.3,2.9c0.6,5.7,1.8,11.1,2.5,16.8c0.1,1.8,0.1,4.1-1.1,5.5c6-0.6,17-2.4,23-3.1
	c-0.2-0.5-0.6-1-0.4-1.5C187.9,285.4,188.6,283.7,188.9,281.6z"/>
<path class="st0" d="M38.9,192.2c1.4,1.5,3.8,1.7,5.6,2.3c-0.5-0.7-1.4-2.2-1.5-3.1c-0.6-2.8-1.9-8.2-2.5-11
	c2.1-0.5,4.2-1.1,6.4-1.4c1.2,4.5,3.9,12.8,1.8,17.1c2.2-0.7,4-3.1,5.9-2.6c-1.3-6-4.2-17.1-5.4-23.2c-0.9,1.2-2.1,2.2-3.6,2.5
	c-5.6,1.6-11.5,2.8-17.9,4.3c-1.3,0.5-2.1-0.1-3.3-1c0.5,2.6,1.4,6.8,2,9.4c2.3-3.2,6.5-3.1,9.9-4.2C37.1,184,38,189.6,38.9,192.2z"
	/>
<path class="st0" d="M105.1,260.9c1.1-2,0.9-5.2,2.8-6c-5.3-3.6-15.7-10.2-21-13.8c0,2.4-2.5,1.7-4.4,4.7c2.9-0.3,7.8,2.3,10.1,4
	c-3.4,5.2-7,10.2-10.4,15.3c-0.6,1.1-1.7,1.2-2.9,1.3c2.1,1.5,6,4.1,8.2,5.6c-0.4-1.7-0.2-3.1,0.7-4.5c3.1-4.5,6.2-9,9.2-13.5
	c0.2-0.2,0.3-0.6,0.4-0.6C100.3,254.8,104.2,258.2,105.1,260.9z"/>
<path class="st0" d="M63.6,214c-0.2-5.5-3.3-11-7.8-14.1c-2.1-1.6-4.3-2.1-6.4-2.2c-0.7,0-1.4,0-2.1,0.1c-4.9,1.1-9.3,3.5-11.4,8.5
	c-2.7,7,2.6,17.9,9.8,20.5c4.6,1.6,9.2,0.4,12.6-2.1C61.5,222.5,63.7,218.9,63.6,214z M47.9,221.1c-4.3-0.2-8.6-5.6-7.3-10.8
	c1.2-4.2,6-6.3,8.6-6.5c2.7,0,5.4,0.7,7.2,3.4c2.3,2.9,3,6.8,1.4,9.2C55.5,219.5,51.8,221.3,47.9,221.1z"/>
<path class="st0" d="M82.3,237.9c-1.2-5.4-5.5-10-10.5-12.3c-2.2-0.9-4.1-1.3-5.8-1.2c-1.1,0-2.1,0.2-3.1,0.6
	c-4.8,1.8-8.4,4.9-9.8,10.2c-2,7.3,6,16.8,13.5,18.2c4.8,0.8,9.1-0.9,12.2-4C81.5,246.7,83.2,242.7,82.3,237.9z M76.5,241.3
	c-1.7,3.8-4.8,6.2-8.7,6.7c-4.2,0.5-9.7-5-9.1-9.6c0.7-4.2,3.4-5.9,5.7-7.1c1.3-0.7,2.6-1,3.9-1c2.2,0,4.1,0.8,5.5,2.3
	C76.4,235,77.6,238,76.5,241.3z"/>
<path class="st0" d="M222.1,208.1c9-15.1-1.5-24.4-12.8-29c-0.1,0-0.1,0-0.1,0c-0.1,0-0.2,0.1-0.2,0.2c-0.3,0.8-0.7,1.5-1,2.2
	c-0.3,0.8-0.3,1.5,0.9,1.9c22.2,9,11.3,26.2,5.5,36.3c-0.6,1-2,4.1-2.1,5.4c-0.2,1.5,0,2.7,0,4.2c0,0.4-0.5,0.4-0.8,0.4
	c-14.2-2.7-26.5,9.9-38.2-3.7c-1-1.2-2.3-1.3-2.8-0.9c-0.6,0.4-0.9,0.8-1.3,1.4c-0.3,0.4-0.3,0.6,0,0.9c12.1,17,30.1-3.1,45.4,5.3
	C211,224,218.1,215.6,222.1,208.1z"/>
<path class="st0" d="M212.9,273.1c-1.3,2.7-4.2,4.1-7.2,5.3c-1.7,0.5-6.3,2.6-8,2.8c-1.8-5.5-4-11.3-5.8-16.8
	c-0.5-1.5-0.2-2.5,0.6-3.8c-2.5,0.7-6.8,2.4-9.3,3.3c1.4,0.6,2.3,1,2.8,2.4c1.8,5.4,3.9,10.5,5.8,15.9c0.5,1.7,1.1,3.6,0.2,5.3
	c5.8-1.8,15.8-5.4,21.5-7.1c-0.3-0.5-0.8-0.9-0.8-1.5C212.6,276.8,213.1,275.2,212.9,273.1z"/>
<path class="st0" d="M269.1,46.9C239.4,17.2,200,0.9,158,0.9C71.4,0.9,0.9,71.4,0.9,158S71.4,315.1,158,315.1S315.1,244.6,315.1,158
	C315.1,116,298.8,76.6,269.1,46.9z M158,308.2C75.2,308.2,7.8,240.8,7.8,158S75.2,7.8,158,7.8c40.1,0,77.8,15.6,106.2,44
	c28.4,28.4,44,66.1,44,106.2C308.2,240.8,240.8,308.2,158,308.2z"/>
<path class="st0" d="M156.1,14.2c-79.4,1-143,66.3-142,145.7s66.3,143,145.7,142s143-66.3,142-145.7S235.5,13.2,156.1,14.2z
	 M159.8,300.1c-78.5,1-142.9-61.9-143.9-140.3c-1-78.5,61.8-142.9,140.3-143.9c78.4-0.9,142.9,61.9,143.9,140.3
	C301.1,234.7,238.2,299.1,159.8,300.1z"/>
<path class="st0" d="M232,264.1c-3,0.6-5.1-0.2-7.3-2.1c-2.5-2.6-4-5.7-3-9.4c1.5-4.8,7.8-8.3,11.8-7.6c-0.7-2.1-1.2-4.4-1.9-6.4
	c-1.2,1.7-3.7,2.6-5.5,3.4c-3.9,1.8-9.3,6.2-10.4,11.4c-0.9,4.5,0,8.1,2.5,11.3c2.4,3.3,5.5,5.2,9.7,5.3c4.7-0.1,9.8-3.1,13.5-6.9
	c1.2-1.3,2.7-3,4.6-3.1c-1.5-1.8-2.8-3.8-4.4-5.5C240.5,257.8,235.4,263.2,232,264.1z"/>
<path class="st0" d="M287.8,137.6c-3.6-1.4-7.8-3.3-10.8-4.5c2.2-2.6,4.8-5.1,7.1-7.5c1-1.2,2.4-1.7,3.6-0.5l-2.2-10.5
	c-0.5,2.5-2.7,3.9-4.1,5.7c-2.7,3.2-6.1,6.8-9.3,10.1c-0.8,0.7-2.7,0.9-3.9,1.2c-2.4,0.4-3.6,0.6-5.4-0.9c0.5,2.6,1.5,7.2,2,9.8
	c1-1.6,2.1-2.5,4.1-3c1.8-0.4,3.4-1.1,4.7-0.5c5.9,3.2,17,7.8,18.4,9.2l-2-9.7C289.4,137.4,288.6,137.9,287.8,137.6z"/>
<path class="st0" d="M264.7,236.4c-1.1-2.1-1.5-3.4-2.7-5.1c-0.1,2.7-1.6,6-3.6,8.3c-1,1.3-4.2,5-5.5,6.4
	c-4.5-3.8-8.5-7.2-12.9-10.9c-1.2-0.9-2.1-2.3-2.2-3.8c-1.8,1.9-4.3,4.7-6,6.7c1.5-0.2,3,0.5,4.1,1.5c4.4,3.8,8.6,7.6,13,11.2
	c1.3,1.2,2,2.4,2.1,4.3c4-4.5,11.4-13.1,15.2-17.7C265.7,237.1,265,237,264.7,236.4z"/>
<path class="st0" d="M273.9,207.3c-3.7-2.2-6.6-3.7-10.3-5.9c-1.4-0.9-3.5-2.2-3.5-4.3c-1.6,2.9-3.2,5.8-4.9,8.8
	c1.3-0.6,2.6-0.7,3.7-0.1c3.9,2.1,7.2,4,11,6.1c1.4,0.8,3,2.4,3.2,4.5c-0.1,2.9-2,6.3-4.6,7.4c-1.8,0.9-4,0-5.4-0.8
	c-3.5-2.1-6.3-3.6-9.8-5.7c-1.2-0.7-2.3-1.3-2.4-3.5c-1.6,2.9-3.1,6-4.9,8.9c2.3-1,3.9-0.3,5.6,0.7c3.1,1.8,5.7,3.3,8.8,5.1
	c2.3,1.3,4.7,2.2,7.9,1.5c2.8-0.6,5.1-3.3,6.8-6.1c1.8-2.9,3.3-6.3,3.2-9.5C278.2,211.1,276.1,208.8,273.9,207.3z"/>
<path class="st0" d="M281,172.5c-2.4,0.7-3.7,3.4-4.2,5.3c0-2.9-2.1-6.1-5.5-6c-1.2,0-2.4,0.4-3.8,1.3c-1.9,1.7-2.7,4.3-3.3,6.7
	c-0.8,4-3,12.3-3.8,16.3c1.3-1.1,2.5-1.2,4-0.9c5.9,1.3,11.8,2.6,17.7,3.9c1.4,0.2,2.5,1.4,3.3,2.6c0.9-5.6,4.4-17,4.2-22.5
	C289.5,174.5,285.1,171.5,281,172.5z M274.3,182c-0.5,2-1.3,6.4-1.8,8.5c-2-0.4-4.1-0.8-6.1-1.3c0.6-2.2,1.1-5.2,1.7-7.4
	c0.5-2.4,2-3.4,3.3-3.4C273.1,178.4,274.7,180,274.3,182z M285.3,182.9c-0.6,2.6-1.6,7.5-2.1,10.1c-2.2-0.4-4.5-1-6.7-1.4
	c0.5-2.6,1.4-6.4,2.1-9.1s2.2-3.7,3.6-3.7C284,178.9,285.6,180.7,285.3,182.9z"/>
<path class="st0" d="M28.9,139.2c6.1,1.3,12.1,2.6,18.2,4c1.4,0.3,2.8,1.4,3.5,2.7c1.3-5.9,3.7-16.7,5-22.6c-0.6,0-1.3,0.1-1.8-0.2
	c-1.7-0.9-3-2.5-4.8-3.4c0.9,1.4,1,3.8,1.1,5.4c0.2,3.1-1.6,9-2.1,12c-5.7-1.2-11.5-2.6-17.2-3.8c-1.5-0.3-2.2-1.5-3.1-2.9
	c-0.6,2.6-1.6,7.5-2.2,10C26.7,139.6,27.5,138.9,28.9,139.2z"/>
<path class="st0" d="M77.5,82c5.7-0.3,10.8-5.3,13.1-8.3c1.3-1.4,2.5-3.1,4.4-3.9c-1.5-1.7-3.2-3.4-4.8-5.1c-0.6,2.1-1.6,4-3,5.7
	c-2.1,2.4-5.2,6-8.8,5.8c-3.6-0.1-4.7-1.9-6.3-3.6c-1.6-1.7-2.7-3.8-2.4-6.9c0.3-3.1,6.5-8.9,11-9.1c-1-2-1.6-4.1-2.6-6.1
	c-0.6,0.9-1.4,1.7-2.4,2.2c-3.3,1.5-9.1,6.8-10.5,10.1c-1.9,3.8-1.9,7.3,0.3,11.5C68.1,79.6,71.8,82,77.5,82z"/>
<path class="st0" d="M195.8,51.3c-0.7,1.6-1.7,2.6-3.4,3.2c2.3,1.2,6.3,3.1,8.6,4.3c-1-3.5,1.4-6.7,2.8-9.6c1.4,0.7,4.9,2.4,5.8,3.8
	c1.2,1.9,1.4,4,1.7,6c0.2,1.8,0.3,3.2-1.6,3.9c2.7,1.1,6.9,3.3,9.4,4.5c-2-4.1-0.8-9.7-3.4-13.7c1.7,0,4.6,0.3,6.4-0.8
	c3.3-2,4.1-5.1,3-9.1c-0.6-2.1-2.7-3.4-4.5-4.2c-4.2-2.1-12.8-6.2-17.1-8.3c0.5,1.4,0.8,2.7,0.1,4.2C201.2,40.7,198.4,46,195.8,51.3
	z M208.8,38.8c2.2,1.1,5.5,2.6,7.6,3.7c5.5,2.9,1.6,8.8-2.3,6.6c-2.3-0.8-6.2-3-8.4-3.9C206.6,43,207.8,41,208.8,38.8z"/>
<path class="st0" d="M229.9,131.3c0.1-0.1,0.3-0.1,0.3-0.4c0-0.1-0.2-0.2-0.2-0.3c-0.1-0.2,0-0.6-0.1-0.7c0-0.1-0.1-0.2-0.2-0.2
	s-0.2,0-0.4,0h-0.1c-0.1,0-0.1,0.1-0.1,0.2c0,0.5-0.2,1.2,0.2,1.5C229.5,131.5,229.7,131.5,229.9,131.3z"/>
<path class="st0" d="M218.1,167.5c0,0.1,0.1,0.2,0.2,0.2c11.7,0.7,19-3.2,21.2-11.6c2.8-9.3-2.5-22.6,7.5-29.8
	c0.3-0.2,0.1-0.5-0.1-0.5c-10.1,1-16.6-9.7-24.1-15.6h-0.1l-0.1,0.1c-0.1,0.2-0.3,1.3-0.3,2c0,0.2,0,0.3,0.2,0.4
	c3.2,1.9,12.7,12.7,21,14.6c0.3,0.1,0.4,0.4,0.2,0.6c-9.9,11.6,1.9,29.8-17.6,36.7C222.4,165.6,218.8,165.2,218.1,167.5z"/>
<path class="st0" d="M149.8,28.9c0,6.2,0.6,12.5,0.7,18.7c0.1,1.2-0.8,1.9-1.6,2.4c2.8,0,7.3-0.4,9.9-0.4c-1.3-1.2-2-1.3-2-3
	c-0.4-5.7-0.6-12.4-0.8-18.1c2.9-0.2,8.2,0.4,10.6,1.8c-0.1-2.5-2.5-5-1.3-6.2c-6.5,0-18.8,0.7-25.3,0.8c1.4,2.2-0.7,4.2-0.7,6.5
	C141.5,29.4,147,28.8,149.8,28.9z"/>
<path class="st0" d="M87.1,48.8c2.9,5.2,5.8,10.4,8.7,15.7c0.7,1.3,0.5,2.9-0.1,4.3c6-3.3,17.4-9.3,23.5-12.6
	c-1.9-1.1-0.7-4.7-1.5-7.1c-0.6,2-2.8,3.9-4.5,5.2c-2.8,1.9-9.5,5.3-12.4,7c-1.1-1.9-2.2-3.8-3.2-5.8c2.3-1.4,7.6-3.8,9.9-5.3
	c1.3-1.7,0.5-4.1,0.8-6c-0.6,0.7-1.4,1.4-2.2,1.8c-2.5,1.3-7.9,4.3-10.4,5.7c-0.9-1.8-2.1-3.5-2.9-5.4c4.6-2,12.8-7.6,18-7.3
	c-1.3-1.9-3.4-2.7-4.1-5c-6,3.4-17.3,9-22.9,12.5C85.3,46.9,86.4,47.5,87.1,48.8z"/>
<path class="st0" d="M120.4,42.3c3.5,1.5,10.1-0.1,13.5,0.2c2.4,0.1,3.4,3.4,1.8,5c-3.3,3-12.4,3-16.4,1.8c1,2.3,2.1,4.3,3.1,6.5
	c1.4-0.8,3.8-1,5.3-1.3c3.2-0.5,10.9-2.6,13.1-5.2c2.6-3.1,2.7-7.5,0.2-10.3c-2.3-2.5-9.3-2.1-12.3-1.9c-1.7,0-3.1,0.6-4.7-0.2
	c-1.4-0.9-1.3-3.3,0.2-4.1c3-1.5,9.7-1.8,12.8-0.5c-0.2-2.2,0.1-4.3,0-6.5c-4.2,0.9-13.3,1.5-16.9,4.2
	C115.9,33,114.9,39.5,120.4,42.3z"/>
<path class="st0" d="M169.8,27.7c-1.1,6.2-2.2,12.3-3.5,18.5c-0.2,1.4-1.2,2-2.2,2.9c6.8,1.2,19.4,3.6,26.2,4.9
	c-0.2-2.7,1.9-4.3,2.7-6.7c-2.3,1.6-5.1,2.2-7.8,1.6c-2.7-0.6-9.6-1.9-12.4-2.5c0.4-2.2,0.7-4.3,1.2-6.5c2.7,0.4,7,1.5,9.7,1.8
	c2.3,0.6,4.1-2.6,5.3-4.1c-0.9,0.2-2.5,0.3-3.4,0.1c-2.8-0.6-7.9-1.6-10.7-2.2c0.2-2.1,0.7-4.1,1.1-6.1c4.9,1.2,15,1.7,18.6,5.8
	c0.1-2.2-1.2-5,0.1-6.5c-6.7-1.3-19.5-3.5-26.2-4.7C169.3,25.1,170.2,26.4,169.8,27.7z"/>
<path class="st0" d="M37.5,109.6c5.3,2.7,10.6,5.3,15.9,7.9c1.3,0.6,2.5,1.9,3,3.3c3-6.2,8.4-17.2,11.8-23.4c-0.7,0-1.4-0.6-1.9-1.1
	c-1.4-1.3-2.1-2.8-3.5-4.1c0.4,2.4,0.1,5.4-1,7.8c-1.2,2.6-4.5,9.1-5.8,11.8c-2.1-0.7-3.7-1.9-5.7-2.8c1-2.4,4-7.8,5-10.2
	c0-1.4-1.6-3.7-2.8-5.4c-0.1,0.9-0.5,1.8-0.9,2.6c-1.3,2.6-4.2,8.3-5.5,10.9c-1.8-0.9-4.2-1.8-6-2.7c1.3-2.6,4.5-9.1,5.8-11.7
	c1-2,2.6-3.7,4.7-4.7c-2.2-0.9-3.6-0.6-5.4-2.1c-3,6.1-9.1,17.5-12,23.7C34.8,108.7,36,108.8,37.5,109.6z"/>
<path class="st0" d="M54.4,80.2c4.7,3.6,9.4,7.3,14.1,11c1.2,0.9,1.7,2.2,1.9,3.8c1.7-2.1,4.5-5.7,6.2-7.7c-1.5,0.2-2.9,0.3-4-0.6
	c-4.8-3.6-9.5-7.4-14.2-11.1c-1.3-1-2-2.3-2-4.1c-1.7,2.1-4.6,5.8-6.3,7.8C51.7,79.1,53.2,79.2,54.4,80.2z"/>
<path class="st0" d="M211.6,176.2c7.6,3.2,17.8,10.3,18,21.1c0.4,12.9-13.3,21.6-11.1,33.9c29-25.2,41-62.3,29.7-101.3
	c-11.1,11.2,6.9,29.9-17.6,40.4c-2.2,0.6-4.2,1.4-6.2,1.4c-5.4,0-13.2-4.1-13.1,4.2C211.3,176,211.4,176.1,211.6,176.2z
	 M222.6,176.7c0.3-0.7,1.4-1.2,2.2-1.4c0.3-0.1,0.6-0.1,0.9-0.1s0.6,0,0.9,0.1c3.8,0.7,9.6,3,13,7.2c0.2,0.3,0.1,0.5-0.2,0.5
	c-5.5-0.1-11.7-0.7-16-4.1C222.8,178.4,222.2,178,222.6,176.7z"/>
<path class="st0" d="M238.4,85.6c1.4,1,3.6,2.3,3.8,4c1.6-1.7,3.3-3.3,5-4.9c-4-1.2-10.8-5.1-11.8-9.6c-0.6-3.6,0.3-4.7,1.8-6.7
	c2.8-3.5,5.7-4.7,10-3.5c3.8,1.5,7.3,6.4,7.6,9.9c2-1,3.9-1.9,5.9-2.9c-1.6-1-2.3-2.2-3.4-3.7c-2.3-3.5-6.8-8.4-12.2-9.3
	c-0.7-0.1-1.2-0.2-1.8-0.2c-3.8-0.2-6.4,0.9-9.1,3.2c-3,2.8-5.1,6-5,10.9C229.3,76.5,233.4,82.5,238.4,85.6z"/>
<path class="st0" d="M223.7,105.4c-0.1,0.2,0,0.3,0.2,0.5c7.9,4.2,12.1,16.5,21.2,17c0.1,0,0.3,0.1,0.2-0.1
	c-3.1-11-12.2-24-20.4-31.5C225.5,96.2,225,100.9,223.7,105.4z"/>
<path class="st1" d="M159.8,245.3c1.4-3.7,2.2-8,2.3-12.3c0-0.5-0.1-0.9-0.3-1.3c-0.6-0.7-1.2-1.2-2.2-1.3c-0.1,0-0.2,0-0.3,0
	c-0.3,0-0.4,0.1-0.7,0.3c-3.6,4.1-0.7,9.4,0.9,14.7C159.6,245.5,159.7,245.4,159.8,245.3z"/>
<path class="st1" d="M223.4,178.9c4.3,3.4,10.5,4,16,4.1c0.3,0,0.4-0.2,0.2-0.5c-3.4-4.2-9.2-6.5-13-7.2c-0.3-0.1-0.6-0.1-0.9-0.1
	s-0.6,0-0.9,0.1c-0.8,0.2-1.9,0.7-2.2,1.4C222.2,178,222.8,178.4,223.4,178.9z"/>
<path class="st1" d="M140.9,280.9c2.7,0.3,8,0.6,10.7,0.8l-4.4-11.9L140.9,280.9z"/>
<path class="st1" d="M125,265.4c-2-0.9-8.1-2.2-10.2-3c-0.6,2-1.2,3.9-1.7,5.9c2,0.7,7.8,2.4,9.9,2.7
	C126,271.7,127.9,266.5,125,265.4z"/>
<path class="st1" d="M121.1,275.3c-2.2-0.9-6.4-2.3-8.9-3.3c-0.6,2.2-1.5,4.4-2.1,6.6c2.5,1,6.1,2.1,8.7,2.9
	C124.7,283.6,125.9,277,121.1,275.3z"/>
<path class="st1" d="M176.7,159.9c0.4,0,0.7-0.4,0.7-0.9c0-0.4-0.4-0.7-0.8-0.7c-0.4,0-0.7,0.4-0.7,0.8
	C175.9,159.7,176.3,160,176.7,159.9z"/>
<path class="st1" d="M76.5,185.2c4.5-0.2,9.3-0.3,13.5-3c2-1.4,2.2-3.1,1.1-4.4c-0.2-0.2-0.4-0.2-0.7-0.2c-0.3,0-0.6,0-0.9,0
	c-4.6,0-9.1,3.4-13.2,7.2C76,185,76.3,185.2,76.5,185.2z"/>
<path class="st1" d="M137.3,160c0.4,0,0.7-0.4,0.7-0.8c0-0.4-0.4-0.7-0.8-0.7s-0.7,0.4-0.7,0.8S136.8,160,137.3,160z"/>
<path class="st1" d="M56.4,207.2c-1.8-2.7-4.5-3.4-7.2-3.4c-2.6,0.2-7.4,2.3-8.6,6.5c-1.3,5.2,3,10.6,7.3,10.8
	c3.9,0.2,7.6-1.6,9.9-4.7C59.4,214,58.7,210.1,56.4,207.2z"/>
<path class="st1" d="M210.7,96.5c-5.8,6.1-15.7,7.4-15.8,15.6c2.3,2.9-0.7,5.7-1.9,8.5c-0.1,0.3,0.1,0.5,0.4,0.7
	c3.1,2.6,5.7,7.2,9.4,7.9c0.3,0,0.5-0.1,0.7-0.3c2.8-4.1,1.8-11,4.8-14.7C207.3,108.3,209.9,103.6,210.7,96.5z"/>
<path class="st1" d="M68.3,230.3c-1.3,0-2.6,0.3-3.9,1c-2.3,1.2-5,2.9-5.7,7.1c-0.6,4.6,4.9,10.1,9.1,9.6c3.9-0.5,7-2.9,8.7-6.7
	c1.1-3.3-0.1-6.3-2.7-8.7C72.4,231.1,70.5,230.3,68.3,230.3z"/>
<path class="st1" d="M271.4,178.4c-1.3,0-2.8,1-3.3,3.4c-0.6,2.2-1.1,5.2-1.7,7.4c2,0.5,4.1,0.9,6.1,1.3c0.5-2.1,1.3-6.5,1.8-8.5
	C274.7,180,273.1,178.4,271.4,178.4z"/>
<path class="st1" d="M282.2,178.8c-1.4,0-2.9,1-3.6,3.7s-1.6,6.5-2.1,9.1c2.2,0.4,4.5,1,6.7,1.4c0.5-2.6,1.5-7.5,2.1-10.1
	C285.6,180.7,284,178.9,282.2,178.8z"/>
<path class="st1" d="M300.1,156.2c-1-78.4-65.5-141.2-143.9-140.3c-78.5,1-141.3,65.4-140.3,143.9c1,78.4,65.4,141.3,143.9,140.3
	C238.2,299.1,301.1,234.7,300.1,156.2z M273.1,89.1c2.7,5.8,8.1,16.7,10.8,22.5c-2.2-0.2-3.2,2.3-5.1,3.5c0.7-2.9-1.4-7.7-2.7-10.2
	c-5.1,2.2-9.3,4.4-14.3,6.7c-1.7,0.8-3.5,2.3-4.1,4.1c-1.2-2.4-3.1-6.5-4.3-8.9c1.1,0.4,2.8,0.8,3.9,0.2c5.7-2.7,10.3-5.1,16-7.7
	c-1.1-2.7-3.8-7.2-6.4-8.7C268.9,89.8,271.8,91.1,273.1,89.1z M264.7,77.2c1.4,2.2,4.2,6,5.6,8.1c-1.8-0.6-2.6-0.2-4,0.7
	c-4.8,3.1-9.2,6.6-14,9.7c-1.4,0.9-2.6,1.9-2.7,4.2c-1.4-2.2-4.3-5.9-5.7-8.2c1.8,0.9,3.4-0.2,4.6-1c4.4-2.9,8.6-6,13-9
	C263.2,80.5,264.6,79.7,264.7,77.2z M198.1,205.5c0.7,4.3,1.9,8.5,2.8,12.5c-1.5-0.4-2.7,0.8-3.1,2.4c-0.1-1.4-1.6-2.5-3.4-2.3
	C195.9,214.9,197.5,209.9,198.1,205.5z M194.2,202c-0.3-0.1-0.5-0.4-0.7-0.7c-0.1-0.2-0.1-0.3,0-0.6c0.1-0.4,0.4-0.7,0.8-0.8
	c0.3-0.1,0.3,0.2,0.5,0.4c0.2,0.2,0.2,0.8,0.1,1.3C194.8,202.1,194.5,202.1,194.2,202z M196.7,197.2c0.1-0.3,0.1-0.7,0.1-0.8
	c0.1-0.1,0.2-0.2,0.3-0.3c0.1-0.1,0.2-0.1,0.3-0.1c0.1,0,0.2,0,0.3,0c0.2,0,0.3,0.1,0.4,0.2c0.1,0.1,0.2,0.2,0.2,0.3
	c0.1,0.3,0.1,0.8,0,1.2c-0.1,0.2-0.4,0.5-0.7,0.3c-0.2-0.2-0.4-0.3-0.6-0.5C196.9,197.4,196.8,197.3,196.7,197.2z M200.9,199.7
	c0-0.1,0.1-0.2,0.1-0.2h0.1c0.1,0,0.2,0,0.3,0c0.1,0,0.2,0.1,0.2,0.2c0.1,0.1,0,0.5,0.1,0.7c0.1,0.1,0.2,0.2,0.2,0.3
	c0,0.3-0.2,0.3-0.3,0.4c-0.2,0.2-0.5,0.2-0.7,0C200.6,200.9,200.9,200.2,200.9,199.7z M199.2,187.4c-5.6,4.3-0.1-1.3-15.5,11.3
	c-0.5,0.4-0.7,0.9-0.9,1.5c-1.1,2.3-2.9,3.9-4.4,5.8c-0.3,0.4-0.7,0.7-0.8,1.1c-0.1,0.2-0.1,0.4-0.2,0.6c0.7,8.1-5.6,12.8-9.5,14
	c-4.1,2.9-4.6,2-6.8,3.3c-1.2,0.6-2.7,0.6-3.9,0c-1.6-0.7-2.9-1.5-4.1-2.7c-0.5-0.5-0.8-0.7-1.4-0.9c-4.6-2.1-8.2-2.2-9.6-5.4
	c-1.2-2.6-1.1-4.4-0.8-7.4c-2.8-7.8-6.8-8-10.9-12.5c-6.8-7.4-12.6-6.1-17.7-14.8c-1.3-2.2-1.7-4.2-1.9-6.5c0-0.3-0.1-0.5-0.3-0.7
	c-0.3-0.3-0.6-0.4-1-0.5c1.5-2.1-1-2.6-1.3-4c-0.3-0.6-4.8-4.2-7.3-6.1c1.3-1.4,1.9-2.9,0.3-4.5c-1.6-1.8-3.6-5.3-3.9-5.8
	c-0.2-0.2-0.2-0.4,0-0.7c0.8-2,1.3-2.5,3.1-2.7c0.3,0,0.6-0.2,0.7-0.3c2.1-2.1,4-4,6-6.1c0.2-0.3,0.4-0.6,0-1
	c-1.6-2.4-2.7-5.3-3-8.1c-1.3-4.5-2.2-8.7-2.6-13.6c0-0.8-0.2-3.1-0.8-4.4c-5.2-9-6.6-25.7-0.5-31.3c0.4-0.3,0.7-0.2,1,0
	c11.9,5,22.9,12.1,30.7,20.8c0.3,0.4,0.6,0.8,1.1,0.6c9.9-3.2,20.9-4.3,30.1-3.5c6.4,0.2,14.1,0.5,20.8,2.6c0.3,0.1,0.7,0,1-0.3
	c10-9.1,22.1-19.4,31.1-22h0.1h0.1c0.2,0.1,0.3,0.3,0.5,0.6c1.8,3.3,3.3,6.6,4.5,10.1c0.2,0.5,0.1,0.9,0,1.4
	c-0.3,3.5,0.3,4.3-1.5,10c-0.3,0.7-0.7,9.4-2.4,10.9c-2.2,2.3-1.8,7.4-2.5,11.8c-0.1,1.9-0.7,3.8-1.1,5.2c-0.6,2.6-6.7,7.1,0.1,12.4
	c2.2,1.5,4.3,3.4,7.4,5c-5.9,8.2-6.5,8.5-4.7,12.3C203.1,168.6,210.6,178.8,199.2,187.4z M96.5,211.4c-8.7-12.3-5.6-26.2,9.9-32.2
	c0.1,0,0.2-0.1,0.2-0.1c0.2,0,0.3,0,0.4,0.3c0.3,0.9,0.4,1.8,0.5,2.6c0,0.3-0.2,0.3-0.2,0.5c-18.9,8.6-11,22.8-10,25.3
	c3.4,7.4,8.7,13.1,8.1,22.1c-0.1,0.7,0.4,0.9,0.8,0.9c1.3,0.1,2.5-0.4,3.7-1c0.4-0.2,1.5-0.4,1.9-0.4c12.4,0,28.7,1.1,33.7-4.2
	c0.3-0.4,0.5-0.5,1-0.3c0.6,0.2,1.2,0.5,1.8,0.9c0.3,0.2,0.5,0.4,0.3,0.6c-12.3,18-33.8-5.3-45.9,9.1
	C105.9,226.9,103,222.4,96.5,211.4z M91.3,106.5c0,0.1-0.1,0.2-0.2,0.3c-8.2,5.2-11.6,19-22.3,18.1c-0.2,0-0.3-0.1-0.2-0.2
	c4.9-14.2,14.2-26.8,25.1-36.4C90.4,94.9,90.7,100.2,91.3,106.5z M92.4,110.6c0.1-0.1,0.2-0.1,0.2-0.1c0.1,0,0.1,0,0.2,0.1
	c0.3,0.5,0.7,0.9,1.1,1.3c0.2,0.1,0.1,0.3,0,0.4c-6.8,7.9-13.3,15.3-21.8,16.9c-0.4,0.1-0.3,0.2-0.2,0.5c1.6,3,4.2,5.6,4.9,9.6
	c2.8,13.9,5,26.3,18.4,28.8c0.9,0.2,4.5-0.4,5.6,1.2c0.1,0.2,0,0.3-0.2,0.3c-16.9,2.3-23.2-8.8-24-17c-0.9-9.7-0.7-20.2-9.8-24.5
	C79.7,130.2,82.4,117.7,92.4,110.6z M95.2,149.1c-1.5-0.4-2.7,0.8-3.1,2.4c-0.1-1.4-1.6-2.5-3.4-2.3c1.6-3.3,3.2-8.3,3.7-12.6
	C93.1,140.9,94.2,145.2,95.2,149.1z M95,130.5c0-0.1,0.1-0.2,0.1-0.2s0.1,0,0.1-0.1c0.1,0,0.2,0,0.3,0.1c0.1,0,0.2,0.1,0.2,0.2
	c0.1,0.1,0,0.5,0.1,0.7c0,0.1,0.2,0.2,0.2,0.3c0,0.2-0.2,0.3-0.3,0.4c-0.2,0.2-0.4,0.2-0.7,0C94.7,131.7,94.9,131,95,130.5z
	 M88.3,132.8c-0.3-0.1-0.5-0.4-0.7-0.7c-0.1-0.2-0.1-0.3,0-0.6c0.1-0.4,0.5-0.7,0.8-0.8c0.3-0.1,0.3,0.2,0.5,0.4s0.2,0.8,0.1,1.3
	C88.9,132.9,88.6,132.9,88.3,132.8z M90.6,127.9c0.1-0.3,0.1-0.7,0.1-0.8c0.1-0.1,0.2-0.2,0.3-0.3c0.1-0.1,0.2-0.1,0.3-0.1
	c0.1,0,0.2,0,0.3,0c0.2,0,0.3,0.1,0.4,0.2c0.1,0.1,0.2,0.2,0.2,0.3c0.1,0.3,0.1,0.8,0,1.2c-0.1,0.2-0.4,0.5-0.7,0.3
	c-0.2-0.2-0.4-0.3-0.6-0.5C90.8,128.1,90.6,128,90.6,127.9z M76.5,163.8c4.2,6.3,9.9,8.6,15.8,9.9c3.9,0.2,8.3-0.2,12.1-0.6
	c0.4-0.1,0.3,0.3,0.4,0.4c0.3,0.6,0.5,1.2,0.8,1.8c0.1,0.2,0.1,0.4-0.2,0.4c-17.2,7.9-23.1,20-12.5,37.7c3.1,5.3,6.3,10.8,7.6,16.3
	c0.1,0.4,0.1,0.9,0,1.2c-0.4,0.9-0.8,2.2-0.8,2.9C66,209,55.2,162.2,66.2,132.1c0.1-0.2,0.2-0.3,0.2-0.3c0.1,0,0.2,0,0.3,0.1
	C79.3,138.9,68.8,153.2,76.5,163.8z M121.2,205.7c0.7,4.3,1.9,8.6,2.8,12.5c-1.5-0.4-2.7,0.8-3.1,2.4c-0.1-1.4-1.6-2.5-3.4-2.3
	C119,215,120.6,210,121.2,205.7z M119.9,197.5c0.1-0.3,0.1-0.7,0.1-0.8c0.1-0.1,0.2-0.2,0.3-0.3c0.1-0.1,0.2-0.1,0.3-0.1
	c0.1,0,0.2,0,0.3,0c0.2,0,0.3,0.1,0.4,0.2c0.1,0.1,0.2,0.2,0.2,0.3c0.1,0.3,0.1,0.8,0,1.2c-0.1,0.2-0.4,0.5-0.7,0.3
	c-0.2-0.2-0.4-0.3-0.6-0.5C120.1,197.7,119.9,197.6,119.9,197.5z M118.2,201.7c-0.1,0.5-0.4,0.5-0.7,0.4c-0.3-0.1-0.5-0.4-0.7-0.7
	c-0.1-0.2-0.2-0.3,0-0.6c0.1-0.4,0.5-0.7,0.8-0.8c0.3-0.1,0.3,0.2,0.5,0.4C118.3,200.6,118.3,201.2,118.2,201.7z M124.3,199.9
	c0-0.1,0.1-0.2,0.1-0.2h0.1c0.1,0,0.2,0,0.3,0c0.1,0,0.2,0.1,0.3,0.2c0.1,0.1,0,0.5,0.1,0.7c0.1,0.1,0.2,0.2,0.2,0.3
	c0,0.3-0.2,0.3-0.3,0.4c-0.2,0.2-0.4,0.2-0.6,0.1C124,201.1,124.3,200.4,124.3,199.9z M124.8,235.9c9.2,2.3,22.1,2.6,27.5-6.6
	c0.1-0.2,0.4-0.3,0.7-0.2c3,1.7,8.4,0.9,11.8-0.7c0.1,0,0.1-0.1,0.2,0c0.2,0,0.3,0.2,0.4,0.2c8.8,12.1,19.8,10.5,27.5,8.7
	c6.9-1.6,12.6-3.7,18.8-0.8c-33.2,22.7-77.4,22.1-106,1.4C111.3,232.4,118,234.3,124.8,235.9z M163.2,63.6c18,0.7,35,7,48.6,16.7
	c0.2,0.1,0.3,0.3,0,0.4c-6,3.8-11.9,7.8-17.8,11.7c-0.2,0.2-0.2,0-0.3-0.2c-2.7-12.8-15-16.2-26.2-20.7c-0.2-0.1-0.5-0.3-0.7-0.4
	c-1.8-1.8-4.9-4.5-3.8-7.1C162.9,63.7,163,63.6,163.2,63.6z M163.2,73.6c0.5,0.3,0.9,0.7,1.4,1c10.8,5,24.3,7.7,25.9,19.9
	c0.1,1.3-1.8,1.7-2.6,2.5c-0.2,0.2-0.3,0.3-0.3-0.1c-1-8.3-4.7-10.9-9.7-13.8c-6.8-3.9-14.1-5-18.6-13.3c-0.1-0.1-0.2-0.1-0.3,0
	c-5.3,12.5-29.6,11.3-29,29.3c0,0.3-0.2,0.3-0.5,0.2c-2.5-1.4-3.2-2.9-2.7-4.3c5.2-16.6,19.1-13.3,30.3-24.6
	c0.2-0.3,0.4-0.5,0.5-0.9c0.3-1.7,0.7-3.6,1.2-5C159.2,67.9,160.9,70.9,163.2,73.6z M163.1,84.4c0,0.3-0.2,0.3-0.2,0.4
	c-0.2,0.2-0.5,0.2-0.7,0.1c-0.5-0.3-0.2-1-0.2-1.5c0-0.1,0.1-0.2,0.1-0.2h0.1c0.1,0,0.2,0,0.3,0c0.1,0,0.2,0.1,0.2,0.2
	c0.1,0.1,0,0.5,0.1,0.7C162.9,84.2,163.1,84.3,163.1,84.4z M159,89.1c0.3,4.5,0.3,6.1,1.4,10c-1.4,0-2.4,0-4.3,0
	C157.2,95.6,157.6,93.5,159,89.1z M157.8,80.9c0.1-0.3,0-0.7,0.1-0.8c0.1-0.1,0.2-0.2,0.3-0.3c0.1-0.1,0.2-0.1,0.3-0.1
	c0.1,0,0.2,0,0.3,0c0.2,0,0.3,0.1,0.4,0.2c0.1,0.1,0.2,0.2,0.2,0.3c0.1,0.3,0.1,0.8,0,1.2c-0.1,0.2-0.4,0.5-0.7,0.3
	c-0.2-0.2-0.4-0.3-0.6-0.5C158,81.1,157.9,81,157.8,80.9z M156,84.8c-0.1,0.5-0.4,0.5-0.7,0.4c-0.3-0.1-0.5-0.4-0.7-0.7
	c-0.1-0.2-0.1-0.3,0-0.6c0.1-0.4,0.5-0.7,0.8-0.8c0.3-0.1,0.3,0.2,0.5,0.4S156.1,84.4,156,84.8z M123.4,93.6
	c-0.1,0.3-0.2,0.3-0.5,0.2c-8.3-4.7-13.7-8.8-21.5-11.8c-0.1,0-0.1-0.2,0-0.2c13.6-11.3,33.9-18.2,51.3-18.1c0.6,0,1.1,0,1.7,0
	c0.2,0,0.2,0.2,0.3,0.3C152.4,78.8,127.5,73.1,123.4,93.6z M226.1,135.3c0.7,4.3,1.9,8.6,2.8,12.5c-1.5-0.4-2.7,0.8-3.1,2.4
	c-0.1-1.4-1.6-2.5-3.4-2.3C224,144.7,225.6,139.7,226.1,135.3z M225.2,127c0-0.2,0-0.6,0.1-0.7c0.1-0.1,0.2-0.2,0.3-0.3
	c0.1-0.1,0.2-0.1,0.3-0.1c0.1,0,0.2,0,0.3,0c0.2,0,0.3,0.1,0.4,0.2c0.1,0.1,0.2,0.2,0.2,0.3c0.1,0.3,0.1,0.8,0,1.2
	c-0.1,0.2-0.4,0.4-0.7,0.2c-0.2-0.2-0.4-0.3-0.6-0.5C225.4,127.2,225.3,127.1,225.2,127z M222.9,131.4c-0.1,0.5-0.4,0.5-0.7,0.4
	c-0.3-0.1-0.5-0.4-0.7-0.7c-0.1-0.2-0.1-0.3,0-0.6c0.1-0.4,0.4-0.7,0.8-0.8c0.3-0.1,0.3,0.2,0.5,0.4
	C223,130.3,223,130.9,222.9,131.4z M226.1,164.6c19.5-6.9,7.7-25.1,17.6-36.7c0.2-0.2,0.1-0.5-0.2-0.6c-8.3-1.9-17.8-12.7-21-14.6
	c-0.2-0.1-0.2-0.2-0.2-0.4c0-0.7,0.2-1.8,0.3-2l0.1-0.1h0.1c7.5,5.9,14,16.6,24.1,15.6c0.2,0,0.4,0.3,0.1,0.5
	c-10,7.2-4.7,20.5-7.5,29.8c-2.2,8.4-9.5,12.3-21.2,11.6c-0.1,0-0.2-0.1-0.2-0.2C218.8,165.2,222.4,165.6,226.1,164.6z M229.1,129.9
	c0-0.1,0-0.2,0.1-0.2h0.1c0.2,0,0.3,0,0.4,0s0.2,0.1,0.2,0.2c0.1,0.1,0,0.5,0.1,0.7c0,0.1,0.2,0.2,0.2,0.3c0,0.3-0.2,0.3-0.3,0.4
	c-0.2,0.2-0.4,0.2-0.6,0.1C228.9,131.1,229.1,130.4,229.1,129.9z M224.4,171.7c2,0,4-0.8,6.2-1.4c24.5-10.5,6.5-29.2,17.6-40.4
	c11.3,39-0.7,76.1-29.7,101.3c-2.2-12.3,11.5-21,11.1-33.9c-0.2-10.8-10.4-17.9-18-21.1c-0.2-0.1-0.3-0.2-0.3-0.3
	C211.2,167.6,219,171.7,224.4,171.7z M234.2,61.9c2.7-2.3,5.3-3.4,9.1-3.2c0.6,0,1.1,0.1,1.8,0.2c5.4,0.9,9.9,5.8,12.2,9.3
	c1.1,1.5,1.8,2.7,3.4,3.7c-2,1-3.9,1.9-5.9,2.9c-0.3-3.5-3.8-8.4-7.6-9.9c-4.3-1.2-7.2,0-10,3.5c-1.5,2-2.4,3.1-1.8,6.7
	c1,4.5,7.8,8.4,11.8,9.6c-1.7,1.6-3.4,3.2-5,4.9c-0.2-1.7-2.4-3-3.8-4c-5-3.1-9.1-9.1-9.2-12.8C229.1,67.9,231.2,64.7,234.2,61.9z
	 M245.3,122.8c0.1,0.2-0.1,0.1-0.2,0.1c-9.1-0.5-13.3-12.8-21.2-17c-0.2-0.2-0.3-0.3-0.2-0.5c1.3-4.5,1.8-9.2,1.2-14.1
	C233.1,98.8,242.2,111.8,245.3,122.8z M203.5,31.3c4.3,2.1,12.9,6.2,17.1,8.3c1.8,0.8,3.9,2.1,4.5,4.2c1.1,4,0.3,7.1-3,9.1
	c-1.8,1.1-4.7,0.8-6.4,0.8c2.6,4,1.4,9.6,3.4,13.7c-2.5-1.2-6.7-3.4-9.4-4.5c1.9-0.7,1.8-2.1,1.6-3.9c-0.3-2-0.5-4.1-1.7-6
	c-0.9-1.4-4.4-3.1-5.8-3.8c-1.4,2.9-3.8,6.1-2.8,9.6c-2.3-1.2-6.3-3.1-8.6-4.3c1.7-0.6,2.7-1.6,3.4-3.2c2.6-5.3,5.4-10.6,7.8-15.8
	C204.3,34,204,32.7,203.5,31.3z M194.7,28.7c-1.3,1.5,0,4.3-0.1,6.5c-3.6-4.1-13.7-4.6-18.6-5.8c-0.4,2-0.9,4-1.1,6.1
	c2.8,0.6,7.9,1.6,10.7,2.2c0.9,0.2,2.5,0.1,3.4-0.1c-1.2,1.5-3,4.7-5.3,4.1c-2.7-0.3-7-1.4-9.7-1.8c-0.5,2.2-0.8,4.3-1.2,6.5
	c2.8,0.6,9.7,1.9,12.4,2.5c2.7,0.6,5.5,0,7.8-1.6c-0.8,2.4-2.9,4-2.7,6.7c-6.8-1.3-19.4-3.7-26.2-4.9c1-0.9,2-1.5,2.2-2.9
	c1.3-6.2,2.4-12.3,3.5-18.5c0.4-1.3-0.5-2.6-1.3-3.7C175.2,25.2,188,27.4,194.7,28.7z M140,24.9c6.5-0.1,18.8-0.8,25.3-0.8
	c-1.2,1.2,1.2,3.7,1.3,6.2c-2.4-1.4-7.7-2-10.6-1.8c0.2,5.7,0.4,12.4,0.8,18.1c0,1.7,0.7,1.8,2,3c-2.6,0-7.1,0.4-9.9,0.4
	c0.8-0.5,1.7-1.2,1.6-2.4c-0.1-6.2-0.7-12.5-0.7-18.7c-2.8-0.1-8.3,0.5-10.5,2.5C139.3,29.1,141.4,27.1,140,24.9z M120.1,30
	c3.6-2.7,12.7-3.3,16.9-4.2c0.1,2.2-0.2,4.3,0,6.5c-3.1-1.3-9.8-1-12.8,0.5c-1.5,0.8-1.6,3.2-0.2,4.1c1.6,0.8,3,0.2,4.7,0.2
	c3-0.2,10-0.6,12.3,1.9c2.5,2.8,2.4,7.2-0.2,10.3c-2.2,2.6-9.9,4.7-13.1,5.2c-1.5,0.3-3.9,0.5-5.3,1.3c-1-2.2-2.1-4.2-3.1-6.5
	c4,1.2,13.1,1.2,16.4-1.8c1.6-1.6,0.6-4.9-1.8-5c-3.4-0.3-10,1.3-13.5-0.2C114.9,39.5,115.9,33,120.1,30z M106.7,34
	c0.7,2.3,2.8,3.1,4.1,5c-5.2-0.3-13.4,5.3-18,7.3c0.8,1.9,2,3.6,2.9,5.4c2.5-1.4,7.9-4.4,10.4-5.7c0.8-0.4,1.6-1.1,2.2-1.8
	c-0.3,1.9,0.5,4.3-0.8,6c-2.3,1.5-7.6,3.9-9.9,5.3c1,2,2.1,3.9,3.2,5.8c2.9-1.7,9.6-5.1,12.4-7c1.7-1.3,3.9-3.2,4.5-5.2
	c0.8,2.4-0.4,6,1.5,7.1c-6.1,3.3-17.5,9.3-23.5,12.6c0.6-1.4,0.8-3,0.1-4.3C92.9,59.2,90,54,87.1,48.8c-0.7-1.3-1.8-1.9-3.3-2.3
	C89.4,43,100.7,37.4,106.7,34z M65.2,62.8c1.4-3.3,7.2-8.6,10.5-10.1c1-0.5,1.8-1.3,2.4-2.2c1,2,1.6,4.1,2.6,6.1
	c-4.5,0.2-10.7,6-11,9.1c-0.3,3.1,0.8,5.2,2.4,6.9c1.6,1.7,2.7,3.5,6.3,3.6c3.6,0.2,6.7-3.4,8.8-5.8c1.4-1.7,2.4-3.6,3-5.7
	c1.6,1.7,3.3,3.4,4.8,5.1c-1.9,0.8-3.1,2.5-4.4,3.9c-2.3,3-7.4,8-13.1,8.3c-5.7,0-9.4-2.4-12-7.7C63.3,70.1,63.3,66.6,65.2,62.8z
	 M56.4,71.5c0,1.8,0.7,3.1,2,4.1c4.7,3.7,9.4,7.5,14.2,11.1c1.1,0.9,2.5,0.8,4,0.6c-1.7,2-4.5,5.6-6.2,7.7c-0.2-1.6-0.7-2.9-1.9-3.8
	c-4.7-3.7-9.4-7.4-14.1-11c-1.2-1-2.7-1.1-4.3-0.9C51.8,77.3,54.7,73.6,56.4,71.5z M45.2,85.7c1.8,1.5,3.2,1.2,5.4,2.1
	c-2.1,1-3.7,2.7-4.7,4.7c-1.3,2.6-4.5,9.1-5.8,11.7c1.8,0.9,4.2,1.8,6,2.7c1.3-2.6,4.2-8.3,5.5-10.9c0.4-0.8,0.8-1.7,0.9-2.6
	c1.2,1.7,2.8,4,2.8,5.4c-1,2.4-4,7.8-5,10.2c2,0.9,3.6,2.1,5.7,2.8c1.3-2.7,4.6-9.2,5.8-11.8c1.1-2.4,1.4-5.4,1-7.8
	c1.4,1.3,2.1,2.8,3.5,4.1c0.5,0.5,1.2,1.1,1.9,1.1c-3.4,6.2-8.8,17.2-11.8,23.4c-0.5-1.4-1.7-2.7-3-3.3c-5.3-2.6-10.6-5.2-15.9-7.9
	c-1.5-0.8-2.7-0.9-4.3-0.2C36.1,103.2,42.2,91.8,45.2,85.7z M27.7,130.4c0.9,1.4,1.6,2.6,3.1,2.9c5.7,1.2,11.5,2.6,17.2,3.8
	c0.5-3,2.3-8.9,2.1-12c-0.1-1.6-0.2-4-1.1-5.4c1.8,0.9,3.1,2.5,4.8,3.4c0.5,0.3,1.2,0.2,1.8,0.2c-1.3,5.9-3.7,16.7-5,22.6
	c-0.7-1.3-2.1-2.4-3.5-2.7c-6.1-1.4-12.1-2.7-18.2-4c-1.4-0.3-2.2,0.4-3.4,1.2C26.1,137.9,27.1,133,27.7,130.4z M26.4,185.5
	c-0.6-2.6-1.5-6.8-2-9.4c1.2,0.9,2,1.5,3.3,1c6.4-1.5,12.3-2.7,17.9-4.3c1.5-0.3,2.7-1.3,3.6-2.5c1.2,6.1,4.1,17.2,5.4,23.2
	c-1.9-0.5-3.7,1.9-5.9,2.6c2.1-4.3-0.6-12.6-1.8-17.1c-2.2,0.3-4.3,0.9-6.4,1.4c0.6,2.8,1.9,8.2,2.5,11c0.1,0.9,1,2.4,1.5,3.1
	c-1.8-0.6-4.2-0.8-5.6-2.3c-0.9-2.6-1.8-8.2-2.6-10.9C32.9,182.4,28.7,182.3,26.4,185.5z M45.7,226.8c-7.2-2.6-12.5-13.5-9.8-20.5
	c2.1-5,6.5-7.4,11.4-8.5c0.7-0.1,1.4-0.1,2.1-0.1c2.1,0.1,4.3,0.6,6.4,2.2c4.5,3.1,7.6,8.6,7.8,14.1c0.1,4.9-2.1,8.5-5.3,10.7
	C54.9,227.2,50.3,228.4,45.7,226.8z M66.6,253.4c-7.5-1.4-15.5-10.9-13.5-18.2c1.4-5.3,5-8.4,9.8-10.2c1-0.4,2-0.6,3.1-0.6
	c1.7-0.1,3.6,0.3,5.8,1.2c5,2.3,9.3,6.9,10.5,12.3c0.9,4.8-0.8,8.8-3.5,11.5C75.7,252.5,71.4,254.2,66.6,253.4z M97.4,254
	c-3,4.5-6.1,9-9.2,13.5c-0.9,1.4-1.1,2.8-0.7,4.5c-2.2-1.5-6.1-4.1-8.2-5.6c1.2-0.1,2.3-0.2,2.9-1.3c3.4-5.1,7-10.1,10.4-15.3
	c-2.3-1.7-7.2-4.3-10.1-4c1.9-3,4.4-2.3,4.4-4.7c5.3,3.6,15.7,10.2,21,13.8c-1.9,0.8-1.7,4-2.8,6c-0.9-2.7-4.8-6.1-7.3-7.5
	C97.7,253.4,97.6,253.8,97.4,254z M118.5,285.7c-5.8-1.8-12.2-4.1-17.6-5.8c1.8-0.4,2.6-1.2,3-2.6c1.7-5.8,3.9-11,5.7-16.7
	c0.5-1.5,0.6-3.1-0.1-4.5c4,1.1,11.5,3.8,15.5,5.1c5.5,1.8,7.9,4.7,7.6,7.3c-0.2,3.7-2.9,5.8-6.9,5.4c1.5,0.8,5.4,2.5,5,6.1
	C129.9,286.2,124.5,287.7,118.5,285.7z M153,292c1.7-1.6,0.8-3.8,0-5.6c-3.8-0.5-10.9-1-14.6-1.3c-1.3,1.6-1.4,3.8-0.6,5.5
	c-2.5-0.5-6.7-1.7-9.1-2.1c1.3-1,2.2-1.7,3.2-3.3l10.7-18.2c0.3-0.4,0.4-1.3,0.2-1.7l10.2,1c0,0.1-0.3,0.9-0.1,1.7
	c1.3,3.9,5.6,16.4,6.7,19.7c0.5,1.7,1.5,3,2.6,4.3C159.8,291.9,155.5,292,153,292z M188,288.9c-6,0.7-17,2.5-23,3.1
	c1.2-1.4,1.2-3.7,1.1-5.5c-0.7-5.7-1.9-11.1-2.5-16.8c-0.2-1.5-1.1-2-2.3-2.9c2.6-0.3,7.3-0.9,10-1.3c-1,1.2-1.6,2.1-1.4,3.6
	c0.7,5.8,1.7,11.8,2.4,17.6c1.6,0,6.9-0.8,8.6-1.1c3.1-0.5,6-1.8,8-4c-0.3,2.1-1,3.8-1.3,5.8C187.4,287.9,187.8,288.4,188,288.9z
	 M192,287.5c0.9-1.7,0.3-3.6-0.2-5.3c-1.9-5.4-4-10.5-5.8-15.9c-0.5-1.4-1.4-1.8-2.8-2.4c2.5-0.9,6.8-2.6,9.3-3.3
	c-0.8,1.3-1.1,2.3-0.6,3.8c1.8,5.5,4,11.3,5.8,16.8c1.7-0.2,6.3-2.3,8-2.8c3-1.2,5.9-2.6,7.2-5.3c0.2,2.1-0.3,3.7-0.2,5.8
	c0,0.6,0.5,1,0.8,1.5C207.8,282.1,197.8,285.7,192,287.5z M169.2,227.4c-0.3-0.3-0.3-0.5,0-0.9c0.4-0.6,0.7-1,1.3-1.4
	c0.5-0.4,1.8-0.3,2.8,0.9c11.7,13.6,24,1,38.2,3.7c0.3,0,0.8,0,0.8-0.4c0-1.5-0.2-2.7,0-4.2c0.1-1.3,1.5-4.4,2.1-5.4
	c5.8-10.1,16.7-27.3-5.5-36.3c-1.2-0.4-1.2-1.1-0.9-1.9c0.3-0.7,0.7-1.4,1-2.2c0-0.1,0.1-0.2,0.2-0.2c0,0,0,0,0.1,0
	c11.3,4.6,21.8,13.9,12.8,29c-4,7.5-11.1,15.9-7.5,24.6C199.3,224.3,181.3,244.4,169.2,227.4z M241.4,263.1
	c-3.7,3.8-8.8,6.8-13.5,6.9c-4.2-0.1-7.3-2-9.7-5.3c-2.5-3.2-3.4-6.8-2.5-11.3c1.1-5.2,6.5-9.6,10.4-11.4c1.8-0.8,4.3-1.7,5.5-3.4
	c0.7,2,1.2,4.3,1.9,6.4c-4-0.7-10.3,2.8-11.8,7.6c-1,3.7,0.5,6.8,3,9.4c2.2,1.9,4.3,2.7,7.3,2.1c3.4-0.9,8.5-6.3,9.6-9.6
	c1.6,1.7,2.9,3.7,4.4,5.5C244.1,260.1,242.6,261.8,241.4,263.1z M251,255c-0.1-1.9-0.8-3.1-2.1-4.3c-4.4-3.6-8.6-7.4-13-11.2
	c-1.1-1-2.6-1.7-4.1-1.5c1.7-2,4.2-4.8,6-6.7c0.1,1.5,1,2.9,2.2,3.8c4.4,3.7,8.4,7.1,12.9,10.9c1.3-1.4,4.5-5.1,5.5-6.4
	c2-2.3,3.5-5.6,3.6-8.3c1.2,1.7,1.6,3,2.7,5.1c0.3,0.6,1,0.7,1.5,0.9C262.4,241.9,255,250.5,251,255z M275.1,223.9
	c-1.7,2.8-4,5.5-6.8,6.1c-3.2,0.7-5.6-0.2-7.9-1.5c-3.1-1.8-5.7-3.3-8.8-5.1c-1.7-1-3.3-1.7-5.6-0.7c1.8-2.9,3.3-6,4.9-8.9
	c0.1,2.2,1.2,2.8,2.4,3.5c3.5,2.1,6.3,3.6,9.8,5.7c1.4,0.8,3.6,1.7,5.4,0.8c2.6-1.1,4.5-4.5,4.6-7.4c-0.2-2.1-1.8-3.7-3.2-4.5
	c-3.8-2.1-7.1-4-11-6.1c-1.1-0.6-2.4-0.5-3.7,0.1c1.7-3,3.3-5.9,4.9-8.8c0,2.1,2.1,3.4,3.5,4.3c3.7,2.2,6.6,3.7,10.3,5.9
	c2.2,1.5,4.3,3.8,4.4,7.1C278.4,217.6,276.9,221,275.1,223.9z M285.4,201.7c-0.8-1.2-1.9-2.4-3.3-2.6c-5.9-1.3-11.8-2.6-17.7-3.9
	c-1.5-0.3-2.7-0.2-4,0.9c0.8-4,3-12.3,3.8-16.3c0.6-2.4,1.4-5,3.3-6.7c1.4-0.9,2.6-1.3,3.8-1.3c3.4-0.1,5.5,3.1,5.5,6
	c0.5-1.9,1.8-4.6,4.2-5.3c4.1-1,8.5,2,8.6,6.7C289.8,184.7,286.3,196.1,285.4,201.7z M273.6,137c-1.3-0.6-2.9,0.1-4.7,0.5
	c-2,0.5-3.1,1.4-4.1,3c-0.5-2.6-1.5-7.2-2-9.8c1.8,1.5,3,1.3,5.4,0.9c1.2-0.3,3.1-0.5,3.9-1.2c3.2-3.3,6.6-6.9,9.3-10.1
	c1.4-1.8,3.6-3.2,4.1-5.7l2.2,10.5c-1.2-1.2-2.6-0.7-3.6,0.5c-2.3,2.4-4.9,4.9-7.1,7.5c3,1.2,7.2,3.1,10.8,4.5
	c0.8,0.3,1.6-0.2,2.2-1.1l2,9.7C290.6,144.8,279.5,140.2,273.6,137z"/>
<path class="st1" d="M123.3,121.4c-3.7-6.2-0.4-8-4.6-12.8c-0.5-0.6-1.2-1.3-1.6-2c-2.8-0.1-6.5-5.5-12.3-8.7
	c2,3.4,1.8,12.5,2.8,18.6c0.1,0.7,0.3,1.2,0.6,1.7c0.8,1.5,1.6,3,2.6,4.3c0.7,0.9,1,1.8,0.6,2.7c-0.7,1.8-0.2,3.6,0.3,5.1
	c0.8,2.1,2.1,3.3,4.9,0c2.1-2.4,4.3-4.6,6.8-6.8C123.9,123.1,123.7,122.3,123.3,121.4z"/>
<path class="st1" d="M162.4,221.1c-1.2-0.2-2.5-0.2-3.7-0.2s-2.3,0.1-3.4,0.2c-0.2,0-0.2,0.2,0,0.4c0.8,0.5,1.6,1,2.4,1.5
	c0.2,0.1,0.4,0.2,0.7,0.3c0.3,0,1.7-0.1,2.6-0.3c0.2-0.1,0.5-0.1,0.6-0.2c0.3-0.2,0.8-0.8,1-1.3
	C162.6,221.3,162.6,221.1,162.4,221.1z"/>
<path class="st1" d="M216.4,42.5c-2.1-1.1-5.4-2.6-7.6-3.7c-1,2.2-2.2,4.2-3.1,6.4c2.2,0.9,6.1,3.1,8.4,3.9
	C218,51.3,221.9,45.4,216.4,42.5z"/>
<path class="st1" d="M264.2,51.8c-28.4-28.4-66.1-44-106.2-44C75.2,7.8,7.8,75.2,7.8,158S75.2,308.2,158,308.2
	S308.2,240.8,308.2,158C308.2,117.9,292.6,80.2,264.2,51.8z M159.8,301.9c-79.4,1-144.7-62.6-145.7-142s62.6-144.7,142-145.7
	s144.7,62.6,145.7,142S239.2,300.9,159.8,301.9z"/>
<path class="st1" d="M215,152.2c0.3-0.5,0-0.7-0.4-0.8c-2.5-1.6-4.7-3.7-6.4-5.7c-0.4-0.6-0.6-1.4-0.7-2c-1.8-8.4,1.9-9,2.6-13.8
	c0-2.4,0.6-5.2,1.4-7.7c0.9-2.9,1.3-5.3,2.3-6.9c0.5-14.6,5-11.3,3.8-19.1c-0.3-1.6-1.1-4.4-2.1-6.3c-0.1-0.2-0.2-0.3-0.3-0.3
	c0,0-0.1,0-0.2,0c-9.8,3.6-22,10.7-28.3,20.1c-2.6,2.1-5.2,4.1-7.9,5.8c5.6-7.5-5.6-8-19.2-9.5c-9.3-0.8-20.4,2.1-24,4.1
	c-0.3,0.2-0.5,0.6-0.3,0.9c1,1.4,1.3,3.1,1.9,4.7c0.1,0.2-0.1,0.2-0.2,0.1c-11.8-10.6-29.4-24.8-35.3-26.2c-0.3,0-0.5,0-0.7,0.3
	c-0.4,0.9-0.5,1.1-0.8,2c-0.2,0.8-0.6,1.2-0.9,1.5c-3.4,3.3,2.5,9.5,3.4,20.8c0.6,4.8,1.7,6.9,2.8,10.2c0.2,0.4,0.3,0.8,0.3,1.3
	c1.5,5.3,2.5,10.6,4.5,15.5c2.4,7.8-7,6.5-7.4,13c-0.2,4.4,5,6.8,4.1,10c-0.1,0.2-0.4,0.4-0.2,0.7c4,4.1,5.5,3.2,7.1,6.6
	c3.7,6.5,7.8-0.6,14.6,8.9c0.2,0.3,0.4,0.6,0.7,1c0.2,0.2,0.2,0.4-0.2,0.4c-0.8-0.1-2-0.9-3.1-1.4c-2.1-0.9-6.1-1.8-9.1-3.3
	c0,0-0.1,0-0.2,0c-0.1,0-0.2,0.1-0.2,0.2c-0.1,7,4.2,8.6,10.3,11c1.6,0.6,2.5,1.7,2.9,2.9c4.9,8,8.7,6.2,12.6,13.7
	c0.1,0.2,0.3,0.4,0.5,0c1.6-2.5,1.4-3.8,1.3-6.7c1.3,1.1,3,1.7,3.4-1.1c0.2-1.2,0.9-3,1.4-4.3c0.2-0.5,0.4-0.9,0.5-1.3
	c1.4-7.3,2.5-19.2,3.6-20.7c0.1-0.1,0.2-0.4,0-0.5c-1.2-1.3-2.6-3.4-2-4c0.7-0.5,4.6,1.1,4.6,4c-0.2,2.6-2.7,26.3-5.8,29.7
	c-0.2,0.2-0.1,0.3,0,0.4c1.4,1.9,1.1,2.4,0.6,2.6c-0.4,0.2-1.3,0.1-1.8,0.2c-0.1,0-0.1,0-0.2,0c-0.3,0-0.5-0.4-0.6-0.5
	c-0.1-0.2-0.3-0.2-0.4-0.2c-0.1,0-0.3,0.2-0.4,0.5c-4.7,8.5-3.9,14.1,4.7,15.8c3.9,0.5,5.4,0.3,5.7-3.1c0-0.2-0.1-0.4-0.3-0.3
	c-0.9,0.1-1.7-0.3-2.3-0.7c-1.7-1.1-2.7-2.2-4.2-4.5c-0.3-0.5-0.5-1.1-0.6-1.7c-0.2-1-0.2-2.1,0-2.8c0.1-0.3,0.2-0.5,0.4-0.7
	c0.4-0.4,1.2-0.7,2.3-0.9c4.4-0.8,8.6-0.6,11.8,0.9c0.4,0.2,0.7,0.5,0.9,0.8c0.3,0.5,0.2,1.1,0.2,1.7c-0.1,4.3-2.6,6.5-6.7,7.8
	c-0.3,0.1-0.6,0.2-0.6,0.4c0.1,2.3,0.1,3.1,3.5,3.5c4.5,0.6,9.4-0.6,11.2-7.5c0.5-1.6-1-6.4-2.3-9.2c-0.1-0.3-0.3-0.5-0.6-0.5
	c-0.1,0-0.2,0-0.2,0c-0.5,0.3-0.8,0.7-1.2,1.2l-0.1,0.1c-0.3,0.2-0.9,0-1-0.5c-1.8-9.6-3.7-11.1-4.8-18.4c-0.5-2.5-0.7-5-0.2-7.4
	c0.2-0.8,0.2-1.5,0-2.3c-0.6-2.4-0.6-4.9-0.1-7.2c0.4-0.8,1.3-1.9,1.9-2.7c0.5-0.7,0.9-1.6,1.2-2.5c0.3-0.9,3.4-5.5,6-6.2
	c0.2-0.1,0.3-0.2,0.3-0.4c0-0.2-0.4-0.2-0.4-0.6c0.1-1.8,11.5-0.8,17.5-0.3c2.3-0.2,4.6-0.6,6.7-1c0.4-0.1,0.4,0.1,0.2,0.3
	c-1.8,2-4.4,3.1-6.7,3.4c-0.4,0.1-0.6,0.3-0.6,0.6c-1.3,6.7-11,9.9-15.3,9.2c-0.3,0-0.3,0.1-0.3,0.3c0.3,3.4-1.2,3.8-2.4,13.8
	c-0.1,0.6-0.1,1.1,0,1.6c0.2,1.6,0.7,3.2,1,4.9c0,0.1,0,0.1,0,0.2c0.2,0.7,0.4,1.2,0.8,1.8c3.1,4.4,0.9,5.8,0.8,8.2
	c-0.7-1.6-0.4-3.3-0.5-3.5c-1.1-1.5-2.2-3.2-2.9-5.3c-0.9-2.6-1.4-5.8-1.1-9.6c1.1-2.9,1.7-6.4,2.2-9.7c1.7-3.6,1.9-5.2,3.5-5.1
	c1.5,0.1,3,0.2,4.4-0.2c0.5-0.1,1-0.3,1.5-0.6c2.3-1.4,4.3-3.3,6-5.5c0.2-0.2,0.3-0.7,0.2-0.9c-0.1-0.2-0.2-0.3-0.4-0.3
	c-2.5,0.2-4.9-1.2-7.8-1.1c-1.7,0.1-3.6,0.8-5.8,2.6c-3.2,3.2-6,7.1-8.1,10.9c-0.2,0.5-0.3,0.9-0.2,1.4c2.4,10.9,3.4,16.4,3.8,19.2
	c0.6,3.9,0.1,3.1,0.6,4.8c0.8,2.6,2,0.5,3.1,2.1c2.7,4,0.3,3.8,1.8,5.4c0.6,0.6,0.9,1.4,1.1,2c0,0.2,0.3,0.8,0.7,0.3
	c2.2-3.2,4.7-5.8,7.3-8.2c3.1-2.6,2.4-4.5,4.7-6.3c8.9-7.9,12.8-5.6,13.5-14c0.1-0.6-0.1-1.2-0.7-1.2c-0.2,0-0.5,0-0.8,0.2
	c-1,0.6-1.7,1.1-2.7,1.5c-0.4,0.1-0.8,0.2-1.2,0.2l-1.1-0.2c-0.5-0.1-0.8,0.3-1.1,0.6c-1,1.2-2,2.5-3.1,3.8
	c-0.2-0.8,0.4-0.9,0.4-1.6c0-0.2,0-0.4-0.2-0.5c-0.3-0.1-0.5-0.1-0.9,0c-0.1,0-0.4,0-0.2-0.2c0.3-0.4,0.6-0.7,0.9-1.1
	c1.3-1.4,2.5-2.7,3.8-4.2c0.4-0.5,1.1-0.8,1.7-1c5-2.1,10-5.3,13.8-9.4c0.1-0.1,0.3-0.4,0.3-0.6C209.2,157.8,212.7,156.2,215,152.2z
	 M132.6,136.2c0.2,0.1,0.3,0.1,0.4,0.2c0.1,0.1,0.2,0.1,0.3,0.2c0.3,0.3,0.4,0.5,1.2,0.9c0.2,0.1,0.4,0.2,0.7,0.3
	c0.3,0.1,0.6,0.2,1,0.3c0.9,0.3,1.6,0.5,2.2,0.7c0.6,0.2,1.2,0.5,1.9,1.1c0.3,0.2,0.5,0.4,0.8,0.6s0.6,0.5,1,0.8
	c0.2,0.1,0.3,0.2,0.3,0.4c0,0.1,0,0.1,0,0.2c0,0.1-0.1,0.2-0.1,0.2c-0.1,0.2-0.2,0.3-0.3,0.4l-0.1,0.1c0,0-0.1,0-0.2,0
	c-0.2,0-0.4-0.1-0.6-0.2c-0.2-0.1-0.3-0.1-0.5-0.2c-0.2-0.1-0.3-0.2-0.4-0.2c-0.1-0.1-0.2-0.2-0.3-0.3c-0.2-0.2-0.5-0.4-0.7-0.6
	c-0.1-0.1-0.3-0.2-0.5-0.3c-0.2-0.1-0.4-0.2-0.6-0.3c-0.2-0.1-0.4-0.1-0.6-0.1c-0.1,0-0.1,0-0.2,0.1c-0.3,0.1-0.5,0-0.7-0.1
	c-0.2,0-0.4-0.1-0.6-0.2c-1.7-0.7-3.6-2.2-3.6-4C132.5,136.2,132.6,136.2,132.6,136.2z M112.5,136.2c-0.2,0.1-0.3,0-0.4,0
	c-2.7-1.6-3.5-4.3-3.8-8c-0.9-9.9-2.9-1.3-6.3-30.8c-0.5-1.3-0.9-3.7-0.5-4.2c0.3-0.3,0.7-0.4,1.1-0.4c0.7,0,1.5,0.4,2.1,0.9
	c5.6,2.5,5.1,4.7,9.6,6.9c0.9,0.5,2.5,1.4,3.8,1.6c0.6,2,1.5,1.9,3.6,5.5c0.5,0.9,2.3,2.3,2.5,3.5c0.1,0.7,0.1,1.4,0.1,2.1
	c-0.1,2-0.9,3.9,0.2,4.8c0.9,0.5,0.3,0.9,2,1.8c0.8,0.4,1.3,0.8,0.8,1.7c-1.3,2.3-2.9,4.2-4.4,6.3c-0.4,0.5-0.9,0.9-1.5,1.2
	C118,131,115.4,133.7,112.5,136.2z M135.1,166.4c-0.2,0-0.3-0.1-0.4-0.1c-0.1-0.1-0.3-0.2-0.4-0.3c-0.5-0.3-0.9-0.7-1.4-1.1
	c-0.5-0.4-1-0.8-1.4-1.2c-0.5-0.4-0.9-0.8-1.3-1.1c-0.4-0.3-0.7-0.6-0.9-0.8c-0.2-0.2-0.4-0.3-0.5-0.5c-0.1-0.1-0.3-0.3-0.3-0.4
	c-0.2-0.2-0.3-0.4-0.4-0.5c-0.1-0.1-0.1-0.1-0.2-0.2c-0.2-0.2-0.5-0.4-1.2-0.8c-0.1,0-0.1-0.1-0.2-0.1v-0.1c0,0,0-0.1,0.1-0.1
	c0.1-0.1,0.2-0.1,0.3-0.2c0.1,0,0.1-0.1,0.2-0.1c0.1,0,0.2,0,0.2-0.1c0.1,0,0.2,0,0.3,0c0,0,0,0,0.1,0c0.2,0,0.3,0.1,0.5,0.1
	c0.2,0.1,0.4,0.2,0.6,0.3c0.2,0.1,0.4,0.3,0.7,0.4h0.1c0.2,0.2,0.4,0.3,0.6,0.5s0.5,0.4,0.7,0.6c0.5,0.4,1,0.8,1.6,1.2
	c0.3,0.2,0.6,0.4,0.9,0.6c0.2,0.2,0.5,0.3,0.8,0.5c0.1,0.1,0.2,0.1,0.3,0.2c0.3,0.2,0.6,0.3,1,0.5c0.3,0.2,0.7,0.3,1,0.4
	c0.1,0,0.2,0.1,0.3,0.2c0.3,0.1,0.7,0.2,1.1,0.3c0.4,0.1,0.9,0.3,1.4,0.3c0.5,0.1,1,0.2,1.5,0.2s1,0.1,1.6,0.1c0.1,0,0.2,0,0.2,0.1
	c0.1,0,0.1,0.1,0.1,0.2c0,0.9-0.8,1.2-1.6,1.2c-0.5,0-1,0-1.5,0C138.1,166.7,136.6,166.6,135.1,166.4z M135.4,159.2
	c0.1-0.2,0.2-0.4,0.3-0.6c0.1-0.2,0.2-0.3,0.4-0.5c0,0,0.1,0,0.1-0.1c0.2-0.2,0.3-0.3,0.5-0.4c0.1-0.1,0.3-0.2,0.4-0.3
	c0.1-0.1,0.3-0.1,0.5-0.1c0.1,0,0.3-0.1,0.4-0.1c0.2,0,0.3,0,0.5,0c0.5,0,0.9,0.1,1.4,0.2c0.2,0.1,0.4,0.2,0.6,0.3
	c0.2,0.1,0.4,0.3,0.5,0.4c0.2,0.2,0.3,0.3,0.5,0.5c0.3,0.4,0.4,0.8,0.5,1.2c0.1,0.7,0.1,1.4-0.2,2c-0.1,0.2-0.2,0.4-0.3,0.6
	c-0.5,0.8-1.3,1.3-2.2,1.5c-0.4,0.1-0.9,0.1-1.4,0c-0.2,0-0.5-0.1-0.7-0.2c-0.2-0.1-0.5-0.2-0.6-0.3c-0.4-0.3-0.7-0.6-1-1
	C135.1,161.5,134.9,160.3,135.4,159.2z M146.4,187.3c-0.1,0.2-0.3,0.4-0.2,0.8c0.1,0.8-0.1,1.6-0.4,2.3c-0.1,0.3-0.3,0.5-0.4,0.7
	c-0.1,0.1-0.1,0.2-0.2,0.3c-0.2,0.2-0.3,0.5-0.5,0.7c0,0-0.1,0.1-0.1,0.2c-0.4,0.6-0.9,1.1-1.3,1.7c-0.1,0.1-0.1,0.2-0.2,0.2
	c-0.2,0.3-0.4,0.7-0.6,1c-0.1,0.2-0.2,0.3-0.2,0.5c-0.1,0.2-0.2,0.3-0.2,0.5c-0.1,0.2-0.3,0.2-0.4,0.1c-0.1,0-0.1,0-0.2,0
	c-0.2-0.1-0.3-0.3-0.4-0.8c0-0.2,0-0.4-0.1-0.6c0-0.2,0-0.3,0-0.5c0-0.2,0-0.3,0.1-0.5c0-0.1,0-0.1,0-0.2c0-0.1,0.1-0.2,0.1-0.3
	c0.1-0.2,0.1-0.3,0.2-0.5c0-0.1,0.1-0.2,0.1-0.3c0.1-0.2,0.3-0.6,0.4-0.8c0.1-0.2,0.2-0.5,0.3-0.7c0.1-0.1,0.1-0.3,0.2-0.4
	c0.1-0.2,0.2-0.4,0.2-0.6c0.1-0.3,0.3-0.7,0.4-1.2v-0.1c-1.2-0.8-2.5-1.6-3.7-2.4c1.2,0.8,2.5,1.5,3.7,2.4c0.4-1.1,0.7-2.5,1-4.3
	c0.6-3.6,0.5-7.2-1.8-12.1c-0.4-0.7-0.2-2,0.6-2.5c0.4-0.3,0.5-0.4,0.6,0.2C144.3,176.6,149.7,181,146.4,187.3z M150.6,163.1
	c-0.2,0.5-0.4,1.1-0.5,1.7c0,0.1-0.1,0.2-0.2,0.2h-0.1c-0.4-0.3-0.8-0.5-1.2-0.8c-0.4-0.3-0.7-0.6-1.1-0.8c-0.3-0.3-0.7-0.6-1-0.9
	c-2.9-2.7-4.9-5.6-8.8-6.4c-1.7-0.3-3.8-0.3-6.6,0.4c-0.9,0.1-1.9,0.1-2.9,0c-1-0.1-2.1-0.2-3.1-0.4c-0.5-0.1-1-0.2-1.4-0.3
	c-0.5-0.1-0.9-0.2-1.3-0.3c-0.8-0.2-1.4-0.5-1.9-0.7c2,0,4.3,0,6.2-0.1c1.9-0.1,3.5-0.2,4.3-0.4c0.3-0.1,0.6-0.2,0.9-0.3
	c0.3-0.1,0.7-0.2,1.1-0.3h0.1c0.3-0.1,0.7-0.1,1.1-0.2c0.1,0,0.1,0,0.2,0c0.5,0,0.9-0.1,1.5-0.1c0.4,0,0.8,0,1.3,0
	c0.4,0,0.9,0.1,1.3,0.2c0.3,0.1,0.7,0.1,1,0.2c0.1,0,0.2,0,0.3,0.1c0.2,0,0.4,0.1,0.6,0.2c0.3,0.1,0.5,0.2,0.8,0.2
	c0.4,0.1,0.8,0.3,1.1,0.4c0.3,0.1,0.7,0.3,1,0.5c0.3,0.2,0.6,0.4,1,0.6c0.3,0.2,0.5,0.3,0.8,0.5c0.1,0.1,0.2,0.1,0.3,0.2
	c0.2,0.1,0.4,0.3,0.6,0.4l0.1,0.1c0,0,0.1,0,0.1,0.1c0.1,0,0.1,0.1,0.2,0.2c0.2,0.2,0.5,0.5,0.7,0.7c0.3,0.3,0.6,0.6,0.9,0.9
	c0,0,0,0,0.1,0.1c0.3,0.3,0.5,0.6,0.8,1c0.2,0.2,0.3,0.4,0.5,0.6c0.1,0.2,0.2,0.3,0.4,0.5c0.3,0.4,0.5,0.8,0.8,1.3
	c0.1,0.2,0.2,0.4,0.2,0.6C150.6,162.9,150.6,163,150.6,163.1z M156.9,119.5c-0.2,1-0.6,2-1,3c0,0,0,0.1-0.1,0.1l-0.1,0.1
	c-0.1,0-0.2,0-0.2,0c-0.5-0.6-1-1.2-1.4-1.8c-0.1-0.2-0.3-0.4-0.3-0.6s0-0.4,0-0.6c0-0.2,0-0.3,0-0.5c0-0.3-0.1-0.5-0.2-0.7
	c-0.3-0.4-0.7-0.6-1.4-0.8c-0.6-0.2-1.1-0.4-1.5-0.7c-0.6-0.4-1.1-1-1.4-1.8c-0.3-0.7-0.4-1.6-0.4-2.6c2.4,1.6,5.1,3.8,7.7,6
	c0.1,0.1,0.1,0.1,0.2,0.2C156.9,118.9,157,119.2,156.9,119.5z M161.8,118c-0.1,0.1-0.2,0.3-0.3,0.4c-0.1,0.2-0.2,0.3-0.3,0.5
	c-0.1,0.2-0.2,0.4-0.3,0.5c0,0.2-0.1,0.3-0.1,0.5c0.1,1.5-0.2,2.2,0.2,2.7v0.1v0.1c0,0.1,0,0.2-0.1,0.3c-0.3-0.2-0.7-0.5-1.1-0.9
	c-0.3-0.3-0.5-0.5-0.6-0.7c0-0.1,0-0.1,0-0.2c0-0.2,0-0.3,0-0.3c0-0.4-0.1-0.3-0.2-0.7c0-0.2-0.1-0.5-0.1-1c0-0.3,0-0.6,0-1
	c0-0.3,0-0.4,0.1-0.5c0,0,0.1-0.1,0.1-0.2c0,0,0.1-0.1,0.1-0.2c2.3-2.4,5.3-3.9,8-5.6C164.6,116.7,163.3,116.2,161.8,118z
	 M184.5,136.9c-0.9,0.3-1.9,0.6-2.9,1c-0.5,0.2-1,0.4-1.5,0.6c-2.4,1.1-4.9,2.4-7.4,3.7c-0.3,0.1-0.4,0.1-0.5-0.1
	c0-0.1-0.1-0.1-0.1-0.2c-0.1-0.3,0-0.5,0-0.8s0.1-0.5,0.1-0.8c0-0.4,0.3-0.4,0.4-0.6c0.5-0.2,0.9-0.3,1.2-0.5c1-0.5,1.4-0.8,1.7-1.1
	c0.2-0.2,0.4-0.4,0.7-0.6c0.3-0.2,0.7-0.5,1.3-0.8c0.4-0.2,0.8-0.3,1.1-0.5c0.4-0.2,0.8-0.3,1.1-0.4c0.3-0.2,0.6-0.2,0.9-0.2
	c0.6,0,1.3,0,2,0.2c0.7,0.2,1.3,0.4,1.9,0.7C184.7,136.6,184.7,136.8,184.5,136.9z M174.8,159.1c0.1-0.2,0.2-0.3,0.2-0.5
	c0,0,0,0,0.1,0c0-0.1,0.1-0.1,0.1-0.2c0.1-0.1,0.2-0.2,0.3-0.3l0.1-0.1c0.2-0.2,0.3-0.3,0.5-0.4c0.1-0.1,0.3-0.2,0.4-0.3
	c0,0,0,0,0.1,0l0.1-0.1c0.2-0.1,0.4-0.1,0.6-0.2c0.2,0,0.4-0.1,0.7-0.1c0.5,0,0.9,0.1,1.4,0.3c0.9,0.4,1.6,1.1,1.9,1.9
	c0.2,0.4,0.3,0.9,0.3,1.3c0,0.5-0.1,0.9-0.3,1.4c-0.2,0.5-0.4,0.8-0.8,1.2c-1,1-2.5,1.3-3.8,0.8c-0.2-0.1-0.4-0.2-0.6-0.3
	c-0.2-0.1-0.4-0.3-0.5-0.4C174.6,162,174.3,160.5,174.8,159.1z M203.6,133.9c-0.1,0.1-0.3,0.1-0.5,0c-5.6-2.8-10.7-8.5-15.6-13
	c7.6-5,0.7-10.2,6.2-15.9c6.3-6.7,11.9-7.4,17.7-12.3c0.2-0.2,0.5-0.3,0.7-0.3c0.1,0,0.2,0,0.2,0c0.5,0,0.9,0.4,1,0.9
	c0.1,0.9,0.3,1.8,0.5,2.7c-3.4,8.1-1.4,19.1-5.8,25.9C207.9,127.8,207.2,131.6,203.6,133.9z"/>
</svg>
