<?xml version="1.0" encoding="utf-8"?>
<!-- Generator: Adobe Illustrator 24.0.1, SVG Export Plug-In . SVG Version: 6.00 Build 0)  -->
<svg version="1.1" id="Layer_1" xmlns="http://www.w3.org/2000/svg" xmlns:xlink="http://www.w3.org/1999/xlink" x="0px" y="0px"
	 viewBox="0 0 56.8 57.1" style="enable-background:new 0 0 56.8 57.1;" xml:space="preserve">
<style type="text/css">
	.st0{fill:#FFFFFF;}
</style>
<g>
	<path class="st0" d="M27,49.5l-0.6,0l-0.1,0.7l0.6,0c0,0,0,0,0.1,0c0.1,0,0.2,0,0.3-0.1c0.1-0.1,0.1-0.1,0.1-0.3c0,0,0,0,0,0
		c0-0.1,0-0.2-0.1-0.2C27.2,49.6,27.1,49.5,27,49.5z"/>
	<path class="st0" d="M26.9,50.9l-0.6-0.1l-0.1,0.8l0.6,0.1c0,0,0,0,0.1,0c0.1,0,0.2,0,0.3-0.1c0.1-0.1,0.1-0.2,0.1-0.3c0,0,0,0,0,0
		c0-0.1,0-0.2-0.1-0.2C27.1,50.9,27,50.9,26.9,50.9z"/>
	<path class="st0" d="M42.5,30.2L42.5,30.2C42.5,30.2,42.5,30.2,42.5,30.2C42.5,30.2,42.5,30.2,42.5,30.2
		C42.6,30.2,42.5,30.2,42.5,30.2z"/>
	<path class="st0" d="M44.1,30.7c0.1,0,0.1,0.1,0.2,0.1C44.3,30.7,44.2,30.7,44.1,30.7z"/>
	<path class="st0" d="M43.2,30.3c0.1,0,0.1,0,0.2,0C43.3,30.4,43.3,30.4,43.2,30.3z"/>
	<path class="st0" d="M44.6,30.9c0.1,0,0.1,0.1,0.2,0.2C44.7,31,44.7,31,44.6,30.9z"/>
	<polygon class="st0" points="20.4,49.6 20.4,48.4 19.7,49.3 	"/>
	<path class="st0" d="M42.8,30.3c0,0,0.1,0,0.1,0C42.9,30.3,42.9,30.3,42.8,30.3z"/>
	<path class="st0" d="M43.7,30.5c0.1,0,0.1,0.1,0.2,0.1C43.8,30.5,43.7,30.5,43.7,30.5z"/>
	<path class="st0" d="M11.2,16.8C11.2,16.8,11.2,16.8,11.2,16.8c0-0.2-0.1-0.2-0.2-0.3c-0.1,0-0.1-0.1-0.2-0.1c0,0,0,0-0.1,0h0
		c-0.1,0-0.2,0.1-0.3,0.2l-0.4,0.5l0.6,0.4l0.4-0.5C11.2,17,11.2,16.9,11.2,16.8z"/>
	<path class="st0" d="M42.1,12.8c0.1,0.1,0.2,0.1,0.3,0.1c0,0,0,0,0.1,0c0,0,0.1,0,0.1,0c0,0,0.1,0,0.1-0.1c0,0,0.1-0.1,0.2-0.2
		c0.1-0.1,0.2-0.2,0.3-0.3c0.1-0.1,0.2-0.2,0.2-0.3c0.1-0.1,0.1-0.1,0.1-0.2c0-0.1,0.1-0.1,0.1-0.1c0,0,0-0.1,0-0.1v0
		c0-0.1-0.1-0.3-0.2-0.4c-0.1-0.1-0.1-0.1-0.2-0.1c0,0-0.1,0-0.1,0c0,0,0,0-0.1,0c0,0-0.1,0-0.1,0c0,0-0.1,0-0.1,0.1
		c-0.1,0-0.1,0.1-0.2,0.2c-0.1,0.1-0.2,0.2-0.3,0.3c-0.1,0.1-0.2,0.2-0.2,0.3C42,12,42,12.1,42,12.1c0,0.1-0.1,0.1-0.1,0.1
		c0,0,0,0.1,0,0.1v0c0,0.1,0,0.1,0,0.2C42,12.7,42,12.7,42.1,12.8z"/>
	<path class="st0" d="M34.3,8.6c0.1,0,0.1,0,0.2,0h0c0.1,0,0.2,0,0.2-0.1l-0.4-0.9c-0.1,0-0.2,0.1-0.3,0.1C34.1,7.9,34,8,34,8.1
		c0,0,0,0.1,0,0.1c0,0.1,0,0.1,0.1,0.2C34.1,8.5,34.2,8.6,34.3,8.6z"/>
	<path class="st0" d="M34.8,7.1C34.8,7.1,34.8,7.1,34.8,7.1c0.1,0,0.1,0,0.1,0c0.1,0,0.1,0,0.2-0.1c0,0,0.1-0.1,0.1-0.1
		c0,0,0-0.1,0-0.1c0,0,0-0.1,0-0.1c0-0.1-0.1-0.1-0.2-0.1c0,0-0.1,0-0.1,0c0,0-0.1,0-0.1,0c-0.1,0-0.1,0.1-0.1,0.1c0,0,0,0,0,0.1
		c0,0,0,0.1,0,0.1C34.7,6.9,34.8,7,34.8,7.1z"/>
	<path class="st0" d="M9.9,15.8c-0.1,0-0.1-0.1-0.2-0.1c0,0-0.1,0-0.1,0c-0.1,0-0.2,0.1-0.2,0.2l-0.3,0.5l0.6,0.4l0.3-0.5
		c0.1-0.1,0.1-0.2,0.1-0.2c0,0,0,0,0-0.1C10,16,10,15.9,9.9,15.8z"/>
	<path class="st0" d="M12.3,13c-0.1-0.1-0.2-0.1-0.3-0.1c0,0,0,0,0,0c-0.1,0-0.2,0.1-0.3,0.2l-0.4,0.4l0.6,0.5l0.4-0.4
		c0.1-0.1,0.1-0.2,0.1-0.3C12.5,13.2,12.4,13.1,12.3,13z"/>
	<path class="st0" d="M25.1,7c0,0.2,0,0.3,0.1,0.4c0,0.1,0,0.2,0.1,0.2c0,0.1,0,0.1,0.1,0.1c0,0,0,0.1,0.1,0.1
		c0.1,0,0.1,0.1,0.2,0.1c0,0,0.1,0,0.2,0c0,0,0.1,0,0.1,0c0.2,0,0.3-0.1,0.4-0.2c0,0,0-0.1,0.1-0.1c0,0,0-0.1,0-0.2c0,0,0,0,0-0.1
		c0,0,0-0.1,0-0.2c0-0.1,0-0.2,0-0.4c0-0.2,0-0.3-0.1-0.4c0-0.1,0-0.2-0.1-0.2c0-0.1,0-0.1-0.1-0.1C26,6,26,6,25.9,6
		c-0.1-0.1-0.2-0.1-0.3-0.1c0,0-0.1,0-0.1,0c-0.1,0-0.2,0-0.2,0.1c-0.1,0-0.1,0.1-0.2,0.1c0,0,0,0.1-0.1,0.1c0,0,0,0.1,0,0.2
		c0,0,0,0,0,0.1c0,0,0,0.1,0,0.2C25.1,6.7,25.1,6.8,25.1,7z"/>
	<path class="st0" d="M32.9,50.2c0-0.2-0.1-0.3-0.1-0.4c0-0.1,0-0.2-0.1-0.2c0-0.1,0-0.1-0.1-0.1c0,0-0.1-0.1-0.1-0.1
		c-0.1-0.1-0.2-0.1-0.3-0.1c0,0-0.1,0-0.1,0c-0.1,0-0.2,0-0.2,0.1c-0.1,0-0.1,0.1-0.1,0.2c0,0,0,0.1-0.1,0.1c0,0,0,0.1,0,0.2v0
		c0,0.1,0,0.1,0,0.2c0,0.1,0,0.2,0.1,0.4c0,0.2,0.1,0.3,0.1,0.4c0,0.1,0,0.2,0.1,0.2c0,0.1,0,0.1,0.1,0.1c0,0,0.1,0.1,0.1,0.1
		c0.1,0,0.1,0.1,0.2,0.1c0,0,0.1,0,0.1,0c0,0,0.1,0,0.1,0c0.2,0,0.3-0.1,0.4-0.2c0,0,0-0.1,0.1-0.1c0,0,0-0.1,0-0.2h0v0
		c0-0.1,0-0.1,0-0.2C33,50.5,32.9,50.4,32.9,50.2z"/>
	<path class="st0" d="M44.9,31.2c0.1,0.1,0.1,0.1,0.1,0.2C45,31.4,45,31.3,44.9,31.2z"/>
	<path class="st0" d="M32.5,26.6c1,0.7,1.9,1.3,2.6,1.6c0.1,0,0.1,0.1,0.1,0.2c0,0.1-0.1,0.1-0.2,0.1c-1.2-0.5-3-1.8-4.8-3
		c-1.8-1.2-3.6-2.3-4.7-2.3c-2.8,0-8.9,2.4-12.8,3.3c-3.4,0.8-7.3,1-8.1,1.1c0,0.1,0.2,0.3,0.5,0.4c0.5,0.3,1.6,0.6,3.8,0.6
		c1.3,0,3-0.1,5.1-0.4c3.3-0.4,5.4-0.6,6.8-0.6c2.2,0,2.8,0.5,4.2,1.4c0.1,0,0.1,0.1,0,0.2c0,0-0.1,0-0.1,0c0,0,0,0-0.1,0
		c-0.2-0.1-0.4-0.3-0.6-0.4c-0.7,0.2-1.8,0.4-2.1,0.5c-1.5,0.5-3.1,0.6-4.5,0.6c-2.4,0-4.4-0.4-5.4-0.4c-0.3,0-0.5,0-0.6,0.1
		c-0.2,0.2-0.3,0.4-0.3,0.7c0,0.8,0.7,1.9,1.7,2.6c1.3,1,2.6,1.1,3.4,1.1c0.8,0,2.5-1,4.5-1c0.2,0,0.3,0,0.5,0
		c2.6,0.2,7.1,1.5,9.3,1.5c2.9,0,6.6-1.4,8.1-1.9c1.5-0.5,2.5-0.6,3.2-0.7l0-0.1c-0.4-0.5-1.4-0.5-1.9-0.5c-0.2,0-0.3,0-0.3,0
		c0.3-0.3,1-0.3,1.1-0.3c0,0,0,0,0,0c1.8-0.1,1.4-0.8,1.4-0.8c-0.5-0.1-1.4-0.9-2.2-1.5c-0.6-0.5-1.4-0.8-2.3-0.9
		c-0.1,0-0.2,0-0.3,0c0.4-0.2,0.9-0.5,1.3-0.8c1.5-0.9,4.3-2.5,5.5-2.5c0.8,0,6.4,1.5,7.7,1.5c0.1,0,0.1,0,0.1,0c0,0,0,0,0,0
		c-0.1-0.1-0.2-0.1-0.3-0.2c-0.3-0.2-0.8-0.4-1.5-0.7c-1.5-0.6-6.4-2-8-2C38.8,23.1,33.9,26,32.5,26.6z M39.3,29.7
		c0.3,0,0.5,0.3,0.5,0.3s-0.2,0.3-0.5,0.3c-0.3,0-0.5-0.3-0.5-0.3S39,29.7,39.3,29.7z"/>
	<path class="st0" d="M42.9,31.8c-0.1,0-0.1,0-0.2,0C42.8,31.8,42.8,31.8,42.9,31.8z"/>
	<path class="st0" d="M43.3,31.8c0.2,0,0.3,0,0.5,0C43.6,31.8,43.5,31.8,43.3,31.8C43.3,31.8,43.3,31.8,43.3,31.8z"/>
	<path class="st0" d="M28.5,2.2C13.9,2.2,2.1,14,2.1,28.7c0,14.6,11.8,26.5,26.5,26.5C43.1,55.1,55,43.3,55,28.7
		C55,14,43.1,2.2,28.5,2.2z M28.5,54.8c-14.4,0-26.1-11.7-26.1-26.1S14.1,2.5,28.5,2.5c14.4,0,26.1,11.7,26.1,26.1
		C54.6,43.1,42.9,54.8,28.5,54.8z"/>
	<path class="st0" d="M28.5,3.5C14.6,3.5,3.4,14.8,3.4,28.7c0,13.9,11.2,25.1,25.1,25.1c13.9,0,25.1-11.2,25.1-25.1
		C53.6,14.8,42.4,3.5,28.5,3.5z M42.4,10.6c0.1-0.1,0.3-0.2,0.5-0.2c0,0,0.1,0,0.1,0c0.1,0,0.3,0,0.4,0.1c0.2,0,0.3,0.1,0.4,0.3
		c0.1,0.1,0.2,0.2,0.3,0.4c0.1,0.1,0.1,0.3,0.1,0.5c0,0,0,0.1,0,0.1c0,0.2,0,0.3-0.1,0.4c-0.1,0.2-0.2,0.4-0.5,0.6
		c-0.2,0.3-0.4,0.5-0.6,0.6c-0.1,0.1-0.3,0.2-0.5,0.2c0,0-0.1,0-0.1,0c-0.1,0-0.3,0-0.4-0.1c-0.2,0-0.3-0.1-0.4-0.3
		c-0.1-0.1-0.2-0.2-0.3-0.4c-0.1-0.1-0.1-0.3-0.1-0.5c0,0,0-0.1,0-0.1c0-0.2,0-0.3,0.1-0.5c0.1-0.2,0.2-0.4,0.5-0.6
		C42.1,10.9,42.3,10.8,42.4,10.6z M39.9,8l0.6,0.4l-0.7,1.1l0.9,0.6l0.7-1.1l0.6,0.4L40.2,12l-0.6-0.3l0,0l0.7-1.1L39.4,10l-0.7,1.1
		l-0.6-0.4L39.9,8z M33.4,7.9c0.1-0.2,0.2-0.3,0.3-0.4c0.1-0.1,0.3-0.2,0.5-0.2c-0.1-0.1-0.1-0.2-0.1-0.4c0-0.1,0-0.1,0-0.2
		c0-0.1,0-0.1,0-0.2c0.1-0.2,0.2-0.4,0.4-0.5C34.6,6,34.7,6,34.9,6c0.1,0,0.2,0,0.3,0.1c0.2,0.1,0.4,0.2,0.5,0.4
		c0.1,0.1,0.1,0.2,0.1,0.4c0,0.1,0,0.2,0,0.2c0,0.1-0.1,0.2-0.2,0.3c-0.1,0.1-0.2,0.1-0.3,0.2c0,0-0.1,0-0.1,0c0,0-0.1,0-0.1,0
		l0.3,0.7c0.1-0.1,0.2-0.2,0.3-0.5l0,0L36.2,8l0,0c-0.1,0.2-0.2,0.4-0.3,0.5c-0.1,0.1-0.2,0.2-0.4,0.3l0.4,0.8l-0.8-0.3L35,9.2l0,0
		c-0.1,0-0.3,0.1-0.4,0.1c0,0-0.1,0-0.1,0c-0.1,0-0.2,0-0.4-0.1c-0.3-0.1-0.6-0.3-0.7-0.5c-0.1-0.1-0.1-0.3-0.1-0.4
		C33.3,8.1,33.4,8,33.4,7.9z M27.9,5.1h0.6L29.7,7V5.1h0.7v3.2h-0.6l-1.3-1.9v1.9h-0.7V5.1z M24.4,6.3c0-0.2,0.1-0.4,0.2-0.5
		c0.1-0.1,0.2-0.2,0.4-0.3c0.1-0.1,0.3-0.1,0.5-0.1c0.1,0,0.1,0,0.2,0c0.1,0,0.2,0,0.3,0c0.2,0,0.3,0.1,0.4,0.2
		c0.2,0.1,0.3,0.3,0.3,0.5c0.1,0.2,0.1,0.4,0.2,0.8c0,0.3,0,0.5,0,0.7c0,0,0,0.1,0,0.1c0,0.2-0.1,0.4-0.2,0.5
		c-0.1,0.1-0.2,0.2-0.4,0.3c-0.1,0.1-0.3,0.1-0.5,0.1c-0.1,0-0.1,0-0.2,0c-0.1,0-0.2,0-0.3,0c-0.2,0-0.3-0.1-0.4-0.2
		c-0.2-0.1-0.3-0.3-0.3-0.5c-0.1-0.2-0.1-0.4-0.2-0.8c0-0.3-0.1-0.5-0.1-0.7C24.4,6.4,24.4,6.3,24.4,6.3z M23.4,5.6l0.2,0.6
		l-0.8,0.2L23.5,9l-0.6,0.2l-0.7-2.5l-0.8,0.2l-0.2-0.6L23.4,5.6z M18.4,7.4l0.5,1.2l1-0.4L19.4,7L20,6.7l1.3,2.9l-0.6,0.3l0,0
		l-0.6-1.2l-1,0.4l0.5,1.2l-0.6,0.3l-1.3-3L18.4,7.4z M15,9.8c0.1-0.3,0.2-0.6,0.5-0.8c0.2-0.1,0.4-0.2,0.5-0.2c0.1,0,0.1,0,0.2,0
		c0.1,0,0.2,0,0.3,0l0,0l-0.1,0.6l0,0c-0.1,0-0.2,0-0.3,0c0,0,0,0-0.1,0c-0.1,0-0.2,0-0.3,0.1c-0.1,0.1-0.2,0.2-0.2,0.4
		c0,0,0,0,0,0.1c0,0,0,0,0,0.1c0,0,0,0.1,0,0.2c0,0.1,0.1,0.1,0.1,0.2c0.1,0.1,0.1,0.2,0.2,0.3c0.1,0.1,0.2,0.2,0.2,0.3
		c0.1,0.1,0.1,0.1,0.2,0.2c0,0,0.1,0.1,0.1,0.1c0,0,0.1,0,0.1,0.1c0,0,0.1,0,0.1,0c0.1,0,0.2,0,0.3-0.1c0.1-0.1,0.2-0.2,0.3-0.4
		c0,0,0,0,0-0.1c0,0,0-0.1,0-0.1c0-0.1-0.1-0.1-0.1-0.2l-0.1-0.1l-0.5,0.3l-0.3-0.5l1-0.7l0.3,0.4c0.1,0.2,0.2,0.4,0.3,0.5
		c0,0.1,0,0.2,0,0.3c0,0.1,0,0.1,0,0.2c-0.1,0.3-0.2,0.6-0.6,0.8c-0.2,0.1-0.5,0.2-0.7,0.2c-0.1,0-0.2,0-0.2,0
		c-0.2,0-0.4-0.1-0.5-0.3c-0.1-0.1-0.3-0.3-0.5-0.6c-0.2-0.3-0.3-0.5-0.4-0.7c0-0.1-0.1-0.2-0.1-0.3C15,10,15,9.9,15,9.8z
		 M13.5,10.6l2.1,2.5l-0.5,0.4l0,0L13,11L13.5,10.6z M11.3,12.7c0.1-0.1,0.2-0.2,0.4-0.3c0.1-0.1,0.3-0.1,0.4-0.1c0,0,0,0,0.1,0
		c0.1,0,0.2,0,0.3,0.1c0.1,0,0.2,0.1,0.3,0.2c0.2,0.1,0.3,0.3,0.3,0.5c0,0.1,0,0.1,0,0.2c0,0.1,0,0.2-0.1,0.3l1.5,0.4L14,14.5l0,0
		l-1.4-0.4l-0.3,0.3l0.9,0.9l-0.5,0.5l-2.4-2.2L11.3,12.7z M8.9,15.6c0.2-0.3,0.4-0.4,0.6-0.5c0.1,0,0.1,0,0.2,0
		c0.2,0,0.3,0.1,0.5,0.2c0.1,0.1,0.2,0.2,0.3,0.3c0,0.1,0.1,0.2,0.1,0.3c0,0,0,0,0,0c0.1-0.1,0.2-0.1,0.4-0.1c0,0,0,0,0,0
		c0.1,0,0.3,0,0.4,0.1c0.2,0.2,0.4,0.4,0.4,0.6c0,0,0,0.1,0,0.1c0,0.2-0.1,0.4-0.2,0.6l-0.8,1.2l-2.7-1.8L8.9,15.6z M20.9,51.1
		l-0.6-0.3l0,0l0-0.6l-1.1-0.4l-0.4,0.5L18.2,50l2.4-2.6l0.5,0.2L20.9,51.1z M24.2,51.9l-2.1-0.5l0,0l0.8-3.2l0.7,0.2L22.9,51
		l1.4,0.3L24.2,51.9z M28,50c0,0.2-0.1,0.3-0.2,0.4c-0.1,0.1-0.2,0.2-0.3,0.2c0.1,0.1,0.2,0.2,0.3,0.3c0.1,0.1,0.1,0.2,0.1,0.4
		c0,0,0,0.1,0,0.1c0,0.3-0.1,0.5-0.3,0.7c-0.2,0.1-0.4,0.2-0.6,0.2h0c0,0-0.1,0-0.1,0l-1.4-0.1l0.3-3.3l1.3,0.1
		c0.3,0,0.6,0.1,0.7,0.3c0.1,0.2,0.2,0.4,0.2,0.6C28,49.9,28,49.9,28,50z M29.3,52.3L29.3,52.3L29.2,49l0.7,0l0.2,3.3L29.3,52.3z
		 M33.7,50.9c0,0.2-0.1,0.4-0.2,0.5c-0.1,0.1-0.2,0.3-0.3,0.3c-0.1,0.1-0.3,0.1-0.5,0.2c-0.1,0-0.2,0-0.3,0c-0.1,0-0.2,0-0.2,0
		c-0.2,0-0.3-0.1-0.4-0.2c-0.2-0.1-0.3-0.3-0.4-0.4c-0.1-0.2-0.1-0.4-0.2-0.8c-0.1-0.3-0.1-0.6-0.1-0.8v0c0-0.2,0.1-0.4,0.2-0.5
		c0.1-0.1,0.2-0.3,0.3-0.3c0.1-0.1,0.3-0.1,0.5-0.2c0.1,0,0.2,0,0.3,0c0.1,0,0.2,0,0.2,0c0.2,0,0.3,0.1,0.4,0.2
		c0.2,0.1,0.3,0.3,0.4,0.4c0.1,0.2,0.1,0.4,0.2,0.8C33.6,50.4,33.7,50.7,33.7,50.9C33.7,50.9,33.7,50.9,33.7,50.9z M37.1,50.7
		L37.1,50.7l-1.9-1.4l0.7,1.9l-0.6,0.2l-1.1-3.1l0.6-0.2l1.9,1.4l-0.7-1.8l0.6-0.2l1.1,3.1L37.1,50.7z M51.9,25.6
		c0.3,0.2,0.5,0.3,0.5,0.4c0,0.1-0.1,0.1-0.1,0.1c-0.1,0-0.1,0-0.2,0c-0.8,0-3.2-0.6-5.1-1c0.2,1.1,0.3,2.3,0.3,3.4
		c0,10.4-8.4,18.8-18.8,18.8C18.2,47.4,9.8,39,9.8,28.7c-0.3,0-0.5,0-0.8,0c-2.2,0-3.3-0.3-3.9-0.6c-0.6-0.3-0.7-0.7-0.6-0.7
		c0,0,0,0,0,0c0-0.1,0.1-0.1,0.1-0.1c0,0,1.1-0.1,2.7-0.2c0.8-0.1,1.7-0.2,2.7-0.3c1-9.4,9-16.8,18.6-16.8c8.6,0,15.9,5.8,18.1,13.8
		c1.6,0.4,3.1,0.9,3.8,1.2C51.1,25.2,51.6,25.4,51.9,25.6z M48.8,16.7L48.3,17l-0.8-1.3l-0.6,0.4l0.7,1.1l-0.5,0.3l-0.7-1.1
		l-0.6,0.4l0.8,1.3l-0.5,0.3l-1.2-1.8l0,0l2.7-1.8L48.8,16.7z M47.1,14.1l-3.1,1.3l0,0L43.6,15l1.7-3l0.5,0.5l-1.1,1.8l2-0.9
		L47.1,14.1z"/>
	<path class="st0" d="M44.2,31.8c-0.1,0-0.2,0-0.3,0C44,31.8,44.1,31.8,44.2,31.8z"/>
	<path class="st0" d="M45,32c-0.1,0-0.2,0-0.3-0.1C44.8,31.9,44.9,31.9,45,32z"/>
	<path class="st0" d="M44.7,31.9c-0.1,0-0.2,0-0.3,0C44.5,31.9,44.6,31.9,44.7,31.9z"/>
	<path class="st0" d="M45.3,32C45.3,32,45.2,32,45.3,32C45.2,32,45.3,32,45.3,32z"/>
	<path class="st0" d="M45.2,32c0,0-0.1,0-0.1,0C45.1,32,45.1,32,45.2,32z"/>
	<path class="st0" d="M45.2,31.6c0.1,0.1,0.1,0.3,0.1,0.4C45.3,31.9,45.2,31.7,45.2,31.6z"/>
	<path class="st0" d="M41,31C41,31,41,31,41,31c-0.2,0-0.9,0-1.2,0.3c0,0,0.1,0,0.3,0c0.5,0,1.5,0.1,1.9,0.5l0,0.1
		c0.2,0,0.4-0.1,0.6-0.1c0.1,0,0.1,0,0.2,0c0.1,0,0.3,0,0.4,0c0,0,0,0,0,0c0.2,0,0.3,0,0.5,0c0,0,0.1,0,0.1,0c0.1,0,0.2,0,0.3,0
		c0,0,0.1,0,0.1,0c0.1,0,0.2,0,0.3,0c0,0,0,0,0,0c0.1,0,0.2,0,0.3,0.1c0,0,0,0,0.1,0c0,0,0.1,0,0.1,0c0,0,0,0,0,0c0,0,0,0,0,0
		c0-0.2,0-0.3-0.1-0.4c0-0.1-0.1-0.1-0.1-0.1c0-0.1-0.1-0.2-0.1-0.2c0-0.1-0.1-0.1-0.2-0.1c-0.1-0.1-0.1-0.1-0.2-0.2
		c-0.1,0-0.1-0.1-0.2-0.1c-0.1,0-0.1-0.1-0.2-0.1c-0.1,0-0.2-0.1-0.3-0.1c-0.1,0-0.1-0.1-0.2-0.1c-0.1,0-0.2-0.1-0.3-0.1
		c-0.1,0-0.1,0-0.2,0c-0.1,0-0.2,0-0.3-0.1c0,0-0.1,0-0.1,0c-0.1,0-0.2,0-0.2,0c0,0-0.1,0-0.1,0C42.4,30.2,42.8,30.9,41,31z
		 M42.6,30.6c0-0.1,0.1-0.1,0.1-0.2c0.7,0.1,2,0.5,2.3,1.2c-0.4-0.1-0.9-0.2-1.6-0.2c-0.4,0-0.8,0-1.1,0.1c-0.2-0.2-0.4-0.3-0.7-0.4
		C42.1,31.1,42.5,30.9,42.6,30.6z"/>
</g>
</svg>
