<?xml version="1.0" encoding="utf-8"?>
<!-- Generator: Adobe Illustrator 24.0.1, SVG Export Plug-In . SVG Version: 6.00 Build 0)  -->
<svg version="1.1"
	 id="svg2" inkscape:version="0.48.3.1 r9886" sodipodi:docname="AFC-Bournemouth-(2013).svg" xmlns:cc="http://creativecommons.org/ns#" xmlns:dc="http://purl.org/dc/elements/1.1/" xmlns:inkscape="http://www.inkscape.org/namespaces/inkscape" xmlns:rdf="http://www.w3.org/1999/02/22-rdf-syntax-ns#" xmlns:sodipodi="http://sodipodi.sourceforge.net/DTD/sodipodi-0.dtd" xmlns:svg="http://www.w3.org/2000/svg"
	 xmlns="http://www.w3.org/2000/svg" xmlns:xlink="http://www.w3.org/1999/xlink" x="0px" y="0px" viewBox="0 0 240.9 315.8"
	 style="enable-background:new 0 0 240.9 315.8;" xml:space="preserve">
<style type="text/css">
	.st0{fill:#FFFFFF;}
</style>
<sodipodi:namedview  bordercolor="#666666" borderopacity="1" fit-margin-bottom="0" fit-margin-left="0" fit-margin-right="0" fit-margin-top="0" gridtolerance="10" guidetolerance="10" id="namedview397" inkscape:current-layer="svg2" inkscape:cx="-312.961" inkscape:cy="166.09904" inkscape:pageopacity="0" inkscape:pageshadow="2" inkscape:window-height="480" inkscape:window-maximized="0" inkscape:window-width="640" inkscape:window-x="0" inkscape:window-y="0" inkscape:zoom="0.21796875" objecttolerance="10" pagecolor="#ffffff" showgrid="false">
	</sodipodi:namedview>
<g>
	<path class="st0" d="M95.7,139.6L71.2,139l-0.4,9.8c0,0-1.6-0.1-3.8-0.1c-1.1,0-2.3,0-3.6,0.1c-3.8,0.2-4,5.5-4,5.5s-0.3,0-0.9,0
		c-1.1,0-3.1,0.1-5.3,0.7c-3.2,0.9-2.8,5.7-2.8,5.7s-8.3,0.2-11,3.4c-2.8,3.2-3.2,9.8-0.4,13.6c2.7,3.8,18.4,26.3,22.5,35.2
		c4,8.9,4.7,39,4.7,39l0.2,0.7l0,0c13.3,16.4,29.9,32.2,50.5,46.6c1.2,0.8,2.4,1.7,3.6,2.5c7.6-5.1,14.6-10.4,21.2-15.8l-40.8-47.1
		l2.5-2.2l0.8,0c0.3,0,0.5,0,0.8,0c1.5,0,2.9,0.2,4.6,0.2c2.6,0,5.7-0.4,9.7-2.5c1.6-0.9,2.7-2.1,3.4-3.6c0.7-1.5,1.1-3.2,1-4.9
		c0-1.8-0.4-3.5-0.9-4.5c-0.1-0.2-0.2-0.4-0.4-0.6c-0.9-1.3-2.4-2.3-4.1-3c-1.9-0.8-3.8-1.1-4.5-1.2c-0.2,0-0.3,0-0.3,0h-0.1
		l-2.3-0.4l-7.7-8.5l0,0l0,0l3.6-3.1l6.5,7.2l0.5,0.1c0.5,0.1,2.3,0.3,4.5,1l-9-10.4l0,0l0,0l3.6-3.2l0,0l2.1-1.8l0,0l0,0l3.6-3.1
		l0,0l2.1-1.8l0,0l1.3-1.1l0,0l0,0c0,0,1.8,0.5,4.7,0.6l3.7-0.1c1.7-0.1,3.5-0.4,5.5-1l2.8-1c1.6-0.8,2.8-1.9,3.6-3.2l0,0
		c0,0,0,0,0,0l1.3-2.9l0,0c0.8-2.8,0.6-5.7,0.4-6.9l0,0c0,0,0,0,0,0l-2.4-7l0,0v-7.3l0,0v0l-5.8-10.3c-1.3-0.2-2.5-0.3-3.8-0.6
		l6.6,11.7v6.5v0.5l0.2,0.5l2.3,6.7c0.1,0.9,0.2,3.1-0.3,5.2l-1.1,2.4c-0.5,0.8-1.2,1.4-2.1,1.9l-2.6,0.9c-1.6,0.4-3.1,0.7-4.7,0.9
		l-3.5,0.1c-2.4-0.1-3.9-0.5-3.9-0.5l-1.6-0.4l-1.2,1.1l-1.3,1.1l-2.1,1.8l-3.6,3.1l-2.2,1.8l-3.6,3.2l-1,0.9l-1.5,1.3l-3.6,3.1
		l-2.3,2l2,2.3l7.7,8.5l0.7,0.8l1,0.2l2.3,0.4l0.3,0h0.2l0,0l0.1,0c0.7,0.1,2.3,0.4,3.8,1c1.7,0.7,2.6,1.5,2.9,2.1l0,0l0,0
		c0.2,0.4,0.6,1.7,0.6,3.1l0,0l0,0c0,1.3-0.2,2.6-0.7,3.6c-0.5,1-1.2,1.7-2.1,2.3c-3.6,1.9-6.2,2.1-8.3,2.1l-0.1,0
		c-0.8,0-1.5,0-2.3-0.1c-0.7,0-1.4-0.1-2.2-0.1c-0.3,0-0.7,0-1,0l-0.8,0l-1,0.1l-0.8,0.7l-2.5,2.2l-2.3,2l2,2.3l38.8,44.8
		c-5.4,4.4-11.1,8.6-16.9,12.6c-19.8-13.5-37.1-29.2-51.4-46.9c-0.1-5.1-1-30.8-4.9-39.6c-4.6-10.1-22.6-35.5-22.8-35.7
		c-2-2.8-1.5-7.8,0.2-9.9c1.2-1.4,5.9-2.3,8.8-2.4l3.1-0.1l-0.2-3.1c-0.1-1.1,0.2-2.4,0.5-2.6c1.8-0.5,3.6-0.6,4.5-0.6
		c0.4,0,0.6,0,0.7,0l3,0.2l0.2-3c0-0.6,0.4-2.6,1.2-2.7c1.1-0.1,2.2-0.1,3.5-0.1c2.1,0,3.6,0.1,3.6,0.1l3,0.2l0.1-3l0.3-6.8
		l21.7,0.6l1.6,0l0.9-1.2c0.9-1.2,3.4-4,6.2-5.4c-0.7-0.7-1.4-1.5-2.1-2.3C98.5,135.9,95.7,139.6,95.7,139.6z"/>
	<path class="st0" d="M21.7,32.4c-0.5-2-0.9-3.9-1.4-5.9c0-0.2-0.1-0.3-0.3-0.3c-0.2,0-0.3,0.2-0.3,0.4c-0.4,2.2-0.9,4.3-1.3,6.5
		C19.5,32.9,20.6,32.7,21.7,32.4z"/>
	<path class="st0" d="M68.9,20.2v-0.3c0-1.2-0.8-1.7-3.1-1.4c-0.4,0-1.4,0.2-1.7,0.2c0,1.3,0,2.6,0,3.9c0.8-0.1,1.7-0.2,2.5-0.3
		C68.4,22,68.9,21.1,68.9,20.2z"/>
	<path class="st0" d="M110.9,19.7c0.2,0,0.7,0,1.1,0c0.2,0,0.4,0,0.5,0c2.4,0,3.1-0.7,3.1-2.2v-0.3c0-1.4-1.1-2-3-2
		c-0.3,0-1.5,0.1-1.8,0.1V19.7z"/>
	<path class="st0" d="M179.3,23c0-2.7-0.9-4-2.8-4.2c-1.9-0.2-2.8,0.8-2.8,3.5V25c0,2.7,0.9,3.9,2.8,4.2c0.2,0,0.3,0,0.5,0
		c1.6,0,2.3-1.1,2.3-3.5V23z"/>
	<path class="st0" d="M66.6,24.9c-0.8,0.1-1.7,0.2-2.5,0.3c0,1.4,0,2.8,0,4.2c0.4,0,1.5-0.2,1.8-0.2c2.3-0.3,3.1-1.1,3.1-2.3v-0.2
		C69,25.5,68.4,24.7,66.6,24.9z"/>
	<path class="st0" d="M78.8,21.1v2.7c0,2.5,0.8,3.6,2.4,3.6c0.1,0,0.2,0,0.4,0c1.9-0.2,2.8-1.4,2.8-4.1v-2.7c0-2.7-0.9-3.8-2.8-3.6
		C79.7,17.2,78.8,18.4,78.8,21.1z"/>
	<path class="st0" d="M0.1,96.4c0,1,0,2.1,0,3.3c0,1.1,0,2.4,0,3.6v0.2h0c0.1,4.6,0.3,10,0.8,16.1c1.6,19.8,6,46.4,17.2,75.1
		c15.5,39.9,44.3,83.9,96.4,118.4l4.2,2.7h3.3l4.3-2.7c4.9-3.2,9.6-6.6,14.1-9.9c40.3-30.5,64.7-66.8,79.3-100.8l0.1-0.1l0.1-0.3
		c1-2.4,2-4.8,3-7.2c1-2.5,1.9-5.1,2.8-7.6c12.8-36.1,15.1-68.1,15.2-86.3v-1.9c0-0.4,0-0.8,0-1.1l0,0V17.1C201.6,5.7,161,0,120.5,0
		h0C79.9,0,39.4,5.7,0,17.1v33.3h0L0.1,96.4z M131.8,22.3c0.1,0.1,0.1,0.2,0.2,0.2c0,0,0.1,0,0.1-0.2v-9.5c0-0.2,0.2-0.4,0.5-0.4
		c0.9,0,1.8,0,2.7,0.1c0.2,0,0.5,0.2,0.5,0.4c0,5.1,0,10.3,0,15.4c0,0.5-0.4,0.8-0.9,0.8c-0.7,0-1.5,0-2.2-0.1
		c-0.5,0-0.8-0.1-1.2-0.7c-1.7-3-3.4-6-5.1-8.9c-0.1-0.1-0.1-0.2-0.2-0.2c-0.1,0-0.1,0-0.1,0.2v9.1c0,0.2-0.2,0.4-0.5,0.4
		c-0.9,0-1.8,0-2.7,0c-0.2,0-0.5-0.2-0.5-0.5V13.1c0-0.5,0.4-0.8,0.8-0.8c0,0,0,0,0,0c0.8,0,1.5,0,2.3,0c0.5,0,0.7,0.2,0.9,0.7
		C128.3,16,130.1,19.2,131.8,22.3z M189.7,27.8c0,2.3,0.6,3.3,2.6,3.7c2,0.3,2.6-0.5,2.6-2.8v-10c0-0.2,0.2-0.4,0.4-0.3
		c1,0.2,1.9,0.3,2.9,0.5c0.2,0,0.5,0.3,0.5,0.5v10c0,5.1-2.9,6-6.5,5.4c-3.6-0.6-6.4-2.3-6.5-7.4v-10c0-0.2,0.2-0.4,0.4-0.4
		c0,0,0,0,0.1,0c1,0.1,2,0.3,2.9,0.4c0.2,0,0.4,0.3,0.4,0.5V27.8z M218.7,29.2c1.8,0.4,3.6,0.8,5.5,1.2v-6c0-0.2,0.2-0.4,0.4-0.3
		c1,0.2,1.9,0.4,2.9,0.7c0.2,0.1,0.4,0.3,0.4,0.5v15.8c0,0.2-0.2,0.4-0.4,0.3c-1-0.2-1.9-0.5-2.9-0.7c-0.2-0.1-0.4-0.3-0.4-0.6v-6.5
		c-1.8-0.4-3.6-0.8-5.5-1.2V39c0,0.2-0.2,0.4-0.4,0.4c-1-0.2-1.9-0.4-2.9-0.6c-0.2-0.1-0.4-0.3-0.4-0.5V22.4c0-0.2,0.1-0.3,0.3-0.3
		c0,0,0.1,0,0.1,0c1,0.2,1.9,0.4,2.9,0.6c0.2,0.1,0.4,0.3,0.4,0.5V29.2z M66.3,252.6L66.3,252.6c-15.8-19.4-26.9-39.6-34.8-59
		c-0.5-1.2-1-2.4-1.5-3.6c-6.2-15.8-10.1-31-12.7-44.6c-2.9-15.3-4-28.6-4.3-38.7V54.3c47.8-12.3,98.9-16,147.7-11.6v7.8
		c-6-2.4-14-4.7-20.5-4.8c-28.8-0.2-51.1,24-50.7,53.2c0.2,13.2,5,25.4,12.9,34.7c0.7,0.8,1.3,1.6,2.1,2.3
		c7.4,7.8,17,13.4,27.9,15.5c1.2,0.2,2.5,0.4,3.8,0.6c0.5,0.1,1,0.1,1.6,0.2l58.8,68.2c-0.6,1-1.1,2-1.7,3l-52.9-61l0,0v7.3l0,0
		l50.3,58c-0.5,0.8-1,1.7-1.6,2.5l-46.4-53.5l0,0c0.2,1.1,0.4,4-0.4,6.9l0,0l44.1,50.9c-0.5,0.8-1.1,1.6-1.6,2.4l-43.7-50.4l0,0
		c-0.8,1.3-2,2.4-3.6,3.2c0,0,0,0,0,0l44.4,51.3c-0.6,0.8-1.1,1.6-1.7,2.4l-45.6-52.6c-2,0.6-3.8,0.9-5.5,1l48.1,55.6
		c-0.6,0.8-1.2,1.5-1.8,2.3l-50-57.8c-2.9-0.1-4.7-0.6-4.7-0.6l0,0l-1.3,1.1l0,0l53,61.1c-0.6,0.7-1.2,1.5-1.8,2.2l-53.3-61.5l0,0
		l-3.6,3.1l0,0l53.7,62c-0.6,0.7-1.2,1.4-1.9,2.1l-54-62.3l0,0l-3.6,3.2l0,0l9,10.4c0,0,0,0,0,0c-2.2-0.7-4-0.9-4.5-1l-0.5-0.1
		l-6.5-7.2l-3.6,3.1l0,0l7.7,8.5l2.3,0.4h0.1c0,0,0.1,0,0.3,0c0.7,0.1,2.6,0.4,4.5,1.2c1.7,0.7,3.2,1.7,4.1,3
		c0.1,0.2,0.3,0.4,0.4,0.6c0.5,0.9,0.9,2.7,0.9,4.5c0,1.7-0.3,3.4-1,4.9c-0.7,1.5-1.8,2.7-3.4,3.6c-4,2.1-7.1,2.5-9.7,2.5
		c-1.6,0-3.1-0.2-4.6-0.2c-0.3,0-0.5,0-0.8,0l-0.8,0l-2.5,2.2l40.8,47.1c-6.5,5.4-13.6,10.7-21.2,15.8c-1.2-0.8-2.4-1.7-3.6-2.5
		C96.2,284.8,79.6,269,66.3,252.6z M138.8,24.6v-7.4c0-3.7,2.2-4.6,4.7-4.6c0.3,0,0.5,0,0.8,0c2.4,0.1,3.6,0.4,4.4,0.5
		c0.3,0.1,0.4,0.2,0.4,0.5v2.1c0,0.2-0.2,0.4-0.4,0.4c-1.5-0.1-3.1-0.2-4.6-0.3c-1.1-0.1-1.4,0.3-1.4,1.5v2c1.9,0.1,3.9,0.2,5.8,0.3
		c0.2,0,0.4,0.2,0.4,0.5v2.1c0,0.2-0.2,0.4-0.4,0.4c-1.9-0.1-3.9-0.2-5.8-0.3v2.4c0,1.2,0.4,1.5,1.4,1.6c1.5,0.1,3.1,0.2,4.6,0.3
		c0.2,0,0.4,0.2,0.4,0.5v2.1c0,0.3-0.1,0.4-0.4,0.4c-0.8,0.1-1.9,0.2-4.4,0C141.3,29.5,138.8,28.7,138.8,24.6z M145,152.4
		c4.9-0.3,11.3-2.3,15.7-3.9v24.3l-1.6-1.7L143,152.5C143.6,152.5,144.3,152.5,145,152.4z M151.5,145.2c-3.2,0.7-6.6,1.1-10.1,1.1
		c-3.5,0-7-0.5-10.3-1.3L120,128.3l-18.5-5.3c-3.5-5.9-5.8-12.7-6.6-19.9l11.8-15.6l-1.2-19.5c0.7-0.8,1.3-1.5,2-2.3
		c4.1-4.2,9-7.6,14.4-10l18.4,7.1l17.8-6.7c5.4,2.4,10.3,5.8,14.4,10c0.8,0.8,1.5,1.6,2.2,2.5l-0.5,19.9l12.1,15.3
		c-0.5,7.2-2.7,13.9-6,19.8l-18.7,5.3L151.5,145.2z M179,136.4c8.9-9.5,13.2-22.5,12.9-36.8c-0.2-13.3-4.1-25.9-12.9-35.7V44.7
		c5,0.7,12.5,2,17.5,2.9l0,166.1h0L179,194.2V136.4z M128.3,228.2c0.1-0.8,0.2-1.6,0.2-2.5c0-0.6,0-1.1-0.1-1.7c0,0,0-0.1,0-0.1l0,0
		c0,0,0,0,0,0l27.3,31.6l8.2,9.4c-0.6,0.7-1.3,1.4-2,2.1l0,0c0,0,0,0,0,0L128.3,228.2z M158.5,270.5c-0.7,0.7-1.3,1.3-2,2l0,0
		c0,0,0,0,0,0l-31.7-36.6c0.7-0.7,1.2-1.5,1.7-2.3l0,0c0,0,0,0,0,0L158.5,270.5z M147.4,280.9c0,0-0.1,0.1-0.1,0.1
		c-0.6,0.5-1.2,1.1-1.9,1.6c0,0-0.1,0.1-0.1,0.1l-35.8-41.3c0,0,0,0,0,0l0,0c1.1,0,2.3-0.1,3.6-0.3L147.4,280.9
		C147.4,280.9,147.4,280.9,147.4,280.9L147.4,280.9z M118.3,239.9L118.3,239.9L118.3,239.9C118.3,239.9,118.4,239.9,118.3,239.9
		c0.9-0.4,1.8-0.8,2.7-1.2l0,0c0,0,0,0,0,0l32.1,37.1c-0.6,0.6-1.3,1.2-1.9,1.8c0,0-0.1,0.1-0.1,0.1L118.3,239.9z M214.2,180.9V51
		c4.7,1,9,2.1,13.7,3.3v52.5l0,0C227.4,124.1,224.5,151,214.2,180.9z M212.8,22v2.3c0,0.3-0.2,0.4-0.5,0.3c-1.2-0.2-2.4-0.5-3.6-0.7
		v13c0,0.3-0.2,0.4-0.4,0.4c-1-0.2-1.9-0.4-2.9-0.6c-0.2,0-0.4-0.3-0.4-0.5v-13c-1.2-0.2-2.4-0.4-3.6-0.7c-0.3,0-0.4-0.3-0.5-0.5
		v-2.3c0-0.2,0.2-0.4,0.4-0.4c0,0,0.1,0,0.1,0c3.7,0.7,7.4,1.4,11,2.1C212.5,21.5,212.8,21.7,212.8,22z M183.2,23.5v2.7
		c0,5.2-2.9,6.8-6.6,6.3c-3.7-0.5-6.7-2.8-6.7-8v-2.7c0-4.7,2.4-6.5,5.5-6.5c0.4,0,0.7,0,1.1,0.1C180.2,15.9,183.2,18.3,183.2,23.5z
		 M159.5,21.1c0.1,0,0.2-0.1,0.2-0.3c1.1-2,2.3-4.1,3.4-6.1c0.2-0.4,0.5-0.6,1-0.5c0.7,0.1,1.4,0.1,2.1,0.2c0.5,0,0.8,0.4,0.8,0.9
		v15.6c0,0.3-0.2,0.3-0.4,0.3c-1-0.1-2-0.2-3-0.3c-0.2,0-0.4-0.2-0.4-0.5v-9.4c0-0.1-0.1-0.2-0.1-0.2c-0.1,0-0.1,0-0.2,0.1
		c-0.7,1.2-1.3,2.3-2,3.5c-0.2,0.2-0.4,0.3-0.7,0.3c-0.6-0.1-1.2-0.1-1.8-0.1c-0.3,0-0.5-0.2-0.7-0.4c-0.7-1.3-1.3-2.6-2-3.9
		c-0.1-0.1-0.1-0.2-0.2-0.2c0,0-0.1,0-0.1,0.2v9.3c0,0.3-0.2,0.4-0.4,0.4c-1-0.1-2-0.1-3-0.2c-0.2,0-0.4-0.1-0.4-0.3V14
		c0-0.4,0.3-0.7,0.7-0.7c0,0,0.1,0,0.1,0c0.7,0,1.4,0.1,2.1,0.2c0.5,0,0.8,0.3,1,0.7c1.2,2.2,2.3,4.4,3.4,6.7
		C159.4,21,159.4,21.1,159.5,21.1z M112.9,12.1c3.7,0,6.6,1.3,6.6,5.2v0.3c0,2.4-1.3,3.8-2.9,4.5c1.1,2.1,2.3,4.2,3.4,6.3
		c0,0.1,0.1,0.2,0.1,0.2c0,0.2-0.1,0.3-0.3,0.3c-1.2,0-2.3,0-3.5,0c-0.2,0-0.3-0.2-0.4-0.4c-1-1.9-2-3.8-3-5.6c-0.1,0-0.2,0-0.3,0
		c-0.2,0-0.5,0-0.8,0c-0.3,0-0.6,0-0.8,0v5.7c0,0.2-0.2,0.4-0.5,0.5c-1,0-2,0-2.9,0.1c-0.2,0-0.5-0.2-0.5-0.4v-15c0-0.8,0.3-1,1-1.1
		c1-0.2,3-0.4,4.6-0.4C112.7,12.1,112.8,12.1,112.9,12.1z M94.8,23.3c0,2.3,0.6,3.2,2.6,3.1c2-0.1,2.7-1.1,2.7-3.4v-10
		c0-0.2,0.2-0.4,0.5-0.4c1,0,2-0.1,2.9-0.1c0,0,0,0,0,0c0.2,0,0.5,0.2,0.5,0.4v10c0,5.1-2.9,6.6-6.5,6.7c-3.6,0.2-6.5-1-6.5-6.1v-10
		c0-0.2,0.2-0.4,0.5-0.4c1-0.1,2-0.1,3-0.2c0.3,0,0.5,0.2,0.5,0.4V23.3z M82.4,13.6c3.3,0,5.9,1.9,5.9,6.7V23c0,5.2-3,7.4-6.7,7.7
		c-3.7,0.3-6.7-1.4-6.7-6.6v-2.7c0-5.2,2.9-7.5,6.7-7.8C81.9,13.6,82.1,13.6,82.4,13.6z M67.6,15.2c3.1,0,5,1.1,5,4v0.4
		c0,1.5-0.7,2.8-1.9,3.5c1.2,0.4,2,1.6,2,3.1v0.3c0,3.9-3.2,5.4-7.1,5.8c-1.5,0.2-3.2,0.3-4.1,0.2c-0.9,0-1.2-0.3-1.2-1.3V17.7
		c0-1,0.3-1.4,1.2-1.6c0.8-0.2,2.6-0.6,4-0.7C66.3,15.2,66.9,15.2,67.6,15.2z M50.5,17.5c0.4,0,0.8,0,1,0.1c0.3,0,0.5,0.1,0.5,0.4
		v2.2c0,0.3-0.1,0.5-0.4,0.5c0,0,0,0-0.1,0c-0.9,0.1-2.1,0.1-3.3,0.3c-1.5,0.2-2.8,1.3-2.8,4.2v2.8c0,3,1.2,3.6,2.8,3.3
		c1.2-0.2,2.5-0.5,3.3-0.7c0,0,0,0,0.1,0c0.3,0,0.4,0.1,0.4,0.4v2.2c0,0.3-0.2,0.5-0.5,0.6c-0.5,0.2-1.8,0.6-3.3,0.9
		c-3.4,0.5-6.6-0.7-6.6-6v-2.8c0-5.3,3.2-7.7,6.6-8.2C49.1,17.6,49.9,17.5,50.5,17.5z M38.7,19.6C38.7,19.6,38.7,19.6,38.7,19.6
		c0.3,0,0.4,0.1,0.4,0.4v2.1c0,0.2-0.2,0.5-0.4,0.5c-1.5,0.3-3,0.6-4.5,0.8c-1,0.2-1.4,0.6-1.4,1.8v2c1.9-0.4,3.8-0.7,5.8-1.1
		c0.2,0,0.4,0.1,0.4,0.4v2.1c0,0.2-0.2,0.5-0.4,0.5c-1.9,0.3-3.8,0.7-5.8,1.1v6.5c0,0.2-0.2,0.5-0.4,0.5c-1,0.2-1.9,0.4-2.9,0.6
		c-0.2,0-0.4-0.1-0.4-0.4V26c0-4.1,2.6-5.3,5.4-5.9C36.8,19.7,37.9,19.7,38.7,19.6z M21.4,22.9c1,0,2,0.4,2.3,1.9
		c1.1,4.4,2.2,8.8,3.3,13.2c0,0,0,0.1,0,0.1c0,0.2-0.2,0.4-0.4,0.4c-1,0.2-2.1,0.4-3.1,0.7c-0.2,0-0.4-0.1-0.4-0.3
		c-0.3-1.2-0.5-2.3-0.8-3.5c-1.5,0.3-3,0.7-4.5,1c-0.3,1.3-0.5,2.6-0.8,3.9c0,0.2-0.2,0.5-0.4,0.5c-1,0.2-2.1,0.5-3.1,0.7
		c-0.2,0.1-0.4,0-0.4-0.3c0,0,0-0.1,0-0.1c1.1-4.9,2.2-9.8,3.3-14.7c0.5-2.3,2.1-3,3.7-3.3C20.5,23,21,22.9,21.4,22.9z"/>
	<polygon class="st0" points="140.8,79.2 121.4,93.6 121.4,93.9 121.4,93.9 129.2,117.6 153.5,117.7 160.6,94.2 160.6,94.1 
		160.6,93.9 	"/>
</g>
</svg>
